G04*
G04 #@! TF.GenerationSoftware,Altium Limited,Altium Designer,19.1.8 (144)*
G04*
G04 Layer_Color=32896*
%FSLAX25Y25*%
%MOIN*%
G70*
G01*
G75*
%ADD13C,0.00600*%
D13*
X263500Y289699D02*
Y287566D01*
X262434Y286500D01*
X261367Y287566D01*
Y289699D01*
X258701D02*
X259768D01*
X260301Y289166D01*
Y287033D01*
X259768Y286500D01*
X258701D01*
X258168Y287033D01*
Y289166D01*
X258701Y289699D01*
X257102D02*
Y287033D01*
X256569Y286500D01*
X255503D01*
X254969Y287033D01*
Y289699D01*
X253903D02*
X251770D01*
X252837D01*
Y286500D01*
X263500Y277699D02*
Y275566D01*
X262434Y274500D01*
X261367Y275566D01*
Y277699D01*
X258701D02*
X259768D01*
X260301Y277166D01*
Y275033D01*
X259768Y274500D01*
X258701D01*
X258168Y275033D01*
Y277166D01*
X258701Y277699D01*
X257102D02*
Y275033D01*
X256569Y274500D01*
X255503D01*
X254969Y275033D01*
Y277699D01*
X253903D02*
X251770D01*
X252837D01*
Y274500D01*
X260867Y310666D02*
X261401Y311199D01*
X262467D01*
X263000Y310666D01*
Y308533D01*
X262467Y308000D01*
X261401D01*
X260867Y308533D01*
Y309599D01*
X261934D01*
X259801Y308000D02*
Y311199D01*
X257668Y308000D01*
Y311199D01*
X256602D02*
Y308000D01*
X255003D01*
X254469Y308533D01*
Y310666D01*
X255003Y311199D01*
X256602D01*
X260867Y300166D02*
X261401Y300699D01*
X262467D01*
X263000Y300166D01*
Y298033D01*
X262467Y297500D01*
X261401D01*
X260867Y298033D01*
Y299099D01*
X261934D01*
X259801Y297500D02*
Y300699D01*
X257668Y297500D01*
Y300699D01*
X256602D02*
Y297500D01*
X255003D01*
X254469Y298033D01*
Y300166D01*
X255003Y300699D01*
X256602D01*
X298000Y272699D02*
Y270566D01*
X296934Y269500D01*
X295867Y270566D01*
Y272699D01*
X293201D02*
X294268D01*
X294801Y272166D01*
Y270033D01*
X294268Y269500D01*
X293201D01*
X292668Y270033D01*
Y272166D01*
X293201Y272699D01*
X291602D02*
Y270033D01*
X291069Y269500D01*
X290003D01*
X289469Y270033D01*
Y272699D01*
X288403D02*
X286270D01*
X287337D01*
Y269500D01*
X298000Y284699D02*
Y282566D01*
X296934Y281500D01*
X295867Y282566D01*
Y284699D01*
X293201D02*
X294268D01*
X294801Y284166D01*
Y282033D01*
X294268Y281500D01*
X293201D01*
X292668Y282033D01*
Y284166D01*
X293201Y284699D01*
X291602D02*
Y282033D01*
X291069Y281500D01*
X290003D01*
X289469Y282033D01*
Y284699D01*
X288403D02*
X286270D01*
X287337D01*
Y281500D01*
X292367Y295166D02*
X292900Y295699D01*
X293967D01*
X294500Y295166D01*
Y293033D01*
X293967Y292500D01*
X292900D01*
X292367Y293033D01*
Y294099D01*
X293434D01*
X291301Y292500D02*
Y295699D01*
X289168Y292500D01*
Y295699D01*
X288102D02*
Y292500D01*
X286503D01*
X285969Y293033D01*
Y295166D01*
X286503Y295699D01*
X288102D01*
X292367Y305666D02*
X292900Y306199D01*
X293967D01*
X294500Y305666D01*
Y303533D01*
X293967Y303000D01*
X292900D01*
X292367Y303533D01*
Y304599D01*
X293434D01*
X291301Y303000D02*
Y306199D01*
X289168Y303000D01*
Y306199D01*
X288102D02*
Y303000D01*
X286503D01*
X285969Y303533D01*
Y305666D01*
X286503Y306199D01*
X288102D01*
X301000Y313000D02*
Y316199D01*
X299400D01*
X298867Y315666D01*
Y314599D01*
X299400Y314066D01*
X301000D01*
X295668Y315666D02*
X296201Y316199D01*
X297268D01*
X297801Y315666D01*
Y313533D01*
X297268Y313000D01*
X296201D01*
X295668Y313533D01*
Y314599D01*
X296735D01*
X293003Y316199D02*
X294069D01*
X294602Y315666D01*
Y313533D01*
X294069Y313000D01*
X293003D01*
X292469Y313533D01*
Y315666D01*
X293003Y316199D01*
X289804D02*
X290870D01*
X291403Y315666D01*
Y313533D01*
X290870Y313000D01*
X289804D01*
X289270Y313533D01*
Y315666D01*
X289804Y316199D01*
X288204D02*
Y313000D01*
X286605D01*
X286071Y313533D01*
Y315666D01*
X286605Y316199D01*
X288204D01*
M02*
