G04*
G04 #@! TF.GenerationSoftware,Altium Limited,Altium Designer,19.1.8 (144)*
G04*
G04 Layer_Physical_Order=1*
G04 Layer_Color=255*
%FSLAX25Y25*%
%MOIN*%
G70*
G01*
G75*
%ADD11C,0.01000*%
%ADD33R,0.10787X0.12795*%
%ADD34R,0.05753X0.01381*%
%ADD35R,0.06693X0.04331*%
%ADD36R,0.06890X0.02559*%
%ADD37R,0.04134X0.12795*%
%ADD38R,0.24800X0.49200*%
%ADD39R,0.11811X0.18000*%
%ADD40R,0.06299X0.03150*%
%ADD41R,0.03150X0.03543*%
%ADD42R,0.03543X0.02756*%
%ADD43R,0.02756X0.03543*%
%ADD44R,0.03543X0.03150*%
%ADD45C,0.03000*%
%ADD46C,0.08000*%
%ADD47R,0.06000X0.06000*%
%ADD48C,0.06000*%
%ADD49R,0.06000X0.06000*%
%ADD50C,0.07087*%
%ADD51R,0.07087X0.07087*%
%ADD52R,0.07087X0.07087*%
%ADD53C,0.02300*%
%ADD54C,0.05000*%
G36*
X438000Y278500D02*
X400000D01*
X400000Y340500D01*
X438000D01*
X438000Y278500D01*
D02*
G37*
G36*
X470000Y256000D02*
X448500Y256000D01*
X448500Y271000D01*
X470000Y271000D01*
X470000Y256000D01*
D02*
G37*
G36*
X497000Y339500D02*
X497000Y273500D01*
X494000Y270500D01*
X494000Y228500D01*
X484500Y228500D01*
X484500Y241500D01*
X475000Y251000D01*
X475000Y279500D01*
X468500Y286000D01*
X468500Y339500D01*
X497000Y339500D01*
D02*
G37*
G36*
X556000Y223000D02*
X496500D01*
X496500Y245500D01*
X522000Y271000D01*
Y299500D01*
X556000D01*
Y223000D01*
D02*
G37*
%LPC*%
G36*
X538000Y255078D02*
X536944Y254939D01*
X535961Y254532D01*
X535116Y253884D01*
X534468Y253039D01*
X534061Y252056D01*
X533922Y251000D01*
X534061Y249944D01*
X534468Y248961D01*
X535116Y248116D01*
X535961Y247468D01*
X536944Y247061D01*
X538000Y246922D01*
X539055Y247061D01*
X540039Y247468D01*
X540884Y248116D01*
X541532Y248961D01*
X541939Y249944D01*
X542078Y251000D01*
X541939Y252056D01*
X541532Y253039D01*
X540884Y253884D01*
X540039Y254532D01*
X539055Y254939D01*
X538000Y255078D01*
D02*
G37*
%LPD*%
D11*
X380500Y274500D02*
X382500Y272500D01*
X422500Y254500D02*
X424500Y256500D01*
X415276Y254500D02*
X422500D01*
X413013Y252236D02*
X415276Y254500D01*
X416000Y259500D02*
X421500D01*
X414831Y258331D02*
X416000Y259500D01*
X410752Y258331D02*
X414831D01*
X430185Y267500D02*
X439500D01*
X430000Y267315D02*
X430185Y267500D01*
X421500Y259500D02*
X424500Y256500D01*
X411000Y261500D02*
X415244D01*
X417744Y264000D01*
X410880Y261500D02*
X411000D01*
X409294Y259913D02*
X410880Y261500D01*
X409775Y257354D02*
X410752Y258331D01*
X402744Y257354D02*
X409775D01*
X414000Y270000D02*
X416000D01*
X406663Y262663D02*
X414000Y270000D01*
X416000D02*
X422256D01*
X379516Y292398D02*
X381083Y290831D01*
X342815Y336500D02*
X342908Y336407D01*
X444815Y256685D02*
X453500Y248000D01*
X430000Y256685D02*
X444815D01*
X424500Y256500D02*
X429815D01*
X430000Y256685D01*
X423000Y269256D02*
X423276Y268980D01*
X417744Y264000D02*
X422744D01*
X423000Y263744D01*
X422256Y270000D02*
X423000Y269256D01*
X421925Y262669D02*
X423000Y263744D01*
X413924Y244559D02*
X415314Y243169D01*
X364331Y222898D02*
X378314Y236882D01*
X380500D01*
X364331Y221378D02*
Y222898D01*
X363453Y220500D02*
X364331Y221378D01*
X380500Y221453D02*
X380500Y221453D01*
X380500Y221453D02*
Y227000D01*
X377000Y230500D02*
X380500Y227000D01*
X415435Y235000D02*
X425000D01*
Y238256D01*
X424756Y238500D02*
X425000Y238256D01*
X446169Y243169D02*
X449500Y246500D01*
X456500Y250000D02*
X463000D01*
X415314Y243169D02*
X446169D01*
X410941Y244559D02*
X413924D01*
X414500Y238500D02*
X419244D01*
X419244Y238500D01*
X411000Y242000D02*
X414500Y238500D01*
X402744Y242000D02*
X411000D01*
X374000Y249500D02*
X380323D01*
X380500Y249677D01*
X361618Y247118D02*
X366736Y252236D01*
X358524Y244024D02*
X361618Y247118D01*
X380500D01*
X358500Y244000D02*
X358524Y244024D01*
X366736Y252236D02*
X380500D01*
X369500Y244500D02*
X380441D01*
X349000Y309000D02*
X365744D01*
X358524Y244024D02*
Y255476D01*
X358547Y255500D01*
X364453D02*
X365158Y254795D01*
X380500D01*
X341953Y261500D02*
X351000D01*
X371646Y257354D02*
X380500D01*
X368772Y260228D02*
X371646Y257354D01*
X352075Y260228D02*
X368772D01*
X351000Y261303D02*
X352075Y260228D01*
X359000Y265500D02*
X361000Y263500D01*
X369000D01*
X372587Y259913D01*
X380500D01*
X359000Y265500D02*
Y275500D01*
X376087Y262472D02*
X380500D01*
X371256Y267303D02*
X376087Y262472D01*
X365500Y267744D02*
Y276000D01*
Y267744D02*
X365744Y267500D01*
X371256Y267303D02*
Y267500D01*
X361500Y283846D02*
X365106Y287453D01*
X365500D01*
X365547Y287500D02*
Y297500D01*
X371256Y309000D02*
X371453Y308803D01*
Y297500D02*
Y308803D01*
X494594Y219500D02*
X505000Y229906D01*
Y233000D01*
X425000Y235000D02*
X488500D01*
X441000Y249000D02*
Y249500D01*
X439244Y251256D02*
X441000Y249500D01*
X431000Y251256D02*
X439244D01*
X463000Y250000D02*
X466500Y253500D01*
X381083Y286500D02*
Y290831D01*
X365744Y309000D02*
X365744Y309000D01*
X371453Y297106D02*
X376161Y292398D01*
X371453Y297106D02*
Y297500D01*
X376161Y292398D02*
X379516D01*
X453500Y219500D02*
X494594D01*
X453500Y240000D02*
Y248000D01*
X488500Y235000D02*
X489000Y235500D01*
X487925Y226575D02*
X489000Y225500D01*
X420081Y226575D02*
X487925D01*
X415732Y256331D02*
X416401Y257000D01*
X411648Y256331D02*
X415732D01*
X416401Y257000D02*
X420000D01*
X410113Y254795D02*
X411648Y256331D01*
X402744Y254795D02*
X410113D01*
X339000Y267500D02*
X350315D01*
X351000Y266815D01*
X328185Y267500D02*
X339000D01*
X327500Y266815D02*
X328185Y267500D01*
X335850Y261303D02*
X336047Y261500D01*
X327500Y261303D02*
X335850D01*
X359000Y275500D02*
X361500Y278000D01*
X380472Y262500D02*
X380500Y262472D01*
X361500Y278000D02*
Y283846D01*
X402744Y270756D02*
Y285327D01*
Y265032D02*
Y270756D01*
Y285327D02*
X403917Y286500D01*
X380500Y285917D02*
X381083Y286500D01*
X380441Y244500D02*
X380500Y244559D01*
X410994Y239441D02*
X415435Y235000D01*
X402744Y239441D02*
X410994D01*
X380500Y189000D02*
X380500Y189000D01*
Y215547D01*
X380310Y249487D02*
X380500Y249677D01*
X402744Y252236D02*
X413013D01*
X402744Y259913D02*
X409294D01*
X404930Y265032D02*
X405121Y265222D01*
X402744Y265032D02*
X404930D01*
X402744Y244559D02*
X410941D01*
X365500Y287453D02*
X365547Y287500D01*
X395256Y272500D02*
X401000D01*
X395256Y272500D02*
X395256Y272500D01*
X401000D02*
X402744Y270756D01*
X382500Y272500D02*
X389744D01*
X346500Y232000D02*
X350000Y228500D01*
X357547D01*
X346000Y220500D02*
X346000Y220500D01*
X357547D01*
X346500Y232000D02*
X351000Y236500D01*
X357547D01*
X402744Y252236D02*
X402935Y252427D01*
Y262663D02*
X406663D01*
X402744Y262472D02*
X402935Y262663D01*
X365500Y276000D02*
Y281547D01*
X402554Y244369D02*
X402744Y244559D01*
X409774Y236882D02*
X420081Y226575D01*
X402744Y236882D02*
X409774D01*
X430803Y245547D02*
X431000Y245744D01*
X417500Y245547D02*
X430803D01*
X417106D02*
X417500D01*
X415535Y247118D02*
X417106Y245547D01*
X402744Y247118D02*
X415535D01*
X417106Y251453D02*
X417500D01*
X415331Y249677D02*
X417106Y251453D01*
X402744Y249677D02*
X415331D01*
X380374Y257228D02*
X380500Y257354D01*
X380476Y254772D02*
X380500Y254795D01*
X364724Y229772D02*
X374394Y239441D01*
X364331Y229772D02*
X364724D01*
X363453Y228894D02*
X364331Y229772D01*
X363453Y228500D02*
Y228894D01*
X374394Y239441D02*
X380500D01*
X364724Y237772D02*
X368953Y242000D01*
X364331Y237772D02*
X364724D01*
X363453Y236894D02*
X364331Y237772D01*
X363453Y236500D02*
Y236894D01*
X368953Y242000D02*
X380500D01*
D33*
X391622Y250957D02*
D03*
D34*
X402744Y265032D02*
D03*
Y262472D02*
D03*
Y259913D02*
D03*
Y257354D02*
D03*
Y254795D02*
D03*
Y252236D02*
D03*
Y249677D02*
D03*
Y247118D02*
D03*
Y244559D02*
D03*
Y242000D02*
D03*
Y239441D02*
D03*
Y236882D02*
D03*
X380500D02*
D03*
Y239441D02*
D03*
Y242000D02*
D03*
Y244559D02*
D03*
Y247118D02*
D03*
Y249677D02*
D03*
Y252236D02*
D03*
Y254795D02*
D03*
Y257354D02*
D03*
Y259913D02*
D03*
Y262472D02*
D03*
Y265032D02*
D03*
D35*
X430000Y256685D02*
D03*
Y267315D02*
D03*
D36*
X391500Y352642D02*
D03*
Y336500D02*
D03*
D37*
X381083Y286500D02*
D03*
X403917D02*
D03*
D38*
X482700Y312500D02*
D03*
X422300D02*
D03*
D39*
X482500Y261000D02*
D03*
X505000Y233000D02*
D03*
D40*
X489335Y253500D02*
D03*
Y258500D02*
D03*
Y263500D02*
D03*
Y268500D02*
D03*
X466500Y253500D02*
D03*
Y258500D02*
D03*
Y263500D02*
D03*
Y268500D02*
D03*
X511835Y225500D02*
D03*
Y230500D02*
D03*
Y235500D02*
D03*
Y240500D02*
D03*
X489000Y225500D02*
D03*
Y230500D02*
D03*
Y235500D02*
D03*
Y240500D02*
D03*
D41*
X419244Y238500D02*
D03*
X424756D02*
D03*
X365744Y267500D02*
D03*
X371256D02*
D03*
X389744Y272500D02*
D03*
X395256D02*
D03*
X365744Y309000D02*
D03*
X371256D02*
D03*
D42*
X417500Y245547D02*
D03*
Y251453D02*
D03*
X380500Y221453D02*
D03*
Y215547D02*
D03*
X365500Y281547D02*
D03*
Y287453D02*
D03*
D43*
X336047Y261500D02*
D03*
X341953D02*
D03*
X358547Y255500D02*
D03*
X364453D02*
D03*
X357547Y236500D02*
D03*
X363453D02*
D03*
X357547Y228500D02*
D03*
X363453D02*
D03*
X357547Y220500D02*
D03*
X363453D02*
D03*
X365547Y297500D02*
D03*
X371453D02*
D03*
D44*
X423000Y269256D02*
D03*
Y263744D02*
D03*
X351000Y266815D02*
D03*
Y261303D02*
D03*
X327500Y266815D02*
D03*
Y261303D02*
D03*
X431000Y251256D02*
D03*
Y245744D02*
D03*
D45*
X380500Y274500D02*
Y277000D01*
Y266000D02*
Y274500D01*
Y277000D02*
Y285917D01*
D46*
X381083Y290831D02*
Y317917D01*
X379583D02*
X381083D01*
X361000Y336500D02*
X379583Y317917D01*
X381083D02*
X391500Y328335D01*
Y336500D01*
Y352642D02*
Y387000D01*
D47*
X538500Y292000D02*
D03*
D48*
Y311685D02*
D03*
X341315Y336500D02*
D03*
D49*
X361000D02*
D03*
D50*
X538000Y251000D02*
D03*
X371500Y387000D02*
D03*
X400500Y189000D02*
D03*
D51*
X538000Y231000D02*
D03*
D52*
X391500Y387000D02*
D03*
X380500Y189000D02*
D03*
D53*
Y277000D02*
D03*
X411000Y261500D02*
D03*
X377000Y230500D02*
D03*
X456500Y250000D02*
D03*
X449500Y246500D02*
D03*
X374000Y249500D02*
D03*
X369500Y244500D02*
D03*
X420000Y257000D02*
D03*
X410941Y244559D02*
D03*
D54*
X439500Y267500D02*
D03*
X416000Y270000D02*
D03*
X391622Y250957D02*
D03*
X349000Y309000D02*
D03*
X358500Y244000D02*
D03*
X441000Y249000D02*
D03*
X458500Y259000D02*
D03*
X452000Y263000D02*
D03*
X458000Y267500D02*
D03*
X453500Y219500D02*
D03*
Y240000D02*
D03*
X346000Y220500D02*
D03*
X346500Y232000D02*
D03*
X365500Y276000D02*
D03*
X339000Y267500D02*
D03*
M02*
