M48
;Layer_Color=9474304
;FILE_FORMAT=2:5
INCH,TZ
;TYPE=PLATED
T1F00S00C0.01300
T2F00S00C0.02800
T3F00S00C0.03530
T4F00S00C0.03800
T5F00S00C0.04291
T6F00S00C0.12835
T7F00S00C0.16000
%
T01
X490000Y258000
X460000
X427000Y232500
X372500Y231500
X371500Y227000
X368000Y233500
T02
X349000Y224500
X379000Y212500
X390122Y232957
X410500Y251000
X426000Y256000
X442000Y247000
X448500Y243000
X448000Y251500
X448500Y214000
X437500Y213500
X426500
X361500Y257500
X354500Y287000
Y298000
X392500Y309500
X356343Y319000
X346500
T03
X410500Y243500
X438500Y230000
T04
X509000Y247000
X538500
T05
X374142Y347319
X385047
X395953
X406858
X417764
X412311Y358500
X401405
X390500
X379594
T06
X346760Y352909
X445146
T07
X469000Y175000
X526500Y194000
X427500Y175000
X337500
X484500Y374500
X546500
M30
