M48
;Layer_Color=9474304
;FILE_FORMAT=2:5
INCH,TZ
;TYPE=PLATED
T1F00S00C0.01300
T2F00S00C0.02800
T3F00S00C0.03500
T4F00S00C0.05118
%
T01
X491500Y276000
X461500
X427500Y247500
X411000Y261500
X374000Y249500
X373000Y245000
X369500Y251500
T02
X346000Y220500
X346500Y232000
X347500Y255000
X339000Y267500
X363000Y275500
X391622Y250957
X412000Y269000
X427500Y274000
X443500Y259000
X450000Y255000
X449500Y263500
X445000Y232000
X435000Y231500
X415500Y223500
T03
X512000Y261000
X541500
X360685Y318000
X341000
T04
X476500Y182500
X525000Y191500
Y211500
X456500Y182500
X405500Y182000
X385500
X381000Y367000
X361000
M30
