G04*
G04 #@! TF.GenerationSoftware,Altium Limited,Altium Designer,19.1.7 (138)*
G04*
G04 Layer_Color=65535*
%FSLAX25Y25*%
%MOIN*%
G70*
G01*
G75*
%ADD10C,0.00600*%
%ADD11C,0.01000*%
%ADD12C,0.00787*%
G36*
X376624Y242750D02*
X375624D01*
Y241250D01*
X376624D01*
Y242750D01*
D02*
G37*
G36*
X406620Y255545D02*
X407620D01*
Y254045D01*
X406620D01*
Y255545D01*
D02*
G37*
D10*
X379922Y267957D02*
G03*
X379922Y267957I-300J0D01*
G01*
X384104Y235102D02*
X399139D01*
X384104Y266811D02*
X399139D01*
X387000Y329358D02*
X396000D01*
Y350858D01*
X387000D02*
X396000D01*
X387000Y329358D02*
Y350858D01*
X376000Y273199D02*
Y270533D01*
X376533Y270000D01*
X377600D01*
X378133Y270533D01*
Y273199D01*
X379199Y270000D02*
X380265D01*
X379732D01*
Y273199D01*
X379199Y272666D01*
X413000Y371500D02*
X414066D01*
X413533D01*
Y374699D01*
X413000Y374166D01*
X417798Y371500D02*
X415666D01*
X417798Y373633D01*
Y374166D01*
X417265Y374699D01*
X416199D01*
X415666Y374166D01*
X418865Y374699D02*
Y372566D01*
X419931Y371500D01*
X420997Y372566D01*
Y374699D01*
X416133Y190166D02*
X415599Y190699D01*
X414533D01*
X414000Y190166D01*
Y188033D01*
X414533Y187500D01*
X415599D01*
X416133Y188033D01*
Y189100D01*
X415066D01*
X417199Y187500D02*
Y190699D01*
X419332Y187500D01*
Y190699D01*
X420398D02*
Y187500D01*
X421997D01*
X422531Y188033D01*
Y190166D01*
X421997Y190699D01*
X420398D01*
X354000Y187000D02*
Y190199D01*
X355599D01*
X356133Y189666D01*
Y188600D01*
X355599Y188066D01*
X354000D01*
X359332Y189666D02*
X358799Y190199D01*
X357732D01*
X357199Y189666D01*
Y187533D01*
X357732Y187000D01*
X358799D01*
X359332Y187533D01*
Y188600D01*
X358265D01*
X361997Y190199D02*
X360931D01*
X360398Y189666D01*
Y187533D01*
X360931Y187000D01*
X361997D01*
X362531Y187533D01*
Y189666D01*
X361997Y190199D01*
X365196D02*
X364130D01*
X363597Y189666D01*
Y187533D01*
X364130Y187000D01*
X365196D01*
X365730Y187533D01*
Y189666D01*
X365196Y190199D01*
X366796D02*
Y187000D01*
X368395D01*
X368929Y187533D01*
Y189666D01*
X368395Y190199D01*
X366796D01*
X542500Y217699D02*
Y215566D01*
X543566Y214500D01*
X544633Y215566D01*
Y217699D01*
X545699D02*
Y214500D01*
X547298D01*
X547832Y215033D01*
Y215566D01*
X547298Y216100D01*
X545699D01*
X547298D01*
X547832Y216633D01*
Y217166D01*
X547298Y217699D01*
X545699D01*
X548898Y214500D02*
Y216633D01*
X549964Y217699D01*
X551031Y216633D01*
Y214500D01*
Y216100D01*
X548898D01*
X552097Y217699D02*
X554230D01*
X553163D01*
Y214500D01*
X555296Y217699D02*
X557429D01*
X556362D01*
Y214500D01*
X383000Y329858D02*
Y332191D01*
X384166Y333357D01*
X385333Y332191D01*
Y329858D01*
Y331608D01*
X383000D01*
X397500Y354999D02*
Y351500D01*
X399249D01*
X399833Y352083D01*
Y354416D01*
X399249Y354999D01*
X397500D01*
X400999Y351500D02*
X402165D01*
X401582D01*
Y354999D01*
X400999Y354416D01*
X373333Y209999D02*
X372166D01*
X372749D01*
Y207083D01*
X372166Y206500D01*
X371583D01*
X371000Y207083D01*
X374499Y209416D02*
X375082Y209999D01*
X376248D01*
X376831Y209416D01*
Y208833D01*
X376248Y208249D01*
X375665D01*
X376248D01*
X376831Y207666D01*
Y207083D01*
X376248Y206500D01*
X375082D01*
X374499Y207083D01*
X352833Y383499D02*
X351666D01*
X352249D01*
Y380583D01*
X351666Y380000D01*
X351083D01*
X350500Y380583D01*
X356331Y380000D02*
X353999D01*
X356331Y382333D01*
Y382916D01*
X355748Y383499D01*
X354582D01*
X353999Y382916D01*
X558999Y258667D02*
Y259834D01*
Y259251D01*
X556083D01*
X555500Y259834D01*
Y260417D01*
X556083Y261000D01*
X555500Y257501D02*
Y256335D01*
Y256918D01*
X558999D01*
X558416Y257501D01*
X390000Y294000D02*
Y297499D01*
X391749D01*
X392333Y296916D01*
Y295749D01*
X391749Y295166D01*
X390000D01*
X391166D02*
X392333Y294000D01*
X393499Y296916D02*
X394082Y297499D01*
X395248D01*
X395831Y296916D01*
Y296333D01*
X395248Y295749D01*
X395831Y295166D01*
Y294583D01*
X395248Y294000D01*
X394082D01*
X393499Y294583D01*
Y295166D01*
X394082Y295749D01*
X393499Y296333D01*
Y296916D01*
X394082Y295749D02*
X395248D01*
X352000Y283000D02*
Y286499D01*
X353749D01*
X354333Y285916D01*
Y284749D01*
X353749Y284166D01*
X352000D01*
X353166D02*
X354333Y283000D01*
X355499D02*
X356665D01*
X356082D01*
Y286499D01*
X355499Y285916D01*
X358415D02*
X358998Y286499D01*
X360164D01*
X360747Y285916D01*
Y283583D01*
X360164Y283000D01*
X358998D01*
X358415Y283583D01*
Y285916D01*
X355000Y295000D02*
Y298499D01*
X356749D01*
X357333Y297916D01*
Y296749D01*
X356749Y296166D01*
X355000D01*
X356166D02*
X357333Y295000D01*
X358499Y295583D02*
X359082Y295000D01*
X360248D01*
X360831Y295583D01*
Y297916D01*
X360248Y298499D01*
X359082D01*
X358499Y297916D01*
Y297333D01*
X359082Y296749D01*
X360831D01*
X336500Y254500D02*
Y257999D01*
X338249D01*
X338833Y257416D01*
Y256249D01*
X338249Y255666D01*
X336500D01*
X337666D02*
X338833Y254500D01*
X339999Y257999D02*
X342331D01*
Y257416D01*
X339999Y255083D01*
Y254500D01*
X350500Y252500D02*
Y255999D01*
X352249D01*
X352833Y255416D01*
Y254249D01*
X352249Y253666D01*
X350500D01*
X351666D02*
X352833Y252500D01*
X356331Y255999D02*
X355165Y255416D01*
X353999Y254249D01*
Y253083D01*
X354582Y252500D01*
X355748D01*
X356331Y253083D01*
Y253666D01*
X355748Y254249D01*
X353999D01*
X349500Y219000D02*
Y222499D01*
X351249D01*
X351833Y221916D01*
Y220749D01*
X351249Y220166D01*
X349500D01*
X350666D02*
X351833Y219000D01*
X355331Y222499D02*
X352999D01*
Y220749D01*
X354165Y221333D01*
X354748D01*
X355331Y220749D01*
Y219583D01*
X354748Y219000D01*
X353582D01*
X352999Y219583D01*
X349500Y235000D02*
Y238499D01*
X351249D01*
X351833Y237916D01*
Y236749D01*
X351249Y236166D01*
X349500D01*
X350666D02*
X351833Y235000D01*
X354748D02*
Y238499D01*
X352999Y236749D01*
X355331D01*
X349500Y227000D02*
Y230499D01*
X351249D01*
X351833Y229916D01*
Y228749D01*
X351249Y228166D01*
X349500D01*
X350666D02*
X351833Y227000D01*
X352999Y229916D02*
X353582Y230499D01*
X354748D01*
X355331Y229916D01*
Y229333D01*
X354748Y228749D01*
X354165D01*
X354748D01*
X355331Y228166D01*
Y227583D01*
X354748Y227000D01*
X353582D01*
X352999Y227583D01*
X371500Y216500D02*
Y219999D01*
X373249D01*
X373833Y219416D01*
Y218249D01*
X373249Y217666D01*
X371500D01*
X372666D02*
X373833Y216500D01*
X377331D02*
X374999D01*
X377331Y218833D01*
Y219416D01*
X376748Y219999D01*
X375582D01*
X374999Y219416D01*
X421000Y248000D02*
Y251499D01*
X422749D01*
X423333Y250916D01*
Y249749D01*
X422749Y249166D01*
X421000D01*
X422166D02*
X423333Y248000D01*
X424499D02*
X425665D01*
X425082D01*
Y251499D01*
X424499Y250916D01*
X462833Y272083D02*
Y274416D01*
X462249Y274999D01*
X461083D01*
X460500Y274416D01*
Y272083D01*
X461083Y271500D01*
X462249D01*
X461666Y272666D02*
X462833Y271500D01*
X462249D02*
X462833Y272083D01*
X466331Y271500D02*
X463999D01*
X466331Y273833D01*
Y274416D01*
X465748Y274999D01*
X464582D01*
X463999Y274416D01*
X486333Y244083D02*
Y246416D01*
X485749Y246999D01*
X484583D01*
X484000Y246416D01*
Y244083D01*
X484583Y243500D01*
X485749D01*
X485166Y244666D02*
X486333Y243500D01*
X485749D02*
X486333Y244083D01*
X487499Y243500D02*
X488665D01*
X488082D01*
Y246999D01*
X487499Y246416D01*
X409501Y277500D02*
X413000D01*
Y279833D01*
Y280999D02*
Y282165D01*
Y281582D01*
X409501D01*
X410084Y280999D01*
X355333Y306416D02*
X354749Y306999D01*
X353583D01*
X353000Y306416D01*
Y304083D01*
X353583Y303500D01*
X354749D01*
X355333Y304083D01*
X356499Y303500D02*
X357665D01*
X357082D01*
Y306999D01*
X356499Y306416D01*
X359415D02*
X359998Y306999D01*
X361164D01*
X361747Y306416D01*
Y304083D01*
X361164Y303500D01*
X359998D01*
X359415Y304083D01*
Y306416D01*
X372333Y347416D02*
X371749Y347999D01*
X370583D01*
X370000Y347416D01*
Y345083D01*
X370583Y344500D01*
X371749D01*
X372333Y345083D01*
X373499D02*
X374082Y344500D01*
X375248D01*
X375831Y345083D01*
Y347416D01*
X375248Y347999D01*
X374082D01*
X373499Y347416D01*
Y346833D01*
X374082Y346249D01*
X375831D01*
X392333Y277916D02*
X391749Y278499D01*
X390583D01*
X390000Y277916D01*
Y275583D01*
X390583Y275000D01*
X391749D01*
X392333Y275583D01*
X393499Y277916D02*
X394082Y278499D01*
X395248D01*
X395831Y277916D01*
Y277333D01*
X395248Y276749D01*
X395831Y276166D01*
Y275583D01*
X395248Y275000D01*
X394082D01*
X393499Y275583D01*
Y276166D01*
X394082Y276749D01*
X393499Y277333D01*
Y277916D01*
X394082Y276749D02*
X395248D01*
X420333Y232916D02*
X419749Y233499D01*
X418583D01*
X418000Y232916D01*
Y230583D01*
X418583Y230000D01*
X419749D01*
X420333Y230583D01*
X421499Y233499D02*
X423832D01*
Y232916D01*
X421499Y230583D01*
Y230000D01*
X350333Y272916D02*
X349749Y273499D01*
X348583D01*
X348000Y272916D01*
Y270583D01*
X348583Y270000D01*
X349749D01*
X350333Y270583D01*
X353831Y273499D02*
X352665Y272916D01*
X351499Y271749D01*
Y270583D01*
X352082Y270000D01*
X353248D01*
X353831Y270583D01*
Y271166D01*
X353248Y271749D01*
X351499D01*
X327333Y272916D02*
X326749Y273499D01*
X325583D01*
X325000Y272916D01*
Y270583D01*
X325583Y270000D01*
X326749D01*
X327333Y270583D01*
X330831Y273499D02*
X328499D01*
Y271749D01*
X329665Y272333D01*
X330248D01*
X330831Y271749D01*
Y270583D01*
X330248Y270000D01*
X329082D01*
X328499Y270583D01*
X358833Y268416D02*
X358249Y268999D01*
X357083D01*
X356500Y268416D01*
Y266083D01*
X357083Y265500D01*
X358249D01*
X358833Y266083D01*
X361748Y265500D02*
Y268999D01*
X359999Y267249D01*
X362331D01*
X430833Y242416D02*
X430249Y242999D01*
X429083D01*
X428500Y242416D01*
Y240083D01*
X429083Y239500D01*
X430249D01*
X430833Y240083D01*
X431999Y242416D02*
X432582Y242999D01*
X433748D01*
X434332Y242416D01*
Y241833D01*
X433748Y241249D01*
X433165D01*
X433748D01*
X434332Y240666D01*
Y240083D01*
X433748Y239500D01*
X432582D01*
X431999Y240083D01*
X425333Y269416D02*
X424749Y269999D01*
X423583D01*
X423000Y269416D01*
Y267083D01*
X423583Y266500D01*
X424749D01*
X425333Y267083D01*
X428831Y266500D02*
X426499D01*
X428831Y268833D01*
Y269416D01*
X428248Y269999D01*
X427082D01*
X426499Y269416D01*
X533833Y306231D02*
X533249Y306814D01*
X532083D01*
X531500Y306231D01*
Y303898D01*
X532083Y303315D01*
X533249D01*
X533833Y303898D01*
X534999Y303315D02*
X536165D01*
X535582D01*
Y306814D01*
X534999Y306231D01*
D11*
X558106Y301658D02*
G03*
X558106Y301658I-24606J0D01*
G01*
X370342Y333000D02*
G03*
X370342Y333000I-19685J0D01*
G01*
X415000Y276500D02*
X491500Y276500D01*
X415000Y348000D02*
X491500Y348000D01*
Y340500D02*
Y348000D01*
Y276500D02*
Y284500D01*
X415000Y276500D02*
Y284500D01*
Y340500D02*
Y348000D01*
X467815Y250000D02*
X487500D01*
X467815Y272000D02*
X487500D01*
X490315Y222000D02*
X510000D01*
X490315Y244000D02*
X510000D01*
X536000Y215999D02*
X539999D01*
X537999Y217998D02*
Y214000D01*
X406500Y372999D02*
X410499D01*
X408499Y374998D02*
Y371000D01*
X503501Y289815D02*
Y293814D01*
X501502Y291814D02*
X505500D01*
X376500Y332501D02*
X372501D01*
X374501Y330502D02*
Y334500D01*
D12*
X384626Y292504D02*
X400374D01*
X384626Y280496D02*
X400374D01*
X522056Y221000D02*
Y261000D01*
X553945Y221000D02*
Y261000D01*
X522056Y221000D02*
X553945D01*
X522056Y261000D02*
X553945D01*
X361500Y357556D02*
X401500D01*
X361500Y389445D02*
X401500D01*
Y357556D02*
Y389445D01*
X361500Y357556D02*
Y389445D01*
X370500Y204944D02*
X410500D01*
X370500Y173055D02*
X410500D01*
X370500D02*
Y204944D01*
X410500Y173055D02*
Y204944D01*
X416122Y247713D02*
Y249287D01*
X418878Y247713D02*
Y249287D01*
X381878Y217713D02*
Y219287D01*
X379122Y217713D02*
Y219287D01*
X338213Y262878D02*
X339787D01*
X338213Y260122D02*
X339787D01*
X360713Y256878D02*
X362287D01*
X360713Y254122D02*
X362287D01*
X359713Y237878D02*
X361287D01*
X359713Y235122D02*
X361287D01*
X359713Y229878D02*
X361287D01*
X359713Y227122D02*
X361287D01*
X359713Y221878D02*
X361287D01*
X359713Y219122D02*
X361287D01*
X367713Y298878D02*
X369287D01*
X367713Y296122D02*
X369287D01*
X364122Y283713D02*
Y285287D01*
X366878Y283713D02*
Y285287D01*
M02*
