G04*
G04 #@! TF.GenerationSoftware,Altium Limited,Altium Designer,19.1.7 (138)*
G04*
G04 Layer_Physical_Order=1*
G04 Layer_Color=255*
%FSLAX25Y25*%
%MOIN*%
G70*
G01*
G75*
%ADD10C,0.01000*%
%ADD12C,0.00600*%
%ADD20R,0.07500X0.14200*%
%ADD40R,0.02756X0.03543*%
%ADD41R,0.27559X0.75197*%
%ADD42R,0.06890X0.02559*%
%ADD43R,0.04331X0.06693*%
%ADD44R,0.03543X0.03150*%
%ADD45R,0.03150X0.03543*%
%ADD46R,0.06693X0.04331*%
%ADD47R,0.03543X0.02756*%
%ADD48R,0.08584X0.06417*%
%ADD49R,0.06299X0.03150*%
%ADD50R,0.11311X0.18000*%
%ADD51R,0.03150X0.06299*%
%ADD52R,0.18000X0.11311*%
%ADD53R,0.10787X0.12795*%
%ADD54R,0.05753X0.01381*%
%ADD55R,0.04134X0.12795*%
%ADD56C,0.00800*%
%ADD57C,0.04000*%
%ADD58C,0.02000*%
%ADD59C,0.01500*%
%ADD60C,0.06000*%
%ADD61R,0.06000X0.06000*%
%ADD62C,0.18740*%
%ADD63R,0.06653X0.06653*%
%ADD64C,0.06653*%
%ADD65C,0.08000*%
%ADD66C,0.03000*%
%ADD67C,0.05000*%
%ADD68C,0.20000*%
%ADD69C,0.36000*%
%ADD70C,0.02700*%
G36*
X439000Y343500D02*
X439000Y266000D01*
X436500Y263500D01*
X410000Y263500D01*
X404500Y258000D01*
X398500Y258000D01*
X397000Y259500D01*
X397000Y274000D01*
X398500Y275500D01*
X404000D01*
X404500Y276000D01*
X404500Y343500D01*
X407000Y346000D01*
X436500Y346000D01*
X439000Y343500D01*
D02*
G37*
G36*
X375728Y281000D02*
Y280547D01*
X381272D01*
Y281000D01*
X383000D01*
X383000Y259500D01*
X382000Y258500D01*
X360500Y258500D01*
X357000Y255000D01*
X357000Y250500D01*
X356272D01*
Y251453D01*
X353500D01*
X350728D01*
Y250500D01*
X349272D01*
Y251256D01*
X346500D01*
X343728D01*
Y249681D01*
X343728D01*
X343861Y249361D01*
X341500Y247000D01*
X333500D01*
X331500Y249000D01*
X322500D01*
X321500Y250000D01*
Y256000D01*
X325500Y260000D01*
X330500Y260000D01*
X344000Y273500D01*
Y277000D01*
X345500Y278500D01*
X371500D01*
X374000Y281000D01*
X375728D01*
D02*
G37*
G36*
X460500Y254500D02*
X460500Y240500D01*
X459500Y239500D01*
X451000D01*
X450500Y239000D01*
X441500D01*
X436500Y244000D01*
Y250500D01*
X441000Y255000D01*
X460000Y255000D01*
X460500Y254500D01*
D02*
G37*
G36*
X514500Y343500D02*
X514500Y267000D01*
X509500Y262000D01*
X488000Y262000D01*
X484000Y258000D01*
Y223500D01*
X482575D01*
Y225000D01*
X480000D01*
Y227000D01*
X478000D01*
Y231150D01*
X477000D01*
Y227000D01*
X473000D01*
Y231150D01*
X472000D01*
Y227000D01*
X468000D01*
Y231150D01*
X467425D01*
X467425Y231150D01*
Y231150D01*
X467061Y231439D01*
X463500Y235000D01*
X463500Y258000D01*
X477000Y271500D01*
Y342500D01*
X481000Y346500D01*
X511500D01*
X514500Y343500D01*
D02*
G37*
G36*
X333000Y238500D02*
Y232500D01*
X335000Y230500D01*
X341000D01*
X342000Y229500D01*
X342000Y221500D01*
X341000Y220500D01*
X323500Y220500D01*
X319000Y216000D01*
Y199500D01*
X314500Y195000D01*
X298000D01*
X291000Y202000D01*
Y219500D01*
X294000Y222500D01*
X300000Y222500D01*
X305000Y217500D01*
X312500D01*
X320000Y225000D01*
X320000Y236500D01*
X323000Y239500D01*
X332000D01*
X333000Y238500D01*
D02*
G37*
G36*
X547500Y230500D02*
X547500Y158500D01*
X534500Y145500D01*
X510089Y145500D01*
X500500Y155089D01*
Y179125D01*
X492200Y189500D01*
X418000Y189500D01*
X415000Y192500D01*
Y199500D01*
X417000Y201500D01*
X455000D01*
X458500Y205000D01*
X458500Y216500D01*
X462000Y220000D01*
X487500Y220000D01*
X494500Y213000D01*
X520000D01*
X530000Y223000D01*
Y230000D01*
X532500Y232500D01*
X545500D01*
X547500Y230500D01*
D02*
G37*
%LPC*%
G36*
X436279Y343598D02*
X423500D01*
Y307000D01*
X436279D01*
Y343598D01*
D02*
G37*
G36*
X419500D02*
X406720D01*
Y307000D01*
X419500D01*
Y343598D01*
D02*
G37*
G36*
X404484Y274398D02*
X403417D01*
Y269000D01*
X404484D01*
Y274398D01*
D02*
G37*
G36*
X399417D02*
X398350D01*
Y269000D01*
X399417D01*
Y274398D01*
D02*
G37*
G36*
X436279Y303000D02*
X423500D01*
Y266402D01*
X436279D01*
Y303000D01*
D02*
G37*
G36*
X419500D02*
X406720D01*
Y266402D01*
X419500D01*
Y303000D01*
D02*
G37*
G36*
X404484Y265000D02*
X403417D01*
Y259602D01*
X404484D01*
Y265000D01*
D02*
G37*
G36*
X399417D02*
X398350D01*
Y259602D01*
X399417D01*
Y265000D01*
D02*
G37*
G36*
X381272Y278547D02*
X379500D01*
Y277169D01*
X381272D01*
Y278547D01*
D02*
G37*
G36*
X377500D02*
X375728D01*
Y277169D01*
X377500D01*
Y278547D01*
D02*
G37*
G36*
X355250Y276750D02*
X351500D01*
Y269650D01*
X355250D01*
Y276750D01*
D02*
G37*
G36*
X349500D02*
X345750D01*
Y269650D01*
X349500D01*
Y276750D01*
D02*
G37*
G36*
X381650Y274398D02*
X379583D01*
Y268000D01*
X381650D01*
Y274398D01*
D02*
G37*
G36*
X377583D02*
X375516D01*
Y268000D01*
X377583D01*
Y274398D01*
D02*
G37*
G36*
X355250Y267650D02*
X351500D01*
Y260550D01*
X355250D01*
Y267650D01*
D02*
G37*
G36*
X349500D02*
X345750D01*
Y260550D01*
X349500D01*
Y267650D01*
D02*
G37*
G36*
X381650Y266000D02*
X379583D01*
Y259602D01*
X381650D01*
Y266000D01*
D02*
G37*
G36*
X377583D02*
X375516D01*
Y259602D01*
X377583D01*
Y266000D01*
D02*
G37*
G36*
X356272Y254831D02*
X354500D01*
Y253453D01*
X356272D01*
Y254831D01*
D02*
G37*
G36*
X352500D02*
X350728D01*
Y253453D01*
X352500D01*
Y254831D01*
D02*
G37*
G36*
X342347Y255480D02*
X339000D01*
Y253315D01*
X342347D01*
Y255480D01*
D02*
G37*
G36*
X337000D02*
X333653D01*
Y253315D01*
X337000D01*
Y255480D01*
D02*
G37*
G36*
X349272Y254831D02*
X347500D01*
Y253256D01*
X349272D01*
Y254831D01*
D02*
G37*
G36*
X345500D02*
X343728D01*
Y253256D01*
X345500D01*
Y254831D01*
D02*
G37*
G36*
X331945Y254279D02*
X328500D01*
Y253000D01*
X331945D01*
Y254279D01*
D02*
G37*
G36*
X326500D02*
X323055D01*
Y253000D01*
X326500D01*
Y254279D01*
D02*
G37*
G36*
X331945Y251000D02*
X328500D01*
Y249721D01*
X331945D01*
Y251000D01*
D02*
G37*
G36*
X326500D02*
X323055D01*
Y249721D01*
X326500D01*
Y251000D01*
D02*
G37*
G36*
X342347Y251315D02*
X339000D01*
Y249150D01*
X342347D01*
Y251315D01*
D02*
G37*
G36*
X337000D02*
X333653D01*
Y249150D01*
X337000D01*
Y251315D01*
D02*
G37*
G36*
X510280Y343598D02*
X497500D01*
Y307000D01*
X510280D01*
Y343598D01*
D02*
G37*
G36*
X493500D02*
X480721D01*
Y307000D01*
X493500D01*
Y343598D01*
D02*
G37*
G36*
X510280Y303000D02*
X497500D01*
Y266402D01*
X510280D01*
Y303000D01*
D02*
G37*
G36*
X493500D02*
X480721D01*
Y266402D01*
X493500D01*
Y303000D01*
D02*
G37*
G36*
X482484Y254575D02*
X480335D01*
Y254000D01*
X482484D01*
Y254575D01*
D02*
G37*
G36*
X469500Y254500D02*
X464845D01*
Y246500D01*
X469500D01*
Y254500D01*
D02*
G37*
G36*
Y242500D02*
X464845D01*
Y234500D01*
X469500D01*
Y242500D01*
D02*
G37*
G36*
X482484Y235000D02*
X480335D01*
Y234425D01*
X482484D01*
Y235000D01*
D02*
G37*
G36*
X476335Y254575D02*
X474185D01*
Y254500D01*
X473500D01*
Y244500D01*
Y234500D01*
X474185D01*
Y234425D01*
X476335D01*
Y237000D01*
X478335D01*
Y239000D01*
X482484D01*
Y239425D01*
Y240000D01*
X478335D01*
Y244000D01*
X482484D01*
Y244425D01*
Y245000D01*
X478335D01*
Y249000D01*
X482484D01*
Y249425D01*
Y250000D01*
X478335D01*
Y252000D01*
X476335D01*
Y254575D01*
D02*
G37*
G36*
X482575Y231150D02*
X482000D01*
Y229000D01*
X482575D01*
Y231150D01*
D02*
G37*
G36*
X331945Y238138D02*
X328000D01*
Y236358D01*
X331945D01*
Y238138D01*
D02*
G37*
G36*
X327000D02*
X323055D01*
Y236358D01*
X327000D01*
Y238138D01*
D02*
G37*
G36*
X331945Y235358D02*
X328000D01*
Y233579D01*
X331945D01*
Y235358D01*
D02*
G37*
G36*
X327000D02*
X323055D01*
Y233579D01*
X327000D01*
Y235358D01*
D02*
G37*
G36*
X337000Y228480D02*
Y225815D01*
X340846D01*
Y228480D01*
X337000D01*
D02*
G37*
G36*
X327000D02*
X323153D01*
Y225815D01*
X327000D01*
Y228480D01*
D02*
G37*
G36*
X340846Y224815D02*
X337000D01*
Y222150D01*
X340846D01*
Y224815D01*
D02*
G37*
G36*
X327000D02*
X323153D01*
Y222150D01*
X327000D01*
Y224815D01*
D02*
G37*
G36*
X331846Y228480D02*
X331653Y228480D01*
X328000D01*
Y225315D01*
Y222150D01*
X331653D01*
X332154Y222150D01*
X332347Y222150D01*
X336000D01*
Y225315D01*
Y228480D01*
X332347D01*
X331846Y228480D01*
D02*
G37*
G36*
X298000Y221421D02*
Y218189D01*
X301233D01*
X301215Y218319D01*
X300779Y219371D01*
X300086Y220275D01*
X299182Y220968D01*
X298130Y221404D01*
X298000Y221421D01*
D02*
G37*
G36*
X296000D02*
X295870Y221404D01*
X294818Y220968D01*
X293914Y220275D01*
X293221Y219371D01*
X292785Y218319D01*
X292768Y218189D01*
X296000D01*
Y221421D01*
D02*
G37*
G36*
X301233Y216189D02*
X298000D01*
Y212957D01*
X298130Y212974D01*
X299182Y213409D01*
X300086Y214103D01*
X300779Y215007D01*
X301215Y216059D01*
X301233Y216189D01*
D02*
G37*
G36*
X296000D02*
X292768D01*
X292785Y216059D01*
X293221Y215007D01*
X293914Y214103D01*
X294818Y213409D01*
X295870Y212974D01*
X296000Y212957D01*
Y216189D01*
D02*
G37*
G36*
X309181Y215969D02*
Y212736D01*
X312414D01*
X312397Y212866D01*
X311961Y213918D01*
X311267Y214822D01*
X310363Y215516D01*
X309311Y215952D01*
X309181Y215969D01*
D02*
G37*
G36*
X307181D02*
X307052Y215952D01*
X305999Y215516D01*
X305095Y214822D01*
X304402Y213918D01*
X303966Y212866D01*
X303949Y212736D01*
X307181D01*
Y215969D01*
D02*
G37*
G36*
X312414Y210736D02*
X309181D01*
Y207504D01*
X309311Y207521D01*
X310363Y207957D01*
X311267Y208650D01*
X311961Y209554D01*
X312397Y210607D01*
X312414Y210736D01*
D02*
G37*
G36*
X307181D02*
X303949D01*
X303966Y210607D01*
X304402Y209554D01*
X305095Y208650D01*
X305999Y207957D01*
X307052Y207521D01*
X307181Y207504D01*
Y210736D01*
D02*
G37*
G36*
X298000Y210516D02*
Y207283D01*
X301233D01*
X301215Y207413D01*
X300779Y208466D01*
X300086Y209369D01*
X299182Y210063D01*
X298130Y210499D01*
X298000Y210516D01*
D02*
G37*
G36*
X296000D02*
X295870Y210499D01*
X294818Y210063D01*
X293914Y209369D01*
X293221Y208466D01*
X292785Y207413D01*
X292768Y207283D01*
X296000D01*
Y210516D01*
D02*
G37*
G36*
X301233Y205283D02*
X298000D01*
Y202051D01*
X298130Y202068D01*
X299182Y202504D01*
X300086Y203198D01*
X300779Y204101D01*
X301215Y205154D01*
X301233Y205283D01*
D02*
G37*
G36*
X296000D02*
X292768D01*
X292785Y205154D01*
X293221Y204101D01*
X293914Y203198D01*
X294818Y202504D01*
X295870Y202068D01*
X296000Y202051D01*
Y205283D01*
D02*
G37*
G36*
X312508Y205157D02*
X309181D01*
Y201831D01*
X312508D01*
Y205157D01*
D02*
G37*
G36*
X307181D02*
X303854D01*
Y201831D01*
X307181D01*
Y205157D01*
D02*
G37*
G36*
X312508Y199831D02*
X309181D01*
Y196504D01*
X312508D01*
Y199831D01*
D02*
G37*
G36*
X307181D02*
X303854D01*
Y196504D01*
X307181D01*
Y199831D01*
D02*
G37*
G36*
X543500Y228000D02*
X541500D01*
Y226000D01*
X543500D01*
Y228000D01*
D02*
G37*
G36*
X537500D02*
X535500D01*
Y226000D01*
X537500D01*
Y228000D01*
D02*
G37*
G36*
X543500Y222000D02*
X541500D01*
Y220000D01*
X543500D01*
Y222000D01*
D02*
G37*
G36*
X537500D02*
X535500D01*
Y220000D01*
X537500D01*
Y222000D01*
D02*
G37*
G36*
X482500Y218655D02*
X474500D01*
Y214000D01*
X482500D01*
Y218655D01*
D02*
G37*
G36*
X470500D02*
X462500D01*
Y214000D01*
X470500D01*
Y218655D01*
D02*
G37*
G36*
X482575Y203165D02*
X482000D01*
Y201016D01*
X482575D01*
Y203165D01*
D02*
G37*
G36*
X482500Y210000D02*
X472500D01*
X462500D01*
Y209315D01*
X462425D01*
Y207165D01*
X465000D01*
Y205165D01*
X467000D01*
Y201016D01*
X468000D01*
Y205165D01*
X472000D01*
Y201016D01*
X473000D01*
Y205165D01*
X477000D01*
Y201016D01*
X478000D01*
Y205165D01*
X480000D01*
Y207165D01*
X482575D01*
Y209315D01*
X482500D01*
Y210000D01*
D02*
G37*
G36*
X463000Y203165D02*
X462425D01*
Y201016D01*
X463000D01*
Y203165D01*
D02*
G37*
G36*
X455847Y199350D02*
X453500D01*
Y198185D01*
X455847D01*
Y199350D01*
D02*
G37*
G36*
X449500D02*
X447154D01*
Y198185D01*
X449500D01*
Y199350D01*
D02*
G37*
G36*
X446347D02*
X444000D01*
Y198185D01*
X446347D01*
Y199350D01*
D02*
G37*
G36*
X440000D02*
X437653D01*
Y198185D01*
X440000D01*
Y199350D01*
D02*
G37*
G36*
X436846D02*
X434500D01*
Y198185D01*
X436846D01*
Y199350D01*
D02*
G37*
G36*
X430500D02*
X428154D01*
Y198185D01*
X430500D01*
Y199350D01*
D02*
G37*
G36*
X423480Y199846D02*
X422315D01*
Y197500D01*
X423480D01*
Y199846D01*
D02*
G37*
G36*
X418315D02*
X417150D01*
Y197500D01*
X418315D01*
Y199846D01*
D02*
G37*
G36*
X455847Y194185D02*
X453500D01*
Y193020D01*
X455847D01*
Y194185D01*
D02*
G37*
G36*
X449500D02*
X447154D01*
Y193020D01*
X449500D01*
Y194185D01*
D02*
G37*
G36*
X446347D02*
X444000D01*
Y193020D01*
X446347D01*
Y194185D01*
D02*
G37*
G36*
X440000D02*
X437653D01*
Y193020D01*
X440000D01*
Y194185D01*
D02*
G37*
G36*
X436846D02*
X434500D01*
Y193020D01*
X436846D01*
Y194185D01*
D02*
G37*
G36*
X430500D02*
X428154D01*
Y193020D01*
X430500D01*
Y194185D01*
D02*
G37*
G36*
X423480Y193500D02*
X422315D01*
Y191154D01*
X423480D01*
Y193500D01*
D02*
G37*
G36*
X418315D02*
X417150D01*
Y191154D01*
X418315D01*
Y193500D01*
D02*
G37*
%LPD*%
D10*
X392000Y318000D02*
Y347000D01*
Y318000D02*
X396812Y313188D01*
X495500Y305000D02*
X549000D01*
X396756Y283244D02*
X401000Y279000D01*
X401244Y224000D02*
X417244D01*
X417244Y224000D01*
X539500Y224000D02*
Y243500D01*
X336500Y208370D02*
Y214685D01*
X327500Y208370D02*
Y214685D01*
X386500Y287000D02*
X391244D01*
X338000Y235185D02*
Y241500D01*
X396812Y302000D02*
Y313188D01*
X396756Y283244D02*
Y287000D01*
X409000Y248756D02*
Y253500D01*
X396812Y287056D02*
Y302000D01*
X396756Y287000D02*
X396812Y287056D01*
X415756Y230697D02*
X418559Y233500D01*
X420500D01*
X415756Y230500D02*
Y230697D01*
X428256Y224000D02*
X437500D01*
X427756D02*
X428256D01*
X427756Y222756D02*
Y224000D01*
X425000Y220000D02*
X427756Y222756D01*
X412000Y220000D02*
X425000D01*
X424500Y232000D02*
X429000D01*
X419059Y226559D02*
X424500Y232000D01*
X401244Y226559D02*
X419059D01*
X435453Y232000D02*
X439878Y236425D01*
X429000Y231453D02*
Y232000D01*
X428500Y218500D02*
X446000D01*
X424500Y214500D02*
X428500Y218500D01*
X420453Y214500D02*
X424500D01*
X410500Y214500D02*
X414547D01*
X406118Y218882D02*
X410500Y214500D01*
X454500Y227000D02*
X465000D01*
X446000Y218500D02*
X454500Y227000D01*
X336500Y214685D02*
X336638Y214547D01*
X525000Y258000D02*
X539500Y243500D01*
X351500Y227744D02*
X351744Y227500D01*
X351500Y227744D02*
Y233547D01*
X455425Y236425D02*
X456500Y237500D01*
X439878Y236425D02*
X455425D01*
X401244Y218882D02*
X406118D01*
X437500Y224000D02*
X446000Y232500D01*
X414547Y214500D02*
Y214894D01*
X470000Y227000D02*
Y231914D01*
X469414Y232500D02*
X470000Y231914D01*
X446000Y232500D02*
X469414D01*
X410559Y221441D02*
X412000Y220000D01*
X417244Y224000D02*
X422744D01*
X490000Y258000D02*
X525000D01*
X401244Y221441D02*
X410559D01*
X420500Y249685D02*
Y256000D01*
Y249685D02*
X420685Y249500D01*
X420500Y249315D02*
X420685Y249500D01*
X358000Y233744D02*
X358685Y233059D01*
X351500Y233547D02*
X351697Y233350D01*
X401053Y226368D02*
X401244Y226559D01*
D12*
X378882Y219000D02*
X379000Y219118D01*
Y221441D01*
X378619Y236795D02*
X378809Y236605D01*
X374059Y221441D02*
X379000D01*
X385000Y211047D02*
Y221500D01*
X382500Y224000D02*
X385000Y221500D01*
X379000Y224000D02*
X382500D01*
X382453Y208500D02*
X385000Y211047D01*
X382453Y200500D02*
X387500Y205547D01*
X382132Y226368D02*
X387500Y221000D01*
Y205547D02*
Y221000D01*
X368500Y227000D02*
X374059Y221441D01*
X368500Y227000D02*
Y231677D01*
Y219000D02*
X378882D01*
X411000Y239500D02*
X413750Y236750D01*
X402500Y239500D02*
X411000D01*
X336500Y225315D02*
X336638Y225453D01*
X370295Y236795D02*
X378619D01*
X368500Y235000D02*
X370295Y236795D01*
X368500Y231677D02*
Y235000D01*
Y231677D02*
X379000D01*
X379190Y226368D02*
X382132D01*
X379000Y226559D02*
X379190Y226368D01*
D20*
X350500Y301350D02*
D03*
Y268650D02*
D03*
D40*
X376547Y208500D02*
D03*
X382453D02*
D03*
X420453Y214500D02*
D03*
X414547D02*
D03*
X429547Y232000D02*
D03*
X435453D02*
D03*
X382453Y200500D02*
D03*
X376547D02*
D03*
D41*
X421500Y305000D02*
D03*
X495500D02*
D03*
D42*
X327500Y252000D02*
D03*
Y235858D02*
D03*
D43*
X420315Y195500D02*
D03*
X409685D02*
D03*
D44*
X346500Y252256D02*
D03*
Y246744D02*
D03*
X370500Y252756D02*
D03*
Y247244D02*
D03*
X409000Y248256D02*
D03*
Y242744D02*
D03*
X358000Y233744D02*
D03*
Y239256D02*
D03*
D45*
X396756Y287000D02*
D03*
X391244D02*
D03*
X422744Y224000D02*
D03*
X428256D02*
D03*
X387244Y253500D02*
D03*
X392756D02*
D03*
X357256Y227500D02*
D03*
X351744D02*
D03*
X415756Y230500D02*
D03*
X410244D02*
D03*
D46*
X327500Y214685D02*
D03*
Y225315D02*
D03*
X336500D02*
D03*
Y214685D02*
D03*
X338000Y252315D02*
D03*
Y241685D02*
D03*
X432500Y206815D02*
D03*
Y196185D02*
D03*
X442000Y206815D02*
D03*
Y196185D02*
D03*
X451500Y206815D02*
D03*
Y196185D02*
D03*
X420500Y238685D02*
D03*
Y249315D02*
D03*
D47*
X378500Y285453D02*
D03*
Y279547D02*
D03*
X351500Y233547D02*
D03*
Y239453D02*
D03*
X353500Y246547D02*
D03*
Y252453D02*
D03*
X360500Y252500D02*
D03*
Y246595D02*
D03*
D48*
X396812Y302000D02*
D03*
X382188D02*
D03*
D49*
X456500Y252000D02*
D03*
Y247000D02*
D03*
Y242000D02*
D03*
Y237000D02*
D03*
X478335Y252000D02*
D03*
Y247000D02*
D03*
Y242000D02*
D03*
Y237000D02*
D03*
D50*
X471500Y244500D02*
D03*
D51*
X480000Y227000D02*
D03*
X475000D02*
D03*
X470000D02*
D03*
X465000D02*
D03*
X480000Y205165D02*
D03*
X475000D02*
D03*
X470000D02*
D03*
X465000D02*
D03*
D52*
X472500Y212000D02*
D03*
D53*
X390122Y232957D02*
D03*
D54*
X401244Y247031D02*
D03*
Y244472D02*
D03*
Y241913D02*
D03*
Y239354D02*
D03*
Y236795D02*
D03*
Y234236D02*
D03*
Y231677D02*
D03*
Y229118D02*
D03*
Y226559D02*
D03*
Y224000D02*
D03*
Y221441D02*
D03*
Y218882D02*
D03*
X379000D02*
D03*
Y221441D02*
D03*
Y224000D02*
D03*
Y226559D02*
D03*
Y229118D02*
D03*
Y231677D02*
D03*
Y234236D02*
D03*
Y236795D02*
D03*
Y239354D02*
D03*
Y241913D02*
D03*
Y244472D02*
D03*
Y247031D02*
D03*
D55*
X378583Y267000D02*
D03*
X401417D02*
D03*
D56*
X354000Y246595D02*
X360500D01*
X354000Y246595D02*
X354000Y246595D01*
X353500Y246547D02*
X354000D01*
X347197D02*
X353500D01*
X347000Y246744D02*
X347197Y246547D01*
X292453Y244453D02*
X308181D01*
X284500Y236500D02*
X292453Y244453D01*
X284500Y195000D02*
Y236500D01*
Y195000D02*
X290500Y189000D01*
X322000D01*
X333500Y200500D01*
X376547D01*
X429500Y249500D02*
X438000Y258000D01*
X429500Y241500D02*
Y249500D01*
X426685Y238685D02*
X429500Y241500D01*
X420500Y238685D02*
X426685D01*
X407825Y242069D02*
X409000Y243244D01*
X371303Y208500D02*
X376547D01*
X382188Y292688D02*
Y302000D01*
X378500Y289000D02*
X382188Y292688D01*
X378500Y285453D02*
Y289000D01*
X412000Y257000D02*
X414000Y255000D01*
Y242500D02*
Y255000D01*
X382586Y237086D02*
X383500Y238000D01*
X379291Y237086D02*
X382586D01*
X383500Y240500D02*
X384913Y241913D01*
X383500Y238000D02*
Y240500D01*
X384913Y241913D02*
X401244D01*
X379000Y236795D02*
X379291Y237086D01*
X378809Y236605D02*
X379000Y236795D01*
X346000Y246744D02*
X346500D01*
X413750Y236750D02*
X415685Y238685D01*
X411236Y234236D02*
X413750Y236750D01*
X415685Y238685D02*
X420500D01*
X401244Y234236D02*
X411236D01*
X408398Y236898D02*
X408500Y237000D01*
X401346Y236898D02*
X408398D01*
X401244Y236795D02*
X401346Y236898D01*
X410244Y230500D02*
Y230502D01*
X409069Y231677D02*
X410244Y230502D01*
X401244Y231677D02*
X409069D01*
X361000Y253000D02*
X365500D01*
X360500Y252500D02*
X361000Y253000D01*
X373744Y256000D02*
X375500D01*
X370500Y252756D02*
X373744Y256000D01*
X357256Y227500D02*
X362500D01*
X357256Y227500D02*
X357256Y227500D01*
X358256Y234000D02*
X363500D01*
X358000Y233744D02*
X358256Y234000D01*
X370500Y252756D02*
X370500Y252756D01*
X401244Y229118D02*
Y231677D01*
X404716Y244472D02*
X409000Y248756D01*
X401244Y244472D02*
X404716D01*
X401244D02*
X401535Y244763D01*
X401400Y242069D02*
X407825D01*
X401244Y241913D02*
X401400Y242069D01*
X360500Y246595D02*
X365181Y241913D01*
X372000Y229000D02*
X372059Y229059D01*
X378941D01*
X379000Y229118D01*
X358000Y239354D02*
X379000D01*
X351500Y239453D02*
X357803D01*
X358000Y239256D01*
X372068Y234186D02*
X378950D01*
X365181Y241913D02*
X379000D01*
X370256Y246803D02*
Y247000D01*
Y246803D02*
X372587Y244472D01*
X379000D01*
X438000Y258000D02*
X460000D01*
X401244Y234236D02*
X401435Y234427D01*
X378972Y244500D02*
X379000Y244472D01*
X401244Y234236D02*
X401435Y234427D01*
X378874Y239228D02*
X379000Y239354D01*
D57*
X475000Y227000D02*
X480000D01*
X470000D02*
X475000D01*
D58*
X327500Y225315D02*
X336500D01*
X403000Y195500D02*
X409685D01*
X451500Y206815D02*
Y214000D01*
X432500Y206815D02*
Y213500D01*
X442000Y206815D02*
Y213500D01*
D59*
X396969Y247031D02*
X401244D01*
X392756Y251244D02*
X396969Y247031D01*
X383531D02*
X387244Y250744D01*
X379000Y247031D02*
X383531D01*
X387244Y250744D02*
Y253500D01*
X392756Y251244D02*
Y253500D01*
X397500Y267000D02*
X401417D01*
X393256Y262756D02*
X397500Y267000D01*
X393256Y254000D02*
Y262756D01*
X386744Y254000D02*
Y262756D01*
X382500Y267000D02*
X386744Y262756D01*
X378583Y267000D02*
X382500D01*
X392756Y253500D02*
X393256Y254000D01*
X386744D02*
X387244Y253500D01*
D60*
X510000Y224000D02*
D03*
D61*
X539500D02*
D03*
D62*
X302590Y271835D02*
D03*
Y173449D02*
D03*
D63*
X308181Y200831D02*
D03*
D64*
X297000Y206283D02*
D03*
X308181Y211736D02*
D03*
X297000Y217189D02*
D03*
X308181Y222642D02*
D03*
X297000Y228095D02*
D03*
X308181Y233547D02*
D03*
X297000Y239000D02*
D03*
X308181Y244453D02*
D03*
D65*
X392000Y347000D02*
D03*
X549000Y305000D02*
D03*
X379500Y347000D02*
D03*
X549000Y291500D02*
D03*
X382500Y150000D02*
D03*
D66*
X401000Y279000D02*
D03*
X371303Y208500D02*
D03*
X386500Y287000D02*
D03*
X412000Y257000D02*
D03*
X409000Y253500D02*
D03*
X408500Y237000D02*
D03*
X414000Y242500D02*
D03*
X420500Y233500D02*
D03*
X365500Y253000D02*
D03*
X375500Y256000D02*
D03*
X362500Y227500D02*
D03*
X363500Y234000D02*
D03*
X372068Y234186D02*
D03*
X372000Y229000D02*
D03*
D67*
X336500Y208370D02*
D03*
X327500D02*
D03*
X338000Y235185D02*
D03*
X350500Y301350D02*
D03*
X403000Y195500D02*
D03*
X360500Y219000D02*
D03*
X368500D02*
D03*
X390122Y232957D02*
D03*
X451500Y214000D02*
D03*
X432500Y213500D02*
D03*
X420500Y256000D02*
D03*
X442000Y213500D02*
D03*
X448500Y242500D02*
D03*
X442000Y246500D02*
D03*
X448000Y251000D02*
D03*
D68*
X300000Y330000D02*
D03*
X535000D02*
D03*
X334000Y160000D02*
D03*
X425500D02*
D03*
D69*
X523000Y165000D02*
D03*
X471000D02*
D03*
D70*
X460000Y258000D02*
D03*
X490000D02*
D03*
M02*
