G04*
G04 #@! TF.GenerationSoftware,Altium Limited,Altium Designer,19.1.7 (138)*
G04*
G04 Layer_Color=16711935*
%FSLAX25Y25*%
%MOIN*%
G70*
G01*
G75*
%ADD28R,0.06800X0.06800*%
%ADD29C,0.06800*%
%ADD30C,0.07887*%
%ADD31R,0.07887X0.07887*%
%ADD32R,0.07887X0.07887*%
%ADD33C,0.03500*%
%ADD34C,0.05800*%
D28*
X541500Y261000D02*
D03*
X360685Y318000D02*
D03*
D29*
X512000Y261000D02*
D03*
X341000Y318000D02*
D03*
D30*
X476500Y182500D02*
D03*
X525000Y211500D02*
D03*
X361000Y367000D02*
D03*
X405500Y182000D02*
D03*
D31*
X456500Y182500D02*
D03*
X381000Y367000D02*
D03*
X385500Y182000D02*
D03*
D32*
X525000Y191500D02*
D03*
D33*
X427500Y247500D02*
D03*
X373000Y245000D02*
D03*
X369500Y251500D02*
D03*
X374000Y249500D02*
D03*
X461500Y276000D02*
D03*
X491500D02*
D03*
X411000Y261500D02*
D03*
D34*
X347500Y255000D02*
D03*
X415500Y223500D02*
D03*
X427500Y274000D02*
D03*
X445000Y232000D02*
D03*
X435000Y231500D02*
D03*
X412000Y269000D02*
D03*
X363000Y275500D02*
D03*
X391622Y250957D02*
D03*
X450000Y255000D02*
D03*
X443500Y259000D02*
D03*
X449500Y263500D02*
D03*
X346000Y220500D02*
D03*
X346500Y232000D02*
D03*
X339000Y267500D02*
D03*
M02*
