G04*
G04 #@! TF.GenerationSoftware,Altium Limited,Altium Designer,19.1.8 (144)*
G04*
G04 Layer_Color=16711935*
%FSLAX25Y25*%
%MOIN*%
G70*
G01*
G75*
%ADD28C,0.06800*%
%ADD29R,0.06800X0.06800*%
%ADD30C,0.19540*%
%ADD31R,0.07453X0.07453*%
%ADD32C,0.07453*%
%ADD33C,0.05800*%
%ADD34C,0.05750*%
%ADD35C,0.03500*%
%ADD36C,0.20485*%
D28*
X509000Y247000D02*
D03*
X346500Y319000D02*
D03*
D29*
X538500Y247000D02*
D03*
X356343Y319000D02*
D03*
D30*
X445146Y352909D02*
D03*
X346760D02*
D03*
D31*
X374142Y347319D02*
D03*
D32*
X379594Y358500D02*
D03*
X385047Y347319D02*
D03*
X390500Y358500D02*
D03*
X395953Y347319D02*
D03*
X401405Y358500D02*
D03*
X406858Y347319D02*
D03*
X412311Y358500D02*
D03*
X417764Y347319D02*
D03*
D33*
X354500Y298000D02*
D03*
Y287000D02*
D03*
X392500Y309500D02*
D03*
X410500Y251000D02*
D03*
X448500Y214000D02*
D03*
X426500Y213500D02*
D03*
X361500Y257500D02*
D03*
X379000Y212500D02*
D03*
X426000Y256000D02*
D03*
X437500Y213500D02*
D03*
X390122Y232957D02*
D03*
X448500Y243000D02*
D03*
X442000Y247000D02*
D03*
X448000Y251500D02*
D03*
X349000Y224500D02*
D03*
D34*
X438500Y230000D02*
D03*
X410500Y243500D02*
D03*
D35*
X427000Y232500D02*
D03*
X372500Y231500D02*
D03*
X368000Y233500D02*
D03*
X371500Y227000D02*
D03*
X460000Y258000D02*
D03*
X490000D02*
D03*
D36*
X526500Y194000D02*
D03*
X469000Y175000D02*
D03*
X485500Y375000D02*
D03*
X547000Y307000D02*
D03*
X338000Y192500D02*
D03*
X427500Y175000D02*
D03*
M02*
