G04*
G04 #@! TF.GenerationSoftware,Altium Limited,Altium Designer,19.1.8 (144)*
G04*
G04 Layer_Color=65535*
%FSLAX25Y25*%
%MOIN*%
G70*
G01*
G75*
%ADD10C,0.01000*%
%ADD11C,0.00787*%
%ADD12C,0.00600*%
G36*
X375124Y224750D02*
X374124D01*
Y223250D01*
X375124D01*
Y224750D01*
D02*
G37*
G36*
X405120Y237545D02*
X406120D01*
Y236045D01*
X405120D01*
Y237545D01*
D02*
G37*
G36*
X516832Y379178D02*
X516869D01*
X516943Y379141D01*
X517165Y378956D01*
X517461Y378623D01*
Y369920D01*
X518128Y369772D01*
X518165D01*
X518313Y369735D01*
X518498Y369698D01*
X518683Y369624D01*
X518720D01*
X518832Y369550D01*
X518980Y369513D01*
X519091Y369439D01*
X519128Y369402D01*
X519276Y369328D01*
X519424Y369254D01*
X519572Y369217D01*
X519609D01*
X519683Y369180D01*
X519794Y369143D01*
X519905Y369032D01*
X519943Y368995D01*
X520091Y368921D01*
X520202Y368884D01*
X520387Y368847D01*
X520572Y368773D01*
X520831Y368736D01*
X520942D01*
X521165Y368698D01*
X521461Y368661D01*
X521720Y368550D01*
X521794Y368513D01*
X521942Y368402D01*
X522238Y368180D01*
X522424Y368032D01*
X522609Y367847D01*
X522646Y367810D01*
X522720Y367773D01*
X522942Y367587D01*
X523238Y367365D01*
X523423Y367291D01*
X523571Y367217D01*
X523608D01*
X523645Y367180D01*
X523757D01*
X523905Y367106D01*
X524275Y366958D01*
X524756Y366699D01*
X524793D01*
X524867Y366625D01*
X525016Y366588D01*
X525164Y366477D01*
X525534Y366291D01*
X525682Y366217D01*
X525793Y366143D01*
X525830D01*
X525867Y366106D01*
X525978Y366069D01*
X526126Y365995D01*
X526534Y365810D01*
X526608D01*
X526719Y365773D01*
X526904Y365736D01*
X527015Y365699D01*
X527089D01*
X527200Y365736D01*
X527274Y365810D01*
X527311Y365847D01*
X527423Y365921D01*
X527608Y366032D01*
X527793Y366143D01*
X527867Y366180D01*
X527941Y366254D01*
X528089Y366403D01*
X528311Y366588D01*
X528570Y366847D01*
X528904Y367180D01*
X529311Y367625D01*
X529348Y367699D01*
X529533Y367847D01*
X529755Y368106D01*
X530052Y368402D01*
X530348Y368773D01*
X530718Y369180D01*
X531422Y369994D01*
X531459Y370031D01*
X531570Y370143D01*
X531718Y370328D01*
X531940Y370587D01*
X532162Y370846D01*
X532459Y371179D01*
X533125Y371846D01*
X533162Y371883D01*
X533273Y371994D01*
X533458Y372142D01*
X533644Y372327D01*
X534088Y372661D01*
X534310Y372809D01*
X534458Y372883D01*
X534495D01*
X534569Y372920D01*
X534680Y372957D01*
X534829Y373031D01*
X535014Y373105D01*
X535236Y373179D01*
X535532Y373290D01*
X535569D01*
X535680Y373364D01*
X535865Y373438D01*
X536088Y373549D01*
X536384Y373660D01*
X536680Y373809D01*
X537347Y374105D01*
X537384D01*
X537421Y374142D01*
X537532D01*
X537680Y374179D01*
X537717D01*
X537828Y374216D01*
X537976Y374253D01*
X538161Y374290D01*
X538198D01*
X538309Y374327D01*
X538457Y374364D01*
X538680Y374401D01*
X538717Y374438D01*
X538865Y374475D01*
X539013Y374586D01*
X539161Y374697D01*
X539198D01*
X539235Y374734D01*
X539457Y374845D01*
X539753Y374993D01*
X540087Y375142D01*
X540124D01*
X540161Y375179D01*
X540383Y375253D01*
X540605Y375290D01*
X540864Y375327D01*
X541012D01*
X541124Y375364D01*
X541198Y375401D01*
X541235D01*
X541309Y375438D01*
X541457Y375475D01*
X541938D01*
X542086Y375512D01*
X544753D01*
X546012Y373994D01*
X546086Y367736D01*
X545715Y367328D01*
X545678Y367291D01*
X545641Y367254D01*
X545419Y367032D01*
X545382D01*
X545345Y366958D01*
X545197Y366884D01*
X545160Y366847D01*
X545012Y366810D01*
X544827Y366699D01*
X544604Y366551D01*
X544567Y366514D01*
X544419Y366440D01*
X544271Y366366D01*
X544086Y366254D01*
X544012Y366217D01*
X543938Y366143D01*
X543790Y366032D01*
X543753Y365995D01*
X543642Y365921D01*
X543494Y365847D01*
X543345Y365699D01*
X543308Y365662D01*
X543234Y365625D01*
X543123Y365514D01*
X542975Y365403D01*
X542605Y365107D01*
X542198Y364810D01*
X542161D01*
X542123Y364773D01*
X541864Y364625D01*
X541568Y364477D01*
X541235Y364366D01*
X541161Y364329D01*
X541050Y364292D01*
X540939Y364255D01*
X540753Y364181D01*
X540531Y364070D01*
X540235Y363922D01*
X539939Y363773D01*
X539902Y363736D01*
X539790Y363699D01*
X539642Y363625D01*
X539457Y363514D01*
X539087Y363255D01*
X538902Y363144D01*
X538791Y363033D01*
X538754Y362996D01*
X538717Y362959D01*
X538643Y362885D01*
Y362848D01*
X539161D01*
X539309Y362811D01*
X539494Y362737D01*
X539531D01*
X539679Y362700D01*
X539865Y362626D01*
X540050Y362514D01*
X540087Y362477D01*
X540235Y362440D01*
X540383Y362366D01*
X540568Y362292D01*
X540605D01*
X540679Y362255D01*
X540790Y362218D01*
X540901Y362181D01*
X540976D01*
X541124Y362144D01*
X541272Y362107D01*
X542568Y361737D01*
X542642Y361700D01*
X542753Y361663D01*
X542975Y361589D01*
X543160Y361552D01*
X543234D01*
X543420Y361478D01*
X543716Y361403D01*
X544049Y361292D01*
X544086D01*
X544123Y361255D01*
X544345Y361218D01*
X544641Y361107D01*
X544901Y360996D01*
X544938Y360959D01*
X545012Y360922D01*
X545123Y360848D01*
X545234Y360811D01*
X545308D01*
X545382Y360737D01*
X545493Y360663D01*
X545530Y360626D01*
X545604Y360589D01*
X545715Y360478D01*
X545826Y360330D01*
X545863Y360293D01*
X545974Y360219D01*
X546197Y359996D01*
X546234D01*
X546308Y359959D01*
X546382Y359922D01*
X546419Y359885D01*
X546493Y359848D01*
X546567Y359811D01*
X546715Y359737D01*
X546863Y359589D01*
X547086Y359404D01*
X547345Y359182D01*
X547678Y358886D01*
X547715Y358849D01*
X547826Y358737D01*
X547974Y358589D01*
X548196Y358404D01*
X548604Y357960D01*
X548752Y357775D01*
X548900Y357589D01*
X548937Y357552D01*
X549011Y357404D01*
X549122Y357219D01*
X549270Y357034D01*
X549307D01*
X549344Y356960D01*
Y356849D01*
X549381Y356738D01*
X549418Y356553D01*
Y356293D01*
Y356256D01*
Y356145D01*
X549455Y355923D01*
Y355553D01*
Y355331D01*
Y355071D01*
X549492Y354775D01*
Y354442D01*
Y354035D01*
Y353627D01*
Y353146D01*
Y352590D01*
Y348332D01*
X548789Y347628D01*
X546086D01*
X545641Y347665D01*
X545567D01*
X545345Y347702D01*
X545086Y347740D01*
X544864Y347777D01*
X544827D01*
X544715Y347814D01*
X544530Y347851D01*
X544271Y347888D01*
X544197D01*
X544049Y347925D01*
X543494D01*
X543345Y347962D01*
X543086D01*
X542790Y347999D01*
X542716D01*
X542531Y348036D01*
X542272Y348110D01*
X541975Y348147D01*
X541901Y348184D01*
X541753Y348221D01*
X541531Y348258D01*
X541272Y348295D01*
X541235D01*
X541087Y348332D01*
X540901Y348369D01*
X540642D01*
X540457Y348406D01*
X540272Y348443D01*
X540235D01*
X540124Y348480D01*
X539939Y348554D01*
X539753Y348591D01*
X539716D01*
X539605Y348628D01*
X539420Y348665D01*
X539235Y348702D01*
X539198D01*
X539087Y348739D01*
X538939Y348776D01*
X538680D01*
X538531Y348813D01*
X538457Y348887D01*
Y348924D01*
X538383Y348961D01*
X538309Y348998D01*
X538161D01*
X538087Y349036D01*
X537939Y349147D01*
X537754Y349295D01*
X537680Y349369D01*
X537606Y349406D01*
X537495Y349517D01*
X537310Y349628D01*
X537124Y349739D01*
X536865Y349850D01*
X536532Y349998D01*
X536495Y350035D01*
X536384Y350072D01*
X536199Y350146D01*
X535939Y350220D01*
X535643Y350332D01*
X535347Y350443D01*
X534606Y350665D01*
X534569D01*
X534421Y350702D01*
X534236Y350776D01*
X534051Y350813D01*
X534014D01*
X533903Y350850D01*
X533644Y350998D01*
X533606Y351035D01*
X533495Y351072D01*
X533347Y351109D01*
X533236Y351146D01*
X533199D01*
X533125Y351109D01*
X532977Y350961D01*
X532866Y350850D01*
X532755Y350702D01*
X532718Y350628D01*
X532644Y350517D01*
X532570Y350406D01*
X532459Y350220D01*
X532310Y349998D01*
X532162Y349776D01*
X532014Y349480D01*
X531607Y348702D01*
X531570Y348628D01*
X531496Y348517D01*
X531385Y348369D01*
X531311Y348258D01*
X531274Y348221D01*
X531200Y348110D01*
X531125Y347962D01*
X531051Y347851D01*
X531014Y347777D01*
X530940Y347702D01*
X530829Y347554D01*
X530089Y346480D01*
X529792Y346036D01*
Y345999D01*
X529718Y345925D01*
X529607Y345740D01*
X529422Y345555D01*
X529385Y345518D01*
X529237Y345370D01*
X529015Y345184D01*
X528793Y344962D01*
X526830Y343333D01*
X526793D01*
X526756Y343259D01*
X526571Y343111D01*
X526349Y342963D01*
X526275Y342888D01*
X526200Y342851D01*
X526126D01*
X525978Y342814D01*
X525756D01*
X525571Y342777D01*
X524830D01*
X524497Y342740D01*
X520276D01*
X519943Y343037D01*
X519905Y343074D01*
X519831Y343185D01*
X519757Y343296D01*
X519720Y343444D01*
Y343481D01*
Y343629D01*
Y343851D01*
Y344037D01*
Y344259D01*
X519794Y345036D01*
X519868Y345777D01*
Y345851D01*
Y345925D01*
X519905Y346073D01*
Y346258D01*
Y346480D01*
X519943Y346777D01*
Y347147D01*
Y347184D01*
Y347332D01*
Y347554D01*
X519979Y347888D01*
Y348258D01*
Y348665D01*
Y349147D01*
Y349628D01*
Y352813D01*
X520461Y353220D01*
X520498Y353257D01*
X520572Y353331D01*
X520683Y353479D01*
X520794Y353664D01*
X520831Y353701D01*
X520905Y353812D01*
X521016Y353960D01*
X521090Y354109D01*
X521127Y354146D01*
X521165Y354220D01*
X521313Y354479D01*
X521350Y354516D01*
X521387Y354590D01*
X521461Y354701D01*
X521535Y354775D01*
X521572Y354812D01*
X521683Y354923D01*
X521757Y355071D01*
X521794Y355257D01*
Y355294D01*
X521831Y355442D01*
X521905Y355590D01*
X522016Y355775D01*
X522238Y356034D01*
X521127Y356664D01*
X521090Y356701D01*
X521016Y356738D01*
X520868Y356849D01*
X520683Y356960D01*
X520646Y356997D01*
X520498Y357108D01*
X520276Y357256D01*
X520053Y357478D01*
X519979Y357515D01*
X519831Y357663D01*
X519609Y357849D01*
X519313Y358034D01*
X519239Y358071D01*
X519054Y358219D01*
X518832Y358330D01*
X518572Y358478D01*
X518535Y358515D01*
X518387Y358589D01*
X518202Y358663D01*
X517980Y358774D01*
X517943Y358811D01*
X517832Y358886D01*
X517684Y358960D01*
X517610Y359034D01*
X517535Y359108D01*
X517424Y359145D01*
X517313Y359256D01*
X517128Y359367D01*
X516906Y359478D01*
X516647Y359626D01*
X516351Y359774D01*
X516314Y359811D01*
X516202Y359848D01*
X516054Y359922D01*
X515832Y360033D01*
X515351Y360256D01*
X514795Y360441D01*
X514758D01*
X514610Y360515D01*
X514425Y360552D01*
X514166Y360663D01*
X514092Y360700D01*
X513944Y360774D01*
X513721Y360885D01*
X513462Y360996D01*
X513425D01*
X513388Y361033D01*
X513166Y361144D01*
X512870Y361218D01*
X512610Y361292D01*
X512536D01*
X512462Y361330D01*
X512166D01*
X511944Y361367D01*
X510463D01*
X510278Y361403D01*
X510129D01*
X510018Y361441D01*
X509870Y361515D01*
X509722Y361663D01*
X509685Y361700D01*
X509648Y361811D01*
X509500Y362070D01*
Y362107D01*
Y362255D01*
Y362477D01*
Y362663D01*
Y362848D01*
Y362922D01*
X509537Y363070D01*
Y363329D01*
X509574Y363662D01*
X509722Y364366D01*
X509833Y364662D01*
X509944Y364958D01*
X510315Y365699D01*
Y365736D01*
X510352Y365773D01*
X510426Y365921D01*
X510537Y366143D01*
X510611Y366329D01*
X511092Y367069D01*
X511129Y367106D01*
X511166Y367217D01*
X511240Y367365D01*
X511351Y367550D01*
X511537Y367995D01*
X511574Y368254D01*
X511611Y368513D01*
Y368550D01*
Y368661D01*
X511648Y368810D01*
X511722Y368995D01*
X511759Y369069D01*
X511796Y369143D01*
X511833Y369291D01*
X511981Y369735D01*
Y369772D01*
X512018Y369883D01*
X512092Y370069D01*
X512203Y370291D01*
X512240Y370365D01*
X512351Y370513D01*
X512462Y370735D01*
X512610Y370994D01*
X512647Y371031D01*
X512722Y371142D01*
X512796Y371290D01*
X512907Y371476D01*
X513166Y371920D01*
X513240Y372142D01*
X513314Y372327D01*
Y372364D01*
X513351Y372439D01*
Y372550D01*
X513388Y372698D01*
X513425Y372920D01*
X513462Y373216D01*
X513499Y373549D01*
Y373957D01*
Y373994D01*
Y374105D01*
Y374253D01*
X513536Y374475D01*
Y374883D01*
X513573Y375068D01*
Y375216D01*
Y375290D01*
X513647Y375401D01*
X513721Y375549D01*
X513833Y375697D01*
X513869Y375771D01*
X513981Y375919D01*
X514129Y376216D01*
X514314Y376586D01*
Y376623D01*
X514351Y376697D01*
X514425Y376808D01*
X514499Y376956D01*
X514647Y377326D01*
X514795Y377808D01*
X514832Y377882D01*
X514906Y378030D01*
X515018Y378252D01*
X515203Y378511D01*
X515388Y378771D01*
X515684Y378993D01*
X515980Y379141D01*
X516351Y379215D01*
X516684D01*
X516832Y379178D01*
D02*
G37*
%LPC*%
G36*
X543938Y373846D02*
X542901Y373772D01*
X542679D01*
X542531Y373734D01*
X542123Y373697D01*
X541642Y373623D01*
X541124Y373512D01*
X540568Y373364D01*
X540087Y373142D01*
X539679Y372883D01*
X539605Y372846D01*
X539531Y372809D01*
X539383Y372735D01*
X539346D01*
X539235Y372698D01*
X539087Y372661D01*
X538865Y372624D01*
X538828D01*
X538680Y372587D01*
X538494Y372550D01*
X538272Y372476D01*
X538235D01*
X538087Y372401D01*
X537902Y372327D01*
X537717Y372253D01*
X536532Y371809D01*
X536051Y371550D01*
X536014D01*
X535865Y371476D01*
X535717Y371402D01*
X535532Y371328D01*
X535495D01*
X535421Y371290D01*
X535310Y371253D01*
X535162D01*
X535014Y371179D01*
X534866Y371105D01*
X534717Y370994D01*
X534569Y370846D01*
X534347Y370661D01*
X534310Y370624D01*
X534273Y370587D01*
X534051Y370328D01*
X533755Y370031D01*
X533495Y369735D01*
X533458Y369661D01*
X533384Y369550D01*
X533236Y369402D01*
X533051Y369143D01*
X532792Y368847D01*
X532422Y368439D01*
X531977Y367958D01*
X531903Y367884D01*
X531755Y367736D01*
X531496Y367439D01*
X531163Y367106D01*
X530792Y366662D01*
X530348Y366217D01*
X529385Y365218D01*
X528570Y364329D01*
X528904Y364218D01*
X528941D01*
X529015Y364181D01*
X529163Y364144D01*
X529459Y364107D01*
X529830Y364033D01*
X530089Y363996D01*
X530385Y363959D01*
X530718Y363922D01*
X531088Y363884D01*
X531496Y363810D01*
X531977Y363773D01*
X532866Y363699D01*
X532940D01*
X533125Y363662D01*
X533384Y363625D01*
X533569Y363588D01*
X533606D01*
X533755Y363551D01*
X533977D01*
X534236Y363514D01*
X534495D01*
X534717Y363477D01*
X534977D01*
X535717Y363440D01*
X535939D01*
X536088Y363403D01*
X536310D01*
X536421Y363366D01*
X536606Y363329D01*
X536754D01*
X536791Y363366D01*
X536828Y363440D01*
X536902Y363551D01*
X536939Y363588D01*
X536976Y363699D01*
X537013Y363847D01*
Y363959D01*
Y363996D01*
X537050Y364033D01*
X537124Y364107D01*
X537235Y364255D01*
X537421Y364403D01*
X537717Y364588D01*
X538087Y364847D01*
X538606Y365107D01*
X539457Y365551D01*
X539902Y365810D01*
X539939Y365847D01*
X540087Y365921D01*
X540235Y365995D01*
X540420Y366032D01*
X540457D01*
X540605Y366106D01*
X540864Y366180D01*
X541198Y366366D01*
X541235D01*
X541309Y366440D01*
X541420Y366477D01*
X541531Y366588D01*
X541901Y366847D01*
X542272Y367180D01*
X542753Y367587D01*
X542790Y367625D01*
X542864Y367662D01*
X542938Y367699D01*
X543012Y367736D01*
X543086D01*
X543160Y367773D01*
X543271Y367847D01*
X543753Y368143D01*
X544382Y368513D01*
X544345Y370846D01*
Y370920D01*
Y371105D01*
Y371365D01*
X544308Y371661D01*
Y372364D01*
X544271Y372661D01*
Y372883D01*
Y372920D01*
Y372957D01*
X544234Y373142D01*
X544197Y373364D01*
X544160Y373438D01*
X544123Y373512D01*
X543938Y373846D01*
D02*
G37*
G36*
X515721Y375216D02*
X515499Y374993D01*
X515462Y374956D01*
X515425Y374883D01*
X515351Y374771D01*
X515314Y374549D01*
Y374475D01*
Y374401D01*
X515277Y374290D01*
Y374142D01*
Y373920D01*
X515240Y373660D01*
Y373364D01*
Y373327D01*
Y373179D01*
X515203Y372994D01*
X515166Y372772D01*
X515092Y372216D01*
X515018Y371957D01*
X514980Y371698D01*
Y371661D01*
X514943Y371624D01*
X514906Y371365D01*
X514795Y371068D01*
X514610Y370772D01*
X514573Y370735D01*
X514536Y370661D01*
X514462Y370550D01*
X514351Y370365D01*
X514203Y370143D01*
X514055Y369883D01*
X513907Y369587D01*
X513721Y369254D01*
Y369217D01*
X513647Y369106D01*
X513610Y368921D01*
X513536Y368698D01*
X513388Y368180D01*
X513351Y367921D01*
X513314Y367699D01*
Y367662D01*
Y367587D01*
X513240Y367439D01*
X513166Y367254D01*
X513129Y367217D01*
X513092Y367069D01*
X512981Y366847D01*
X512870Y366625D01*
X512833Y366588D01*
X512796Y366440D01*
X512685Y366254D01*
X512573Y366032D01*
X512425Y365736D01*
X512240Y365440D01*
X511907Y364810D01*
Y364773D01*
X511833Y364699D01*
X511759Y364551D01*
X511685Y364403D01*
X511537Y364033D01*
X511463Y363884D01*
X511426Y363736D01*
X511314Y363292D01*
Y363218D01*
X511388Y363181D01*
X511500Y363107D01*
X511537D01*
X511722Y363070D01*
X512018D01*
X512203Y363033D01*
X512722D01*
X512907Y362996D01*
X513240Y362959D01*
X513388D01*
X513536Y362922D01*
X513610D01*
X513721Y362885D01*
X513907Y362848D01*
X514055Y362737D01*
X514092Y362700D01*
X514203Y362663D01*
X514351Y362551D01*
X514573Y362440D01*
X514647Y362403D01*
X514795Y362366D01*
X514980Y362292D01*
X515240Y362218D01*
X516240Y361848D01*
X516277D01*
X516425Y361774D01*
X516610Y361700D01*
X516832Y361626D01*
X516869D01*
X516943Y361589D01*
X517054Y361515D01*
X517202Y361403D01*
X518091Y360848D01*
X518128Y360811D01*
X518239Y360737D01*
X518387Y360626D01*
X518572Y360515D01*
X518646Y360478D01*
X518720Y360404D01*
X518832Y360330D01*
X518869D01*
X518980Y360256D01*
X519202Y360144D01*
X519239D01*
X519313Y360107D01*
X519461Y360070D01*
X519609Y359959D01*
X519646D01*
X519757Y359885D01*
X519905Y359811D01*
X520016Y359700D01*
X520053Y359663D01*
X520202Y359515D01*
X520350Y359404D01*
X520461Y359330D01*
X520498D01*
X520609Y359256D01*
X520757Y359145D01*
X521053Y358960D01*
X521090Y358923D01*
X521202Y358849D01*
X521350Y358737D01*
X521535Y358589D01*
X521757Y358404D01*
X522053Y358219D01*
X522646Y357812D01*
X522683Y357775D01*
X522794Y357738D01*
X522942Y357663D01*
X523127Y357589D01*
X523497Y357404D01*
X523682Y357367D01*
X523794D01*
X523831Y357404D01*
X523868Y357478D01*
X523979Y357589D01*
X524090Y357738D01*
X524719Y358441D01*
X524756Y358478D01*
X524830Y358589D01*
X524941Y358737D01*
X525016Y358923D01*
X525053Y358960D01*
X525090Y359071D01*
X525127Y359219D01*
X525201Y359441D01*
Y359478D01*
X525238Y359626D01*
X525275Y359811D01*
X525386Y360033D01*
X525497Y360219D01*
X525682Y360441D01*
X525904Y360552D01*
X526163Y360626D01*
X526200D01*
X526349Y360589D01*
X526497Y360552D01*
X526682Y360404D01*
X526830Y360219D01*
X526941Y359922D01*
X526978Y359478D01*
X526941Y359219D01*
X526904Y358923D01*
Y358886D01*
Y358849D01*
X526830Y358626D01*
X526756Y358367D01*
X526608Y358071D01*
X526571Y357997D01*
X526460Y357849D01*
X526238Y357552D01*
X525904Y357145D01*
X525238Y356367D01*
X525497Y356330D01*
X525534D01*
X525608Y356293D01*
X525719Y356256D01*
X525904Y356182D01*
X526423Y355923D01*
X526460D01*
X526608Y355849D01*
X526793Y355775D01*
X526978Y355701D01*
X527015D01*
X527163Y355664D01*
X527311Y355627D01*
X527460Y355590D01*
X527534Y355553D01*
X527682Y355516D01*
X527830Y355405D01*
X527978Y355294D01*
X528015Y355257D01*
X528089Y355220D01*
X528348Y355071D01*
X528756Y354886D01*
X528793Y354849D01*
X528941Y354812D01*
X529089Y354701D01*
X529311Y354590D01*
X529385Y354553D01*
X529496Y354516D01*
X529644Y354479D01*
X529792Y354442D01*
X529867D01*
X529941Y354405D01*
X530052Y354368D01*
X530237Y354331D01*
X530459Y354257D01*
X530755Y354109D01*
X531125Y353960D01*
X531163D01*
X531311Y353886D01*
X531533Y353812D01*
X531792Y353738D01*
X532014D01*
X532125Y353849D01*
X532162Y353886D01*
X532273Y354035D01*
X532347Y354146D01*
X532459Y354331D01*
X532607Y354516D01*
X532755Y354775D01*
Y354812D01*
X532792Y354849D01*
X532903Y355034D01*
X533051Y355331D01*
X533236Y355701D01*
X533421Y356071D01*
X533569Y356479D01*
X533681Y356886D01*
X533755Y357256D01*
Y357293D01*
Y357404D01*
X533792Y357515D01*
X533829Y357589D01*
X533866D01*
X533903Y357663D01*
X533940Y357700D01*
Y357812D01*
Y357849D01*
X533977Y357960D01*
X534088Y358108D01*
X534236Y358256D01*
X534273Y358293D01*
X534421Y358367D01*
X534569Y358441D01*
X534792Y358478D01*
X534940D01*
X535051Y358441D01*
X535236Y358367D01*
X535384Y358219D01*
X535495Y358071D01*
X535606Y357812D01*
X535643Y357478D01*
Y357441D01*
Y357330D01*
X535606Y357034D01*
Y356997D01*
X535569Y356960D01*
X535495Y356812D01*
X535458Y356738D01*
Y356627D01*
X535421Y356404D01*
Y356367D01*
Y356219D01*
X535384Y356071D01*
X535310Y355960D01*
X535273Y355886D01*
X535236Y355812D01*
Y355701D01*
Y355664D01*
X535199Y355590D01*
X535162Y355405D01*
X535051Y355183D01*
X535014Y355108D01*
X534940Y354960D01*
X534866Y354775D01*
X534717Y354516D01*
X534125Y353590D01*
X534088Y353516D01*
X534014Y353368D01*
X533903Y353183D01*
X533829Y352998D01*
Y352961D01*
Y352924D01*
X533866Y352850D01*
X533940Y352813D01*
X533977D01*
X534051Y352776D01*
X534199Y352738D01*
X534421Y352627D01*
X534495Y352590D01*
X534643Y352553D01*
X534792Y352479D01*
X534940Y352442D01*
X535014D01*
X535088Y352405D01*
X535199Y352368D01*
X535384Y352331D01*
X535569Y352257D01*
X535828Y352183D01*
X536162Y352072D01*
X536199D01*
X536310Y352035D01*
X536495Y351961D01*
X536717Y351887D01*
X537198Y351702D01*
X537717Y351480D01*
X537754Y351443D01*
X537865Y351405D01*
X538013Y351294D01*
X538198Y351183D01*
X538235D01*
X538346Y351109D01*
X538457Y351035D01*
X538531Y350924D01*
X538568Y350887D01*
X538680Y350813D01*
X538828Y350739D01*
X538939Y350702D01*
X539050D01*
X539124Y350665D01*
X539198Y350591D01*
X539272Y350554D01*
X539420Y350517D01*
X539679D01*
X539790Y350480D01*
X539939Y350443D01*
X539976D01*
X540087Y350406D01*
X540235Y350369D01*
X540420Y350294D01*
X540457D01*
X540568Y350220D01*
X540716Y350183D01*
X540939Y350109D01*
X541124D01*
X541309Y350072D01*
X541790D01*
X542012Y350035D01*
X542123Y349998D01*
X542198Y349961D01*
X542235D01*
X542346Y349887D01*
X542457Y349850D01*
X542605Y349813D01*
X542753Y349776D01*
X542975Y349739D01*
X543086D01*
X543234Y349702D01*
X543382D01*
X543827Y349665D01*
X544790D01*
X545049Y349628D01*
X545123D01*
X545234Y349591D01*
X545382Y349554D01*
X545530Y349517D01*
X545567D01*
X545641Y349480D01*
X545826Y349443D01*
X546049Y349369D01*
X546308D01*
X546567Y349332D01*
X547752D01*
Y352664D01*
Y352701D01*
Y352738D01*
Y352850D01*
Y352998D01*
Y353368D01*
Y353775D01*
Y354257D01*
Y354701D01*
X547715Y355108D01*
Y355442D01*
Y355479D01*
Y355553D01*
Y355812D01*
X547678Y356034D01*
X547641Y356108D01*
X547604Y356145D01*
Y356182D01*
X547530Y356256D01*
X547456Y356441D01*
Y356479D01*
X547345Y356627D01*
X547271Y356738D01*
X547159Y356849D01*
X547011Y357034D01*
X546789Y357256D01*
X546752Y357293D01*
X546678Y357367D01*
X546567Y357478D01*
X546419Y357627D01*
X546086Y357960D01*
X545715Y358256D01*
X545308Y358515D01*
X544901Y358886D01*
X544827Y358923D01*
X544678Y359071D01*
X544345Y359219D01*
X544160Y359330D01*
X543901Y359441D01*
X543864D01*
X543790Y359478D01*
X543642Y359552D01*
X543494Y359589D01*
X543049Y359737D01*
X542568Y359848D01*
X541975Y359996D01*
X541309Y360219D01*
X541272Y360256D01*
X541124Y360293D01*
X540939Y360367D01*
X540716Y360441D01*
X540679D01*
X540568Y360478D01*
X540457Y360515D01*
X540272D01*
X540161Y360552D01*
X540013Y360589D01*
X539976D01*
X539865Y360626D01*
X539716Y360700D01*
X539531Y360774D01*
X539494Y360811D01*
X539383Y360848D01*
X539161Y360922D01*
X538902Y360996D01*
X538828Y361033D01*
X538643Y361070D01*
X538383Y361144D01*
X538087Y361218D01*
X537087Y361367D01*
X536162Y361552D01*
X536088Y361589D01*
X535902Y361626D01*
X535606Y361663D01*
X535273Y361737D01*
X535199D01*
X534977Y361774D01*
X534717Y361811D01*
X533940D01*
X533644Y361848D01*
X533569D01*
X533421Y361885D01*
X533199D01*
X532977Y361922D01*
X532940D01*
X532792Y361959D01*
X532570D01*
X532236Y361996D01*
X531348Y362107D01*
X531274D01*
X531088Y362144D01*
X530792Y362181D01*
X530422Y362218D01*
X529607Y362292D01*
X529237Y362366D01*
X528904Y362403D01*
X528867D01*
X528793Y362440D01*
X528645Y362477D01*
X528496Y362514D01*
X528200Y362589D01*
X528052Y362663D01*
X527978Y362700D01*
X527941Y362737D01*
X527904Y362774D01*
X527793Y362811D01*
X527719Y362848D01*
X527682D01*
X527608Y362922D01*
X527423Y362996D01*
X527163Y363181D01*
X527089Y363218D01*
X526941Y363366D01*
X526719Y363551D01*
X526497Y363736D01*
X526460Y363773D01*
X526349Y363884D01*
X526200Y363959D01*
X526089Y363996D01*
X526052D01*
X526015Y364033D01*
X525904Y364070D01*
X525756Y364107D01*
X525423Y364255D01*
X524756Y364662D01*
X524719D01*
X524645Y364736D01*
X524497Y364810D01*
X524349Y364884D01*
X523905Y365070D01*
X523460Y365292D01*
X523423D01*
X523349Y365329D01*
X523127Y365440D01*
X522868Y365551D01*
X522757Y365588D01*
X522683Y365625D01*
X522646D01*
X522609Y365662D01*
X522461Y365699D01*
X522275Y365810D01*
X522238Y365847D01*
X522127Y365958D01*
X521942Y366106D01*
X521720Y366291D01*
X521683Y366329D01*
X521646Y366366D01*
X521424Y366551D01*
X521165Y366736D01*
X520942Y366884D01*
X520905Y366921D01*
X520757Y366958D01*
X520535Y366995D01*
X520239Y367032D01*
X520165D01*
X519979Y367069D01*
X519757Y367106D01*
X519498Y367180D01*
X519461Y367217D01*
X519313Y367254D01*
X519091Y367402D01*
X518832Y367550D01*
X518794Y367587D01*
X518720Y367625D01*
X518572Y367699D01*
X518424Y367773D01*
X518054Y367958D01*
X517721Y368069D01*
X517647D01*
X517498Y368106D01*
X517313Y368069D01*
X517128Y367958D01*
X517091Y367921D01*
X516980Y367847D01*
X516832Y367773D01*
X516573Y367736D01*
X516536D01*
X516388Y367773D01*
X516202Y367847D01*
X516017Y367958D01*
X515721Y368217D01*
Y375216D01*
D02*
G37*
G36*
X523868Y354886D02*
X523682D01*
X523571Y354812D01*
X523497Y354701D01*
Y354664D01*
X523460Y354553D01*
X523423Y354442D01*
X523312Y354294D01*
X523275Y354220D01*
X523127Y354035D01*
X522942Y353701D01*
X522905Y353627D01*
X522831Y353479D01*
X522720Y353294D01*
X522609Y353072D01*
X522572Y353035D01*
X522498Y352887D01*
X522349Y352701D01*
X522127Y352442D01*
X521757Y351961D01*
X521683Y348369D01*
X521646Y345814D01*
Y345777D01*
Y345629D01*
Y345481D01*
X521609Y345258D01*
Y345036D01*
X521572Y344851D01*
X521535Y344703D01*
X521498Y344592D01*
Y344518D01*
X521572Y344481D01*
X521646Y344444D01*
X525238D01*
X525386Y344481D01*
X525571Y344555D01*
X525608Y344592D01*
X525645Y344629D01*
X525682Y344666D01*
X525719Y344703D01*
X525793Y344740D01*
X525941D01*
X526015Y344777D01*
X526089Y344851D01*
X526200Y344999D01*
Y345036D01*
X526275Y345073D01*
X526386Y345221D01*
X526571Y345370D01*
X526608Y345407D01*
X526756Y345555D01*
X526978Y345703D01*
X527237Y345925D01*
X527311Y345962D01*
X527460Y346110D01*
X527682Y346295D01*
X527904Y346517D01*
X527941Y346554D01*
X528052Y346703D01*
X528200Y346814D01*
X528274Y346962D01*
X528311Y346999D01*
X528348Y347110D01*
X528422Y347221D01*
X528496Y347295D01*
X528570Y347369D01*
X528682Y347517D01*
X528830Y347702D01*
Y347740D01*
X528867Y347777D01*
X528941Y347851D01*
X529015Y347999D01*
X529126Y348147D01*
X529274Y348369D01*
X529422Y348628D01*
X529607Y348924D01*
X530607Y350702D01*
X530644Y350739D01*
X530718Y350850D01*
X530792Y350998D01*
X530903Y351109D01*
X530940Y351146D01*
X530977Y351220D01*
X531014Y351331D01*
X531051Y351405D01*
Y351443D01*
X531088Y351480D01*
X531163Y351591D01*
X531237Y351665D01*
X531274Y351702D01*
X531348Y351776D01*
Y351813D01*
Y351887D01*
X531274Y351924D01*
X531163Y351998D01*
X531088Y352035D01*
X530977Y352072D01*
X530792Y352146D01*
X530533Y352257D01*
X530163Y352405D01*
X529718Y352553D01*
X529126Y352738D01*
X529052Y352776D01*
X528904Y352813D01*
X528645Y352924D01*
X528311Y353035D01*
X528237Y353072D01*
X528052Y353183D01*
X527830Y353294D01*
X527645Y353405D01*
X527608Y353442D01*
X527497Y353516D01*
X527349Y353590D01*
X527163Y353701D01*
X527126Y353738D01*
X527015Y353775D01*
X526867Y353849D01*
X526756Y353886D01*
X526719D01*
X526682Y353924D01*
X526571Y353960D01*
X526386Y353997D01*
X525941Y354183D01*
X525904D01*
X525867Y354220D01*
X525756Y354294D01*
X525608Y354331D01*
X525238Y354479D01*
X524793Y354664D01*
X524756D01*
X524682Y354701D01*
X524460Y354775D01*
X524164Y354849D01*
X523868Y354886D01*
D02*
G37*
%LPD*%
D10*
X555154Y247000D02*
G03*
X555154Y247000I-31496J0D01*
G01*
X363823Y319000D02*
G03*
X363823Y319000I-12402J0D01*
G01*
X457815Y256000D02*
X477500D01*
X457815Y234000D02*
X477500D01*
X483500Y206000D02*
Y225685D01*
X461500Y206000D02*
Y225685D01*
X413500Y261500D02*
X490000Y261500D01*
X413500Y333000D02*
X490000Y333000D01*
Y325500D02*
Y333000D01*
Y261500D02*
Y269500D01*
X413500Y261500D02*
Y269500D01*
Y325500D02*
Y333000D01*
D11*
X430835Y411197D02*
G03*
X428098Y413933I-2736J0D01*
G01*
X430854Y393067D02*
G03*
X433591Y390331I2736J0D01*
G01*
X363807Y413933D02*
G03*
X361071Y411197I0J-2736D01*
G01*
X358315Y390331D02*
G03*
X361051Y393067I0J2736D01*
G01*
X430854D02*
Y411177D01*
X361051Y393067D02*
Y411177D01*
X368394Y341492D02*
Y378500D01*
X335323Y390311D02*
X456583D01*
X423512Y341492D02*
Y378500D01*
X335323Y341492D02*
X456583D01*
X363807Y413933D02*
X428098D01*
X335323Y341492D02*
Y390311D01*
X456583Y341492D02*
Y390311D01*
X335323Y378500D02*
X456583D01*
X370425Y284047D02*
X373575D01*
X370425Y289953D02*
X373575D01*
X370425Y294547D02*
X373575D01*
X370425Y300453D02*
X373575D01*
X385425Y289953D02*
X388575D01*
X385425Y284047D02*
X388575D01*
X385425Y300453D02*
X388575D01*
X385425Y294547D02*
X388575D01*
X429453Y199925D02*
Y203075D01*
X423547Y199925D02*
Y203075D01*
X416713Y214122D02*
X418287D01*
X416713Y216878D02*
X418287D01*
X440453Y199925D02*
Y203075D01*
X434547Y199925D02*
Y203075D01*
X451453Y199925D02*
Y203075D01*
X445547Y199925D02*
Y203075D01*
X437713Y237378D02*
X439287D01*
X437713Y234622D02*
X439287D01*
X423047Y242425D02*
Y245575D01*
X428953Y242425D02*
Y245575D01*
X383126Y274504D02*
X398874D01*
X383126Y262496D02*
X398874D01*
X380213Y204122D02*
X381787D01*
X380213Y206878D02*
X381787D01*
X353622Y223713D02*
Y225287D01*
X356378Y223713D02*
Y225287D01*
X366378Y221713D02*
Y223287D01*
X363622Y221713D02*
Y223287D01*
X347622Y248760D02*
Y250335D01*
X350378Y248760D02*
Y250335D01*
X357878Y248760D02*
Y250335D01*
X355122Y248760D02*
Y250335D01*
D12*
X378422Y249957D02*
G03*
X378422Y249957I-300J0D01*
G01*
X382605Y248811D02*
X397639D01*
X382605Y217102D02*
X397639D01*
X375000Y309858D02*
X384000D01*
Y331358D01*
X375000D02*
X384000D01*
X375000Y309858D02*
Y331358D01*
X512633Y285166D02*
X512100Y285699D01*
X511033D01*
X510500Y285166D01*
Y283033D01*
X511033Y282500D01*
X512100D01*
X512633Y283033D01*
X513699Y282500D02*
X514765D01*
X514232D01*
Y285699D01*
X513699Y285166D01*
X518497Y285699D02*
X516365D01*
Y284100D01*
X517431Y284633D01*
X517964D01*
X518497Y284100D01*
Y283033D01*
X517964Y282500D01*
X516898D01*
X516365Y283033D01*
X457633Y228533D02*
Y230666D01*
X457099Y231199D01*
X456033D01*
X455500Y230666D01*
Y228533D01*
X456033Y228000D01*
X457099D01*
X456566Y229066D02*
X457633Y228000D01*
X457099D02*
X457633Y228533D01*
X460832Y228000D02*
X458699D01*
X460832Y230133D01*
Y230666D01*
X460298Y231199D01*
X459232D01*
X458699Y230666D01*
X453133Y222533D02*
Y224666D01*
X452599Y225199D01*
X451533D01*
X451000Y224666D01*
Y222533D01*
X451533Y222000D01*
X452599D01*
X452066Y223066D02*
X453133Y222000D01*
X452599D02*
X453133Y222533D01*
X454199Y222000D02*
X455265D01*
X454732D01*
Y225199D01*
X454199Y224666D01*
X380633Y370199D02*
X379566Y369666D01*
X378500Y368600D01*
Y367533D01*
X379033Y367000D01*
X380100D01*
X380633Y367533D01*
Y368066D01*
X380100Y368600D01*
X378500D01*
X412000Y368533D02*
X412533Y368000D01*
X413599D01*
X414133Y368533D01*
Y370666D01*
X413599Y371199D01*
X412533D01*
X412000Y370666D01*
Y370133D01*
X412533Y369600D01*
X414133D01*
X419133Y339199D02*
X417000D01*
Y337599D01*
X418066Y338133D01*
X418600D01*
X419133Y337599D01*
Y336533D01*
X418600Y336000D01*
X417533D01*
X417000Y336533D01*
X366000Y335500D02*
X367066D01*
X366533D01*
Y338699D01*
X366000Y338166D01*
X348633Y337166D02*
X348099Y337699D01*
X347033D01*
X346500Y337166D01*
Y335033D01*
X347033Y334500D01*
X348099D01*
X348633Y335033D01*
X351298Y334500D02*
Y337699D01*
X349699Y336100D01*
X351832D01*
X365000Y330400D02*
X362867D01*
X363934Y329334D02*
Y331467D01*
X411500Y237500D02*
X412566D01*
X412033D01*
Y239633D01*
X411500D01*
X414166Y237500D02*
Y239633D01*
X415765D01*
X416298Y239100D01*
Y237500D01*
X417898Y240166D02*
Y239633D01*
X417365D01*
X418431D01*
X417898D01*
Y238033D01*
X418431Y237500D01*
X443000Y228500D02*
X444599D01*
X445133Y229033D01*
X444599Y229566D01*
X443533D01*
X443000Y230100D01*
X443533Y230633D01*
X445133D01*
X446199D02*
Y229033D01*
X446732Y228500D01*
X447265Y229033D01*
X447798Y228500D01*
X448332Y229033D01*
Y230633D01*
X394633Y280666D02*
X394099Y281199D01*
X393033D01*
X392500Y280666D01*
Y278533D01*
X393033Y278000D01*
X394099D01*
X394633Y278533D01*
X395699Y278000D02*
X396765D01*
X396232D01*
Y281199D01*
X395699Y280666D01*
X398365D02*
X398898Y281199D01*
X399964D01*
X400497Y280666D01*
Y278533D01*
X399964Y278000D01*
X398898D01*
X398365Y278533D01*
Y280666D01*
X365133Y276166D02*
X364599Y276699D01*
X363533D01*
X363000Y276166D01*
Y274033D01*
X363533Y273500D01*
X364599D01*
X365133Y274033D01*
X366199D02*
X366732Y273500D01*
X367798D01*
X368332Y274033D01*
Y276166D01*
X367798Y276699D01*
X366732D01*
X366199Y276166D01*
Y275633D01*
X366732Y275099D01*
X368332D01*
X359633Y283166D02*
X359100Y283699D01*
X358033D01*
X357500Y283166D01*
Y281033D01*
X358033Y280500D01*
X359100D01*
X359633Y281033D01*
X360699Y283166D02*
X361232Y283699D01*
X362298D01*
X362832Y283166D01*
Y282633D01*
X362298Y282100D01*
X362832Y281566D01*
Y281033D01*
X362298Y280500D01*
X361232D01*
X360699Y281033D01*
Y281566D01*
X361232Y282100D01*
X360699Y282633D01*
Y283166D01*
X361232Y282100D02*
X362298D01*
X365133Y305166D02*
X364599Y305699D01*
X363533D01*
X363000Y305166D01*
Y303033D01*
X363533Y302500D01*
X364599D01*
X365133Y303033D01*
X366199Y305699D02*
X368332D01*
Y305166D01*
X366199Y303033D01*
Y302500D01*
X399633Y288666D02*
X399099Y289199D01*
X398033D01*
X397500Y288666D01*
Y286533D01*
X398033Y286000D01*
X399099D01*
X399633Y286533D01*
X402832Y289199D02*
X401765Y288666D01*
X400699Y287599D01*
Y286533D01*
X401232Y286000D01*
X402298D01*
X402832Y286533D01*
Y287066D01*
X402298Y287599D01*
X400699D01*
X388633Y305166D02*
X388100Y305699D01*
X387033D01*
X386500Y305166D01*
Y303033D01*
X387033Y302500D01*
X388100D01*
X388633Y303033D01*
X391832Y305699D02*
X389699D01*
Y304099D01*
X390765Y304633D01*
X391299D01*
X391832Y304099D01*
Y303033D01*
X391299Y302500D01*
X390232D01*
X389699Y303033D01*
X552000Y271099D02*
X554133D01*
X553066Y272166D02*
Y270033D01*
X482633Y169666D02*
X482099Y170199D01*
X481033D01*
X480500Y169666D01*
Y167533D01*
X481033Y167000D01*
X482099D01*
X482633Y167533D01*
Y168599D01*
X481566D01*
X483699Y167000D02*
Y170199D01*
X485832Y167000D01*
Y170199D01*
X486898D02*
Y167000D01*
X488497D01*
X489031Y167533D01*
Y169666D01*
X488497Y170199D01*
X486898D01*
X328633Y320166D02*
X328099Y320699D01*
X327033D01*
X326500Y320166D01*
Y318033D01*
X327033Y317500D01*
X328099D01*
X328633Y318033D01*
Y319099D01*
X327566D01*
X329699Y317500D02*
Y320699D01*
X331832Y317500D01*
Y320699D01*
X332898D02*
Y317500D01*
X334497D01*
X335031Y318033D01*
Y320166D01*
X334497Y320699D01*
X332898D01*
X549199Y194500D02*
X547066D01*
X546000Y193434D01*
X547066Y192367D01*
X549199D01*
Y191301D02*
X546000D01*
Y189701D01*
X546533Y189168D01*
X547066D01*
X547600Y189701D01*
Y191301D01*
Y189701D01*
X548133Y189168D01*
X548666D01*
X549199Y189701D01*
Y191301D01*
X546000Y188102D02*
X548133D01*
X549199Y187036D01*
X548133Y185969D01*
X546000D01*
X547600D01*
Y188102D01*
X549199Y184903D02*
Y182771D01*
Y183837D01*
X546000D01*
X549199Y181704D02*
Y179571D01*
Y180638D01*
X546000D01*
X546500Y198100D02*
X548633D01*
X547566Y199166D02*
Y197033D01*
X386500Y310941D02*
Y313074D01*
X387566Y314140D01*
X388633Y313074D01*
Y310941D01*
Y312541D01*
X386500D01*
X429441Y229500D02*
Y232699D01*
X431040D01*
X431574Y232166D01*
Y231100D01*
X431040Y230566D01*
X429441D01*
X430507D02*
X431574Y229500D01*
X434772Y232699D02*
X433706Y232166D01*
X432640Y231100D01*
Y230033D01*
X433173Y229500D01*
X434239D01*
X434772Y230033D01*
Y230566D01*
X434239Y231100D01*
X432640D01*
X416000Y208500D02*
Y211699D01*
X417599D01*
X418133Y211166D01*
Y210100D01*
X417599Y209566D01*
X416000D01*
X417066D02*
X418133Y208500D01*
X421332D02*
X419199D01*
X421332Y210633D01*
Y211166D01*
X420798Y211699D01*
X419732D01*
X419199Y211166D01*
X422633Y190166D02*
X422099Y190699D01*
X421033D01*
X420500Y190166D01*
Y188033D01*
X421033Y187500D01*
X422099D01*
X422633Y188033D01*
X425832Y187500D02*
X423699D01*
X425832Y189633D01*
Y190166D01*
X425298Y190699D01*
X424232D01*
X423699Y190166D01*
X426898D02*
X427431Y190699D01*
X428497D01*
X429031Y190166D01*
Y188033D01*
X428497Y187500D01*
X427431D01*
X426898Y188033D01*
Y190166D01*
X434133D02*
X433600Y190699D01*
X432533D01*
X432000Y190166D01*
Y188033D01*
X432533Y187500D01*
X433600D01*
X434133Y188033D01*
X435199Y187500D02*
X436265D01*
X435732D01*
Y190699D01*
X435199Y190166D01*
X437865Y188033D02*
X438398Y187500D01*
X439464D01*
X439997Y188033D01*
Y190166D01*
X439464Y190699D01*
X438398D01*
X437865Y190166D01*
Y189633D01*
X438398Y189100D01*
X439997D01*
X445133Y190166D02*
X444599Y190699D01*
X443533D01*
X443000Y190166D01*
Y188033D01*
X443533Y187500D01*
X444599D01*
X445133Y188033D01*
X446199Y187500D02*
X447265D01*
X446732D01*
Y190699D01*
X446199Y190166D01*
X448865D02*
X449398Y190699D01*
X450464D01*
X450997Y190166D01*
Y189633D01*
X450464Y189100D01*
X450997Y188566D01*
Y188033D01*
X450464Y187500D01*
X449398D01*
X448865Y188033D01*
Y188566D01*
X449398Y189100D01*
X448865Y189633D01*
Y190166D01*
X449398Y189100D02*
X450464D01*
X377500Y255199D02*
Y252533D01*
X378033Y252000D01*
X379099D01*
X379633Y252533D01*
Y255199D01*
X380699Y252000D02*
X381765D01*
X381232D01*
Y255199D01*
X380699Y254666D01*
X431834Y243133D02*
X431301Y242600D01*
Y241533D01*
X431834Y241000D01*
X433967D01*
X434500Y241533D01*
Y242600D01*
X433967Y243133D01*
X434500Y244199D02*
Y245265D01*
Y244732D01*
X431301D01*
X431834Y244199D01*
X431301Y246865D02*
Y248997D01*
X431834D01*
X433967Y246865D01*
X434500D01*
X385500Y335199D02*
Y332000D01*
X387100D01*
X387633Y332533D01*
Y334666D01*
X387100Y335199D01*
X385500D01*
X388699Y332000D02*
X389765D01*
X389232D01*
Y335199D01*
X388699Y334666D01*
X463133Y385699D02*
X462066D01*
X462600D01*
Y383033D01*
X462066Y382500D01*
X461533D01*
X461000Y383033D01*
X464199Y382500D02*
X465265D01*
X464732D01*
Y385699D01*
X464199Y385166D01*
X368000Y267500D02*
Y270699D01*
X369600D01*
X370133Y270166D01*
Y269099D01*
X369600Y268566D01*
X368000D01*
X369066D02*
X370133Y267500D01*
X371199Y270166D02*
X371732Y270699D01*
X372798D01*
X373332Y270166D01*
Y269633D01*
X372798Y269099D01*
X372265D01*
X372798D01*
X373332Y268566D01*
Y268033D01*
X372798Y267500D01*
X371732D01*
X371199Y268033D01*
X352000Y255500D02*
Y258699D01*
X353600D01*
X354133Y258166D01*
Y257100D01*
X353600Y256566D01*
X352000D01*
X353066D02*
X354133Y255500D01*
X355199Y258699D02*
X357332D01*
Y258166D01*
X355199Y256033D01*
Y255500D01*
X339500Y247500D02*
Y250699D01*
X341100D01*
X341633Y250166D01*
Y249099D01*
X341100Y248566D01*
X339500D01*
X340566D02*
X341633Y247500D01*
X344299D02*
Y250699D01*
X342699Y249099D01*
X344832D01*
X362000Y222000D02*
X358801D01*
Y223600D01*
X359334Y224133D01*
X360401D01*
X360934Y223600D01*
Y222000D01*
Y223066D02*
X362000Y224133D01*
X359334Y225199D02*
X358801Y225732D01*
Y226799D01*
X359334Y227332D01*
X359867D01*
X360401Y226799D01*
X360934Y227332D01*
X361467D01*
X362000Y226799D01*
Y225732D01*
X361467Y225199D01*
X360934D01*
X360401Y225732D01*
X359867Y225199D01*
X359334D01*
X360401Y225732D02*
Y226799D01*
X361000Y213000D02*
Y216199D01*
X362599D01*
X363133Y215666D01*
Y214599D01*
X362599Y214066D01*
X361000D01*
X362066D02*
X363133Y213000D01*
X366332Y216199D02*
X364199D01*
Y214599D01*
X365265Y215133D01*
X365798D01*
X366332Y214599D01*
Y213533D01*
X365798Y213000D01*
X364732D01*
X364199Y213533D01*
X379000Y199500D02*
Y202699D01*
X380599D01*
X381133Y202166D01*
Y201099D01*
X380599Y200566D01*
X379000D01*
X380066D02*
X381133Y199500D01*
X382199D02*
X383265D01*
X382732D01*
Y202699D01*
X382199Y202166D01*
X483000Y339699D02*
Y336500D01*
X485133D01*
X486199D02*
X487265D01*
X486732D01*
Y339699D01*
X486199Y339166D01*
X370633Y263166D02*
X370099Y263699D01*
X369033D01*
X368500Y263166D01*
Y261033D01*
X369033Y260500D01*
X370099D01*
X370633Y261033D01*
X371699Y263166D02*
X372232Y263699D01*
X373299D01*
X373832Y263166D01*
Y262633D01*
X373299Y262100D01*
X372765D01*
X373299D01*
X373832Y261566D01*
Y261033D01*
X373299Y260500D01*
X372232D01*
X371699Y261033D01*
X390633Y259666D02*
X390100Y260199D01*
X389033D01*
X388500Y259666D01*
Y257533D01*
X389033Y257000D01*
X390100D01*
X390633Y257533D01*
X391699Y257000D02*
X392765D01*
X392232D01*
Y260199D01*
X391699Y259666D01*
X396497Y257000D02*
X394365D01*
X396497Y259133D01*
Y259666D01*
X395964Y260199D01*
X394898D01*
X394365Y259666D01*
X433133Y222666D02*
X432599Y223199D01*
X431533D01*
X431000Y222666D01*
Y220533D01*
X431533Y220000D01*
X432599D01*
X433133Y220533D01*
X436332Y220000D02*
X434199D01*
X436332Y222133D01*
Y222666D01*
X435798Y223199D01*
X434732D01*
X434199Y222666D01*
X350633Y242666D02*
X350099Y243199D01*
X349033D01*
X348500Y242666D01*
Y240533D01*
X349033Y240000D01*
X350099D01*
X350633Y240533D01*
X351699Y240000D02*
X352765D01*
X352232D01*
Y243199D01*
X351699Y242666D01*
X355964Y240000D02*
Y243199D01*
X354365Y241599D01*
X356497D01*
X350133Y207666D02*
X349600Y208199D01*
X348533D01*
X348000Y207666D01*
Y205533D01*
X348533Y205000D01*
X349600D01*
X350133Y205533D01*
X351199Y205000D02*
X352265D01*
X351732D01*
Y208199D01*
X351199Y207666D01*
X355997Y208199D02*
X354931Y207666D01*
X353865Y206599D01*
Y205533D01*
X354398Y205000D01*
X355464D01*
X355997Y205533D01*
Y206066D01*
X355464Y206599D01*
X353865D01*
X365633Y252666D02*
X365100Y253199D01*
X364033D01*
X363500Y252666D01*
Y250533D01*
X364033Y250000D01*
X365100D01*
X365633Y250533D01*
X366699Y250000D02*
X367765D01*
X367232D01*
Y253199D01*
X366699Y252666D01*
X369365D02*
X369898Y253199D01*
X370964D01*
X371497Y252666D01*
Y252133D01*
X370964Y251600D01*
X370431D01*
X370964D01*
X371497Y251066D01*
Y250533D01*
X370964Y250000D01*
X369898D01*
X369365Y250533D01*
X413133Y228666D02*
X412600Y229199D01*
X411533D01*
X411000Y228666D01*
Y226533D01*
X411533Y226000D01*
X412600D01*
X413133Y226533D01*
X414199Y226000D02*
X415265D01*
X414732D01*
Y229199D01*
X414199Y228666D01*
X416865Y226000D02*
X417931D01*
X417398D01*
Y229199D01*
X416865Y228666D01*
X416633Y255666D02*
X416100Y256199D01*
X415033D01*
X414500Y255666D01*
Y253533D01*
X415033Y253000D01*
X416100D01*
X416633Y253533D01*
X417699Y253000D02*
X418765D01*
X418232D01*
Y256199D01*
X417699Y255666D01*
M02*
