G04*
G04 #@! TF.GenerationSoftware,Altium Limited,Altium Designer,19.1.8 (144)*
G04*
G04 Layer_Color=16711935*
%FSLAX25Y25*%
%MOIN*%
G70*
G01*
G75*
%ADD25R,0.06800X0.06800*%
%ADD26C,0.06800*%
%ADD27R,0.06800X0.06800*%
%ADD28C,0.07887*%
%ADD29R,0.07887X0.07887*%
%ADD30R,0.07887X0.07887*%
%ADD31C,0.03100*%
%ADD32C,0.05800*%
D25*
X538500Y292000D02*
D03*
D26*
Y311685D02*
D03*
X341315Y336500D02*
D03*
D27*
X361000D02*
D03*
D28*
X538000Y251000D02*
D03*
X371500Y387000D02*
D03*
X400500Y189000D02*
D03*
D29*
X538000Y231000D02*
D03*
D30*
X391500Y387000D02*
D03*
X380500Y189000D02*
D03*
D31*
Y277000D02*
D03*
X411000Y261500D02*
D03*
X377000Y230500D02*
D03*
X456500Y250000D02*
D03*
X449500Y246500D02*
D03*
X374000Y249500D02*
D03*
X369500Y244500D02*
D03*
X420000Y257000D02*
D03*
X410941Y244559D02*
D03*
D32*
X439500Y267500D02*
D03*
X416000Y270000D02*
D03*
X391622Y250957D02*
D03*
X349000Y309000D02*
D03*
X358500Y244000D02*
D03*
X441000Y249000D02*
D03*
X458500Y259000D02*
D03*
X452000Y263000D02*
D03*
X458000Y267500D02*
D03*
X453500Y219500D02*
D03*
Y240000D02*
D03*
X346000Y220500D02*
D03*
X346500Y232000D02*
D03*
X365500Y276000D02*
D03*
X339000Y267500D02*
D03*
M02*
