M48
;Layer_Color=9474304
;FILE_FORMAT=2:5
INCH,TZ
;TYPE=PLATED
T1F00S00C0.01300
T2F00S00C0.01500
T3F00S00C0.02800
T4F00S00C0.03300
T5F00S00C0.03543
T6F00S00C0.03800
T7F00S00C0.04291
T8F00S00C0.06000
T9F00S00C0.12835
T10F00S00C0.17000
%
T01
X490000Y258000
X460000
T02
X357256Y210000
X357256Y216000
X362500Y227500
X363500Y236000
X372068Y234186
X372000Y229000
X375500Y256000
X365000Y255500
X409000Y253500
X412000Y257000
X414000Y242500
X408500Y237000
X420500Y233500
X401000Y279000
X386500Y287000
X379000Y200756
T03
X327000Y171500
X327500Y191500
X317000Y183327
X338000Y235185
X390122Y232957
X403000Y195500
X432500Y213500
X442000
X451500Y214000
X448500Y242500
X448000Y251000
X442000Y246500
X420500Y256000
X303500Y262500
X307000Y191500
Y172000
T04
X367000Y231500
X348500Y303000
T05
X315000Y245500
Y255500
X325000
Y245500
T06
X510000Y224000
X539500
T07
X269000Y276500
Y287405
Y298311
Y309216
X280181Y303764
Y292858
Y281953
Y271047
Y314669
T08
X382500Y150000
X549000Y291500
Y305000
X392000Y347000
X381500
T09
X274590Y243665
Y342051
T10
X471000Y165000
X523000
X425500Y160000
X271500
X310500Y329000
X535000Y330000
M30
