G04*
G04 #@! TF.GenerationSoftware,Altium Limited,Altium Designer,19.1.8 (144)*
G04*
G04 Layer_Color=8388736*
%FSLAX25Y25*%
%MOIN*%
G70*
G01*
G75*
%ADD14R,0.03556X0.04343*%
%ADD15R,0.04934X0.16942*%
%ADD16R,0.41942X0.38595*%
%ADD17R,0.04343X0.03556*%
%ADD18R,0.28359X0.75997*%
%ADD19R,0.03359X0.07690*%
%ADD20R,0.05131X0.07493*%
%ADD21R,0.04343X0.03950*%
%ADD22R,0.03950X0.04343*%
%ADD23R,0.07500X0.14200*%
%ADD24R,0.09384X0.07217*%
%ADD25R,0.07099X0.03950*%
%ADD26R,0.12111X0.18800*%
%ADD27R,0.03950X0.07099*%
%ADD28R,0.18800X0.12111*%
%ADD29R,0.07493X0.05131*%
%ADD30R,0.11587X0.13595*%
%ADD31R,0.06553X0.02181*%
%ADD32R,0.04934X0.13595*%
%ADD33C,0.06706*%
%ADD34R,0.06706X0.06706*%
%ADD35C,0.06800*%
%ADD36R,0.06800X0.06800*%
%ADD37C,0.19540*%
%ADD38R,0.07453X0.07453*%
%ADD39C,0.07453*%
%ADD40C,0.03800*%
%ADD41C,0.05800*%
%ADD42C,0.20800*%
%ADD43C,0.08800*%
%ADD44C,0.36800*%
D14*
X362500Y210000D02*
D03*
X368406D02*
D03*
X362500Y216000D02*
D03*
X368406D02*
D03*
X420453Y214500D02*
D03*
X414547D02*
D03*
X429547Y232000D02*
D03*
X435453D02*
D03*
X368453Y222500D02*
D03*
X362547D02*
D03*
D15*
X327000Y222500D02*
D03*
X307000D02*
D03*
D16*
X317000Y183327D02*
D03*
D17*
X379000Y206000D02*
D03*
Y211906D02*
D03*
X378500Y285453D02*
D03*
Y279547D02*
D03*
X351500Y233547D02*
D03*
Y239453D02*
D03*
X353500Y246547D02*
D03*
Y252453D02*
D03*
X360500Y252500D02*
D03*
Y246595D02*
D03*
D18*
X421500Y305000D02*
D03*
X495500D02*
D03*
D19*
X314500Y274500D02*
D03*
X298358D02*
D03*
D20*
X420315Y195500D02*
D03*
X409685D02*
D03*
D21*
X346500Y252256D02*
D03*
Y246744D02*
D03*
X370500Y252756D02*
D03*
Y247244D02*
D03*
X409000Y248256D02*
D03*
Y242744D02*
D03*
X358000Y233744D02*
D03*
Y239256D02*
D03*
D22*
X396756Y287000D02*
D03*
X391244D02*
D03*
X422744Y224000D02*
D03*
X428256D02*
D03*
X387244Y253500D02*
D03*
X392756D02*
D03*
X357256Y227500D02*
D03*
X351744D02*
D03*
X415756Y230500D02*
D03*
X410244D02*
D03*
D23*
X348500Y302850D02*
D03*
Y270150D02*
D03*
D24*
X396812Y302000D02*
D03*
X382188D02*
D03*
D25*
X456500Y252000D02*
D03*
Y247000D02*
D03*
Y242000D02*
D03*
Y237000D02*
D03*
X478335Y252000D02*
D03*
Y247000D02*
D03*
Y242000D02*
D03*
Y237000D02*
D03*
D26*
X471500Y244500D02*
D03*
D27*
X480000Y227000D02*
D03*
X475000D02*
D03*
X470000D02*
D03*
X465000D02*
D03*
X480000Y205165D02*
D03*
X475000D02*
D03*
X470000D02*
D03*
X465000D02*
D03*
D28*
X472500Y212000D02*
D03*
D29*
X303500Y244685D02*
D03*
Y255315D02*
D03*
X338000Y252315D02*
D03*
Y241685D02*
D03*
X432500Y206815D02*
D03*
Y196185D02*
D03*
X442000Y206815D02*
D03*
Y196185D02*
D03*
X451500Y206815D02*
D03*
Y196185D02*
D03*
X420500Y238685D02*
D03*
Y249315D02*
D03*
D30*
X390122Y232957D02*
D03*
D31*
X401244Y247031D02*
D03*
Y244472D02*
D03*
Y241913D02*
D03*
Y239354D02*
D03*
Y236795D02*
D03*
Y234236D02*
D03*
Y231677D02*
D03*
Y229118D02*
D03*
Y226559D02*
D03*
Y224000D02*
D03*
Y221441D02*
D03*
Y218882D02*
D03*
X379000D02*
D03*
Y221441D02*
D03*
Y224000D02*
D03*
Y226559D02*
D03*
Y229118D02*
D03*
Y231677D02*
D03*
Y234236D02*
D03*
Y236795D02*
D03*
Y239354D02*
D03*
Y241913D02*
D03*
Y244472D02*
D03*
Y247031D02*
D03*
D32*
X378583Y267000D02*
D03*
X401417D02*
D03*
D33*
X315000Y255500D02*
D03*
X325000D02*
D03*
X315000Y245500D02*
D03*
D34*
X325000D02*
D03*
D35*
X510000Y224000D02*
D03*
D36*
X539500D02*
D03*
D37*
X274590Y342051D02*
D03*
Y243665D02*
D03*
D38*
X280181Y271047D02*
D03*
D39*
X269000Y276500D02*
D03*
X280181Y281953D02*
D03*
X269000Y287405D02*
D03*
X280181Y292858D02*
D03*
X269000Y298311D02*
D03*
X280181Y303764D02*
D03*
X269000Y309216D02*
D03*
X280181Y314669D02*
D03*
D40*
X379000Y200756D02*
D03*
X372000Y229000D02*
D03*
X372068Y234186D02*
D03*
X357256Y210000D02*
D03*
X365000Y255500D02*
D03*
X363500Y236000D02*
D03*
X401000Y279000D02*
D03*
X357256Y216000D02*
D03*
X386500Y287000D02*
D03*
X412000Y257000D02*
D03*
X409000Y253500D02*
D03*
X408500Y237000D02*
D03*
X414000Y242500D02*
D03*
X420500Y233500D02*
D03*
X375500Y256000D02*
D03*
X362500Y227500D02*
D03*
D41*
X307000Y191500D02*
D03*
X327500D02*
D03*
X327000Y171500D02*
D03*
X307000Y172000D02*
D03*
X317000Y183327D02*
D03*
X303500Y262500D02*
D03*
X348500Y303000D02*
D03*
X367000Y231500D02*
D03*
X338000Y235185D02*
D03*
X403000Y195500D02*
D03*
X390122Y232957D02*
D03*
X451500Y214000D02*
D03*
X432500Y213500D02*
D03*
X420500Y256000D02*
D03*
X442000Y213500D02*
D03*
X448500Y242500D02*
D03*
X442000Y246500D02*
D03*
X448000Y251000D02*
D03*
D42*
X310500Y329000D02*
D03*
X535000Y330000D02*
D03*
X271500Y160000D02*
D03*
X425500D02*
D03*
D43*
X392000Y347000D02*
D03*
X549000Y305000D02*
D03*
X381500Y347000D02*
D03*
X549000Y291500D02*
D03*
X382500Y150000D02*
D03*
D44*
X523000Y165000D02*
D03*
X471000D02*
D03*
M02*
