M48
;Layer_Color=9474304
;FILE_FORMAT=2:5
INCH,TZ
;TYPE=PLATED
T1F00S00C0.01300
T2F00S00C0.02800
T3F00S00C0.05118
%
T01
X380500Y227500
X374013Y249487
X369500Y245000
X410941Y244559
X412500Y263000
X420000Y257000
X458500Y250000
X380500Y276000
T02
X533500Y291815
Y311500
X458000Y267500
X458500Y259000
X453500Y263000
Y240000
Y219500
X441000Y249000
X414000Y270000
X391622Y250957
X358500Y244000
X346500Y232000
X346000Y220500
X339000Y267500
X365500Y276000
X349000Y305000
X340815Y333000
X360500
T03
X538000Y231000
Y251000
X400500Y189000
X380500
X371500Y373500
X391500
M30
