M48
;Layer_Color=9474304
;FILE_FORMAT=2:5
INCH,TZ
;TYPE=PLATED
T1F00S00C0.01300
T2F00S00C0.01500
T3F00S00C0.02800
T4F00S00C0.03300
T5F00S00C0.03800
T6F00S00C0.04291
T7F00S00C0.06000
T8F00S00C0.12835
T9F00S00C0.17000
%
T01
X490000Y258000
X460000
T02
X371303Y208500
X372000Y229000
X372068Y234186
X363500Y234000
X362500Y227500
X365500Y253000
X375500Y256000
X409000Y253500
X412000Y257000
X414000Y242500
X408500Y237000
X420500Y233500
X401000Y279000
X386500Y287000
T03
X327500Y208370
X336500
X338000Y235185
X390122Y232957
X403000Y195500
X432500Y213500
X442000
X451500Y214000
X448500Y242500
X448000Y251000
X442000Y246500
X420500Y256000
T04
X360500Y219000
X368500
X350500Y301350
T05
X510000Y224000
X539500
T06
X297000Y206283
Y217189
Y228095
Y239000
X308181Y244453
Y233547
Y222642
Y211736
Y200831
T07
X382500Y150000
X549000Y291500
Y305000
X392000Y347000
X379500
T08
X302590Y173449
Y271835
T09
X471000Y165000
X523000
X425500Y160000
X334000
X300000Y330000
X535000
M30
