M48
;Layer_Color=9474304
;FILE_FORMAT=2:5
INCH,LZ
;TYPE=PLATED
T1F00S00C0.01300
T2F00S00C0.02800
T3F00S00C0.03500
T4F00S00C0.05118
%
T01
X04915Y0276
X04615
X04275Y02475
X0411Y02615
X0374Y02495
X0373Y0245
X03695Y02515
T02
X0346Y02205
X03465Y0232
X03475Y0255
X0339Y02675
X0363Y02755
X0391622Y0250957
X0412Y0269
X04275Y0274
X04435Y0259
X045Y0255
X04495Y02635
X0445Y0232
X0435Y02315
X04155Y02235
T03
X0512Y0261
X05415
X0360685Y0318
X0341
T04
X04765Y01825
X0525Y01915
Y02115
X04565Y01825
X04055Y0182
X03855
X0381Y0367
X0361
M30
