G04*
G04 #@! TF.GenerationSoftware,Altium Limited,Altium Designer,19.1.8 (144)*
G04*
G04 Layer_Color=65535*
%FSLAX25Y25*%
%MOIN*%
G70*
G01*
G75*
%ADD10C,0.00984*%
%ADD11C,0.01000*%
%ADD12C,0.00787*%
%ADD13C,0.00600*%
G36*
X375124Y224750D02*
X374124D01*
Y223250D01*
X375124D01*
Y224750D01*
D02*
G37*
G36*
X405120Y237545D02*
X406120D01*
Y236045D01*
X405120D01*
Y237545D01*
D02*
G37*
D10*
X331724Y222500D02*
G03*
X331724Y222500I-492J0D01*
G01*
D11*
X556153Y224000D02*
G03*
X556153Y224000I-31496J0D01*
G01*
X457815Y255500D02*
X477500D01*
X457815Y233500D02*
X477500D01*
X483500Y206000D02*
Y225685D01*
X461500Y206000D02*
Y225685D01*
D12*
X216303Y327740D02*
G03*
X213567Y325004I0J-2736D01*
G01*
X234433Y327760D02*
G03*
X237169Y330496I0J2736D01*
G01*
X213567Y260713D02*
G03*
X216303Y257976I2736J0D01*
G01*
X237169Y255221D02*
G03*
X234433Y257957I-2736J0D01*
G01*
X310000Y240500D02*
Y260500D01*
Y240500D02*
X330000D01*
X310000Y260500D02*
X330000D01*
Y240500D02*
Y260500D01*
X364665Y211378D02*
X366240D01*
X364665Y208622D02*
X366240D01*
X337472Y203799D02*
Y208917D01*
X296528Y203799D02*
Y208917D01*
X337472D01*
X377622Y208165D02*
Y209740D01*
X380378Y208165D02*
Y209740D01*
X364665Y217378D02*
X366240D01*
X364665Y214622D02*
X366240D01*
X411256Y344173D02*
Y348898D01*
X505744Y344173D02*
Y348898D01*
X411256Y261102D02*
Y265827D01*
X505744Y261102D02*
Y265827D01*
X411256Y348898D02*
X505744D01*
X411256Y261102D02*
X505744D01*
X413425Y192547D02*
X416575D01*
X413425Y198453D02*
X416575D01*
X379878Y281713D02*
Y283287D01*
X377122Y281713D02*
Y283287D01*
X216323Y327760D02*
X234433D01*
X216323Y257957D02*
X234433D01*
X249000Y265299D02*
X286008D01*
X237189Y232228D02*
Y353488D01*
X249000Y320417D02*
X286008D01*
X286008Y232228D02*
Y353488D01*
X213567Y260713D02*
Y325004D01*
X237189Y232228D02*
X286008D01*
X237189Y353488D02*
X286008D01*
X249000Y232228D02*
Y353488D01*
X300547Y248425D02*
Y251575D01*
X306453Y248425D02*
Y251575D01*
X340953Y245425D02*
Y248575D01*
X335047Y245425D02*
Y248575D01*
X435453Y199925D02*
Y203075D01*
X429547Y199925D02*
Y203075D01*
X416713Y213122D02*
X418287D01*
X416713Y215878D02*
X418287D01*
X444953Y199925D02*
Y203075D01*
X439047Y199925D02*
Y203075D01*
X454453Y199925D02*
Y203075D01*
X448547Y199925D02*
Y203075D01*
X431713Y233378D02*
X433287D01*
X431713Y230622D02*
X433287D01*
X417547Y242425D02*
Y245575D01*
X423453Y242425D02*
Y245575D01*
X382126Y273004D02*
X397874D01*
X382126Y260996D02*
X397874D01*
X364713Y221122D02*
X366287D01*
X364713Y223878D02*
X366287D01*
X350122Y235713D02*
Y237287D01*
X352878Y235713D02*
Y237287D01*
X352122Y248713D02*
Y250287D01*
X354878Y248713D02*
Y250287D01*
X361878Y248760D02*
Y250335D01*
X359122Y248760D02*
Y250335D01*
D13*
X378422Y249957D02*
G03*
X378422Y249957I-300J0D01*
G01*
X295500Y270000D02*
X317000D01*
X295500D02*
Y279000D01*
X317000D01*
Y270000D02*
Y279000D01*
X353560Y265350D02*
X369650D01*
X327350D02*
X343440D01*
X327350D02*
Y307650D01*
X353560D02*
X369650D01*
Y265350D02*
Y307650D01*
X327350D02*
X343440D01*
X401004Y306519D02*
Y308248D01*
X377996Y295752D02*
Y297481D01*
Y306519D02*
Y308248D01*
X401004D01*
Y295752D02*
Y297481D01*
X377996Y295752D02*
X401004D01*
X374000Y299500D02*
Y304500D01*
X382605Y248811D02*
X397639D01*
X382605Y217102D02*
X397639D01*
X327000Y237500D02*
Y238566D01*
Y238033D01*
X323801D01*
X324334Y237500D01*
X317000Y238633D02*
Y236500D01*
X314867Y238633D01*
X314334D01*
X313801Y238100D01*
Y237033D01*
X314334Y236500D01*
X317000Y263599D02*
X313801D01*
X315401Y262000D01*
Y264133D01*
X324334Y262000D02*
X323801Y262533D01*
Y263599D01*
X324334Y264133D01*
X324867D01*
X325400Y263599D01*
Y263066D01*
Y263599D01*
X325934Y264133D01*
X326467D01*
X327000Y263599D01*
Y262533D01*
X326467Y262000D01*
X382867Y337834D02*
X383401Y337301D01*
X384467D01*
X385000Y337834D01*
Y339967D01*
X384467Y340500D01*
X383401D01*
X382867Y339967D01*
Y338900D01*
X383934D01*
X381801Y340500D02*
Y337301D01*
X379668Y340500D01*
Y337301D01*
X378602D02*
Y340500D01*
X377003D01*
X376469Y339967D01*
Y337834D01*
X377003Y337301D01*
X378602D01*
X402367D02*
X404500D01*
Y340500D01*
X402367D01*
X404500Y338900D02*
X403434D01*
X401301Y337301D02*
X399168Y340500D01*
Y337301D02*
X401301Y340500D01*
X398102Y337301D02*
X395969D01*
X397036D01*
Y340500D01*
X394903Y337301D02*
Y339434D01*
X393837Y340500D01*
X392770Y339434D01*
Y337301D01*
X389571Y337834D02*
X390105Y337301D01*
X391171D01*
X391704Y337834D01*
Y339967D01*
X391171Y340500D01*
X390105D01*
X389571Y339967D01*
X386372Y337834D02*
X386906Y337301D01*
X387972D01*
X388505Y337834D01*
Y339967D01*
X387972Y340500D01*
X386906D01*
X386372Y339967D01*
X540334Y289633D02*
X539801Y289100D01*
Y288033D01*
X540334Y287500D01*
X542467D01*
X543000Y288033D01*
Y289100D01*
X542467Y289633D01*
X541400D01*
Y288566D01*
X543000Y290699D02*
X539801D01*
X543000Y292832D01*
X539801D01*
Y293898D02*
X543000D01*
Y295497D01*
X542467Y296031D01*
X540334D01*
X539801Y295497D01*
Y293898D01*
X380633Y158666D02*
X380100Y159199D01*
X379033D01*
X378500Y158666D01*
Y156533D01*
X379033Y156000D01*
X380100D01*
X380633Y156533D01*
Y157599D01*
X379566D01*
X381699Y156000D02*
Y159199D01*
X383832Y156000D01*
Y159199D01*
X384898D02*
Y156000D01*
X386497D01*
X387031Y156533D01*
Y158666D01*
X386497Y159199D01*
X384898D01*
X313500Y282500D02*
X315633D01*
X316699Y281434D01*
X315633Y280367D01*
X313500D01*
X315100D01*
Y282500D01*
X257301Y277538D02*
X257834Y276472D01*
X258900Y275406D01*
X259967D01*
X260500Y275939D01*
Y277005D01*
X259967Y277538D01*
X259434D01*
X258900Y277005D01*
Y275406D01*
X258967Y308906D02*
X259500Y309439D01*
Y310505D01*
X258967Y311038D01*
X256834D01*
X256301Y310505D01*
Y309439D01*
X256834Y308906D01*
X257367D01*
X257901Y309439D01*
Y311038D01*
X287801Y316349D02*
Y314216D01*
X289401D01*
X288867Y315283D01*
Y315816D01*
X289401Y316349D01*
X290467D01*
X291000Y315816D01*
Y314750D01*
X290467Y314216D01*
X292000Y262906D02*
Y263972D01*
Y263439D01*
X288801D01*
X289334Y262906D01*
X540834Y304633D02*
X540301Y304099D01*
Y303033D01*
X540834Y302500D01*
X541367D01*
X541900Y303033D01*
Y304099D01*
X542434Y304633D01*
X542967D01*
X543500Y304099D01*
Y303033D01*
X542967Y302500D01*
X540301Y305699D02*
X543500D01*
X542434Y306765D01*
X543500Y307832D01*
X540301D01*
X468633Y187666D02*
X468099Y188199D01*
X467033D01*
X466500Y187666D01*
Y185533D01*
X467033Y185000D01*
X468099D01*
X468633Y185533D01*
Y186600D01*
X467566D01*
X469699Y185000D02*
Y188199D01*
X471832Y185000D01*
Y188199D01*
X472898D02*
Y185000D01*
X474497D01*
X475031Y185533D01*
Y187666D01*
X474497Y188199D01*
X472898D01*
X514500Y187600D02*
X516633D01*
X515566Y188666D02*
Y186533D01*
X517699Y189199D02*
Y187066D01*
X518765Y186000D01*
X519832Y187066D01*
Y189199D01*
X520898D02*
Y186000D01*
X522497D01*
X523031Y186533D01*
Y187066D01*
X522497Y187600D01*
X520898D01*
X522497D01*
X523031Y188133D01*
Y188666D01*
X522497Y189199D01*
X520898D01*
X524097Y186000D02*
Y188133D01*
X525163Y189199D01*
X526230Y188133D01*
Y186000D01*
Y187600D01*
X524097D01*
X527296Y189199D02*
X529428D01*
X528362D01*
Y186000D01*
X530495Y189199D02*
X532627D01*
X531561D01*
Y186000D01*
X549000Y227099D02*
X551133D01*
X550066Y228166D02*
Y226033D01*
X318500Y265500D02*
Y268699D01*
X320099D01*
X320633Y268166D01*
Y267099D01*
X320099Y266566D01*
X318500D01*
X321699Y265500D02*
X322765D01*
X322232D01*
Y268699D01*
X321699Y268166D01*
X287801Y183500D02*
X290467D01*
X291000Y184033D01*
Y185099D01*
X290467Y185633D01*
X287801D01*
X291000Y188832D02*
Y186699D01*
X288867Y188832D01*
X288334D01*
X287801Y188298D01*
Y187232D01*
X288334Y186699D01*
X375500Y205358D02*
X372301D01*
Y206958D01*
X372834Y207491D01*
X373901D01*
X374434Y206958D01*
Y205358D01*
Y206425D02*
X375500Y207491D01*
Y208557D02*
Y209624D01*
Y209090D01*
X372301D01*
X372834Y208557D01*
Y211223D02*
X372301Y211756D01*
Y212823D01*
X372834Y213356D01*
X373367D01*
X373901Y212823D01*
Y212289D01*
Y212823D01*
X374434Y213356D01*
X374967D01*
X375500Y212823D01*
Y211756D01*
X374967Y211223D01*
X345953Y208500D02*
Y211699D01*
X347552D01*
X348085Y211166D01*
Y210100D01*
X347552Y209566D01*
X345953D01*
X347019D02*
X348085Y208500D01*
X349152D02*
X350218D01*
X349685D01*
Y211699D01*
X349152Y211166D01*
X353950Y208500D02*
X351817D01*
X353950Y210633D01*
Y211166D01*
X353417Y211699D01*
X352351D01*
X351817Y211166D01*
X348453Y214500D02*
Y217699D01*
X350052D01*
X350585Y217166D01*
Y216100D01*
X350052Y215566D01*
X348453D01*
X349519D02*
X350585Y214500D01*
X351652Y215033D02*
X352185Y214500D01*
X353251D01*
X353784Y215033D01*
Y217166D01*
X353251Y217699D01*
X352185D01*
X351652Y217166D01*
Y216633D01*
X352185Y216100D01*
X353784D01*
X515000Y318699D02*
Y315500D01*
X517133D01*
X518199D02*
X519265D01*
X518732D01*
Y318699D01*
X518199Y318166D01*
X409633Y204666D02*
X409099Y205199D01*
X408033D01*
X407500Y204666D01*
Y202533D01*
X408033Y202000D01*
X409099D01*
X409633Y202533D01*
X410699Y205199D02*
X412832D01*
Y204666D01*
X410699Y202533D01*
Y202000D01*
X304500Y284199D02*
Y281000D01*
X306100D01*
X306633Y281533D01*
Y283666D01*
X306100Y284199D01*
X304500D01*
X307699Y281000D02*
X308765D01*
X308232D01*
Y284199D01*
X307699Y283666D01*
X376700Y290000D02*
Y293199D01*
X378299D01*
X378833Y292666D01*
Y291599D01*
X378299Y291066D01*
X376700D01*
X377766D02*
X378833Y290000D01*
X382032Y293199D02*
X379899D01*
Y291599D01*
X380965Y292133D01*
X381499D01*
X382032Y291599D01*
Y290533D01*
X381499Y290000D01*
X380432D01*
X379899Y290533D01*
X374300Y314799D02*
Y311600D01*
X375900D01*
X376433Y312133D01*
Y314266D01*
X375900Y314799D01*
X374300D01*
X379632Y311600D02*
X377499D01*
X379632Y313733D01*
Y314266D01*
X379099Y314799D01*
X378032D01*
X377499Y314266D01*
X391633Y293166D02*
X391100Y293699D01*
X390033D01*
X389500Y293166D01*
Y291033D01*
X390033Y290500D01*
X391100D01*
X391633Y291033D01*
X394832Y290500D02*
X392699D01*
X394832Y292633D01*
Y293166D01*
X394299Y293699D01*
X393232D01*
X392699Y293166D01*
X395898Y290500D02*
X396964D01*
X396431D01*
Y293699D01*
X395898Y293166D01*
X345633Y258666D02*
X345099Y259199D01*
X344033D01*
X343500Y258666D01*
Y256533D01*
X344033Y256000D01*
X345099D01*
X345633Y256533D01*
X346699Y258666D02*
X347232Y259199D01*
X348299D01*
X348832Y258666D01*
Y258133D01*
X348299Y257599D01*
X347765D01*
X348299D01*
X348832Y257066D01*
Y256533D01*
X348299Y256000D01*
X347232D01*
X346699Y256533D01*
X457633Y228033D02*
Y230166D01*
X457099Y230699D01*
X456033D01*
X455500Y230166D01*
Y228033D01*
X456033Y227500D01*
X457099D01*
X456566Y228566D02*
X457633Y227500D01*
X457099D02*
X457633Y228033D01*
X460832Y227500D02*
X458699D01*
X460832Y229633D01*
Y230166D01*
X460298Y230699D01*
X459232D01*
X458699Y230166D01*
X453133Y222533D02*
Y224666D01*
X452599Y225199D01*
X451533D01*
X451000Y224666D01*
Y222533D01*
X451533Y222000D01*
X452599D01*
X452066Y223066D02*
X453133Y222000D01*
X452599D02*
X453133Y222533D01*
X454199Y222000D02*
X455265D01*
X454732D01*
Y225199D01*
X454199Y224666D01*
X521633Y239166D02*
X521100Y239699D01*
X520033D01*
X519500Y239166D01*
Y237033D01*
X520033Y236500D01*
X521100D01*
X521633Y237033D01*
X522699Y236500D02*
X523765D01*
X523232D01*
Y239699D01*
X522699Y239166D01*
X527497Y239699D02*
X525365D01*
Y238100D01*
X526431Y238633D01*
X526964D01*
X527497Y238100D01*
Y237033D01*
X526964Y236500D01*
X525898D01*
X525365Y237033D01*
X366666Y292367D02*
X367199Y292900D01*
Y293967D01*
X366666Y294500D01*
X364533D01*
X364000Y293967D01*
Y292900D01*
X364533Y292367D01*
X364000Y289702D02*
X367199D01*
X365599Y291301D01*
Y289168D01*
X295834Y249633D02*
X295301Y249099D01*
Y248033D01*
X295834Y247500D01*
X297967D01*
X298500Y248033D01*
Y249099D01*
X297967Y249633D01*
X295301Y252832D02*
X295834Y251765D01*
X296901Y250699D01*
X297967D01*
X298500Y251232D01*
Y252298D01*
X297967Y252832D01*
X297434D01*
X296901Y252298D01*
Y250699D01*
X337133Y259166D02*
X336599Y259699D01*
X335533D01*
X335000Y259166D01*
Y257033D01*
X335533Y256500D01*
X336599D01*
X337133Y257033D01*
X340332Y259699D02*
X338199D01*
Y258100D01*
X339265Y258633D01*
X339798D01*
X340332Y258100D01*
Y257033D01*
X339798Y256500D01*
X338732D01*
X338199Y257033D01*
X421000Y227000D02*
Y230199D01*
X422600D01*
X423133Y229666D01*
Y228600D01*
X422600Y228066D01*
X421000D01*
X422066D02*
X423133Y227000D01*
X426332Y230199D02*
X425265Y229666D01*
X424199Y228600D01*
Y227533D01*
X424732Y227000D01*
X425798D01*
X426332Y227533D01*
Y228066D01*
X425798Y228600D01*
X424199D01*
X416000Y207500D02*
Y210699D01*
X417599D01*
X418133Y210166D01*
Y209100D01*
X417599Y208566D01*
X416000D01*
X417066D02*
X418133Y207500D01*
X421332D02*
X419199D01*
X421332Y209633D01*
Y210166D01*
X420798Y210699D01*
X419732D01*
X419199Y210166D01*
X428633Y190166D02*
X428099Y190699D01*
X427033D01*
X426500Y190166D01*
Y188033D01*
X427033Y187500D01*
X428099D01*
X428633Y188033D01*
X431832Y187500D02*
X429699D01*
X431832Y189633D01*
Y190166D01*
X431298Y190699D01*
X430232D01*
X429699Y190166D01*
X432898D02*
X433431Y190699D01*
X434497D01*
X435031Y190166D01*
Y188033D01*
X434497Y187500D01*
X433431D01*
X432898Y188033D01*
Y190166D01*
X439633D02*
X439100Y190699D01*
X438033D01*
X437500Y190166D01*
Y188033D01*
X438033Y187500D01*
X439100D01*
X439633Y188033D01*
X440699Y187500D02*
X441765D01*
X441232D01*
Y190699D01*
X440699Y190166D01*
X443365Y188033D02*
X443898Y187500D01*
X444964D01*
X445497Y188033D01*
Y190166D01*
X444964Y190699D01*
X443898D01*
X443365Y190166D01*
Y189633D01*
X443898Y189100D01*
X445497D01*
X450133Y190166D02*
X449600Y190699D01*
X448533D01*
X448000Y190166D01*
Y188033D01*
X448533Y187500D01*
X449600D01*
X450133Y188033D01*
X451199Y187500D02*
X452265D01*
X451732D01*
Y190699D01*
X451199Y190166D01*
X453865D02*
X454398Y190699D01*
X455464D01*
X455997Y190166D01*
Y189633D01*
X455464Y189100D01*
X455997Y188566D01*
Y188033D01*
X455464Y187500D01*
X454398D01*
X453865Y188033D01*
Y188566D01*
X454398Y189100D01*
X453865Y189633D01*
Y190166D01*
X454398Y189100D02*
X455464D01*
X377500Y255199D02*
Y252533D01*
X378033Y252000D01*
X379099D01*
X379633Y252533D01*
Y255199D01*
X380699Y252000D02*
X381765D01*
X381232D01*
Y255199D01*
X380699Y254666D01*
X425834Y243133D02*
X425301Y242600D01*
Y241533D01*
X425834Y241000D01*
X427967D01*
X428500Y241533D01*
Y242600D01*
X427967Y243133D01*
X428500Y244199D02*
Y245265D01*
Y244732D01*
X425301D01*
X425834Y244199D01*
X425301Y246865D02*
Y248997D01*
X425834D01*
X427967Y246865D01*
X428500D01*
X290699Y348584D02*
Y349650D01*
Y349117D01*
X288033D01*
X287500Y349650D01*
Y350183D01*
X288033Y350716D01*
X287500Y347518D02*
Y346451D01*
Y346984D01*
X290699D01*
X290166Y347518D01*
X388000Y275500D02*
Y278699D01*
X389599D01*
X390133Y278166D01*
Y277099D01*
X389599Y276566D01*
X388000D01*
X389066D02*
X390133Y275500D01*
X391199Y278166D02*
X391732Y278699D01*
X392798D01*
X393332Y278166D01*
Y277633D01*
X392798Y277099D01*
X392265D01*
X392798D01*
X393332Y276566D01*
Y276033D01*
X392798Y275500D01*
X391732D01*
X391199Y276033D01*
X358500Y256000D02*
Y259199D01*
X360100D01*
X360633Y258666D01*
Y257599D01*
X360100Y257066D01*
X358500D01*
X359566D02*
X360633Y256000D01*
X361699Y259199D02*
X363832D01*
Y258666D01*
X361699Y256533D01*
Y256000D01*
X351000D02*
Y259199D01*
X352600D01*
X353133Y258666D01*
Y257599D01*
X352600Y257066D01*
X351000D01*
X352066D02*
X353133Y256000D01*
X355799D02*
Y259199D01*
X354199Y257599D01*
X356332D01*
X347500Y234000D02*
X344301D01*
Y235599D01*
X344834Y236133D01*
X345901D01*
X346434Y235599D01*
Y234000D01*
Y235066D02*
X347500Y236133D01*
X344834Y237199D02*
X344301Y237732D01*
Y238798D01*
X344834Y239332D01*
X345367D01*
X345901Y238798D01*
X346434Y239332D01*
X346967D01*
X347500Y238798D01*
Y237732D01*
X346967Y237199D01*
X346434D01*
X345901Y237732D01*
X345367Y237199D01*
X344834D01*
X345901Y237732D02*
Y238798D01*
X354000Y220500D02*
Y223699D01*
X355599D01*
X356133Y223166D01*
Y222099D01*
X355599Y221566D01*
X354000D01*
X355066D02*
X356133Y220500D01*
X357199D02*
X358265D01*
X357732D01*
Y223699D01*
X357199Y223166D01*
X387633Y259166D02*
X387100Y259699D01*
X386033D01*
X385500Y259166D01*
Y257033D01*
X386033Y256500D01*
X387100D01*
X387633Y257033D01*
X388699Y256500D02*
X389765D01*
X389232D01*
Y259699D01*
X388699Y259166D01*
X393497Y256500D02*
X391365D01*
X393497Y258633D01*
Y259166D01*
X392964Y259699D01*
X391898D01*
X391365Y259166D01*
X433633Y222666D02*
X433100Y223199D01*
X432033D01*
X431500Y222666D01*
Y220533D01*
X432033Y220000D01*
X433100D01*
X433633Y220533D01*
X436832Y220000D02*
X434699D01*
X436832Y222133D01*
Y222666D01*
X436298Y223199D01*
X435232D01*
X434699Y222666D01*
X363633Y241666D02*
X363100Y242199D01*
X362033D01*
X361500Y241666D01*
Y239533D01*
X362033Y239000D01*
X363100D01*
X363633Y239533D01*
X364699Y239000D02*
X365765D01*
X365232D01*
Y242199D01*
X364699Y241666D01*
X368964Y239000D02*
Y242199D01*
X367365Y240599D01*
X369497D01*
X342133Y228666D02*
X341599Y229199D01*
X340533D01*
X340000Y228666D01*
Y226533D01*
X340533Y226000D01*
X341599D01*
X342133Y226533D01*
X343199Y226000D02*
X344265D01*
X343732D01*
Y229199D01*
X343199Y228666D01*
X347997Y229199D02*
X346931Y228666D01*
X345865Y227600D01*
Y226533D01*
X346398Y226000D01*
X347464D01*
X347997Y226533D01*
Y227066D01*
X347464Y227600D01*
X345865D01*
X364334Y246133D02*
X363801Y245600D01*
Y244533D01*
X364334Y244000D01*
X366467D01*
X367000Y244533D01*
Y245600D01*
X366467Y246133D01*
X367000Y247199D02*
Y248265D01*
Y247732D01*
X363801D01*
X364334Y247199D01*
Y249865D02*
X363801Y250398D01*
Y251464D01*
X364334Y251997D01*
X364867D01*
X365401Y251464D01*
Y250931D01*
Y251464D01*
X365934Y251997D01*
X366467D01*
X367000Y251464D01*
Y250398D01*
X366467Y249865D01*
X411133Y225666D02*
X410600Y226199D01*
X409533D01*
X409000Y225666D01*
Y223533D01*
X409533Y223000D01*
X410600D01*
X411133Y223533D01*
X412199Y223000D02*
X413265D01*
X412732D01*
Y226199D01*
X412199Y225666D01*
X414865Y223000D02*
X415931D01*
X415398D01*
Y226199D01*
X414865Y225666D01*
X412834Y248133D02*
X412301Y247600D01*
Y246533D01*
X412834Y246000D01*
X414967D01*
X415500Y246533D01*
Y247600D01*
X414967Y248133D01*
X415500Y249199D02*
Y250265D01*
Y249732D01*
X412301D01*
X412834Y249199D01*
M02*
