G04*
G04 #@! TF.GenerationSoftware,Altium Limited,Altium Designer,19.1.7 (138)*
G04*
G04 Layer_Color=65535*
%FSLAX25Y25*%
%MOIN*%
G70*
G01*
G75*
%ADD10C,0.01000*%
%ADD11C,0.00787*%
%ADD12C,0.00600*%
G36*
X375124Y224750D02*
X374124D01*
Y223250D01*
X375124D01*
Y224750D01*
D02*
G37*
G36*
X405120Y237545D02*
X406120D01*
Y236045D01*
X405120D01*
Y237545D01*
D02*
G37*
G36*
X331700Y351240D02*
X331840Y351200D01*
X331860Y351180D01*
X331940Y351140D01*
X332060Y351060D01*
X332200Y350960D01*
X332480Y350640D01*
Y341940D01*
X333140Y341780D01*
X333200D01*
X333260Y341760D01*
X333340Y341740D01*
X333520Y341700D01*
X333720Y341640D01*
X333740D01*
X333760Y341620D01*
X333880Y341580D01*
X334000Y341520D01*
X334120Y341460D01*
X334140D01*
X334180Y341440D01*
X334300Y341360D01*
X334460Y341300D01*
X334600Y341260D01*
X334640D01*
X334720Y341220D01*
X334820Y341160D01*
X334960Y341040D01*
X335000Y341000D01*
X335060Y340980D01*
X335140Y340940D01*
X335260Y340880D01*
X335420Y340840D01*
X335620Y340800D01*
X335880Y340760D01*
X335980D01*
X336080Y340740D01*
X336200Y340720D01*
X336500Y340660D01*
X336640Y340620D01*
X336760Y340560D01*
X336780D01*
X336820Y340540D01*
X336900Y340480D01*
X336980Y340420D01*
X337120Y340340D01*
X337260Y340220D01*
X337420Y340060D01*
X337620Y339880D01*
X337640Y339860D01*
X337720Y339800D01*
X337820Y339700D01*
X337960Y339600D01*
X338280Y339400D01*
X338440Y339300D01*
X338600Y339240D01*
X338620D01*
X338680Y339220D01*
X338780Y339180D01*
X338920Y339140D01*
X339080Y339060D01*
X339300Y338980D01*
X339540Y338860D01*
X339800Y338720D01*
X339840Y338700D01*
X339920Y338660D01*
X340060Y338580D01*
X340220Y338500D01*
X340560Y338320D01*
X340720Y338220D01*
X340840Y338140D01*
X340860Y338120D01*
X340900Y338100D01*
X341000Y338040D01*
X341140Y338000D01*
X341580Y337840D01*
X341600D01*
X341640Y337820D01*
X341780Y337780D01*
X341940Y337740D01*
X342000Y337720D01*
X342080D01*
X342140Y337740D01*
X342220Y337780D01*
X342320Y337840D01*
X342340D01*
X342360Y337880D01*
X342480Y337940D01*
X342640Y338040D01*
X342820Y338140D01*
X342840Y338160D01*
X342880Y338200D01*
X342980Y338280D01*
X343120Y338400D01*
X343300Y338580D01*
X343440Y338720D01*
X343580Y338840D01*
X343720Y339000D01*
X343900Y339180D01*
X344100Y339400D01*
X344320Y339620D01*
X344340Y339640D01*
X344380Y339680D01*
X344440Y339740D01*
X344520Y339840D01*
X344640Y339960D01*
X344760Y340080D01*
X345060Y340400D01*
X345380Y340780D01*
X345740Y341180D01*
X346120Y341600D01*
X346460Y342020D01*
Y342040D01*
X346500Y342060D01*
X346600Y342180D01*
X346760Y342360D01*
X346960Y342600D01*
X347220Y342880D01*
X347520Y343200D01*
X347840Y343520D01*
X348180Y343860D01*
X348200Y343880D01*
X348220Y343900D01*
X348340Y344000D01*
X348500Y344160D01*
X348700Y344340D01*
X348920Y344520D01*
X349120Y344680D01*
X349320Y344820D01*
X349480Y344900D01*
X349500D01*
X349520Y344920D01*
X349600Y344940D01*
X349700Y344980D01*
X349840Y345040D01*
X350040Y345120D01*
X350280Y345200D01*
X350580Y345320D01*
X350600D01*
X350620Y345340D01*
X350740Y345380D01*
X350900Y345460D01*
X351140Y345560D01*
X351400Y345680D01*
X351700Y345820D01*
X352020Y345960D01*
X352360Y346120D01*
X352380D01*
X352460Y346140D01*
X352560Y346180D01*
X352720Y346220D01*
X352740D01*
X352760Y346240D01*
X352880Y346260D01*
X353040Y346280D01*
X353200Y346300D01*
X353240D01*
X353340Y346340D01*
X353500Y346380D01*
X353700Y346440D01*
X353720D01*
X353760Y346460D01*
X353880Y346520D01*
X354040Y346600D01*
X354200Y346700D01*
X354220Y346720D01*
X354280Y346740D01*
X354380Y346800D01*
X354480Y346860D01*
X354620Y346940D01*
X354780Y347000D01*
X355120Y347140D01*
X355140D01*
X355200Y347160D01*
X355280Y347200D01*
X355400Y347240D01*
X355640Y347300D01*
X355880Y347320D01*
X355920D01*
X356040Y347340D01*
X356160Y347360D01*
X356200Y347380D01*
X356240Y347400D01*
X356260Y347420D01*
X356280D01*
X356340Y347440D01*
X356400Y347460D01*
X356500Y347480D01*
X356620Y347500D01*
X356980D01*
X357120Y347520D01*
X359780D01*
X361040Y346000D01*
X361120Y339740D01*
X360760Y339360D01*
X360740Y339340D01*
X360660Y339260D01*
X360560Y339160D01*
X360440Y339060D01*
X360420Y339040D01*
X360360Y338980D01*
X360280Y338920D01*
X360220Y338880D01*
X360200D01*
X360180Y338860D01*
X360060Y338800D01*
X359880Y338720D01*
X359660Y338580D01*
X359640D01*
X359620Y338540D01*
X359480Y338460D01*
X359300Y338360D01*
X359120Y338260D01*
X359100D01*
X359060Y338220D01*
X358960Y338160D01*
X358820Y338060D01*
X358780Y338040D01*
X358700Y337960D01*
X358560Y337860D01*
X358380Y337720D01*
X358360Y337700D01*
X358280Y337640D01*
X358160Y337540D01*
X358020Y337420D01*
X357840Y337280D01*
X357640Y337140D01*
X357220Y336840D01*
X357200Y336820D01*
X357120Y336780D01*
X357020Y336720D01*
X356900Y336660D01*
X356580Y336500D01*
X356420Y336440D01*
X356260Y336380D01*
X356240D01*
X356180Y336360D01*
X356100Y336320D01*
X355960Y336260D01*
X355780Y336200D01*
X355560Y336080D01*
X355300Y335940D01*
X354980Y335780D01*
X354940Y335760D01*
X354840Y335700D01*
X354680Y335620D01*
X354500Y335520D01*
X354300Y335400D01*
X354100Y335280D01*
X353940Y335160D01*
X353800Y335060D01*
X353780Y335040D01*
X353720Y334980D01*
X353680Y334920D01*
Y334880D01*
X353740D01*
X353780Y334860D01*
X354080D01*
X354180Y334840D01*
X354320Y334820D01*
X354520Y334760D01*
X354540D01*
X354580Y334740D01*
X354620Y334720D01*
X354700Y334700D01*
X354880Y334620D01*
X355080Y334520D01*
X355100D01*
X355120Y334500D01*
X355260Y334460D01*
X355420Y334380D01*
X355600Y334320D01*
X355620D01*
X355640Y334300D01*
X355740Y334280D01*
X355840Y334240D01*
X355940Y334220D01*
X355960D01*
X356020Y334200D01*
X356140Y334180D01*
X356300Y334120D01*
X357600Y333740D01*
X357620D01*
X357660Y333720D01*
X357720Y333700D01*
X357800Y333680D01*
X357980Y333620D01*
X358180Y333580D01*
X358200D01*
X358260Y333560D01*
X358340Y333540D01*
X358460Y333520D01*
X358600Y333480D01*
X358760Y333440D01*
X359100Y333320D01*
X359120D01*
X359180Y333300D01*
X359280Y333260D01*
X359380Y333220D01*
X359660Y333100D01*
X359940Y333000D01*
X359960D01*
X359980Y332980D01*
X360080Y332920D01*
X360180Y332860D01*
X360260Y332840D01*
X360280D01*
X360340Y332820D01*
X360420Y332780D01*
X360520Y332700D01*
X360540Y332680D01*
X360620Y332600D01*
X360740Y332500D01*
X360880Y332360D01*
X360920Y332320D01*
X361000Y332240D01*
X361120Y332140D01*
X361240Y332020D01*
X361260Y332000D01*
X361340Y331960D01*
X361400Y331920D01*
X361460Y331900D01*
X361480D01*
X361520Y331860D01*
X361620Y331820D01*
X361740Y331740D01*
X361900Y331600D01*
X362120Y331420D01*
X362380Y331200D01*
X362700Y330900D01*
X362720D01*
X362740Y330860D01*
X362860Y330760D01*
X363020Y330600D01*
X363200Y330400D01*
X363420Y330200D01*
X363620Y329980D01*
X363780Y329780D01*
X363920Y329600D01*
Y329580D01*
X363940Y329540D01*
X363980Y329480D01*
X364040Y329420D01*
X364160Y329220D01*
X364320Y329040D01*
X364340Y329020D01*
X364360Y329000D01*
X364380Y328960D01*
X364400Y328860D01*
X364440Y328740D01*
Y328560D01*
X364460Y328320D01*
Y328280D01*
Y328240D01*
Y328160D01*
Y328060D01*
X364480Y327940D01*
Y327780D01*
Y327580D01*
Y327360D01*
Y327100D01*
X364500Y326800D01*
Y326440D01*
Y326060D01*
Y325620D01*
Y325140D01*
Y324600D01*
Y320340D01*
X363800Y319640D01*
X361140D01*
X360920Y319660D01*
X360620D01*
X360520Y319680D01*
X360400Y319700D01*
X360160Y319720D01*
X360020Y319760D01*
X359920Y319780D01*
X359900D01*
X359880Y319800D01*
X359820D01*
X359740Y319820D01*
X359540Y319860D01*
X359280Y319900D01*
X359220D01*
X359140Y319920D01*
X359060D01*
X358840Y319940D01*
X358580Y319960D01*
X358520D01*
X358460Y319980D01*
X358240D01*
X358120Y320000D01*
X357800Y320040D01*
X357780D01*
X357720Y320060D01*
X357640D01*
X357540Y320080D01*
X357280Y320120D01*
X357000Y320180D01*
X356980D01*
X356940Y320200D01*
X356880D01*
X356780Y320220D01*
X356560Y320280D01*
X356300Y320320D01*
X356280D01*
X356240Y320340D01*
X356180D01*
X356100Y320360D01*
X355940Y320380D01*
X355660D01*
X355520Y320400D01*
X355320Y320440D01*
X355300D01*
X355280Y320460D01*
X355160Y320500D01*
X354980Y320540D01*
X354780Y320600D01*
X354760D01*
X354740Y320620D01*
X354600Y320640D01*
X354440Y320700D01*
X354240Y320740D01*
X354200Y320760D01*
X354100Y320780D01*
X353980Y320800D01*
X353800D01*
X353700Y320820D01*
X353580Y320840D01*
X353500Y320900D01*
X353480Y320920D01*
X353440Y320960D01*
X353360Y321000D01*
X353240Y321020D01*
X353200D01*
X353120Y321060D01*
X352980Y321160D01*
X352900Y321220D01*
X352800Y321320D01*
X352780Y321340D01*
X352740Y321380D01*
X352660Y321440D01*
X352520Y321520D01*
X352360Y321620D01*
X352140Y321740D01*
X351880Y321860D01*
X351560Y322000D01*
X351520Y322020D01*
X351400Y322060D01*
X351220Y322140D01*
X350980Y322240D01*
X350680Y322340D01*
X350360Y322460D01*
X350000Y322580D01*
X349620Y322680D01*
X349600D01*
X349580Y322700D01*
X349460Y322740D01*
X349300Y322780D01*
X349100Y322840D01*
X349080D01*
X349060Y322860D01*
X348960Y322900D01*
X348820Y322940D01*
X348680Y323000D01*
X348660D01*
X348640Y323020D01*
X348540Y323080D01*
X348400Y323120D01*
X348260Y323140D01*
X348240D01*
X348200Y323120D01*
X348140Y323080D01*
X348080Y323040D01*
X348000Y322960D01*
X347900Y322840D01*
X347780Y322700D01*
X347760Y322680D01*
X347720Y322620D01*
X347660Y322520D01*
X347580Y322400D01*
X347460Y322220D01*
X347340Y322020D01*
X347200Y321780D01*
X347040Y321500D01*
X346620Y320720D01*
Y320700D01*
X346580Y320660D01*
X346520Y320520D01*
X346420Y320360D01*
X346380Y320300D01*
X346340Y320260D01*
X346300Y320220D01*
X346240Y320120D01*
X346140Y320000D01*
X346080Y319860D01*
Y319840D01*
X346040Y319800D01*
X345980Y319700D01*
X345880Y319560D01*
X345140Y318500D01*
X344820Y318020D01*
X344800Y318000D01*
X344740Y317920D01*
X344620Y317780D01*
X344540Y317680D01*
X344440Y317580D01*
X344420Y317560D01*
X344400Y317520D01*
X344340Y317460D01*
X344260Y317400D01*
X344060Y317200D01*
X343800Y316980D01*
X341860Y315340D01*
X341840Y315320D01*
X341780Y315280D01*
X341680Y315200D01*
X341580Y315140D01*
X341380Y314960D01*
X341280Y314900D01*
X341220Y314860D01*
X341200D01*
X341140Y314840D01*
X341100D01*
X341020Y314820D01*
X340900D01*
X340760Y314800D01*
X340600Y314780D01*
X340380D01*
X340140Y314760D01*
X339500D01*
X339100Y314740D01*
X335300D01*
X334980Y315060D01*
X334940Y315100D01*
X334880Y315180D01*
X334800Y315300D01*
X334740Y315440D01*
Y315460D01*
Y315480D01*
Y315540D01*
X334720Y315620D01*
Y315740D01*
Y315880D01*
Y316060D01*
X334740Y316280D01*
X334820Y317060D01*
X334900Y317800D01*
Y317820D01*
Y317860D01*
X334920Y317940D01*
Y318060D01*
X334940Y318240D01*
X334960Y318480D01*
Y318780D01*
X334980Y319160D01*
Y319180D01*
Y319220D01*
Y319280D01*
Y319360D01*
Y319460D01*
X335000Y319580D01*
Y319880D01*
Y320240D01*
X335020Y320660D01*
Y321120D01*
Y321620D01*
Y324820D01*
X335480Y325220D01*
X335500Y325260D01*
X335580Y325360D01*
X335700Y325500D01*
X335840Y325660D01*
Y325680D01*
X335880Y325700D01*
X335960Y325820D01*
X336040Y325960D01*
X336120Y326120D01*
X336140Y326160D01*
X336180Y326240D01*
X336260Y326360D01*
X336360Y326500D01*
X336380Y326540D01*
X336440Y326620D01*
X336520Y326700D01*
X336580Y326780D01*
X336600Y326800D01*
X336620Y326820D01*
X336700Y326940D01*
X336800Y327100D01*
X336820Y327180D01*
X336840Y327280D01*
Y327300D01*
Y327320D01*
X336880Y327460D01*
X336940Y327620D01*
X337040Y327800D01*
X337280Y328020D01*
X336140Y328700D01*
X336120Y328720D01*
X336040Y328760D01*
X335900Y328860D01*
X335700Y328980D01*
X335680Y329000D01*
X335640Y329020D01*
X335580Y329060D01*
X335500Y329120D01*
X335300Y329280D01*
X335060Y329480D01*
X335040Y329500D01*
X335000Y329540D01*
X334940Y329600D01*
X334840Y329660D01*
X334620Y329860D01*
X334320Y330060D01*
X334300Y330080D01*
X334260Y330100D01*
X334180Y330160D01*
X334080Y330220D01*
X333840Y330360D01*
X333600Y330480D01*
X333580D01*
X333540Y330500D01*
X333480Y330540D01*
X333420Y330580D01*
X333220Y330680D01*
X333000Y330800D01*
X332980D01*
X332960Y330820D01*
X332860Y330900D01*
X332740Y330960D01*
X332640Y331040D01*
X332620Y331060D01*
X332560Y331100D01*
X332460Y331180D01*
X332340Y331260D01*
X332160Y331380D01*
X331940Y331500D01*
X331680Y331640D01*
X331380Y331800D01*
X331340Y331820D01*
X331240Y331880D01*
X331080Y331960D01*
X330860Y332040D01*
X330620Y332160D01*
X330360Y332260D01*
X330080Y332360D01*
X329820Y332440D01*
X329800D01*
X329780Y332460D01*
X329720Y332480D01*
X329640Y332500D01*
X329420Y332580D01*
X329160Y332680D01*
X329140D01*
X329100Y332700D01*
X329040Y332740D01*
X328940Y332780D01*
X328740Y332880D01*
X328500Y333000D01*
X328480Y333020D01*
X328420Y333040D01*
X328320Y333080D01*
X328200Y333140D01*
X327920Y333240D01*
X327640Y333320D01*
X327620D01*
X327580Y333340D01*
X327480D01*
X327360Y333360D01*
X327200D01*
X326980Y333380D01*
X325880D01*
X325680Y333400D01*
X325300D01*
X325180Y333420D01*
X325160D01*
X325140Y333440D01*
X325040Y333460D01*
X324900Y333540D01*
X324760Y333660D01*
Y333680D01*
X324740Y333700D01*
X324660Y333800D01*
X324580Y333940D01*
X324520Y334080D01*
Y334100D01*
Y334120D01*
X324500Y334180D01*
Y334260D01*
Y334360D01*
Y334500D01*
Y334660D01*
Y334860D01*
Y334880D01*
Y334920D01*
X324520Y335000D01*
Y335100D01*
X324540Y335220D01*
Y335360D01*
X324600Y335680D01*
X324660Y336020D01*
X324740Y336380D01*
X324840Y336700D01*
X324980Y336980D01*
X325320Y337720D01*
Y337740D01*
X325360Y337780D01*
X325400Y337860D01*
X325440Y337940D01*
X325540Y338140D01*
X325640Y338340D01*
X326120Y339080D01*
X326140Y339120D01*
X326200Y339220D01*
X326280Y339360D01*
X326380Y339560D01*
X326460Y339780D01*
X326540Y340020D01*
X326600Y340260D01*
X326620Y340520D01*
Y340540D01*
Y340560D01*
X326640Y340680D01*
X326680Y340840D01*
X326740Y341000D01*
Y341020D01*
X326780Y341080D01*
X326800Y341160D01*
X326860Y341320D01*
X327000Y341740D01*
Y341760D01*
X327020Y341780D01*
X327040Y341900D01*
X327120Y342080D01*
X327240Y342320D01*
Y342340D01*
X327280Y342380D01*
X327320Y342460D01*
X327360Y342540D01*
X327500Y342760D01*
X327640Y343000D01*
X327660Y343040D01*
X327740Y343140D01*
X327840Y343300D01*
X327940Y343480D01*
X328080Y343700D01*
X328180Y343920D01*
X328280Y344120D01*
X328360Y344320D01*
Y344340D01*
X328380Y344420D01*
X328400Y344540D01*
X328440Y344720D01*
X328460Y344940D01*
X328500Y345220D01*
X328520Y345560D01*
X328540Y345960D01*
Y345980D01*
Y346000D01*
Y346120D01*
X328560Y346280D01*
Y346480D01*
X328580Y346680D01*
X328600Y346880D01*
Y347080D01*
X328620Y347220D01*
Y347240D01*
X328640Y347280D01*
X328680Y347420D01*
X328740Y347580D01*
X328840Y347720D01*
X328860Y347740D01*
X328880Y347780D01*
X328940Y347840D01*
X329000Y347940D01*
X329060Y348060D01*
X329160Y348220D01*
X329240Y348380D01*
X329340Y348580D01*
X329360Y348600D01*
X329380Y348680D01*
X329440Y348800D01*
X329500Y348960D01*
X329580Y349140D01*
X329660Y349340D01*
X329820Y349820D01*
Y349840D01*
X329840Y349880D01*
X329880Y349960D01*
X329920Y350040D01*
X330040Y350260D01*
X330200Y350540D01*
X330420Y350800D01*
X330680Y351020D01*
X330840Y351100D01*
X331000Y351180D01*
X331180Y351220D01*
X331380Y351240D01*
X331440D01*
X331560Y351260D01*
X331700Y351240D01*
D02*
G37*
%LPC*%
G36*
X358960Y345840D02*
X357940Y345800D01*
X357840D01*
X357720Y345780D01*
X357560Y345760D01*
X357380Y345740D01*
X357160Y345720D01*
X356920Y345680D01*
X356680Y345640D01*
X356140Y345520D01*
X355600Y345380D01*
X355340Y345280D01*
X355100Y345160D01*
X354900Y345040D01*
X354700Y344900D01*
X354680Y344880D01*
X354640Y344860D01*
X354540Y344800D01*
X354400Y344760D01*
X354360D01*
X354260Y344720D01*
X354120Y344680D01*
X353920Y344640D01*
X353880D01*
X353820Y344620D01*
X353740Y344600D01*
X353540Y344560D01*
X353300Y344500D01*
X353280D01*
X353240Y344480D01*
X353180Y344460D01*
X353120Y344440D01*
X352940Y344360D01*
X352760Y344280D01*
X351580Y343820D01*
X351080Y343580D01*
X351060D01*
X351040Y343560D01*
X350920Y343500D01*
X350740Y343440D01*
X350560Y343360D01*
X350520Y343340D01*
X350420Y343320D01*
X350320Y343280D01*
X350220Y343260D01*
X350200D01*
X350180Y343240D01*
X350120Y343220D01*
X350020Y343180D01*
X349920Y343100D01*
X349760Y343000D01*
X349580Y342860D01*
X349380Y342680D01*
X349360Y342660D01*
X349280Y342600D01*
X349180Y342480D01*
X349060Y342360D01*
X348780Y342060D01*
X348660Y341900D01*
X348540Y341740D01*
X348520Y341720D01*
X348480Y341660D01*
X348400Y341560D01*
X348280Y341400D01*
X348080Y341180D01*
X347960Y341040D01*
X347820Y340880D01*
X347660Y340680D01*
X347460Y340480D01*
X347260Y340260D01*
X347020Y340000D01*
X347000Y339980D01*
X346960Y339940D01*
X346900Y339860D01*
X346800Y339760D01*
X346680Y339640D01*
X346540Y339480D01*
X346380Y339320D01*
X346220Y339120D01*
X345820Y338700D01*
X345380Y338240D01*
X344920Y337740D01*
X344440Y337240D01*
X343620Y336340D01*
X343920Y336240D01*
X343940D01*
X343980Y336220D01*
X344040Y336200D01*
X344100Y336180D01*
X344200Y336160D01*
X344320Y336140D01*
X344480Y336120D01*
X344660Y336080D01*
X344860Y336040D01*
X345120Y336000D01*
X345400Y335980D01*
X345740Y335940D01*
X346120Y335880D01*
X346540Y335840D01*
X347000Y335800D01*
X347900Y335720D01*
X347980D01*
X348060Y335700D01*
X348160D01*
X348400Y335660D01*
X348500Y335640D01*
X348600Y335620D01*
X348640D01*
X348700Y335600D01*
X348780Y335580D01*
X348980Y335560D01*
X349240Y335520D01*
X349500D01*
X349740Y335500D01*
X350020D01*
X350760Y335460D01*
X350820D01*
X350880Y335440D01*
X350960D01*
X351120Y335420D01*
X351280D01*
X351320Y335400D01*
X351460Y335360D01*
X351620Y335340D01*
X351760D01*
X351820Y335380D01*
X351880Y335460D01*
X351940Y335560D01*
Y335580D01*
X351960Y335600D01*
X352000Y335720D01*
X352020Y335840D01*
X352040Y335960D01*
Y335980D01*
X352080Y336040D01*
X352140Y336120D01*
X352260Y336260D01*
X352340Y336320D01*
X352440Y336420D01*
X352580Y336520D01*
X352740Y336620D01*
X352920Y336740D01*
X353120Y336860D01*
X353360Y337000D01*
X353640Y337140D01*
X354480Y337560D01*
X354940Y337840D01*
X354960D01*
X354980Y337860D01*
X355120Y337940D01*
X355280Y338000D01*
X355460Y338040D01*
X355500D01*
X355580Y338060D01*
X355660Y338100D01*
X355760Y338140D01*
X355900Y338200D01*
X356060Y338280D01*
X356240Y338380D01*
X356260Y338400D01*
X356340Y338440D01*
X356440Y338500D01*
X356580Y338600D01*
X356740Y338720D01*
X356920Y338860D01*
X357120Y339020D01*
X357320Y339200D01*
X357800Y339600D01*
X357820Y339620D01*
X357900Y339680D01*
X357980Y339720D01*
X358040Y339740D01*
X358060D01*
X358100Y339760D01*
X358180Y339800D01*
X358300Y339860D01*
X358760Y340140D01*
X359440Y340520D01*
X359400Y342880D01*
Y342900D01*
Y342940D01*
Y343020D01*
Y343120D01*
Y343240D01*
X359380Y343380D01*
Y343700D01*
X359360Y344040D01*
Y344380D01*
X359340Y344680D01*
X359320Y344800D01*
Y344900D01*
Y344920D01*
Y344980D01*
X359300Y345080D01*
X359280Y345180D01*
X359240Y345380D01*
X359200Y345460D01*
X359160Y345520D01*
X358960Y345840D01*
D02*
G37*
G36*
X330760Y347240D02*
X330520Y347020D01*
X330500Y347000D01*
X330440Y346920D01*
X330360Y346780D01*
X330320Y346580D01*
Y346560D01*
Y346520D01*
Y346440D01*
X330300Y346320D01*
Y346160D01*
X330280Y345940D01*
Y345700D01*
X330260Y345380D01*
Y345360D01*
Y345340D01*
Y345280D01*
X330240Y345200D01*
X330220Y345020D01*
X330200Y344780D01*
X330180Y344500D01*
X330140Y344240D01*
X330100Y343960D01*
X330040Y343720D01*
Y343700D01*
X330020Y343620D01*
X329980Y343520D01*
X329940Y343380D01*
X329800Y343080D01*
X329720Y342940D01*
X329620Y342800D01*
X329600Y342780D01*
X329540Y342700D01*
X329460Y342580D01*
X329360Y342400D01*
X329220Y342180D01*
X329080Y341920D01*
X328920Y341600D01*
X328760Y341260D01*
Y341240D01*
X328740Y341220D01*
X328700Y341100D01*
X328620Y340920D01*
X328560Y340700D01*
X328480Y340460D01*
X328400Y340200D01*
X328360Y339940D01*
X328340Y339700D01*
Y339680D01*
X328320Y339600D01*
X328280Y339460D01*
X328200Y339260D01*
Y339240D01*
X328180Y339200D01*
X328140Y339140D01*
X328120Y339080D01*
X328020Y338880D01*
X327900Y338660D01*
Y338640D01*
X327880Y338620D01*
X327840Y338560D01*
X327800Y338480D01*
X327700Y338300D01*
X327580Y338060D01*
X327420Y337760D01*
X327260Y337460D01*
X327100Y337140D01*
X326940Y336840D01*
X326920Y336800D01*
X326880Y336720D01*
X326800Y336580D01*
X326740Y336400D01*
X326560Y336040D01*
X326500Y335880D01*
X326460Y335760D01*
X326340Y335300D01*
Y335280D01*
Y335240D01*
X326400Y335180D01*
X326440Y335160D01*
X326520Y335140D01*
X326560D01*
X326640Y335120D01*
X326720D01*
X326860Y335100D01*
X327020D01*
X327240Y335080D01*
X327500Y335060D01*
X327620D01*
X327760Y335040D01*
X327920D01*
X328260Y335000D01*
X328420Y334980D01*
X328560Y334960D01*
X328580D01*
X328620Y334940D01*
X328680D01*
X328740Y334920D01*
X328920Y334860D01*
X329100Y334760D01*
X329120D01*
X329140Y334740D01*
X329240Y334680D01*
X329420Y334600D01*
X329620Y334480D01*
X329640D01*
X329680Y334460D01*
X329740Y334420D01*
X329820Y334400D01*
X330020Y334320D01*
X330260Y334240D01*
X331260Y333840D01*
X331280D01*
X331320Y333820D01*
X331380Y333800D01*
X331460Y333780D01*
X331640Y333720D01*
X331860Y333660D01*
X331880Y333640D01*
X331960Y333600D01*
X332080Y333520D01*
X332240Y333420D01*
X333100Y332880D01*
X333120D01*
X333140Y332840D01*
X333280Y332760D01*
X333440Y332640D01*
X333620Y332520D01*
X333640Y332500D01*
X333680Y332460D01*
X333760Y332420D01*
X333880Y332340D01*
X333920Y332320D01*
X334000Y332280D01*
X334120Y332240D01*
X334260Y332180D01*
X334300D01*
X334380Y332140D01*
X334500Y332080D01*
X334660Y332000D01*
X334680D01*
X334700Y331980D01*
X334800Y331920D01*
X334940Y331820D01*
X335060Y331700D01*
X335080Y331680D01*
X335100Y331660D01*
X335220Y331540D01*
X335380Y331420D01*
X335440Y331360D01*
X335500Y331340D01*
X335520D01*
X335560Y331320D01*
X335620Y331280D01*
X335700Y331240D01*
X335800Y331180D01*
X335920Y331080D01*
X336080Y330960D01*
X336120Y330940D01*
X336220Y330860D01*
X336360Y330740D01*
X336560Y330580D01*
X336800Y330420D01*
X337080Y330220D01*
X337380Y330040D01*
X337700Y329840D01*
X337720D01*
X337740Y329820D01*
X337840Y329760D01*
X338000Y329700D01*
X338160Y329600D01*
X338360Y329520D01*
X338540Y329460D01*
X338700Y329400D01*
X338800D01*
X338820Y329420D01*
X338880Y329480D01*
X338980Y329600D01*
X339120Y329740D01*
X339740Y330460D01*
X339760Y330480D01*
X339780Y330500D01*
X339880Y330620D01*
X339980Y330780D01*
X340080Y330940D01*
Y330960D01*
X340100Y330980D01*
X340140Y331080D01*
X340180Y331260D01*
X340220Y331460D01*
Y331480D01*
Y331500D01*
X340240Y331560D01*
X340260Y331640D01*
X340300Y331820D01*
X340400Y332040D01*
X340520Y332240D01*
X340680Y332440D01*
X340900Y332580D01*
X341040Y332620D01*
X341180Y332640D01*
X341220D01*
X341360Y332620D01*
X341520Y332540D01*
X341620Y332500D01*
X341700Y332420D01*
X341780Y332340D01*
X341860Y332220D01*
X341940Y332080D01*
X341980Y331920D01*
X342020Y331720D01*
Y331480D01*
X342000Y331220D01*
X341940Y330920D01*
Y330900D01*
X341920Y330840D01*
X341900Y330760D01*
X341880Y330640D01*
X341780Y330380D01*
X341660Y330100D01*
Y330080D01*
X341620Y330040D01*
X341560Y329960D01*
X341500Y329840D01*
X341400Y329720D01*
X341260Y329560D01*
X341100Y329360D01*
X340920Y329160D01*
X340260Y328380D01*
X340520Y328340D01*
X340540D01*
X340640Y328300D01*
X340760Y328260D01*
X340920Y328180D01*
X341460Y327960D01*
X341480D01*
X341500Y327940D01*
X341640Y327880D01*
X341820Y327800D01*
X342020Y327720D01*
X342040D01*
X342080Y327700D01*
X342200Y327660D01*
X342340Y327620D01*
X342480Y327600D01*
X342500D01*
X342540Y327580D01*
X342600Y327560D01*
X342700Y327520D01*
X342860Y327440D01*
X342960Y327380D01*
X343020Y327320D01*
X343040Y327300D01*
X343120Y327240D01*
X343240Y327160D01*
X343380Y327100D01*
X343760Y326900D01*
X343780D01*
X343800Y326880D01*
X343860Y326840D01*
X343940Y326800D01*
X344120Y326700D01*
X344340Y326600D01*
X344360D01*
X344400Y326580D01*
X344520Y326540D01*
X344680Y326480D01*
X344820Y326460D01*
X344880D01*
X344960Y326440D01*
X345100Y326400D01*
X345260Y326340D01*
X345500Y326240D01*
X345780Y326120D01*
X346140Y325960D01*
X346160D01*
X346200Y325940D01*
X346260Y325920D01*
X346340Y325900D01*
X346560Y325820D01*
X346820Y325760D01*
X346860D01*
X346940Y325740D01*
X347040Y325760D01*
X347100Y325800D01*
X347160Y325860D01*
X347200Y325900D01*
X347240Y325960D01*
X347300Y326040D01*
X347380Y326160D01*
X347500Y326320D01*
X347640Y326520D01*
X347800Y326780D01*
X347820Y326800D01*
X347840Y326860D01*
X347880Y326940D01*
X347940Y327040D01*
X348020Y327180D01*
X348100Y327340D01*
X348260Y327700D01*
X348440Y328100D01*
X348600Y328520D01*
X348700Y328920D01*
X348740Y329100D01*
X348760Y329280D01*
Y329300D01*
Y329320D01*
X348780Y329400D01*
X348800Y329500D01*
X348860Y329580D01*
X348880Y329600D01*
X348920Y329640D01*
X348940Y329720D01*
X348960Y329820D01*
Y329840D01*
X348980Y329860D01*
X349020Y329960D01*
X349100Y330120D01*
X349240Y330280D01*
X349260Y330300D01*
X349280Y330320D01*
X349420Y330400D01*
X349600Y330460D01*
X349700Y330500D01*
X349860D01*
X349960Y330480D01*
X350100Y330440D01*
X350260Y330380D01*
X350400Y330260D01*
X350540Y330080D01*
X350600Y329960D01*
X350640Y329820D01*
X350680Y329660D01*
Y329480D01*
Y329460D01*
Y329440D01*
Y329340D01*
X350660Y329200D01*
X350640Y329060D01*
Y329040D01*
X350620Y328960D01*
X350580Y328880D01*
X350540Y328820D01*
Y328800D01*
X350500Y328760D01*
Y328700D01*
X350480Y328640D01*
X350460Y328540D01*
Y328420D01*
Y328400D01*
Y328360D01*
X350440Y328240D01*
X350400Y328080D01*
X350380Y328020D01*
X350340Y327980D01*
X350320Y327960D01*
X350300Y327920D01*
X350280Y327860D01*
X350260Y327740D01*
Y327700D01*
X350240Y327600D01*
X350200Y327440D01*
X350100Y327200D01*
Y327180D01*
X350080Y327140D01*
X350040Y327080D01*
X350000Y327000D01*
X349880Y326780D01*
X349740Y326540D01*
X349160Y325600D01*
Y325580D01*
X349120Y325540D01*
X349080Y325460D01*
X349040Y325380D01*
X348940Y325180D01*
X348900Y325100D01*
X348860Y325020D01*
Y325000D01*
Y324940D01*
X348880Y324880D01*
X348920Y324860D01*
X348960Y324840D01*
X349000D01*
X349080Y324800D01*
X349240Y324740D01*
X349460Y324620D01*
X349480D01*
X349520Y324600D01*
X349580Y324560D01*
X349660Y324540D01*
X349840Y324460D01*
X349980Y324440D01*
X350000D01*
X350040Y324420D01*
X350120D01*
X350240Y324380D01*
X350400Y324340D01*
X350600Y324280D01*
X350860Y324180D01*
X351180Y324080D01*
X351200D01*
X351220Y324060D01*
X351340Y324020D01*
X351520Y323980D01*
X351740Y323900D01*
X351980Y323800D01*
X352240Y323700D01*
X352500Y323600D01*
X352760Y323500D01*
X352780D01*
X352800Y323480D01*
X352920Y323400D01*
X353080Y323300D01*
X353260Y323200D01*
X353280D01*
X353300Y323180D01*
X353400Y323120D01*
X353500Y323040D01*
X353580Y322960D01*
X353600D01*
X353620Y322920D01*
X353720Y322860D01*
X353840Y322780D01*
X353980Y322740D01*
X354020D01*
X354080Y322720D01*
X354160Y322680D01*
X354240Y322620D01*
X354260Y322600D01*
X354320Y322580D01*
X354440Y322540D01*
X354520Y322520D01*
X354720D01*
X354820Y322500D01*
X354980Y322460D01*
X355000D01*
X355020Y322440D01*
X355120Y322420D01*
X355280Y322360D01*
X355440Y322300D01*
X355460D01*
X355480Y322280D01*
X355600Y322240D01*
X355760Y322200D01*
X355980Y322140D01*
X356040D01*
X356100Y322120D01*
X356180D01*
X356360Y322100D01*
X356720D01*
X356820Y322080D01*
X357060Y322060D01*
X357160Y322020D01*
X357220Y321980D01*
X357260Y321960D01*
X357300Y321940D01*
X357380Y321900D01*
X357480Y321880D01*
X357620Y321840D01*
X357800Y321800D01*
X358020Y321760D01*
X358060D01*
X358140Y321740D01*
X358260Y321720D01*
X358440D01*
X358640Y321700D01*
X358880Y321680D01*
X359400Y321660D01*
X359620D01*
X359820Y321640D01*
X360060Y321620D01*
X360120D01*
X360260Y321600D01*
X360420Y321560D01*
X360560Y321520D01*
X360600D01*
X360680Y321480D01*
X360840Y321440D01*
X361080Y321400D01*
X361140D01*
X361220Y321380D01*
X361320D01*
X361440Y321360D01*
X361580D01*
X361900Y321340D01*
X362800D01*
Y324660D01*
Y324680D01*
Y324760D01*
Y324860D01*
Y325000D01*
Y325160D01*
Y325360D01*
Y325780D01*
Y326260D01*
Y326720D01*
X362780Y326920D01*
Y327120D01*
Y327300D01*
Y327440D01*
Y327480D01*
Y327560D01*
X362760Y327660D01*
Y327800D01*
X362740Y327920D01*
X362720Y328040D01*
X362680Y328120D01*
X362640Y328140D01*
X362620Y328160D01*
X362580Y328240D01*
X362520Y328360D01*
X362480Y328480D01*
X362460Y328520D01*
X362440Y328580D01*
X362380Y328640D01*
X362300Y328760D01*
X362180Y328900D01*
X362020Y329060D01*
X361820Y329280D01*
X361800Y329300D01*
X361720Y329380D01*
X361600Y329500D01*
X361460Y329640D01*
X361300Y329800D01*
X361120Y329960D01*
X360940Y330120D01*
X360760Y330260D01*
X360320Y330520D01*
X359940Y330880D01*
X359920Y330900D01*
X359880Y330920D01*
X359800Y330980D01*
X359700Y331060D01*
X359560Y331140D01*
X359380Y331240D01*
X359180Y331340D01*
X358940Y331440D01*
X358920Y331460D01*
X358820Y331480D01*
X358700Y331540D01*
X358520Y331600D01*
X358320Y331680D01*
X358080Y331740D01*
X357600Y331860D01*
X357000Y332020D01*
X356340Y332240D01*
X356320D01*
X356280Y332260D01*
X356240Y332280D01*
X356160Y332320D01*
X355960Y332380D01*
X355760Y332440D01*
X355740D01*
X355720Y332460D01*
X355600Y332480D01*
X355480Y332500D01*
X355360Y332520D01*
X355340D01*
X355280Y332540D01*
X355180Y332560D01*
X355040Y332600D01*
X355000Y332620D01*
X354900Y332660D01*
X354760Y332720D01*
X354580Y332800D01*
X354540Y332820D01*
X354480Y332840D01*
X354420Y332880D01*
X354220Y332940D01*
X353940Y333020D01*
X353920D01*
X353880Y333040D01*
X353800Y333060D01*
X353680Y333100D01*
X353560Y333120D01*
X353420Y333160D01*
X353100Y333220D01*
X352120Y333380D01*
X351180Y333580D01*
X351160D01*
X351120Y333600D01*
X351040Y333620D01*
X350920Y333640D01*
X350800Y333680D01*
X350640Y333700D01*
X350300Y333760D01*
X350280D01*
X350220Y333780D01*
X350120D01*
X350020Y333800D01*
X349740Y333820D01*
X348960D01*
X348660Y333840D01*
X348600D01*
X348520Y333860D01*
X348420D01*
X348220Y333900D01*
X348000Y333920D01*
X347960D01*
X347900Y333940D01*
X347820D01*
X347720Y333960D01*
X347600Y333980D01*
X347440D01*
X347280Y334000D01*
X346380Y334120D01*
X346300D01*
X346220Y334140D01*
X346100D01*
X345960Y334160D01*
X345800Y334180D01*
X345440Y334220D01*
X345040Y334260D01*
X344640Y334320D01*
X344260Y334360D01*
X344080Y334400D01*
X343920Y334420D01*
X343880D01*
X343800Y334440D01*
X343660Y334480D01*
X343520Y334500D01*
X343360Y334560D01*
X343200Y334600D01*
X343080Y334640D01*
X343000Y334700D01*
X342980Y334720D01*
X342920Y334780D01*
X342840Y334840D01*
X342740Y334880D01*
X342720D01*
X342680Y334900D01*
X342640Y334920D01*
X342560Y334960D01*
X342480Y335020D01*
X342360Y335100D01*
X342200Y335200D01*
X342180Y335220D01*
X342140Y335260D01*
X342060Y335300D01*
X341960Y335380D01*
X341740Y335560D01*
X341520Y335740D01*
X341500Y335760D01*
X341480Y335780D01*
X341380Y335880D01*
X341240Y335960D01*
X341180Y336000D01*
X341120Y336020D01*
X341100D01*
X341040Y336040D01*
X340940Y336080D01*
X340800Y336120D01*
X340440Y336280D01*
X339780Y336660D01*
X339740Y336680D01*
X339660Y336720D01*
X339520Y336800D01*
X339360Y336900D01*
X339160Y337000D01*
X338940Y337100D01*
X338480Y337320D01*
X338460Y337340D01*
X338380Y337360D01*
X338280Y337420D01*
X338160Y337460D01*
X337920Y337580D01*
X337800Y337620D01*
X337720Y337640D01*
X337700D01*
X337620Y337660D01*
X337500Y337720D01*
X337320Y337820D01*
X337300D01*
X337280Y337860D01*
X337220Y337900D01*
X337140Y337960D01*
X336960Y338100D01*
X336740Y338300D01*
X336720Y338320D01*
X336660Y338380D01*
X336560Y338460D01*
X336460Y338560D01*
X336200Y338740D01*
X336080Y338820D01*
X335980Y338880D01*
X335940Y338900D01*
X335880Y338920D01*
X335820Y338940D01*
X335720Y338980D01*
X335600Y339000D01*
X335440Y339020D01*
X335280Y339040D01*
X335200D01*
X335120Y339060D01*
X335020Y339080D01*
X334760Y339120D01*
X334520Y339200D01*
X334500D01*
X334480Y339220D01*
X334420Y339260D01*
X334340Y339300D01*
X334120Y339400D01*
X333840Y339560D01*
X333800Y339580D01*
X333720Y339620D01*
X333600Y339700D01*
X333440Y339780D01*
X333080Y339960D01*
X332900Y340020D01*
X332740Y340080D01*
X332720D01*
X332680Y340100D01*
X332440D01*
X332340Y340080D01*
X332240Y340020D01*
X332160Y339960D01*
X332120Y339920D01*
X332020Y339860D01*
X331860Y339780D01*
X331740Y339760D01*
X331620Y339740D01*
X331560D01*
X331500Y339760D01*
X331420Y339780D01*
X331220Y339840D01*
X331120Y339900D01*
X331040Y339980D01*
X330760Y340220D01*
Y347240D01*
D02*
G37*
G36*
X338900Y326920D02*
X338860D01*
X338740Y326900D01*
X338620Y326840D01*
X338560Y326800D01*
X338540Y326720D01*
Y326680D01*
X338500Y326580D01*
X338440Y326460D01*
X338340Y326320D01*
X338320Y326300D01*
X338280Y326240D01*
X338220Y326160D01*
X338140Y326040D01*
X337980Y325720D01*
Y325700D01*
X337960Y325660D01*
X337920Y325580D01*
X337880Y325500D01*
X337760Y325300D01*
X337640Y325080D01*
Y325060D01*
X337620Y325040D01*
X337580Y324980D01*
X337520Y324900D01*
X337380Y324700D01*
X337160Y324440D01*
X336780Y323960D01*
X336700Y320380D01*
X336660Y317840D01*
Y317820D01*
Y317800D01*
Y317660D01*
X336640Y317480D01*
Y317280D01*
X336620Y317060D01*
X336600Y316860D01*
X336560Y316700D01*
Y316660D01*
X336540Y316620D01*
Y316600D01*
Y316560D01*
X336560Y316520D01*
X336620Y316500D01*
X336700Y316480D01*
X336800Y316460D01*
X336980D01*
X337160Y316440D01*
X338060D01*
X338300Y316460D01*
X339740D01*
X339980Y316480D01*
X340260D01*
X340320Y316500D01*
X340420D01*
X340580Y316540D01*
X340640Y316580D01*
X340680Y316620D01*
X340700Y316640D01*
X340760Y316680D01*
X340840Y316740D01*
X340940Y316760D01*
X340960D01*
X341020Y316800D01*
X341120Y316880D01*
X341160Y316940D01*
X341220Y317020D01*
X341240Y317040D01*
X341300Y317120D01*
X341420Y317220D01*
X341500Y317300D01*
X341600Y317380D01*
X341620Y317400D01*
X341660Y317420D01*
X341720Y317480D01*
X341800Y317540D01*
X342000Y317720D01*
X342260Y317920D01*
X342280Y317940D01*
X342320Y317980D01*
X342400Y318040D01*
X342480Y318100D01*
X342700Y318300D01*
X342920Y318520D01*
X342940Y318540D01*
X342960Y318560D01*
X343080Y318680D01*
X343200Y318840D01*
X343260Y318900D01*
X343300Y318960D01*
Y318980D01*
X343320Y319020D01*
X343400Y319120D01*
X343460Y319260D01*
X343500Y319300D01*
X343540Y319340D01*
X343560Y319360D01*
X343620Y319420D01*
X343660Y319460D01*
X343700Y319540D01*
X343780Y319620D01*
X343860Y319740D01*
X343880Y319760D01*
X343900Y319800D01*
X343960Y319900D01*
X344060Y320020D01*
X344160Y320180D01*
X344300Y320400D01*
X344440Y320640D01*
X344620Y320920D01*
X345640Y322720D01*
Y322740D01*
X345660Y322760D01*
X345740Y322880D01*
X345820Y323000D01*
X345920Y323100D01*
X345940Y323140D01*
X346000Y323220D01*
X346060Y323320D01*
X346100Y323440D01*
Y323460D01*
X346120Y323520D01*
X346180Y323600D01*
X346260Y323700D01*
X346280D01*
X346300Y323720D01*
X346380Y323800D01*
X346400Y323840D01*
X346380Y323900D01*
X346320Y323960D01*
X346220Y324020D01*
X346200D01*
X346140Y324060D01*
X346020Y324100D01*
X345940Y324140D01*
X345840Y324180D01*
X345720Y324220D01*
X345560Y324280D01*
X345400Y324340D01*
X345200Y324400D01*
X344980Y324480D01*
X344740Y324560D01*
X344460Y324640D01*
X344160Y324740D01*
X344140D01*
X344100Y324760D01*
X344020Y324780D01*
X343900Y324820D01*
X343780Y324880D01*
X343640Y324920D01*
X343320Y325060D01*
X343300D01*
X343260Y325100D01*
X343180Y325140D01*
X343080Y325180D01*
X342860Y325280D01*
X342660Y325400D01*
X342620Y325420D01*
X342520Y325500D01*
X342360Y325600D01*
X342180Y325700D01*
X342140Y325720D01*
X342040Y325780D01*
X341920Y325840D01*
X341800Y325880D01*
X341780D01*
X341700Y325920D01*
X341580Y325940D01*
X341420Y326000D01*
X340960Y326200D01*
X340940Y326220D01*
X340880Y326240D01*
X340760Y326300D01*
X340620Y326360D01*
X340460Y326440D01*
X340260Y326520D01*
X339840Y326680D01*
X339820Y326700D01*
X339740Y326720D01*
X339640Y326760D01*
X339500Y326800D01*
X339200Y326880D01*
X339040Y326900D01*
X338900Y326920D01*
D02*
G37*
%LPD*%
D10*
X556153Y224000D02*
G03*
X556153Y224000I-31496J0D01*
G01*
X457815Y255500D02*
X477500D01*
X457815Y233500D02*
X477500D01*
X483500Y206000D02*
Y225685D01*
X461500Y206000D02*
Y225685D01*
X515000Y321498D02*
Y315500D01*
X518999D01*
X520998D02*
X522997D01*
X521998D01*
Y321498D01*
X520998Y320498D01*
D11*
X244303Y257524D02*
G03*
X241567Y254787I0J-2736D01*
G01*
X262433Y257543D02*
G03*
X265169Y260279I0J2736D01*
G01*
X241567Y190496D02*
G03*
X244303Y187760I2736J0D01*
G01*
X265169Y185004D02*
G03*
X262433Y187740I-2736J0D01*
G01*
X378713Y209878D02*
X380287D01*
X378713Y207122D02*
X380287D01*
X411256Y344173D02*
Y348898D01*
X505744Y344173D02*
Y348898D01*
X411256Y261102D02*
Y265827D01*
X505744Y261102D02*
Y265827D01*
X411256Y348898D02*
X505744D01*
X411256Y261102D02*
X505744D01*
X413425Y192547D02*
X416575D01*
X413425Y198453D02*
X416575D01*
X324547Y218425D02*
Y221575D01*
X330453Y218425D02*
Y221575D01*
X379878Y281713D02*
Y283287D01*
X377122Y281713D02*
Y283287D01*
X244323Y257543D02*
X262433D01*
X244323Y187740D02*
X262433D01*
X277000Y195083D02*
X314008D01*
X265189Y162012D02*
Y283272D01*
X277000Y250201D02*
X314008D01*
X314008Y162012D02*
Y283272D01*
X241567Y190496D02*
Y254787D01*
X265189Y162012D02*
X314008D01*
X265189Y283272D02*
X314008D01*
X277000Y162012D02*
Y283272D01*
X339453Y218425D02*
Y221575D01*
X333547Y218425D02*
Y221575D01*
X340953Y245425D02*
Y248575D01*
X335047Y245425D02*
Y248575D01*
X435453Y199925D02*
Y203075D01*
X429547Y199925D02*
Y203075D01*
X416713Y213122D02*
X418287D01*
X416713Y215878D02*
X418287D01*
X444953Y199925D02*
Y203075D01*
X439047Y199925D02*
Y203075D01*
X454453Y199925D02*
Y203075D01*
X448547Y199925D02*
Y203075D01*
X431713Y233378D02*
X433287D01*
X431713Y230622D02*
X433287D01*
X417547Y242425D02*
Y245575D01*
X423453Y242425D02*
Y245575D01*
X382126Y273004D02*
X397874D01*
X382126Y260996D02*
X397874D01*
X378713Y199122D02*
X380287D01*
X378713Y201878D02*
X380287D01*
X350122Y235713D02*
Y237287D01*
X352878Y235713D02*
Y237287D01*
X352122Y248713D02*
Y250287D01*
X354878Y248713D02*
Y250287D01*
X361878Y248760D02*
Y250335D01*
X359122Y248760D02*
Y250335D01*
D12*
X378422Y249957D02*
G03*
X378422Y249957I-300J0D01*
G01*
X332000Y233000D02*
Y254500D01*
X323000Y233000D02*
X332000D01*
X323000D02*
Y254500D01*
X332000D01*
X355560Y263850D02*
X371650D01*
X329350D02*
X345440D01*
X329350D02*
Y306150D01*
X355560D02*
X371650D01*
Y263850D02*
Y306150D01*
X329350D02*
X345440D01*
X401004Y306519D02*
Y308248D01*
X377996Y295752D02*
Y297481D01*
Y306519D02*
Y308248D01*
X401004D01*
Y295752D02*
Y297481D01*
X377996Y295752D02*
X401004D01*
X374000Y299500D02*
Y304500D01*
X382605Y248811D02*
X397639D01*
X382605Y217102D02*
X397639D01*
X380867Y337834D02*
X381400Y337301D01*
X382467D01*
X383000Y337834D01*
Y339967D01*
X382467Y340500D01*
X381400D01*
X380867Y339967D01*
Y338900D01*
X381934D01*
X379801Y340500D02*
Y337301D01*
X377668Y340500D01*
Y337301D01*
X376602D02*
Y340500D01*
X375003D01*
X374469Y339967D01*
Y337834D01*
X375003Y337301D01*
X376602D01*
X377000Y212000D02*
Y215199D01*
X378600D01*
X379133Y214666D01*
Y213599D01*
X378600Y213066D01*
X377000D01*
X378066D02*
X379133Y212000D01*
X380199Y212533D02*
X380732Y212000D01*
X381799D01*
X382332Y212533D01*
Y214666D01*
X381799Y215199D01*
X380732D01*
X380199Y214666D01*
Y214133D01*
X380732Y213599D01*
X382332D01*
X401367Y337301D02*
X403500D01*
Y340500D01*
X401367D01*
X403500Y338900D02*
X402434D01*
X400301Y337301D02*
X398168Y340500D01*
Y337301D02*
X400301Y340500D01*
X397102Y337301D02*
X394969D01*
X396036D01*
Y340500D01*
X393903Y337301D02*
Y339434D01*
X392837Y340500D01*
X391770Y339434D01*
Y337301D01*
X388572Y337834D02*
X389105Y337301D01*
X390171D01*
X390704Y337834D01*
Y339967D01*
X390171Y340500D01*
X389105D01*
X388572Y339967D01*
X385372Y337834D02*
X385906Y337301D01*
X386972D01*
X387505Y337834D01*
Y339967D01*
X386972Y340500D01*
X385906D01*
X385372Y339967D01*
X540334Y289633D02*
X539801Y289100D01*
Y288033D01*
X540334Y287500D01*
X542467D01*
X543000Y288033D01*
Y289100D01*
X542467Y289633D01*
X541400D01*
Y288566D01*
X543000Y290699D02*
X539801D01*
X543000Y292832D01*
X539801D01*
Y293898D02*
X543000D01*
Y295497D01*
X542467Y296031D01*
X540334D01*
X539801Y295497D01*
Y293898D01*
X380633Y158666D02*
X380100Y159199D01*
X379033D01*
X378500Y158666D01*
Y156533D01*
X379033Y156000D01*
X380100D01*
X380633Y156533D01*
Y157599D01*
X379566D01*
X381699Y156000D02*
Y159199D01*
X383832Y156000D01*
Y159199D01*
X384898D02*
Y156000D01*
X386497D01*
X387031Y156533D01*
Y158666D01*
X386497Y159199D01*
X384898D01*
X323000Y256000D02*
Y258133D01*
X324066Y259199D01*
X325133Y258133D01*
Y256000D01*
Y257599D01*
X323000D01*
X357133Y214166D02*
X356599Y214699D01*
X355533D01*
X355000Y214166D01*
Y212033D01*
X355533Y211500D01*
X356599D01*
X357133Y212033D01*
Y213100D01*
X356066D01*
X358199Y211500D02*
Y214699D01*
X360332Y211500D01*
Y214699D01*
X361398D02*
Y211500D01*
X362997D01*
X363531Y212033D01*
Y214166D01*
X362997Y214699D01*
X361398D01*
X285301Y207322D02*
X285834Y206255D01*
X286900Y205189D01*
X287967D01*
X288500Y205722D01*
Y206788D01*
X287967Y207322D01*
X287434D01*
X286900Y206788D01*
Y205189D01*
X286967Y238689D02*
X287500Y239222D01*
Y240288D01*
X286967Y240822D01*
X284834D01*
X284301Y240288D01*
Y239222D01*
X284834Y238689D01*
X285367D01*
X285900Y239222D01*
Y240822D01*
X315801Y246133D02*
Y244000D01*
X317401D01*
X316867Y245066D01*
Y245600D01*
X317401Y246133D01*
X318467D01*
X319000Y245600D01*
Y244533D01*
X318467Y244000D01*
X320000Y192689D02*
Y193755D01*
Y193222D01*
X316801D01*
X317334Y192689D01*
X366000Y214699D02*
X367066D01*
X366533D01*
Y211500D01*
X366000D01*
X367066D01*
X368666D02*
Y214699D01*
X370798Y211500D01*
Y214699D01*
X371865D02*
X373997D01*
X372931D01*
Y211500D01*
X540834Y304633D02*
X540301Y304099D01*
Y303033D01*
X540834Y302500D01*
X541367D01*
X541900Y303033D01*
Y304099D01*
X542434Y304633D01*
X542967D01*
X543500Y304099D01*
Y303033D01*
X542967Y302500D01*
X540301Y305699D02*
X543500D01*
X542434Y306765D01*
X543500Y307832D01*
X540301D01*
X468633Y187666D02*
X468099Y188199D01*
X467033D01*
X466500Y187666D01*
Y185533D01*
X467033Y185000D01*
X468099D01*
X468633Y185533D01*
Y186600D01*
X467566D01*
X469699Y185000D02*
Y188199D01*
X471832Y185000D01*
Y188199D01*
X472898D02*
Y185000D01*
X474497D01*
X475031Y185533D01*
Y187666D01*
X474497Y188199D01*
X472898D01*
X514500Y187600D02*
X516633D01*
X515566Y188666D02*
Y186533D01*
X517699Y189199D02*
Y187066D01*
X518765Y186000D01*
X519832Y187066D01*
Y189199D01*
X520898D02*
Y186000D01*
X522497D01*
X523031Y186533D01*
Y187066D01*
X522497Y187600D01*
X520898D01*
X522497D01*
X523031Y188133D01*
Y188666D01*
X522497Y189199D01*
X520898D01*
X524097Y186000D02*
Y188133D01*
X525163Y189199D01*
X526230Y188133D01*
Y186000D01*
Y187600D01*
X524097D01*
X527296Y189199D02*
X529428D01*
X528362D01*
Y186000D01*
X530495Y189199D02*
X532627D01*
X531561D01*
Y186000D01*
X549000Y227099D02*
X551133D01*
X550066Y228166D02*
Y226033D01*
X409633Y204666D02*
X409099Y205199D01*
X408033D01*
X407500Y204666D01*
Y202533D01*
X408033Y202000D01*
X409099D01*
X409633Y202533D01*
X410699Y205199D02*
X412832D01*
Y204666D01*
X410699Y202533D01*
Y202000D01*
X327000Y259199D02*
Y256000D01*
X328600D01*
X329133Y256533D01*
Y258666D01*
X328600Y259199D01*
X327000D01*
X330199Y256000D02*
X331265D01*
X330732D01*
Y259199D01*
X330199Y258666D01*
X376700Y290053D02*
Y293252D01*
X378299D01*
X378833Y292719D01*
Y291652D01*
X378299Y291119D01*
X376700D01*
X377766D02*
X378833Y290053D01*
X382032Y293252D02*
X379899D01*
Y291652D01*
X380965Y292185D01*
X381499D01*
X382032Y291652D01*
Y290586D01*
X381499Y290053D01*
X380432D01*
X379899Y290586D01*
X374300Y314799D02*
Y311600D01*
X375900D01*
X376433Y312133D01*
Y314266D01*
X375900Y314799D01*
X374300D01*
X379632Y311600D02*
X377499D01*
X379632Y313733D01*
Y314266D01*
X379099Y314799D01*
X378032D01*
X377499Y314266D01*
X391633Y293166D02*
X391100Y293699D01*
X390033D01*
X389500Y293166D01*
Y291033D01*
X390033Y290500D01*
X391100D01*
X391633Y291033D01*
X394832Y290500D02*
X392699D01*
X394832Y292633D01*
Y293166D01*
X394299Y293699D01*
X393232D01*
X392699Y293166D01*
X395898Y290500D02*
X396964D01*
X396431D01*
Y293699D01*
X395898Y293166D01*
X319834Y219133D02*
X319301Y218600D01*
Y217533D01*
X319834Y217000D01*
X321967D01*
X322500Y217533D01*
Y218600D01*
X321967Y219133D01*
X319834Y220199D02*
X319301Y220732D01*
Y221798D01*
X319834Y222332D01*
X320367D01*
X320901Y221798D01*
X321434Y222332D01*
X321967D01*
X322500Y221798D01*
Y220732D01*
X321967Y220199D01*
X321434D01*
X320901Y220732D01*
X320367Y220199D01*
X319834D01*
X320901Y220732D02*
Y221798D01*
X345633Y258666D02*
X345099Y259199D01*
X344033D01*
X343500Y258666D01*
Y256533D01*
X344033Y256000D01*
X345099D01*
X345633Y256533D01*
X346699Y258666D02*
X347232Y259199D01*
X348299D01*
X348832Y258666D01*
Y258133D01*
X348299Y257599D01*
X347765D01*
X348299D01*
X348832Y257066D01*
Y256533D01*
X348299Y256000D01*
X347232D01*
X346699Y256533D01*
X457633Y228033D02*
Y230166D01*
X457099Y230699D01*
X456033D01*
X455500Y230166D01*
Y228033D01*
X456033Y227500D01*
X457099D01*
X456566Y228566D02*
X457633Y227500D01*
X457099D02*
X457633Y228033D01*
X460832Y227500D02*
X458699D01*
X460832Y229633D01*
Y230166D01*
X460298Y230699D01*
X459232D01*
X458699Y230166D01*
X453133Y222533D02*
Y224666D01*
X452599Y225199D01*
X451533D01*
X451000Y224666D01*
Y222533D01*
X451533Y222000D01*
X452599D01*
X452066Y223066D02*
X453133Y222000D01*
X452599D02*
X453133Y222533D01*
X454199Y222000D02*
X455265D01*
X454732D01*
Y225199D01*
X454199Y224666D01*
X521633Y239166D02*
X521100Y239699D01*
X520033D01*
X519500Y239166D01*
Y237033D01*
X520033Y236500D01*
X521100D01*
X521633Y237033D01*
X522699Y236500D02*
X523765D01*
X523232D01*
Y239699D01*
X522699Y239166D01*
X527497Y239699D02*
X525365D01*
Y238100D01*
X526431Y238633D01*
X526964D01*
X527497Y238100D01*
Y237033D01*
X526964Y236500D01*
X525898D01*
X525365Y237033D01*
X368666Y290867D02*
X369199Y291401D01*
Y292467D01*
X368666Y293000D01*
X366533D01*
X366000Y292467D01*
Y291401D01*
X366533Y290867D01*
X366000Y288201D02*
X369199D01*
X367600Y289801D01*
Y287668D01*
X344166Y220367D02*
X344699Y220901D01*
Y221967D01*
X344166Y222500D01*
X342033D01*
X341500Y221967D01*
Y220901D01*
X342033Y220367D01*
X344699Y217168D02*
X344166Y218235D01*
X343099Y219301D01*
X342033D01*
X341500Y218768D01*
Y217702D01*
X342033Y217168D01*
X342566D01*
X343099Y217702D01*
Y219301D01*
X337133Y259166D02*
X336599Y259699D01*
X335533D01*
X335000Y259166D01*
Y257033D01*
X335533Y256500D01*
X336599D01*
X337133Y257033D01*
X340332Y259699D02*
X338199D01*
Y258100D01*
X339265Y258633D01*
X339798D01*
X340332Y258100D01*
Y257033D01*
X339798Y256500D01*
X338732D01*
X338199Y257033D01*
X421000Y227000D02*
Y230199D01*
X422600D01*
X423133Y229666D01*
Y228600D01*
X422600Y228066D01*
X421000D01*
X422066D02*
X423133Y227000D01*
X426332Y230199D02*
X425265Y229666D01*
X424199Y228600D01*
Y227533D01*
X424732Y227000D01*
X425798D01*
X426332Y227533D01*
Y228066D01*
X425798Y228600D01*
X424199D01*
X416000Y207500D02*
Y210699D01*
X417599D01*
X418133Y210166D01*
Y209100D01*
X417599Y208566D01*
X416000D01*
X417066D02*
X418133Y207500D01*
X421332D02*
X419199D01*
X421332Y209633D01*
Y210166D01*
X420798Y210699D01*
X419732D01*
X419199Y210166D01*
X428633Y190166D02*
X428099Y190699D01*
X427033D01*
X426500Y190166D01*
Y188033D01*
X427033Y187500D01*
X428099D01*
X428633Y188033D01*
X431832Y187500D02*
X429699D01*
X431832Y189633D01*
Y190166D01*
X431298Y190699D01*
X430232D01*
X429699Y190166D01*
X432898D02*
X433431Y190699D01*
X434497D01*
X435031Y190166D01*
Y188033D01*
X434497Y187500D01*
X433431D01*
X432898Y188033D01*
Y190166D01*
X439633D02*
X439100Y190699D01*
X438033D01*
X437500Y190166D01*
Y188033D01*
X438033Y187500D01*
X439100D01*
X439633Y188033D01*
X440699Y187500D02*
X441765D01*
X441232D01*
Y190699D01*
X440699Y190166D01*
X443365Y188033D02*
X443898Y187500D01*
X444964D01*
X445497Y188033D01*
Y190166D01*
X444964Y190699D01*
X443898D01*
X443365Y190166D01*
Y189633D01*
X443898Y189100D01*
X445497D01*
X450133Y190166D02*
X449600Y190699D01*
X448533D01*
X448000Y190166D01*
Y188033D01*
X448533Y187500D01*
X449600D01*
X450133Y188033D01*
X451199Y187500D02*
X452265D01*
X451732D01*
Y190699D01*
X451199Y190166D01*
X453865D02*
X454398Y190699D01*
X455464D01*
X455997Y190166D01*
Y189633D01*
X455464Y189100D01*
X455997Y188566D01*
Y188033D01*
X455464Y187500D01*
X454398D01*
X453865Y188033D01*
Y188566D01*
X454398Y189100D01*
X453865Y189633D01*
Y190166D01*
X454398Y189100D02*
X455464D01*
X377500Y255199D02*
Y252533D01*
X378033Y252000D01*
X379099D01*
X379633Y252533D01*
Y255199D01*
X380699Y252000D02*
X381765D01*
X381232D01*
Y255199D01*
X380699Y254666D01*
X425834Y243133D02*
X425301Y242600D01*
Y241533D01*
X425834Y241000D01*
X427967D01*
X428500Y241533D01*
Y242600D01*
X427967Y243133D01*
X428500Y244199D02*
Y245265D01*
Y244732D01*
X425301D01*
X425834Y244199D01*
X425301Y246865D02*
Y248997D01*
X425834D01*
X427967Y246865D01*
X428500D01*
X285633Y289199D02*
X284566D01*
X285100D01*
Y286533D01*
X284566Y286000D01*
X284033D01*
X283500Y286533D01*
X286699Y286000D02*
X287765D01*
X287232D01*
Y289199D01*
X286699Y288666D01*
X388000Y275500D02*
Y278699D01*
X389599D01*
X390133Y278166D01*
Y277099D01*
X389599Y276566D01*
X388000D01*
X389066D02*
X390133Y275500D01*
X391199Y278166D02*
X391732Y278699D01*
X392798D01*
X393332Y278166D01*
Y277633D01*
X392798Y277099D01*
X392265D01*
X392798D01*
X393332Y276566D01*
Y276033D01*
X392798Y275500D01*
X391732D01*
X391199Y276033D01*
X358500Y256000D02*
Y259199D01*
X360100D01*
X360633Y258666D01*
Y257599D01*
X360100Y257066D01*
X358500D01*
X359566D02*
X360633Y256000D01*
X361699Y259199D02*
X363832D01*
Y258666D01*
X361699Y256533D01*
Y256000D01*
X351000D02*
Y259199D01*
X352600D01*
X353133Y258666D01*
Y257599D01*
X352600Y257066D01*
X351000D01*
X352066D02*
X353133Y256000D01*
X355799D02*
Y259199D01*
X354199Y257599D01*
X356332D01*
X347500Y234000D02*
X344301D01*
Y235599D01*
X344834Y236133D01*
X345901D01*
X346434Y235599D01*
Y234000D01*
Y235066D02*
X347500Y236133D01*
X344834Y237199D02*
X344301Y237732D01*
Y238798D01*
X344834Y239332D01*
X345367D01*
X345901Y238798D01*
X346434Y239332D01*
X346967D01*
X347500Y238798D01*
Y237732D01*
X346967Y237199D01*
X346434D01*
X345901Y237732D01*
X345367Y237199D01*
X344834D01*
X345901Y237732D02*
Y238798D01*
X377500Y194000D02*
Y197199D01*
X379099D01*
X379633Y196666D01*
Y195599D01*
X379099Y195066D01*
X377500D01*
X378566D02*
X379633Y194000D01*
X380699D02*
X381765D01*
X381232D01*
Y197199D01*
X380699Y196666D01*
X387633Y259166D02*
X387100Y259699D01*
X386033D01*
X385500Y259166D01*
Y257033D01*
X386033Y256500D01*
X387100D01*
X387633Y257033D01*
X388699Y256500D02*
X389765D01*
X389232D01*
Y259699D01*
X388699Y259166D01*
X393497Y256500D02*
X391365D01*
X393497Y258633D01*
Y259166D01*
X392964Y259699D01*
X391898D01*
X391365Y259166D01*
X433633Y222666D02*
X433100Y223199D01*
X432033D01*
X431500Y222666D01*
Y220533D01*
X432033Y220000D01*
X433100D01*
X433633Y220533D01*
X436832Y220000D02*
X434699D01*
X436832Y222133D01*
Y222666D01*
X436298Y223199D01*
X435232D01*
X434699Y222666D01*
X364133Y240166D02*
X363599Y240699D01*
X362533D01*
X362000Y240166D01*
Y238033D01*
X362533Y237500D01*
X363599D01*
X364133Y238033D01*
X365199Y237500D02*
X366265D01*
X365732D01*
Y240699D01*
X365199Y240166D01*
X369464Y237500D02*
Y240699D01*
X367865Y239100D01*
X369997D01*
X351633Y223166D02*
X351099Y223699D01*
X350033D01*
X349500Y223166D01*
Y221033D01*
X350033Y220500D01*
X351099D01*
X351633Y221033D01*
X352699Y220500D02*
X353765D01*
X353232D01*
Y223699D01*
X352699Y223166D01*
X357497Y223699D02*
X356431Y223166D01*
X355365Y222099D01*
Y221033D01*
X355898Y220500D01*
X356964D01*
X357497Y221033D01*
Y221566D01*
X356964Y222099D01*
X355365D01*
X364334Y244133D02*
X363801Y243600D01*
Y242533D01*
X364334Y242000D01*
X366467D01*
X367000Y242533D01*
Y243600D01*
X366467Y244133D01*
X367000Y245199D02*
Y246265D01*
Y245732D01*
X363801D01*
X364334Y245199D01*
Y247865D02*
X363801Y248398D01*
Y249464D01*
X364334Y249997D01*
X364867D01*
X365401Y249464D01*
Y248931D01*
Y249464D01*
X365934Y249997D01*
X366467D01*
X367000Y249464D01*
Y248398D01*
X366467Y247865D01*
X411133Y225666D02*
X410600Y226199D01*
X409533D01*
X409000Y225666D01*
Y223533D01*
X409533Y223000D01*
X410600D01*
X411133Y223533D01*
X412199Y223000D02*
X413265D01*
X412732D01*
Y226199D01*
X412199Y225666D01*
X414865Y223000D02*
X415931D01*
X415398D01*
Y226199D01*
X414865Y225666D01*
X412834Y248133D02*
X412301Y247600D01*
Y246533D01*
X412834Y246000D01*
X414967D01*
X415500Y246533D01*
Y247600D01*
X414967Y248133D01*
X415500Y249199D02*
Y250265D01*
Y249732D01*
X412301D01*
X412834Y249199D01*
M02*
