G04*
G04 #@! TF.GenerationSoftware,Altium Limited,Altium Designer,19.1.7 (138)*
G04*
G04 Layer_Color=8388736*
%FSLAX25Y25*%
%MOIN*%
G70*
G01*
G75*
%ADD13R,0.04343X0.03556*%
%ADD14R,0.05131X0.07493*%
%ADD15R,0.03556X0.04343*%
%ADD16R,0.07493X0.05131*%
%ADD17R,0.11587X0.13595*%
%ADD18R,0.06553X0.02181*%
%ADD19R,0.07690X0.03359*%
%ADD20R,0.04934X0.13595*%
%ADD21R,0.25600X0.50000*%
%ADD22R,0.12611X0.18800*%
%ADD23R,0.07099X0.03950*%
%ADD24R,0.18800X0.12611*%
%ADD25R,0.03950X0.07099*%
%ADD26R,0.03950X0.04343*%
%ADD27R,0.04343X0.03950*%
%ADD28R,0.06800X0.06800*%
%ADD29C,0.06800*%
%ADD30C,0.07887*%
%ADD31R,0.07887X0.07887*%
%ADD32R,0.07887X0.07887*%
%ADD33C,0.03500*%
%ADD34C,0.05800*%
D13*
X360500Y243047D02*
D03*
Y248953D02*
D03*
X435000Y247047D02*
D03*
Y252953D02*
D03*
X385500Y221453D02*
D03*
Y215547D02*
D03*
D14*
X415185Y214000D02*
D03*
X425815D02*
D03*
D15*
X424453Y231000D02*
D03*
X418547D02*
D03*
X433547Y242000D02*
D03*
X439453D02*
D03*
X336047Y261500D02*
D03*
X341953D02*
D03*
X354500Y255000D02*
D03*
X360405D02*
D03*
X357547Y236500D02*
D03*
X363453D02*
D03*
X357547Y228500D02*
D03*
X363453D02*
D03*
X357547Y220500D02*
D03*
X363453D02*
D03*
X357047Y290500D02*
D03*
X362953D02*
D03*
X362953Y283000D02*
D03*
X357047D02*
D03*
D16*
X435000Y224815D02*
D03*
Y214185D02*
D03*
X445000Y224815D02*
D03*
Y214185D02*
D03*
X427500Y256685D02*
D03*
Y267315D02*
D03*
D17*
X391622Y250957D02*
D03*
D18*
X402744Y265032D02*
D03*
Y262472D02*
D03*
Y259913D02*
D03*
Y257354D02*
D03*
Y254795D02*
D03*
Y252236D02*
D03*
Y249677D02*
D03*
Y247118D02*
D03*
Y244559D02*
D03*
Y242000D02*
D03*
Y239441D02*
D03*
Y236882D02*
D03*
X380500D02*
D03*
Y239441D02*
D03*
Y242000D02*
D03*
Y244559D02*
D03*
Y247118D02*
D03*
Y249677D02*
D03*
Y252236D02*
D03*
Y254795D02*
D03*
Y257354D02*
D03*
Y259913D02*
D03*
Y262472D02*
D03*
Y265032D02*
D03*
D19*
X381000Y342059D02*
D03*
Y325917D02*
D03*
D20*
X381083Y286500D02*
D03*
X403917D02*
D03*
D21*
X482700Y315500D02*
D03*
X422300D02*
D03*
D22*
X474000Y257000D02*
D03*
D23*
X480835Y249500D02*
D03*
Y254500D02*
D03*
Y259500D02*
D03*
Y264500D02*
D03*
X458000Y249500D02*
D03*
Y254500D02*
D03*
Y259500D02*
D03*
Y264500D02*
D03*
D24*
X462000Y221000D02*
D03*
D25*
X454500Y214165D02*
D03*
X459500D02*
D03*
X464500D02*
D03*
X469500D02*
D03*
X454500Y237000D02*
D03*
X459500D02*
D03*
X464500D02*
D03*
X469500D02*
D03*
D26*
X419244Y238500D02*
D03*
X424756D02*
D03*
X365744Y267500D02*
D03*
X371256D02*
D03*
X389744Y272500D02*
D03*
X395256D02*
D03*
X369744Y275500D02*
D03*
X375256D02*
D03*
X421047Y247118D02*
D03*
X415535D02*
D03*
D27*
X419500Y269256D02*
D03*
Y263744D02*
D03*
X351000Y266815D02*
D03*
Y261303D02*
D03*
X330000Y267256D02*
D03*
Y261744D02*
D03*
D28*
X541500Y261000D02*
D03*
X360685Y318000D02*
D03*
D29*
X512000Y261000D02*
D03*
X341000Y318000D02*
D03*
D30*
X476500Y182500D02*
D03*
X525000Y211500D02*
D03*
X361000Y367000D02*
D03*
X405500Y182000D02*
D03*
D31*
X456500Y182500D02*
D03*
X381000Y367000D02*
D03*
X385500Y182000D02*
D03*
D32*
X525000Y191500D02*
D03*
D33*
X427500Y247500D02*
D03*
X373000Y245000D02*
D03*
X369500Y251500D02*
D03*
X374000Y249500D02*
D03*
X461500Y276000D02*
D03*
X491500D02*
D03*
X411000Y261500D02*
D03*
D34*
X347500Y255000D02*
D03*
X415500Y223500D02*
D03*
X427500Y274000D02*
D03*
X445000Y232000D02*
D03*
X435000Y231500D02*
D03*
X412000Y269000D02*
D03*
X363000Y275500D02*
D03*
X391622Y250957D02*
D03*
X450000Y255000D02*
D03*
X443500Y259000D02*
D03*
X449500Y263500D02*
D03*
X346000Y220500D02*
D03*
X346500Y232000D02*
D03*
X339000Y267500D02*
D03*
M02*
