M48
;Layer_Color=9474304
;FILE_FORMAT=2:5
INCH,LZ
;TYPE=PLATED
T1F00S00C0.01300
T2F00S00C0.02800
T3F00S00C0.05118
%
T01
X0377Y02305
X03695Y02445
X0374Y02495
X03805Y0277
X0411Y02615
X042Y0257
X0410941Y0244559
X04495Y02465
X04565Y025
T02
X05385Y0292
Y0311685
X0458Y02675
X04585Y0259
X0452Y0263
X04395Y02675
X0441Y0249
X04535Y024
Y02195
X0416Y027
X0391622Y0250957
X03585Y0244
X03465Y0232
X0346Y02205
X0339Y02675
X03655Y0276
X0349Y0309
X0341315Y03365
X0361
T03
X0538Y0231
Y0251
X04005Y0189
X03805
X03715Y0387
X03915
M30
