G04*
G04 #@! TF.GenerationSoftware,Altium Limited,Altium Designer,19.1.8 (144)*
G04*
G04 Layer_Color=16711935*
%FSLAX25Y25*%
%MOIN*%
G70*
G01*
G75*
%ADD33C,0.06706*%
%ADD34R,0.06706X0.06706*%
%ADD35C,0.06800*%
%ADD36R,0.06800X0.06800*%
%ADD37C,0.19540*%
%ADD38R,0.07453X0.07453*%
%ADD39C,0.07453*%
%ADD40C,0.03800*%
%ADD41C,0.05800*%
%ADD42C,0.20800*%
%ADD43C,0.08800*%
%ADD44C,0.36800*%
D33*
X315000Y255500D02*
D03*
X325000D02*
D03*
X315000Y245500D02*
D03*
D34*
X325000D02*
D03*
D35*
X510000Y224000D02*
D03*
D36*
X539500D02*
D03*
D37*
X274590Y342051D02*
D03*
Y243665D02*
D03*
D38*
X280181Y271047D02*
D03*
D39*
X269000Y276500D02*
D03*
X280181Y281953D02*
D03*
X269000Y287405D02*
D03*
X280181Y292858D02*
D03*
X269000Y298311D02*
D03*
X280181Y303764D02*
D03*
X269000Y309216D02*
D03*
X280181Y314669D02*
D03*
D40*
X379000Y200756D02*
D03*
X372000Y229000D02*
D03*
X372068Y234186D02*
D03*
X357256Y210000D02*
D03*
X365000Y255500D02*
D03*
X363500Y236000D02*
D03*
X401000Y279000D02*
D03*
X357256Y216000D02*
D03*
X386500Y287000D02*
D03*
X412000Y257000D02*
D03*
X409000Y253500D02*
D03*
X408500Y237000D02*
D03*
X414000Y242500D02*
D03*
X420500Y233500D02*
D03*
X375500Y256000D02*
D03*
X362500Y227500D02*
D03*
D41*
X307000Y191500D02*
D03*
X327500D02*
D03*
X327000Y171500D02*
D03*
X307000Y172000D02*
D03*
X317000Y183327D02*
D03*
X303500Y262500D02*
D03*
X348500Y303000D02*
D03*
X367000Y231500D02*
D03*
X338000Y235185D02*
D03*
X403000Y195500D02*
D03*
X390122Y232957D02*
D03*
X451500Y214000D02*
D03*
X432500Y213500D02*
D03*
X420500Y256000D02*
D03*
X442000Y213500D02*
D03*
X448500Y242500D02*
D03*
X442000Y246500D02*
D03*
X448000Y251000D02*
D03*
D42*
X310500Y329000D02*
D03*
X535000Y330000D02*
D03*
X271500Y160000D02*
D03*
X425500D02*
D03*
D43*
X392000Y347000D02*
D03*
X549000Y305000D02*
D03*
X381500Y347000D02*
D03*
X549000Y291500D02*
D03*
X382500Y150000D02*
D03*
D44*
X523000Y165000D02*
D03*
X471000D02*
D03*
M02*
