G04*
G04 #@! TF.GenerationSoftware,Altium Limited,Altium Designer,19.1.8 (144)*
G04*
G04 Layer_Color=8388736*
%FSLAX25Y25*%
%MOIN*%
G70*
G01*
G75*
%ADD13R,0.11587X0.13595*%
%ADD14R,0.06553X0.02181*%
%ADD15R,0.07493X0.05131*%
%ADD16R,0.07690X0.03359*%
%ADD17R,0.04934X0.13595*%
%ADD18R,0.25600X0.50000*%
%ADD19R,0.12611X0.18800*%
%ADD20R,0.07099X0.03950*%
%ADD21R,0.03950X0.04343*%
%ADD22R,0.04343X0.03556*%
%ADD23R,0.03556X0.04343*%
%ADD24R,0.04343X0.03950*%
%ADD25R,0.06800X0.06800*%
%ADD26C,0.06800*%
%ADD27R,0.06800X0.06800*%
%ADD28C,0.07887*%
%ADD29R,0.07887X0.07887*%
%ADD30R,0.07887X0.07887*%
%ADD31C,0.03100*%
%ADD32C,0.05800*%
D13*
X391622Y250957D02*
D03*
D14*
X402744Y265032D02*
D03*
Y262472D02*
D03*
Y259913D02*
D03*
Y257354D02*
D03*
Y254795D02*
D03*
Y252236D02*
D03*
Y249677D02*
D03*
Y247118D02*
D03*
Y244559D02*
D03*
Y242000D02*
D03*
Y239441D02*
D03*
Y236882D02*
D03*
X380500D02*
D03*
Y239441D02*
D03*
Y242000D02*
D03*
Y244559D02*
D03*
Y247118D02*
D03*
Y249677D02*
D03*
Y252236D02*
D03*
Y254795D02*
D03*
Y257354D02*
D03*
Y259913D02*
D03*
Y262472D02*
D03*
Y265032D02*
D03*
D15*
X430000Y256685D02*
D03*
Y267315D02*
D03*
D16*
X391500Y352642D02*
D03*
Y336500D02*
D03*
D17*
X381083Y286500D02*
D03*
X403917D02*
D03*
D18*
X482700Y312500D02*
D03*
X422300D02*
D03*
D19*
X482500Y261000D02*
D03*
X505000Y233000D02*
D03*
D20*
X489335Y253500D02*
D03*
Y258500D02*
D03*
Y263500D02*
D03*
Y268500D02*
D03*
X466500Y253500D02*
D03*
Y258500D02*
D03*
Y263500D02*
D03*
Y268500D02*
D03*
X511835Y225500D02*
D03*
Y230500D02*
D03*
Y235500D02*
D03*
Y240500D02*
D03*
X489000Y225500D02*
D03*
Y230500D02*
D03*
Y235500D02*
D03*
Y240500D02*
D03*
D21*
X419244Y238500D02*
D03*
X424756D02*
D03*
X365744Y267500D02*
D03*
X371256D02*
D03*
X389744Y272500D02*
D03*
X395256D02*
D03*
X365744Y309000D02*
D03*
X371256D02*
D03*
D22*
X417500Y245547D02*
D03*
Y251453D02*
D03*
X380500Y221453D02*
D03*
Y215547D02*
D03*
X365500Y281547D02*
D03*
Y287453D02*
D03*
D23*
X336047Y261500D02*
D03*
X341953D02*
D03*
X358547Y255500D02*
D03*
X364453D02*
D03*
X357547Y236500D02*
D03*
X363453D02*
D03*
X357547Y228500D02*
D03*
X363453D02*
D03*
X357547Y220500D02*
D03*
X363453D02*
D03*
X365547Y297500D02*
D03*
X371453D02*
D03*
D24*
X423000Y269256D02*
D03*
Y263744D02*
D03*
X351000Y266815D02*
D03*
Y261303D02*
D03*
X327500Y266815D02*
D03*
Y261303D02*
D03*
X431000Y251256D02*
D03*
Y245744D02*
D03*
D25*
X538500Y292000D02*
D03*
D26*
Y311685D02*
D03*
X341315Y336500D02*
D03*
D27*
X361000D02*
D03*
D28*
X538000Y251000D02*
D03*
X371500Y387000D02*
D03*
X400500Y189000D02*
D03*
D29*
X538000Y231000D02*
D03*
D30*
X391500Y387000D02*
D03*
X380500Y189000D02*
D03*
D31*
Y277000D02*
D03*
X411000Y261500D02*
D03*
X377000Y230500D02*
D03*
X456500Y250000D02*
D03*
X449500Y246500D02*
D03*
X374000Y249500D02*
D03*
X369500Y244500D02*
D03*
X420000Y257000D02*
D03*
X410941Y244559D02*
D03*
D32*
X439500Y267500D02*
D03*
X416000Y270000D02*
D03*
X391622Y250957D02*
D03*
X349000Y309000D02*
D03*
X358500Y244000D02*
D03*
X441000Y249000D02*
D03*
X458500Y259000D02*
D03*
X452000Y263000D02*
D03*
X458000Y267500D02*
D03*
X453500Y219500D02*
D03*
Y240000D02*
D03*
X346000Y220500D02*
D03*
X346500Y232000D02*
D03*
X365500Y276000D02*
D03*
X339000Y267500D02*
D03*
M02*
