G04*
G04 #@! TF.GenerationSoftware,Altium Limited,Altium Designer,19.1.8 (144)*
G04*
G04 Layer_Color=65535*
%FSLAX25Y25*%
%MOIN*%
G70*
G01*
G75*
%ADD10C,0.00600*%
%ADD11C,0.01000*%
%ADD12C,0.00787*%
G36*
X376624Y242750D02*
X375624D01*
Y241250D01*
X376624D01*
Y242750D01*
D02*
G37*
G36*
X406620Y255545D02*
X407620D01*
Y254045D01*
X406620D01*
Y255545D01*
D02*
G37*
D10*
X379922Y267957D02*
G03*
X379922Y267957I-300J0D01*
G01*
X384104Y266811D02*
X399139D01*
X384104Y235102D02*
X399139D01*
X387000Y334000D02*
X396000D01*
Y355500D01*
X387000D02*
X396000D01*
X387000Y334000D02*
Y355500D01*
X375000Y274199D02*
Y271533D01*
X375533Y271000D01*
X376600D01*
X377133Y271533D01*
Y274199D01*
X378199Y271000D02*
X379265D01*
X378732D01*
Y274199D01*
X378199Y273666D01*
X383000Y334500D02*
Y336833D01*
X384166Y337999D01*
X385333Y336833D01*
Y334500D01*
Y336249D01*
X383000D01*
X437833Y263416D02*
X437249Y263999D01*
X436083D01*
X435500Y263416D01*
Y261083D01*
X436083Y260500D01*
X437249D01*
X437833Y261083D01*
X438999Y260500D02*
X440165D01*
X439582D01*
Y263999D01*
X438999Y263416D01*
X441915Y260500D02*
X443081D01*
X442498D01*
Y263999D01*
X441915Y263416D01*
X397500Y359641D02*
Y356142D01*
X399249D01*
X399833Y356725D01*
Y359057D01*
X399249Y359641D01*
X397500D01*
X400999Y356142D02*
X402165D01*
X401582D01*
Y359641D01*
X400999Y359057D01*
X373333Y209999D02*
X372166D01*
X372749D01*
Y207083D01*
X372166Y206500D01*
X371583D01*
X371000Y207083D01*
X374499Y209416D02*
X375082Y209999D01*
X376248D01*
X376831Y209416D01*
Y208833D01*
X376248Y208249D01*
X375665D01*
X376248D01*
X376831Y207666D01*
Y207083D01*
X376248Y206500D01*
X375082D01*
X374499Y207083D01*
X363833Y407999D02*
X362666D01*
X363249D01*
Y405083D01*
X362666Y404500D01*
X362083D01*
X361500Y405083D01*
X367331Y404500D02*
X364999D01*
X367331Y406833D01*
Y407416D01*
X366748Y407999D01*
X365582D01*
X364999Y407416D01*
X558999Y258667D02*
Y259834D01*
Y259251D01*
X556083D01*
X555500Y259834D01*
Y260417D01*
X556083Y261000D01*
X555500Y257501D02*
Y256335D01*
Y256918D01*
X558999D01*
X558416Y257501D01*
X390000Y294000D02*
Y297499D01*
X391749D01*
X392333Y296916D01*
Y295749D01*
X391749Y295166D01*
X390000D01*
X391166D02*
X392333Y294000D01*
X393499Y296916D02*
X394082Y297499D01*
X395248D01*
X395831Y296916D01*
Y296333D01*
X395248Y295749D01*
X395831Y295166D01*
Y294583D01*
X395248Y294000D01*
X394082D01*
X393499Y294583D01*
Y295166D01*
X394082Y295749D01*
X393499Y296333D01*
Y296916D01*
X394082Y295749D02*
X395248D01*
X352000Y283000D02*
Y286499D01*
X353749D01*
X354333Y285916D01*
Y284749D01*
X353749Y284166D01*
X352000D01*
X353166D02*
X354333Y283000D01*
X355499D02*
X356665D01*
X356082D01*
Y286499D01*
X355499Y285916D01*
X358415D02*
X358998Y286499D01*
X360164D01*
X360747Y285916D01*
Y283583D01*
X360164Y283000D01*
X358998D01*
X358415Y283583D01*
Y285916D01*
X366000Y301000D02*
Y304499D01*
X367749D01*
X368333Y303916D01*
Y302749D01*
X367749Y302166D01*
X366000D01*
X367166D02*
X368333Y301000D01*
X369499Y301583D02*
X370082Y301000D01*
X371248D01*
X371831Y301583D01*
Y303916D01*
X371248Y304499D01*
X370082D01*
X369499Y303916D01*
Y303333D01*
X370082Y302749D01*
X371831D01*
X336500Y254500D02*
Y257999D01*
X338249D01*
X338833Y257416D01*
Y256249D01*
X338249Y255666D01*
X336500D01*
X337666D02*
X338833Y254500D01*
X339999Y257999D02*
X342331D01*
Y257416D01*
X339999Y255083D01*
Y254500D01*
X350500Y252500D02*
Y255999D01*
X352249D01*
X352833Y255416D01*
Y254249D01*
X352249Y253666D01*
X350500D01*
X351666D02*
X352833Y252500D01*
X356331Y255999D02*
X355165Y255416D01*
X353999Y254249D01*
Y253083D01*
X354582Y252500D01*
X355748D01*
X356331Y253083D01*
Y253666D01*
X355748Y254249D01*
X353999D01*
X349500Y219000D02*
Y222499D01*
X351249D01*
X351833Y221916D01*
Y220749D01*
X351249Y220166D01*
X349500D01*
X350666D02*
X351833Y219000D01*
X355331Y222499D02*
X352999D01*
Y220749D01*
X354165Y221333D01*
X354748D01*
X355331Y220749D01*
Y219583D01*
X354748Y219000D01*
X353582D01*
X352999Y219583D01*
X349500Y235000D02*
Y238499D01*
X351249D01*
X351833Y237916D01*
Y236749D01*
X351249Y236166D01*
X349500D01*
X350666D02*
X351833Y235000D01*
X354748D02*
Y238499D01*
X352999Y236749D01*
X355331D01*
X349500Y227000D02*
Y230499D01*
X351249D01*
X351833Y229916D01*
Y228749D01*
X351249Y228166D01*
X349500D01*
X350666D02*
X351833Y227000D01*
X352999Y229916D02*
X353582Y230499D01*
X354748D01*
X355331Y229916D01*
Y229333D01*
X354748Y228749D01*
X354165D01*
X354748D01*
X355331Y228166D01*
Y227583D01*
X354748Y227000D01*
X353582D01*
X352999Y227583D01*
X371500Y216500D02*
Y219999D01*
X373249D01*
X373833Y219416D01*
Y218249D01*
X373249Y217666D01*
X371500D01*
X372666D02*
X373833Y216500D01*
X377331D02*
X374999D01*
X377331Y218833D01*
Y219416D01*
X376748Y219999D01*
X375582D01*
X374999Y219416D01*
X421000Y248000D02*
Y251499D01*
X422749D01*
X423333Y250916D01*
Y249749D01*
X422749Y249166D01*
X421000D01*
X422166D02*
X423333Y248000D01*
X424499D02*
X425665D01*
X425082D01*
Y251499D01*
X424499Y250916D01*
X462833Y272083D02*
Y274416D01*
X462249Y274999D01*
X461083D01*
X460500Y274416D01*
Y272083D01*
X461083Y271500D01*
X462249D01*
X461666Y272666D02*
X462833Y271500D01*
X462249D02*
X462833Y272083D01*
X466331Y271500D02*
X463999D01*
X466331Y273833D01*
Y274416D01*
X465748Y274999D01*
X464582D01*
X463999Y274416D01*
X486333Y244083D02*
Y246416D01*
X485749Y246999D01*
X484583D01*
X484000Y246416D01*
Y244083D01*
X484583Y243500D01*
X485749D01*
X485166Y244666D02*
X486333Y243500D01*
X485749D02*
X486333Y244083D01*
X487499Y243500D02*
X488665D01*
X488082D01*
Y246999D01*
X487499Y246416D01*
X409501Y277500D02*
X413000D01*
Y279833D01*
Y280999D02*
Y282165D01*
Y281582D01*
X409501D01*
X410084Y280999D01*
X355333Y310416D02*
X354749Y310999D01*
X353583D01*
X353000Y310416D01*
Y308083D01*
X353583Y307500D01*
X354749D01*
X355333Y308083D01*
X356499Y307500D02*
X357665D01*
X357082D01*
Y310999D01*
X356499Y310416D01*
X359415D02*
X359998Y310999D01*
X361164D01*
X361747Y310416D01*
Y308083D01*
X361164Y307500D01*
X359998D01*
X359415Y308083D01*
Y310416D01*
X371833Y354416D02*
X371249Y354999D01*
X370083D01*
X369500Y354416D01*
Y352083D01*
X370083Y351500D01*
X371249D01*
X371833Y352083D01*
X372999D02*
X373582Y351500D01*
X374748D01*
X375331Y352083D01*
Y354416D01*
X374748Y354999D01*
X373582D01*
X372999Y354416D01*
Y353833D01*
X373582Y353249D01*
X375331D01*
X392333Y277916D02*
X391749Y278499D01*
X390583D01*
X390000Y277916D01*
Y275583D01*
X390583Y275000D01*
X391749D01*
X392333Y275583D01*
X393499Y277916D02*
X394082Y278499D01*
X395248D01*
X395831Y277916D01*
Y277333D01*
X395248Y276749D01*
X395831Y276166D01*
Y275583D01*
X395248Y275000D01*
X394082D01*
X393499Y275583D01*
Y276166D01*
X394082Y276749D01*
X393499Y277333D01*
Y277916D01*
X394082Y276749D02*
X395248D01*
X421333Y232916D02*
X420749Y233499D01*
X419583D01*
X419000Y232916D01*
Y230583D01*
X419583Y230000D01*
X420749D01*
X421333Y230583D01*
X422499Y233499D02*
X424831D01*
Y232916D01*
X422499Y230583D01*
Y230000D01*
X350333Y272916D02*
X349749Y273499D01*
X348583D01*
X348000Y272916D01*
Y270583D01*
X348583Y270000D01*
X349749D01*
X350333Y270583D01*
X353831Y273499D02*
X352665Y272916D01*
X351499Y271749D01*
Y270583D01*
X352082Y270000D01*
X353248D01*
X353831Y270583D01*
Y271166D01*
X353248Y271749D01*
X351499D01*
X327333Y272916D02*
X326749Y273499D01*
X325583D01*
X325000Y272916D01*
Y270583D01*
X325583Y270000D01*
X326749D01*
X327333Y270583D01*
X330831Y273499D02*
X328499D01*
Y271749D01*
X329665Y272333D01*
X330248D01*
X330831Y271749D01*
Y270583D01*
X330248Y270000D01*
X329082D01*
X328499Y270583D01*
X358833Y268416D02*
X358249Y268999D01*
X357083D01*
X356500Y268416D01*
Y266083D01*
X357083Y265500D01*
X358249D01*
X358833Y266083D01*
X361748Y265500D02*
Y268999D01*
X359999Y267249D01*
X362331D01*
X435333Y241416D02*
X434749Y241999D01*
X433583D01*
X433000Y241416D01*
Y239083D01*
X433583Y238500D01*
X434749D01*
X435333Y239083D01*
X436499Y241416D02*
X437082Y241999D01*
X438248D01*
X438832Y241416D01*
Y240833D01*
X438248Y240249D01*
X437665D01*
X438248D01*
X438832Y239666D01*
Y239083D01*
X438248Y238500D01*
X437082D01*
X436499Y239083D01*
X422333Y274416D02*
X421749Y274999D01*
X420583D01*
X420000Y274416D01*
Y272083D01*
X420583Y271500D01*
X421749D01*
X422333Y272083D01*
X425832Y271500D02*
X423499D01*
X425832Y273833D01*
Y274416D01*
X425248Y274999D01*
X424082D01*
X423499Y274416D01*
X514333Y283416D02*
X513749Y283999D01*
X512583D01*
X512000Y283416D01*
Y281083D01*
X512583Y280500D01*
X513749D01*
X514333Y281083D01*
X515499Y280500D02*
X516665D01*
X516082D01*
Y283999D01*
X515499Y283416D01*
D11*
X563106Y301842D02*
G03*
X563106Y301842I-24606J0D01*
G01*
X370843Y336500D02*
G03*
X370843Y336500I-19685J0D01*
G01*
X415000Y276500D02*
X491500Y276500D01*
X415000Y348000D02*
X491500Y348000D01*
Y340500D02*
Y348000D01*
Y276500D02*
Y284500D01*
X415000Y276500D02*
Y284500D01*
Y340500D02*
Y348000D01*
X467815Y250000D02*
X487500D01*
X467815Y272000D02*
X487500D01*
X490315Y222000D02*
X510000D01*
X490315Y244000D02*
X510000D01*
X535499Y270498D02*
X534499Y271498D01*
X532500D01*
X531500Y270498D01*
Y266500D01*
X532500Y265500D01*
X534499D01*
X535499Y266500D01*
Y268499D01*
X533499D01*
X537498Y265500D02*
Y271498D01*
X541497Y265500D01*
Y271498D01*
X543496D02*
Y265500D01*
X546495D01*
X547495Y266500D01*
Y270498D01*
X546495Y271498D01*
X543496D01*
X343999Y388998D02*
X342999Y389998D01*
X341000D01*
X340000Y388998D01*
Y385000D01*
X341000Y384000D01*
X342999D01*
X343999Y385000D01*
Y386999D01*
X341999D01*
X345998Y384000D02*
Y389998D01*
X349997Y384000D01*
Y389998D01*
X351996D02*
Y384000D01*
X354995D01*
X355995Y385000D01*
Y388998D01*
X354995Y389998D01*
X351996D01*
X419999Y191498D02*
X418999Y192498D01*
X417000D01*
X416000Y191498D01*
Y187500D01*
X417000Y186500D01*
X418999D01*
X419999Y187500D01*
Y189499D01*
X417999D01*
X421998Y186500D02*
Y192498D01*
X425997Y186500D01*
Y192498D01*
X427996D02*
Y186500D01*
X430995D01*
X431995Y187500D01*
Y191498D01*
X430995Y192498D01*
X427996D01*
X337500Y187000D02*
Y192998D01*
X340499D01*
X341499Y191998D01*
Y189999D01*
X340499Y188999D01*
X337500D01*
X347497Y191998D02*
X346497Y192998D01*
X344498D01*
X343498Y191998D01*
Y188000D01*
X344498Y187000D01*
X346497D01*
X347497Y188000D01*
Y189999D01*
X345497D01*
X350496Y187000D02*
X352495D01*
X353495Y188000D01*
Y189999D01*
X352495Y190999D01*
X350496D01*
X349496Y189999D01*
Y188000D01*
X350496Y187000D01*
X356494D02*
X358493D01*
X359493Y188000D01*
Y189999D01*
X358493Y190999D01*
X356494D01*
X355494Y189999D01*
Y188000D01*
X356494Y187000D01*
X365491Y192998D02*
Y187000D01*
X362492D01*
X361492Y188000D01*
Y189999D01*
X362492Y190999D01*
X365491D01*
X541998Y209500D02*
X537999D01*
X536000Y207501D01*
X537999Y205501D01*
X541998D01*
Y203502D02*
X536000D01*
Y200503D01*
X537000Y199503D01*
X537999D01*
X538999Y200503D01*
Y203502D01*
Y200503D01*
X539999Y199503D01*
X540998D01*
X541998Y200503D01*
Y203502D01*
X536000Y197504D02*
X539999D01*
X541998Y195504D01*
X539999Y193505D01*
X536000D01*
X538999D01*
Y197504D01*
X541998Y191506D02*
Y187507D01*
Y189506D01*
X536000D01*
X541998Y185508D02*
Y181509D01*
Y183508D01*
X536000D01*
X415500Y384500D02*
X417499D01*
X416500D01*
Y390498D01*
X415500Y389498D01*
X424497Y384500D02*
X420498D01*
X424497Y388499D01*
Y389498D01*
X423497Y390498D01*
X421498D01*
X420498Y389498D01*
X426496Y390498D02*
Y386499D01*
X428496Y384500D01*
X430495Y386499D01*
Y390498D01*
X536000Y215999D02*
X539999D01*
X537999Y217998D02*
Y214000D01*
X406000Y387499D02*
X409999D01*
X407999Y389498D02*
Y385500D01*
X560001Y279000D02*
Y282999D01*
X558002Y280999D02*
X562000D01*
X376500Y344001D02*
X372501D01*
X374501Y342002D02*
Y346000D01*
D12*
X427047Y260425D02*
Y263575D01*
X432953Y260425D02*
Y263575D01*
X384626Y292504D02*
X400374D01*
X384626Y280496D02*
X400374D01*
X522056Y221000D02*
Y261000D01*
X553945Y221000D02*
Y261000D01*
X522056Y221000D02*
X553945D01*
X522056Y261000D02*
X553945D01*
X361500Y371056D02*
X401500D01*
X361500Y402945D02*
X401500D01*
Y371056D02*
Y402945D01*
X361500Y371056D02*
Y402945D01*
X370500Y204944D02*
X410500D01*
X370500Y173055D02*
X410500D01*
X370500D02*
Y204944D01*
X410500Y173055D02*
Y204944D01*
X416122Y247713D02*
Y249287D01*
X418878Y247713D02*
Y249287D01*
X381878Y217713D02*
Y219287D01*
X379122Y217713D02*
Y219287D01*
X338213Y262878D02*
X339787D01*
X338213Y260122D02*
X339787D01*
X360713Y256878D02*
X362287D01*
X360713Y254122D02*
X362287D01*
X359713Y237878D02*
X361287D01*
X359713Y235122D02*
X361287D01*
X359713Y229878D02*
X361287D01*
X359713Y227122D02*
X361287D01*
X359713Y221878D02*
X361287D01*
X359713Y219122D02*
X361287D01*
X367713Y298878D02*
X369287D01*
X367713Y296122D02*
X369287D01*
X364122Y283713D02*
Y285287D01*
X366878Y283713D02*
Y285287D01*
M02*
