G04*
G04 #@! TF.GenerationSoftware,Altium Limited,Altium Designer,19.1.8 (144)*
G04*
G04 Layer_Physical_Order=2*
G04 Layer_Color=16711680*
%FSLAX25Y25*%
%MOIN*%
G70*
G01*
G75*
%ADD11C,0.01000*%
%ADD47R,0.06000X0.06000*%
%ADD48C,0.06000*%
%ADD49R,0.06000X0.06000*%
%ADD50C,0.07087*%
%ADD51R,0.07087X0.07087*%
%ADD52R,0.07087X0.07087*%
%ADD53C,0.02300*%
%ADD54C,0.05000*%
G36*
X567000Y166000D02*
X322500Y166000D01*
X322500Y410500D01*
X567000Y410500D01*
X567000Y166000D01*
D02*
G37*
%LPC*%
G36*
X372750Y391400D02*
Y388250D01*
X375900D01*
X375469Y389291D01*
X374740Y390240D01*
X373791Y390969D01*
X372750Y391400D01*
D02*
G37*
G36*
X370250D02*
X369209Y390969D01*
X368260Y390240D01*
X367531Y389291D01*
X367100Y388250D01*
X370250D01*
Y391400D01*
D02*
G37*
G36*
X375900Y385750D02*
X372750D01*
Y382600D01*
X373791Y383031D01*
X374740Y383760D01*
X375469Y384709D01*
X375900Y385750D01*
D02*
G37*
G36*
X370250D02*
X367100D01*
X367531Y384709D01*
X368260Y383760D01*
X369209Y383031D01*
X370250Y382600D01*
Y385750D01*
D02*
G37*
G36*
X396043Y391543D02*
X386957D01*
Y382457D01*
X396043D01*
Y391543D01*
D02*
G37*
G36*
X342565Y340312D02*
Y337750D01*
X345127D01*
X344809Y338517D01*
X344168Y339353D01*
X343332Y339994D01*
X342565Y340312D01*
D02*
G37*
G36*
X340065D02*
X339298Y339994D01*
X338462Y339353D01*
X337821Y338517D01*
X337503Y337750D01*
X340065D01*
Y340312D01*
D02*
G37*
G36*
X345127Y335250D02*
X342565D01*
Y332688D01*
X343332Y333006D01*
X344168Y333647D01*
X344809Y334483D01*
X345127Y335250D01*
D02*
G37*
G36*
X340065D02*
X337503D01*
X337821Y334483D01*
X338462Y333647D01*
X339298Y333006D01*
X340065Y332688D01*
Y335250D01*
D02*
G37*
G36*
X365000Y340500D02*
X357000D01*
Y332500D01*
X365000D01*
Y340500D01*
D02*
G37*
G36*
X539750Y315497D02*
Y312935D01*
X542312D01*
X541994Y313702D01*
X541353Y314538D01*
X540517Y315179D01*
X539750Y315497D01*
D02*
G37*
G36*
X537250D02*
X536483Y315179D01*
X535647Y314538D01*
X535006Y313702D01*
X534688Y312935D01*
X537250D01*
Y315497D01*
D02*
G37*
G36*
X350250Y312271D02*
Y310250D01*
X352271D01*
X352057Y310765D01*
X351496Y311496D01*
X350765Y312057D01*
X350250Y312271D01*
D02*
G37*
G36*
X347750D02*
X347235Y312057D01*
X346504Y311496D01*
X345943Y310765D01*
X345729Y310250D01*
X347750D01*
Y312271D01*
D02*
G37*
G36*
X542312Y310435D02*
X539750D01*
Y307873D01*
X540517Y308191D01*
X541353Y308832D01*
X541994Y309668D01*
X542312Y310435D01*
D02*
G37*
G36*
X537250D02*
X534688D01*
X535006Y309668D01*
X535647Y308832D01*
X536483Y308191D01*
X537250Y307873D01*
Y310435D01*
D02*
G37*
G36*
X352271Y307750D02*
X350250D01*
Y305729D01*
X350765Y305943D01*
X351496Y306504D01*
X352057Y307235D01*
X352271Y307750D01*
D02*
G37*
G36*
X347750D02*
X345729D01*
X345943Y307235D01*
X346504Y306504D01*
X347235Y305943D01*
X347750Y305729D01*
Y307750D01*
D02*
G37*
G36*
X542500Y296000D02*
X534500D01*
Y288000D01*
X542500D01*
Y296000D01*
D02*
G37*
G36*
X366750Y279271D02*
Y277250D01*
X368771D01*
X368557Y277765D01*
X367996Y278496D01*
X367265Y279057D01*
X366750Y279271D01*
D02*
G37*
G36*
X364250D02*
X363735Y279057D01*
X363004Y278496D01*
X362443Y277765D01*
X362229Y277250D01*
X364250D01*
Y279271D01*
D02*
G37*
G36*
X368771Y274750D02*
X366750D01*
Y272729D01*
X367265Y272943D01*
X367996Y273504D01*
X368557Y274235D01*
X368771Y274750D01*
D02*
G37*
G36*
X364250D02*
X362229D01*
X362443Y274235D01*
X363004Y273504D01*
X363735Y272943D01*
X364250Y272729D01*
Y274750D01*
D02*
G37*
G36*
X417250Y273271D02*
Y271250D01*
X419271D01*
X419057Y271765D01*
X418496Y272496D01*
X417765Y273057D01*
X417250Y273271D01*
D02*
G37*
G36*
X459250Y270771D02*
Y268750D01*
X461271D01*
X461057Y269265D01*
X460496Y269996D01*
X459765Y270557D01*
X459250Y270771D01*
D02*
G37*
G36*
X456750D02*
X456235Y270557D01*
X455504Y269996D01*
X454943Y269265D01*
X454729Y268750D01*
X456750D01*
Y270771D01*
D02*
G37*
G36*
X440750D02*
Y268750D01*
X442771D01*
X442557Y269265D01*
X441996Y269996D01*
X441265Y270557D01*
X440750Y270771D01*
D02*
G37*
G36*
X438250D02*
X437735Y270557D01*
X437004Y269996D01*
X436443Y269265D01*
X436229Y268750D01*
X438250D01*
Y270771D01*
D02*
G37*
G36*
X340250D02*
Y268750D01*
X342271D01*
X342057Y269265D01*
X341496Y269996D01*
X340765Y270557D01*
X340250Y270771D01*
D02*
G37*
G36*
X337750D02*
X337235Y270557D01*
X336504Y269996D01*
X335943Y269265D01*
X335729Y268750D01*
X337750D01*
Y270771D01*
D02*
G37*
G36*
X380500Y279192D02*
X379661Y279025D01*
X378950Y278550D01*
X378475Y277839D01*
X378308Y277000D01*
X378475Y276161D01*
X378950Y275450D01*
X379661Y274975D01*
X380500Y274808D01*
X381339Y274975D01*
X382050Y275450D01*
X382064Y275471D01*
X401402D01*
X415143Y261730D01*
Y260328D01*
X415259Y259743D01*
X415591Y259246D01*
X417813Y257024D01*
X417808Y257000D01*
X417975Y256161D01*
X418450Y255450D01*
X419161Y254975D01*
X420000Y254808D01*
X420839Y254975D01*
X421550Y255450D01*
X422025Y256161D01*
X422192Y257000D01*
X422025Y257839D01*
X421550Y258550D01*
X420839Y259025D01*
X420000Y259192D01*
X419976Y259187D01*
X418201Y260961D01*
Y262363D01*
X418085Y262949D01*
X417754Y263445D01*
X415117Y266082D01*
X415350Y266555D01*
X416000Y266470D01*
X416914Y266590D01*
X417765Y266943D01*
X418496Y267504D01*
X419057Y268235D01*
X419271Y268750D01*
X416000D01*
Y270000D01*
X414750D01*
Y273271D01*
X414235Y273057D01*
X413504Y272496D01*
X412943Y271765D01*
X412590Y270914D01*
X412470Y270000D01*
X412555Y269350D01*
X412082Y269117D01*
X403117Y278081D01*
X402621Y278413D01*
X402036Y278529D01*
X382064D01*
X382050Y278550D01*
X381339Y279025D01*
X380500Y279192D01*
D02*
G37*
G36*
X450750Y266271D02*
X450235Y266057D01*
X449504Y265496D01*
X448943Y264765D01*
X448729Y264250D01*
X450750D01*
Y266271D01*
D02*
G37*
G36*
X461271Y266250D02*
X459250D01*
Y264229D01*
X459765Y264443D01*
X460496Y265004D01*
X461057Y265735D01*
X461271Y266250D01*
D02*
G37*
G36*
X453250Y266271D02*
Y264250D01*
X455271D01*
X455057Y264765D01*
X455454Y265068D01*
X455504Y265004D01*
X456235Y264443D01*
X456750Y264229D01*
Y266250D01*
X454729D01*
X454943Y265735D01*
X454546Y265432D01*
X454496Y265496D01*
X453765Y266057D01*
X453250Y266271D01*
D02*
G37*
G36*
X442771Y266250D02*
X440750D01*
Y264229D01*
X441265Y264443D01*
X441996Y265004D01*
X442557Y265735D01*
X442771Y266250D01*
D02*
G37*
G36*
X438250D02*
X436229D01*
X436443Y265735D01*
X437004Y265004D01*
X437735Y264443D01*
X438250Y264229D01*
Y266250D01*
D02*
G37*
G36*
X342271D02*
X340250D01*
Y264229D01*
X340765Y264443D01*
X341496Y265004D01*
X342057Y265735D01*
X342271Y266250D01*
D02*
G37*
G36*
X337750D02*
X335729D01*
X335943Y265735D01*
X336504Y265004D01*
X337235Y264443D01*
X337750Y264229D01*
Y266250D01*
D02*
G37*
G36*
X459750Y262271D02*
Y260250D01*
X461771D01*
X461557Y260765D01*
X460996Y261496D01*
X460265Y262057D01*
X459750Y262271D01*
D02*
G37*
G36*
X457250D02*
X456735Y262057D01*
X456004Y261496D01*
X455443Y260765D01*
X455229Y260250D01*
X457250D01*
Y262271D01*
D02*
G37*
G36*
X455271Y261750D02*
X453250D01*
Y259729D01*
X453765Y259943D01*
X454496Y260504D01*
X455057Y261235D01*
X455271Y261750D01*
D02*
G37*
G36*
X450750D02*
X448729D01*
X448943Y261235D01*
X449504Y260504D01*
X450235Y259943D01*
X450750Y259729D01*
Y261750D01*
D02*
G37*
G36*
X411000Y263692D02*
X410161Y263525D01*
X409450Y263050D01*
X409436Y263029D01*
X386000D01*
X385415Y262913D01*
X384919Y262581D01*
X374024Y251687D01*
X374000Y251692D01*
X373161Y251525D01*
X372450Y251050D01*
X371975Y250339D01*
X371808Y249500D01*
X371975Y248661D01*
X372450Y247950D01*
X373161Y247475D01*
X374000Y247308D01*
X374839Y247475D01*
X375550Y247950D01*
X376025Y248661D01*
X376192Y249500D01*
X376187Y249524D01*
X386633Y259971D01*
X409436D01*
X409450Y259950D01*
X410161Y259475D01*
X411000Y259308D01*
X411839Y259475D01*
X412550Y259950D01*
X413025Y260661D01*
X413192Y261500D01*
X413025Y262339D01*
X412550Y263050D01*
X411839Y263525D01*
X411000Y263692D01*
D02*
G37*
G36*
X461771Y257750D02*
X459750D01*
Y255729D01*
X460265Y255943D01*
X460996Y256504D01*
X461557Y257235D01*
X461771Y257750D01*
D02*
G37*
G36*
X457250D02*
X455229D01*
X455443Y257235D01*
X456004Y256504D01*
X456735Y255943D01*
X457250Y255729D01*
Y257750D01*
D02*
G37*
G36*
X539250Y255400D02*
Y252250D01*
X542400D01*
X541969Y253291D01*
X541240Y254240D01*
X540291Y254969D01*
X539250Y255400D01*
D02*
G37*
G36*
X536750D02*
X535709Y254969D01*
X534760Y254240D01*
X534031Y253291D01*
X533600Y252250D01*
X536750D01*
Y255400D01*
D02*
G37*
G36*
X392872Y254227D02*
Y252207D01*
X394893D01*
X394679Y252722D01*
X394118Y253453D01*
X393387Y254014D01*
X392872Y254227D01*
D02*
G37*
G36*
X390372D02*
X389857Y254014D01*
X389126Y253453D01*
X388565Y252722D01*
X388351Y252207D01*
X390372D01*
Y254227D01*
D02*
G37*
G36*
X442250Y252271D02*
Y250250D01*
X444271D01*
X444057Y250765D01*
X443496Y251496D01*
X442765Y252057D01*
X442250Y252271D01*
D02*
G37*
G36*
X439750D02*
X439235Y252057D01*
X438504Y251496D01*
X437943Y250765D01*
X437729Y250250D01*
X439750D01*
Y252271D01*
D02*
G37*
G36*
X456500Y252192D02*
X455661Y252025D01*
X454950Y251550D01*
X454475Y250839D01*
X454308Y250000D01*
X454313Y249976D01*
X452366Y248029D01*
X451064D01*
X451050Y248050D01*
X450339Y248525D01*
X449500Y248692D01*
X448661Y248525D01*
X447950Y248050D01*
X447475Y247339D01*
X447308Y246500D01*
X447475Y245661D01*
X447950Y244950D01*
X448661Y244475D01*
X449500Y244308D01*
X450339Y244475D01*
X451050Y244950D01*
X451064Y244971D01*
X453000D01*
X453585Y245087D01*
X454081Y245419D01*
X456476Y247813D01*
X456500Y247808D01*
X457339Y247975D01*
X458050Y248450D01*
X458525Y249161D01*
X458692Y250000D01*
X458525Y250839D01*
X458050Y251550D01*
X457339Y252025D01*
X456500Y252192D01*
D02*
G37*
G36*
X394893Y249707D02*
X392872D01*
Y247686D01*
X393387Y247899D01*
X394118Y248461D01*
X394679Y249192D01*
X394893Y249707D01*
D02*
G37*
G36*
X390372D02*
X388351D01*
X388565Y249192D01*
X389126Y248461D01*
X389857Y247899D01*
X390372Y247686D01*
Y249707D01*
D02*
G37*
G36*
X542400Y249750D02*
X539250D01*
Y246600D01*
X540291Y247031D01*
X541240Y247760D01*
X541969Y248709D01*
X542400Y249750D01*
D02*
G37*
G36*
X536750D02*
X533600D01*
X534031Y248709D01*
X534760Y247760D01*
X535709Y247031D01*
X536750Y246600D01*
Y249750D01*
D02*
G37*
G36*
X444271Y247750D02*
X442250D01*
Y245729D01*
X442765Y245943D01*
X443496Y246504D01*
X444057Y247235D01*
X444271Y247750D01*
D02*
G37*
G36*
X439750D02*
X437729D01*
X437943Y247235D01*
X438504Y246504D01*
X439235Y245943D01*
X439750Y245729D01*
Y247750D01*
D02*
G37*
G36*
X359750Y247271D02*
Y245250D01*
X361771D01*
X361557Y245765D01*
X360996Y246496D01*
X360265Y247057D01*
X359750Y247271D01*
D02*
G37*
G36*
X357250D02*
X356735Y247057D01*
X356004Y246496D01*
X355443Y245765D01*
X355229Y245250D01*
X357250D01*
Y247271D01*
D02*
G37*
G36*
X410941Y246751D02*
X410102Y246584D01*
X409391Y246109D01*
X408916Y245398D01*
X408749Y244559D01*
X408916Y243720D01*
X409391Y243009D01*
X410102Y242534D01*
X410941Y242367D01*
X411780Y242534D01*
X412491Y243009D01*
X412966Y243720D01*
X413133Y244559D01*
X412966Y245398D01*
X412491Y246109D01*
X411780Y246584D01*
X410941Y246751D01*
D02*
G37*
G36*
X361771Y242750D02*
X359750D01*
Y240729D01*
X360265Y240943D01*
X360996Y241504D01*
X361557Y242235D01*
X361771Y242750D01*
D02*
G37*
G36*
X357250D02*
X355229D01*
X355443Y242235D01*
X356004Y241504D01*
X356735Y240943D01*
X357250Y240729D01*
Y242750D01*
D02*
G37*
G36*
X347750Y235271D02*
Y233250D01*
X349771D01*
X349557Y233765D01*
X348996Y234496D01*
X348265Y235057D01*
X347750Y235271D01*
D02*
G37*
G36*
X345250D02*
X344735Y235057D01*
X344004Y234496D01*
X343443Y233765D01*
X343229Y233250D01*
X345250D01*
Y235271D01*
D02*
G37*
G36*
X349771Y230750D02*
X347750D01*
Y228729D01*
X348265Y228943D01*
X348996Y229504D01*
X349557Y230235D01*
X349771Y230750D01*
D02*
G37*
G36*
X345250D02*
X343229D01*
X343443Y230235D01*
X344004Y229504D01*
X344735Y228943D01*
X345250Y228729D01*
Y230750D01*
D02*
G37*
G36*
X369500Y246692D02*
X368661Y246525D01*
X367950Y246050D01*
X367475Y245339D01*
X367308Y244500D01*
X367475Y243661D01*
X367950Y242950D01*
X367971Y242936D01*
Y238500D01*
X368087Y237915D01*
X368419Y237419D01*
X374896Y230941D01*
X374808Y230500D01*
X374975Y229661D01*
X375450Y228950D01*
X376161Y228475D01*
X377000Y228308D01*
X377839Y228475D01*
X378550Y228950D01*
X379025Y229661D01*
X379192Y230500D01*
X379025Y231339D01*
X378550Y232050D01*
X377839Y232525D01*
X377588Y232575D01*
X371029Y239134D01*
Y242936D01*
X371050Y242950D01*
X371525Y243661D01*
X371692Y244500D01*
X371525Y245339D01*
X371050Y246050D01*
X370339Y246525D01*
X369500Y246692D01*
D02*
G37*
G36*
X542543Y235543D02*
X533457D01*
Y226457D01*
X542543D01*
Y235543D01*
D02*
G37*
G36*
X347250Y223771D02*
Y221750D01*
X349271D01*
X349057Y222265D01*
X348496Y222996D01*
X347765Y223557D01*
X347250Y223771D01*
D02*
G37*
G36*
X344750D02*
X344235Y223557D01*
X343504Y222996D01*
X342943Y222265D01*
X342729Y221750D01*
X344750D01*
Y223771D01*
D02*
G37*
G36*
X349271Y219250D02*
X347250D01*
Y217229D01*
X347765Y217443D01*
X348496Y218004D01*
X349057Y218735D01*
X349271Y219250D01*
D02*
G37*
G36*
X344750D02*
X342729D01*
X342943Y218735D01*
X343504Y218004D01*
X344235Y217443D01*
X344750Y217229D01*
Y219250D01*
D02*
G37*
G36*
X453500Y243530D02*
X452586Y243410D01*
X451735Y243057D01*
X451004Y242496D01*
X450443Y241765D01*
X450090Y240914D01*
X449970Y240000D01*
X450090Y239086D01*
X450443Y238235D01*
X451004Y237504D01*
X451735Y236943D01*
X451971Y236845D01*
Y222655D01*
X451735Y222557D01*
X451004Y221996D01*
X450443Y221265D01*
X450090Y220414D01*
X449970Y219500D01*
X450090Y218586D01*
X450443Y217735D01*
X451004Y217004D01*
X451735Y216443D01*
X452586Y216090D01*
X453500Y215970D01*
X454414Y216090D01*
X455265Y216443D01*
X455996Y217004D01*
X456557Y217735D01*
X456910Y218586D01*
X457030Y219500D01*
X456910Y220414D01*
X456557Y221265D01*
X455996Y221996D01*
X455265Y222557D01*
X455029Y222655D01*
Y236845D01*
X455265Y236943D01*
X455996Y237504D01*
X456557Y238235D01*
X456910Y239086D01*
X457030Y240000D01*
X456910Y240914D01*
X456557Y241765D01*
X455996Y242496D01*
X455265Y243057D01*
X454414Y243410D01*
X453500Y243530D01*
D02*
G37*
G36*
X401750Y193400D02*
Y190250D01*
X404900D01*
X404469Y191291D01*
X403740Y192240D01*
X402791Y192969D01*
X401750Y193400D01*
D02*
G37*
G36*
X399250D02*
X398209Y192969D01*
X397260Y192240D01*
X396531Y191291D01*
X396100Y190250D01*
X399250D01*
Y193400D01*
D02*
G37*
G36*
X404900Y187750D02*
X401750D01*
Y184600D01*
X402791Y185031D01*
X403740Y185760D01*
X404469Y186709D01*
X404900Y187750D01*
D02*
G37*
G36*
X399250D02*
X396100D01*
X396531Y186709D01*
X397260Y185760D01*
X398209Y185031D01*
X399250Y184600D01*
Y187750D01*
D02*
G37*
G36*
X385043Y193543D02*
X375957D01*
Y184457D01*
X385043D01*
Y193543D01*
D02*
G37*
%LPD*%
D11*
X402036Y277000D02*
X416672Y262363D01*
X380500Y277000D02*
X402036D01*
X374000Y249500D02*
X386000Y261500D01*
X411000D01*
X377000Y230500D02*
Y231000D01*
X369500Y238500D02*
X377000Y231000D01*
X369500Y238500D02*
Y244500D01*
X453000Y246500D02*
X456500Y250000D01*
X449500Y246500D02*
X453000D01*
X441000Y247531D02*
Y249000D01*
X453500Y219500D02*
Y240000D01*
X416672Y260328D02*
Y262363D01*
Y260328D02*
X420000Y257000D01*
D47*
X538500Y292000D02*
D03*
D48*
Y311685D02*
D03*
X341315Y336500D02*
D03*
D49*
X361000D02*
D03*
D50*
X538000Y251000D02*
D03*
X371500Y387000D02*
D03*
X400500Y189000D02*
D03*
D51*
X538000Y231000D02*
D03*
D52*
X391500Y387000D02*
D03*
X380500Y189000D02*
D03*
D53*
Y277000D02*
D03*
X411000Y261500D02*
D03*
X377000Y230500D02*
D03*
X456500Y250000D02*
D03*
X449500Y246500D02*
D03*
X374000Y249500D02*
D03*
X369500Y244500D02*
D03*
X420000Y257000D02*
D03*
X410941Y244559D02*
D03*
D54*
X439500Y267500D02*
D03*
X416000Y270000D02*
D03*
X391622Y250957D02*
D03*
X349000Y309000D02*
D03*
X358500Y244000D02*
D03*
X441000Y249000D02*
D03*
X458500Y259000D02*
D03*
X452000Y263000D02*
D03*
X458000Y267500D02*
D03*
X453500Y219500D02*
D03*
Y240000D02*
D03*
X346000Y220500D02*
D03*
X346500Y232000D02*
D03*
X365500Y276000D02*
D03*
X339000Y267500D02*
D03*
M02*
