G04*
G04 #@! TF.GenerationSoftware,Altium Limited,Altium Designer,19.1.7 (138)*
G04*
G04 Layer_Physical_Order=2*
G04 Layer_Color=16711680*
%FSLAX25Y25*%
%MOIN*%
G70*
G01*
G75*
%ADD11C,0.01000*%
%ADD45R,0.06000X0.06000*%
%ADD46C,0.06000*%
%ADD47R,0.06000X0.06000*%
%ADD48C,0.07087*%
%ADD49R,0.07087X0.07087*%
%ADD50R,0.07087X0.07087*%
%ADD51C,0.05000*%
%ADD52C,0.02000*%
%ADD53C,0.02000*%
G36*
X562000Y171000D02*
X319000D01*
X319000Y390000D01*
X562000D01*
X562000Y171000D01*
D02*
G37*
%LPC*%
G36*
X372500Y377951D02*
Y374500D01*
X375951D01*
X375926Y374686D01*
X375469Y375791D01*
X374740Y376740D01*
X373791Y377469D01*
X372686Y377926D01*
X372500Y377951D01*
D02*
G37*
G36*
X370500D02*
X370314Y377926D01*
X369209Y377469D01*
X368260Y376740D01*
X367531Y375791D01*
X367074Y374686D01*
X367049Y374500D01*
X370500D01*
Y377951D01*
D02*
G37*
G36*
X395543Y377543D02*
X387457D01*
Y369457D01*
X395543D01*
Y377543D01*
D02*
G37*
G36*
X375951Y372500D02*
X372500D01*
Y369049D01*
X372686Y369074D01*
X373791Y369531D01*
X374740Y370260D01*
X375469Y371209D01*
X375926Y372314D01*
X375951Y372500D01*
D02*
G37*
G36*
X370500D02*
X367049D01*
X367074Y372314D01*
X367531Y371209D01*
X368260Y370260D01*
X369209Y369531D01*
X370314Y369074D01*
X370500Y369049D01*
Y372500D01*
D02*
G37*
G36*
X341815Y336903D02*
Y334000D01*
X344718D01*
X344712Y334044D01*
X344309Y335017D01*
X343668Y335853D01*
X342832Y336494D01*
X341859Y336897D01*
X341815Y336903D01*
D02*
G37*
G36*
X339815D02*
X339771Y336897D01*
X338798Y336494D01*
X337962Y335853D01*
X337321Y335017D01*
X336918Y334044D01*
X336912Y334000D01*
X339815D01*
Y336903D01*
D02*
G37*
G36*
X364000Y336500D02*
X357000D01*
Y329500D01*
X364000D01*
Y336500D01*
D02*
G37*
G36*
X344718Y332000D02*
X341815D01*
Y329097D01*
X341859Y329103D01*
X342832Y329506D01*
X343668Y330147D01*
X344309Y330983D01*
X344712Y331956D01*
X344718Y332000D01*
D02*
G37*
G36*
X339815D02*
X336912D01*
X336918Y331956D01*
X337321Y330983D01*
X337962Y330147D01*
X338798Y329506D01*
X339771Y329103D01*
X339815Y329097D01*
Y332000D01*
D02*
G37*
G36*
X534500Y315403D02*
Y312500D01*
X537403D01*
X537397Y312544D01*
X536994Y313517D01*
X536353Y314353D01*
X535517Y314994D01*
X534544Y315397D01*
X534500Y315403D01*
D02*
G37*
G36*
X532500D02*
X532456Y315397D01*
X531483Y314994D01*
X530647Y314353D01*
X530006Y313517D01*
X529603Y312544D01*
X529597Y312500D01*
X532500D01*
Y315403D01*
D02*
G37*
G36*
X537403Y310500D02*
X534500D01*
Y307597D01*
X534544Y307603D01*
X535517Y308006D01*
X536353Y308647D01*
X536994Y309483D01*
X537397Y310456D01*
X537403Y310500D01*
D02*
G37*
G36*
X532500D02*
X529597D01*
X529603Y310456D01*
X530006Y309483D01*
X530647Y308647D01*
X531483Y308006D01*
X532456Y307603D01*
X532500Y307597D01*
Y310500D01*
D02*
G37*
G36*
X350000Y308374D02*
Y306000D01*
X352374D01*
X352057Y306765D01*
X351496Y307496D01*
X350765Y308057D01*
X350000Y308374D01*
D02*
G37*
G36*
X348000D02*
X347235Y308057D01*
X346504Y307496D01*
X345943Y306765D01*
X345626Y306000D01*
X348000D01*
Y308374D01*
D02*
G37*
G36*
X352374Y304000D02*
X350000D01*
Y301626D01*
X350765Y301943D01*
X351496Y302504D01*
X352057Y303235D01*
X352374Y304000D01*
D02*
G37*
G36*
X348000D02*
X345626D01*
X345943Y303235D01*
X346504Y302504D01*
X347235Y301943D01*
X348000Y301626D01*
Y304000D01*
D02*
G37*
G36*
X537000Y295315D02*
X530000D01*
Y288315D01*
X537000D01*
Y295315D01*
D02*
G37*
G36*
X400843Y278520D02*
X391557D01*
X391167Y278442D01*
X390836Y278221D01*
X389634Y277020D01*
X381623D01*
X381581Y277081D01*
X381085Y277413D01*
X380500Y277529D01*
X379915Y277413D01*
X379419Y277081D01*
X379087Y276585D01*
X378971Y276000D01*
X379087Y275415D01*
X379419Y274919D01*
X379915Y274587D01*
X380500Y274471D01*
X381085Y274587D01*
X381581Y274919D01*
X381623Y274980D01*
X390057D01*
X390447Y275058D01*
X390778Y275279D01*
X391979Y276480D01*
X400421D01*
X411622Y265279D01*
X411953Y265058D01*
X412343Y264980D01*
X412314Y264492D01*
X411915Y264413D01*
X411419Y264081D01*
X411377Y264020D01*
X388500D01*
X388110Y263942D01*
X387779Y263721D01*
X374814Y250756D01*
X374599Y250900D01*
X374013Y251016D01*
X373428Y250900D01*
X372932Y250568D01*
X372600Y250072D01*
X372484Y249487D01*
X372600Y248901D01*
X372932Y248405D01*
X373428Y248074D01*
X374013Y247957D01*
X374599Y248074D01*
X375095Y248405D01*
X375159Y248501D01*
X375377Y248545D01*
X375708Y248766D01*
X388922Y261980D01*
X411377D01*
X411419Y261919D01*
X411915Y261587D01*
X412500Y261471D01*
X413085Y261587D01*
X413581Y261919D01*
X413913Y262415D01*
X414006Y262881D01*
X414345Y263051D01*
X414516Y263078D01*
X415653Y261941D01*
Y260328D01*
X415730Y259938D01*
X415951Y259607D01*
X418485Y257073D01*
X418471Y257000D01*
X418587Y256415D01*
X418919Y255919D01*
X419415Y255587D01*
X420000Y255471D01*
X420585Y255587D01*
X421081Y255919D01*
X421413Y256415D01*
X421529Y257000D01*
X421413Y257585D01*
X421081Y258081D01*
X420585Y258413D01*
X420000Y258529D01*
X419927Y258515D01*
X417692Y260750D01*
Y262363D01*
X417614Y262754D01*
X417393Y263084D01*
X414406Y266071D01*
X414567Y266545D01*
X414914Y266590D01*
X415765Y266943D01*
X416496Y267504D01*
X417057Y268235D01*
X417374Y269000D01*
X414000D01*
Y270000D01*
X413000D01*
Y273374D01*
X412235Y273057D01*
X411504Y272496D01*
X410943Y271765D01*
X410590Y270914D01*
X410472Y270020D01*
X410325Y269910D01*
X410024Y269761D01*
X401564Y278221D01*
X401233Y278442D01*
X400843Y278520D01*
D02*
G37*
G36*
X366500Y279374D02*
Y277000D01*
X368874D01*
X368557Y277765D01*
X367996Y278496D01*
X367265Y279057D01*
X366500Y279374D01*
D02*
G37*
G36*
X364500D02*
X363735Y279057D01*
X363004Y278496D01*
X362443Y277765D01*
X362126Y277000D01*
X364500D01*
Y279374D01*
D02*
G37*
G36*
X368874Y275000D02*
X366500D01*
Y272626D01*
X367265Y272943D01*
X367996Y273504D01*
X368557Y274235D01*
X368874Y275000D01*
D02*
G37*
G36*
X364500D02*
X362126D01*
X362443Y274235D01*
X363004Y273504D01*
X363735Y272943D01*
X364500Y272626D01*
Y275000D01*
D02*
G37*
G36*
X415000Y273374D02*
Y271000D01*
X417374D01*
X417057Y271765D01*
X416496Y272496D01*
X415765Y273057D01*
X415000Y273374D01*
D02*
G37*
G36*
X459000Y270874D02*
Y268500D01*
X461374D01*
X461057Y269265D01*
X460496Y269996D01*
X459765Y270557D01*
X459000Y270874D01*
D02*
G37*
G36*
X340000D02*
Y268500D01*
X342374D01*
X342057Y269265D01*
X341496Y269996D01*
X340765Y270557D01*
X340000Y270874D01*
D02*
G37*
G36*
X338000D02*
X337235Y270557D01*
X336504Y269996D01*
X335943Y269265D01*
X335626Y268500D01*
X338000D01*
Y270874D01*
D02*
G37*
G36*
X457000D02*
X456235Y270557D01*
X455504Y269996D01*
X454943Y269265D01*
X454590Y268414D01*
X454470Y267500D01*
X454553Y266872D01*
X454548Y266857D01*
X454143Y266452D01*
X454128Y266447D01*
X453500Y266530D01*
X452586Y266410D01*
X451735Y266057D01*
X451004Y265496D01*
X450443Y264765D01*
X450126Y264000D01*
X453500D01*
Y263000D01*
X454500D01*
Y259626D01*
X454649Y259688D01*
X455013Y259325D01*
X454970Y259000D01*
X455090Y258086D01*
X455443Y257235D01*
X456004Y256504D01*
X456735Y255943D01*
X457500Y255626D01*
Y259000D01*
Y262374D01*
X457378Y262324D01*
X456981Y262628D01*
X457030Y263000D01*
X456948Y263628D01*
X456952Y263643D01*
X457357Y264048D01*
X457372Y264053D01*
X458000Y263970D01*
X458914Y264090D01*
X459765Y264443D01*
X460496Y265004D01*
X461057Y265735D01*
X461374Y266500D01*
X458000D01*
Y267500D01*
X457000D01*
Y270874D01*
D02*
G37*
G36*
X342374Y266500D02*
X340000D01*
Y264126D01*
X340765Y264443D01*
X341496Y265004D01*
X342057Y265735D01*
X342374Y266500D01*
D02*
G37*
G36*
X338000D02*
X335626D01*
X335943Y265735D01*
X336504Y265004D01*
X337235Y264443D01*
X338000Y264126D01*
Y266500D01*
D02*
G37*
G36*
X459500Y262374D02*
Y260000D01*
X461874D01*
X461557Y260765D01*
X460996Y261496D01*
X460265Y262057D01*
X459500Y262374D01*
D02*
G37*
G36*
X452500Y262000D02*
X450126D01*
X450443Y261235D01*
X451004Y260504D01*
X451735Y259943D01*
X452500Y259626D01*
Y262000D01*
D02*
G37*
G36*
X461874Y258000D02*
X459500D01*
Y255626D01*
X460265Y255943D01*
X460996Y256504D01*
X461557Y257235D01*
X461874Y258000D01*
D02*
G37*
G36*
X539000Y255451D02*
Y252000D01*
X542451D01*
X542426Y252186D01*
X541969Y253291D01*
X541240Y254240D01*
X540291Y254969D01*
X539186Y255426D01*
X539000Y255451D01*
D02*
G37*
G36*
X537000D02*
X536814Y255426D01*
X535709Y254969D01*
X534760Y254240D01*
X534031Y253291D01*
X533574Y252186D01*
X533549Y252000D01*
X537000D01*
Y255451D01*
D02*
G37*
G36*
X392622Y254331D02*
Y251957D01*
X394996D01*
X394679Y252722D01*
X394118Y253453D01*
X393387Y254014D01*
X392622Y254331D01*
D02*
G37*
G36*
X390622D02*
X389857Y254014D01*
X389126Y253453D01*
X388565Y252722D01*
X388248Y251957D01*
X390622D01*
Y254331D01*
D02*
G37*
G36*
X442000Y252374D02*
Y250000D01*
X444374D01*
X444057Y250765D01*
X443496Y251496D01*
X442765Y252057D01*
X442000Y252374D01*
D02*
G37*
G36*
X440000D02*
X439235Y252057D01*
X438504Y251496D01*
X437943Y250765D01*
X437626Y250000D01*
X440000D01*
Y252374D01*
D02*
G37*
G36*
X458500Y251529D02*
X457915Y251413D01*
X457419Y251081D01*
X457377Y251020D01*
X453000D01*
X452610Y250942D01*
X452279Y250721D01*
X444578Y243020D01*
X428636D01*
X427435Y244221D01*
X427104Y244442D01*
X426714Y244520D01*
X412503D01*
X412470Y244559D01*
X412354Y245144D01*
X412022Y245640D01*
X411526Y245972D01*
X410941Y246088D01*
X410356Y245972D01*
X409860Y245640D01*
X409528Y245144D01*
X409412Y244559D01*
X409528Y243974D01*
X409860Y243478D01*
X410356Y243146D01*
X410941Y243030D01*
X411014Y243044D01*
X411279Y242779D01*
X411610Y242558D01*
X412000Y242480D01*
X426291D01*
X427493Y241279D01*
X427823Y241058D01*
X428214Y240980D01*
X445000D01*
X445390Y241058D01*
X445721Y241279D01*
X453422Y248980D01*
X457377D01*
X457419Y248919D01*
X457915Y248587D01*
X458500Y248471D01*
X459085Y248587D01*
X459581Y248919D01*
X459913Y249415D01*
X460029Y250000D01*
X459913Y250585D01*
X459581Y251081D01*
X459085Y251413D01*
X458500Y251529D01*
D02*
G37*
G36*
X394996Y249957D02*
X392622D01*
Y247583D01*
X393387Y247899D01*
X394118Y248461D01*
X394679Y249192D01*
X394996Y249957D01*
D02*
G37*
G36*
X390622D02*
X388248D01*
X388565Y249192D01*
X389126Y248461D01*
X389857Y247899D01*
X390622Y247583D01*
Y249957D01*
D02*
G37*
G36*
X542451Y250000D02*
X539000D01*
Y246549D01*
X539186Y246574D01*
X540291Y247031D01*
X541240Y247760D01*
X541969Y248709D01*
X542426Y249814D01*
X542451Y250000D01*
D02*
G37*
G36*
X537000D02*
X533549D01*
X533574Y249814D01*
X534031Y248709D01*
X534760Y247760D01*
X535709Y247031D01*
X536814Y246574D01*
X537000Y246549D01*
Y250000D01*
D02*
G37*
G36*
X444374Y248000D02*
X442000D01*
Y245626D01*
X442765Y245943D01*
X443496Y246504D01*
X444057Y247235D01*
X444374Y248000D01*
D02*
G37*
G36*
X440000D02*
X437626D01*
X437943Y247235D01*
X438504Y246504D01*
X439235Y245943D01*
X440000Y245626D01*
Y248000D01*
D02*
G37*
G36*
X359500Y247374D02*
Y245000D01*
X361874D01*
X361557Y245765D01*
X360996Y246496D01*
X360265Y247057D01*
X359500Y247374D01*
D02*
G37*
G36*
X357500D02*
X356735Y247057D01*
X356004Y246496D01*
X355443Y245765D01*
X355126Y245000D01*
X357500D01*
Y247374D01*
D02*
G37*
G36*
X361874Y243000D02*
X359500D01*
Y240626D01*
X360265Y240943D01*
X360996Y241504D01*
X361557Y242235D01*
X361874Y243000D01*
D02*
G37*
G36*
X357500D02*
X355126D01*
X355443Y242235D01*
X356004Y241504D01*
X356735Y240943D01*
X357500Y240626D01*
Y243000D01*
D02*
G37*
G36*
X347500Y235374D02*
Y233000D01*
X349874D01*
X349557Y233765D01*
X348996Y234496D01*
X348265Y235057D01*
X347500Y235374D01*
D02*
G37*
G36*
X345500D02*
X344735Y235057D01*
X344004Y234496D01*
X343443Y233765D01*
X343126Y233000D01*
X345500D01*
Y235374D01*
D02*
G37*
G36*
X349874Y231000D02*
X347500D01*
Y228626D01*
X348265Y228943D01*
X348996Y229504D01*
X349557Y230235D01*
X349874Y231000D01*
D02*
G37*
G36*
X345500D02*
X343126D01*
X343443Y230235D01*
X344004Y229504D01*
X344735Y228943D01*
X345500Y228626D01*
Y231000D01*
D02*
G37*
G36*
X542043Y235043D02*
X533957D01*
Y226957D01*
X542043D01*
Y235043D01*
D02*
G37*
G36*
X369500Y246529D02*
X368915Y246413D01*
X368419Y246081D01*
X368087Y245585D01*
X367971Y245000D01*
X368087Y244415D01*
X368419Y243919D01*
X368480Y243877D01*
Y238500D01*
X368558Y238110D01*
X368779Y237779D01*
X378985Y227573D01*
X378971Y227500D01*
X379087Y226915D01*
X379419Y226419D01*
X379915Y226087D01*
X380500Y225971D01*
X381085Y226087D01*
X381581Y226419D01*
X381913Y226915D01*
X382029Y227500D01*
X381913Y228085D01*
X381581Y228581D01*
X381085Y228913D01*
X380500Y229029D01*
X380427Y229015D01*
X370520Y238922D01*
Y243877D01*
X370581Y243919D01*
X370913Y244415D01*
X371029Y245000D01*
X370913Y245585D01*
X370581Y246081D01*
X370085Y246413D01*
X369500Y246529D01*
D02*
G37*
G36*
X347000Y223874D02*
Y221500D01*
X349374D01*
X349057Y222265D01*
X348496Y222996D01*
X347765Y223557D01*
X347000Y223874D01*
D02*
G37*
G36*
X345000D02*
X344235Y223557D01*
X343504Y222996D01*
X342943Y222265D01*
X342626Y221500D01*
X345000D01*
Y223874D01*
D02*
G37*
G36*
X349374Y219500D02*
X347000D01*
Y217126D01*
X347765Y217443D01*
X348496Y218004D01*
X349057Y218735D01*
X349374Y219500D01*
D02*
G37*
G36*
X345000D02*
X342626D01*
X342943Y218735D01*
X343504Y218004D01*
X344235Y217443D01*
X345000Y217126D01*
Y219500D01*
D02*
G37*
G36*
X453500Y243026D02*
X452717Y242923D01*
X451987Y242620D01*
X451360Y242140D01*
X450879Y241513D01*
X450577Y240783D01*
X450474Y240000D01*
X450577Y239217D01*
X450879Y238487D01*
X451360Y237860D01*
X451987Y237380D01*
X452480Y237175D01*
Y222325D01*
X451987Y222120D01*
X451360Y221640D01*
X450879Y221013D01*
X450577Y220283D01*
X450474Y219500D01*
X450577Y218717D01*
X450879Y217987D01*
X451360Y217360D01*
X451987Y216880D01*
X452717Y216577D01*
X453500Y216474D01*
X454283Y216577D01*
X455013Y216880D01*
X455640Y217360D01*
X456120Y217987D01*
X456423Y218717D01*
X456526Y219500D01*
X456423Y220283D01*
X456120Y221013D01*
X455640Y221640D01*
X455013Y222120D01*
X454520Y222325D01*
Y237175D01*
X455013Y237380D01*
X455640Y237860D01*
X456120Y238487D01*
X456423Y239217D01*
X456526Y240000D01*
X456423Y240783D01*
X456120Y241513D01*
X455640Y242140D01*
X455013Y242620D01*
X454283Y242923D01*
X453500Y243026D01*
D02*
G37*
G36*
X401500Y193451D02*
Y190000D01*
X404951D01*
X404926Y190186D01*
X404469Y191291D01*
X403740Y192240D01*
X402791Y192969D01*
X401686Y193426D01*
X401500Y193451D01*
D02*
G37*
G36*
X399500D02*
X399314Y193426D01*
X398209Y192969D01*
X397260Y192240D01*
X396531Y191291D01*
X396074Y190186D01*
X396049Y190000D01*
X399500D01*
Y193451D01*
D02*
G37*
G36*
X384543Y193043D02*
X376457D01*
Y184957D01*
X384543D01*
Y193043D01*
D02*
G37*
G36*
X404951Y188000D02*
X401500D01*
Y184549D01*
X401686Y184574D01*
X402791Y185031D01*
X403740Y185760D01*
X404469Y186709D01*
X404926Y187814D01*
X404951Y188000D01*
D02*
G37*
G36*
X399500D02*
X396049D01*
X396074Y187814D01*
X396531Y186709D01*
X397260Y185760D01*
X398209Y185031D01*
X399314Y184574D01*
X399500Y184549D01*
Y188000D01*
D02*
G37*
%LPD*%
D11*
X457500Y259000D02*
X458500D01*
X374013Y249487D02*
X374987D01*
X388500Y263000D01*
X412500D01*
X426714Y243500D02*
X428214Y242000D01*
X412000Y243500D02*
X426714D01*
X410941Y244559D02*
X412000Y243500D01*
X441000Y247531D02*
Y249000D01*
X440235Y246765D02*
X441000Y247531D01*
X445000Y242000D02*
X453000Y250000D01*
X458500D01*
X428214Y242000D02*
X445000D01*
X391557Y277500D02*
X400843D01*
X390057Y276000D02*
X391557Y277500D01*
X380500Y276000D02*
X390057D01*
X400843Y277500D02*
X412343Y266000D01*
X453500Y219500D02*
Y240000D01*
X413035Y266000D02*
X416672Y262363D01*
X412343Y266000D02*
X413035D01*
X416672Y260328D02*
Y262363D01*
Y260328D02*
X420000Y257000D01*
X369500Y238500D02*
X380500Y227500D01*
X369500Y238500D02*
Y245000D01*
D45*
X533500Y291815D02*
D03*
D46*
Y311500D02*
D03*
X340815Y333000D02*
D03*
D47*
X360500D02*
D03*
D48*
X538000Y251000D02*
D03*
X371500Y373500D02*
D03*
X400500Y189000D02*
D03*
D49*
X538000Y231000D02*
D03*
D50*
X391500Y373500D02*
D03*
X380500Y189000D02*
D03*
D51*
X349000Y305000D02*
D03*
X358500Y244000D02*
D03*
X441000Y249000D02*
D03*
X458500Y259000D02*
D03*
X453500Y263000D02*
D03*
X458000Y267500D02*
D03*
X453500Y219500D02*
D03*
Y240000D02*
D03*
X391622Y250957D02*
D03*
X346000Y220500D02*
D03*
X346500Y232000D02*
D03*
X414000Y270000D02*
D03*
X365500Y276000D02*
D03*
X339000Y267500D02*
D03*
D52*
X374013Y249487D02*
D03*
X458500Y250000D02*
D03*
X380500Y276000D02*
D03*
X420000Y257000D02*
D03*
X380500Y227500D02*
D03*
X412500Y263000D02*
D03*
X369500Y245000D02*
D03*
X410941Y244559D02*
D03*
D53*
X453500Y263000D02*
X457500Y259000D01*
X453500Y263000D02*
X458000Y267500D01*
M02*
