G04*
G04 #@! TF.GenerationSoftware,Altium Limited,Altium Designer,19.1.8 (144)*
G04*
G04 Layer_Color=32896*
%FSLAX25Y25*%
%MOIN*%
G70*
G01*
G75*
%ADD12C,0.00600*%
D12*
X461400Y378658D02*
X460334D01*
X460867D01*
Y381856D01*
X461400Y381323D01*
X458201Y378124D02*
X457668Y378658D01*
Y379191D01*
X458201D01*
Y378658D01*
X457668D01*
X458201Y378124D01*
X458734Y377591D01*
X453403Y378658D02*
X455535D01*
X453403Y380790D01*
Y381323D01*
X453936Y381856D01*
X455002D01*
X455535Y381323D01*
X451803Y378124D02*
X451270Y378658D01*
Y379191D01*
X451803D01*
Y378658D01*
X451270D01*
X451803Y378124D01*
X452336Y377591D01*
X447005Y381856D02*
X448071Y381323D01*
X449137Y380257D01*
Y379191D01*
X448604Y378658D01*
X447538D01*
X447005Y379191D01*
Y379724D01*
X447538Y380257D01*
X449137D01*
X445405Y378124D02*
X444872Y378658D01*
Y379191D01*
X445405D01*
Y378658D01*
X444872D01*
X445405Y378124D01*
X445938Y377591D01*
X442739Y381856D02*
X440607D01*
Y381323D01*
X442739Y379191D01*
Y378658D01*
X439540Y380790D02*
X439007D01*
Y380257D01*
X439540D01*
Y380790D01*
Y379191D02*
X439007D01*
Y378658D01*
X439540D01*
Y379191D01*
X433676Y380257D02*
X431543D01*
X432609Y381323D02*
Y379191D01*
X428344Y378658D02*
X430477D01*
X428344Y380790D01*
Y381323D01*
X428877Y381856D01*
X429944D01*
X430477Y381323D01*
X425678Y378658D02*
Y381856D01*
X427278Y380257D01*
X425145D01*
X424079Y381856D02*
Y379724D01*
X423012Y378658D01*
X421946Y379724D01*
Y381856D01*
X461400Y376045D02*
X460867Y376578D01*
X459800D01*
X459267Y376045D01*
Y375511D01*
X459800Y374978D01*
X460334D01*
X459800D01*
X459267Y374445D01*
Y373912D01*
X459800Y373379D01*
X460867D01*
X461400Y373912D01*
X457668Y372846D02*
X457135Y373379D01*
Y373912D01*
X457668D01*
Y373379D01*
X457135D01*
X457668Y372846D01*
X458201Y372312D01*
X453403Y373379D02*
Y376578D01*
X455002Y374978D01*
X452869D01*
X451270Y372846D02*
X450737Y373379D01*
Y373912D01*
X451270D01*
Y373379D01*
X450737D01*
X451270Y372846D01*
X451803Y372312D01*
X448604Y376045D02*
X448071Y376578D01*
X447005D01*
X446472Y376045D01*
Y375511D01*
X447005Y374978D01*
X446472Y374445D01*
Y373912D01*
X447005Y373379D01*
X448071D01*
X448604Y373912D01*
Y374445D01*
X448071Y374978D01*
X448604Y375511D01*
Y376045D01*
X448071Y374978D02*
X447005D01*
X444872Y372846D02*
X444339Y373379D01*
Y373912D01*
X444872D01*
Y373379D01*
X444339D01*
X444872Y372846D01*
X445405Y372312D01*
X442206Y373912D02*
X441673Y373379D01*
X440607D01*
X440073Y373912D01*
Y376045D01*
X440607Y376578D01*
X441673D01*
X442206Y376045D01*
Y375511D01*
X441673Y374978D01*
X440073D01*
X439007Y375511D02*
X438474D01*
Y374978D01*
X439007D01*
Y375511D01*
Y373912D02*
X438474D01*
Y373379D01*
X439007D01*
Y373912D01*
X431010Y376045D02*
X431543Y376578D01*
X432609D01*
X433142Y376045D01*
Y373912D01*
X432609Y373379D01*
X431543D01*
X431010Y373912D01*
Y374978D01*
X432076D01*
X429944Y373379D02*
Y376578D01*
X427811Y373379D01*
Y376578D01*
X426745D02*
Y373379D01*
X425145D01*
X424612Y373912D01*
Y376045D01*
X425145Y376578D01*
X426745D01*
X459267Y371299D02*
X461400D01*
Y369700D01*
X460334Y370233D01*
X459800D01*
X459267Y369700D01*
Y368633D01*
X459800Y368100D01*
X460867D01*
X461400Y368633D01*
X458201Y370233D02*
X457668D01*
Y369700D01*
X458201D01*
Y370233D01*
Y368633D02*
X457668D01*
Y368100D01*
X458201D01*
Y368633D01*
X452336Y368100D02*
Y371299D01*
X450737D01*
X450204Y370766D01*
Y369700D01*
X450737Y369166D01*
X452336D01*
X447005Y370766D02*
X447538Y371299D01*
X448604D01*
X449137Y370766D01*
Y368633D01*
X448604Y368100D01*
X447538D01*
X447005Y368633D01*
Y369700D01*
X448071D01*
X444339Y371299D02*
X445405D01*
X445938Y370766D01*
Y368633D01*
X445405Y368100D01*
X444339D01*
X443806Y368633D01*
Y370766D01*
X444339Y371299D01*
X441140D02*
X442206D01*
X442739Y370766D01*
Y368633D01*
X442206Y368100D01*
X441140D01*
X440607Y368633D01*
Y370766D01*
X441140Y371299D01*
X439540D02*
Y368100D01*
X437941D01*
X437408Y368633D01*
Y370766D01*
X437941Y371299D01*
X439540D01*
X406400Y338000D02*
Y341199D01*
X408000Y339599D01*
X405867D01*
X397000Y340666D02*
X396467Y341199D01*
X395401D01*
X394867Y340666D01*
Y340133D01*
X395401Y339599D01*
X395934D01*
X395401D01*
X394867Y339066D01*
Y338533D01*
X395401Y338000D01*
X396467D01*
X397000Y338533D01*
X383867Y338000D02*
X386000D01*
X383867Y340133D01*
Y340666D01*
X384401Y341199D01*
X385467D01*
X386000Y340666D01*
X402500Y367166D02*
X401967Y367699D01*
X400901D01*
X400367Y367166D01*
Y366633D01*
X400901Y366100D01*
X400367Y365566D01*
Y365033D01*
X400901Y364500D01*
X401967D01*
X402500Y365033D01*
Y365566D01*
X401967Y366100D01*
X402500Y366633D01*
Y367166D01*
X401967Y366100D02*
X400901D01*
X391500Y367699D02*
X389367D01*
Y367166D01*
X391500Y365033D01*
Y364500D01*
X378367Y367699D02*
X379434Y367166D01*
X380500Y366100D01*
Y365033D01*
X379967Y364500D01*
X378901D01*
X378367Y365033D01*
Y365566D01*
X378901Y366100D01*
X380500D01*
X413500Y365033D02*
X412967Y364500D01*
X411901D01*
X411367Y365033D01*
Y367166D01*
X411901Y367699D01*
X412967D01*
X413500Y367166D01*
Y366633D01*
X412967Y366100D01*
X411367D01*
X416867Y340699D02*
X419000D01*
Y339100D01*
X417934Y339633D01*
X417401D01*
X416867Y339100D01*
Y338033D01*
X417401Y337500D01*
X418467D01*
X419000Y338033D01*
X374500Y338000D02*
X373434D01*
X373967D01*
Y341199D01*
X374500Y340666D01*
M02*
