G04*
G04 #@! TF.GenerationSoftware,Altium Limited,Altium Designer,19.1.8 (144)*
G04*
G04 Layer_Physical_Order=2*
G04 Layer_Color=16711680*
%FSLAX25Y25*%
%MOIN*%
G70*
G01*
G75*
%ADD11C,0.01000*%
%ADD63C,0.00800*%
%ADD67C,0.05906*%
%ADD68R,0.05906X0.05906*%
%ADD69C,0.06000*%
%ADD70R,0.06000X0.06000*%
%ADD71C,0.18740*%
%ADD72R,0.06653X0.06653*%
%ADD73C,0.06653*%
%ADD74C,0.03000*%
%ADD75C,0.05000*%
%ADD76C,0.20000*%
%ADD77C,0.08000*%
%ADD78C,0.36000*%
%ADD79C,0.02700*%
G36*
X557500Y143500D02*
X249000Y143500D01*
X249000Y353500D01*
X557500Y353500D01*
X557500Y143500D01*
D02*
G37*
%LPC*%
G36*
X382500Y351911D02*
Y348000D01*
X386411D01*
X386371Y348305D01*
X385868Y349522D01*
X385066Y350566D01*
X384022Y351367D01*
X382805Y351871D01*
X382500Y351911D01*
D02*
G37*
G36*
X380500D02*
X380195Y351871D01*
X378978Y351367D01*
X377934Y350566D01*
X377133Y349522D01*
X376629Y348305D01*
X376589Y348000D01*
X380500D01*
Y351911D01*
D02*
G37*
G36*
X275591Y352375D02*
Y343051D01*
X284914D01*
X284865Y343678D01*
X284484Y345266D01*
X283859Y346774D01*
X283006Y348165D01*
X281946Y349407D01*
X280705Y350467D01*
X279313Y351320D01*
X277805Y351944D01*
X276218Y352325D01*
X275591Y352375D01*
D02*
G37*
G36*
X273591D02*
X272963Y352325D01*
X271376Y351944D01*
X269868Y351320D01*
X268476Y350467D01*
X267235Y349407D01*
X266175Y348165D01*
X265322Y346774D01*
X264698Y345266D01*
X264317Y343678D01*
X264267Y343051D01*
X273591D01*
Y352375D01*
D02*
G37*
G36*
X392000Y351741D02*
X390773Y351579D01*
X389630Y351105D01*
X388648Y350352D01*
X387895Y349370D01*
X387421Y348227D01*
X387259Y347000D01*
X387421Y345773D01*
X387895Y344630D01*
X388648Y343648D01*
X389630Y342895D01*
X390773Y342421D01*
X392000Y342259D01*
X393227Y342421D01*
X394370Y342895D01*
X395352Y343648D01*
X396106Y344630D01*
X396579Y345773D01*
X396741Y347000D01*
X396579Y348227D01*
X396106Y349370D01*
X395352Y350352D01*
X394370Y351105D01*
X393227Y351579D01*
X392000Y351741D01*
D02*
G37*
G36*
X386411Y346000D02*
X382500D01*
Y342089D01*
X382805Y342129D01*
X384022Y342633D01*
X385066Y343434D01*
X385868Y344478D01*
X386371Y345695D01*
X386411Y346000D01*
D02*
G37*
G36*
X380500D02*
X376589D01*
X376629Y345695D01*
X377133Y344478D01*
X377934Y343434D01*
X378978Y342633D01*
X380195Y342129D01*
X380500Y342089D01*
Y346000D01*
D02*
G37*
G36*
X284914Y341051D02*
X275591D01*
Y331728D01*
X276218Y331777D01*
X277805Y332158D01*
X279313Y332783D01*
X280705Y333636D01*
X281946Y334696D01*
X283006Y335937D01*
X283859Y337329D01*
X284484Y338837D01*
X284865Y340424D01*
X284914Y341051D01*
D02*
G37*
G36*
X273591D02*
X264267D01*
X264317Y340424D01*
X264698Y338837D01*
X265322Y337329D01*
X266175Y335937D01*
X267235Y334696D01*
X268476Y333636D01*
X269868Y332783D01*
X271376Y332158D01*
X272963Y331777D01*
X273591Y331728D01*
Y341051D01*
D02*
G37*
G36*
X535000Y340733D02*
X533321Y340601D01*
X531683Y340208D01*
X530127Y339563D01*
X528691Y338683D01*
X527411Y337589D01*
X526317Y336309D01*
X525437Y334873D01*
X524792Y333317D01*
X524399Y331679D01*
X524267Y330000D01*
X524399Y328321D01*
X524792Y326683D01*
X525437Y325127D01*
X526317Y323691D01*
X527411Y322411D01*
X528691Y321317D01*
X530127Y320437D01*
X531683Y319792D01*
X533321Y319399D01*
X535000Y319267D01*
X536679Y319399D01*
X538317Y319792D01*
X539873Y320437D01*
X541309Y321317D01*
X542589Y322411D01*
X543683Y323691D01*
X544563Y325127D01*
X545208Y326683D01*
X545601Y328321D01*
X545733Y330000D01*
X545601Y331679D01*
X545208Y333317D01*
X544563Y334873D01*
X543683Y336309D01*
X542589Y337589D01*
X541309Y338683D01*
X539873Y339563D01*
X538317Y340208D01*
X536679Y340601D01*
X535000Y340733D01*
D02*
G37*
G36*
X310500Y339733D02*
X308821Y339601D01*
X307183Y339208D01*
X305627Y338563D01*
X304191Y337683D01*
X302911Y336589D01*
X301817Y335309D01*
X300937Y333873D01*
X300292Y332317D01*
X299899Y330679D01*
X299767Y329000D01*
X299899Y327321D01*
X300292Y325683D01*
X300937Y324127D01*
X301817Y322691D01*
X302911Y321411D01*
X304191Y320317D01*
X305627Y319437D01*
X307183Y318792D01*
X308821Y318399D01*
X310500Y318267D01*
X312179Y318399D01*
X313817Y318792D01*
X315373Y319437D01*
X316809Y320317D01*
X318089Y321411D01*
X319183Y322691D01*
X320063Y324127D01*
X320708Y325683D01*
X321101Y327321D01*
X321233Y329000D01*
X321101Y330679D01*
X320708Y332317D01*
X320063Y333873D01*
X319183Y335309D01*
X318089Y336589D01*
X316809Y337683D01*
X315373Y338563D01*
X313817Y339208D01*
X312179Y339601D01*
X310500Y339733D01*
D02*
G37*
G36*
X280181Y318731D02*
X279130Y318592D01*
X278150Y318187D01*
X277309Y317541D01*
X276664Y316700D01*
X276258Y315721D01*
X276120Y314669D01*
X276258Y313618D01*
X276664Y312638D01*
X277309Y311797D01*
X278150Y311152D01*
X279130Y310746D01*
X280181Y310608D01*
X281232Y310746D01*
X282212Y311152D01*
X283053Y311797D01*
X283699Y312638D01*
X284104Y313618D01*
X284243Y314669D01*
X284104Y315721D01*
X283699Y316700D01*
X283053Y317541D01*
X282212Y318187D01*
X281232Y318592D01*
X280181Y318731D01*
D02*
G37*
G36*
X270000Y313449D02*
Y310216D01*
X273233D01*
X273215Y310346D01*
X272779Y311399D01*
X272086Y312302D01*
X271182Y312996D01*
X270129Y313432D01*
X270000Y313449D01*
D02*
G37*
G36*
X268000D02*
X267870Y313432D01*
X266818Y312996D01*
X265914Y312302D01*
X265221Y311399D01*
X264785Y310346D01*
X264768Y310216D01*
X268000D01*
Y313449D01*
D02*
G37*
G36*
X273233Y308217D02*
X270000D01*
Y304984D01*
X270129Y305001D01*
X271182Y305437D01*
X272086Y306131D01*
X272779Y307034D01*
X273215Y308087D01*
X273233Y308217D01*
D02*
G37*
G36*
X268000D02*
X264768D01*
X264785Y308087D01*
X265221Y307034D01*
X265914Y306131D01*
X266818Y305437D01*
X267870Y305001D01*
X268000Y304984D01*
Y308217D01*
D02*
G37*
G36*
X281181Y307996D02*
Y304764D01*
X284414D01*
X284397Y304893D01*
X283961Y305946D01*
X283267Y306850D01*
X282363Y307543D01*
X281311Y307979D01*
X281181Y307996D01*
D02*
G37*
G36*
X279181D02*
X279052Y307979D01*
X277999Y307543D01*
X277095Y306850D01*
X276402Y305946D01*
X275966Y304893D01*
X275949Y304764D01*
X279181D01*
Y307996D01*
D02*
G37*
G36*
X349500Y306374D02*
Y304000D01*
X351874D01*
X351557Y304765D01*
X350996Y305496D01*
X350265Y306057D01*
X349500Y306374D01*
D02*
G37*
G36*
X347500D02*
X346735Y306057D01*
X346004Y305496D01*
X345443Y304765D01*
X345126Y304000D01*
X347500D01*
Y306374D01*
D02*
G37*
G36*
X351874Y302000D02*
X349500D01*
Y299626D01*
X350265Y299943D01*
X350996Y300504D01*
X351557Y301235D01*
X351874Y302000D01*
D02*
G37*
G36*
X347500D02*
X345126D01*
X345443Y301235D01*
X346004Y300504D01*
X346735Y299943D01*
X347500Y299626D01*
Y302000D01*
D02*
G37*
G36*
X284414Y302764D02*
X281181D01*
Y299531D01*
X281311Y299548D01*
X282363Y299984D01*
X283267Y300678D01*
X283961Y301582D01*
X284397Y302634D01*
X284414Y302764D01*
D02*
G37*
G36*
X279181D02*
X275949D01*
X275966Y302634D01*
X276402Y301582D01*
X277095Y300678D01*
X277999Y299984D01*
X279052Y299548D01*
X279181Y299531D01*
Y302764D01*
D02*
G37*
G36*
X480500Y347500D02*
X476000Y343000D01*
X476000Y272000D01*
X464500Y260500D01*
X457910D01*
Y255633D01*
X463000Y255478D01*
X463000Y234500D01*
X467000Y230500D01*
X467000Y223000D01*
X485000Y223000D01*
X485000Y249000D01*
X497500Y261500D01*
X510500Y261500D01*
X515500Y266500D01*
Y303500D01*
X543500Y303500D01*
X543500Y299500D01*
X554500Y299500D01*
X554500Y310500D01*
X543500Y310500D01*
X543500Y306854D01*
X543146Y306500D01*
X515500Y306500D01*
Y343500D01*
X511500Y347500D01*
X480500Y347500D01*
D02*
G37*
G36*
X270000Y302543D02*
Y299311D01*
X273233D01*
X273215Y299441D01*
X272779Y300493D01*
X272086Y301397D01*
X271182Y302091D01*
X270129Y302526D01*
X270000Y302543D01*
D02*
G37*
G36*
X268000D02*
X267870Y302526D01*
X266818Y302091D01*
X265914Y301397D01*
X265221Y300493D01*
X264785Y299441D01*
X264768Y299311D01*
X268000D01*
Y302543D01*
D02*
G37*
G36*
X273233Y297311D02*
X270000D01*
Y294079D01*
X270129Y294096D01*
X271182Y294532D01*
X272086Y295225D01*
X272779Y296129D01*
X273215Y297182D01*
X273233Y297311D01*
D02*
G37*
G36*
X268000D02*
X264768D01*
X264785Y297182D01*
X265221Y296129D01*
X265914Y295225D01*
X266818Y294532D01*
X267870Y294096D01*
X268000Y294079D01*
Y297311D01*
D02*
G37*
G36*
X281181Y297091D02*
Y293858D01*
X284414D01*
X284397Y293988D01*
X283961Y295040D01*
X283267Y295944D01*
X282363Y296638D01*
X281311Y297074D01*
X281181Y297091D01*
D02*
G37*
G36*
X279181D02*
X279052Y297074D01*
X277999Y296638D01*
X277095Y295944D01*
X276402Y295040D01*
X275966Y293988D01*
X275949Y293858D01*
X279181D01*
Y297091D01*
D02*
G37*
G36*
X550000Y296411D02*
Y292500D01*
X553911D01*
X553871Y292805D01*
X553368Y294022D01*
X552566Y295066D01*
X551522Y295867D01*
X550305Y296371D01*
X550000Y296411D01*
D02*
G37*
G36*
X548000D02*
X547695Y296371D01*
X546478Y295867D01*
X545434Y295066D01*
X544632Y294022D01*
X544129Y292805D01*
X544089Y292500D01*
X548000D01*
Y296411D01*
D02*
G37*
G36*
X284414Y291858D02*
X281181D01*
Y288626D01*
X281311Y288643D01*
X282363Y289079D01*
X283267Y289772D01*
X283961Y290676D01*
X284397Y291729D01*
X284414Y291858D01*
D02*
G37*
G36*
X279181D02*
X275949D01*
X275966Y291729D01*
X276402Y290676D01*
X277095Y289772D01*
X277999Y289079D01*
X279052Y288643D01*
X279181Y288626D01*
Y291858D01*
D02*
G37*
G36*
X387500Y289339D02*
Y288000D01*
X388839D01*
X388302Y288802D01*
X387500Y289339D01*
D02*
G37*
G36*
X385500D02*
X384698Y288802D01*
X384161Y288000D01*
X385500D01*
Y289339D01*
D02*
G37*
G36*
X553911Y290500D02*
X550000D01*
Y286589D01*
X550305Y286629D01*
X551522Y287133D01*
X552566Y287934D01*
X553368Y288978D01*
X553871Y290195D01*
X553911Y290500D01*
D02*
G37*
G36*
X548000D02*
X544089D01*
X544129Y290195D01*
X544632Y288978D01*
X545434Y287934D01*
X546478Y287133D01*
X547695Y286629D01*
X548000Y286589D01*
Y290500D01*
D02*
G37*
G36*
X388839Y286000D02*
X387500D01*
Y284662D01*
X388302Y285198D01*
X388839Y286000D01*
D02*
G37*
G36*
X385500D02*
X384161D01*
X384698Y285198D01*
X385500Y284662D01*
Y286000D01*
D02*
G37*
G36*
X269000Y291467D02*
X267949Y291329D01*
X266969Y290923D01*
X266128Y290277D01*
X265483Y289436D01*
X265077Y288457D01*
X264938Y287405D01*
X265077Y286354D01*
X265483Y285375D01*
X266128Y284534D01*
X266969Y283888D01*
X267949Y283482D01*
X269000Y283344D01*
X270051Y283482D01*
X271031Y283888D01*
X271872Y284534D01*
X272517Y285375D01*
X272923Y286354D01*
X273061Y287405D01*
X272923Y288457D01*
X272517Y289436D01*
X271872Y290277D01*
X271031Y290923D01*
X270051Y291329D01*
X269000Y291467D01*
D02*
G37*
G36*
X280181Y286014D02*
X279130Y285876D01*
X278150Y285470D01*
X277309Y284825D01*
X276664Y283983D01*
X276258Y283004D01*
X276120Y281953D01*
X276258Y280902D01*
X276664Y279922D01*
X277309Y279081D01*
X278150Y278435D01*
X279130Y278030D01*
X280181Y277891D01*
X281232Y278030D01*
X282212Y278435D01*
X283053Y279081D01*
X283699Y279922D01*
X284104Y280902D01*
X284243Y281953D01*
X284104Y283004D01*
X283699Y283983D01*
X283053Y284825D01*
X282212Y285470D01*
X281232Y285876D01*
X280181Y286014D01*
D02*
G37*
G36*
X269000Y280561D02*
X267949Y280423D01*
X266969Y280017D01*
X266128Y279372D01*
X265483Y278531D01*
X265077Y277551D01*
X264938Y276500D01*
X265077Y275449D01*
X265483Y274469D01*
X266128Y273628D01*
X266969Y272983D01*
X267949Y272577D01*
X269000Y272439D01*
X270051Y272577D01*
X271031Y272983D01*
X271872Y273628D01*
X272517Y274469D01*
X272923Y275449D01*
X273061Y276500D01*
X272923Y277551D01*
X272517Y278531D01*
X271872Y279372D01*
X271031Y280017D01*
X270051Y280423D01*
X269000Y280561D01*
D02*
G37*
G36*
X284208Y275074D02*
X276154D01*
Y267021D01*
X284208D01*
Y275074D01*
D02*
G37*
G36*
X304500Y265874D02*
Y263500D01*
X306874D01*
X306557Y264265D01*
X305996Y264996D01*
X305265Y265557D01*
X304500Y265874D01*
D02*
G37*
G36*
X302500D02*
X301735Y265557D01*
X301004Y264996D01*
X300443Y264265D01*
X300126Y263500D01*
X302500D01*
Y265874D01*
D02*
G37*
G36*
X306874Y261500D02*
X304500D01*
Y259126D01*
X305265Y259443D01*
X305996Y260004D01*
X306557Y260735D01*
X306874Y261500D01*
D02*
G37*
G36*
X302500D02*
X300126D01*
X300443Y260735D01*
X301004Y260004D01*
X301735Y259443D01*
X302500Y259126D01*
Y261500D01*
D02*
G37*
G36*
X421500Y259374D02*
Y257000D01*
X423874D01*
X423557Y257765D01*
X422996Y258496D01*
X422265Y259057D01*
X421500Y259374D01*
D02*
G37*
G36*
X419500D02*
X418735Y259057D01*
X418004Y258496D01*
X417443Y257765D01*
X417126Y257000D01*
X419500D01*
Y259374D01*
D02*
G37*
G36*
X376500Y258338D02*
Y257000D01*
X377838D01*
X377302Y257802D01*
X376500Y258338D01*
D02*
G37*
G36*
X374500D02*
X373698Y257802D01*
X373162Y257000D01*
X374500D01*
Y258338D01*
D02*
G37*
G36*
X366000Y257839D02*
Y256500D01*
X367338D01*
X366802Y257302D01*
X366000Y257839D01*
D02*
G37*
G36*
X364000D02*
X363198Y257302D01*
X362662Y256500D01*
X364000D01*
Y257839D01*
D02*
G37*
G36*
X401000Y281243D02*
X400142Y281072D01*
X399414Y280586D01*
X398928Y279858D01*
X398757Y279000D01*
X398928Y278142D01*
X399414Y277414D01*
X400142Y276928D01*
X401000Y276757D01*
X401428Y276842D01*
X404277Y273993D01*
Y260500D01*
X404370Y260032D01*
X404635Y259635D01*
X407925Y256344D01*
X407946Y256244D01*
X407866Y255763D01*
X407846Y255736D01*
X407198Y255302D01*
X406662Y254500D01*
X411463D01*
X411583Y254678D01*
X411733Y254810D01*
X412000Y254757D01*
X412858Y254928D01*
X413586Y255414D01*
X414072Y256142D01*
X414243Y257000D01*
X414072Y257858D01*
X413586Y258586D01*
X412858Y259072D01*
X412000Y259243D01*
X411142Y259072D01*
X410414Y258586D01*
X410172Y258224D01*
X409507D01*
X406723Y261007D01*
Y274500D01*
X406630Y274968D01*
X406365Y275365D01*
X403158Y278572D01*
X403243Y279000D01*
X403072Y279858D01*
X402586Y280586D01*
X401858Y281072D01*
X401000Y281243D01*
D02*
G37*
G36*
X377838Y255000D02*
X376500D01*
Y253661D01*
X377302Y254198D01*
X377838Y255000D01*
D02*
G37*
G36*
X374500D02*
X373162D01*
X373698Y254198D01*
X374500Y253661D01*
Y255000D01*
D02*
G37*
G36*
X367338Y254500D02*
X366000D01*
Y253162D01*
X366802Y253698D01*
X367338Y254500D01*
D02*
G37*
G36*
X364000D02*
X362662D01*
X363198Y253698D01*
X364000Y253162D01*
Y254500D01*
D02*
G37*
G36*
X423874Y255000D02*
X421500D01*
Y252626D01*
X422265Y252943D01*
X422996Y253504D01*
X423557Y254235D01*
X423874Y255000D01*
D02*
G37*
G36*
X419500D02*
X417126D01*
X417443Y254235D01*
X418004Y253504D01*
X418735Y252943D01*
X419500Y252626D01*
Y255000D01*
D02*
G37*
G36*
X449000Y254374D02*
Y252000D01*
X451374D01*
X451057Y252765D01*
X450496Y253496D01*
X449765Y254057D01*
X449000Y254374D01*
D02*
G37*
G36*
X447000D02*
X446235Y254057D01*
X445504Y253496D01*
X444943Y252765D01*
X444626Y252000D01*
X447000D01*
Y254374D01*
D02*
G37*
G36*
X325000Y259184D02*
X324046Y259059D01*
X323158Y258691D01*
X322395Y258105D01*
X321809Y257342D01*
X321441Y256454D01*
X321316Y255500D01*
X321441Y254546D01*
X321809Y253658D01*
X322395Y252895D01*
X323158Y252309D01*
X324046Y251941D01*
X325000Y251816D01*
X325954Y251941D01*
X326842Y252309D01*
X327605Y252895D01*
X328191Y253658D01*
X328559Y254546D01*
X328684Y255500D01*
X328559Y256454D01*
X328191Y257342D01*
X327605Y258105D01*
X326842Y258691D01*
X325954Y259059D01*
X325000Y259184D01*
D02*
G37*
G36*
X315000D02*
X314046Y259059D01*
X313158Y258691D01*
X312395Y258105D01*
X311809Y257342D01*
X311441Y256454D01*
X311316Y255500D01*
X311441Y254546D01*
X311809Y253658D01*
X312395Y252895D01*
X313158Y252309D01*
X314046Y251941D01*
X315000Y251816D01*
X315954Y251941D01*
X316842Y252309D01*
X317605Y252895D01*
X318191Y253658D01*
X318559Y254546D01*
X318684Y255500D01*
X318559Y256454D01*
X318191Y257342D01*
X317605Y258105D01*
X316842Y258691D01*
X315954Y259059D01*
X315000Y259184D01*
D02*
G37*
G36*
X411339Y252500D02*
X410000D01*
Y251162D01*
X410802Y251698D01*
X411339Y252500D01*
D02*
G37*
G36*
X408000D02*
X406662D01*
X407198Y251698D01*
X408000Y251162D01*
Y252500D01*
D02*
G37*
G36*
X447000Y250000D02*
X444626D01*
X444943Y249235D01*
X444546Y248932D01*
X444496Y248996D01*
X443765Y249557D01*
X443000Y249874D01*
Y247500D01*
X445374D01*
X445057Y248265D01*
X445454Y248568D01*
X445504Y248504D01*
X446235Y247943D01*
X447000Y247626D01*
Y250000D01*
D02*
G37*
G36*
X451374D02*
X449000D01*
Y247626D01*
X449765Y247943D01*
X450496Y248504D01*
X451057Y249235D01*
X451374Y250000D01*
D02*
G37*
G36*
X441000Y249874D02*
X440235Y249557D01*
X439504Y248996D01*
X438943Y248265D01*
X438626Y247500D01*
X441000D01*
Y249874D01*
D02*
G37*
G36*
X275590Y253989D02*
Y244665D01*
X284914D01*
X284865Y245293D01*
X284484Y246880D01*
X283859Y248388D01*
X283006Y249780D01*
X281946Y251021D01*
X280705Y252081D01*
X279313Y252934D01*
X277805Y253558D01*
X276218Y253939D01*
X275590Y253989D01*
D02*
G37*
G36*
X273590D02*
X272963Y253939D01*
X271376Y253558D01*
X269868Y252934D01*
X268476Y252081D01*
X267235Y251021D01*
X266175Y249780D01*
X265322Y248388D01*
X264698Y246880D01*
X264317Y245293D01*
X264267Y244665D01*
X273590D01*
Y253989D01*
D02*
G37*
G36*
X449500Y245874D02*
Y243500D01*
X451874D01*
X451557Y244265D01*
X450996Y244996D01*
X450265Y245557D01*
X449500Y245874D01*
D02*
G37*
G36*
X447500D02*
X446735Y245557D01*
X446004Y244996D01*
X445443Y244265D01*
X445126Y243500D01*
X447500D01*
Y245874D01*
D02*
G37*
G36*
X445374Y245500D02*
X443000D01*
Y243126D01*
X443765Y243443D01*
X444496Y244004D01*
X445057Y244735D01*
X445374Y245500D01*
D02*
G37*
G36*
X441000D02*
X438626D01*
X438943Y244735D01*
X439504Y244004D01*
X440235Y243443D01*
X441000Y243126D01*
Y245500D01*
D02*
G37*
G36*
X328653Y249153D02*
X321347D01*
Y241847D01*
X328653D01*
Y249153D01*
D02*
G37*
G36*
X315000Y249184D02*
X314046Y249059D01*
X313158Y248691D01*
X312395Y248105D01*
X311809Y247342D01*
X311441Y246454D01*
X311316Y245500D01*
X311441Y244546D01*
X311809Y243658D01*
X312395Y242895D01*
X313158Y242309D01*
X314046Y241941D01*
X315000Y241816D01*
X315954Y241941D01*
X316842Y242309D01*
X317605Y242895D01*
X318191Y243658D01*
X318559Y244546D01*
X318684Y245500D01*
X318559Y246454D01*
X318191Y247342D01*
X317605Y248105D01*
X316842Y248691D01*
X315954Y249059D01*
X315000Y249184D01*
D02*
G37*
G36*
X414000Y244743D02*
X413142Y244572D01*
X412414Y244086D01*
X411928Y243358D01*
X411757Y242500D01*
X411866Y241952D01*
X409048Y239134D01*
X408500Y239243D01*
X407642Y239072D01*
X406914Y238586D01*
X406428Y237858D01*
X406257Y237000D01*
X406428Y236142D01*
X406914Y235414D01*
X407642Y234928D01*
X408500Y234757D01*
X409358Y234928D01*
X410086Y235414D01*
X410572Y236142D01*
X410743Y237000D01*
X410634Y237548D01*
X413452Y240366D01*
X414000Y240257D01*
X414858Y240428D01*
X415586Y240914D01*
X416072Y241642D01*
X416243Y242500D01*
X416072Y243358D01*
X415586Y244086D01*
X414858Y244572D01*
X414000Y244743D01*
D02*
G37*
G36*
X451874Y241500D02*
X449500D01*
Y239126D01*
X450265Y239443D01*
X450996Y240004D01*
X451557Y240735D01*
X451874Y241500D01*
D02*
G37*
G36*
X447500D02*
X445126D01*
X445443Y240735D01*
X446004Y240004D01*
X446735Y239443D01*
X447500Y239126D01*
Y241500D01*
D02*
G37*
G36*
X364500Y238338D02*
Y237000D01*
X365839D01*
X365302Y237802D01*
X364500Y238338D01*
D02*
G37*
G36*
X362500D02*
X361698Y237802D01*
X361161Y237000D01*
X362500D01*
Y238338D01*
D02*
G37*
G36*
X339000Y238559D02*
Y236185D01*
X341374D01*
X341057Y236950D01*
X340496Y237681D01*
X339765Y238242D01*
X339000Y238559D01*
D02*
G37*
G36*
X337000D02*
X336235Y238242D01*
X335504Y237681D01*
X334943Y236950D01*
X334626Y236185D01*
X337000D01*
Y238559D01*
D02*
G37*
G36*
X373068Y236525D02*
Y235186D01*
X374407D01*
X373870Y235989D01*
X373068Y236525D01*
D02*
G37*
G36*
X421500Y235839D02*
Y234500D01*
X422839D01*
X422302Y235302D01*
X421500Y235839D01*
D02*
G37*
G36*
X419500D02*
X418698Y235302D01*
X418161Y234500D01*
X419500D01*
Y235839D01*
D02*
G37*
G36*
X391122Y236331D02*
Y233957D01*
X393496D01*
X393179Y234722D01*
X392618Y235453D01*
X391887Y236014D01*
X391122Y236331D01*
D02*
G37*
G36*
X389122D02*
X388357Y236014D01*
X387626Y235453D01*
X387065Y234722D01*
X386748Y233957D01*
X389122D01*
Y236331D01*
D02*
G37*
G36*
X371068Y236525D02*
X370266Y235989D01*
X369713Y235162D01*
X369527Y234225D01*
X369367Y234111D01*
X369055Y233957D01*
X368614Y234295D01*
X367835Y234618D01*
X367000Y234728D01*
X366186Y234620D01*
X366123Y234673D01*
X365874Y235000D01*
X361161D01*
X361698Y234198D01*
X362525Y233645D01*
X363500Y233451D01*
X363893Y233529D01*
X364133Y233210D01*
X364190Y233079D01*
X363882Y232335D01*
X363772Y231500D01*
X363882Y230665D01*
X364157Y230001D01*
X363821Y229661D01*
X363791Y229644D01*
X363500Y229838D01*
Y228500D01*
X364857D01*
X365215Y228836D01*
X365386Y228705D01*
X366165Y228382D01*
X367000Y228272D01*
X367835Y228382D01*
X368614Y228705D01*
X368977Y228983D01*
X369500Y228754D01*
X369645Y228025D01*
X370198Y227198D01*
X371000Y226661D01*
Y229000D01*
X372000D01*
Y230000D01*
X374339D01*
X373802Y230802D01*
X373030Y231319D01*
X373013Y231560D01*
X373066Y231847D01*
X373870Y232384D01*
X374407Y233186D01*
X372068D01*
Y234186D01*
X371068D01*
Y236525D01*
D02*
G37*
G36*
X284914Y242665D02*
X275590D01*
Y233342D01*
X276218Y233391D01*
X277805Y233772D01*
X279313Y234397D01*
X280705Y235250D01*
X281946Y236310D01*
X283006Y237551D01*
X283859Y238943D01*
X284484Y240451D01*
X284865Y242038D01*
X284914Y242665D01*
D02*
G37*
G36*
X273590D02*
X264267D01*
X264317Y242038D01*
X264698Y240451D01*
X265322Y238943D01*
X266175Y237551D01*
X267235Y236310D01*
X268476Y235250D01*
X269868Y234397D01*
X271376Y233772D01*
X272963Y233391D01*
X273590Y233342D01*
Y242665D01*
D02*
G37*
G36*
X341374Y234185D02*
X339000D01*
Y231811D01*
X339765Y232128D01*
X340496Y232689D01*
X341057Y233420D01*
X341374Y234185D01*
D02*
G37*
G36*
X337000D02*
X334626D01*
X334943Y233420D01*
X335504Y232689D01*
X336235Y232128D01*
X337000Y231811D01*
Y234185D01*
D02*
G37*
G36*
X422839Y232500D02*
X421500D01*
Y231161D01*
X422302Y231698D01*
X422839Y232500D01*
D02*
G37*
G36*
X419500D02*
X418161D01*
X418698Y231698D01*
X419500Y231161D01*
Y232500D01*
D02*
G37*
G36*
X393496Y231957D02*
X391122D01*
Y229583D01*
X391887Y229899D01*
X392618Y230461D01*
X393179Y231192D01*
X393496Y231957D01*
D02*
G37*
G36*
X389122D02*
X386748D01*
X387065Y231192D01*
X387626Y230461D01*
X388357Y229899D01*
X389122Y229583D01*
Y231957D01*
D02*
G37*
G36*
X361500Y229838D02*
X360698Y229302D01*
X360161Y228500D01*
X361500D01*
Y229838D01*
D02*
G37*
G36*
X374339Y228000D02*
X373000D01*
Y226661D01*
X373802Y227198D01*
X374339Y228000D01*
D02*
G37*
G36*
X364839Y226500D02*
X363500D01*
Y225162D01*
X364302Y225698D01*
X364839Y226500D01*
D02*
G37*
G36*
X361500D02*
X360161D01*
X360698Y225698D01*
X361500Y225162D01*
Y226500D01*
D02*
G37*
G36*
X511000Y227903D02*
Y225000D01*
X513903D01*
X513897Y225044D01*
X513494Y226017D01*
X512853Y226853D01*
X512017Y227494D01*
X511044Y227897D01*
X511000Y227903D01*
D02*
G37*
G36*
X509000D02*
X508956Y227897D01*
X507983Y227494D01*
X507147Y226853D01*
X506506Y226017D01*
X506103Y225044D01*
X506097Y225000D01*
X509000D01*
Y227903D01*
D02*
G37*
G36*
X513903Y223000D02*
X511000D01*
Y220097D01*
X511044Y220103D01*
X512017Y220506D01*
X512853Y221147D01*
X513494Y221983D01*
X513897Y222956D01*
X513903Y223000D01*
D02*
G37*
G36*
X509000D02*
X506097D01*
X506103Y222956D01*
X506506Y221983D01*
X507147Y221147D01*
X507983Y220506D01*
X508956Y220103D01*
X509000Y220097D01*
Y223000D01*
D02*
G37*
G36*
X544750Y229500D02*
X534250D01*
Y219000D01*
X544750D01*
Y229500D01*
D02*
G37*
G36*
X358256Y218338D02*
Y217000D01*
X359594D01*
X359058Y217802D01*
X358256Y218338D01*
D02*
G37*
G36*
X356256D02*
X355453Y217802D01*
X354917Y217000D01*
X356256D01*
Y218338D01*
D02*
G37*
G36*
X452500Y217374D02*
Y215000D01*
X454874D01*
X454557Y215765D01*
X453996Y216496D01*
X453265Y217057D01*
X452500Y217374D01*
D02*
G37*
G36*
X450500D02*
X449735Y217057D01*
X449004Y216496D01*
X448443Y215765D01*
X448126Y215000D01*
X450500D01*
Y217374D01*
D02*
G37*
G36*
X443000Y216874D02*
Y214500D01*
X445374D01*
X445057Y215265D01*
X444496Y215996D01*
X443765Y216557D01*
X443000Y216874D01*
D02*
G37*
G36*
X441000D02*
X440235Y216557D01*
X439504Y215996D01*
X438943Y215265D01*
X438626Y214500D01*
X441000D01*
Y216874D01*
D02*
G37*
G36*
X433500D02*
Y214500D01*
X435874D01*
X435557Y215265D01*
X434996Y215996D01*
X434265Y216557D01*
X433500Y216874D01*
D02*
G37*
G36*
X431500D02*
X430735Y216557D01*
X430004Y215996D01*
X429443Y215265D01*
X429126Y214500D01*
X431500D01*
Y216874D01*
D02*
G37*
G36*
X359594Y215000D02*
X358256D01*
Y213662D01*
X359058Y214198D01*
X359594Y215000D01*
D02*
G37*
G36*
X356256D02*
X354917D01*
X355453Y214198D01*
X356256Y213662D01*
Y215000D01*
D02*
G37*
G36*
X358256Y212338D02*
Y211000D01*
X359594D01*
X359058Y211802D01*
X358256Y212338D01*
D02*
G37*
G36*
X356256D02*
X355453Y211802D01*
X354917Y211000D01*
X356256D01*
Y212338D01*
D02*
G37*
G36*
X454874Y213000D02*
X452500D01*
Y210626D01*
X453265Y210943D01*
X453996Y211504D01*
X454557Y212235D01*
X454874Y213000D01*
D02*
G37*
G36*
X450500D02*
X448126D01*
X448443Y212235D01*
X449004Y211504D01*
X449735Y210943D01*
X450500Y210626D01*
Y213000D01*
D02*
G37*
G36*
X445374Y212500D02*
X443000D01*
Y210126D01*
X443765Y210443D01*
X444496Y211004D01*
X445057Y211735D01*
X445374Y212500D01*
D02*
G37*
G36*
X441000D02*
X438626D01*
X438943Y211735D01*
X439504Y211004D01*
X440235Y210443D01*
X441000Y210126D01*
Y212500D01*
D02*
G37*
G36*
X435874D02*
X433500D01*
Y210126D01*
X434265Y210443D01*
X434996Y211004D01*
X435557Y211735D01*
X435874Y212500D01*
D02*
G37*
G36*
X431500D02*
X429126D01*
X429443Y211735D01*
X430004Y211004D01*
X430735Y210443D01*
X431500Y210126D01*
Y212500D01*
D02*
G37*
G36*
X359594Y209000D02*
X358256D01*
Y207661D01*
X359058Y208198D01*
X359594Y209000D01*
D02*
G37*
G36*
X356256D02*
X354917D01*
X355453Y208198D01*
X356256Y207661D01*
Y209000D01*
D02*
G37*
G36*
X380000Y203094D02*
Y201756D01*
X381339D01*
X380802Y202558D01*
X380000Y203094D01*
D02*
G37*
G36*
X378000D02*
X377198Y202558D01*
X376661Y201756D01*
X378000D01*
Y203094D01*
D02*
G37*
G36*
X381339Y199756D02*
X380000D01*
Y198417D01*
X380802Y198953D01*
X381339Y199756D01*
D02*
G37*
G36*
X378000D02*
X376661D01*
X377198Y198953D01*
X378000Y198417D01*
Y199756D01*
D02*
G37*
G36*
X404000Y198874D02*
Y196500D01*
X406374D01*
X406057Y197265D01*
X405496Y197996D01*
X404765Y198557D01*
X404000Y198874D01*
D02*
G37*
G36*
X402000D02*
X401235Y198557D01*
X400504Y197996D01*
X399943Y197265D01*
X399626Y196500D01*
X402000D01*
Y198874D01*
D02*
G37*
G36*
X328500Y194874D02*
Y192500D01*
X330874D01*
X330557Y193265D01*
X329996Y193996D01*
X329265Y194557D01*
X328500Y194874D01*
D02*
G37*
G36*
X326500D02*
X325735Y194557D01*
X325004Y193996D01*
X324443Y193265D01*
X324126Y192500D01*
X326500D01*
Y194874D01*
D02*
G37*
G36*
X308000D02*
Y192500D01*
X310374D01*
X310057Y193265D01*
X309496Y193996D01*
X308765Y194557D01*
X308000Y194874D01*
D02*
G37*
G36*
X306000D02*
X305235Y194557D01*
X304504Y193996D01*
X303943Y193265D01*
X303626Y192500D01*
X306000D01*
Y194874D01*
D02*
G37*
G36*
X406374Y194500D02*
X404000D01*
Y192126D01*
X404765Y192443D01*
X405496Y193004D01*
X406057Y193735D01*
X406374Y194500D01*
D02*
G37*
G36*
X402000D02*
X399626D01*
X399943Y193735D01*
X400504Y193004D01*
X401235Y192443D01*
X402000Y192126D01*
Y194500D01*
D02*
G37*
G36*
X330874Y190500D02*
X328500D01*
Y188126D01*
X329265Y188443D01*
X329996Y189004D01*
X330557Y189735D01*
X330874Y190500D01*
D02*
G37*
G36*
X326500D02*
X324126D01*
X324443Y189735D01*
X325004Y189004D01*
X325735Y188443D01*
X326500Y188126D01*
Y190500D01*
D02*
G37*
G36*
X310374D02*
X308000D01*
Y188126D01*
X308765Y188443D01*
X309496Y189004D01*
X310057Y189735D01*
X310374Y190500D01*
D02*
G37*
G36*
X306000D02*
X303626D01*
X303943Y189735D01*
X304504Y189004D01*
X305235Y188443D01*
X306000Y188126D01*
Y190500D01*
D02*
G37*
G36*
X318000Y186701D02*
Y184327D01*
X320374D01*
X320057Y185092D01*
X319496Y185823D01*
X318765Y186384D01*
X318000Y186701D01*
D02*
G37*
G36*
X316000D02*
X315235Y186384D01*
X314504Y185823D01*
X313943Y185092D01*
X313626Y184327D01*
X316000D01*
Y186701D01*
D02*
G37*
G36*
X320374Y182327D02*
X318000D01*
Y179953D01*
X318765Y180270D01*
X319496Y180831D01*
X320057Y181562D01*
X320374Y182327D01*
D02*
G37*
G36*
X316000D02*
X313626D01*
X313943Y181562D01*
X314504Y180831D01*
X315235Y180270D01*
X316000Y179953D01*
Y182327D01*
D02*
G37*
G36*
X308000Y175374D02*
Y173000D01*
X310374D01*
X310057Y173765D01*
X309496Y174496D01*
X308765Y175057D01*
X308000Y175374D01*
D02*
G37*
G36*
X306000D02*
X305235Y175057D01*
X304504Y174496D01*
X303943Y173765D01*
X303626Y173000D01*
X306000D01*
Y175374D01*
D02*
G37*
G36*
X328000Y174874D02*
Y172500D01*
X330374D01*
X330057Y173265D01*
X329496Y173996D01*
X328765Y174557D01*
X328000Y174874D01*
D02*
G37*
G36*
X326000D02*
X325235Y174557D01*
X324504Y173996D01*
X323943Y173265D01*
X323626Y172500D01*
X326000D01*
Y174874D01*
D02*
G37*
G36*
X310374Y171000D02*
X308000D01*
Y168626D01*
X308765Y168943D01*
X309496Y169504D01*
X310057Y170235D01*
X310374Y171000D01*
D02*
G37*
G36*
X306000D02*
X303626D01*
X303943Y170235D01*
X304504Y169504D01*
X305235Y168943D01*
X306000Y168626D01*
Y171000D01*
D02*
G37*
G36*
X330374Y170500D02*
X328000D01*
Y168126D01*
X328765Y168443D01*
X329496Y169004D01*
X330057Y169735D01*
X330374Y170500D01*
D02*
G37*
G36*
X326000D02*
X323626D01*
X323943Y169735D01*
X324504Y169004D01*
X325235Y168443D01*
X326000Y168126D01*
Y170500D01*
D02*
G37*
G36*
X383500Y154911D02*
Y151000D01*
X387411D01*
X387371Y151305D01*
X386867Y152522D01*
X386066Y153566D01*
X385022Y154367D01*
X383805Y154871D01*
X383500Y154911D01*
D02*
G37*
G36*
X381500D02*
X381195Y154871D01*
X379978Y154367D01*
X378934Y153566D01*
X378133Y152522D01*
X377629Y151305D01*
X377589Y151000D01*
X381500D01*
Y154911D01*
D02*
G37*
G36*
X425500Y170733D02*
X423821Y170601D01*
X422183Y170208D01*
X420627Y169563D01*
X419191Y168683D01*
X417911Y167589D01*
X416817Y166309D01*
X415937Y164873D01*
X415292Y163317D01*
X414899Y161679D01*
X414767Y160000D01*
X414899Y158321D01*
X415292Y156683D01*
X415937Y155127D01*
X416817Y153691D01*
X417911Y152411D01*
X419191Y151317D01*
X420627Y150437D01*
X422183Y149792D01*
X423821Y149399D01*
X425500Y149267D01*
X427179Y149399D01*
X428817Y149792D01*
X430373Y150437D01*
X431809Y151317D01*
X433089Y152411D01*
X434183Y153691D01*
X435063Y155127D01*
X435708Y156683D01*
X436101Y158321D01*
X436233Y160000D01*
X436101Y161679D01*
X435708Y163317D01*
X435063Y164873D01*
X434183Y166309D01*
X433089Y167589D01*
X431809Y168683D01*
X430373Y169563D01*
X428817Y170208D01*
X427179Y170601D01*
X425500Y170733D01*
D02*
G37*
G36*
X271500D02*
X269821Y170601D01*
X268183Y170208D01*
X266627Y169563D01*
X265191Y168683D01*
X263911Y167589D01*
X262817Y166309D01*
X261937Y164873D01*
X261292Y163317D01*
X260899Y161679D01*
X260767Y160000D01*
X260899Y158321D01*
X261292Y156683D01*
X261937Y155127D01*
X262817Y153691D01*
X263911Y152411D01*
X265191Y151317D01*
X266627Y150437D01*
X268183Y149792D01*
X269821Y149399D01*
X271500Y149267D01*
X273179Y149399D01*
X274817Y149792D01*
X276373Y150437D01*
X277809Y151317D01*
X279089Y152411D01*
X280183Y153691D01*
X281063Y155127D01*
X281708Y156683D01*
X282101Y158321D01*
X282233Y160000D01*
X282101Y161679D01*
X281708Y163317D01*
X281063Y164873D01*
X280183Y166309D01*
X279089Y167589D01*
X277809Y168683D01*
X276373Y169563D01*
X274817Y170208D01*
X273179Y170601D01*
X271500Y170733D01*
D02*
G37*
G36*
X387411Y149000D02*
X383500D01*
Y145089D01*
X383805Y145129D01*
X385022Y145633D01*
X386066Y146434D01*
X386867Y147478D01*
X387371Y148695D01*
X387411Y149000D01*
D02*
G37*
G36*
X381500D02*
X377589D01*
X377629Y148695D01*
X378133Y147478D01*
X378934Y146434D01*
X379978Y145633D01*
X381195Y145129D01*
X381500Y145089D01*
Y149000D01*
D02*
G37*
G36*
X544000Y185500D02*
X502500Y185500D01*
X502500Y145000D01*
X544000Y145000D01*
X544000Y185500D01*
D02*
G37*
%LPD*%
D11*
X401000Y279000D02*
X405500Y274500D01*
Y260500D02*
Y274500D01*
X409000Y257000D02*
X412000D01*
X405500Y260500D02*
X409000Y257000D01*
X460000Y258000D02*
X490000D01*
D63*
X408500Y237000D02*
X414000Y242500D01*
D67*
X315000Y255500D02*
D03*
X325000D02*
D03*
X315000Y245500D02*
D03*
D68*
X325000D02*
D03*
D69*
X510000Y224000D02*
D03*
D70*
X539500D02*
D03*
D71*
X274590Y342051D02*
D03*
Y243665D02*
D03*
D72*
X280181Y271047D02*
D03*
D73*
X269000Y276500D02*
D03*
X280181Y281953D02*
D03*
X269000Y287405D02*
D03*
X280181Y292858D02*
D03*
X269000Y298311D02*
D03*
X280181Y303764D02*
D03*
X269000Y309216D02*
D03*
X280181Y314669D02*
D03*
D74*
X379000Y200756D02*
D03*
X372000Y229000D02*
D03*
X372068Y234186D02*
D03*
X357256Y210000D02*
D03*
X365000Y255500D02*
D03*
X363500Y236000D02*
D03*
X401000Y279000D02*
D03*
X357256Y216000D02*
D03*
X386500Y287000D02*
D03*
X412000Y257000D02*
D03*
X409000Y253500D02*
D03*
X408500Y237000D02*
D03*
X414000Y242500D02*
D03*
X420500Y233500D02*
D03*
X375500Y256000D02*
D03*
X362500Y227500D02*
D03*
D75*
X307000Y191500D02*
D03*
X327500D02*
D03*
X327000Y171500D02*
D03*
X307000Y172000D02*
D03*
X317000Y183327D02*
D03*
X303500Y262500D02*
D03*
X348500Y303000D02*
D03*
X367000Y231500D02*
D03*
X338000Y235185D02*
D03*
X403000Y195500D02*
D03*
X390122Y232957D02*
D03*
X451500Y214000D02*
D03*
X432500Y213500D02*
D03*
X420500Y256000D02*
D03*
X442000Y213500D02*
D03*
X448500Y242500D02*
D03*
X442000Y246500D02*
D03*
X448000Y251000D02*
D03*
D76*
X310500Y329000D02*
D03*
X535000Y330000D02*
D03*
X271500Y160000D02*
D03*
X425500D02*
D03*
D77*
X392000Y347000D02*
D03*
X549000Y305000D02*
D03*
X381500Y347000D02*
D03*
X549000Y291500D02*
D03*
X382500Y150000D02*
D03*
D78*
X523000Y165000D02*
D03*
X471000D02*
D03*
D79*
X460000Y258000D02*
D03*
X490000D02*
D03*
M02*
