G04*
G04 #@! TF.GenerationSoftware,Altium Limited,Altium Designer,19.1.7 (138)*
G04*
G04 Layer_Physical_Order=1*
G04 Layer_Color=255*
%FSLAX25Y25*%
%MOIN*%
G70*
G01*
G75*
%ADD10C,0.00600*%
%ADD14C,0.01000*%
%ADD31R,0.01200X0.04700*%
%ADD32R,0.04700X0.01200*%
%ADD33R,0.06496X0.07874*%
%ADD34R,0.03937X0.05906*%
%ADD35R,0.03150X0.03543*%
%ADD36R,0.03543X0.03150*%
%ADD37R,0.03150X0.03150*%
%ADD38R,0.03543X0.02756*%
%ADD39R,0.02756X0.03543*%
%ADD40R,0.08465X0.12795*%
%ADD41R,0.08465X0.03937*%
%ADD42C,0.00800*%
%ADD43C,0.02500*%
%ADD44C,0.02000*%
%ADD45C,0.01500*%
%ADD46C,0.00700*%
%ADD47C,0.05906*%
%ADD48R,0.05906X0.05906*%
%ADD49R,0.05906X0.05906*%
%ADD50C,0.05000*%
%ADD51C,0.02000*%
D10*
X466000Y241126D02*
Y286547D01*
X476000Y265744D02*
X479205Y262539D01*
Y258500D02*
Y262539D01*
X462500Y235795D02*
X469362D01*
X479205Y245638D02*
Y258500D01*
X466000Y241126D02*
X469362Y237764D01*
X481173Y245638D02*
Y252500D01*
X477236Y245638D02*
Y255000D01*
X499453Y220047D02*
X499476Y220024D01*
X469362Y222016D02*
X469376Y222029D01*
D14*
X477500Y231000D02*
X491500D01*
X541000Y206500D02*
X545500Y202000D01*
Y199000D02*
Y202000D01*
X462500Y160000D02*
Y165000D01*
X383500Y160000D02*
Y165000D01*
Y153000D02*
Y160000D01*
X462500Y165000D02*
Y169500D01*
X400000Y244500D02*
Y250000D01*
Y238000D02*
Y244500D01*
Y228000D02*
Y238000D01*
X377000Y250000D02*
Y258500D01*
Y266000D02*
Y276500D01*
Y258500D02*
Y266000D01*
X377000Y289000D02*
Y295000D01*
Y300000D02*
Y305000D01*
Y295000D02*
Y300000D01*
Y305000D02*
Y310500D01*
X583000Y199000D02*
Y206500D01*
X572500Y267500D02*
X572500Y267500D01*
X572500Y254500D02*
Y267500D01*
X517000Y258500D02*
X533500Y275000D01*
X517000Y248500D02*
Y258500D01*
X561000Y237500D02*
Y244500D01*
Y237500D02*
X561000Y237500D01*
Y221500D02*
Y237500D01*
X561000Y207500D02*
X561000Y207500D01*
Y221500D01*
X561000Y191500D02*
Y207500D01*
Y175500D02*
Y191500D01*
Y165500D02*
Y175500D01*
X383500Y169500D02*
Y180000D01*
X383500Y169500D02*
X383500Y169500D01*
Y117500D02*
Y125500D01*
X383500Y125500D02*
X383500Y125500D01*
X383500Y165000D02*
Y169500D01*
Y145000D02*
Y153000D01*
Y140000D02*
Y145000D01*
Y140000D02*
X383500Y140000D01*
Y133000D02*
Y140000D01*
Y125500D02*
Y133000D01*
X383500Y125500D02*
X383500Y125500D01*
X476000Y283000D02*
X476000Y283000D01*
Y275984D02*
Y283000D01*
X486000Y292453D02*
Y305000D01*
Y292453D02*
X486000Y292453D01*
X496000Y292500D02*
Y305000D01*
X466000D02*
X466000Y305000D01*
Y292453D02*
Y305000D01*
D31*
X477236Y200362D02*
D03*
X479205D02*
D03*
X481173D02*
D03*
X483142D02*
D03*
X485110D02*
D03*
X487079D02*
D03*
X489047D02*
D03*
X491016D02*
D03*
X492984D02*
D03*
X494953D02*
D03*
X496921D02*
D03*
X498890D02*
D03*
X500858D02*
D03*
X502827D02*
D03*
X504795D02*
D03*
X506764D02*
D03*
Y245638D02*
D03*
X504795D02*
D03*
X502827D02*
D03*
X500858D02*
D03*
X498890D02*
D03*
X496921D02*
D03*
X494953D02*
D03*
X492984D02*
D03*
X491016D02*
D03*
X489047D02*
D03*
X487079D02*
D03*
X485110D02*
D03*
X483142D02*
D03*
X481173D02*
D03*
X479205D02*
D03*
X477236D02*
D03*
D32*
X514638Y208236D02*
D03*
Y210205D02*
D03*
Y212173D02*
D03*
Y214142D02*
D03*
Y216110D02*
D03*
Y218079D02*
D03*
Y220047D02*
D03*
Y222016D02*
D03*
Y223984D02*
D03*
Y225953D02*
D03*
Y227921D02*
D03*
Y229890D02*
D03*
Y231858D02*
D03*
Y233827D02*
D03*
Y235795D02*
D03*
Y237764D02*
D03*
X469362D02*
D03*
Y235795D02*
D03*
Y233827D02*
D03*
Y231858D02*
D03*
Y229890D02*
D03*
Y227921D02*
D03*
Y225953D02*
D03*
Y223984D02*
D03*
Y222016D02*
D03*
Y220047D02*
D03*
Y218079D02*
D03*
Y216110D02*
D03*
Y214142D02*
D03*
Y212173D02*
D03*
Y210205D02*
D03*
Y208236D02*
D03*
D33*
X389500Y197520D02*
D03*
Y212480D02*
D03*
D34*
X404500Y138500D02*
D03*
Y159500D02*
D03*
X417000D02*
D03*
Y138500D02*
D03*
X420000Y254000D02*
D03*
Y275000D02*
D03*
X432500D02*
D03*
Y254000D02*
D03*
D35*
X503102Y179000D02*
D03*
X508614D02*
D03*
X429744Y227500D02*
D03*
X435256D02*
D03*
X455256Y208236D02*
D03*
X449744D02*
D03*
X501756Y279000D02*
D03*
X496244D02*
D03*
D36*
X400500Y217756D02*
D03*
Y212244D02*
D03*
X471000Y181244D02*
D03*
Y186756D02*
D03*
X381500Y282256D02*
D03*
Y276744D02*
D03*
X550500Y232244D02*
D03*
Y237756D02*
D03*
X450000Y184244D02*
D03*
Y189756D02*
D03*
X476000Y265744D02*
D03*
Y271256D02*
D03*
X540500Y233756D02*
D03*
Y228244D02*
D03*
X430000Y152256D02*
D03*
Y146744D02*
D03*
D37*
X558548Y267500D02*
D03*
X564453D02*
D03*
X409952Y184000D02*
D03*
X404047D02*
D03*
D38*
X444500Y288453D02*
D03*
Y282547D02*
D03*
X503000Y166500D02*
D03*
Y160594D02*
D03*
X439000Y146547D02*
D03*
Y152453D02*
D03*
X515000Y173094D02*
D03*
Y179000D02*
D03*
X558500Y255953D02*
D03*
Y250047D02*
D03*
X496000Y292500D02*
D03*
Y286595D02*
D03*
X466000Y292453D02*
D03*
Y286547D02*
D03*
D39*
X455453Y220000D02*
D03*
X449547D02*
D03*
X429953Y132000D02*
D03*
X424047D02*
D03*
X419547Y184000D02*
D03*
X425453D02*
D03*
X441453Y184000D02*
D03*
X435547D02*
D03*
X485953Y292000D02*
D03*
X480047D02*
D03*
D40*
X435516Y206500D02*
D03*
D41*
X412484Y197445D02*
D03*
Y206500D02*
D03*
Y215555D02*
D03*
D42*
X381256Y277000D02*
X388500D01*
X381000Y276744D02*
X381256Y277000D01*
X381000Y276744D02*
X381000Y276744D01*
X380756Y282500D02*
X381000Y282256D01*
X469266Y212187D02*
X481313D01*
X481500Y212000D01*
X472999Y214173D02*
X483827D01*
X483913Y214087D01*
X487110Y200268D02*
X487142Y200299D01*
X508264Y193000D02*
X515000D01*
X506764Y194500D02*
X508264Y193000D01*
X506764Y194500D02*
Y200362D01*
X517500Y187000D02*
Y196000D01*
X564500Y266500D02*
X565000Y267000D01*
X514638Y237795D02*
X514669D01*
X572500Y267500D02*
X599500D01*
X564453D02*
X572500D01*
X510110Y252500D02*
X511555D01*
X506764Y249153D02*
X510110Y252500D01*
X570000Y152500D02*
X585000D01*
X530516Y222016D02*
X531500Y223000D01*
X558000Y164500D02*
X570000Y152500D01*
X558000Y164500D02*
Y205000D01*
X506764Y245638D02*
Y249153D01*
X479000Y154000D02*
Y193672D01*
X478836Y193836D02*
X479000Y193672D01*
X478836Y193836D02*
Y199994D01*
X479205Y200362D01*
X514638Y216110D02*
X515006Y215742D01*
X530258D01*
X530500Y215500D01*
X550000Y221500D02*
X550500D01*
X543256Y228244D02*
X550000Y221500D01*
X394500Y184000D02*
X394500Y184000D01*
X477484Y152484D02*
X479000Y154000D01*
X398000Y132000D02*
X404500Y138500D01*
X398000Y132000D02*
X424047D01*
X396500D02*
X398000D01*
X396500Y132000D02*
X396500Y132000D01*
X429953Y146697D02*
X430000Y146744D01*
X429953Y132000D02*
Y146697D01*
X404500Y138500D02*
Y159500D01*
X417000Y138500D02*
Y159500D01*
X424244Y152256D01*
X430000D01*
X430197Y152453D01*
X439000D01*
X439032Y152484D01*
X445000D01*
X455016D02*
X477484D01*
X432500Y275000D02*
X439500D01*
X432500Y254000D02*
Y275000D01*
X420000Y254000D02*
Y275000D01*
X388500Y277000D02*
X390500Y275000D01*
X420000D01*
X550000Y200000D02*
Y212000D01*
X536500Y225500D02*
X550000Y212000D01*
X536500Y225500D02*
Y229500D01*
X492984Y150000D02*
Y200362D01*
X481205Y190705D02*
Y195000D01*
X481000Y190500D02*
X481205Y190705D01*
X483142Y187500D02*
Y200362D01*
X485142Y182032D02*
Y200331D01*
X487142Y173563D02*
Y182860D01*
X487110Y173531D02*
X487142Y173563D01*
X487110Y182891D02*
Y200268D01*
Y182891D02*
X487142Y182860D01*
X487079Y200362D02*
X487142Y200299D01*
X503000Y154500D02*
Y160594D01*
X558500Y255953D02*
Y267453D01*
X558548Y267500D01*
X585500Y260500D02*
X592000Y254000D01*
X585000Y265000D02*
X597500Y252500D01*
X584000Y265000D02*
X585000D01*
X583000Y258000D02*
X590000Y251000D01*
X580000Y255500D02*
X588000Y247500D01*
X489500Y258500D02*
X491000Y260000D01*
X597500Y252500D02*
X602000D01*
X532000Y250500D02*
X581500D01*
X531500Y250000D02*
X532000Y250500D01*
X590000Y197500D02*
Y251000D01*
X592000Y207500D02*
Y254000D01*
X488000Y262000D02*
X490500Y264500D01*
X488000Y250500D02*
Y262000D01*
X486000Y264000D02*
X490000Y268000D01*
X486000Y251000D02*
Y264000D01*
X484000Y265500D02*
X490000Y271500D01*
X484000Y252000D02*
Y265500D01*
X476000Y271256D02*
Y275984D01*
X493500Y254000D02*
Y264000D01*
X494953Y245638D02*
Y262953D01*
X487079Y249579D02*
X488000Y250500D01*
X501500Y255500D02*
Y263500D01*
X500620Y252100D02*
X501600D01*
X497490Y248970D02*
X500620Y252100D01*
X497490Y248861D02*
Y248970D01*
X496921Y248293D02*
X497490Y248861D01*
X496921Y245638D02*
Y248293D01*
X501200Y250700D02*
X503200D01*
X498890Y248390D02*
X501200Y250700D01*
X498890Y245638D02*
Y248390D01*
X505500Y256000D02*
Y257000D01*
X501600Y252100D02*
X505500Y256000D01*
X534756Y282256D02*
X600756D01*
X503200Y250700D02*
X534756Y282256D01*
X540756Y233500D02*
X545500D01*
X540500Y233756D02*
X540756Y233500D01*
X573500Y175000D02*
Y220000D01*
X569500Y171000D02*
X573500Y175000D01*
X564000Y171500D02*
Y179500D01*
X540000Y217500D02*
Y219500D01*
X522360Y222016D02*
X530516D01*
X522328Y221984D02*
X522360Y222016D01*
X514669Y221984D02*
X522328D01*
X514638Y222016D02*
X514669Y221984D01*
X525595Y220079D02*
X535921D01*
X536000Y220000D01*
X525563Y220047D02*
X525595Y220079D01*
X540500Y228244D02*
X543256D01*
X507000Y229000D02*
Y236604D01*
X505000Y232500D02*
Y236624D01*
X501563Y235795D02*
X503000D01*
X528500Y247500D02*
X584000D01*
X514638Y220047D02*
X525563D01*
X514669Y218047D02*
X526500D01*
X605000Y274500D02*
Y283000D01*
X603000Y272500D02*
X605000Y274500D01*
X537500Y272500D02*
X603000D01*
X605000Y283000D02*
X609500Y287500D01*
X521500Y256500D02*
X537500Y272500D01*
X521500Y242484D02*
Y256500D01*
X514638Y218079D02*
X514669Y218047D01*
X514638Y223984D02*
X521500D01*
X528328Y233795D02*
X528624Y233500D01*
X540244D01*
X540500Y233756D01*
X514933Y235500D02*
X535500D01*
X514638Y235795D02*
X514933Y235500D01*
X514669Y237795D02*
X541961D01*
X531579Y227921D02*
X540000Y219500D01*
X514638Y227921D02*
X531579D01*
X514638Y229890D02*
X533000D01*
X514638Y227921D02*
X514669Y227890D01*
X534110Y231890D02*
X536500Y229500D01*
X514669Y231890D02*
X534110D01*
X514638Y231858D02*
X514669Y231890D01*
X504795Y238808D02*
X507000Y236604D01*
X504795Y238808D02*
Y245638D01*
X502827Y238797D02*
X505000Y236624D01*
X502827Y238797D02*
Y245638D01*
X500858Y236500D02*
X501563Y235795D01*
X500858Y236500D02*
Y245638D01*
X588000Y217500D02*
Y247500D01*
X573500Y220000D02*
X581000Y227500D01*
X576000Y212500D02*
X581000Y217500D01*
X576000Y171000D02*
Y212500D01*
X574500Y169500D02*
X576000Y171000D01*
X591047Y187500D02*
X594000Y190453D01*
Y208328D01*
X593500Y208828D02*
Y231500D01*
Y208828D02*
X594000Y208328D01*
X507500Y221211D02*
X512242Y225953D01*
X507500Y206000D02*
Y221211D01*
Y206000D02*
X517500Y196000D01*
X512242Y225953D02*
X514638D01*
X568000Y167500D02*
X584500D01*
X564000Y171500D02*
X568000Y167500D01*
X469362Y220047D02*
X499453D01*
X490360Y218079D02*
X499453D01*
X490328Y218110D02*
X490360Y218079D01*
X488672Y218110D02*
X490328D01*
X488640Y218079D02*
X488672Y218110D01*
X469362Y218079D02*
X488640D01*
X499453D02*
X503532Y214000D01*
X499580Y219932D02*
X502511Y217000D01*
X499569Y219932D02*
X499580D01*
X499476Y220024D02*
X499569Y219932D01*
X502511Y217000D02*
X504500D01*
X503532Y214000D02*
X504500D01*
X509500Y211400D02*
X512242Y214142D01*
X509500Y208236D02*
Y211400D01*
X469266Y214156D02*
X472999D01*
X489416Y200731D02*
Y216026D01*
X489500Y216110D01*
X489047Y200362D02*
X489416Y200731D01*
X514669Y233795D02*
X528328D01*
X599500Y147500D02*
X605000Y153000D01*
Y249500D01*
X602000Y252500D02*
X605000Y249500D01*
X593500Y231500D02*
X599500Y237500D01*
X505000Y190500D02*
Y194828D01*
X504795Y195033D02*
X505000Y194828D01*
X527500Y163500D02*
Y201500D01*
X520764Y208236D02*
X527500Y201500D01*
X514638Y208236D02*
X520764D01*
X529500Y164500D02*
Y202000D01*
X521295Y210205D02*
X529500Y202000D01*
X514638Y210205D02*
X521295D01*
X531500Y166000D02*
Y202500D01*
X521827Y212173D02*
X531500Y202500D01*
X514638Y212173D02*
X521827D01*
X512242Y214142D02*
X514638D01*
X584500Y187500D02*
X591047D01*
X584500Y177500D02*
X599500D01*
X594500Y157500D02*
X599500D01*
X584500Y167500D02*
X594500Y157500D01*
X542000Y237795D02*
X549961D01*
X541961D02*
X542000Y237756D01*
X531500Y166000D02*
X555000Y142500D01*
X604500Y132500D02*
X609500Y127500D01*
X561500Y132500D02*
X604500D01*
Y142500D02*
X609500Y137500D01*
X555000Y142500D02*
X604500D01*
X514638Y237764D02*
X514669Y237795D01*
X514638Y233827D02*
X514669Y233795D01*
X529500Y164500D02*
X561500Y132500D01*
X563500Y127500D02*
X599500D01*
X527500Y163500D02*
X563500Y127500D01*
X492984Y253484D02*
X493500Y254000D01*
X492984Y245638D02*
Y253484D01*
X493500Y264000D02*
X537000Y307500D01*
X604500Y292500D02*
X609500Y297500D01*
X604500Y286000D02*
Y292500D01*
X600756Y282256D02*
X604500Y286000D01*
X489500Y249500D02*
Y258500D01*
X491016Y245638D02*
Y256016D01*
X491500Y256500D01*
X489047Y249047D02*
X489500Y249500D01*
X489047Y245638D02*
Y249047D01*
X485110Y250110D02*
X486000Y251000D01*
X487079Y245638D02*
Y249579D01*
X485110Y245638D02*
Y250110D01*
X483142Y251142D02*
X484000Y252000D01*
X483142Y245638D02*
Y251142D01*
X497900Y256600D02*
Y262900D01*
X535000Y303000D02*
X605000D01*
X494953Y262953D02*
X535000Y303000D01*
X501500Y263500D02*
X525500Y287500D01*
X497900Y262900D02*
X532500Y297500D01*
X525500Y287500D02*
X579500D01*
X532500Y297500D02*
X579500D01*
X537000Y307500D02*
X599500D01*
X502000Y279244D02*
Y284000D01*
X501756Y279000D02*
X502000Y279244D01*
X605000Y303000D02*
X609500Y307500D01*
X504795Y195033D02*
Y200362D01*
X502827D02*
X503000Y200189D01*
Y194000D02*
Y200189D01*
X477236Y195736D02*
Y200362D01*
X471244Y189744D02*
X477236Y195736D01*
X485110Y200362D02*
X485142Y200331D01*
X471244Y187000D02*
Y189744D01*
X498000Y148579D02*
Y157500D01*
X496921Y158579D02*
X498000Y157500D01*
X496921Y158579D02*
Y200362D01*
X495321Y154679D02*
Y156679D01*
X494953Y157047D02*
X495321Y156679D01*
X494953Y157047D02*
Y200362D01*
X491016Y158516D02*
Y200362D01*
X490000Y157500D02*
X491016Y158516D01*
X490000Y145500D02*
Y157500D01*
X495321Y154679D02*
X495500Y154500D01*
X496000Y279244D02*
X496244Y279000D01*
X496000Y279244D02*
Y286595D01*
X491000Y279000D02*
X496244D01*
X463000Y247500D02*
Y279000D01*
X456579Y227921D02*
X469362D01*
X451000Y233500D02*
X456579Y227921D01*
X451000Y233500D02*
Y267500D01*
X458110Y229890D02*
X469362D01*
X454000Y234000D02*
X458110Y229890D01*
X454000Y234000D02*
Y264500D01*
X459642Y231858D02*
X469362D01*
X457000Y234500D02*
X459642Y231858D01*
X457000Y234500D02*
Y272500D01*
X460000Y235000D02*
Y267500D01*
Y235000D02*
X461205Y233795D01*
X469331D01*
X448500Y232000D02*
Y261500D01*
Y232000D02*
X455453Y225047D01*
Y220000D02*
Y225047D01*
X469331Y233795D02*
X469362Y233827D01*
X579500Y287500D02*
X599500D01*
X579500Y297500D02*
X599500D01*
X461500Y219000D02*
X462421Y218079D01*
X460890Y216110D02*
X469362D01*
X457000Y220000D02*
X460890Y216110D01*
X455453Y220000D02*
X457000D01*
X508614Y179000D02*
X508614Y179000D01*
X515000D01*
X503000Y178898D02*
X503102Y179000D01*
X503000Y166500D02*
Y178898D01*
X500858Y186756D02*
X508614Y179000D01*
X500858Y186756D02*
Y200362D01*
X498890Y183213D02*
X503102Y179000D01*
X498890Y183213D02*
Y200362D01*
X481047Y195158D02*
Y200236D01*
Y195158D02*
X481205Y195000D01*
X481047Y200236D02*
X481173Y200362D01*
X462421Y218079D02*
X469362D01*
X462000Y211500D02*
X463295Y210205D01*
X469362D01*
X469376Y222029D02*
X500470D01*
X501986Y223984D02*
X502000Y223998D01*
X469362Y223984D02*
X501986D01*
X504453Y225953D02*
X504466Y225967D01*
X469362Y225953D02*
X504453D01*
X502998Y223000D02*
X504500D01*
X502000Y223998D02*
X502998Y223000D01*
X500470Y222029D02*
X502500Y220000D01*
X504500D01*
X471000Y186756D02*
X471244Y187000D01*
X455256Y208236D02*
X455256Y208236D01*
X469362D01*
D43*
X536500Y173000D02*
X546000D01*
X555000Y182000D01*
X450000Y207980D02*
X450000Y207980D01*
X470256Y181500D02*
X470756Y181000D01*
X378500Y217500D02*
X389000Y228000D01*
X400000D01*
X400250Y227750D02*
X400250Y227750D01*
X400000Y228000D02*
X400250Y227750D01*
X429494D01*
X429744Y227500D01*
X400250Y218006D02*
Y227750D01*
Y218006D02*
X400500Y217756D01*
X369500Y217500D02*
X378500D01*
X435500Y184047D02*
Y206500D01*
X435256Y206760D02*
Y227500D01*
Y206760D02*
X435516Y206500D01*
X408020Y217756D02*
X410220Y215555D01*
X412484D01*
X400500Y217756D02*
X408020D01*
X412484Y206500D02*
X435500D01*
X410220Y197445D02*
X412484D01*
X400746Y206919D02*
X410220Y197445D01*
X400746Y206919D02*
Y211998D01*
X400500Y212244D02*
X400746Y211998D01*
X389736Y212244D02*
X400500D01*
X369500Y197500D02*
X389500D01*
X444500Y282256D02*
X444500D01*
X550000Y237756D02*
X552071D01*
X550500Y221500D02*
Y232244D01*
X439000Y146547D02*
X448547D01*
X450000Y148000D01*
X555000Y182000D02*
Y234827D01*
X394500Y184000D02*
X404047D01*
X552071Y237756D02*
X555000Y234827D01*
X550000Y232244D02*
X550000Y232244D01*
X515095Y173000D02*
X523000D01*
X515000Y173094D02*
X515095Y173000D01*
X456000Y299953D02*
Y305000D01*
X444500Y288453D02*
X456000Y299953D01*
X444500Y282256D02*
Y282500D01*
Y187047D02*
Y282256D01*
X381000D02*
X444500D01*
X463500Y181500D02*
X470256D01*
X470756Y181000D02*
X471000Y181244D01*
X369500Y207500D02*
Y217500D01*
X359500D02*
X369500D01*
X441453Y184000D02*
X444500Y187047D01*
X515000Y147500D02*
Y173094D01*
X507500Y140000D02*
X515000Y147500D01*
X458000Y140000D02*
X507500D01*
X450000Y148000D02*
X458000Y140000D01*
X450000Y148000D02*
Y184244D01*
X450000Y189756D02*
Y200000D01*
Y189756D02*
X450000Y189756D01*
X450000Y200000D02*
Y207980D01*
X369500Y187500D02*
Y197500D01*
X449744Y208236D02*
X450000Y207980D01*
X471000Y181244D02*
X471000Y181244D01*
X455256Y186756D02*
X471000D01*
X450000Y184244D02*
X452744D01*
X455256Y186756D02*
Y208236D01*
X452744Y184244D02*
X455256Y186756D01*
X449547Y220000D02*
X449744Y219803D01*
Y208236D02*
Y219803D01*
X449756Y184000D02*
X450000Y184244D01*
X441453Y184000D02*
X449756D01*
X409952Y184000D02*
X409953Y184000D01*
X419547D01*
X425453D02*
X425453Y184000D01*
X435547D01*
X435500Y184047D02*
X435547Y184000D01*
D44*
X389500Y212480D02*
X389736Y212244D01*
X364500Y242500D02*
X369500Y237500D01*
X364500Y242500D02*
Y262500D01*
Y282500D01*
Y262500D02*
X369500Y257500D01*
X364500Y282500D02*
X380756D01*
X359500Y287500D02*
X364500Y282500D01*
D45*
X394500Y184000D02*
X396500Y182000D01*
Y132000D02*
Y182000D01*
D46*
X480047Y292000D02*
X481173Y290874D01*
Y252500D02*
Y290874D01*
D47*
X584500Y187500D02*
D03*
Y177500D02*
D03*
X609500Y307500D02*
D03*
X599500Y297500D02*
D03*
X609500D02*
D03*
X599500Y287500D02*
D03*
X609500D02*
D03*
X599500Y277500D02*
D03*
X609500D02*
D03*
X599500Y267500D02*
D03*
X609500D02*
D03*
X599500Y257500D02*
D03*
X609500D02*
D03*
X599500Y247500D02*
D03*
X609500D02*
D03*
X599500Y237500D02*
D03*
X609500D02*
D03*
X599500Y227500D02*
D03*
X609500D02*
D03*
X599500Y217500D02*
D03*
X609500D02*
D03*
X599500Y207500D02*
D03*
X609500D02*
D03*
X599500Y197500D02*
D03*
X609500D02*
D03*
X599500Y187500D02*
D03*
X609500D02*
D03*
X599500Y177500D02*
D03*
X609500D02*
D03*
X599500Y167500D02*
D03*
X609500D02*
D03*
X599500Y157500D02*
D03*
X609500D02*
D03*
X599500Y147500D02*
D03*
X609500D02*
D03*
X599500Y137500D02*
D03*
X609500D02*
D03*
X599500Y127500D02*
D03*
X609500D02*
D03*
X581000Y227500D02*
D03*
X579500Y287500D02*
D03*
X369500Y307500D02*
D03*
X359500Y297500D02*
D03*
X369500D02*
D03*
X359500Y287500D02*
D03*
X369500D02*
D03*
X359500Y277500D02*
D03*
X369500D02*
D03*
X359500Y267500D02*
D03*
X369500D02*
D03*
X359500Y257500D02*
D03*
X369500D02*
D03*
X359500Y247500D02*
D03*
X369500D02*
D03*
X359500Y237500D02*
D03*
X369500D02*
D03*
X359500Y227500D02*
D03*
X369500D02*
D03*
X359500Y217500D02*
D03*
X369500D02*
D03*
X359500Y207500D02*
D03*
X369500D02*
D03*
X359500Y197500D02*
D03*
X369500D02*
D03*
X359500Y187500D02*
D03*
X369500D02*
D03*
X359500Y177500D02*
D03*
X369500D02*
D03*
X359500Y167500D02*
D03*
X369500D02*
D03*
X359500Y157500D02*
D03*
X369500D02*
D03*
X359500Y147500D02*
D03*
X369500D02*
D03*
X359500Y137500D02*
D03*
X369500D02*
D03*
X359500Y127500D02*
D03*
X369500D02*
D03*
X466000Y305000D02*
D03*
X476000D02*
D03*
X486000D02*
D03*
X496000D02*
D03*
X506000D02*
D03*
D48*
X584500Y167500D02*
D03*
X599500Y307500D02*
D03*
X581000Y217500D02*
D03*
X579500Y297500D02*
D03*
X359500Y307500D02*
D03*
D49*
X456000Y305000D02*
D03*
D50*
X388500Y277000D02*
D03*
X536500Y173000D02*
D03*
X383500Y117500D02*
D03*
X383500Y153000D02*
D03*
X400000Y238000D02*
D03*
Y228000D02*
D03*
X396500Y132000D02*
D03*
X550500Y221500D02*
D03*
X394500Y184000D02*
D03*
X523000Y173000D02*
D03*
X463500Y181500D02*
D03*
X450000Y200000D02*
D03*
D51*
X491500Y231000D02*
D03*
X477500D02*
D03*
X481500Y212000D02*
D03*
X483913Y214087D02*
D03*
X541000Y206500D02*
D03*
X545500Y199000D02*
D03*
X462500Y160000D02*
D03*
X383500Y160000D02*
D03*
X462500Y169500D02*
D03*
Y165000D02*
D03*
X515000Y193000D02*
D03*
X517500Y187000D02*
D03*
X400000Y250000D02*
D03*
Y244500D02*
D03*
X377000Y250000D02*
D03*
Y276500D02*
D03*
Y266000D02*
D03*
Y258500D02*
D03*
X377000Y289000D02*
D03*
Y295000D02*
D03*
Y300000D02*
D03*
Y310500D02*
D03*
Y305000D02*
D03*
X583000Y206500D02*
D03*
Y199000D02*
D03*
X572500Y254500D02*
D03*
X511555Y252500D02*
D03*
X517000Y248500D02*
D03*
X561000Y244500D02*
D03*
X561000Y237500D02*
D03*
Y221500D02*
D03*
Y207500D02*
D03*
X561000Y191500D02*
D03*
Y165500D02*
D03*
Y175500D02*
D03*
X533500Y275000D02*
D03*
X383500Y145000D02*
D03*
Y125500D02*
D03*
X383500Y133000D02*
D03*
X383500Y140000D02*
D03*
Y165000D02*
D03*
X383500Y180000D02*
D03*
X383500Y169500D02*
D03*
X476000Y283000D02*
D03*
X478836Y193836D02*
D03*
X530500Y215500D02*
D03*
X445000Y152484D02*
D03*
X455016D02*
D03*
X439500Y275000D02*
D03*
X493000Y150000D02*
D03*
X481000Y190500D02*
D03*
X483142Y187500D02*
D03*
X485142Y182032D02*
D03*
X487110Y173531D02*
D03*
X503000Y154500D02*
D03*
X585500Y260500D02*
D03*
X584000Y265000D02*
D03*
X583000Y258000D02*
D03*
X580000Y255500D02*
D03*
X491000Y260000D02*
D03*
X581500Y250500D02*
D03*
X490500Y264500D02*
D03*
X490000Y268000D02*
D03*
Y271500D02*
D03*
X479205Y258500D02*
D03*
X476000Y275984D02*
D03*
X531500Y250000D02*
D03*
X501500Y255500D02*
D03*
X505500Y257000D02*
D03*
X545500Y233500D02*
D03*
X550000Y200000D02*
D03*
X540000Y217484D02*
D03*
X558000Y205000D02*
D03*
X585000Y152484D02*
D03*
X564000Y179500D02*
D03*
X531500Y222984D02*
D03*
X536000Y220000D02*
D03*
X507000Y229000D02*
D03*
X505000Y232500D02*
D03*
X503000Y235795D02*
D03*
X527500Y247500D02*
D03*
Y218079D02*
D03*
X521500Y242484D02*
D03*
Y223984D02*
D03*
X535500Y235500D02*
D03*
X533000Y229890D02*
D03*
X584000Y247500D02*
D03*
X588000Y217500D02*
D03*
X590000Y197500D02*
D03*
X592000Y207500D02*
D03*
X574500Y169500D02*
D03*
X569500Y171000D02*
D03*
X504500Y214000D02*
D03*
X509500Y208236D02*
D03*
X489500Y216110D02*
D03*
X498000Y148579D02*
D03*
X495500Y154500D02*
D03*
X490000Y145500D02*
D03*
X497900Y256600D02*
D03*
X491500Y256500D02*
D03*
X481173Y252500D02*
D03*
X477236Y255000D02*
D03*
X502000Y284000D02*
D03*
X491000Y279000D02*
D03*
X463000D02*
D03*
X448500Y261500D02*
D03*
X451000Y267500D02*
D03*
X454000Y264500D02*
D03*
X457000Y272500D02*
D03*
X460000Y267500D02*
D03*
X466000Y243000D02*
D03*
X463000Y247500D02*
D03*
X462500Y235795D02*
D03*
X462000Y211500D02*
D03*
X461500Y219000D02*
D03*
X503000Y194000D02*
D03*
X505000Y190500D02*
D03*
X504500Y217000D02*
D03*
Y220000D02*
D03*
Y223000D02*
D03*
Y226000D02*
D03*
M02*
