G04*
G04 #@! TF.GenerationSoftware,Altium Limited,Altium Designer,19.1.7 (138)*
G04*
G04 Layer_Physical_Order=2*
G04 Layer_Color=16711680*
%FSLAX25Y25*%
%MOIN*%
G70*
G01*
G75*
%ADD10C,0.00600*%
%ADD14C,0.01000*%
%ADD42C,0.00800*%
%ADD43C,0.02500*%
%ADD47C,0.05906*%
%ADD48R,0.05906X0.05906*%
%ADD49R,0.05906X0.05906*%
%ADD50C,0.05000*%
%ADD51C,0.02000*%
G36*
X620000Y113000D02*
X350000D01*
Y325000D01*
X620000D01*
Y113000D01*
D02*
G37*
%LPC*%
G36*
X377500Y312440D02*
Y311000D01*
X378940D01*
X378884Y311280D01*
X378442Y311942D01*
X377780Y312384D01*
X377500Y312440D01*
D02*
G37*
G36*
X376500D02*
X376220Y312384D01*
X375558Y311942D01*
X375116Y311280D01*
X375060Y311000D01*
X376500D01*
Y312440D01*
D02*
G37*
G36*
X476500Y308921D02*
Y305500D01*
X479921D01*
X479851Y306032D01*
X479453Y306993D01*
X478819Y307819D01*
X477993Y308453D01*
X477032Y308851D01*
X476500Y308921D01*
D02*
G37*
G36*
X475500D02*
X474968Y308851D01*
X474007Y308453D01*
X473181Y307819D01*
X472547Y306993D01*
X472149Y306032D01*
X472079Y305500D01*
X475500D01*
Y308921D01*
D02*
G37*
G36*
X603053Y311053D02*
X595947D01*
Y303947D01*
X603053D01*
Y311053D01*
D02*
G37*
G36*
X609500Y311083D02*
X608572Y310961D01*
X607708Y310603D01*
X606966Y310034D01*
X606397Y309292D01*
X606039Y308427D01*
X605917Y307500D01*
X606039Y306573D01*
X606397Y305708D01*
X606966Y304966D01*
X607708Y304397D01*
X608572Y304039D01*
X609500Y303917D01*
X610428Y304039D01*
X611292Y304397D01*
X612034Y304966D01*
X612603Y305708D01*
X612961Y306573D01*
X613083Y307500D01*
X612961Y308427D01*
X612603Y309292D01*
X612034Y310034D01*
X611292Y310603D01*
X610428Y310961D01*
X609500Y311083D01*
D02*
G37*
G36*
X369500D02*
X368573Y310961D01*
X367708Y310603D01*
X366966Y310034D01*
X366397Y309292D01*
X366039Y308427D01*
X365917Y307500D01*
X366039Y306573D01*
X366397Y305708D01*
X366966Y304966D01*
X367708Y304397D01*
X368136Y304220D01*
X367997Y303520D01*
X364922D01*
X363053Y305389D01*
Y311053D01*
X355947D01*
Y303947D01*
X361611D01*
X363779Y301779D01*
X364110Y301558D01*
X364500Y301480D01*
X367997D01*
X368136Y300780D01*
X367708Y300603D01*
X366966Y300034D01*
X366397Y299292D01*
X366039Y298427D01*
X365917Y297500D01*
X366039Y296573D01*
X366397Y295708D01*
X366966Y294966D01*
X367708Y294397D01*
X368136Y294220D01*
X367997Y293520D01*
X364922D01*
X362642Y295800D01*
X362961Y296573D01*
X363083Y297500D01*
X362961Y298427D01*
X362603Y299292D01*
X362034Y300034D01*
X361292Y300603D01*
X360427Y300961D01*
X359500Y301083D01*
X358573Y300961D01*
X357708Y300603D01*
X356966Y300034D01*
X356397Y299292D01*
X356039Y298427D01*
X355917Y297500D01*
X356039Y296573D01*
X356397Y295708D01*
X356966Y294966D01*
X357708Y294397D01*
X358573Y294039D01*
X359500Y293917D01*
X360427Y294039D01*
X361200Y294358D01*
X363779Y291779D01*
X364110Y291558D01*
X364500Y291480D01*
X367997D01*
X368136Y290780D01*
X367708Y290603D01*
X366966Y290034D01*
X366397Y289292D01*
X366039Y288427D01*
X365917Y287500D01*
X366039Y286573D01*
X366397Y285708D01*
X366966Y284966D01*
X367708Y284397D01*
X368573Y284039D01*
X369500Y283917D01*
X370427Y284039D01*
X371292Y284397D01*
X372034Y284966D01*
X372603Y285708D01*
X372961Y286573D01*
X373083Y287500D01*
X372961Y288427D01*
X372603Y289292D01*
X372034Y290034D01*
X371292Y290603D01*
X370864Y290780D01*
X371003Y291480D01*
X375903D01*
X376065Y290780D01*
X375558Y290442D01*
X375116Y289780D01*
X375060Y289500D01*
X378940D01*
X378884Y289780D01*
X378442Y290442D01*
X377935Y290780D01*
X378097Y291480D01*
X381078D01*
X408779Y263779D01*
X409110Y263558D01*
X409500Y263480D01*
X446791D01*
X447125Y262780D01*
X446914Y262520D01*
X387922D01*
X377221Y273221D01*
X376890Y273442D01*
X376500Y273520D01*
X371003D01*
X370864Y274220D01*
X371292Y274397D01*
X372034Y274966D01*
X372603Y275708D01*
X372961Y276573D01*
X373083Y277500D01*
X372961Y278427D01*
X372603Y279292D01*
X372034Y280034D01*
X371292Y280603D01*
X370427Y280961D01*
X369500Y281083D01*
X368573Y280961D01*
X367708Y280603D01*
X366966Y280034D01*
X366397Y279292D01*
X366039Y278427D01*
X365917Y277500D01*
X366039Y276573D01*
X366397Y275708D01*
X366966Y274966D01*
X367708Y274397D01*
X368136Y274220D01*
X367997Y273520D01*
X363922D01*
X362226Y275216D01*
X362603Y275708D01*
X362961Y276573D01*
X363083Y277500D01*
X362961Y278427D01*
X362603Y279292D01*
X362034Y280034D01*
X361292Y280603D01*
X360427Y280961D01*
X359500Y281083D01*
X358573Y280961D01*
X357708Y280603D01*
X356966Y280034D01*
X356397Y279292D01*
X356039Y278427D01*
X355917Y277500D01*
X356039Y276573D01*
X356397Y275708D01*
X356966Y274966D01*
X357708Y274397D01*
X358573Y274039D01*
X359500Y273917D01*
X360427Y274039D01*
X360492Y274066D01*
X362779Y271779D01*
X363110Y271558D01*
X363500Y271480D01*
X367997D01*
X368136Y270780D01*
X367708Y270603D01*
X366966Y270034D01*
X366397Y269292D01*
X366039Y268427D01*
X365917Y267500D01*
X366039Y266573D01*
X366397Y265708D01*
X366966Y264966D01*
X367708Y264397D01*
X368382Y264118D01*
X368243Y263418D01*
X364880D01*
X362597Y265700D01*
X362603Y265708D01*
X362961Y266573D01*
X363083Y267500D01*
X362961Y268427D01*
X362603Y269292D01*
X362034Y270034D01*
X361292Y270603D01*
X360427Y270961D01*
X359500Y271083D01*
X358573Y270961D01*
X357708Y270603D01*
X356966Y270034D01*
X356397Y269292D01*
X356039Y268427D01*
X355917Y267500D01*
X356039Y266573D01*
X356397Y265708D01*
X356966Y264966D01*
X357708Y264397D01*
X358573Y264039D01*
X359500Y263917D01*
X360427Y264039D01*
X361292Y264397D01*
X361300Y264403D01*
X363851Y261851D01*
X364149Y261652D01*
X364500Y261582D01*
X368243D01*
X368382Y260882D01*
X367708Y260603D01*
X366966Y260034D01*
X366397Y259292D01*
X366039Y258427D01*
X365917Y257500D01*
X366039Y256573D01*
X366397Y255708D01*
X366850Y255118D01*
X366623Y254418D01*
X363880D01*
X362597Y255700D01*
X362603Y255708D01*
X362961Y256573D01*
X363083Y257500D01*
X362961Y258427D01*
X362603Y259292D01*
X362034Y260034D01*
X361292Y260603D01*
X360427Y260961D01*
X359500Y261083D01*
X358573Y260961D01*
X357708Y260603D01*
X356966Y260034D01*
X356397Y259292D01*
X356039Y258427D01*
X355917Y257500D01*
X356039Y256573D01*
X356397Y255708D01*
X356966Y254966D01*
X357708Y254397D01*
X358573Y254039D01*
X359500Y253917D01*
X360427Y254039D01*
X361292Y254397D01*
X361300Y254403D01*
X362770Y252932D01*
X362820Y252500D01*
X362770Y252068D01*
X361300Y250597D01*
X361292Y250603D01*
X360427Y250961D01*
X359500Y251083D01*
X358573Y250961D01*
X357708Y250603D01*
X356966Y250034D01*
X356397Y249292D01*
X356039Y248427D01*
X355917Y247500D01*
X356039Y246573D01*
X356397Y245708D01*
X356966Y244966D01*
X357708Y244397D01*
X358573Y244039D01*
X359500Y243917D01*
X360427Y244039D01*
X361292Y244397D01*
X362034Y244966D01*
X362603Y245708D01*
X362961Y246573D01*
X363083Y247500D01*
X362961Y248427D01*
X362603Y249292D01*
X362597Y249300D01*
X363880Y250582D01*
X366623D01*
X366850Y249882D01*
X366397Y249292D01*
X366039Y248427D01*
X365917Y247500D01*
X366039Y246573D01*
X366397Y245708D01*
X366966Y244966D01*
X367708Y244397D01*
X368573Y244039D01*
X369500Y243917D01*
X370427Y244039D01*
X371292Y244397D01*
X372034Y244966D01*
X372603Y245708D01*
X372923Y246480D01*
X398140D01*
X398251Y246338D01*
X398450Y245780D01*
X398116Y245280D01*
X398060Y245000D01*
X401940D01*
X401884Y245280D01*
X401550Y245780D01*
X401749Y246338D01*
X401860Y246480D01*
X461757D01*
X461846Y246346D01*
X462376Y245993D01*
X463000Y245869D01*
X463624Y245993D01*
X464153Y246346D01*
X464243Y246480D01*
X467578D01*
X488480Y225578D01*
Y217353D01*
X488346Y217264D01*
X487993Y216735D01*
X487869Y216110D01*
X487924Y215830D01*
X487453Y215130D01*
X485141D01*
X485067Y215240D01*
X484538Y215594D01*
X483913Y215718D01*
X483289Y215594D01*
X482760Y215240D01*
X482406Y214711D01*
X482291Y214133D01*
X482278Y214083D01*
X481665Y213598D01*
X481500Y213631D01*
X480876Y213507D01*
X480346Y213154D01*
X479993Y212624D01*
X479869Y212000D01*
X479993Y211376D01*
X480346Y210846D01*
X480876Y210493D01*
X481500Y210369D01*
X482124Y210493D01*
X482654Y210846D01*
X482801Y211067D01*
X494600D01*
X494991Y211145D01*
X495321Y211366D01*
X500621Y216665D01*
X500842Y216996D01*
X500920Y217386D01*
Y234769D01*
X501620Y234981D01*
X501847Y234642D01*
X502376Y234288D01*
X503000Y234164D01*
X503624Y234288D01*
X503888Y233681D01*
X503847Y233653D01*
X503493Y233124D01*
X503369Y232500D01*
X503493Y231876D01*
X503847Y231347D01*
X504376Y230993D01*
X505000Y230869D01*
X505624Y230993D01*
X505730Y230917D01*
X505847Y230153D01*
X505493Y229624D01*
X505369Y229000D01*
X505493Y228376D01*
X505847Y227847D01*
X505433Y227301D01*
X505124Y227507D01*
X504500Y227631D01*
X503876Y227507D01*
X503346Y227153D01*
X502993Y226624D01*
X502869Y226000D01*
X502993Y225376D01*
X503346Y224847D01*
Y224153D01*
X502993Y223624D01*
X502869Y223000D01*
X502993Y222376D01*
X503346Y221847D01*
Y221153D01*
X502993Y220624D01*
X502869Y220000D01*
X502993Y219376D01*
X503278Y218949D01*
X503346Y218583D01*
Y218418D01*
X503278Y218051D01*
X502993Y217624D01*
X502869Y217000D01*
X502993Y216376D01*
X503278Y215949D01*
X503346Y215582D01*
Y215418D01*
X503278Y215051D01*
X502993Y214624D01*
X502869Y214000D01*
X502993Y213376D01*
X503346Y212846D01*
X503876Y212493D01*
X504500Y212369D01*
X505124Y212493D01*
X505653Y212846D01*
X505743Y212980D01*
X507079D01*
X509535Y210534D01*
X509531Y210467D01*
X509260Y209820D01*
X508876Y209743D01*
X508347Y209390D01*
X507993Y208860D01*
X507869Y208236D01*
X507993Y207612D01*
X508347Y207083D01*
X508480Y206993D01*
Y191922D01*
X507298Y190739D01*
X506538Y190970D01*
X506507Y191124D01*
X506153Y191654D01*
X505624Y192007D01*
X505000Y192131D01*
X504376Y192007D01*
X503847Y191654D01*
X503757Y191520D01*
X497662D01*
X497272Y191442D01*
X496941Y191221D01*
X487421Y181701D01*
X486773Y182032D01*
X486649Y182656D01*
X486295Y183185D01*
X485766Y183539D01*
X485520Y183588D01*
X485289Y184347D01*
X493922Y192980D01*
X501757D01*
X501847Y192847D01*
X502376Y192493D01*
X503000Y192369D01*
X503624Y192493D01*
X504153Y192847D01*
X504507Y193376D01*
X504631Y194000D01*
X504507Y194624D01*
X504153Y195153D01*
X503624Y195507D01*
X503000Y195631D01*
X502376Y195507D01*
X501847Y195153D01*
X501757Y195020D01*
X493500D01*
X493110Y194942D01*
X492779Y194721D01*
X485453Y187395D01*
X485225Y187430D01*
X484739Y187671D01*
X484649Y188124D01*
X484295Y188654D01*
X483766Y189007D01*
X483142Y189131D01*
X482807Y189065D01*
X482386Y189695D01*
X482507Y189876D01*
X482631Y190500D01*
X482507Y191124D01*
X482154Y191654D01*
X481624Y192007D01*
X481000Y192131D01*
X480970Y192125D01*
X480377Y192567D01*
X480316Y193170D01*
X480343Y193212D01*
X480468Y193836D01*
X480343Y194460D01*
X479990Y194990D01*
X479460Y195343D01*
X478836Y195468D01*
X478212Y195343D01*
X477683Y194990D01*
X477400Y194567D01*
X372610D01*
X372265Y195267D01*
X372603Y195708D01*
X372961Y196573D01*
X373083Y197500D01*
X372961Y198427D01*
X372603Y199292D01*
X372034Y200034D01*
X371292Y200603D01*
X370427Y200961D01*
X369500Y201083D01*
X368573Y200961D01*
X367708Y200603D01*
X366966Y200034D01*
X366397Y199292D01*
X366039Y198427D01*
X365917Y197500D01*
X366039Y196573D01*
X366397Y195708D01*
X366735Y195267D01*
X366390Y194567D01*
X363875D01*
X362642Y195800D01*
X362961Y196573D01*
X363083Y197500D01*
X362961Y198427D01*
X362603Y199292D01*
X362034Y200034D01*
X361292Y200603D01*
X360427Y200961D01*
X359500Y201083D01*
X358573Y200961D01*
X357708Y200603D01*
X356966Y200034D01*
X356397Y199292D01*
X356039Y198427D01*
X355917Y197500D01*
X356039Y196573D01*
X356397Y195708D01*
X356966Y194966D01*
X357708Y194397D01*
X358573Y194039D01*
X359500Y193917D01*
X360427Y194039D01*
X361200Y194359D01*
X362609Y192949D01*
X362714Y192500D01*
X362609Y192051D01*
X361200Y190641D01*
X360427Y190961D01*
X359500Y191083D01*
X358573Y190961D01*
X357708Y190603D01*
X356966Y190034D01*
X356397Y189292D01*
X356039Y188427D01*
X355917Y187500D01*
X356039Y186573D01*
X356397Y185708D01*
X356966Y184966D01*
X357708Y184397D01*
X358573Y184039D01*
X359500Y183917D01*
X360427Y184039D01*
X361292Y184397D01*
X362034Y184966D01*
X362603Y185708D01*
X362961Y186573D01*
X363083Y187500D01*
X362961Y188427D01*
X362642Y189200D01*
X363922Y190480D01*
X366446D01*
X366772Y189780D01*
X366397Y189292D01*
X366039Y188427D01*
X365917Y187500D01*
X366039Y186573D01*
X366397Y185708D01*
X366966Y184966D01*
X367708Y184397D01*
X368573Y184039D01*
X369500Y183917D01*
X370427Y184039D01*
X371292Y184397D01*
X372034Y184966D01*
X372603Y185708D01*
X372961Y186573D01*
X373083Y187500D01*
X372961Y188427D01*
X372603Y189292D01*
X372228Y189780D01*
X372554Y190480D01*
X479373D01*
X479493Y189876D01*
X479846Y189347D01*
X480376Y188993D01*
X481000Y188869D01*
X481334Y188935D01*
X481755Y188305D01*
X481635Y188124D01*
X481510Y187500D01*
X481542Y187342D01*
X471219Y177020D01*
X379422D01*
X374221Y182221D01*
X373890Y182442D01*
X373500Y182520D01*
X363500D01*
X363110Y182442D01*
X362779Y182221D01*
X361200Y180641D01*
X360427Y180961D01*
X359500Y181083D01*
X358573Y180961D01*
X357708Y180603D01*
X356966Y180034D01*
X356397Y179292D01*
X356039Y178427D01*
X355917Y177500D01*
X356039Y176573D01*
X356397Y175708D01*
X356966Y174966D01*
X357708Y174397D01*
X358573Y174039D01*
X359500Y173917D01*
X360427Y174039D01*
X361292Y174397D01*
X362034Y174966D01*
X362603Y175708D01*
X362961Y176573D01*
X363083Y177500D01*
X362961Y178427D01*
X362642Y179200D01*
X363922Y180480D01*
X366446D01*
X366772Y179780D01*
X366397Y179292D01*
X366039Y178427D01*
X365917Y177500D01*
X366039Y176573D01*
X366397Y175708D01*
X366966Y174966D01*
X367708Y174397D01*
X368573Y174039D01*
X369500Y173917D01*
X370427Y174039D01*
X371200Y174358D01*
X372279Y173279D01*
X372368Y173220D01*
X372156Y172520D01*
X363500D01*
X363110Y172442D01*
X362779Y172221D01*
X361200Y170642D01*
X360427Y170961D01*
X359500Y171083D01*
X358573Y170961D01*
X357708Y170603D01*
X356966Y170034D01*
X356397Y169292D01*
X356039Y168427D01*
X355917Y167500D01*
X356039Y166573D01*
X356397Y165708D01*
X356966Y164966D01*
X357708Y164397D01*
X358573Y164039D01*
X359500Y163917D01*
X360427Y164039D01*
X361292Y164397D01*
X362034Y164966D01*
X362603Y165708D01*
X362961Y166573D01*
X363083Y167500D01*
X362961Y168427D01*
X362642Y169200D01*
X363922Y170480D01*
X366446D01*
X366772Y169780D01*
X366397Y169292D01*
X366039Y168427D01*
X365917Y167500D01*
X366039Y166573D01*
X366397Y165708D01*
X366966Y164966D01*
X367708Y164397D01*
X368136Y164220D01*
X367997Y163520D01*
X364500D01*
X364110Y163442D01*
X363779Y163221D01*
X361200Y160642D01*
X360427Y160961D01*
X359500Y161083D01*
X358573Y160961D01*
X357708Y160603D01*
X356966Y160034D01*
X356397Y159292D01*
X356039Y158427D01*
X355917Y157500D01*
X356039Y156573D01*
X356397Y155708D01*
X356966Y154966D01*
X357708Y154397D01*
X358573Y154039D01*
X359500Y153917D01*
X360427Y154039D01*
X361292Y154397D01*
X362034Y154966D01*
X362603Y155708D01*
X362961Y156573D01*
X363083Y157500D01*
X362961Y158427D01*
X362642Y159200D01*
X364922Y161480D01*
X367997D01*
X368136Y160780D01*
X367708Y160603D01*
X366966Y160034D01*
X366397Y159292D01*
X366039Y158427D01*
X365917Y157500D01*
X366039Y156573D01*
X366397Y155708D01*
X366966Y154966D01*
X367708Y154397D01*
X368573Y154039D01*
X369500Y153917D01*
X370427Y154039D01*
X371292Y154397D01*
X372034Y154966D01*
X372603Y155708D01*
X372923Y156480D01*
X381136D01*
X381374Y155780D01*
X381004Y155496D01*
X380443Y154765D01*
X380090Y153914D01*
X380036Y153500D01*
X386964D01*
X386910Y153914D01*
X386557Y154765D01*
X385996Y155496D01*
X385626Y155780D01*
X385863Y156480D01*
X475500D01*
X475890Y156558D01*
X476221Y156779D01*
X510221Y190779D01*
X510442Y191110D01*
X510520Y191500D01*
Y206993D01*
X510653Y207083D01*
X511007Y207612D01*
X511085Y208002D01*
X511718Y208273D01*
X511799Y208278D01*
X525410Y194720D01*
X525121Y194020D01*
X516243D01*
X516153Y194153D01*
X515624Y194507D01*
X515000Y194631D01*
X514376Y194507D01*
X513846Y194153D01*
X513493Y193624D01*
X513369Y193000D01*
X513493Y192376D01*
X513846Y191847D01*
X514376Y191493D01*
X515000Y191369D01*
X515624Y191493D01*
X516153Y191847D01*
X516243Y191980D01*
X525078D01*
X580279Y136779D01*
X580610Y136558D01*
X581000Y136480D01*
X596077D01*
X596397Y135708D01*
X596966Y134966D01*
X597708Y134397D01*
X598572Y134039D01*
X599500Y133917D01*
X600427Y134039D01*
X601292Y134397D01*
X602034Y134966D01*
X602603Y135708D01*
X602961Y136573D01*
X603083Y137500D01*
X602961Y138427D01*
X602603Y139292D01*
X602034Y140034D01*
X601292Y140603D01*
X600427Y140961D01*
X599500Y141083D01*
X598572Y140961D01*
X597708Y140603D01*
X596966Y140034D01*
X596397Y139292D01*
X596077Y138520D01*
X581422D01*
X552662Y167280D01*
X552951Y167980D01*
X559903D01*
X560065Y167280D01*
X559558Y166942D01*
X559116Y166280D01*
X559060Y166000D01*
X562940D01*
X562884Y166280D01*
X562442Y166942D01*
X561935Y167280D01*
X562097Y167980D01*
X573938D01*
X574500Y167869D01*
X575124Y167993D01*
X575654Y168347D01*
X576007Y168876D01*
X576131Y169500D01*
X576007Y170124D01*
X575654Y170653D01*
X575124Y171007D01*
X574500Y171131D01*
X573876Y171007D01*
X573347Y170653D01*
X572993Y170124D01*
X572972Y170020D01*
X571547D01*
X571076Y170720D01*
X571131Y171000D01*
X571007Y171624D01*
X570934Y171733D01*
X571309Y172433D01*
X593125D01*
X596358Y169200D01*
X596039Y168427D01*
X595917Y167500D01*
X596039Y166573D01*
X596397Y165708D01*
X596966Y164966D01*
X597708Y164397D01*
X598572Y164039D01*
X599500Y163917D01*
X600427Y164039D01*
X601292Y164397D01*
X602034Y164966D01*
X602603Y165708D01*
X602961Y166573D01*
X603083Y167500D01*
X602961Y168427D01*
X602603Y169292D01*
X602034Y170034D01*
X601292Y170603D01*
X600864Y170780D01*
X601003Y171480D01*
X604078D01*
X606358Y169200D01*
X606039Y168427D01*
X605917Y167500D01*
X606039Y166573D01*
X606397Y165708D01*
X606966Y164966D01*
X607708Y164397D01*
X608572Y164039D01*
X609500Y163917D01*
X610428Y164039D01*
X611292Y164397D01*
X612034Y164966D01*
X612603Y165708D01*
X612961Y166573D01*
X613083Y167500D01*
X612961Y168427D01*
X612603Y169292D01*
X612034Y170034D01*
X611292Y170603D01*
X610428Y170961D01*
X609500Y171083D01*
X608572Y170961D01*
X607800Y170642D01*
X605221Y173221D01*
X604890Y173442D01*
X604500Y173520D01*
X601003D01*
X600864Y174220D01*
X601292Y174397D01*
X602034Y174966D01*
X602603Y175708D01*
X602961Y176573D01*
X603083Y177500D01*
X602961Y178427D01*
X602603Y179292D01*
X602034Y180034D01*
X601292Y180603D01*
X600427Y180961D01*
X599500Y181083D01*
X598572Y180961D01*
X597708Y180603D01*
X596966Y180034D01*
X596397Y179292D01*
X596039Y178427D01*
X595917Y177500D01*
X596039Y176573D01*
X596166Y176266D01*
X595572Y175870D01*
X589662Y181780D01*
X589952Y182480D01*
X603078D01*
X606358Y179200D01*
X606039Y178427D01*
X605917Y177500D01*
X606039Y176573D01*
X606397Y175708D01*
X606966Y174966D01*
X607708Y174397D01*
X608572Y174039D01*
X609500Y173917D01*
X610428Y174039D01*
X611292Y174397D01*
X612034Y174966D01*
X612603Y175708D01*
X612961Y176573D01*
X613083Y177500D01*
X612961Y178427D01*
X612603Y179292D01*
X612034Y180034D01*
X611292Y180603D01*
X610428Y180961D01*
X609500Y181083D01*
X608572Y180961D01*
X607800Y180641D01*
X604221Y184221D01*
X603890Y184442D01*
X603500Y184520D01*
X602554D01*
X602228Y185220D01*
X602603Y185708D01*
X602961Y186573D01*
X603083Y187500D01*
X602961Y188427D01*
X602603Y189292D01*
X602034Y190034D01*
X601292Y190603D01*
X600427Y190961D01*
X599500Y191083D01*
X598572Y190961D01*
X597708Y190603D01*
X596966Y190034D01*
X596397Y189292D01*
X596077Y188520D01*
X591922D01*
X586608Y193834D01*
X586876Y194480D01*
X588078D01*
X589779Y192779D01*
X590110Y192558D01*
X590500Y192480D01*
X603078D01*
X606358Y189200D01*
X606039Y188427D01*
X605917Y187500D01*
X606039Y186573D01*
X606397Y185708D01*
X606966Y184966D01*
X607708Y184397D01*
X608572Y184039D01*
X609500Y183917D01*
X610428Y184039D01*
X611292Y184397D01*
X612034Y184966D01*
X612603Y185708D01*
X612961Y186573D01*
X613083Y187500D01*
X612961Y188427D01*
X612603Y189292D01*
X612034Y190034D01*
X611292Y190603D01*
X610428Y190961D01*
X609500Y191083D01*
X608572Y190961D01*
X607800Y190641D01*
X604221Y194221D01*
X603890Y194442D01*
X603500Y194520D01*
X602554D01*
X602228Y195220D01*
X602603Y195708D01*
X602961Y196573D01*
X603083Y197500D01*
X602961Y198427D01*
X602603Y199292D01*
X602034Y200034D01*
X601292Y200603D01*
X600864Y200780D01*
X601003Y201480D01*
X604078D01*
X606358Y199200D01*
X606039Y198427D01*
X605917Y197500D01*
X606039Y196573D01*
X606397Y195708D01*
X606966Y194966D01*
X607708Y194397D01*
X608572Y194039D01*
X609500Y193917D01*
X610428Y194039D01*
X611292Y194397D01*
X612034Y194966D01*
X612603Y195708D01*
X612961Y196573D01*
X613083Y197500D01*
X612961Y198427D01*
X612603Y199292D01*
X612034Y200034D01*
X611292Y200603D01*
X610428Y200961D01*
X609500Y201083D01*
X608572Y200961D01*
X607800Y200641D01*
X605221Y203221D01*
X604890Y203442D01*
X604500Y203520D01*
X601003D01*
X600864Y204220D01*
X601292Y204397D01*
X602034Y204966D01*
X602603Y205708D01*
X602961Y206573D01*
X603083Y207500D01*
X602961Y208427D01*
X602603Y209292D01*
X602034Y210034D01*
X601292Y210603D01*
X600864Y210780D01*
X601003Y211480D01*
X604078D01*
X606358Y209200D01*
X606039Y208427D01*
X605917Y207500D01*
X606039Y206573D01*
X606397Y205708D01*
X606966Y204966D01*
X607708Y204397D01*
X608572Y204039D01*
X609500Y203917D01*
X610428Y204039D01*
X611292Y204397D01*
X612034Y204966D01*
X612603Y205708D01*
X612961Y206573D01*
X613083Y207500D01*
X612961Y208427D01*
X612603Y209292D01*
X612034Y210034D01*
X611292Y210603D01*
X610428Y210961D01*
X609500Y211083D01*
X608572Y210961D01*
X607800Y210642D01*
X605221Y213221D01*
X604890Y213442D01*
X604500Y213520D01*
X601003D01*
X600864Y214220D01*
X601292Y214397D01*
X602034Y214966D01*
X602603Y215708D01*
X602961Y216573D01*
X603083Y217500D01*
X602961Y218427D01*
X602603Y219292D01*
X602034Y220034D01*
X601292Y220603D01*
X600427Y220961D01*
X599500Y221083D01*
X598572Y220961D01*
X597708Y220603D01*
X596966Y220034D01*
X596397Y219292D01*
X596077Y218520D01*
X589243D01*
X589153Y218653D01*
X588624Y219007D01*
X588000Y219131D01*
X587376Y219007D01*
X586846Y218653D01*
X586493Y218124D01*
X586369Y217500D01*
X586493Y216876D01*
X586846Y216347D01*
X587376Y215993D01*
X588000Y215869D01*
X588624Y215993D01*
X589153Y216347D01*
X589243Y216480D01*
X596077D01*
X596397Y215708D01*
X596966Y214966D01*
X597708Y214397D01*
X598136Y214220D01*
X597997Y213520D01*
X585076D01*
X584553Y213947D01*
X584553Y214220D01*
Y221053D01*
X577447D01*
Y214220D01*
X577447Y213947D01*
X576924Y213520D01*
X550922D01*
X534618Y229824D01*
X534631Y229890D01*
X534507Y230514D01*
X534154Y231043D01*
X533624Y231397D01*
X533000Y231521D01*
X532720Y231465D01*
X532020Y231937D01*
Y235578D01*
X533015Y236573D01*
X533275Y236446D01*
X533592Y236160D01*
X533560Y236000D01*
X535000D01*
Y237440D01*
X534840Y237408D01*
X534554Y237725D01*
X534427Y237985D01*
X536422Y239980D01*
X559903D01*
X560065Y239280D01*
X559558Y238942D01*
X559116Y238280D01*
X559060Y238000D01*
X562940D01*
X562884Y238280D01*
X562442Y238942D01*
X561935Y239280D01*
X562097Y239980D01*
X595578D01*
X596358Y239200D01*
X596039Y238427D01*
X595917Y237500D01*
X596039Y236573D01*
X596397Y235708D01*
X596966Y234966D01*
X597708Y234397D01*
X598136Y234220D01*
X597997Y233520D01*
X560422D01*
X558221Y235721D01*
X557890Y235942D01*
X557500Y236020D01*
X545972D01*
X545582Y235942D01*
X545252Y235721D01*
X544779Y235248D01*
X544558Y234918D01*
X544530Y234776D01*
X544347Y234653D01*
X543993Y234124D01*
X543869Y233500D01*
X543993Y232876D01*
X544347Y232347D01*
X544876Y231993D01*
X545500Y231869D01*
X546124Y231993D01*
X546654Y232347D01*
X547007Y232876D01*
X547131Y233500D01*
X547526Y233980D01*
X557078D01*
X559279Y231779D01*
X559610Y231558D01*
X560000Y231480D01*
X579497D01*
X579636Y230780D01*
X579208Y230603D01*
X578466Y230034D01*
X577897Y229292D01*
X577539Y228427D01*
X577417Y227500D01*
X577539Y226573D01*
X577897Y225708D01*
X578466Y224966D01*
X579208Y224397D01*
X580072Y224039D01*
X581000Y223917D01*
X581927Y224039D01*
X582792Y224397D01*
X583534Y224966D01*
X584103Y225708D01*
X584423Y226480D01*
X596077D01*
X596397Y225708D01*
X596966Y224966D01*
X597708Y224397D01*
X598572Y224039D01*
X599500Y223917D01*
X600427Y224039D01*
X601292Y224397D01*
X602034Y224966D01*
X602603Y225708D01*
X602961Y226573D01*
X603083Y227500D01*
X602961Y228427D01*
X602603Y229292D01*
X602034Y230034D01*
X601292Y230603D01*
X600864Y230780D01*
X601003Y231480D01*
X604078D01*
X606358Y229200D01*
X606039Y228427D01*
X605917Y227500D01*
X606039Y226573D01*
X606397Y225708D01*
X606966Y224966D01*
X607708Y224397D01*
X608572Y224039D01*
X609500Y223917D01*
X610428Y224039D01*
X611292Y224397D01*
X612034Y224966D01*
X612603Y225708D01*
X612961Y226573D01*
X613083Y227500D01*
X612961Y228427D01*
X612603Y229292D01*
X612034Y230034D01*
X611292Y230603D01*
X610428Y230961D01*
X609500Y231083D01*
X608572Y230961D01*
X607800Y230642D01*
X605221Y233221D01*
X604890Y233442D01*
X604500Y233520D01*
X601003D01*
X600864Y234220D01*
X601292Y234397D01*
X602034Y234966D01*
X602603Y235708D01*
X602961Y236573D01*
X603083Y237500D01*
X602961Y238427D01*
X602603Y239292D01*
X602034Y240034D01*
X601292Y240603D01*
X600864Y240780D01*
X601003Y241480D01*
X604078D01*
X606358Y239200D01*
X606039Y238427D01*
X605917Y237500D01*
X606039Y236573D01*
X606397Y235708D01*
X606966Y234966D01*
X607708Y234397D01*
X608572Y234039D01*
X609500Y233917D01*
X610428Y234039D01*
X611292Y234397D01*
X612034Y234966D01*
X612603Y235708D01*
X612961Y236573D01*
X613083Y237500D01*
X612961Y238427D01*
X612603Y239292D01*
X612034Y240034D01*
X611292Y240603D01*
X610428Y240961D01*
X609500Y241083D01*
X608572Y240961D01*
X607800Y240641D01*
X605221Y243221D01*
X604890Y243442D01*
X604500Y243520D01*
X601003D01*
X600864Y244220D01*
X601292Y244397D01*
X602034Y244966D01*
X602603Y245708D01*
X602961Y246573D01*
X603083Y247500D01*
X602961Y248427D01*
X602603Y249292D01*
X602034Y250034D01*
X601292Y250603D01*
X600427Y250961D01*
X599500Y251083D01*
X598572Y250961D01*
X597708Y250603D01*
X596966Y250034D01*
X596397Y249292D01*
X596077Y248520D01*
X585243D01*
X585153Y248654D01*
X584624Y249007D01*
X584000Y249131D01*
X583748Y249081D01*
X583202Y249596D01*
X583181Y249668D01*
X583209Y249771D01*
X583221Y249779D01*
X589922Y256480D01*
X596077D01*
X596397Y255708D01*
X596966Y254966D01*
X597708Y254397D01*
X598572Y254039D01*
X599500Y253917D01*
X600427Y254039D01*
X601292Y254397D01*
X602034Y254966D01*
X602603Y255708D01*
X602961Y256573D01*
X603083Y257500D01*
X603077Y257546D01*
X603732Y257936D01*
X603980Y257756D01*
Y252000D01*
X604058Y251610D01*
X604279Y251279D01*
X606358Y249200D01*
X606039Y248427D01*
X605917Y247500D01*
X606039Y246573D01*
X606397Y245708D01*
X606966Y244966D01*
X607708Y244397D01*
X608572Y244039D01*
X609500Y243917D01*
X610428Y244039D01*
X611292Y244397D01*
X612034Y244966D01*
X612603Y245708D01*
X612961Y246573D01*
X613083Y247500D01*
X612961Y248427D01*
X612603Y249292D01*
X612034Y250034D01*
X611292Y250603D01*
X610428Y250961D01*
X609500Y251083D01*
X608572Y250961D01*
X607800Y250641D01*
X606020Y252422D01*
Y255050D01*
X606720Y255288D01*
X606966Y254966D01*
X607708Y254397D01*
X608572Y254039D01*
X609500Y253917D01*
X610428Y254039D01*
X611292Y254397D01*
X612034Y254966D01*
X612603Y255708D01*
X612961Y256573D01*
X613083Y257500D01*
X612961Y258427D01*
X612603Y259292D01*
X612034Y260034D01*
X611292Y260603D01*
X610428Y260961D01*
X609500Y261083D01*
X608572Y260961D01*
X607800Y260642D01*
X604221Y264221D01*
X603890Y264442D01*
X603500Y264520D01*
X603078D01*
X602733Y265220D01*
X602953Y265507D01*
X603351Y266468D01*
X603421Y267000D01*
X599500D01*
X595579D01*
X595649Y266468D01*
X596047Y265507D01*
X596268Y265220D01*
X595922Y264520D01*
X593922D01*
X589221Y269221D01*
X588890Y269442D01*
X588500Y269520D01*
X493422D01*
X491600Y271342D01*
X491631Y271500D01*
X491507Y272124D01*
X491153Y272654D01*
X490624Y273007D01*
X490000Y273131D01*
X489376Y273007D01*
X488846Y272654D01*
X488493Y272124D01*
X488369Y271500D01*
X488493Y270876D01*
X488846Y270346D01*
X489157Y270139D01*
X489175Y270086D01*
Y269414D01*
X489157Y269361D01*
X488846Y269153D01*
X488493Y268624D01*
X488369Y268000D01*
X488493Y267376D01*
X488846Y266846D01*
X489376Y266493D01*
X489498Y265755D01*
X489347Y265653D01*
X488993Y265124D01*
X488869Y264500D01*
X488993Y263876D01*
X489347Y263347D01*
X489876Y262993D01*
X490500Y262869D01*
X491124Y262993D01*
X491653Y263347D01*
X492007Y263876D01*
X492028Y263980D01*
X582757D01*
X582846Y263846D01*
X583376Y263493D01*
X584000Y263369D01*
X584624Y263493D01*
X585153Y263846D01*
X585507Y264376D01*
X585631Y265000D01*
X585579Y265265D01*
X585988Y265828D01*
X586685Y265873D01*
X591779Y260779D01*
X592110Y260558D01*
X592500Y260480D01*
X596446D01*
X596772Y259780D01*
X596397Y259292D01*
X596077Y258520D01*
X589500D01*
X589110Y258442D01*
X588779Y258221D01*
X582389Y251831D01*
X582124Y252007D01*
X581500Y252131D01*
X580876Y252007D01*
X580346Y251654D01*
X579993Y251124D01*
X579869Y250500D01*
X579993Y249876D01*
X580346Y249346D01*
X580876Y248993D01*
X581500Y248869D01*
X582080Y248984D01*
X582124Y248993D01*
X582263Y249040D01*
X582710Y248458D01*
X582680Y248404D01*
X582493Y248124D01*
X582369Y247500D01*
X582493Y246876D01*
X582846Y246346D01*
X583376Y245993D01*
X584000Y245869D01*
X584624Y245993D01*
X585153Y246346D01*
X585243Y246480D01*
X596077D01*
X596397Y245708D01*
X596966Y244966D01*
X597708Y244397D01*
X598136Y244220D01*
X597997Y243520D01*
X584422D01*
X575221Y252721D01*
X574890Y252942D01*
X574728Y252974D01*
X574420Y253500D01*
X574384Y253720D01*
X574384Y253720D01*
X574440Y254000D01*
X570560D01*
X570616Y253720D01*
X570616Y253720D01*
X570242Y253020D01*
X513083D01*
X513062Y253124D01*
X512709Y253654D01*
X512179Y254007D01*
X511555Y254131D01*
X510931Y254007D01*
X510402Y253654D01*
X510048Y253124D01*
X509924Y252500D01*
X510048Y251876D01*
X510402Y251346D01*
X510931Y250993D01*
X511555Y250869D01*
X512117Y250980D01*
X515903D01*
X516065Y250280D01*
X515558Y249942D01*
X515116Y249280D01*
X515060Y249000D01*
X518940D01*
X518884Y249280D01*
X518442Y249942D01*
X517935Y250280D01*
X518097Y250980D01*
X529453D01*
X529924Y250280D01*
X529869Y250000D01*
X529993Y249376D01*
X530301Y248915D01*
X529641Y248254D01*
X528812Y248416D01*
X528653Y248654D01*
X528124Y249007D01*
X527500Y249131D01*
X526876Y249007D01*
X526346Y248654D01*
X525993Y248124D01*
X525869Y247500D01*
X525993Y246876D01*
X526346Y246346D01*
X526480Y246257D01*
Y219322D01*
X526346Y219232D01*
X525993Y218703D01*
X525949Y218483D01*
X525189Y218252D01*
X521753Y221689D01*
X521983Y222449D01*
X522124Y222477D01*
X522653Y222831D01*
X523007Y223360D01*
X523131Y223984D01*
X523007Y224608D01*
X522653Y225138D01*
X522520Y225227D01*
Y241241D01*
X522653Y241331D01*
X523007Y241860D01*
X523131Y242484D01*
X523007Y243109D01*
X522653Y243638D01*
X522124Y243991D01*
X521500Y244116D01*
X520876Y243991D01*
X520346Y243638D01*
X519993Y243109D01*
X519869Y242484D01*
X519993Y241860D01*
X520346Y241331D01*
X520480Y241241D01*
Y225227D01*
X520346Y225138D01*
X519993Y224608D01*
X519965Y224467D01*
X519205Y224237D01*
X506926Y236516D01*
X506595Y236737D01*
X506205Y236815D01*
X504243D01*
X504153Y236949D01*
X503624Y237302D01*
X503000Y237427D01*
X502376Y237302D01*
X501847Y236949D01*
X501620Y236609D01*
X500920Y236822D01*
Y253404D01*
X501454Y253878D01*
X501500Y253869D01*
X502124Y253993D01*
X502654Y254346D01*
X503007Y254876D01*
X503131Y255500D01*
X503007Y256124D01*
X502654Y256653D01*
X502124Y257007D01*
X501500Y257131D01*
X500876Y257007D01*
X500347Y256653D01*
X500217Y256460D01*
X499732Y256559D01*
X499517Y256672D01*
X499407Y257224D01*
X499053Y257753D01*
X499013Y257780D01*
X499226Y258480D01*
X503723D01*
X504097Y257780D01*
X503993Y257624D01*
X503869Y257000D01*
X503993Y256376D01*
X504347Y255847D01*
X504876Y255493D01*
X505500Y255369D01*
X506124Y255493D01*
X506653Y255847D01*
X506743Y255980D01*
X570242D01*
X570616Y255280D01*
X570616Y255280D01*
X570560Y255000D01*
X574440D01*
X574384Y255280D01*
X574384Y255280D01*
X574758Y255980D01*
X577838D01*
X578369Y255500D01*
X578493Y254876D01*
X578847Y254346D01*
X579376Y253993D01*
X580000Y253869D01*
X580624Y253993D01*
X581153Y254346D01*
X581507Y254876D01*
X581631Y255500D01*
X581516Y256080D01*
X581507Y256124D01*
X581504Y256132D01*
X581460Y256263D01*
X582046Y256713D01*
X582376Y256493D01*
X583000Y256369D01*
X583624Y256493D01*
X584154Y256846D01*
X584507Y257376D01*
X584631Y258000D01*
X584552Y258398D01*
X584607Y258499D01*
X585001Y258893D01*
X585102Y258948D01*
X585500Y258869D01*
X586124Y258993D01*
X586654Y259347D01*
X587007Y259876D01*
X587131Y260500D01*
X587007Y261124D01*
X586654Y261653D01*
X586124Y262007D01*
X585500Y262131D01*
X585342Y262100D01*
X585221Y262221D01*
X584890Y262442D01*
X584500Y262520D01*
X495500D01*
X495110Y262442D01*
X494779Y262221D01*
X493578Y261020D01*
X492243D01*
X492154Y261154D01*
X491624Y261507D01*
X491000Y261631D01*
X490376Y261507D01*
X489847Y261154D01*
X489493Y260624D01*
X489369Y260000D01*
X489493Y259376D01*
X489847Y258846D01*
X490376Y258493D01*
X490498Y257755D01*
X490346Y257653D01*
X489993Y257124D01*
X489869Y256500D01*
X489993Y255876D01*
X490346Y255346D01*
X490876Y254993D01*
X491500Y254869D01*
X492124Y254993D01*
X492654Y255346D01*
X492743Y255480D01*
X493500D01*
X493890Y255558D01*
X494221Y255779D01*
X495682Y257240D01*
X496327Y256896D01*
X496269Y256600D01*
X496393Y255976D01*
X496746Y255447D01*
X496880Y255357D01*
Y219822D01*
X492204Y215146D01*
X491510Y215184D01*
X491076Y215830D01*
X491131Y216110D01*
X491007Y216735D01*
X490654Y217264D01*
X490520Y217353D01*
Y226000D01*
X490442Y226390D01*
X490221Y226721D01*
X468721Y248221D01*
X468390Y248442D01*
X468000Y248520D01*
X464243D01*
X464153Y248654D01*
X463624Y249007D01*
X463000Y249131D01*
X462376Y249007D01*
X461846Y248654D01*
X461757Y248520D01*
X402258D01*
X401884Y249220D01*
X401884Y249220D01*
X401940Y249500D01*
X398060D01*
X398116Y249220D01*
X398116Y249220D01*
X397742Y248520D01*
X379258D01*
X378884Y249220D01*
X378884Y249220D01*
X378940Y249500D01*
X377000D01*
Y250500D01*
X378940D01*
X378884Y250780D01*
X378816Y250882D01*
X379190Y251582D01*
X397810D01*
X398184Y250882D01*
X398116Y250780D01*
X398060Y250500D01*
X401940D01*
X401884Y250780D01*
X401816Y250882D01*
X402190Y251582D01*
X479862D01*
X480020Y251346D01*
X480549Y250993D01*
X481173Y250869D01*
X481798Y250993D01*
X482327Y251346D01*
X482680Y251876D01*
X482805Y252500D01*
X482680Y253124D01*
X482327Y253654D01*
X481798Y254007D01*
X481173Y254131D01*
X480549Y254007D01*
X480020Y253654D01*
X479862Y253418D01*
X478912D01*
X478571Y254118D01*
X478743Y254376D01*
X478868Y255000D01*
X478743Y255624D01*
X478390Y256153D01*
X477860Y256507D01*
X477236Y256631D01*
X476612Y256507D01*
X476083Y256153D01*
X475925Y255918D01*
X377857D01*
X377780Y256616D01*
X378442Y257058D01*
X378884Y257720D01*
X378940Y258000D01*
X375060D01*
X375116Y257720D01*
X375558Y257058D01*
X376220Y256616D01*
X376143Y255918D01*
X374000D01*
X373649Y255848D01*
X373351Y255649D01*
X373326Y255624D01*
X372732Y256020D01*
X372961Y256573D01*
X373083Y257500D01*
X372961Y258427D01*
X372603Y259292D01*
X372034Y260034D01*
X371292Y260603D01*
X370618Y260882D01*
X370757Y261582D01*
X381120D01*
X384851Y257851D01*
X385149Y257652D01*
X385500Y257582D01*
X477893D01*
X478051Y257347D01*
X478580Y256993D01*
X479205Y256869D01*
X479829Y256993D01*
X480358Y257347D01*
X480712Y257876D01*
X480836Y258500D01*
X480712Y259124D01*
X480358Y259653D01*
X479829Y260007D01*
X479205Y260131D01*
X478580Y260007D01*
X478051Y259653D01*
X477893Y259418D01*
X449523D01*
X449311Y260118D01*
X449653Y260347D01*
X450007Y260876D01*
X450131Y261500D01*
X450007Y262124D01*
X449653Y262653D01*
X449464Y262780D01*
X449676Y263480D01*
X452757D01*
X452846Y263347D01*
X453376Y262993D01*
X454000Y262869D01*
X454624Y262993D01*
X455154Y263347D01*
X455507Y263876D01*
X455631Y264500D01*
X455507Y265124D01*
X455154Y265653D01*
X454624Y266007D01*
X454000Y266131D01*
X453376Y266007D01*
X452846Y265653D01*
X452838Y265640D01*
X452390Y265663D01*
X452204Y266201D01*
X452172Y266374D01*
X452507Y266876D01*
X452631Y267500D01*
X452554Y267888D01*
X452900Y268501D01*
X453020Y268617D01*
X453396Y268663D01*
X455279Y266779D01*
X455610Y266558D01*
X456000Y266480D01*
X458757D01*
X458847Y266347D01*
X459376Y265993D01*
X460000Y265869D01*
X460624Y265993D01*
X461154Y266347D01*
X461507Y266876D01*
X461631Y267500D01*
X461507Y268124D01*
X461154Y268653D01*
X460624Y269007D01*
X460000Y269131D01*
X459376Y269007D01*
X458847Y268653D01*
X458757Y268520D01*
X456422D01*
X454221Y270721D01*
X454132Y270780D01*
X454344Y271480D01*
X455757D01*
X455847Y271346D01*
X456376Y270993D01*
X457000Y270869D01*
X457624Y270993D01*
X458153Y271346D01*
X458507Y271876D01*
X458631Y272500D01*
X458507Y273124D01*
X458403Y273280D01*
X458777Y273980D01*
X459000D01*
X459390Y274058D01*
X459721Y274279D01*
X462842Y277400D01*
X463000Y277369D01*
X463624Y277493D01*
X464153Y277847D01*
X464243Y277980D01*
X474151D01*
X474286Y277797D01*
X474461Y277280D01*
X474116Y276765D01*
X474060Y276484D01*
X477940D01*
X477884Y276765D01*
X477539Y277280D01*
X477714Y277797D01*
X477849Y277980D01*
X489757D01*
X489847Y277847D01*
X490376Y277493D01*
X491000Y277369D01*
X491624Y277493D01*
X492154Y277847D01*
X492507Y278376D01*
X492631Y279000D01*
X492507Y279624D01*
X492154Y280153D01*
X491624Y280507D01*
X491000Y280631D01*
X490376Y280507D01*
X489847Y280153D01*
X489757Y280020D01*
X464243D01*
X464153Y280153D01*
X463624Y280507D01*
X463000Y280631D01*
X462376Y280507D01*
X461846Y280153D01*
X461493Y279624D01*
X461369Y279000D01*
X461400Y278842D01*
X458578Y276020D01*
X440743D01*
X440654Y276153D01*
X440124Y276507D01*
X439500Y276631D01*
X438876Y276507D01*
X438346Y276153D01*
X437993Y275624D01*
X437869Y275000D01*
X437993Y274376D01*
X438097Y274220D01*
X437723Y273520D01*
X415422D01*
X380721Y308221D01*
X380390Y308442D01*
X380000Y308520D01*
X378860D01*
X378749Y308663D01*
X378550Y309220D01*
X378884Y309720D01*
X378940Y310000D01*
X375060D01*
X375116Y309720D01*
X375450Y309220D01*
X375251Y308663D01*
X375140Y308520D01*
X372923D01*
X372603Y309292D01*
X372034Y310034D01*
X371292Y310603D01*
X370427Y310961D01*
X369500Y311083D01*
D02*
G37*
G36*
X459553Y308553D02*
X452447D01*
Y301447D01*
X459553D01*
Y308553D01*
D02*
G37*
G36*
X506000Y308583D02*
X505072Y308461D01*
X504208Y308103D01*
X503466Y307534D01*
X502897Y306792D01*
X502539Y305927D01*
X502417Y305000D01*
X502539Y304073D01*
X502897Y303208D01*
X503466Y302466D01*
X504208Y301897D01*
X505072Y301539D01*
X506000Y301417D01*
X506927Y301539D01*
X507792Y301897D01*
X508534Y302466D01*
X509103Y303208D01*
X509461Y304073D01*
X509583Y305000D01*
X509461Y305927D01*
X509103Y306792D01*
X508534Y307534D01*
X507792Y308103D01*
X506927Y308461D01*
X506000Y308583D01*
D02*
G37*
G36*
X496000D02*
X495073Y308461D01*
X494208Y308103D01*
X493466Y307534D01*
X492897Y306792D01*
X492539Y305927D01*
X492417Y305000D01*
X492539Y304073D01*
X492897Y303208D01*
X493466Y302466D01*
X494208Y301897D01*
X495073Y301539D01*
X496000Y301417D01*
X496927Y301539D01*
X497792Y301897D01*
X498534Y302466D01*
X499103Y303208D01*
X499461Y304073D01*
X499583Y305000D01*
X499461Y305927D01*
X499103Y306792D01*
X498534Y307534D01*
X497792Y308103D01*
X496927Y308461D01*
X496000Y308583D01*
D02*
G37*
G36*
X486000D02*
X485073Y308461D01*
X484208Y308103D01*
X483466Y307534D01*
X482897Y306792D01*
X482539Y305927D01*
X482417Y305000D01*
X482539Y304073D01*
X482897Y303208D01*
X483466Y302466D01*
X484208Y301897D01*
X485073Y301539D01*
X486000Y301417D01*
X486928Y301539D01*
X487792Y301897D01*
X488534Y302466D01*
X489103Y303208D01*
X489461Y304073D01*
X489583Y305000D01*
X489461Y305927D01*
X489103Y306792D01*
X488534Y307534D01*
X487792Y308103D01*
X486928Y308461D01*
X486000Y308583D01*
D02*
G37*
G36*
X466000D02*
X465072Y308461D01*
X464208Y308103D01*
X463466Y307534D01*
X462897Y306792D01*
X462539Y305927D01*
X462417Y305000D01*
X462539Y304073D01*
X462897Y303208D01*
X463466Y302466D01*
X464208Y301897D01*
X465072Y301539D01*
X466000Y301417D01*
X466927Y301539D01*
X467792Y301897D01*
X468534Y302466D01*
X469103Y303208D01*
X469461Y304073D01*
X469583Y305000D01*
X469461Y305927D01*
X469103Y306792D01*
X468534Y307534D01*
X467792Y308103D01*
X466927Y308461D01*
X466000Y308583D01*
D02*
G37*
G36*
X479921Y304500D02*
X476500D01*
Y301079D01*
X477032Y301149D01*
X477993Y301547D01*
X478819Y302181D01*
X479453Y303007D01*
X479851Y303968D01*
X479921Y304500D01*
D02*
G37*
G36*
X475500D02*
X472079D01*
X472149Y303968D01*
X472547Y303007D01*
X473181Y302181D01*
X474007Y301547D01*
X474968Y301149D01*
X475500Y301079D01*
Y304500D01*
D02*
G37*
G36*
X583053Y301053D02*
X575947D01*
Y293947D01*
X583053D01*
Y301053D01*
D02*
G37*
G36*
X609500Y301083D02*
X608572Y300961D01*
X607708Y300603D01*
X606966Y300034D01*
X606397Y299292D01*
X606039Y298427D01*
X605917Y297500D01*
X606039Y296573D01*
X606397Y295708D01*
X606966Y294966D01*
X607708Y294397D01*
X608572Y294039D01*
X609500Y293917D01*
X610428Y294039D01*
X611292Y294397D01*
X612034Y294966D01*
X612603Y295708D01*
X612961Y296573D01*
X613083Y297500D01*
X612961Y298427D01*
X612603Y299292D01*
X612034Y300034D01*
X611292Y300603D01*
X610428Y300961D01*
X609500Y301083D01*
D02*
G37*
G36*
X599500D02*
X598572Y300961D01*
X597708Y300603D01*
X596966Y300034D01*
X596397Y299292D01*
X596039Y298427D01*
X595917Y297500D01*
X596039Y296573D01*
X596397Y295708D01*
X596966Y294966D01*
X597708Y294397D01*
X598572Y294039D01*
X599500Y293917D01*
X600427Y294039D01*
X601292Y294397D01*
X602034Y294966D01*
X602603Y295708D01*
X602961Y296573D01*
X603083Y297500D01*
X602961Y298427D01*
X602603Y299292D01*
X602034Y300034D01*
X601292Y300603D01*
X600427Y300961D01*
X599500Y301083D01*
D02*
G37*
G36*
X378940Y288500D02*
X377500D01*
Y287060D01*
X377780Y287116D01*
X378442Y287558D01*
X378884Y288220D01*
X378940Y288500D01*
D02*
G37*
G36*
X376500D02*
X375060D01*
X375116Y288220D01*
X375558Y287558D01*
X376220Y287116D01*
X376500Y287060D01*
Y288500D01*
D02*
G37*
G36*
X502500Y285940D02*
Y284500D01*
X503940D01*
X503884Y284780D01*
X503442Y285442D01*
X502780Y285884D01*
X502500Y285940D01*
D02*
G37*
G36*
X501500D02*
X501220Y285884D01*
X500558Y285442D01*
X500116Y284780D01*
X500060Y284500D01*
X501500D01*
Y285940D01*
D02*
G37*
G36*
X609500Y291083D02*
X608572Y290961D01*
X607708Y290603D01*
X606966Y290034D01*
X606397Y289292D01*
X606039Y288427D01*
X605917Y287500D01*
X606039Y286573D01*
X606397Y285708D01*
X606966Y284966D01*
X607708Y284397D01*
X608572Y284039D01*
X609500Y283917D01*
X610428Y284039D01*
X611292Y284397D01*
X612034Y284966D01*
X612603Y285708D01*
X612961Y286573D01*
X613083Y287500D01*
X612961Y288427D01*
X612603Y289292D01*
X612034Y290034D01*
X611292Y290603D01*
X610428Y290961D01*
X609500Y291083D01*
D02*
G37*
G36*
X599500D02*
X598572Y290961D01*
X597708Y290603D01*
X596966Y290034D01*
X596397Y289292D01*
X596039Y288427D01*
X595917Y287500D01*
X596039Y286573D01*
X596397Y285708D01*
X596966Y284966D01*
X597708Y284397D01*
X598572Y284039D01*
X599500Y283917D01*
X600427Y284039D01*
X601292Y284397D01*
X602034Y284966D01*
X602603Y285708D01*
X602961Y286573D01*
X603083Y287500D01*
X602961Y288427D01*
X602603Y289292D01*
X602034Y290034D01*
X601292Y290603D01*
X600427Y290961D01*
X599500Y291083D01*
D02*
G37*
G36*
X579500D02*
X578573Y290961D01*
X577708Y290603D01*
X576966Y290034D01*
X576397Y289292D01*
X576039Y288427D01*
X575917Y287500D01*
X576039Y286573D01*
X576397Y285708D01*
X576966Y284966D01*
X577708Y284397D01*
X578573Y284039D01*
X579500Y283917D01*
X580428Y284039D01*
X581292Y284397D01*
X582034Y284966D01*
X582603Y285708D01*
X582961Y286573D01*
X583083Y287500D01*
X582961Y288427D01*
X582603Y289292D01*
X582034Y290034D01*
X581292Y290603D01*
X580428Y290961D01*
X579500Y291083D01*
D02*
G37*
G36*
X359500D02*
X358573Y290961D01*
X357708Y290603D01*
X356966Y290034D01*
X356397Y289292D01*
X356039Y288427D01*
X355917Y287500D01*
X356039Y286573D01*
X356397Y285708D01*
X356966Y284966D01*
X357708Y284397D01*
X358573Y284039D01*
X359500Y283917D01*
X360427Y284039D01*
X361292Y284397D01*
X362034Y284966D01*
X362603Y285708D01*
X362961Y286573D01*
X363083Y287500D01*
X362961Y288427D01*
X362603Y289292D01*
X362034Y290034D01*
X361292Y290603D01*
X360427Y290961D01*
X359500Y291083D01*
D02*
G37*
G36*
X476500Y284940D02*
Y283500D01*
X477940D01*
X477884Y283780D01*
X477442Y284442D01*
X476780Y284884D01*
X476500Y284940D01*
D02*
G37*
G36*
X475500D02*
X475220Y284884D01*
X474558Y284442D01*
X474116Y283780D01*
X474060Y283500D01*
X475500D01*
Y284940D01*
D02*
G37*
G36*
X503940Y283500D02*
X502500D01*
Y282060D01*
X502780Y282116D01*
X503442Y282558D01*
X503884Y283220D01*
X503940Y283500D01*
D02*
G37*
G36*
X501500D02*
X500060D01*
X500116Y283220D01*
X500558Y282558D01*
X501220Y282116D01*
X501500Y282060D01*
Y283500D01*
D02*
G37*
G36*
X477940Y282500D02*
X476500D01*
Y281060D01*
X476780Y281116D01*
X477442Y281558D01*
X477884Y282220D01*
X477940Y282500D01*
D02*
G37*
G36*
X475500D02*
X474060D01*
X474116Y282220D01*
X474558Y281558D01*
X475220Y281116D01*
X475500Y281060D01*
Y282500D01*
D02*
G37*
G36*
X389000Y280464D02*
Y277500D01*
X391964D01*
X391910Y277914D01*
X391557Y278765D01*
X390996Y279496D01*
X390265Y280057D01*
X389414Y280410D01*
X389000Y280464D01*
D02*
G37*
G36*
X388000D02*
X387586Y280410D01*
X386735Y280057D01*
X386004Y279496D01*
X385443Y278765D01*
X385090Y277914D01*
X385036Y277500D01*
X388000D01*
Y280464D01*
D02*
G37*
G36*
X377500Y278440D02*
Y277000D01*
X378940D01*
X378884Y277280D01*
X378442Y277942D01*
X377780Y278384D01*
X377500Y278440D01*
D02*
G37*
G36*
X376500D02*
X376220Y278384D01*
X375558Y277942D01*
X375116Y277280D01*
X375060Y277000D01*
X376500D01*
Y278440D01*
D02*
G37*
G36*
X534000Y276940D02*
Y275500D01*
X535440D01*
X535384Y275780D01*
X534942Y276442D01*
X534280Y276884D01*
X534000Y276940D01*
D02*
G37*
G36*
X533000D02*
X532720Y276884D01*
X532058Y276442D01*
X531616Y275780D01*
X531560Y275500D01*
X533000D01*
Y276940D01*
D02*
G37*
G36*
X378940Y276000D02*
X377500D01*
Y274560D01*
X377780Y274616D01*
X378442Y275058D01*
X378884Y275720D01*
X378940Y276000D01*
D02*
G37*
G36*
X376500D02*
X375060D01*
X375116Y275720D01*
X375558Y275058D01*
X376220Y274616D01*
X376500Y274560D01*
Y276000D01*
D02*
G37*
G36*
X477940Y275484D02*
X476500D01*
Y274044D01*
X476780Y274100D01*
X477442Y274542D01*
X477884Y275204D01*
X477940Y275484D01*
D02*
G37*
G36*
X475500D02*
X474060D01*
X474116Y275204D01*
X474558Y274542D01*
X475220Y274100D01*
X475500Y274044D01*
Y275484D01*
D02*
G37*
G36*
X609500Y281083D02*
X608572Y280961D01*
X607708Y280603D01*
X606966Y280034D01*
X606397Y279292D01*
X606039Y278427D01*
X605917Y277500D01*
X606039Y276573D01*
X606397Y275708D01*
X606966Y274966D01*
X607708Y274397D01*
X608572Y274039D01*
X609500Y273917D01*
X610428Y274039D01*
X611292Y274397D01*
X612034Y274966D01*
X612603Y275708D01*
X612961Y276573D01*
X613083Y277500D01*
X612961Y278427D01*
X612603Y279292D01*
X612034Y280034D01*
X611292Y280603D01*
X610428Y280961D01*
X609500Y281083D01*
D02*
G37*
G36*
X599500D02*
X598572Y280961D01*
X597708Y280603D01*
X596966Y280034D01*
X596397Y279292D01*
X596039Y278427D01*
X595917Y277500D01*
X596039Y276573D01*
X596397Y275708D01*
X596966Y274966D01*
X597708Y274397D01*
X598572Y274039D01*
X599500Y273917D01*
X600427Y274039D01*
X601292Y274397D01*
X602034Y274966D01*
X602603Y275708D01*
X602961Y276573D01*
X603083Y277500D01*
X602961Y278427D01*
X602603Y279292D01*
X602034Y280034D01*
X601292Y280603D01*
X600427Y280961D01*
X599500Y281083D01*
D02*
G37*
G36*
X391964Y276500D02*
X389000D01*
Y273536D01*
X389414Y273590D01*
X390265Y273943D01*
X390996Y274504D01*
X391557Y275235D01*
X391910Y276086D01*
X391964Y276500D01*
D02*
G37*
G36*
X388000D02*
X385036D01*
X385090Y276086D01*
X385443Y275235D01*
X386004Y274504D01*
X386735Y273943D01*
X387586Y273590D01*
X388000Y273536D01*
Y276500D01*
D02*
G37*
G36*
X535440Y274500D02*
X534000D01*
Y273060D01*
X534280Y273116D01*
X534942Y273558D01*
X535384Y274220D01*
X535440Y274500D01*
D02*
G37*
G36*
X533000D02*
X531560D01*
X531616Y274220D01*
X532058Y273558D01*
X532720Y273116D01*
X533000Y273060D01*
Y274500D01*
D02*
G37*
G36*
X600000Y271421D02*
Y268000D01*
X603421D01*
X603351Y268532D01*
X602953Y269493D01*
X602319Y270319D01*
X601493Y270953D01*
X600532Y271351D01*
X600000Y271421D01*
D02*
G37*
G36*
X599000D02*
X598468Y271351D01*
X597507Y270953D01*
X596681Y270319D01*
X596047Y269493D01*
X595649Y268532D01*
X595579Y268000D01*
X599000D01*
Y271421D01*
D02*
G37*
G36*
X609500Y271083D02*
X608572Y270961D01*
X607708Y270603D01*
X606966Y270034D01*
X606397Y269292D01*
X606039Y268427D01*
X605917Y267500D01*
X606039Y266573D01*
X606397Y265708D01*
X606966Y264966D01*
X607708Y264397D01*
X608572Y264039D01*
X609500Y263917D01*
X610428Y264039D01*
X611292Y264397D01*
X612034Y264966D01*
X612603Y265708D01*
X612961Y266573D01*
X613083Y267500D01*
X612961Y268427D01*
X612603Y269292D01*
X612034Y270034D01*
X611292Y270603D01*
X610428Y270961D01*
X609500Y271083D01*
D02*
G37*
G36*
X377500Y260440D02*
Y259000D01*
X378940D01*
X378884Y259280D01*
X378442Y259942D01*
X377780Y260384D01*
X377500Y260440D01*
D02*
G37*
G36*
X376500D02*
X376220Y260384D01*
X375558Y259942D01*
X375116Y259280D01*
X375060Y259000D01*
X376500D01*
Y260440D01*
D02*
G37*
G36*
X518940Y248000D02*
X517500D01*
Y246560D01*
X517780Y246616D01*
X518442Y247058D01*
X518884Y247720D01*
X518940Y248000D01*
D02*
G37*
G36*
X516500D02*
X515060D01*
X515116Y247720D01*
X515558Y247058D01*
X516220Y246616D01*
X516500Y246560D01*
Y248000D01*
D02*
G37*
G36*
X466000Y244631D02*
X465376Y244507D01*
X464847Y244153D01*
X464493Y243624D01*
X464369Y243000D01*
X464301Y242918D01*
X402190D01*
X401816Y243618D01*
X401884Y243720D01*
X401940Y244000D01*
X398060D01*
X398116Y243720D01*
X398184Y243618D01*
X397810Y242918D01*
X364000D01*
X363649Y242848D01*
X363351Y242649D01*
X361300Y240597D01*
X361292Y240603D01*
X360427Y240961D01*
X359500Y241083D01*
X358573Y240961D01*
X357708Y240603D01*
X356966Y240034D01*
X356397Y239292D01*
X356039Y238427D01*
X355917Y237500D01*
X356039Y236573D01*
X356397Y235708D01*
X356966Y234966D01*
X357708Y234397D01*
X358573Y234039D01*
X359500Y233917D01*
X360427Y234039D01*
X361292Y234397D01*
X362034Y234966D01*
X362603Y235708D01*
X362961Y236573D01*
X363083Y237500D01*
X362961Y238427D01*
X362603Y239292D01*
X362597Y239300D01*
X364380Y241082D01*
X367183D01*
X367420Y240382D01*
X366966Y240034D01*
X366397Y239292D01*
X366039Y238427D01*
X365917Y237500D01*
X366039Y236573D01*
X366397Y235708D01*
X366966Y234966D01*
X367708Y234397D01*
X368382Y234118D01*
X368243Y233418D01*
X364500D01*
X364149Y233348D01*
X363851Y233149D01*
X361300Y230597D01*
X361292Y230603D01*
X360427Y230961D01*
X359500Y231083D01*
X358573Y230961D01*
X357708Y230603D01*
X356966Y230034D01*
X356397Y229292D01*
X356039Y228427D01*
X355917Y227500D01*
X356039Y226573D01*
X356397Y225708D01*
X356966Y224966D01*
X357708Y224397D01*
X358573Y224039D01*
X359500Y223917D01*
X360427Y224039D01*
X361292Y224397D01*
X362034Y224966D01*
X362603Y225708D01*
X362961Y226573D01*
X363083Y227500D01*
X362961Y228427D01*
X362603Y229292D01*
X362597Y229300D01*
X364880Y231582D01*
X368243D01*
X368382Y230882D01*
X367708Y230603D01*
X366966Y230034D01*
X366397Y229292D01*
X366039Y228427D01*
X365917Y227500D01*
X366039Y226573D01*
X366397Y225708D01*
X366966Y224966D01*
X367708Y224397D01*
X368232Y224180D01*
X368160Y223452D01*
X368110Y223442D01*
X367779Y223221D01*
X364799Y220240D01*
X364578Y219910D01*
X364500Y219520D01*
Y213942D01*
X361200Y210642D01*
X360427Y210961D01*
X359500Y211083D01*
X358573Y210961D01*
X357708Y210603D01*
X356966Y210034D01*
X356397Y209292D01*
X356039Y208427D01*
X355917Y207500D01*
X356039Y206573D01*
X356397Y205708D01*
X356966Y204966D01*
X357708Y204397D01*
X358573Y204039D01*
X359500Y203917D01*
X360427Y204039D01*
X361292Y204397D01*
X362034Y204966D01*
X362603Y205708D01*
X362961Y206573D01*
X363083Y207500D01*
X362961Y208427D01*
X362642Y209200D01*
X366241Y212799D01*
X366462Y213129D01*
X366539Y213520D01*
Y213907D01*
X367239Y214252D01*
X367507Y214047D01*
X368468Y213649D01*
X369000Y213579D01*
Y217500D01*
X369500D01*
Y218000D01*
X373421D01*
X373351Y218532D01*
X372953Y219493D01*
X372319Y220319D01*
X371718Y220780D01*
X371956Y221480D01*
X457578D01*
X459900Y219158D01*
X459869Y219000D01*
X459993Y218376D01*
X460347Y217846D01*
X460876Y217493D01*
X461500Y217369D01*
X462124Y217493D01*
X462653Y217846D01*
X463007Y218376D01*
X463131Y219000D01*
X463007Y219624D01*
X462653Y220153D01*
X462124Y220507D01*
X461500Y220631D01*
X461342Y220600D01*
X458721Y223221D01*
X458390Y223442D01*
X458000Y223520D01*
X371003D01*
X370864Y224220D01*
X371292Y224397D01*
X372034Y224966D01*
X372603Y225708D01*
X372961Y226573D01*
X373083Y227500D01*
X372961Y228427D01*
X372603Y229292D01*
X372034Y230034D01*
X371292Y230603D01*
X370618Y230882D01*
X370757Y231582D01*
X397769D01*
X398007Y230882D01*
X397504Y230496D01*
X396943Y229765D01*
X396590Y228914D01*
X396536Y228500D01*
X403464D01*
X403410Y228914D01*
X403057Y229765D01*
X402496Y230496D01*
X401993Y230882D01*
X402231Y231582D01*
X459205D01*
X459556Y231652D01*
X459854Y231851D01*
X462222Y234219D01*
X462500Y234164D01*
X463124Y234288D01*
X463654Y234642D01*
X464007Y235171D01*
X464131Y235795D01*
X464007Y236420D01*
X463654Y236949D01*
X463124Y237302D01*
X462500Y237427D01*
X461876Y237302D01*
X461346Y236949D01*
X460993Y236420D01*
X460869Y235795D01*
X460924Y235517D01*
X458825Y233418D01*
X370757D01*
X370618Y234118D01*
X371292Y234397D01*
X372034Y234966D01*
X372603Y235708D01*
X372961Y236573D01*
X373083Y237500D01*
X372961Y238427D01*
X372603Y239292D01*
X372034Y240034D01*
X371580Y240382D01*
X371817Y241082D01*
X397118D01*
X397302Y240803D01*
X397416Y240382D01*
X396943Y239765D01*
X396590Y238914D01*
X396536Y238500D01*
X403464D01*
X403410Y238914D01*
X403057Y239765D01*
X402584Y240382D01*
X402698Y240803D01*
X402882Y241082D01*
X465000D01*
X465351Y241152D01*
X465649Y241351D01*
X465722Y241424D01*
X466000Y241369D01*
X466624Y241493D01*
X467154Y241846D01*
X467507Y242376D01*
X467631Y243000D01*
X467507Y243624D01*
X467154Y244153D01*
X466624Y244507D01*
X466000Y244631D01*
D02*
G37*
G36*
X536000Y237440D02*
Y236000D01*
X537440D01*
X537384Y236280D01*
X536942Y236942D01*
X536280Y237384D01*
X536000Y237440D01*
D02*
G37*
G36*
X562940Y237000D02*
X561500D01*
Y235560D01*
X561780Y235616D01*
X562442Y236058D01*
X562884Y236720D01*
X562940Y237000D01*
D02*
G37*
G36*
X560500D02*
X559060D01*
X559116Y236720D01*
X559558Y236058D01*
X560220Y235616D01*
X560500Y235560D01*
Y237000D01*
D02*
G37*
G36*
X403464Y237500D02*
X400500D01*
Y234536D01*
X400914Y234590D01*
X401765Y234943D01*
X402496Y235504D01*
X403057Y236235D01*
X403410Y237086D01*
X403464Y237500D01*
D02*
G37*
G36*
X399500D02*
X396536D01*
X396590Y237086D01*
X396943Y236235D01*
X397504Y235504D01*
X398235Y234943D01*
X399086Y234590D01*
X399500Y234536D01*
Y237500D01*
D02*
G37*
G36*
X537440Y235000D02*
X536000D01*
Y233560D01*
X536280Y233616D01*
X536942Y234058D01*
X537384Y234720D01*
X537440Y235000D01*
D02*
G37*
G36*
X535000D02*
X533560D01*
X533616Y234720D01*
X534058Y234058D01*
X534720Y233616D01*
X535000Y233560D01*
Y235000D01*
D02*
G37*
G36*
X492000Y232940D02*
Y231500D01*
X493440D01*
X493384Y231780D01*
X492942Y232442D01*
X492280Y232884D01*
X492000Y232940D01*
D02*
G37*
G36*
X491000D02*
X490720Y232884D01*
X490058Y232442D01*
X489616Y231780D01*
X489560Y231500D01*
X491000D01*
Y232940D01*
D02*
G37*
G36*
X478000D02*
Y231500D01*
X479440D01*
X479384Y231780D01*
X478942Y232442D01*
X478280Y232884D01*
X478000Y232940D01*
D02*
G37*
G36*
X477000D02*
X476720Y232884D01*
X476058Y232442D01*
X475616Y231780D01*
X475560Y231500D01*
X477000D01*
Y232940D01*
D02*
G37*
G36*
X493440Y230500D02*
X492000D01*
Y229060D01*
X492280Y229116D01*
X492942Y229558D01*
X493384Y230220D01*
X493440Y230500D01*
D02*
G37*
G36*
X491000D02*
X489560D01*
X489616Y230220D01*
X490058Y229558D01*
X490720Y229116D01*
X491000Y229060D01*
Y230500D01*
D02*
G37*
G36*
X479440D02*
X478000D01*
Y229060D01*
X478280Y229116D01*
X478942Y229558D01*
X479384Y230220D01*
X479440Y230500D01*
D02*
G37*
G36*
X477000D02*
X475560D01*
X475616Y230220D01*
X476058Y229558D01*
X476720Y229116D01*
X477000Y229060D01*
Y230500D01*
D02*
G37*
G36*
X403464Y227500D02*
X400500D01*
Y224536D01*
X400914Y224590D01*
X401765Y224943D01*
X402496Y225504D01*
X403057Y226235D01*
X403410Y227086D01*
X403464Y227500D01*
D02*
G37*
G36*
X399500D02*
X396536D01*
X396590Y227086D01*
X396943Y226235D01*
X397504Y225504D01*
X398235Y224943D01*
X399086Y224590D01*
X399500Y224536D01*
Y227500D01*
D02*
G37*
G36*
X561500Y223440D02*
Y222000D01*
X562940D01*
X562884Y222280D01*
X562442Y222942D01*
X561780Y223384D01*
X561500Y223440D01*
D02*
G37*
G36*
X560500D02*
X560220Y223384D01*
X559558Y222942D01*
X559116Y222280D01*
X559060Y222000D01*
X560500D01*
Y223440D01*
D02*
G37*
G36*
X551000Y224964D02*
Y222000D01*
X553964D01*
X553910Y222414D01*
X553557Y223265D01*
X552996Y223996D01*
X552265Y224557D01*
X551414Y224910D01*
X551000Y224964D01*
D02*
G37*
G36*
X550000D02*
X549586Y224910D01*
X548735Y224557D01*
X548004Y223996D01*
X547443Y223265D01*
X547090Y222414D01*
X547036Y222000D01*
X550000D01*
Y224964D01*
D02*
G37*
G36*
X562940Y221000D02*
X561500D01*
Y219560D01*
X561780Y219616D01*
X562442Y220058D01*
X562884Y220720D01*
X562940Y221000D01*
D02*
G37*
G36*
X560500D02*
X559060D01*
X559116Y220720D01*
X559558Y220058D01*
X560220Y219616D01*
X560500Y219560D01*
Y221000D01*
D02*
G37*
G36*
X553964D02*
X551000D01*
Y218036D01*
X551414Y218090D01*
X552265Y218443D01*
X552996Y219004D01*
X553557Y219735D01*
X553910Y220586D01*
X553964Y221000D01*
D02*
G37*
G36*
X550000D02*
X547036D01*
X547090Y220586D01*
X547443Y219735D01*
X548004Y219004D01*
X548735Y218443D01*
X549586Y218090D01*
X550000Y218036D01*
Y221000D01*
D02*
G37*
G36*
X610000Y221421D02*
Y218000D01*
X613421D01*
X613351Y218532D01*
X612953Y219493D01*
X612319Y220319D01*
X611493Y220953D01*
X610532Y221351D01*
X610000Y221421D01*
D02*
G37*
G36*
X360000D02*
Y218000D01*
X363421D01*
X363351Y218532D01*
X362953Y219493D01*
X362319Y220319D01*
X361493Y220953D01*
X360532Y221351D01*
X360000Y221421D01*
D02*
G37*
G36*
X609000D02*
X608468Y221351D01*
X607507Y220953D01*
X606681Y220319D01*
X606047Y219493D01*
X605649Y218532D01*
X605579Y218000D01*
X609000D01*
Y221421D01*
D02*
G37*
G36*
X359000D02*
X358468Y221351D01*
X357507Y220953D01*
X356681Y220319D01*
X356047Y219493D01*
X355649Y218532D01*
X355579Y218000D01*
X359000D01*
Y221421D01*
D02*
G37*
G36*
X613421Y217000D02*
X610000D01*
Y213579D01*
X610532Y213649D01*
X611493Y214047D01*
X612319Y214681D01*
X612953Y215507D01*
X613351Y216468D01*
X613421Y217000D01*
D02*
G37*
G36*
X373421D02*
X370000D01*
Y213579D01*
X370532Y213649D01*
X371493Y214047D01*
X372319Y214681D01*
X372953Y215507D01*
X373351Y216468D01*
X373421Y217000D01*
D02*
G37*
G36*
X363421D02*
X360000D01*
Y213579D01*
X360532Y213649D01*
X361493Y214047D01*
X362319Y214681D01*
X362953Y215507D01*
X363351Y216468D01*
X363421Y217000D01*
D02*
G37*
G36*
X609000D02*
X605579D01*
X605649Y216468D01*
X606047Y215507D01*
X606681Y214681D01*
X607507Y214047D01*
X608468Y213649D01*
X609000Y213579D01*
Y217000D01*
D02*
G37*
G36*
X359000D02*
X355579D01*
X355649Y216468D01*
X356047Y215507D01*
X356681Y214681D01*
X357507Y214047D01*
X358468Y213649D01*
X359000Y213579D01*
Y217000D01*
D02*
G37*
G36*
X462500Y213440D02*
Y212000D01*
X463940D01*
X463884Y212280D01*
X463442Y212942D01*
X462780Y213384D01*
X462500Y213440D01*
D02*
G37*
G36*
X461500D02*
X461220Y213384D01*
X460558Y212942D01*
X460116Y212280D01*
X460060Y212000D01*
X461500D01*
Y213440D01*
D02*
G37*
G36*
X463940Y211000D02*
X462500D01*
Y209560D01*
X462780Y209616D01*
X463442Y210058D01*
X463884Y210720D01*
X463940Y211000D01*
D02*
G37*
G36*
X461500D02*
X460060D01*
X460116Y210720D01*
X460558Y210058D01*
X461220Y209616D01*
X461500Y209560D01*
Y211000D01*
D02*
G37*
G36*
X370000Y211421D02*
Y208000D01*
X373421D01*
X373351Y208532D01*
X372953Y209493D01*
X372319Y210319D01*
X371493Y210953D01*
X370532Y211351D01*
X370000Y211421D01*
D02*
G37*
G36*
X369000D02*
X368468Y211351D01*
X367507Y210953D01*
X366681Y210319D01*
X366047Y209493D01*
X365649Y208532D01*
X365579Y208000D01*
X369000D01*
Y211421D01*
D02*
G37*
G36*
X373421Y207000D02*
X370000D01*
Y203579D01*
X370532Y203649D01*
X371493Y204047D01*
X372319Y204681D01*
X372953Y205507D01*
X373351Y206468D01*
X373421Y207000D01*
D02*
G37*
G36*
X369000D02*
X365579D01*
X365649Y206468D01*
X366047Y205507D01*
X366681Y204681D01*
X367507Y204047D01*
X368468Y203649D01*
X369000Y203579D01*
Y207000D01*
D02*
G37*
G36*
X450500Y203464D02*
Y200500D01*
X453464D01*
X453410Y200914D01*
X453057Y201765D01*
X452496Y202496D01*
X451765Y203057D01*
X450914Y203410D01*
X450500Y203464D01*
D02*
G37*
G36*
X449500D02*
X449086Y203410D01*
X448235Y203057D01*
X447504Y202496D01*
X446943Y201765D01*
X446590Y200914D01*
X446536Y200500D01*
X449500D01*
Y203464D01*
D02*
G37*
G36*
X453464Y199500D02*
X450500D01*
Y196536D01*
X450914Y196590D01*
X451765Y196943D01*
X452496Y197504D01*
X453057Y198235D01*
X453410Y199086D01*
X453464Y199500D01*
D02*
G37*
G36*
X449500D02*
X446536D01*
X446590Y199086D01*
X446943Y198235D01*
X447504Y197504D01*
X448235Y196943D01*
X449086Y196590D01*
X449500Y196536D01*
Y199500D01*
D02*
G37*
G36*
X395000Y187464D02*
Y184500D01*
X397964D01*
X397910Y184914D01*
X397557Y185765D01*
X396996Y186496D01*
X396265Y187057D01*
X395414Y187410D01*
X395000Y187464D01*
D02*
G37*
G36*
X394000D02*
X393586Y187410D01*
X392735Y187057D01*
X392004Y186496D01*
X391443Y185765D01*
X391090Y184914D01*
X391036Y184500D01*
X394000D01*
Y187464D01*
D02*
G37*
G36*
X464000Y184964D02*
Y182000D01*
X466964D01*
X466910Y182414D01*
X466557Y183265D01*
X465996Y183996D01*
X465265Y184557D01*
X464414Y184910D01*
X464000Y184964D01*
D02*
G37*
G36*
X463000D02*
X462586Y184910D01*
X461735Y184557D01*
X461004Y183996D01*
X460443Y183265D01*
X460090Y182414D01*
X460036Y182000D01*
X463000D01*
Y184964D01*
D02*
G37*
G36*
X397964Y183500D02*
X395000D01*
Y180536D01*
X395414Y180590D01*
X396265Y180943D01*
X396996Y181504D01*
X397557Y182235D01*
X397910Y183086D01*
X397964Y183500D01*
D02*
G37*
G36*
X394000D02*
X391036D01*
X391090Y183086D01*
X391443Y182235D01*
X392004Y181504D01*
X392735Y180943D01*
X393586Y180590D01*
X394000Y180536D01*
Y183500D01*
D02*
G37*
G36*
X384000Y181940D02*
Y180500D01*
X385440D01*
X385384Y180780D01*
X384942Y181442D01*
X384280Y181884D01*
X384000Y181940D01*
D02*
G37*
G36*
X383000D02*
X382720Y181884D01*
X382058Y181442D01*
X381616Y180780D01*
X381560Y180500D01*
X383000D01*
Y181940D01*
D02*
G37*
G36*
X385440Y179500D02*
X384000D01*
Y178060D01*
X384280Y178116D01*
X384942Y178558D01*
X385384Y179220D01*
X385440Y179500D01*
D02*
G37*
G36*
X383000D02*
X381560D01*
X381616Y179220D01*
X382058Y178558D01*
X382720Y178116D01*
X383000Y178060D01*
Y179500D01*
D02*
G37*
G36*
X466964Y181000D02*
X464000D01*
Y178036D01*
X464414Y178090D01*
X465265Y178443D01*
X465996Y179004D01*
X466557Y179735D01*
X466910Y180586D01*
X466964Y181000D01*
D02*
G37*
G36*
X463000D02*
X460036D01*
X460090Y180586D01*
X460443Y179735D01*
X461004Y179004D01*
X461735Y178443D01*
X462586Y178090D01*
X463000Y178036D01*
Y181000D01*
D02*
G37*
G36*
X536500Y176127D02*
X535691Y176020D01*
X534937Y175708D01*
X534289Y175211D01*
X534040Y174886D01*
X525460D01*
X525211Y175211D01*
X524563Y175708D01*
X523809Y176020D01*
X523000Y176127D01*
X522191Y176020D01*
X521437Y175708D01*
X520789Y175211D01*
X520292Y174563D01*
X519980Y173809D01*
X519873Y173000D01*
X519980Y172191D01*
X520292Y171437D01*
X520789Y170789D01*
X521437Y170292D01*
X522191Y169980D01*
X523000Y169873D01*
X523809Y169980D01*
X524563Y170292D01*
X525211Y170789D01*
X525460Y171114D01*
X534040D01*
X534289Y170789D01*
X534937Y170292D01*
X535691Y169980D01*
X536500Y169873D01*
X537309Y169980D01*
X538063Y170292D01*
X538711Y170789D01*
X539208Y171437D01*
X539520Y172191D01*
X539627Y173000D01*
X539520Y173809D01*
X539208Y174563D01*
X538711Y175211D01*
X538063Y175708D01*
X537309Y176020D01*
X536500Y176127D01*
D02*
G37*
G36*
X588053Y171053D02*
X580947D01*
Y163947D01*
X588053D01*
Y171053D01*
D02*
G37*
G36*
X562940Y165000D02*
X561500D01*
Y163560D01*
X561780Y163616D01*
X562442Y164058D01*
X562884Y164720D01*
X562940Y165000D01*
D02*
G37*
G36*
X560500D02*
X559060D01*
X559116Y164720D01*
X559558Y164058D01*
X560220Y163616D01*
X560500Y163560D01*
Y165000D01*
D02*
G37*
G36*
X503500Y156440D02*
Y155000D01*
X504940D01*
X504884Y155280D01*
X504442Y155942D01*
X503780Y156384D01*
X503500Y156440D01*
D02*
G37*
G36*
X502500D02*
X502220Y156384D01*
X501558Y155942D01*
X501116Y155280D01*
X501060Y155000D01*
X502500D01*
Y156440D01*
D02*
G37*
G36*
X609500Y161083D02*
X608572Y160961D01*
X607708Y160603D01*
X606966Y160034D01*
X606397Y159292D01*
X606039Y158427D01*
X605917Y157500D01*
X606039Y156573D01*
X606397Y155708D01*
X606966Y154966D01*
X607708Y154397D01*
X608572Y154039D01*
X609500Y153917D01*
X610428Y154039D01*
X611292Y154397D01*
X612034Y154966D01*
X612603Y155708D01*
X612961Y156573D01*
X613083Y157500D01*
X612961Y158427D01*
X612603Y159292D01*
X612034Y160034D01*
X611292Y160603D01*
X610428Y160961D01*
X609500Y161083D01*
D02*
G37*
G36*
X599500D02*
X598572Y160961D01*
X597708Y160603D01*
X596966Y160034D01*
X596397Y159292D01*
X596039Y158427D01*
X595917Y157500D01*
X596039Y156573D01*
X596397Y155708D01*
X596966Y154966D01*
X597708Y154397D01*
X598174Y154204D01*
X598035Y153504D01*
X586243D01*
X586154Y153638D01*
X585624Y153991D01*
X585000Y154116D01*
X584376Y153991D01*
X583847Y153638D01*
X583493Y153109D01*
X583369Y152484D01*
X583493Y151860D01*
X583847Y151331D01*
X584376Y150977D01*
X585000Y150853D01*
X585624Y150977D01*
X586154Y151331D01*
X586243Y151465D01*
X597959D01*
X598098Y150765D01*
X597708Y150603D01*
X596966Y150034D01*
X596397Y149292D01*
X596039Y148427D01*
X595917Y147500D01*
X596039Y146573D01*
X596397Y145708D01*
X596966Y144966D01*
X597708Y144397D01*
X598572Y144039D01*
X599500Y143917D01*
X600427Y144039D01*
X601292Y144397D01*
X602034Y144966D01*
X602603Y145708D01*
X602961Y146573D01*
X603083Y147500D01*
X602961Y148427D01*
X602603Y149292D01*
X602034Y150034D01*
X601292Y150603D01*
X600902Y150765D01*
X601041Y151465D01*
X604093D01*
X606358Y149200D01*
X606039Y148427D01*
X605917Y147500D01*
X606039Y146573D01*
X606397Y145708D01*
X606966Y144966D01*
X607708Y144397D01*
X608572Y144039D01*
X609500Y143917D01*
X610428Y144039D01*
X611292Y144397D01*
X612034Y144966D01*
X612603Y145708D01*
X612961Y146573D01*
X613083Y147500D01*
X612961Y148427D01*
X612603Y149292D01*
X612034Y150034D01*
X611292Y150603D01*
X610428Y150961D01*
X609500Y151083D01*
X608572Y150961D01*
X607800Y150642D01*
X605237Y153205D01*
X604906Y153426D01*
X604516Y153504D01*
X600965D01*
X600826Y154204D01*
X601292Y154397D01*
X602034Y154966D01*
X602603Y155708D01*
X602961Y156573D01*
X603083Y157500D01*
X602961Y158427D01*
X602603Y159292D01*
X602034Y160034D01*
X601292Y160603D01*
X600427Y160961D01*
X599500Y161083D01*
D02*
G37*
G36*
X455016Y154116D02*
X454391Y153991D01*
X453862Y153638D01*
X453773Y153504D01*
X446243D01*
X446153Y153638D01*
X445624Y153991D01*
X445000Y154116D01*
X444376Y153991D01*
X443847Y153638D01*
X443493Y153109D01*
X443369Y152484D01*
X443493Y151860D01*
X443847Y151331D01*
X444376Y150977D01*
X445000Y150853D01*
X445624Y150977D01*
X446153Y151331D01*
X446243Y151465D01*
X453773D01*
X453862Y151331D01*
X454391Y150977D01*
X455016Y150853D01*
X455640Y150977D01*
X456169Y151331D01*
X456523Y151860D01*
X456647Y152484D01*
X456523Y153109D01*
X456169Y153638D01*
X455640Y153991D01*
X455016Y154116D01*
D02*
G37*
G36*
X517500Y188631D02*
X516876Y188507D01*
X516347Y188154D01*
X515993Y187624D01*
X515869Y187000D01*
X515993Y186376D01*
X516347Y185846D01*
X516480Y185757D01*
Y171422D01*
X509578Y164520D01*
X494000D01*
X493610Y164442D01*
X493279Y164221D01*
X477578Y148520D01*
X372923D01*
X372603Y149292D01*
X372034Y150034D01*
X371292Y150603D01*
X370427Y150961D01*
X369500Y151083D01*
X368573Y150961D01*
X367708Y150603D01*
X366966Y150034D01*
X366397Y149292D01*
X366039Y148427D01*
X365917Y147500D01*
X366039Y146573D01*
X366397Y145708D01*
X366966Y144966D01*
X367708Y144397D01*
X368136Y144220D01*
X367997Y143520D01*
X364500D01*
X364110Y143442D01*
X363779Y143221D01*
X361200Y140641D01*
X360427Y140961D01*
X359500Y141083D01*
X358573Y140961D01*
X357708Y140603D01*
X356966Y140034D01*
X356397Y139292D01*
X356039Y138427D01*
X355917Y137500D01*
X356039Y136573D01*
X356397Y135708D01*
X356966Y134966D01*
X357708Y134397D01*
X358573Y134039D01*
X359500Y133917D01*
X360427Y134039D01*
X361292Y134397D01*
X362034Y134966D01*
X362603Y135708D01*
X362961Y136573D01*
X363083Y137500D01*
X362961Y138427D01*
X362642Y139200D01*
X364922Y141480D01*
X367997D01*
X368136Y140780D01*
X367708Y140603D01*
X366966Y140034D01*
X366397Y139292D01*
X366039Y138427D01*
X365917Y137500D01*
X366039Y136573D01*
X366397Y135708D01*
X366966Y134966D01*
X367708Y134397D01*
X368573Y134039D01*
X369500Y133917D01*
X370427Y134039D01*
X371292Y134397D01*
X372034Y134966D01*
X372603Y135708D01*
X372923Y136480D01*
X477000D01*
X477390Y136558D01*
X477721Y136779D01*
X489922Y148980D01*
X491757D01*
X491847Y148846D01*
X492376Y148493D01*
X493000Y148369D01*
X493624Y148493D01*
X494153Y148846D01*
X494507Y149376D01*
X494631Y150000D01*
X494507Y150624D01*
X494153Y151154D01*
X493624Y151507D01*
X493000Y151631D01*
X492376Y151507D01*
X491847Y151154D01*
X491757Y151020D01*
X489500D01*
X489110Y150942D01*
X488779Y150721D01*
X476578Y138520D01*
X385758D01*
X385384Y139220D01*
X385384Y139220D01*
X385440Y139500D01*
X381560D01*
X381616Y139220D01*
X381616Y139220D01*
X381242Y138520D01*
X372923D01*
X372603Y139292D01*
X372034Y140034D01*
X371292Y140603D01*
X370864Y140780D01*
X371004Y141480D01*
X381242D01*
X381616Y140780D01*
X381616Y140780D01*
X381560Y140500D01*
X385440D01*
X385384Y140780D01*
X385384Y140780D01*
X385758Y141480D01*
X478000Y141480D01*
X478390Y141558D01*
X478721Y141779D01*
X490422Y153480D01*
X494257D01*
X494347Y153347D01*
X494876Y152993D01*
X495500Y152869D01*
X496124Y152993D01*
X496654Y153347D01*
X497007Y153876D01*
X497131Y154500D01*
X497007Y155124D01*
X496654Y155654D01*
X496124Y156007D01*
X495500Y156131D01*
X494876Y156007D01*
X494347Y155654D01*
X494257Y155520D01*
X490000D01*
X489610Y155442D01*
X489279Y155221D01*
X477578Y143520D01*
X385758Y143520D01*
X385384Y144220D01*
X385384Y144220D01*
X385440Y144500D01*
X381560D01*
X381616Y144220D01*
X381616Y144220D01*
X381242Y143520D01*
X371003D01*
X370864Y144220D01*
X371292Y144397D01*
X372034Y144966D01*
X372603Y145708D01*
X372923Y146480D01*
X381242D01*
X381616Y145780D01*
X381616Y145780D01*
X381560Y145500D01*
X385440D01*
X385384Y145780D01*
X385384Y145780D01*
X385758Y146480D01*
X478000D01*
X478390Y146558D01*
X478721Y146779D01*
X494422Y162480D01*
X510000D01*
X510390Y162558D01*
X510721Y162779D01*
X518221Y170279D01*
X518442Y170610D01*
X518520Y171000D01*
Y185757D01*
X518653Y185846D01*
X519007Y186376D01*
X519131Y187000D01*
X519007Y187624D01*
X518653Y188154D01*
X518124Y188507D01*
X517500Y188631D01*
D02*
G37*
G36*
X504940Y154000D02*
X503500D01*
Y152560D01*
X503780Y152616D01*
X504442Y153058D01*
X504884Y153720D01*
X504940Y154000D01*
D02*
G37*
G36*
X502500D02*
X501060D01*
X501116Y153720D01*
X501558Y153058D01*
X502220Y152616D01*
X502500Y152560D01*
Y154000D01*
D02*
G37*
G36*
X386964Y152500D02*
X384000D01*
Y149536D01*
X384414Y149590D01*
X385265Y149943D01*
X385996Y150504D01*
X386557Y151235D01*
X386910Y152086D01*
X386964Y152500D01*
D02*
G37*
G36*
X383000D02*
X380036D01*
X380090Y152086D01*
X380443Y151235D01*
X381004Y150504D01*
X381735Y149943D01*
X382586Y149590D01*
X383000Y149536D01*
Y152500D01*
D02*
G37*
G36*
X359500Y151083D02*
X358573Y150961D01*
X357708Y150603D01*
X356966Y150034D01*
X356397Y149292D01*
X356039Y148427D01*
X355917Y147500D01*
X356039Y146573D01*
X356397Y145708D01*
X356966Y144966D01*
X357708Y144397D01*
X358573Y144039D01*
X359500Y143917D01*
X360427Y144039D01*
X361292Y144397D01*
X362034Y144966D01*
X362603Y145708D01*
X362961Y146573D01*
X363083Y147500D01*
X362961Y148427D01*
X362603Y149292D01*
X362034Y150034D01*
X361292Y150603D01*
X360427Y150961D01*
X359500Y151083D01*
D02*
G37*
G36*
X498000Y150210D02*
X497376Y150086D01*
X496846Y149732D01*
X496493Y149203D01*
X496369Y148579D01*
X496400Y148421D01*
X471999Y124020D01*
X385758D01*
X385384Y124720D01*
X385384Y124720D01*
X385440Y125000D01*
X383500D01*
Y126000D01*
X385654D01*
X386028Y126480D01*
X472000D01*
X472390Y126558D01*
X472721Y126779D01*
X489842Y143900D01*
X490000Y143869D01*
X490624Y143993D01*
X491153Y144346D01*
X491507Y144876D01*
X491631Y145500D01*
X491507Y146124D01*
X491153Y146653D01*
X490624Y147007D01*
X490000Y147131D01*
X489376Y147007D01*
X488846Y146653D01*
X488493Y146124D01*
X488369Y145500D01*
X488400Y145342D01*
X471578Y128520D01*
X398864D01*
X398626Y129220D01*
X398996Y129504D01*
X399557Y130235D01*
X399910Y131086D01*
X399964Y131500D01*
X393036D01*
X393090Y131086D01*
X393443Y130235D01*
X394004Y129504D01*
X394374Y129220D01*
X394137Y128520D01*
X372923D01*
X372603Y129292D01*
X372034Y130034D01*
X371292Y130603D01*
X370427Y130961D01*
X369500Y131083D01*
X368573Y130961D01*
X367708Y130603D01*
X366966Y130034D01*
X366397Y129292D01*
X366039Y128427D01*
X365917Y127500D01*
X366039Y126573D01*
X366397Y125708D01*
X366966Y124966D01*
X367287Y124720D01*
X367050Y124020D01*
X364422D01*
X362642Y125800D01*
X362961Y126573D01*
X363083Y127500D01*
X362961Y128427D01*
X362603Y129292D01*
X362034Y130034D01*
X361292Y130603D01*
X360427Y130961D01*
X359500Y131083D01*
X358573Y130961D01*
X357708Y130603D01*
X356966Y130034D01*
X356397Y129292D01*
X356039Y128427D01*
X355917Y127500D01*
X356039Y126573D01*
X356397Y125708D01*
X356966Y124966D01*
X357708Y124397D01*
X358573Y124039D01*
X359500Y123917D01*
X360427Y124039D01*
X361200Y124358D01*
X363279Y122279D01*
X363610Y122058D01*
X364000Y121980D01*
X472421D01*
X472811Y122058D01*
X473142Y122279D01*
X497842Y146979D01*
X498000Y146947D01*
X498624Y147072D01*
X499154Y147425D01*
X499507Y147954D01*
X499631Y148579D01*
X499507Y149203D01*
X499154Y149732D01*
X498624Y150086D01*
X498000Y150210D01*
D02*
G37*
G36*
X609500Y141083D02*
X608572Y140961D01*
X607708Y140603D01*
X606966Y140034D01*
X606397Y139292D01*
X606039Y138427D01*
X605917Y137500D01*
X606039Y136573D01*
X606397Y135708D01*
X606966Y134966D01*
X607708Y134397D01*
X608572Y134039D01*
X609500Y133917D01*
X610428Y134039D01*
X611292Y134397D01*
X612034Y134966D01*
X612603Y135708D01*
X612961Y136573D01*
X613083Y137500D01*
X612961Y138427D01*
X612603Y139292D01*
X612034Y140034D01*
X611292Y140603D01*
X610428Y140961D01*
X609500Y141083D01*
D02*
G37*
G36*
X384000Y134940D02*
Y133500D01*
X385440D01*
X385384Y133780D01*
X384942Y134442D01*
X384280Y134884D01*
X384000Y134940D01*
D02*
G37*
G36*
X383000D02*
X382720Y134884D01*
X382058Y134442D01*
X381616Y133780D01*
X381560Y133500D01*
X383000D01*
Y134940D01*
D02*
G37*
G36*
X397000Y135464D02*
Y132500D01*
X399964D01*
X399910Y132914D01*
X399557Y133765D01*
X398996Y134496D01*
X398265Y135057D01*
X397414Y135410D01*
X397000Y135464D01*
D02*
G37*
G36*
X396000D02*
X395586Y135410D01*
X394735Y135057D01*
X394004Y134496D01*
X393443Y133765D01*
X393090Y132914D01*
X393036Y132500D01*
X396000D01*
Y135464D01*
D02*
G37*
G36*
X385440Y132500D02*
X384000D01*
Y131060D01*
X384280Y131116D01*
X384942Y131558D01*
X385384Y132220D01*
X385440Y132500D01*
D02*
G37*
G36*
X383000D02*
X381560D01*
X381616Y132220D01*
X382058Y131558D01*
X382720Y131116D01*
X383000Y131060D01*
Y132500D01*
D02*
G37*
G36*
X609500Y131083D02*
X608572Y130961D01*
X607708Y130603D01*
X606966Y130034D01*
X606397Y129292D01*
X606039Y128427D01*
X605917Y127500D01*
X606039Y126573D01*
X606397Y125708D01*
X606966Y124966D01*
X607708Y124397D01*
X608572Y124039D01*
X609500Y123917D01*
X610428Y124039D01*
X611292Y124397D01*
X612034Y124966D01*
X612603Y125708D01*
X612961Y126573D01*
X613083Y127500D01*
X612961Y128427D01*
X612603Y129292D01*
X612034Y130034D01*
X611292Y130603D01*
X610428Y130961D01*
X609500Y131083D01*
D02*
G37*
G36*
X599500D02*
X598572Y130961D01*
X597708Y130603D01*
X596966Y130034D01*
X596397Y129292D01*
X596039Y128427D01*
X595917Y127500D01*
X596039Y126573D01*
X596397Y125708D01*
X596966Y124966D01*
X597708Y124397D01*
X598572Y124039D01*
X599500Y123917D01*
X600427Y124039D01*
X601292Y124397D01*
X602034Y124966D01*
X602603Y125708D01*
X602961Y126573D01*
X603083Y127500D01*
X602961Y128427D01*
X602603Y129292D01*
X602034Y130034D01*
X601292Y130603D01*
X600427Y130961D01*
X599500Y131083D01*
D02*
G37*
G36*
X384000Y120964D02*
Y118000D01*
X386964D01*
X386910Y118414D01*
X386557Y119265D01*
X385996Y119996D01*
X385265Y120557D01*
X384414Y120910D01*
X384000Y120964D01*
D02*
G37*
G36*
X383000D02*
X382586Y120910D01*
X381735Y120557D01*
X381004Y119996D01*
X380443Y119265D01*
X380090Y118414D01*
X380036Y118000D01*
X383000D01*
Y120964D01*
D02*
G37*
G36*
X386964Y117000D02*
X384000D01*
Y114036D01*
X384414Y114090D01*
X385265Y114443D01*
X385996Y115004D01*
X386557Y115735D01*
X386910Y116586D01*
X386964Y117000D01*
D02*
G37*
G36*
X383000D02*
X380036D01*
X380090Y116586D01*
X380443Y115735D01*
X381004Y115004D01*
X381735Y114443D01*
X382586Y114090D01*
X383000Y114036D01*
Y117000D01*
D02*
G37*
%LPD*%
G36*
X414279Y271779D02*
X414368Y271720D01*
X414156Y271020D01*
X413422D01*
X381221Y303221D01*
X380890Y303442D01*
X380500Y303520D01*
X379258D01*
X378884Y304220D01*
X378884Y304220D01*
X378940Y304500D01*
X377000D01*
Y305500D01*
X378999D01*
X379407Y306092D01*
X379474Y306131D01*
X379878Y306180D01*
X414279Y271779D01*
D02*
G37*
G36*
X412279Y269279D02*
X412368Y269220D01*
X412156Y268520D01*
X411422D01*
X381721Y298221D01*
X381390Y298442D01*
X381000Y298520D01*
X379258D01*
X378884Y299220D01*
X378884Y299220D01*
X378940Y299500D01*
X377000D01*
Y300500D01*
X378940D01*
X378884Y300780D01*
X378884Y300780D01*
X379258Y301480D01*
X380078D01*
X412279Y269279D01*
D02*
G37*
G36*
X410279Y266779D02*
X410610Y266558D01*
X411000Y266480D01*
X449414D01*
X449625Y266220D01*
X449291Y265520D01*
X409922D01*
X382221Y293221D01*
X381890Y293442D01*
X381500Y293520D01*
X379258D01*
X378884Y294220D01*
X378884Y294220D01*
X378940Y294500D01*
X377000D01*
Y295500D01*
X378940D01*
X378884Y295780D01*
X378884Y295780D01*
X379258Y296480D01*
X380578D01*
X410279Y266779D01*
D02*
G37*
G36*
X386779Y260779D02*
X387110Y260558D01*
X387500Y260480D01*
X447150D01*
X447473Y260118D01*
X447222Y259418D01*
X385880D01*
X382149Y263149D01*
X381851Y263348D01*
X381500Y263418D01*
X377857D01*
X377780Y264116D01*
X378442Y264558D01*
X378884Y265220D01*
X378940Y265500D01*
X375060D01*
X375116Y265220D01*
X375558Y264558D01*
X376220Y264116D01*
X376143Y263418D01*
X370757D01*
X370618Y264118D01*
X371292Y264397D01*
X372034Y264966D01*
X372603Y265708D01*
X372961Y266573D01*
X373083Y267500D01*
X372961Y268427D01*
X372603Y269292D01*
X372034Y270034D01*
X371292Y270603D01*
X370864Y270780D01*
X371003Y271480D01*
X376078D01*
X386779Y260779D01*
D02*
G37*
G36*
X582392Y242666D02*
X582124Y242020D01*
X562097D01*
X561935Y242720D01*
X562442Y243058D01*
X562884Y243720D01*
X562940Y244000D01*
X559060D01*
X559116Y243720D01*
X559558Y243058D01*
X560065Y242720D01*
X559903Y242020D01*
X536000D01*
X535610Y241942D01*
X535279Y241721D01*
X530720Y237161D01*
X530020Y237452D01*
Y245749D01*
X532221Y247951D01*
X532442Y248281D01*
X532520Y248672D01*
Y248757D01*
X532654Y248847D01*
X533007Y249376D01*
X533131Y250000D01*
X533076Y250280D01*
X533547Y250980D01*
X574078D01*
X582392Y242666D01*
D02*
G37*
G36*
X598136Y230780D02*
X597708Y230603D01*
X596966Y230034D01*
X596397Y229292D01*
X596077Y228520D01*
X584423D01*
X584103Y229292D01*
X583534Y230034D01*
X582792Y230603D01*
X582364Y230780D01*
X582503Y231480D01*
X597997D01*
X598136Y230780D01*
D02*
G37*
G36*
X548779Y210279D02*
X549110Y210058D01*
X549500Y209980D01*
X559903D01*
X560065Y209280D01*
X559558Y208942D01*
X559116Y208280D01*
X559060Y208000D01*
X562940D01*
X562884Y208280D01*
X562442Y208942D01*
X561935Y209280D01*
X562097Y209980D01*
X567578D01*
X575779Y201779D01*
X576110Y201558D01*
X576500Y201480D01*
X581903D01*
X582065Y200780D01*
X581558Y200442D01*
X581116Y199780D01*
X581060Y199500D01*
X584940D01*
X584884Y199780D01*
X584442Y200442D01*
X583935Y200780D01*
X584097Y201480D01*
X597997D01*
X598136Y200780D01*
X597708Y200603D01*
X596966Y200034D01*
X596397Y199292D01*
X596077Y198520D01*
X591243D01*
X591153Y198653D01*
X590624Y199007D01*
X590000Y199131D01*
X589376Y199007D01*
X588846Y198653D01*
X588493Y198124D01*
X588369Y197500D01*
X588424Y197220D01*
X587987Y196569D01*
X587904Y196520D01*
X584097D01*
X583935Y197220D01*
X584442Y197558D01*
X584884Y198220D01*
X584940Y198500D01*
X581060D01*
X581116Y198220D01*
X581558Y197558D01*
X582065Y197220D01*
X581903Y196520D01*
X578422D01*
X571721Y203221D01*
X571390Y203442D01*
X571000Y203520D01*
X559777D01*
X559403Y204220D01*
X559507Y204376D01*
X559631Y205000D01*
X559593Y205193D01*
X560220Y205616D01*
X560500Y205560D01*
Y207000D01*
X558997D01*
X558899Y206871D01*
X558458Y206540D01*
X558000Y206631D01*
X557376Y206507D01*
X556847Y206153D01*
X556757Y206020D01*
X548594D01*
X539344Y215270D01*
X539689Y215915D01*
X540000Y215853D01*
X540624Y215977D01*
X541153Y216331D01*
X541243Y216465D01*
X542593D01*
X548779Y210279D01*
D02*
G37*
G36*
X598136Y210780D02*
X597708Y210603D01*
X596966Y210034D01*
X596397Y209292D01*
X596077Y208520D01*
X593243D01*
X593153Y208653D01*
X592624Y209007D01*
X592000Y209131D01*
X591376Y209007D01*
X590846Y208653D01*
X590493Y208124D01*
X590369Y207500D01*
X590493Y206876D01*
X590846Y206347D01*
X591376Y205993D01*
X592000Y205869D01*
X592624Y205993D01*
X593153Y206347D01*
X593243Y206480D01*
X596077D01*
X596397Y205708D01*
X596966Y204966D01*
X597708Y204397D01*
X598136Y204220D01*
X597997Y203520D01*
X576922D01*
X569608Y210834D01*
X569876Y211480D01*
X597997D01*
X598136Y210780D01*
D02*
G37*
G36*
X530876Y221477D02*
X531500Y221353D01*
X531658Y221384D01*
X532980Y220062D01*
Y219172D01*
X533058Y218781D01*
X533279Y218451D01*
X547451Y204279D01*
X547540Y204220D01*
X547327Y203520D01*
X539922D01*
X530234Y213208D01*
X530422Y213675D01*
X530553Y213879D01*
X531124Y213993D01*
X531653Y214347D01*
X532007Y214876D01*
X532131Y215500D01*
X532007Y216124D01*
X531653Y216653D01*
X531520Y216743D01*
Y218500D01*
X531442Y218890D01*
X531221Y219221D01*
X530020Y220422D01*
Y221207D01*
X530720Y221581D01*
X530876Y221477D01*
D02*
G37*
G36*
X548597Y200780D02*
X548493Y200624D01*
X548369Y200000D01*
X548493Y199376D01*
X548846Y198846D01*
X549376Y198493D01*
X550000Y198369D01*
X550624Y198493D01*
X551154Y198846D01*
X551243Y198980D01*
X570078D01*
X575779Y193279D01*
X576110Y193058D01*
X576500Y192980D01*
X584578D01*
X586130Y191428D01*
X585734Y190834D01*
X585428Y190961D01*
X584500Y191083D01*
X583572Y190961D01*
X582708Y190603D01*
X581966Y190034D01*
X581397Y189292D01*
X581039Y188427D01*
X580917Y187500D01*
X581039Y186573D01*
X581397Y185708D01*
X581772Y185220D01*
X581446Y184520D01*
X555922D01*
X539662Y200780D01*
X539952Y201480D01*
X544403D01*
X544565Y200780D01*
X544058Y200442D01*
X543616Y199780D01*
X543560Y199500D01*
X547440D01*
X547384Y199780D01*
X546942Y200442D01*
X546435Y200780D01*
X546597Y201480D01*
X548223D01*
X548597Y200780D01*
D02*
G37*
G36*
X581772Y179780D02*
X581397Y179292D01*
X581077Y178520D01*
X566047D01*
X565576Y179220D01*
X565631Y179500D01*
X565576Y179780D01*
X566047Y180480D01*
X581446D01*
X581772Y179780D01*
D02*
G37*
G36*
X581397Y175708D02*
X581808Y175172D01*
X581528Y174472D01*
X563496D01*
X563103Y175000D01*
X561000D01*
Y176000D01*
X563154D01*
X563528Y176480D01*
X581077D01*
X581397Y175708D01*
D02*
G37*
G36*
X503847Y189347D02*
X504376Y188993D01*
X504530Y188962D01*
X504761Y188203D01*
X489254Y172696D01*
X488653Y173085D01*
X488742Y173531D01*
X488617Y174156D01*
X488264Y174685D01*
X487735Y175039D01*
X487110Y175163D01*
X486486Y175039D01*
X485957Y174685D01*
X485603Y174156D01*
X485479Y173531D01*
X485603Y172907D01*
X485748Y172690D01*
X476578Y163520D01*
X464758D01*
X464384Y164220D01*
X464384Y164220D01*
X464440Y164500D01*
X460560D01*
X460616Y164220D01*
X460616Y164220D01*
X460242Y163520D01*
X385758D01*
X385384Y164220D01*
X385384Y164220D01*
X385440Y164500D01*
X381560D01*
X381616Y164220D01*
X381616Y164220D01*
X381242Y163520D01*
X371003D01*
X370864Y164220D01*
X371292Y164397D01*
X372034Y164966D01*
X372603Y165708D01*
X372923Y166480D01*
X381242D01*
X381616Y165780D01*
X381616Y165780D01*
X381560Y165500D01*
X385440D01*
X385384Y165780D01*
X385384Y165780D01*
X385758Y166480D01*
X460242D01*
X460616Y165780D01*
X460616Y165780D01*
X460560Y165500D01*
X464440D01*
X464384Y165780D01*
X464384Y165780D01*
X464758Y166480D01*
X474662D01*
X475052Y166558D01*
X475383Y166779D01*
X498084Y189480D01*
X503757D01*
X503847Y189347D01*
D02*
G37*
G36*
X484769Y180039D02*
X485012Y179292D01*
X474239Y168520D01*
X465028D01*
X464654Y169000D01*
X460346D01*
X459972Y168520D01*
X386028D01*
X385654Y169000D01*
X383500D01*
Y170000D01*
X385654D01*
X386028Y170480D01*
X459972D01*
X460346Y170000D01*
X464654D01*
X465028Y170480D01*
X474500D01*
X474890Y170558D01*
X475221Y170779D01*
X484520Y180078D01*
X484769Y180039D01*
D02*
G37*
G36*
X477405Y160847D02*
X475078Y158520D01*
X464758D01*
X464384Y159220D01*
X464384Y159220D01*
X464440Y159500D01*
X460560D01*
X460616Y159220D01*
X460616Y159220D01*
X460242Y158520D01*
X385758D01*
X385384Y159220D01*
X385384Y159220D01*
X385440Y159500D01*
X381560D01*
X381616Y159220D01*
X381616Y159220D01*
X381242Y158520D01*
X372923D01*
X372603Y159292D01*
X372034Y160034D01*
X371292Y160603D01*
X370864Y160780D01*
X371003Y161480D01*
X381242D01*
X381616Y160780D01*
X381616Y160780D01*
X381560Y160500D01*
X385440D01*
X385384Y160780D01*
X385384Y160780D01*
X385758Y161480D01*
X460242D01*
X460616Y160780D01*
X460616Y160780D01*
X460560Y160500D01*
X464440D01*
X464384Y160780D01*
X464384Y160780D01*
X464758Y161480D01*
X477000D01*
X477061Y161493D01*
X477405Y160847D01*
D02*
G37*
%LPC*%
G36*
X377500Y267940D02*
Y266500D01*
X378940D01*
X378884Y266780D01*
X378442Y267442D01*
X377780Y267884D01*
X377500Y267940D01*
D02*
G37*
G36*
X376500D02*
X376220Y267884D01*
X375558Y267442D01*
X375116Y266780D01*
X375060Y266500D01*
X376500D01*
Y267940D01*
D02*
G37*
G36*
X561500Y246440D02*
Y245000D01*
X562940D01*
X562884Y245280D01*
X562442Y245942D01*
X561780Y246384D01*
X561500Y246440D01*
D02*
G37*
G36*
X560500D02*
X560220Y246384D01*
X559558Y245942D01*
X559116Y245280D01*
X559060Y245000D01*
X560500D01*
Y246440D01*
D02*
G37*
G36*
X562940Y207000D02*
X561500D01*
Y205560D01*
X561780Y205616D01*
X562442Y206058D01*
X562884Y206720D01*
X562940Y207000D01*
D02*
G37*
G36*
X583500Y208440D02*
Y207000D01*
X584940D01*
X584884Y207280D01*
X584442Y207942D01*
X583780Y208384D01*
X583500Y208440D01*
D02*
G37*
G36*
X582500D02*
X582220Y208384D01*
X581558Y207942D01*
X581116Y207280D01*
X581060Y207000D01*
X582500D01*
Y208440D01*
D02*
G37*
G36*
X584940Y206000D02*
X583500D01*
Y204560D01*
X583780Y204616D01*
X584442Y205058D01*
X584884Y205720D01*
X584940Y206000D01*
D02*
G37*
G36*
X582500D02*
X581060D01*
X581116Y205720D01*
X581558Y205058D01*
X582220Y204616D01*
X582500Y204560D01*
Y206000D01*
D02*
G37*
G36*
X541500Y208440D02*
Y207000D01*
X542940D01*
X542884Y207280D01*
X542442Y207942D01*
X541780Y208384D01*
X541500Y208440D01*
D02*
G37*
G36*
X540500D02*
X540220Y208384D01*
X539558Y207942D01*
X539116Y207280D01*
X539060Y207000D01*
X540500D01*
Y208440D01*
D02*
G37*
G36*
X542940Y206000D02*
X541500D01*
Y204560D01*
X541780Y204616D01*
X542442Y205058D01*
X542884Y205720D01*
X542940Y206000D01*
D02*
G37*
G36*
X540500D02*
X539060D01*
X539116Y205720D01*
X539558Y205058D01*
X540220Y204616D01*
X540500Y204560D01*
Y206000D01*
D02*
G37*
G36*
X547440Y198500D02*
X546000D01*
Y197060D01*
X546280Y197116D01*
X546942Y197558D01*
X547384Y198220D01*
X547440Y198500D01*
D02*
G37*
G36*
X545000D02*
X543560D01*
X543616Y198220D01*
X544058Y197558D01*
X544720Y197116D01*
X545000Y197060D01*
Y198500D01*
D02*
G37*
G36*
X561500Y193440D02*
Y192000D01*
X562940D01*
X562884Y192280D01*
X562442Y192942D01*
X561780Y193384D01*
X561500Y193440D01*
D02*
G37*
G36*
X560500D02*
X560220Y193384D01*
X559558Y192942D01*
X559116Y192280D01*
X559060Y192000D01*
X560500D01*
Y193440D01*
D02*
G37*
G36*
X562940Y191000D02*
X561500D01*
Y189560D01*
X561780Y189616D01*
X562442Y190058D01*
X562884Y190720D01*
X562940Y191000D01*
D02*
G37*
G36*
X560500D02*
X559060D01*
X559116Y190720D01*
X559558Y190058D01*
X560220Y189616D01*
X560500Y189560D01*
Y191000D01*
D02*
G37*
%LPD*%
D10*
X459205Y232500D02*
X462500Y235795D01*
X364500Y232500D02*
X459205D01*
X465000Y242000D02*
X466000Y243000D01*
X364000Y242000D02*
X465000D01*
X359500Y237500D02*
X364000Y242000D01*
X374000Y252500D02*
X481173D01*
X373000Y251500D02*
X374000Y252500D01*
X363500Y251500D02*
X373000D01*
X385500Y258500D02*
X479205D01*
X381500Y262500D02*
X385500Y258500D01*
X364500Y262500D02*
X381500D01*
X374000Y255000D02*
X477236D01*
X372500Y253500D02*
X374000Y255000D01*
X359500Y267500D02*
X364500Y262500D01*
X359500Y227500D02*
X364500Y232500D01*
X363500Y253500D02*
X372500D01*
X359500Y257500D02*
X363500Y253500D01*
X359500Y247500D02*
X363500Y251500D01*
D14*
X462500Y160000D02*
X465500D01*
X459500D02*
X462500D01*
Y165000D02*
X465500D01*
X459500D02*
X462500D01*
Y169500D02*
X465500D01*
X459000D02*
X462500D01*
D42*
X481587Y212087D02*
X494600D01*
X481500Y212000D02*
X481587Y212087D01*
X483937Y214110D02*
X492610D01*
X483913Y214087D02*
X483937Y214110D01*
X494600Y212087D02*
X499900Y217386D01*
X364500Y162500D02*
X477000D01*
X359500Y157500D02*
X364500Y162500D01*
X477000D02*
X487110Y172610D01*
X369500Y157500D02*
X475500D01*
X509500Y191500D01*
X487110Y172610D02*
Y173531D01*
X474662Y167500D02*
X497662Y190500D01*
X369500Y167500D02*
X474662D01*
X497662Y190500D02*
X505000D01*
X515000Y193000D02*
X525500D01*
X581000Y137500D01*
X517500Y171000D02*
Y187000D01*
X365520Y213520D02*
Y219520D01*
X359500Y207500D02*
X365520Y213520D01*
Y219520D02*
X368500Y222500D01*
X387500Y261500D02*
X448500D01*
X376500Y272500D02*
X387500Y261500D01*
X363500Y272500D02*
X376500D01*
X364500Y302500D02*
X380500D01*
X359500Y307500D02*
X364500Y302500D01*
X380500D02*
X413000Y270000D01*
X588500Y195500D02*
X590500Y193500D01*
X578000Y195500D02*
X588500D01*
X571000Y202500D02*
X578000Y195500D01*
X585000Y194000D02*
X591500Y187500D01*
X576500Y194000D02*
X585000D01*
X570500Y200000D02*
X576500Y194000D01*
X574500Y252000D02*
X584000Y242500D01*
X512055Y252000D02*
X574500D01*
X511555Y252500D02*
X512055Y252000D01*
X588500Y268500D02*
X593500Y263500D01*
X493000Y268500D02*
X588500D01*
X490000Y271500D02*
X493000Y268500D01*
X587000Y267000D02*
X592500Y261500D01*
X491000Y267000D02*
X587000D01*
X490000Y268000D02*
X491000Y267000D01*
X539500Y202500D02*
X571000D01*
X480000Y191500D02*
X481000Y190500D01*
X363500Y191500D02*
X480000D01*
X369500Y147500D02*
X478000D01*
X494000Y163500D01*
X472421Y123000D02*
X498000Y148579D01*
X364000Y123000D02*
X472421D01*
X359500Y127500D02*
X364000Y123000D01*
X380000Y307500D02*
X415000Y272500D01*
X369500Y307500D02*
X380000D01*
X415000Y272500D02*
X457000D01*
X381500Y292500D02*
X409500Y264500D01*
X364500Y292500D02*
X381500D01*
X409500Y264500D02*
X454000D01*
X363547Y193547D02*
X478547D01*
X478836Y193836D01*
X363500Y193500D02*
X363547Y193547D01*
X359500Y197500D02*
X363500Y193500D01*
X529000Y220000D02*
X530500Y218500D01*
Y215500D02*
Y215531D01*
Y215500D02*
Y218500D01*
X445000Y152484D02*
X455016D01*
X459000Y275000D02*
X463000Y279000D01*
X439500Y275000D02*
X459000D01*
X489500Y150000D02*
X493000D01*
X473500Y174000D02*
X493500Y194000D01*
X373000Y174000D02*
X473500D01*
X369500Y177500D02*
X373000Y174000D01*
X373500Y181500D02*
X379000Y176000D01*
X471642D01*
X483142Y187500D01*
X363500Y181500D02*
X373500D01*
X359500Y177500D02*
X363500Y181500D01*
X474500Y171500D02*
X485087Y182087D01*
X363500Y171500D02*
X474500D01*
X359500Y167500D02*
X363500Y171500D01*
X493500Y194000D02*
X503000D01*
X510000Y163500D02*
X517500Y171000D01*
X494000Y163500D02*
X510000D01*
X584500Y261500D02*
X585500Y260500D01*
X491500Y265000D02*
X584000D01*
X581500Y259500D02*
X583000Y258000D01*
X578500Y257000D02*
X580000Y255500D01*
X490500Y264000D02*
X491500Y265000D01*
X491000Y260000D02*
X494000D01*
X581500Y250500D02*
X582500D01*
X589500Y257500D01*
X496500Y259500D02*
X581500D01*
X495500Y261500D02*
X584500D01*
X592500D02*
X602000D01*
X593500Y263500D02*
X603500D01*
X490500Y264000D02*
Y264500D01*
X494000Y260000D02*
X495500Y261500D01*
X529000Y246172D02*
X531500Y248672D01*
Y250000D01*
X499900Y253900D02*
X501500Y255500D01*
X499900Y217386D02*
Y253900D01*
X505500Y257000D02*
X578500D01*
X545500Y233500D02*
Y234528D01*
X545972Y235000D01*
X591500Y187500D02*
X599500D01*
X550000Y200000D02*
X570500D01*
X554500Y181500D02*
X588500D01*
X555500Y183500D02*
X603500D01*
X590500Y193500D02*
X603500D01*
X609500Y187500D01*
X576500Y202500D02*
X604500D01*
X609500Y197500D01*
X506205Y235795D02*
X539500Y202500D01*
X506500Y232500D02*
X555500Y183500D01*
X549500Y211000D02*
X568000D01*
X543016Y217484D02*
X549500Y211000D01*
X540000Y217484D02*
X543016D01*
X568000Y211000D02*
X576500Y202500D01*
X505000Y232500D02*
X506500D01*
X548172Y205000D02*
X558000D01*
X534000Y219172D02*
X548172Y205000D01*
X585000Y152484D02*
X604516D01*
X609500Y147500D01*
X603500Y183500D02*
X609500Y177500D01*
X506500Y226000D02*
X553000Y179500D01*
X564000D01*
X588500Y181500D02*
X597500Y172500D01*
X507000Y229000D02*
X554500Y181500D01*
X552500Y177500D02*
X584500D01*
X507000Y223000D02*
X552500Y177500D01*
X604500Y172500D02*
X609500Y167500D01*
X597500Y172500D02*
X604500D01*
X554047Y173453D02*
X593547D01*
X507500Y220000D02*
X554047Y173453D01*
X534000Y219172D02*
Y220484D01*
X531500Y222984D02*
X534000Y220484D01*
X531000Y229061D02*
X536000Y224061D01*
Y220000D02*
Y224061D01*
X529000Y220000D02*
Y246172D01*
X545972Y235000D02*
X557500D01*
X560000Y232500D01*
X503000Y235795D02*
X506205D01*
X531000Y229061D02*
Y236000D01*
X533000Y230000D02*
X550500Y212500D01*
X604500D01*
X527500Y218079D02*
Y247500D01*
X596000Y241000D02*
X599500Y237500D01*
X536000Y241000D02*
X596000D01*
X531000Y236000D02*
X536000Y241000D01*
X521500Y242484D02*
Y242500D01*
Y223984D02*
Y242484D01*
X604500Y212500D02*
X609500Y207500D01*
X560000Y232500D02*
X604500D01*
X609500Y227500D01*
X584000Y242500D02*
X604500D01*
X609500Y237500D01*
X584000Y247500D02*
X599500D01*
X589500Y257500D02*
X599500D01*
X588000Y217500D02*
X599500D01*
X584000Y227500D02*
X599500D01*
X590000Y197500D02*
X599500D01*
X592000Y207500D02*
X599500D01*
X581000Y137500D02*
X599500D01*
X552511Y169000D02*
X574000D01*
X574500Y169500D01*
X553511Y171000D02*
X569500D01*
X593547Y173453D02*
X599500Y167500D01*
X504500Y217000D02*
X507511D01*
X553511Y171000D01*
X504500Y214000D02*
X507500D01*
X509500Y191500D02*
Y208236D01*
X507500Y214000D02*
X552500Y169173D01*
X492610Y214110D02*
X497900Y219400D01*
X468000Y247500D02*
X489500Y226000D01*
Y216110D02*
Y226000D01*
X603500Y263500D02*
X609500Y257500D01*
X504500Y223000D02*
X507000D01*
X504500Y226000D02*
X506500D01*
X504500Y220000D02*
X507500D01*
X602000Y261500D02*
X605000Y258500D01*
Y252000D02*
Y258500D01*
Y252000D02*
X609500Y247500D01*
X493500Y256500D02*
X496500Y259500D01*
X491500Y256500D02*
X493500D01*
X497900Y219400D02*
Y256500D01*
X490000Y154500D02*
X495500D01*
X478000Y142500D02*
X490000Y154500D01*
X370500Y142500D02*
X478000Y142500D01*
X477000Y137500D02*
X489500Y150000D01*
X463000Y279000D02*
X491000D01*
X463000Y247500D02*
X468000D01*
X369500D02*
X463000D01*
X368500Y222500D02*
X458000D01*
X461500Y219000D01*
X453500Y270000D02*
X456000Y267500D01*
X413000Y270000D02*
X453500D01*
X456000Y267500D02*
X460000D01*
X369500Y297500D02*
X381000D01*
X411000Y267500D01*
X451000D01*
X359500Y297500D02*
X364500Y292500D01*
X359500Y276500D02*
X363500Y272500D01*
X359500Y276500D02*
Y277500D01*
X369500Y127500D02*
X472000D01*
X490000Y145500D01*
X369500Y137500D02*
X477000D01*
X359500D02*
X364500Y142500D01*
X370500D01*
X359500Y187500D02*
X363500Y191500D01*
D43*
X523000Y173000D02*
X536500D01*
X369500Y207500D02*
Y217500D01*
D47*
X584500Y187500D02*
D03*
Y177500D02*
D03*
X609500Y307500D02*
D03*
X599500Y297500D02*
D03*
X609500D02*
D03*
X599500Y287500D02*
D03*
X609500D02*
D03*
X599500Y277500D02*
D03*
X609500D02*
D03*
X599500Y267500D02*
D03*
X609500D02*
D03*
X599500Y257500D02*
D03*
X609500D02*
D03*
X599500Y247500D02*
D03*
X609500D02*
D03*
X599500Y237500D02*
D03*
X609500D02*
D03*
X599500Y227500D02*
D03*
X609500D02*
D03*
X599500Y217500D02*
D03*
X609500D02*
D03*
X599500Y207500D02*
D03*
X609500D02*
D03*
X599500Y197500D02*
D03*
X609500D02*
D03*
X599500Y187500D02*
D03*
X609500D02*
D03*
X599500Y177500D02*
D03*
X609500D02*
D03*
X599500Y167500D02*
D03*
X609500D02*
D03*
X599500Y157500D02*
D03*
X609500D02*
D03*
X599500Y147500D02*
D03*
X609500D02*
D03*
X599500Y137500D02*
D03*
X609500D02*
D03*
X599500Y127500D02*
D03*
X609500D02*
D03*
X581000Y227500D02*
D03*
X579500Y287500D02*
D03*
X369500Y307500D02*
D03*
X359500Y297500D02*
D03*
X369500D02*
D03*
X359500Y287500D02*
D03*
X369500D02*
D03*
X359500Y277500D02*
D03*
X369500D02*
D03*
X359500Y267500D02*
D03*
X369500D02*
D03*
X359500Y257500D02*
D03*
X369500D02*
D03*
X359500Y247500D02*
D03*
X369500D02*
D03*
X359500Y237500D02*
D03*
X369500D02*
D03*
X359500Y227500D02*
D03*
X369500D02*
D03*
X359500Y217500D02*
D03*
X369500D02*
D03*
X359500Y207500D02*
D03*
X369500D02*
D03*
X359500Y197500D02*
D03*
X369500D02*
D03*
X359500Y187500D02*
D03*
X369500D02*
D03*
X359500Y177500D02*
D03*
X369500D02*
D03*
X359500Y167500D02*
D03*
X369500D02*
D03*
X359500Y157500D02*
D03*
X369500D02*
D03*
X359500Y147500D02*
D03*
X369500D02*
D03*
X359500Y137500D02*
D03*
X369500D02*
D03*
X359500Y127500D02*
D03*
X369500D02*
D03*
X466000Y305000D02*
D03*
X476000D02*
D03*
X486000D02*
D03*
X496000D02*
D03*
X506000D02*
D03*
D48*
X584500Y167500D02*
D03*
X599500Y307500D02*
D03*
X581000Y217500D02*
D03*
X579500Y297500D02*
D03*
X359500Y307500D02*
D03*
D49*
X456000Y305000D02*
D03*
D50*
X388500Y277000D02*
D03*
X536500Y173000D02*
D03*
X383500Y117500D02*
D03*
X383500Y153000D02*
D03*
X400000Y238000D02*
D03*
Y228000D02*
D03*
X396500Y132000D02*
D03*
X550500Y221500D02*
D03*
X394500Y184000D02*
D03*
X523000Y173000D02*
D03*
X463500Y181500D02*
D03*
X450000Y200000D02*
D03*
D51*
X491500Y231000D02*
D03*
X477500D02*
D03*
X481500Y212000D02*
D03*
X483913Y214087D02*
D03*
X541000Y206500D02*
D03*
X545500Y199000D02*
D03*
X462500Y160000D02*
D03*
X383500Y160000D02*
D03*
X462500Y169500D02*
D03*
Y165000D02*
D03*
X515000Y193000D02*
D03*
X517500Y187000D02*
D03*
X400000Y250000D02*
D03*
Y244500D02*
D03*
X377000Y250000D02*
D03*
Y276500D02*
D03*
Y266000D02*
D03*
Y258500D02*
D03*
X377000Y289000D02*
D03*
Y295000D02*
D03*
Y300000D02*
D03*
Y310500D02*
D03*
Y305000D02*
D03*
X583000Y206500D02*
D03*
Y199000D02*
D03*
X572500Y254500D02*
D03*
X511555Y252500D02*
D03*
X517000Y248500D02*
D03*
X561000Y244500D02*
D03*
X561000Y237500D02*
D03*
Y221500D02*
D03*
Y207500D02*
D03*
X561000Y191500D02*
D03*
Y165500D02*
D03*
Y175500D02*
D03*
X533500Y275000D02*
D03*
X383500Y145000D02*
D03*
Y125500D02*
D03*
X383500Y133000D02*
D03*
X383500Y140000D02*
D03*
Y165000D02*
D03*
X383500Y180000D02*
D03*
X383500Y169500D02*
D03*
X476000Y283000D02*
D03*
X478836Y193836D02*
D03*
X530500Y215500D02*
D03*
X445000Y152484D02*
D03*
X455016D02*
D03*
X439500Y275000D02*
D03*
X493000Y150000D02*
D03*
X481000Y190500D02*
D03*
X483142Y187500D02*
D03*
X485142Y182032D02*
D03*
X487110Y173531D02*
D03*
X503000Y154500D02*
D03*
X585500Y260500D02*
D03*
X584000Y265000D02*
D03*
X583000Y258000D02*
D03*
X580000Y255500D02*
D03*
X491000Y260000D02*
D03*
X581500Y250500D02*
D03*
X490500Y264500D02*
D03*
X490000Y268000D02*
D03*
Y271500D02*
D03*
X479205Y258500D02*
D03*
X476000Y275984D02*
D03*
X531500Y250000D02*
D03*
X501500Y255500D02*
D03*
X505500Y257000D02*
D03*
X545500Y233500D02*
D03*
X550000Y200000D02*
D03*
X540000Y217484D02*
D03*
X558000Y205000D02*
D03*
X585000Y152484D02*
D03*
X564000Y179500D02*
D03*
X531500Y222984D02*
D03*
X536000Y220000D02*
D03*
X507000Y229000D02*
D03*
X505000Y232500D02*
D03*
X503000Y235795D02*
D03*
X527500Y247500D02*
D03*
Y218079D02*
D03*
X521500Y242484D02*
D03*
Y223984D02*
D03*
X535500Y235500D02*
D03*
X533000Y229890D02*
D03*
X584000Y247500D02*
D03*
X588000Y217500D02*
D03*
X590000Y197500D02*
D03*
X592000Y207500D02*
D03*
X574500Y169500D02*
D03*
X569500Y171000D02*
D03*
X504500Y214000D02*
D03*
X509500Y208236D02*
D03*
X489500Y216110D02*
D03*
X498000Y148579D02*
D03*
X495500Y154500D02*
D03*
X490000Y145500D02*
D03*
X497900Y256600D02*
D03*
X491500Y256500D02*
D03*
X481173Y252500D02*
D03*
X477236Y255000D02*
D03*
X502000Y284000D02*
D03*
X491000Y279000D02*
D03*
X463000D02*
D03*
X448500Y261500D02*
D03*
X451000Y267500D02*
D03*
X454000Y264500D02*
D03*
X457000Y272500D02*
D03*
X460000Y267500D02*
D03*
X466000Y243000D02*
D03*
X463000Y247500D02*
D03*
X462500Y235795D02*
D03*
X462000Y211500D02*
D03*
X461500Y219000D02*
D03*
X503000Y194000D02*
D03*
X505000Y190500D02*
D03*
X504500Y217000D02*
D03*
Y220000D02*
D03*
Y223000D02*
D03*
Y226000D02*
D03*
M02*
