G04*
G04 #@! TF.GenerationSoftware,Altium Limited,Altium Designer,19.1.7 (138)*
G04*
G04 Layer_Color=8421504*
%FSLAX25Y25*%
%MOIN*%
G70*
G01*
G75*
%ADD14R,0.04700X0.01200*%
%ADD15R,0.01200X0.04700*%
%ADD16R,0.03543X0.03150*%
%ADD17R,0.03543X0.02756*%
%ADD18R,0.06496X0.07874*%
%ADD19R,0.05906X0.03937*%
%ADD20R,0.03150X0.03543*%
%ADD21R,0.03937X0.05906*%
%ADD22R,0.02756X0.03543*%
%ADD23R,0.08465X0.12795*%
%ADD24R,0.08465X0.03937*%
%ADD25R,0.03150X0.03150*%
D14*
X469362Y208236D02*
D03*
Y210205D02*
D03*
Y212173D02*
D03*
Y214142D02*
D03*
Y216110D02*
D03*
Y218079D02*
D03*
Y220047D02*
D03*
Y222016D02*
D03*
Y223984D02*
D03*
Y225953D02*
D03*
Y227921D02*
D03*
Y229890D02*
D03*
Y231858D02*
D03*
Y233827D02*
D03*
Y235795D02*
D03*
Y237764D02*
D03*
X514638D02*
D03*
Y235795D02*
D03*
Y233827D02*
D03*
Y231858D02*
D03*
Y229890D02*
D03*
Y227921D02*
D03*
Y225953D02*
D03*
Y223984D02*
D03*
Y222016D02*
D03*
Y220047D02*
D03*
Y218079D02*
D03*
Y216110D02*
D03*
Y214142D02*
D03*
Y212173D02*
D03*
Y210205D02*
D03*
Y208236D02*
D03*
D15*
X477236Y245638D02*
D03*
X479205D02*
D03*
X481173D02*
D03*
X483142D02*
D03*
X485110D02*
D03*
X487079D02*
D03*
X489047D02*
D03*
X491016D02*
D03*
X492984D02*
D03*
X494953D02*
D03*
X496921D02*
D03*
X498890D02*
D03*
X500858D02*
D03*
X502827D02*
D03*
X504795D02*
D03*
X506764D02*
D03*
Y200362D02*
D03*
X504795D02*
D03*
X502827D02*
D03*
X500858D02*
D03*
X498890D02*
D03*
X496921D02*
D03*
X494953D02*
D03*
X492984D02*
D03*
X491016D02*
D03*
X489047D02*
D03*
X487079D02*
D03*
X485110D02*
D03*
X483142D02*
D03*
X481173D02*
D03*
X479205D02*
D03*
X477236D02*
D03*
D16*
X440000Y284244D02*
D03*
Y289756D02*
D03*
X400500Y217756D02*
D03*
Y212244D02*
D03*
X471000Y181244D02*
D03*
Y186756D02*
D03*
X563500Y235256D02*
D03*
Y229744D02*
D03*
X550500Y232244D02*
D03*
Y237756D02*
D03*
X450000Y184244D02*
D03*
Y189756D02*
D03*
X476000Y265744D02*
D03*
Y271256D02*
D03*
X540500Y233756D02*
D03*
Y228244D02*
D03*
X430000Y152256D02*
D03*
Y146744D02*
D03*
D17*
X506000Y293953D02*
D03*
Y288047D02*
D03*
X503000Y166500D02*
D03*
Y160594D02*
D03*
X439000Y146547D02*
D03*
Y152453D02*
D03*
X430000Y140453D02*
D03*
Y134547D02*
D03*
X514500Y173047D02*
D03*
Y178953D02*
D03*
X496000Y292500D02*
D03*
Y286595D02*
D03*
X466000Y292453D02*
D03*
Y286547D02*
D03*
D18*
X389500Y197520D02*
D03*
Y212480D02*
D03*
D19*
X421000Y141000D02*
D03*
X400000D02*
D03*
Y153500D02*
D03*
X421000D02*
D03*
D20*
X503102Y179000D02*
D03*
X508614D02*
D03*
X429744Y226000D02*
D03*
X435256D02*
D03*
X455256Y208236D02*
D03*
X449744D02*
D03*
D21*
X417500Y279000D02*
D03*
Y300000D02*
D03*
X430000D02*
D03*
Y279000D02*
D03*
D22*
X455953Y295500D02*
D03*
X450047D02*
D03*
X455453Y221000D02*
D03*
X449547D02*
D03*
X419547Y184000D02*
D03*
X425453D02*
D03*
X441453Y184000D02*
D03*
X435547D02*
D03*
X485953Y294000D02*
D03*
X480047D02*
D03*
D23*
X435516Y206500D02*
D03*
D24*
X412484Y197445D02*
D03*
Y206500D02*
D03*
Y215555D02*
D03*
D25*
X409952Y184000D02*
D03*
X404047D02*
D03*
M02*
