M48
;Layer_Color=9474304
;FILE_FORMAT=2:5
INCH,TZ
;TYPE=PLATED
T1F00S00C0.01000
T2F00S00C0.02800
T3F00S00C0.03543
%
T01
X445000Y152484
X455016
X476000Y136000
X480000Y135985
X483500Y136000
X487000
X490000Y144500
X493500Y149500
X498000Y148579
X503000Y154500
X492500
X488000Y174500
X485142Y182032
X483000Y186500
X480000Y188500
X478050Y192550
X481500Y211000
X483913Y214087
X489000Y215500
X492500Y227500
X488500Y230500
X477000
X475500Y255000
X478500Y258500
X481173Y252500
X491258Y257258
X490500Y261500
X492000Y266000
X495000Y270000
X496000Y273500
X500000Y283000
X484000Y279000
X476000Y275984
X473000Y283000
X476000Y287500
X497900Y256600
X501500Y256500
X505500Y257500
X511500Y254500
X525500Y255500
X528500Y253000
X529000Y258000
X531500Y261000
X533500Y264000
X536000Y266500
X540500Y269000
X531500Y250000
X527000Y247500
X520600Y243600
X522253Y224253
X527500Y218079
X530500Y215500
X532911Y220089
X540000Y217484
X533000Y229890
X545500Y233500
X570000Y236500
Y245000
X572000Y253000
X581500Y250500
X584000Y247500
X582000Y217500
X588000
X592000Y207500
X582000
Y197500
X560000Y202500
X542000Y198500
X540000Y195500
Y187500
X545500Y186500
X532000
X522500
X505000Y188500
X503000Y193000
X509500Y208236
X504500Y221000
X506500Y224000
X507000Y228500
X504000Y227500
X504191Y232691
X502282Y235795
X570000Y228000
X461000Y225000
X461500Y219000
X462000Y211500
X462500Y236500
X466000Y243000
X463000Y247500
X442500
X441124Y242376
X442500Y238000
X439500Y233500
X441814Y228686
X439500Y251500
Y258500
X442500Y256000
X443000Y261500
X440500Y264500
X443000Y267500
Y272500
X440000Y270000
Y279000
X452500Y282500
Y275500
X457000Y272500
X460000Y267500
X451000
X454000Y264500
X448500Y261500
X463000Y279000
X440000Y295500
X441500Y174000
X445500Y176500
Y171500
X444500Y167000
X445000Y162500
Y157500
T02
X421000Y134500
X521500Y172953
X556000Y180000
X550500Y221500
X563500Y221000
X516500Y247500
X533500Y275000
X450000Y215000
Y200000
X463500Y181500
X394500Y184000
X400500Y225000
X409000Y300000
T03
X359500Y127500
Y137500
Y147500
X369500
Y137500
Y127500
X599500
Y137500
Y147500
X609500
Y137500
Y127500
Y157500
Y167500
Y177500
Y187500
Y197500
Y207500
Y217500
Y227500
Y237500
Y247500
Y257500
Y267500
Y277500
Y287500
Y297500
Y307500
X599500
Y297500
Y287500
Y277500
Y267500
Y257500
Y247500
Y237500
Y227500
Y217500
Y207500
Y197500
Y187500
Y177500
Y167500
Y157500
X579500Y287500
Y297500
X506000Y305000
X496000
X486000
X476000
X466000
X456000
X369500Y307500
X359500
Y297500
X369500
Y287500
X359500
Y277500
X369500
Y267500
X359500
Y257500
X369500
Y247500
X359500
Y237500
X369500
Y227500
X359500
Y217500
X369500
Y207500
X359500
Y197500
X369500
Y187500
X359500
Y177500
X369500
Y167500
X359500
Y157500
X369500
X394500Y236000
X404500
M30
