M48
;Layer_Color=9474304
;FILE_FORMAT=2:5
INCH,TZ
;TYPE=PLATED
T1F00S00C0.01000
T2F00S00C0.02800
T3F00S00C0.03543
%
T01
X383500Y125500
X383500Y133000
X383500Y140000
Y145000
X445000Y152484
X455016
X493000Y150000
X498000Y148579
X495500Y154500
X503000
X490000Y145500
X585000Y152484
X574500Y169500
X569500Y171000
X561000Y175500
X564000Y179500
X561000Y191500
X561000Y207500
X558000Y205000
X550000Y200000
X545500Y199000
X541000Y206500
X540000Y217484
X536000Y220000
X531500Y222984
X533000Y229890
X535500Y235500
X545500Y233500
X561000Y237500
X561000Y244500
X572500Y254500
X580000Y255500
X583000Y258000
X585500Y260500
X584000Y265000
X581500Y250500
X584000Y247500
X588000Y217500
X592000Y207500
X583000Y206500
Y199000
X590000Y197500
X561000Y221500
X530500Y215500
X527500Y218079
X521500Y223984
X504500Y223000
Y220000
Y217000
Y214000
X509500Y208236
X515000Y193000
X517500Y187000
X505000Y190500
X503000Y194000
X478836Y193836
X481000Y190500
X483142Y187500
X485142Y182032
X487110Y173531
X483913Y214087
X481500Y212000
X489500Y216110
X491500Y231000
X477500
X477236Y255000
X479205Y258500
X481173Y252500
X491500Y256500
X491000Y260000
X490500Y264500
X490000Y268000
Y271500
X491000Y279000
X502000Y284000
X476000Y283000
X476000Y275984
X497900Y256600
X501500Y255500
X505500Y257000
X511555Y252500
X517000Y248500
X521500Y242484
X527500Y247500
X531500Y250000
X533500Y275000
X503000Y235795
X505000Y232500
X507000Y229000
X504500Y226000
X561000Y165500
X462500Y165000
Y169500
Y160000
X462000Y211500
X461500Y219000
X462500Y235795
X466000Y243000
X463000Y247500
X460000Y267500
X457000Y272500
X451000Y267500
X454000Y264500
X448500Y261500
X439500Y275000
X463000Y279000
X377000Y276500
Y266000
Y258500
Y250000
X400000Y250000
Y244500
X377000Y289000
Y295000
Y300000
Y305000
Y310500
X383500Y180000
X383500Y169500
Y165000
Y160000
T02
X383500Y117500
X396500Y132000
X383500Y153000
X523000Y173000
X536500
X550500Y221500
X450000Y200000
X463500Y181500
X394500Y184000
X400000Y228000
Y238000
X388500Y277000
T03
X359500Y127500
Y137500
Y147500
X369500
Y137500
Y127500
X599500
Y137500
Y147500
X609500
Y137500
Y127500
Y157500
Y167500
Y177500
Y187500
Y197500
Y207500
Y217500
Y227500
Y237500
Y247500
Y257500
Y267500
Y277500
Y287500
Y297500
Y307500
X599500
Y297500
Y287500
Y277500
Y267500
Y257500
Y247500
Y237500
Y227500
Y217500
Y207500
Y197500
Y187500
Y177500
Y167500
Y157500
X584500Y167500
Y177500
Y187500
X581000Y217500
Y227500
X579500Y287500
Y297500
X506000Y305000
X496000
X486000
X476000
X466000
X456000
X369500Y307500
X359500
Y297500
X369500
Y287500
X359500
Y277500
X369500
Y267500
X359500
Y257500
X369500
Y247500
X359500
Y237500
X369500
Y227500
X359500
Y217500
X369500
Y207500
X359500
Y197500
X369500
Y187500
X359500
Y177500
X369500
Y167500
X359500
Y157500
X369500
M30
