G04*
G04 #@! TF.GenerationSoftware,Altium Limited,Altium Designer,19.1.7 (138)*
G04*
G04 Layer_Color=65535*
%FSLAX25Y25*%
%MOIN*%
G70*
G01*
G75*
%ADD10C,0.00600*%
%ADD11C,0.00984*%
%ADD12C,0.00787*%
%ADD13C,0.01575*%
G36*
X466012Y216860D02*
Y215360D01*
X465012D01*
Y216860D01*
X466012D01*
D02*
G37*
G36*
Y236545D02*
Y235045D01*
X465012D01*
Y236545D01*
X466012D01*
D02*
G37*
G36*
X492234Y248988D02*
Y249988D01*
X493734D01*
Y248988D01*
X492234D01*
D02*
G37*
G36*
X494203Y197012D02*
Y196012D01*
X495703D01*
Y197012D01*
X494203D01*
D02*
G37*
G36*
X517988Y214892D02*
Y213392D01*
X518988D01*
Y214892D01*
X517988D01*
D02*
G37*
G36*
Y234577D02*
Y233077D01*
X518988D01*
Y234577D01*
X517988D01*
D02*
G37*
D10*
X477536Y196028D02*
G03*
X477536Y196028I-300J0D01*
G01*
X471800Y243200D02*
X475329D01*
X512200Y239671D02*
Y243200D01*
X508671Y202800D02*
X512200D01*
X471800D02*
X475329D01*
X471800Y239671D02*
Y243200D01*
X508671D02*
X512200D01*
Y202800D02*
Y206329D01*
X471800Y202800D02*
Y206329D01*
X610166Y120500D02*
X610699Y119967D01*
Y118901D01*
X610166Y118367D01*
X609633D01*
X609099Y118901D01*
Y119434D01*
Y118901D01*
X608566Y118367D01*
X608033D01*
X607500Y118901D01*
Y119967D01*
X608033Y120500D01*
X610166Y117301D02*
X610699Y116768D01*
Y115701D01*
X610166Y115168D01*
X609633D01*
X609099Y115701D01*
X608566Y115168D01*
X608033D01*
X607500Y115701D01*
Y116768D01*
X608033Y117301D01*
X608566D01*
X609099Y116768D01*
X609633Y117301D01*
X610166D01*
X609099Y116768D02*
Y115701D01*
X600166Y120500D02*
X600699Y119967D01*
Y118901D01*
X600166Y118367D01*
X599633D01*
X599099Y118901D01*
Y119434D01*
Y118901D01*
X598566Y118367D01*
X598033D01*
X597500Y118901D01*
Y119967D01*
X598033Y120500D01*
X600699Y117301D02*
Y115168D01*
X600166D01*
X598033Y117301D01*
X597500D01*
Y317500D02*
Y316434D01*
Y316967D01*
X600699D01*
X600166Y317500D01*
X607500Y315367D02*
Y317500D01*
X609633Y315367D01*
X610166D01*
X610699Y315900D01*
Y316967D01*
X610166Y317500D01*
X400000Y283000D02*
Y286199D01*
X402133Y283000D01*
Y286199D01*
X403199Y283000D02*
Y286199D01*
X404799D01*
X405332Y285666D01*
Y284599D01*
X404799Y284066D01*
X403199D01*
X404265D02*
X405332Y283000D01*
X408531Y285666D02*
X407997Y286199D01*
X406931D01*
X406398Y285666D01*
Y285133D01*
X406931Y284599D01*
X407997D01*
X408531Y284066D01*
Y283533D01*
X407997Y283000D01*
X406931D01*
X406398Y283533D01*
X409597Y286199D02*
X411730D01*
X410663D01*
Y283000D01*
X377500Y189699D02*
Y187566D01*
X378566Y186500D01*
X379633Y187566D01*
Y189699D01*
X380699D02*
X381765D01*
X381232D01*
Y186500D01*
X380699D01*
X381765D01*
X383365D02*
Y189699D01*
X385497Y186500D01*
Y189699D01*
X378633Y221166D02*
X378099Y221699D01*
X377033D01*
X376500Y221166D01*
Y219033D01*
X377033Y218500D01*
X378099D01*
X378633Y219033D01*
Y220099D01*
X377566D01*
X379699Y218500D02*
Y221699D01*
X381832Y218500D01*
Y221699D01*
X382898D02*
Y218500D01*
X384497D01*
X385031Y219033D01*
Y221166D01*
X384497Y221699D01*
X382898D01*
X392801Y243500D02*
X395467D01*
X396000Y244033D01*
Y245099D01*
X395467Y245633D01*
X392801D01*
X393334Y248832D02*
X392801Y248299D01*
Y247232D01*
X393334Y246699D01*
X393867D01*
X394401Y247232D01*
Y248299D01*
X394934Y248832D01*
X395467D01*
X396000Y248299D01*
Y247232D01*
X395467Y246699D01*
X396000Y249898D02*
X393867D01*
X392801Y250964D01*
X393867Y252031D01*
X396000D01*
X394401D01*
Y249898D01*
X396000Y253097D02*
X392801D01*
Y254696D01*
X393334Y255230D01*
X394401D01*
X394934Y254696D01*
Y253097D01*
Y254163D02*
X396000Y255230D01*
X392801Y256296D02*
Y258429D01*
Y257362D01*
X396000D01*
X396533Y259495D02*
Y261628D01*
X396000Y262694D02*
X392801D01*
Y264293D01*
X393334Y264826D01*
X394401D01*
X394934Y264293D01*
Y262694D01*
Y263760D02*
X396000Y264826D01*
X392801Y265893D02*
X396000Y268025D01*
X392801D02*
X396000Y265893D01*
X403301Y243500D02*
X405967D01*
X406500Y244033D01*
Y245099D01*
X405967Y245633D01*
X403301D01*
X403834Y248832D02*
X403301Y248299D01*
Y247232D01*
X403834Y246699D01*
X404367D01*
X404901Y247232D01*
Y248299D01*
X405434Y248832D01*
X405967D01*
X406500Y248299D01*
Y247232D01*
X405967Y246699D01*
X406500Y249898D02*
X404367D01*
X403301Y250964D01*
X404367Y252031D01*
X406500D01*
X404901D01*
Y249898D01*
X406500Y253097D02*
X403301D01*
Y254696D01*
X403834Y255230D01*
X404901D01*
X405434Y254696D01*
Y253097D01*
Y254163D02*
X406500Y255230D01*
X403301Y256296D02*
Y258429D01*
Y257362D01*
X406500D01*
X407033Y259495D02*
Y261628D01*
X403301Y262694D02*
Y264826D01*
Y263760D01*
X406500D01*
X403301Y265893D02*
X406500Y268025D01*
X403301D02*
X406500Y265893D01*
X548000Y288699D02*
X549066D01*
X548533D01*
Y285500D01*
X548000D01*
X549066D01*
X552798D02*
X550666D01*
X552798Y287633D01*
Y288166D01*
X552265Y288699D01*
X551199D01*
X550666Y288166D01*
X555997D02*
X555464Y288699D01*
X554398D01*
X553865Y288166D01*
Y286033D01*
X554398Y285500D01*
X555464D01*
X555997Y286033D01*
X557064Y285500D02*
X558130D01*
X557597D01*
Y288699D01*
X557064Y288166D01*
X559729Y284967D02*
X561862D01*
X565061Y288166D02*
X564528Y288699D01*
X563462D01*
X562928Y288166D01*
Y287633D01*
X563462Y287100D01*
X564528D01*
X565061Y286566D01*
Y286033D01*
X564528Y285500D01*
X563462D01*
X562928Y286033D01*
X566127Y288699D02*
Y285500D01*
X567727D01*
X568260Y286033D01*
Y288166D01*
X567727Y288699D01*
X566127D01*
X569326Y285500D02*
Y287633D01*
X570393Y288699D01*
X571459Y287633D01*
Y285500D01*
Y287100D01*
X569326D01*
X548500Y299199D02*
X549566D01*
X549033D01*
Y296000D01*
X548500D01*
X549566D01*
X553298D02*
X551166D01*
X553298Y298133D01*
Y298666D01*
X552765Y299199D01*
X551699D01*
X551166Y298666D01*
X556497D02*
X555964Y299199D01*
X554898D01*
X554365Y298666D01*
Y296533D01*
X554898Y296000D01*
X555964D01*
X556497Y296533D01*
X557564Y296000D02*
X558630D01*
X558097D01*
Y299199D01*
X557564Y298666D01*
X560229Y295467D02*
X562362D01*
X565561Y298666D02*
X565028Y299199D01*
X563962D01*
X563428Y298666D01*
Y298133D01*
X563962Y297600D01*
X565028D01*
X565561Y297066D01*
Y296533D01*
X565028Y296000D01*
X563962D01*
X563428Y296533D01*
X568760Y298666D02*
X568227Y299199D01*
X567161D01*
X566628Y298666D01*
Y296533D01*
X567161Y296000D01*
X568227D01*
X568760Y296533D01*
X569827Y299199D02*
Y296000D01*
X571959D01*
X370166Y120500D02*
X370699Y119967D01*
Y118901D01*
X370166Y118367D01*
X369633D01*
X369099Y118901D01*
Y119434D01*
Y118901D01*
X368566Y118367D01*
X368033D01*
X367500Y118901D01*
Y119967D01*
X368033Y120500D01*
X370166Y117301D02*
X370699Y116768D01*
Y115701D01*
X370166Y115168D01*
X369633D01*
X369099Y115701D01*
X368566Y115168D01*
X368033D01*
X367500Y115701D01*
Y116768D01*
X368033Y117301D01*
X368566D01*
X369099Y116768D01*
X369633Y117301D01*
X370166D01*
X369099Y116768D02*
Y115701D01*
X360166Y120500D02*
X360699Y119967D01*
Y118901D01*
X360166Y118367D01*
X359633D01*
X359100Y118901D01*
Y119434D01*
Y118901D01*
X358566Y118367D01*
X358033D01*
X357500Y118901D01*
Y119967D01*
X358033Y120500D01*
X360699Y117301D02*
Y115168D01*
X360166D01*
X358033Y117301D01*
X357500D01*
Y317500D02*
Y316434D01*
Y316967D01*
X360699D01*
X360166Y317500D01*
X367500Y315367D02*
Y317500D01*
X369633Y315367D01*
X370166D01*
X370699Y315900D01*
Y316967D01*
X370166Y317500D01*
X390000Y173699D02*
Y170500D01*
X392133D01*
X393199Y173699D02*
Y170500D01*
X394798D01*
X395332Y171033D01*
Y173166D01*
X394798Y173699D01*
X393199D01*
X396398Y170500D02*
X397464D01*
X396931D01*
Y173699D01*
X396398Y173166D01*
X399064Y171566D02*
X401196D01*
X399064Y172633D02*
X401196D01*
X402263Y170500D02*
Y173699D01*
X403862D01*
X404395Y173166D01*
Y172099D01*
X403862Y171566D01*
X402263D01*
X407594Y173166D02*
X407061Y173699D01*
X405995D01*
X405462Y173166D01*
Y171033D01*
X405995Y170500D01*
X407061D01*
X407594Y171033D01*
Y172099D01*
X406528D01*
X409194Y170500D02*
X410260D01*
X410793Y171033D01*
Y172099D01*
X410260Y172633D01*
X409194D01*
X408661Y172099D01*
Y171033D01*
X409194Y170500D01*
X412393D02*
X413459D01*
X413992Y171033D01*
Y172099D01*
X413459Y172633D01*
X412393D01*
X411860Y172099D01*
Y171033D01*
X412393Y170500D01*
X417191Y173699D02*
Y170500D01*
X415592D01*
X415059Y171033D01*
Y172099D01*
X415592Y172633D01*
X417191D01*
X422000Y173166D02*
X422533Y173699D01*
X423599D01*
X424133Y173166D01*
Y172633D01*
X423599Y172099D01*
X423066D01*
X423599D01*
X424133Y171566D01*
Y171033D01*
X423599Y170500D01*
X422533D01*
X422000Y171033D01*
X425199Y170500D02*
Y171033D01*
X425732D01*
Y170500D01*
X425199D01*
X427865Y173166D02*
X428398Y173699D01*
X429464D01*
X429997Y173166D01*
Y172633D01*
X429464Y172099D01*
X428931D01*
X429464D01*
X429997Y171566D01*
Y171033D01*
X429464Y170500D01*
X428398D01*
X427865Y171033D01*
X431064Y172099D02*
X433196D01*
X434263Y170500D02*
X435862Y172099D01*
X434263Y173699D01*
X436929D02*
Y171566D01*
X437995Y170500D01*
X439061Y171566D01*
Y173699D01*
X440128D02*
Y170500D01*
X441727D01*
X442260Y171033D01*
Y173166D01*
X441727Y173699D01*
X440128D01*
X443327D02*
Y170500D01*
X444926D01*
X445459Y171033D01*
Y173166D01*
X444926Y173699D01*
X443327D01*
X446525Y172633D02*
X447059D01*
Y172099D01*
X446525D01*
Y172633D01*
Y171033D02*
X447059D01*
Y170500D01*
X446525D01*
Y171033D01*
X449191Y170500D02*
Y173699D01*
X450791D01*
X451324Y173166D01*
Y172099D01*
X450791Y171566D01*
X449191D01*
X450257D02*
X451324Y170500D01*
X452390Y173699D02*
X454523D01*
Y173166D01*
X452390Y171033D01*
Y170500D01*
X507666Y319367D02*
X508199Y319900D01*
Y320967D01*
X507666Y321500D01*
X507133D01*
X506600Y320967D01*
Y319900D01*
X506066Y319367D01*
X505533D01*
X505000Y319900D01*
Y320967D01*
X505533Y321500D01*
X508199Y318301D02*
X505000D01*
X506066Y317235D01*
X505000Y316168D01*
X508199D01*
Y313503D02*
Y314569D01*
X507666Y315102D01*
X505533D01*
X505000Y314569D01*
Y313503D01*
X505533Y312969D01*
X507666D01*
X508199Y313503D01*
X494500Y323500D02*
X497699D01*
X494500Y321367D01*
X497699D01*
X494500Y320301D02*
X497699D01*
Y318702D01*
X497166Y318168D01*
X496100D01*
X495566Y318702D01*
Y320301D01*
Y319235D02*
X494500Y318168D01*
X497166Y314969D02*
X497699Y315503D01*
Y316569D01*
X497166Y317102D01*
X496633D01*
X496100Y316569D01*
Y315503D01*
X495566Y314969D01*
X495033D01*
X494500Y315503D01*
Y316569D01*
X495033Y317102D01*
X497699Y313903D02*
Y311770D01*
Y312837D01*
X494500D01*
X487699Y321000D02*
Y318867D01*
Y319934D01*
X484500D01*
Y317801D02*
X487699D01*
X486633Y316735D01*
X487699Y315668D01*
X484500D01*
X487166Y312469D02*
X487699Y313003D01*
Y314069D01*
X487166Y314602D01*
X486633D01*
X486099Y314069D01*
Y313003D01*
X485566Y312469D01*
X485033D01*
X484500Y313003D01*
Y314069D01*
X485033Y314602D01*
X476666Y318867D02*
X477199Y319401D01*
Y320467D01*
X476666Y321000D01*
X474533D01*
X474000Y320467D01*
Y319401D01*
X474533Y318867D01*
X475599D01*
Y319934D01*
X474000Y317801D02*
X477199D01*
X474000Y315668D01*
X477199D01*
Y314602D02*
X474000D01*
Y313003D01*
X474533Y312469D01*
X476666D01*
X477199Y313003D01*
Y314602D01*
X467699Y321000D02*
Y318867D01*
Y319934D01*
X464500D01*
X467166Y315668D02*
X467699Y316201D01*
Y317268D01*
X467166Y317801D01*
X465033D01*
X464500Y317268D01*
Y316201D01*
X465033Y315668D01*
X467699Y314602D02*
X464500D01*
X465566D01*
X467699Y312469D01*
X466100Y314069D01*
X464500Y312469D01*
X457699Y321000D02*
X455566D01*
X454500Y319934D01*
X455566Y318867D01*
X457699D01*
Y317801D02*
X454500D01*
Y316201D01*
X455033Y315668D01*
X457166D01*
X457699Y316201D01*
Y317801D01*
Y314602D02*
X454500D01*
Y313003D01*
X455033Y312469D01*
X457166D01*
X457699Y313003D01*
Y314602D01*
X466500Y252199D02*
Y249533D01*
X467033Y249000D01*
X468099D01*
X468633Y249533D01*
Y252199D01*
X471832Y249000D02*
X469699D01*
X471832Y251133D01*
Y251666D01*
X471298Y252199D01*
X470232D01*
X469699Y251666D01*
X445666Y288867D02*
X446199Y289401D01*
Y290467D01*
X445666Y291000D01*
X443533D01*
X443000Y290467D01*
Y289401D01*
X443533Y288867D01*
X443000Y287801D02*
Y286735D01*
Y287268D01*
X446199D01*
X445666Y287801D01*
Y285135D02*
X446199Y284602D01*
Y283536D01*
X445666Y283003D01*
X443533D01*
X443000Y283536D01*
Y284602D01*
X443533Y285135D01*
X445666D01*
X510500Y295000D02*
Y298199D01*
X512100D01*
X512633Y297666D01*
Y296600D01*
X512100Y296066D01*
X510500D01*
X511566D02*
X512633Y295000D01*
X513699D02*
X514765D01*
X514232D01*
Y298199D01*
X513699Y297666D01*
X516365D02*
X516898Y298199D01*
X517964D01*
X518497Y297666D01*
Y297133D01*
X517964Y296600D01*
X517431D01*
X517964D01*
X518497Y296066D01*
Y295533D01*
X517964Y295000D01*
X516898D01*
X516365Y295533D01*
X390500Y222699D02*
Y219500D01*
X392099D01*
X392633Y220033D01*
Y222166D01*
X392099Y222699D01*
X390500D01*
X393699Y219500D02*
X394765D01*
X394232D01*
Y222699D01*
X393699Y222166D01*
X396500Y135199D02*
Y132000D01*
X398099D01*
X398633Y132533D01*
Y133066D01*
X398099Y133599D01*
X396500D01*
X398099D01*
X398633Y134133D01*
Y134666D01*
X398099Y135199D01*
X396500D01*
X401832Y132000D02*
X399699D01*
X401832Y134133D01*
Y134666D01*
X401299Y135199D01*
X400232D01*
X399699Y134666D01*
X406756Y293943D02*
Y290744D01*
X408355D01*
X408888Y291277D01*
Y291810D01*
X408355Y292344D01*
X406756D01*
X408355D01*
X408888Y292877D01*
Y293410D01*
X408355Y293943D01*
X406756D01*
X409955Y290744D02*
X411021D01*
X410488D01*
Y293943D01*
X409955Y293410D01*
X449524Y288476D02*
Y291675D01*
X451123D01*
X451656Y291142D01*
Y290076D01*
X451123Y289543D01*
X449524D01*
X450590D02*
X451656Y288476D01*
X452723D02*
X453789D01*
X453256D01*
Y291675D01*
X452723Y291142D01*
X455388Y288476D02*
X456455D01*
X455922D01*
Y291675D01*
X455388Y291142D01*
X414666Y238367D02*
X415199Y238900D01*
Y239967D01*
X414666Y240500D01*
X412533D01*
X412000Y239967D01*
Y238900D01*
X412533Y238367D01*
X412000Y237301D02*
X415199D01*
X412000Y235168D01*
X415199D01*
Y231969D02*
Y234102D01*
X413599D01*
X414133Y233036D01*
Y232503D01*
X413599Y231969D01*
X412533D01*
X412000Y232503D01*
Y233569D01*
X412533Y234102D01*
X576833Y308166D02*
X576299Y308699D01*
X575233D01*
X574700Y308166D01*
Y306033D01*
X575233Y305500D01*
X576299D01*
X576833Y306033D01*
X577899Y305500D02*
Y308699D01*
X580032Y305500D01*
Y308699D01*
X582697Y305500D02*
Y308699D01*
X581098Y307100D01*
X583231D01*
X412500Y225199D02*
Y222533D01*
X413033Y222000D01*
X414100D01*
X414633Y222533D01*
Y225199D01*
X415699Y222000D02*
X416765D01*
X416232D01*
Y225199D01*
X415699Y224666D01*
X512500Y185652D02*
Y182453D01*
X514633D01*
X515699D02*
X516765D01*
X516232D01*
Y185652D01*
X515699Y185119D01*
X469500Y294000D02*
X472699D01*
Y292401D01*
X472166Y291867D01*
X471100D01*
X470566Y292401D01*
Y294000D01*
Y292934D02*
X469500Y291867D01*
Y290801D02*
Y289735D01*
Y290268D01*
X472699D01*
X472166Y290801D01*
Y288135D02*
X472699Y287602D01*
Y286536D01*
X472166Y286003D01*
X470033D01*
X469500Y286536D01*
Y287602D01*
X470033Y288135D01*
X472166D01*
X479000Y287500D02*
Y290699D01*
X480599D01*
X481133Y290166D01*
Y289100D01*
X480599Y288566D01*
X479000D01*
X480066D02*
X481133Y287500D01*
X482199Y288033D02*
X482732Y287500D01*
X483798D01*
X484332Y288033D01*
Y290166D01*
X483798Y290699D01*
X482732D01*
X482199Y290166D01*
Y289633D01*
X482732Y289100D01*
X484332D01*
X492500Y286500D02*
X489301D01*
Y288100D01*
X489834Y288633D01*
X490901D01*
X491434Y288100D01*
Y286500D01*
Y287566D02*
X492500Y288633D01*
X489834Y289699D02*
X489301Y290232D01*
Y291299D01*
X489834Y291832D01*
X490367D01*
X490901Y291299D01*
X491434Y291832D01*
X491967D01*
X492500Y291299D01*
Y290232D01*
X491967Y289699D01*
X491434D01*
X490901Y290232D01*
X490367Y289699D01*
X489834D01*
X490901Y290232D02*
Y291299D01*
X437500Y176500D02*
Y179699D01*
X439100D01*
X439633Y179166D01*
Y178100D01*
X439100Y177566D01*
X437500D01*
X438566D02*
X439633Y176500D01*
X440699Y179699D02*
X442832D01*
Y179166D01*
X440699Y177033D01*
Y176500D01*
X433500Y140500D02*
X436699D01*
Y138900D01*
X436166Y138367D01*
X435100D01*
X434566Y138900D01*
Y140500D01*
Y139434D02*
X433500Y138367D01*
X436699Y135168D02*
X436166Y136235D01*
X435100Y137301D01*
X434033D01*
X433500Y136768D01*
Y135702D01*
X434033Y135168D01*
X434566D01*
X435100Y135702D01*
Y137301D01*
X436500Y158000D02*
Y161199D01*
X438099D01*
X438633Y160666D01*
Y159599D01*
X438099Y159066D01*
X436500D01*
X437566D02*
X438633Y158000D01*
X441832Y161199D02*
X439699D01*
Y159599D01*
X440765Y160133D01*
X441298D01*
X441832Y159599D01*
Y158533D01*
X441298Y158000D01*
X440232D01*
X439699Y158533D01*
X449500Y224500D02*
Y227699D01*
X451099D01*
X451633Y227166D01*
Y226099D01*
X451099Y225566D01*
X449500D01*
X450566D02*
X451633Y224500D01*
X454298D02*
Y227699D01*
X452699Y226099D01*
X454832D01*
X493500Y162047D02*
Y165246D01*
X495099D01*
X495633Y164713D01*
Y163647D01*
X495099Y163114D01*
X493500D01*
X494566D02*
X495633Y162047D01*
X498832D02*
X496699D01*
X498832Y164180D01*
Y164713D01*
X498299Y165246D01*
X497232D01*
X496699Y164713D01*
X420744Y176500D02*
Y179699D01*
X422344D01*
X422877Y179166D01*
Y178100D01*
X422344Y177566D01*
X420744D01*
X421810D02*
X422877Y176500D01*
X423943D02*
X425009D01*
X424476D01*
Y179699D01*
X423943Y179166D01*
X403000Y179699D02*
Y176500D01*
X405133D01*
X406199Y179699D02*
Y176500D01*
X407798D01*
X408332Y177033D01*
Y179166D01*
X407798Y179699D01*
X406199D01*
X409398Y176500D02*
X410464D01*
X409931D01*
Y179699D01*
X409398Y179166D01*
X444633Y315666D02*
X444100Y316199D01*
X443033D01*
X442500Y315666D01*
Y313533D01*
X443033Y313000D01*
X444100D01*
X444633Y313533D01*
X445699Y313000D02*
Y316199D01*
X447832Y313000D01*
Y316199D01*
X448898Y315666D02*
X449431Y316199D01*
X450497D01*
X451031Y315666D01*
Y315133D01*
X450497Y314599D01*
X449964D01*
X450497D01*
X451031Y314066D01*
Y313533D01*
X450497Y313000D01*
X449431D01*
X448898Y313533D01*
X586133Y317166D02*
X585600Y317699D01*
X584533D01*
X584000Y317166D01*
Y315033D01*
X584533Y314500D01*
X585600D01*
X586133Y315033D01*
X587199Y314500D02*
Y317699D01*
X589332Y314500D01*
Y317699D01*
X592531Y314500D02*
X590398D01*
X592531Y316633D01*
Y317166D01*
X591997Y317699D01*
X590931D01*
X590398Y317166D01*
X377633Y318166D02*
X377099Y318699D01*
X376033D01*
X375500Y318166D01*
Y316033D01*
X376033Y315500D01*
X377099D01*
X377633Y316033D01*
X378699Y315500D02*
Y318699D01*
X380832Y315500D01*
Y318699D01*
X381898Y315500D02*
X382964D01*
X382431D01*
Y318699D01*
X381898Y318166D01*
X427633Y160666D02*
X427100Y161199D01*
X426033D01*
X425500Y160666D01*
Y158533D01*
X426033Y158000D01*
X427100D01*
X427633Y158533D01*
X428699Y158000D02*
X429765D01*
X429232D01*
Y161199D01*
X428699Y160666D01*
X433497Y158000D02*
X431365D01*
X433497Y160133D01*
Y160666D01*
X432964Y161199D01*
X431898D01*
X431365Y160666D01*
X538633Y223666D02*
X538099Y224199D01*
X537033D01*
X536500Y223666D01*
Y221533D01*
X537033Y221000D01*
X538099D01*
X538633Y221533D01*
X539699Y221000D02*
X540765D01*
X540232D01*
Y224199D01*
X539699Y223666D01*
X542365Y221000D02*
X543431D01*
X542898D01*
Y224199D01*
X542365Y223666D01*
X468633Y269666D02*
X468099Y270199D01*
X467033D01*
X466500Y269666D01*
Y267533D01*
X467033Y267000D01*
X468099D01*
X468633Y267533D01*
X469699D02*
X470232Y267000D01*
X471298D01*
X471832Y267533D01*
Y269666D01*
X471298Y270199D01*
X470232D01*
X469699Y269666D01*
Y269133D01*
X470232Y268600D01*
X471832D01*
X456133Y215166D02*
X455599Y215699D01*
X454533D01*
X454000Y215166D01*
Y213033D01*
X454533Y212500D01*
X455599D01*
X456133Y213033D01*
X457199Y215166D02*
X457732Y215699D01*
X458798D01*
X459332Y215166D01*
Y214633D01*
X458798Y214100D01*
X459332Y213566D01*
Y213033D01*
X458798Y212500D01*
X457732D01*
X457199Y213033D01*
Y213566D01*
X457732Y214100D01*
X457199Y214633D01*
Y215166D01*
X457732Y214100D02*
X458798D01*
X495633Y180166D02*
X495099Y180699D01*
X494033D01*
X493500Y180166D01*
Y178033D01*
X494033Y177500D01*
X495099D01*
X495633Y178033D01*
X496699Y180699D02*
X498832D01*
Y180166D01*
X496699Y178033D01*
Y177500D01*
X449133Y179666D02*
X448599Y180199D01*
X447533D01*
X447000Y179666D01*
Y177533D01*
X447533Y177000D01*
X448599D01*
X449133Y177533D01*
X452332Y180199D02*
X451265Y179666D01*
X450199Y178600D01*
Y177533D01*
X450732Y177000D01*
X451798D01*
X452332Y177533D01*
Y178066D01*
X451798Y178600D01*
X450199D01*
X550633Y244166D02*
X550100Y244699D01*
X549033D01*
X548500Y244166D01*
Y242033D01*
X549033Y241500D01*
X550100D01*
X550633Y242033D01*
X553832Y244699D02*
X551699D01*
Y243099D01*
X552765Y243633D01*
X553298D01*
X553832Y243099D01*
Y242033D01*
X553298Y241500D01*
X552232D01*
X551699Y242033D01*
X563133Y244166D02*
X562600Y244699D01*
X561533D01*
X561000Y244166D01*
Y242033D01*
X561533Y241500D01*
X562600D01*
X563133Y242033D01*
X565798Y241500D02*
Y244699D01*
X564199Y243099D01*
X566332D01*
X467633Y192666D02*
X467100Y193199D01*
X466033D01*
X465500Y192666D01*
Y190533D01*
X466033Y190000D01*
X467100D01*
X467633Y190533D01*
X468699Y192666D02*
X469232Y193199D01*
X470298D01*
X470832Y192666D01*
Y192133D01*
X470298Y191600D01*
X469765D01*
X470298D01*
X470832Y191066D01*
Y190533D01*
X470298Y190000D01*
X469232D01*
X468699Y190533D01*
X432633Y233166D02*
X432099Y233699D01*
X431033D01*
X430500Y233166D01*
Y231033D01*
X431033Y230500D01*
X432099D01*
X432633Y231033D01*
X435832Y230500D02*
X433699D01*
X435832Y232633D01*
Y233166D01*
X435298Y233699D01*
X434232D01*
X433699Y233166D01*
X400633Y208666D02*
X400100Y209199D01*
X399033D01*
X398500Y208666D01*
Y206533D01*
X399033Y206000D01*
X400100D01*
X400633Y206533D01*
X401699Y206000D02*
X402765D01*
X402232D01*
Y209199D01*
X401699Y208666D01*
D11*
X384579Y193386D02*
G03*
X384579Y193386I-492J0D01*
G01*
X412976Y219689D02*
G03*
X412976Y219689I-492J0D01*
G01*
D12*
X507378Y290213D02*
Y291787D01*
X504622Y290213D02*
Y291787D01*
X383791Y195945D02*
Y214055D01*
X395209Y195945D02*
Y214055D01*
X383791Y195945D02*
X384677D01*
X383791Y214055D02*
X384677D01*
X394323Y195945D02*
X395209D01*
X394323Y214055D02*
X395209D01*
X594500Y122500D02*
X614500D01*
X594500Y312500D02*
X614500D01*
Y122500D02*
Y312500D01*
X594500Y122500D02*
Y312500D01*
X452213Y294122D02*
X453787D01*
X452213Y296878D02*
X453787D01*
X451713Y219622D02*
X453287D01*
X451713Y222378D02*
X453287D01*
X409500Y231000D02*
Y241000D01*
X389500Y231000D02*
X409500D01*
X389500D02*
Y241000D01*
X409500D01*
X574500Y282500D02*
X584500D01*
X574500D02*
Y302500D01*
X584500D01*
Y282500D02*
Y302500D01*
X504378Y162760D02*
Y164335D01*
X501622Y162760D02*
Y164335D01*
X354500Y122500D02*
X374500D01*
X354500Y312500D02*
X374500D01*
Y122500D02*
Y312500D01*
X354500Y122500D02*
Y312500D01*
X437622Y148713D02*
Y150287D01*
X440378Y148713D02*
Y150287D01*
X431378Y136713D02*
Y138287D01*
X428622Y136713D02*
Y138287D01*
X513122Y175213D02*
Y176787D01*
X515878Y175213D02*
Y176787D01*
X417898Y193311D02*
X430102D01*
X417898Y219689D02*
X430102D01*
Y193311D02*
Y219689D01*
X417898Y193311D02*
Y219689D01*
X421713Y185378D02*
X423287D01*
X421713Y182622D02*
X423287D01*
X437713Y182622D02*
X439287D01*
X437713Y185378D02*
X439287D01*
X511000Y300000D02*
Y310000D01*
X451000Y300000D02*
Y310000D01*
X511000D01*
X451000Y300000D02*
X511000D01*
X497378Y288760D02*
Y290335D01*
X494622Y288760D02*
Y290335D01*
X482213Y292622D02*
X483787D01*
X482213Y295378D02*
X483787D01*
X467378Y288713D02*
Y290287D01*
X464622Y288713D02*
Y290287D01*
D13*
X400504Y182425D02*
Y185574D01*
M02*
