G04*
G04 #@! TF.GenerationSoftware,Altium Limited,Altium Designer,19.1.8 (144)*
G04*
G04 Layer_Physical_Order=2*
G04 Layer_Color=16711680*
%FSLAX25Y25*%
%MOIN*%
G70*
G01*
G75*
%ADD10C,0.00600*%
%ADD43C,0.00800*%
%ADD45C,0.02500*%
%ADD48R,0.05906X0.05906*%
%ADD49C,0.05906*%
%ADD50R,0.05906X0.05906*%
%ADD51C,0.02000*%
%ADD52C,0.05000*%
G36*
X620000Y113000D02*
X350000D01*
Y325000D01*
X620000D01*
Y113000D01*
D02*
G37*
%LPC*%
G36*
X476500Y308921D02*
Y305500D01*
X479921D01*
X479851Y306032D01*
X479453Y306993D01*
X478819Y307819D01*
X477993Y308453D01*
X477032Y308851D01*
X476500Y308921D01*
D02*
G37*
G36*
X475500D02*
X474968Y308851D01*
X474007Y308453D01*
X473181Y307819D01*
X472547Y306993D01*
X472149Y306032D01*
X472079Y305500D01*
X475500D01*
Y308921D01*
D02*
G37*
G36*
X603153Y311153D02*
X595847D01*
Y303847D01*
X603153D01*
Y311153D01*
D02*
G37*
G36*
X363153D02*
X355847D01*
Y303847D01*
X363153D01*
Y311153D01*
D02*
G37*
G36*
X609500Y311184D02*
X608546Y311059D01*
X607658Y310691D01*
X606895Y310105D01*
X606309Y309342D01*
X605941Y308454D01*
X605816Y307500D01*
X605941Y306546D01*
X606309Y305658D01*
X606895Y304895D01*
X607658Y304309D01*
X608546Y303941D01*
X609500Y303816D01*
X610454Y303941D01*
X611342Y304309D01*
X612105Y304895D01*
X612691Y305658D01*
X613059Y306546D01*
X613184Y307500D01*
X613059Y308454D01*
X612691Y309342D01*
X612105Y310105D01*
X611342Y310691D01*
X610454Y311059D01*
X609500Y311184D01*
D02*
G37*
G36*
X369500D02*
X368546Y311059D01*
X367658Y310691D01*
X366895Y310105D01*
X366309Y309342D01*
X365941Y308454D01*
X365816Y307500D01*
X365941Y306546D01*
X366309Y305658D01*
X366895Y304895D01*
X367658Y304309D01*
X368546Y303941D01*
X369500Y303816D01*
X370454Y303941D01*
X371342Y304309D01*
X372105Y304895D01*
X372691Y305658D01*
X373059Y306546D01*
X373184Y307500D01*
X373059Y308454D01*
X372691Y309342D01*
X372105Y310105D01*
X371342Y310691D01*
X370454Y311059D01*
X369500Y311184D01*
D02*
G37*
G36*
X459653Y308653D02*
X452347D01*
Y301347D01*
X459653D01*
Y308653D01*
D02*
G37*
G36*
X506000Y308684D02*
X505046Y308559D01*
X504158Y308191D01*
X503395Y307605D01*
X502809Y306842D01*
X502441Y305954D01*
X502316Y305000D01*
X502441Y304046D01*
X502809Y303158D01*
X503395Y302395D01*
X504158Y301809D01*
X505046Y301441D01*
X506000Y301316D01*
X506954Y301441D01*
X507842Y301809D01*
X508605Y302395D01*
X509191Y303158D01*
X509559Y304046D01*
X509684Y305000D01*
X509559Y305954D01*
X509191Y306842D01*
X508605Y307605D01*
X507842Y308191D01*
X506954Y308559D01*
X506000Y308684D01*
D02*
G37*
G36*
X496000D02*
X495046Y308559D01*
X494158Y308191D01*
X493395Y307605D01*
X492809Y306842D01*
X492441Y305954D01*
X492316Y305000D01*
X492441Y304046D01*
X492809Y303158D01*
X493395Y302395D01*
X494158Y301809D01*
X495046Y301441D01*
X496000Y301316D01*
X496954Y301441D01*
X497842Y301809D01*
X498605Y302395D01*
X499191Y303158D01*
X499559Y304046D01*
X499684Y305000D01*
X499559Y305954D01*
X499191Y306842D01*
X498605Y307605D01*
X497842Y308191D01*
X496954Y308559D01*
X496000Y308684D01*
D02*
G37*
G36*
X486000D02*
X485046Y308559D01*
X484158Y308191D01*
X483395Y307605D01*
X482809Y306842D01*
X482441Y305954D01*
X482316Y305000D01*
X482441Y304046D01*
X482809Y303158D01*
X483395Y302395D01*
X484158Y301809D01*
X485046Y301441D01*
X486000Y301316D01*
X486954Y301441D01*
X487842Y301809D01*
X488605Y302395D01*
X489191Y303158D01*
X489559Y304046D01*
X489684Y305000D01*
X489559Y305954D01*
X489191Y306842D01*
X488605Y307605D01*
X487842Y308191D01*
X486954Y308559D01*
X486000Y308684D01*
D02*
G37*
G36*
X466000D02*
X465046Y308559D01*
X464158Y308191D01*
X463395Y307605D01*
X462809Y306842D01*
X462441Y305954D01*
X462316Y305000D01*
X462441Y304046D01*
X462809Y303158D01*
X463395Y302395D01*
X464158Y301809D01*
X465046Y301441D01*
X466000Y301316D01*
X466954Y301441D01*
X467842Y301809D01*
X468605Y302395D01*
X469191Y303158D01*
X469559Y304046D01*
X469684Y305000D01*
X469559Y305954D01*
X469191Y306842D01*
X468605Y307605D01*
X467842Y308191D01*
X466954Y308559D01*
X466000Y308684D01*
D02*
G37*
G36*
X479921Y304500D02*
X476500D01*
Y301079D01*
X477032Y301149D01*
X477993Y301547D01*
X478819Y302181D01*
X479453Y303007D01*
X479851Y303968D01*
X479921Y304500D01*
D02*
G37*
G36*
X475500D02*
X472079D01*
X472149Y303968D01*
X472547Y303007D01*
X473181Y302181D01*
X474007Y301547D01*
X474968Y301149D01*
X475500Y301079D01*
Y304500D01*
D02*
G37*
G36*
X409500Y303464D02*
Y300500D01*
X412464D01*
X412410Y300914D01*
X412057Y301765D01*
X411496Y302496D01*
X410765Y303057D01*
X409914Y303410D01*
X409500Y303464D01*
D02*
G37*
G36*
X408500D02*
X408086Y303410D01*
X407235Y303057D01*
X406504Y302496D01*
X405943Y301765D01*
X405590Y300914D01*
X405536Y300500D01*
X408500D01*
Y303464D01*
D02*
G37*
G36*
X412464Y299500D02*
X409500D01*
Y296536D01*
X409914Y296590D01*
X410765Y296943D01*
X411496Y297504D01*
X412057Y298235D01*
X412410Y299086D01*
X412464Y299500D01*
D02*
G37*
G36*
X408500D02*
X405536D01*
X405590Y299086D01*
X405943Y298235D01*
X406504Y297504D01*
X407235Y296943D01*
X408086Y296590D01*
X408500Y296536D01*
Y299500D01*
D02*
G37*
G36*
X440500Y297440D02*
Y296000D01*
X441940D01*
X441884Y296280D01*
X441442Y296942D01*
X440780Y297384D01*
X440500Y297440D01*
D02*
G37*
G36*
X439500D02*
X439220Y297384D01*
X438558Y296942D01*
X438116Y296280D01*
X438060Y296000D01*
X439500D01*
Y297440D01*
D02*
G37*
G36*
X583153Y301153D02*
X575847D01*
Y293847D01*
X583153D01*
Y301153D01*
D02*
G37*
G36*
X609500Y301184D02*
X608546Y301059D01*
X607658Y300691D01*
X606895Y300105D01*
X606309Y299342D01*
X605941Y298454D01*
X605816Y297500D01*
X605941Y296546D01*
X606309Y295658D01*
X606895Y294895D01*
X607658Y294309D01*
X608546Y293941D01*
X609500Y293816D01*
X610454Y293941D01*
X611342Y294309D01*
X612105Y294895D01*
X612691Y295658D01*
X613059Y296546D01*
X613184Y297500D01*
X613059Y298454D01*
X612691Y299342D01*
X612105Y300105D01*
X611342Y300691D01*
X610454Y301059D01*
X609500Y301184D01*
D02*
G37*
G36*
X599500D02*
X598546Y301059D01*
X597658Y300691D01*
X596895Y300105D01*
X596309Y299342D01*
X595941Y298454D01*
X595816Y297500D01*
X595941Y296546D01*
X596309Y295658D01*
X596895Y294895D01*
X597658Y294309D01*
X598546Y293941D01*
X599500Y293816D01*
X600454Y293941D01*
X601342Y294309D01*
X602105Y294895D01*
X602691Y295658D01*
X603059Y296546D01*
X603184Y297500D01*
X603059Y298454D01*
X602691Y299342D01*
X602105Y300105D01*
X601342Y300691D01*
X600454Y301059D01*
X599500Y301184D01*
D02*
G37*
G36*
X369500D02*
X368546Y301059D01*
X367658Y300691D01*
X366895Y300105D01*
X366309Y299342D01*
X365941Y298454D01*
X365816Y297500D01*
X365941Y296546D01*
X366309Y295658D01*
X366895Y294895D01*
X367658Y294309D01*
X368546Y293941D01*
X369500Y293816D01*
X370454Y293941D01*
X371342Y294309D01*
X372105Y294895D01*
X372691Y295658D01*
X373059Y296546D01*
X373184Y297500D01*
X373059Y298454D01*
X372691Y299342D01*
X372105Y300105D01*
X371342Y300691D01*
X370454Y301059D01*
X369500Y301184D01*
D02*
G37*
G36*
X359500D02*
X358546Y301059D01*
X357658Y300691D01*
X356895Y300105D01*
X356309Y299342D01*
X355941Y298454D01*
X355816Y297500D01*
X355941Y296546D01*
X356309Y295658D01*
X356895Y294895D01*
X357658Y294309D01*
X358546Y293941D01*
X359500Y293816D01*
X360454Y293941D01*
X361342Y294309D01*
X362105Y294895D01*
X362691Y295658D01*
X363059Y296546D01*
X363184Y297500D01*
X363059Y298454D01*
X362691Y299342D01*
X362105Y300105D01*
X361342Y300691D01*
X360454Y301059D01*
X359500Y301184D01*
D02*
G37*
G36*
X441940Y295000D02*
X440500D01*
Y293560D01*
X440780Y293616D01*
X441442Y294058D01*
X441884Y294720D01*
X441940Y295000D01*
D02*
G37*
G36*
X439500D02*
X438060D01*
X438116Y294720D01*
X438558Y294058D01*
X439220Y293616D01*
X439500Y293560D01*
Y295000D01*
D02*
G37*
G36*
X476500Y289440D02*
Y288000D01*
X477940D01*
X477884Y288280D01*
X477442Y288942D01*
X476780Y289384D01*
X476500Y289440D01*
D02*
G37*
G36*
X475500D02*
X475220Y289384D01*
X474558Y288942D01*
X474116Y288280D01*
X474060Y288000D01*
X475500D01*
Y289440D01*
D02*
G37*
G36*
X477940Y287000D02*
X476500D01*
Y285560D01*
X476780Y285616D01*
X477442Y286058D01*
X477884Y286720D01*
X477940Y287000D01*
D02*
G37*
G36*
X475500D02*
X474060D01*
X474116Y286720D01*
X474558Y286058D01*
X475220Y285616D01*
X475500Y285560D01*
Y287000D01*
D02*
G37*
G36*
X500000Y284733D02*
X499337Y284601D01*
X498774Y284226D01*
X498705Y284121D01*
X474295D01*
X474226Y284226D01*
X473663Y284601D01*
X473000Y284733D01*
X472337Y284601D01*
X471774Y284226D01*
X471399Y283663D01*
X471267Y283000D01*
X471399Y282337D01*
X471774Y281774D01*
X472337Y281399D01*
X473000Y281267D01*
X473663Y281399D01*
X474226Y281774D01*
X474295Y281878D01*
X498705D01*
X498774Y281774D01*
X499337Y281399D01*
X500000Y281267D01*
X500663Y281399D01*
X501226Y281774D01*
X501601Y282337D01*
X501733Y283000D01*
X501601Y283663D01*
X501226Y284226D01*
X500663Y284601D01*
X500000Y284733D01*
D02*
G37*
G36*
X609500Y291184D02*
X608546Y291059D01*
X607658Y290691D01*
X606895Y290105D01*
X606309Y289342D01*
X605941Y288454D01*
X605816Y287500D01*
X605941Y286546D01*
X606309Y285658D01*
X606895Y284895D01*
X607658Y284309D01*
X608546Y283941D01*
X609500Y283816D01*
X610454Y283941D01*
X611342Y284309D01*
X612105Y284895D01*
X612691Y285658D01*
X613059Y286546D01*
X613184Y287500D01*
X613059Y288454D01*
X612691Y289342D01*
X612105Y290105D01*
X611342Y290691D01*
X610454Y291059D01*
X609500Y291184D01*
D02*
G37*
G36*
X599500D02*
X598546Y291059D01*
X597658Y290691D01*
X596895Y290105D01*
X596309Y289342D01*
X595941Y288454D01*
X595816Y287500D01*
X595941Y286546D01*
X596309Y285658D01*
X596895Y284895D01*
X597658Y284309D01*
X598546Y283941D01*
X599500Y283816D01*
X600454Y283941D01*
X601342Y284309D01*
X602105Y284895D01*
X602691Y285658D01*
X603059Y286546D01*
X603184Y287500D01*
X603059Y288454D01*
X602691Y289342D01*
X602105Y290105D01*
X601342Y290691D01*
X600454Y291059D01*
X599500Y291184D01*
D02*
G37*
G36*
X579500D02*
X578546Y291059D01*
X577658Y290691D01*
X576895Y290105D01*
X576309Y289342D01*
X575941Y288454D01*
X575816Y287500D01*
X575941Y286546D01*
X576309Y285658D01*
X576895Y284895D01*
X577658Y284309D01*
X578546Y283941D01*
X579500Y283816D01*
X580454Y283941D01*
X581342Y284309D01*
X582105Y284895D01*
X582691Y285658D01*
X583059Y286546D01*
X583184Y287500D01*
X583059Y288454D01*
X582691Y289342D01*
X582105Y290105D01*
X581342Y290691D01*
X580454Y291059D01*
X579500Y291184D01*
D02*
G37*
G36*
X369500D02*
X368546Y291059D01*
X367658Y290691D01*
X366895Y290105D01*
X366309Y289342D01*
X365941Y288454D01*
X365816Y287500D01*
X365941Y286546D01*
X366309Y285658D01*
X366895Y284895D01*
X367658Y284309D01*
X368546Y283941D01*
X369500Y283816D01*
X370454Y283941D01*
X371342Y284309D01*
X372105Y284895D01*
X372691Y285658D01*
X373059Y286546D01*
X373184Y287500D01*
X373059Y288454D01*
X372691Y289342D01*
X372105Y290105D01*
X371342Y290691D01*
X370454Y291059D01*
X369500Y291184D01*
D02*
G37*
G36*
X359500D02*
X358546Y291059D01*
X357658Y290691D01*
X356895Y290105D01*
X356309Y289342D01*
X355941Y288454D01*
X355816Y287500D01*
X355941Y286546D01*
X356309Y285658D01*
X356895Y284895D01*
X357658Y284309D01*
X358546Y283941D01*
X359500Y283816D01*
X360454Y283941D01*
X361342Y284309D01*
X362105Y284895D01*
X362691Y285658D01*
X363059Y286546D01*
X363184Y287500D01*
X363059Y288454D01*
X362691Y289342D01*
X362105Y290105D01*
X361342Y290691D01*
X360454Y291059D01*
X359500Y291184D01*
D02*
G37*
G36*
X453000Y284440D02*
Y283000D01*
X454440D01*
X454384Y283280D01*
X453942Y283942D01*
X453280Y284384D01*
X453000Y284440D01*
D02*
G37*
G36*
X452000D02*
X451720Y284384D01*
X451058Y283942D01*
X450616Y283280D01*
X450560Y283000D01*
X452000D01*
Y284440D01*
D02*
G37*
G36*
X454440Y282000D02*
X450560D01*
X450616Y281720D01*
X451016Y281121D01*
X450942Y280785D01*
X450660Y280121D01*
X441295D01*
X441226Y280226D01*
X440663Y280601D01*
X440000Y280733D01*
X439337Y280601D01*
X438774Y280226D01*
X438399Y279663D01*
X438267Y279000D01*
X438399Y278337D01*
X438774Y277774D01*
X439337Y277399D01*
X440000Y277267D01*
X440663Y277399D01*
X441226Y277774D01*
X441295Y277878D01*
X450660D01*
X450942Y277215D01*
X451016Y276878D01*
X450616Y276280D01*
X450560Y276000D01*
X454440D01*
X454384Y276280D01*
X453984Y276878D01*
X454058Y277215D01*
X454340Y277878D01*
X461705D01*
X461774Y277774D01*
X462337Y277399D01*
X463000Y277267D01*
X463663Y277399D01*
X464226Y277774D01*
X464295Y277878D01*
X473658D01*
X474192Y276878D01*
X474116Y276765D01*
X474060Y276484D01*
X477940D01*
X477884Y276765D01*
X477808Y276878D01*
X478342Y277878D01*
X482705D01*
X482774Y277774D01*
X483337Y277399D01*
X484000Y277267D01*
X484663Y277399D01*
X485226Y277774D01*
X485601Y278337D01*
X485733Y279000D01*
X485601Y279663D01*
X485226Y280226D01*
X484663Y280601D01*
X484000Y280733D01*
X483337Y280601D01*
X482774Y280226D01*
X482705Y280121D01*
X464295D01*
X464226Y280226D01*
X463663Y280601D01*
X463000Y280733D01*
X462337Y280601D01*
X461774Y280226D01*
X461705Y280121D01*
X454340D01*
X454058Y280785D01*
X453984Y281121D01*
X454384Y281720D01*
X454440Y282000D01*
D02*
G37*
G36*
X534000Y278464D02*
Y275500D01*
X536964D01*
X536910Y275914D01*
X536557Y276765D01*
X535996Y277496D01*
X535265Y278057D01*
X534414Y278410D01*
X534000Y278464D01*
D02*
G37*
G36*
X533000D02*
X532586Y278410D01*
X531735Y278057D01*
X531004Y277496D01*
X530443Y276765D01*
X530090Y275914D01*
X530036Y275500D01*
X533000D01*
Y278464D01*
D02*
G37*
G36*
X477940Y275484D02*
X476500D01*
Y274044D01*
X476780Y274100D01*
X477442Y274542D01*
X477884Y275204D01*
X477940Y275484D01*
D02*
G37*
G36*
X475500D02*
X474060D01*
X474116Y275204D01*
X474558Y274542D01*
X475220Y274100D01*
X475500Y274044D01*
Y275484D01*
D02*
G37*
G36*
X609500Y281184D02*
X608546Y281059D01*
X607658Y280691D01*
X606895Y280105D01*
X606309Y279342D01*
X605941Y278454D01*
X605816Y277500D01*
X605941Y276546D01*
X606309Y275658D01*
X606895Y274895D01*
X607658Y274309D01*
X608546Y273941D01*
X609500Y273816D01*
X610454Y273941D01*
X611342Y274309D01*
X612105Y274895D01*
X612691Y275658D01*
X613059Y276546D01*
X613184Y277500D01*
X613059Y278454D01*
X612691Y279342D01*
X612105Y280105D01*
X611342Y280691D01*
X610454Y281059D01*
X609500Y281184D01*
D02*
G37*
G36*
X599500D02*
X598546Y281059D01*
X597658Y280691D01*
X596895Y280105D01*
X596309Y279342D01*
X595941Y278454D01*
X595816Y277500D01*
X595941Y276546D01*
X596309Y275658D01*
X596895Y274895D01*
X597658Y274309D01*
X598546Y273941D01*
X599500Y273816D01*
X600454Y273941D01*
X601342Y274309D01*
X602105Y274895D01*
X602691Y275658D01*
X603059Y276546D01*
X603184Y277500D01*
X603059Y278454D01*
X602691Y279342D01*
X602105Y280105D01*
X601342Y280691D01*
X600454Y281059D01*
X599500Y281184D01*
D02*
G37*
G36*
X369500D02*
X368546Y281059D01*
X367658Y280691D01*
X366895Y280105D01*
X366309Y279342D01*
X365941Y278454D01*
X365816Y277500D01*
X365941Y276546D01*
X366309Y275658D01*
X366895Y274895D01*
X367658Y274309D01*
X368546Y273941D01*
X369500Y273816D01*
X370454Y273941D01*
X371342Y274309D01*
X372105Y274895D01*
X372691Y275658D01*
X373059Y276546D01*
X373184Y277500D01*
X373059Y278454D01*
X372691Y279342D01*
X372105Y280105D01*
X371342Y280691D01*
X370454Y281059D01*
X369500Y281184D01*
D02*
G37*
G36*
X359500D02*
X358546Y281059D01*
X357658Y280691D01*
X356895Y280105D01*
X356309Y279342D01*
X355941Y278454D01*
X355816Y277500D01*
X355941Y276546D01*
X356309Y275658D01*
X356895Y274895D01*
X357658Y274309D01*
X358546Y273941D01*
X359500Y273816D01*
X360454Y273941D01*
X361342Y274309D01*
X362105Y274895D01*
X362691Y275658D01*
X363059Y276546D01*
X363184Y277500D01*
X363059Y278454D01*
X362691Y279342D01*
X362105Y280105D01*
X361342Y280691D01*
X360454Y281059D01*
X359500Y281184D01*
D02*
G37*
G36*
X454440Y275000D02*
X450560D01*
X450616Y274720D01*
X450682Y274622D01*
X450147Y273622D01*
X444295D01*
X444226Y273726D01*
X443663Y274101D01*
X443000Y274233D01*
X442337Y274101D01*
X441774Y273726D01*
X441399Y273163D01*
X441267Y272500D01*
X441289Y272386D01*
X441070Y272111D01*
X440416Y271651D01*
X440000Y271733D01*
X439337Y271601D01*
X438774Y271226D01*
X438399Y270663D01*
X438267Y270000D01*
X438399Y269337D01*
X438774Y268774D01*
X439337Y268399D01*
X440000Y268267D01*
X440416Y268350D01*
X440987Y267948D01*
X441224Y266915D01*
X440583Y266217D01*
X440500Y266233D01*
X439837Y266101D01*
X439274Y265726D01*
X438899Y265163D01*
X438767Y264500D01*
X438899Y263837D01*
X439274Y263274D01*
X439837Y262899D01*
X440500Y262767D01*
X440614Y262789D01*
X440889Y262570D01*
X441350Y261916D01*
X441267Y261500D01*
X441399Y260837D01*
X440637Y260176D01*
X440198Y260078D01*
X440163Y260101D01*
X439500Y260233D01*
X438837Y260101D01*
X438274Y259726D01*
X437899Y259163D01*
X437767Y258500D01*
X437899Y257837D01*
X438274Y257274D01*
X438837Y256899D01*
X439500Y256767D01*
X439916Y256850D01*
X440570Y256389D01*
X440789Y256114D01*
X440767Y256000D01*
X440899Y255337D01*
X441274Y254774D01*
X441837Y254399D01*
X442500Y254267D01*
X443163Y254399D01*
X443726Y254774D01*
X443863Y254980D01*
X473771D01*
X473899Y254337D01*
X474274Y253774D01*
X474656Y253520D01*
X474537Y252639D01*
X474489Y252520D01*
X440863D01*
X440726Y252726D01*
X440163Y253101D01*
X439500Y253233D01*
X438837Y253101D01*
X438274Y252726D01*
X437899Y252163D01*
X437767Y251500D01*
X437899Y250837D01*
X438274Y250274D01*
X438837Y249899D01*
X439500Y249767D01*
X440163Y249899D01*
X440726Y250274D01*
X440863Y250480D01*
X480173D01*
X480563Y250558D01*
X480894Y250779D01*
X480930Y250815D01*
X481173Y250767D01*
X481837Y250899D01*
X482399Y251274D01*
X482775Y251837D01*
X482906Y252500D01*
X482775Y253163D01*
X482399Y253726D01*
X481837Y254101D01*
X481173Y254233D01*
X480510Y254101D01*
X479948Y253726D01*
X479572Y253163D01*
X479444Y252520D01*
X476511D01*
X476464Y252639D01*
X476344Y253520D01*
X476726Y253774D01*
X477101Y254337D01*
X477233Y255000D01*
X477101Y255663D01*
X477047Y255744D01*
X477403Y256884D01*
X477723Y256975D01*
X477837Y256899D01*
X478500Y256767D01*
X479163Y256899D01*
X479726Y257274D01*
X480101Y257837D01*
X480233Y258500D01*
X480101Y259163D01*
X479726Y259726D01*
X479163Y260101D01*
X478500Y260233D01*
X477837Y260101D01*
X477274Y259726D01*
X477205Y259622D01*
X450412D01*
X449958Y260622D01*
X450101Y260837D01*
X450233Y261500D01*
X450101Y262163D01*
X449958Y262379D01*
X450412Y263379D01*
X452705D01*
X452774Y263274D01*
X453337Y262899D01*
X454000Y262767D01*
X454663Y262899D01*
X455226Y263274D01*
X455601Y263837D01*
X455733Y264500D01*
X455601Y265163D01*
X455390Y265480D01*
X455858Y266374D01*
X455885Y266401D01*
X456000Y266378D01*
X458705D01*
X458774Y266274D01*
X459337Y265899D01*
X460000Y265767D01*
X460663Y265899D01*
X461226Y266274D01*
X461601Y266837D01*
X461733Y267500D01*
X461601Y268163D01*
X461226Y268726D01*
X460663Y269101D01*
X460000Y269233D01*
X459337Y269101D01*
X458774Y268726D01*
X458705Y268621D01*
X456465D01*
X455181Y269905D01*
X455165Y270131D01*
X455505Y270996D01*
X456046Y271093D01*
X456337Y270899D01*
X457000Y270767D01*
X457663Y270899D01*
X458226Y271274D01*
X458601Y271837D01*
X458733Y272500D01*
X458601Y273163D01*
X458226Y273726D01*
X457663Y274101D01*
X457000Y274233D01*
X456337Y274101D01*
X455774Y273726D01*
X455771Y273721D01*
X454787Y273744D01*
X454318Y274622D01*
X454384Y274720D01*
X454440Y275000D01*
D02*
G37*
G36*
X536964Y274500D02*
X534000D01*
Y271536D01*
X534414Y271590D01*
X535265Y271943D01*
X535996Y272504D01*
X536557Y273235D01*
X536910Y274086D01*
X536964Y274500D01*
D02*
G37*
G36*
X533000D02*
X530036D01*
X530090Y274086D01*
X530443Y273235D01*
X531004Y272504D01*
X531735Y271943D01*
X532586Y271590D01*
X533000Y271536D01*
Y274500D01*
D02*
G37*
G36*
X600000Y271421D02*
Y268000D01*
X603421D01*
X603351Y268532D01*
X602953Y269493D01*
X602319Y270319D01*
X601493Y270953D01*
X600532Y271351D01*
X600000Y271421D01*
D02*
G37*
G36*
X599000D02*
X598468Y271351D01*
X597507Y270953D01*
X596681Y270319D01*
X596047Y269493D01*
X595649Y268532D01*
X595579Y268000D01*
X599000D01*
Y271421D01*
D02*
G37*
G36*
X496000Y275233D02*
X495337Y275101D01*
X494774Y274726D01*
X494399Y274163D01*
X494267Y273500D01*
X494399Y272837D01*
X494519Y272657D01*
X494359Y271730D01*
X494182Y271498D01*
X493774Y271226D01*
X493399Y270663D01*
X493267Y270000D01*
X493399Y269337D01*
X493774Y268774D01*
X494337Y268399D01*
X495000Y268267D01*
X495123Y268291D01*
X496666Y266748D01*
X496337Y265663D01*
X495992Y265595D01*
X494793Y266793D01*
X494429Y267036D01*
X494000Y267122D01*
X494000Y267122D01*
X493295D01*
X493226Y267226D01*
X492663Y267601D01*
X492000Y267733D01*
X491337Y267601D01*
X490774Y267226D01*
X490399Y266663D01*
X490267Y266000D01*
X490399Y265337D01*
X490774Y264774D01*
X491337Y264399D01*
X492000Y264267D01*
X492663Y264399D01*
X493226Y264774D01*
X494112Y264301D01*
X494792Y263621D01*
X494378Y262621D01*
X491795D01*
X491726Y262726D01*
X491163Y263101D01*
X490500Y263233D01*
X489837Y263101D01*
X489274Y262726D01*
X488899Y262163D01*
X488767Y261500D01*
X488899Y260837D01*
X489274Y260274D01*
X489837Y259899D01*
X490338Y259799D01*
X490522Y259123D01*
X490533Y258818D01*
X490032Y258484D01*
X489656Y257921D01*
X489525Y257258D01*
X489656Y256595D01*
X490032Y256032D01*
X490595Y255657D01*
X491258Y255525D01*
X491921Y255657D01*
X492484Y256032D01*
X492859Y256595D01*
X492991Y257258D01*
X492967Y257381D01*
X494065Y258478D01*
X495988D01*
X496442Y257478D01*
X496299Y257263D01*
X496167Y256600D01*
X496299Y255937D01*
X496674Y255374D01*
X496778Y255305D01*
Y219865D01*
X491589Y214675D01*
X490667Y215167D01*
X490733Y215500D01*
X490601Y216163D01*
X490226Y216726D01*
X490122Y216795D01*
Y224000D01*
X490122Y224000D01*
X490036Y224429D01*
X489793Y224793D01*
X489793Y224793D01*
X468693Y245893D01*
X468329Y246136D01*
X467900Y246222D01*
X467900Y246221D01*
X465865D01*
X464709Y247377D01*
X464733Y247500D01*
X464601Y248163D01*
X464226Y248726D01*
X463663Y249101D01*
X463000Y249233D01*
X462337Y249101D01*
X461774Y248726D01*
X461705Y248622D01*
X443795D01*
X443726Y248726D01*
X443163Y249101D01*
X442500Y249233D01*
X441837Y249101D01*
X441274Y248726D01*
X440899Y248163D01*
X440767Y247500D01*
X440899Y246837D01*
X441274Y246274D01*
X441837Y245899D01*
X442500Y245767D01*
X443163Y245899D01*
X443726Y246274D01*
X443795Y246378D01*
X461705D01*
X461774Y246274D01*
X462337Y245899D01*
X463000Y245767D01*
X463123Y245791D01*
X464607Y244307D01*
X464607Y244307D01*
X464627Y244207D01*
X464042Y243396D01*
X442487D01*
X442349Y243602D01*
X441787Y243978D01*
X441124Y244110D01*
X440460Y243978D01*
X439898Y243602D01*
X439522Y243040D01*
X439390Y242376D01*
X439522Y241713D01*
X439898Y241151D01*
X440460Y240775D01*
X441124Y240643D01*
X441787Y240775D01*
X442349Y241151D01*
X442487Y241357D01*
X465376D01*
X465462Y241374D01*
X466000Y241267D01*
X466663Y241399D01*
X467226Y241774D01*
X467601Y242337D01*
X467612Y242388D01*
X468697Y242717D01*
X478164Y233250D01*
X478088Y233077D01*
X477575Y232425D01*
X477500Y232440D01*
Y231000D01*
X478940D01*
X478925Y231075D01*
X479577Y231588D01*
X479750Y231664D01*
X487878Y223535D01*
Y216795D01*
X487774Y216726D01*
X487399Y216163D01*
X487267Y215500D01*
X487342Y215122D01*
X486886Y214331D01*
X486674Y214122D01*
X485640D01*
X485515Y214750D01*
X485139Y215312D01*
X484577Y215688D01*
X483913Y215820D01*
X483250Y215688D01*
X482688Y215312D01*
X482312Y214750D01*
X482180Y214087D01*
X482277Y213598D01*
X481906Y213031D01*
X481581Y212717D01*
X481500Y212733D01*
X480837Y212601D01*
X480274Y212226D01*
X479899Y211663D01*
X479767Y211000D01*
X479899Y210337D01*
X480274Y209774D01*
X480837Y209399D01*
X481500Y209267D01*
X482163Y209399D01*
X482726Y209774D01*
X482795Y209878D01*
X493514D01*
X493514Y209878D01*
X493943Y209964D01*
X494307Y210207D01*
X500293Y216193D01*
X500293Y216193D01*
X500536Y216557D01*
X500622Y216986D01*
X500622Y216986D01*
Y233657D01*
X501618Y234194D01*
X501909Y234136D01*
X502416Y233554D01*
X502537Y233093D01*
X502457Y232691D01*
X502589Y232027D01*
X502965Y231465D01*
X503527Y231089D01*
X504191Y230958D01*
X504854Y231089D01*
X505416Y231465D01*
X506301Y231095D01*
X506310Y230838D01*
X506074Y229926D01*
X505774Y229726D01*
X505399Y229163D01*
X505221Y229090D01*
X504780Y229384D01*
X504500Y229440D01*
Y227500D01*
Y225197D01*
X504899Y224663D01*
X504767Y224000D01*
X504829Y223688D01*
X504623Y223090D01*
X504146Y222663D01*
X503837Y222601D01*
X503274Y222226D01*
X502899Y221663D01*
X502767Y221000D01*
X502899Y220337D01*
X503274Y219774D01*
X503837Y219399D01*
X504500Y219267D01*
X505163Y219399D01*
X505726Y219774D01*
X506612Y219302D01*
X538291Y187623D01*
X538267Y187500D01*
X538399Y186837D01*
X538774Y186274D01*
X539337Y185899D01*
X540000Y185767D01*
X540663Y185899D01*
X541226Y186274D01*
X541601Y186837D01*
X541694Y187305D01*
X542262Y187608D01*
X542713Y187701D01*
X543791Y186623D01*
X543767Y186500D01*
X543899Y185837D01*
X544274Y185274D01*
X544837Y184899D01*
X545500Y184767D01*
X546163Y184899D01*
X546726Y185274D01*
X547101Y185837D01*
X547233Y186500D01*
X547101Y187163D01*
X546726Y187726D01*
X546163Y188101D01*
X545500Y188233D01*
X545377Y188209D01*
X540700Y192886D01*
X540690Y193163D01*
X540926Y194074D01*
X541226Y194274D01*
X541601Y194837D01*
X541733Y195500D01*
X541671Y195812D01*
X541877Y196410D01*
X542354Y196837D01*
X542663Y196899D01*
X543226Y197274D01*
X543601Y197837D01*
X543733Y198500D01*
X543601Y199163D01*
X543226Y199726D01*
X542663Y200101D01*
X542000Y200233D01*
X541337Y200101D01*
X541037Y199901D01*
X540494Y200432D01*
X540885Y201378D01*
X558705D01*
X558774Y201274D01*
X559337Y200899D01*
X560000Y200767D01*
X560663Y200899D01*
X561226Y201274D01*
X561601Y201837D01*
X561733Y202500D01*
X561601Y203163D01*
X561226Y203726D01*
X560663Y204101D01*
X560000Y204233D01*
X559337Y204101D01*
X558774Y203726D01*
X558705Y203622D01*
X539965D01*
X530783Y212803D01*
X531112Y213888D01*
X531163Y213899D01*
X531726Y214274D01*
X532101Y214837D01*
X532233Y215500D01*
X532101Y216163D01*
X531726Y216726D01*
X531645Y217733D01*
X531766Y217884D01*
X532622Y218414D01*
X532911Y218356D01*
X533574Y218488D01*
X534136Y218864D01*
X534512Y219426D01*
X534644Y220089D01*
X534512Y220753D01*
X534136Y221315D01*
X534032Y221385D01*
Y223089D01*
X534032Y223089D01*
X533947Y223519D01*
X533704Y223882D01*
X532022Y225565D01*
Y227388D01*
X533000Y228156D01*
X533215Y228199D01*
X541141Y220273D01*
X540856Y219144D01*
X540663Y219086D01*
X540000Y219217D01*
X539337Y219086D01*
X538774Y218710D01*
X538399Y218148D01*
X538267Y217484D01*
X538399Y216821D01*
X538774Y216259D01*
X539337Y215883D01*
X540000Y215751D01*
X540663Y215883D01*
X541226Y216259D01*
X541295Y216363D01*
X542551D01*
X548707Y210207D01*
X548707Y210207D01*
X549071Y209964D01*
X549500Y209878D01*
X567535D01*
X575707Y201707D01*
X575707Y201707D01*
X576071Y201464D01*
X576500Y201378D01*
X576500Y201378D01*
X596911D01*
X597251Y200378D01*
X596895Y200105D01*
X596309Y199342D01*
X595941Y198454D01*
X595816Y197500D01*
X595941Y196546D01*
X596309Y195658D01*
X596895Y194895D01*
X597658Y194309D01*
X598546Y193941D01*
X599500Y193816D01*
X600454Y193941D01*
X601342Y194309D01*
X602105Y194895D01*
X602691Y195658D01*
X603059Y196546D01*
X603184Y197500D01*
X603059Y198454D01*
X602691Y199342D01*
X602105Y200105D01*
X601749Y200378D01*
X602088Y201378D01*
X604035D01*
X606240Y199174D01*
X605941Y198454D01*
X605816Y197500D01*
X605941Y196546D01*
X606309Y195658D01*
X606895Y194895D01*
X607658Y194309D01*
X608546Y193941D01*
X609500Y193816D01*
X610454Y193941D01*
X611342Y194309D01*
X612105Y194895D01*
X612691Y195658D01*
X613059Y196546D01*
X613184Y197500D01*
X613059Y198454D01*
X612691Y199342D01*
X612105Y200105D01*
X611342Y200691D01*
X610454Y201059D01*
X609500Y201184D01*
X608546Y201059D01*
X607826Y200760D01*
X605293Y203293D01*
X604929Y203536D01*
X604500Y203622D01*
X604500Y203622D01*
X602088D01*
X601749Y204622D01*
X602105Y204895D01*
X602691Y205658D01*
X603059Y206546D01*
X603184Y207500D01*
X603059Y208454D01*
X602691Y209342D01*
X602105Y210105D01*
X601749Y210379D01*
X602088Y211379D01*
X604035D01*
X606240Y209174D01*
X605941Y208454D01*
X605816Y207500D01*
X605941Y206546D01*
X606309Y205658D01*
X606895Y204895D01*
X607658Y204309D01*
X608546Y203941D01*
X609500Y203816D01*
X610454Y203941D01*
X611342Y204309D01*
X612105Y204895D01*
X612691Y205658D01*
X613059Y206546D01*
X613184Y207500D01*
X613059Y208454D01*
X612691Y209342D01*
X612105Y210105D01*
X611342Y210691D01*
X610454Y211059D01*
X609500Y211184D01*
X608546Y211059D01*
X607826Y210760D01*
X605293Y213293D01*
X604929Y213536D01*
X604500Y213622D01*
X604500Y213621D01*
X602088D01*
X601749Y214621D01*
X602105Y214895D01*
X602691Y215658D01*
X603059Y216546D01*
X603184Y217500D01*
X603059Y218454D01*
X602691Y219342D01*
X602105Y220105D01*
X601342Y220691D01*
X600454Y221059D01*
X599500Y221184D01*
X598546Y221059D01*
X597658Y220691D01*
X596895Y220105D01*
X596309Y219342D01*
X596011Y218621D01*
X589295D01*
X589226Y218726D01*
X588663Y219101D01*
X588000Y219233D01*
X587337Y219101D01*
X586774Y218726D01*
X586399Y218163D01*
X586267Y217500D01*
X586399Y216837D01*
X586774Y216274D01*
X587337Y215899D01*
X588000Y215767D01*
X588663Y215899D01*
X589226Y216274D01*
X589295Y216378D01*
X596011D01*
X596309Y215658D01*
X596895Y214895D01*
X597251Y214621D01*
X596911Y213621D01*
X550965D01*
X534727Y229859D01*
X534733Y229890D01*
X534601Y230553D01*
X534226Y231115D01*
X533663Y231491D01*
X533000Y231623D01*
X532022Y232392D01*
Y235435D01*
X536465Y239879D01*
X595535D01*
X596240Y239174D01*
X595941Y238454D01*
X595816Y237500D01*
X595941Y236546D01*
X596309Y235658D01*
X596895Y234895D01*
X597251Y234622D01*
X596911Y233622D01*
X570907D01*
X570780Y234616D01*
X571442Y235058D01*
X571884Y235720D01*
X571940Y236000D01*
X568060D01*
X568116Y235720D01*
X568558Y235058D01*
X569220Y234616D01*
X569093Y233622D01*
X560465D01*
X558293Y235793D01*
X557929Y236036D01*
X557500Y236122D01*
X557500Y236122D01*
X545972D01*
X545972Y236122D01*
X545543Y236036D01*
X545179Y235793D01*
X545179Y235793D01*
X544707Y235321D01*
X544464Y234957D01*
X544440Y234836D01*
X544274Y234726D01*
X543899Y234163D01*
X543767Y233500D01*
X543899Y232837D01*
X544274Y232274D01*
X544837Y231899D01*
X545500Y231767D01*
X546163Y231899D01*
X546726Y232274D01*
X547101Y232837D01*
X547233Y233500D01*
X547544Y233878D01*
X557035D01*
X559207Y231707D01*
X559207Y231707D01*
X559571Y231464D01*
X560000Y231379D01*
X596911D01*
X597251Y230379D01*
X596895Y230105D01*
X596309Y229342D01*
X595941Y228454D01*
X595816Y227500D01*
X595941Y226546D01*
X596309Y225658D01*
X596895Y224895D01*
X597658Y224309D01*
X598546Y223941D01*
X599500Y223816D01*
X600454Y223941D01*
X601342Y224309D01*
X602105Y224895D01*
X602691Y225658D01*
X603059Y226546D01*
X603184Y227500D01*
X603059Y228454D01*
X602691Y229342D01*
X602105Y230105D01*
X601749Y230379D01*
X602088Y231379D01*
X604035D01*
X606240Y229174D01*
X605941Y228454D01*
X605816Y227500D01*
X605941Y226546D01*
X606309Y225658D01*
X606895Y224895D01*
X607658Y224309D01*
X608546Y223941D01*
X609500Y223816D01*
X610454Y223941D01*
X611342Y224309D01*
X612105Y224895D01*
X612691Y225658D01*
X613059Y226546D01*
X613184Y227500D01*
X613059Y228454D01*
X612691Y229342D01*
X612105Y230105D01*
X611342Y230691D01*
X610454Y231059D01*
X609500Y231184D01*
X608546Y231059D01*
X607826Y230760D01*
X605293Y233293D01*
X604929Y233536D01*
X604500Y233622D01*
X604500Y233622D01*
X602088D01*
X601749Y234622D01*
X602105Y234895D01*
X602691Y235658D01*
X603059Y236546D01*
X603184Y237500D01*
X603059Y238454D01*
X602691Y239342D01*
X602105Y240105D01*
X601749Y240378D01*
X602088Y241378D01*
X604035D01*
X606240Y239174D01*
X605941Y238454D01*
X605816Y237500D01*
X605941Y236546D01*
X606309Y235658D01*
X606895Y234895D01*
X607658Y234309D01*
X608546Y233941D01*
X609500Y233816D01*
X610454Y233941D01*
X611342Y234309D01*
X612105Y234895D01*
X612691Y235658D01*
X613059Y236546D01*
X613184Y237500D01*
X613059Y238454D01*
X612691Y239342D01*
X612105Y240105D01*
X611342Y240691D01*
X610454Y241059D01*
X609500Y241184D01*
X608546Y241059D01*
X607826Y240760D01*
X605293Y243293D01*
X604929Y243536D01*
X604500Y243622D01*
X604500Y243621D01*
X602088D01*
X601749Y244621D01*
X602105Y244895D01*
X602691Y245658D01*
X603059Y246546D01*
X603184Y247500D01*
X603059Y248454D01*
X602691Y249342D01*
X602105Y250105D01*
X601342Y250691D01*
X600454Y251059D01*
X599500Y251184D01*
X598546Y251059D01*
X597658Y250691D01*
X596895Y250105D01*
X596309Y249342D01*
X596011Y248622D01*
X585295D01*
X585226Y248726D01*
X584663Y249101D01*
X584195Y249195D01*
X583892Y249762D01*
X583799Y250213D01*
X589965Y256379D01*
X596011D01*
X596309Y255658D01*
X596895Y254895D01*
X597658Y254309D01*
X598546Y253941D01*
X599500Y253816D01*
X600454Y253941D01*
X601342Y254309D01*
X602105Y254895D01*
X602691Y255658D01*
X603059Y256546D01*
X603184Y257500D01*
X603059Y258454D01*
X602691Y259342D01*
X602105Y260105D01*
X601342Y260691D01*
X600454Y261059D01*
X599500Y261184D01*
X598546Y261059D01*
X597658Y260691D01*
X596895Y260105D01*
X596309Y259342D01*
X596011Y258622D01*
X589500D01*
X589071Y258536D01*
X588707Y258293D01*
X588707Y258293D01*
X582374Y251960D01*
X582163Y252101D01*
X581500Y252233D01*
X580837Y252101D01*
X580274Y251726D01*
X579899Y251163D01*
X579767Y250500D01*
X579899Y249837D01*
X580274Y249274D01*
X580837Y248899D01*
X581500Y248767D01*
X581614Y248789D01*
X581889Y248570D01*
X582349Y247916D01*
X582267Y247500D01*
X582399Y246837D01*
X582774Y246274D01*
X583337Y245899D01*
X584000Y245767D01*
X584663Y245899D01*
X585226Y246274D01*
X585295Y246378D01*
X596011D01*
X596309Y245658D01*
X596895Y244895D01*
X597251Y244621D01*
X596911Y243621D01*
X580465D01*
X573290Y250796D01*
X573226Y251774D01*
X573601Y252337D01*
X573733Y253000D01*
X573601Y253663D01*
X573226Y254226D01*
X572663Y254601D01*
X572000Y254733D01*
X571337Y254601D01*
X570774Y254226D01*
X570399Y253663D01*
X570267Y253000D01*
X570399Y252337D01*
X570774Y251774D01*
X570878Y251705D01*
Y250500D01*
X570878Y250500D01*
X570964Y250071D01*
X571207Y249707D01*
X577869Y243045D01*
X577486Y242122D01*
X570907D01*
X570780Y243116D01*
X571442Y243558D01*
X571884Y244220D01*
X571940Y244500D01*
X568060D01*
X568116Y244220D01*
X568558Y243558D01*
X569220Y243116D01*
X569093Y242122D01*
X536000D01*
X536000Y242122D01*
X535571Y242036D01*
X535207Y241793D01*
X531045Y237632D01*
X530122Y238014D01*
Y245707D01*
X532293Y247879D01*
X532293Y247879D01*
X532536Y248242D01*
X532622Y248672D01*
Y248705D01*
X532726Y248774D01*
X533101Y249337D01*
X533233Y250000D01*
X533101Y250663D01*
X532726Y251226D01*
X532163Y251601D01*
X531500Y251733D01*
X530837Y251601D01*
X530793Y251572D01*
X530072Y252293D01*
X530101Y252337D01*
X530233Y253000D01*
X530101Y253663D01*
X529726Y254226D01*
X529163Y254601D01*
X528500Y254733D01*
X528084Y254650D01*
X527430Y255111D01*
X527232Y255359D01*
X527327Y255922D01*
X527396Y255993D01*
X528330Y256403D01*
X528337Y256399D01*
X529000Y256267D01*
X529663Y256399D01*
X530226Y256774D01*
X530601Y257337D01*
X530733Y258000D01*
X530651Y258416D01*
X531111Y259070D01*
X531386Y259289D01*
X531500Y259267D01*
X532163Y259399D01*
X532726Y259774D01*
X533101Y260337D01*
X533233Y261000D01*
X533171Y261313D01*
X533377Y261910D01*
X533854Y262337D01*
X534163Y262399D01*
X534726Y262774D01*
X535101Y263337D01*
X535233Y264000D01*
X536000Y264767D01*
X536663Y264899D01*
X537226Y265274D01*
X537601Y265837D01*
X537733Y266500D01*
X537658Y266878D01*
X538114Y267669D01*
X538273Y267826D01*
X539274Y267774D01*
X539837Y267399D01*
X540500Y267267D01*
X541163Y267399D01*
X541726Y267774D01*
X542101Y268337D01*
X542233Y269000D01*
X542101Y269663D01*
X541726Y270226D01*
X541163Y270601D01*
X540500Y270733D01*
X539837Y270601D01*
X539274Y270226D01*
X539205Y270122D01*
X500965D01*
X497709Y273377D01*
X497733Y273500D01*
X497601Y274163D01*
X497226Y274726D01*
X496663Y275101D01*
X496000Y275233D01*
D02*
G37*
G36*
X609500Y271184D02*
X608546Y271059D01*
X607658Y270691D01*
X606895Y270105D01*
X606309Y269342D01*
X605941Y268454D01*
X605816Y267500D01*
X605941Y266546D01*
X606309Y265658D01*
X606895Y264895D01*
X607658Y264309D01*
X608546Y263941D01*
X609500Y263816D01*
X610454Y263941D01*
X611342Y264309D01*
X612105Y264895D01*
X612691Y265658D01*
X613059Y266546D01*
X613184Y267500D01*
X613059Y268454D01*
X612691Y269342D01*
X612105Y270105D01*
X611342Y270691D01*
X610454Y271059D01*
X609500Y271184D01*
D02*
G37*
G36*
X369500D02*
X368546Y271059D01*
X367658Y270691D01*
X366895Y270105D01*
X366309Y269342D01*
X365941Y268454D01*
X365816Y267500D01*
X365941Y266546D01*
X366309Y265658D01*
X366895Y264895D01*
X367658Y264309D01*
X368546Y263941D01*
X369500Y263816D01*
X370454Y263941D01*
X371342Y264309D01*
X372105Y264895D01*
X372691Y265658D01*
X373059Y266546D01*
X373184Y267500D01*
X373059Y268454D01*
X372691Y269342D01*
X372105Y270105D01*
X371342Y270691D01*
X370454Y271059D01*
X369500Y271184D01*
D02*
G37*
G36*
X359500D02*
X358546Y271059D01*
X357658Y270691D01*
X356895Y270105D01*
X356309Y269342D01*
X355941Y268454D01*
X355816Y267500D01*
X355941Y266546D01*
X356309Y265658D01*
X356895Y264895D01*
X357658Y264309D01*
X358546Y263941D01*
X359500Y263816D01*
X360454Y263941D01*
X361342Y264309D01*
X362105Y264895D01*
X362691Y265658D01*
X363059Y266546D01*
X363184Y267500D01*
X363059Y268454D01*
X362691Y269342D01*
X362105Y270105D01*
X361342Y270691D01*
X360454Y271059D01*
X359500Y271184D01*
D02*
G37*
G36*
X603421Y267000D02*
X600000D01*
Y263579D01*
X600532Y263649D01*
X601493Y264047D01*
X602319Y264681D01*
X602953Y265507D01*
X603351Y266468D01*
X603421Y267000D01*
D02*
G37*
G36*
X599000D02*
X595579D01*
X595649Y266468D01*
X596047Y265507D01*
X596681Y264681D01*
X597507Y264047D01*
X598468Y263649D01*
X599000Y263579D01*
Y267000D01*
D02*
G37*
G36*
X609500Y261184D02*
X608546Y261059D01*
X607658Y260691D01*
X606895Y260105D01*
X606309Y259342D01*
X605941Y258454D01*
X605816Y257500D01*
X605941Y256546D01*
X606309Y255658D01*
X606895Y254895D01*
X607658Y254309D01*
X608546Y253941D01*
X609500Y253816D01*
X610454Y253941D01*
X611342Y254309D01*
X612105Y254895D01*
X612691Y255658D01*
X613059Y256546D01*
X613184Y257500D01*
X613059Y258454D01*
X612691Y259342D01*
X612105Y260105D01*
X611342Y260691D01*
X610454Y261059D01*
X609500Y261184D01*
D02*
G37*
G36*
X369500D02*
X368546Y261059D01*
X367658Y260691D01*
X366895Y260105D01*
X366309Y259342D01*
X365941Y258454D01*
X365816Y257500D01*
X365941Y256546D01*
X366309Y255658D01*
X366895Y254895D01*
X367658Y254309D01*
X368546Y253941D01*
X369500Y253816D01*
X370454Y253941D01*
X371342Y254309D01*
X372105Y254895D01*
X372691Y255658D01*
X373059Y256546D01*
X373184Y257500D01*
X373059Y258454D01*
X372691Y259342D01*
X372105Y260105D01*
X371342Y260691D01*
X370454Y261059D01*
X369500Y261184D01*
D02*
G37*
G36*
X359500D02*
X358546Y261059D01*
X357658Y260691D01*
X356895Y260105D01*
X356309Y259342D01*
X355941Y258454D01*
X355816Y257500D01*
X355941Y256546D01*
X356309Y255658D01*
X356895Y254895D01*
X357658Y254309D01*
X358546Y253941D01*
X359500Y253816D01*
X360454Y253941D01*
X361342Y254309D01*
X362105Y254895D01*
X362691Y255658D01*
X363059Y256546D01*
X363184Y257500D01*
X363059Y258454D01*
X362691Y259342D01*
X362105Y260105D01*
X361342Y260691D01*
X360454Y261059D01*
X359500Y261184D01*
D02*
G37*
G36*
X570500Y246940D02*
Y245500D01*
X571940D01*
X571884Y245780D01*
X571442Y246442D01*
X570780Y246884D01*
X570500Y246940D01*
D02*
G37*
G36*
X569500D02*
X569220Y246884D01*
X568558Y246442D01*
X568116Y245780D01*
X568060Y245500D01*
X569500D01*
Y246940D01*
D02*
G37*
G36*
X609500Y251184D02*
X608546Y251059D01*
X607658Y250691D01*
X606895Y250105D01*
X606309Y249342D01*
X605941Y248454D01*
X605816Y247500D01*
X605941Y246546D01*
X606309Y245658D01*
X606895Y244895D01*
X607658Y244309D01*
X608546Y243941D01*
X609500Y243816D01*
X610454Y243941D01*
X611342Y244309D01*
X612105Y244895D01*
X612691Y245658D01*
X613059Y246546D01*
X613184Y247500D01*
X613059Y248454D01*
X612691Y249342D01*
X612105Y250105D01*
X611342Y250691D01*
X610454Y251059D01*
X609500Y251184D01*
D02*
G37*
G36*
X369500D02*
X368546Y251059D01*
X367658Y250691D01*
X366895Y250105D01*
X366309Y249342D01*
X365941Y248454D01*
X365816Y247500D01*
X365941Y246546D01*
X366309Y245658D01*
X366895Y244895D01*
X367658Y244309D01*
X368546Y243941D01*
X369500Y243816D01*
X370454Y243941D01*
X371342Y244309D01*
X372105Y244895D01*
X372691Y245658D01*
X373059Y246546D01*
X373184Y247500D01*
X373059Y248454D01*
X372691Y249342D01*
X372105Y250105D01*
X371342Y250691D01*
X370454Y251059D01*
X369500Y251184D01*
D02*
G37*
G36*
X359500D02*
X358546Y251059D01*
X357658Y250691D01*
X356895Y250105D01*
X356309Y249342D01*
X355941Y248454D01*
X355816Y247500D01*
X355941Y246546D01*
X356309Y245658D01*
X356895Y244895D01*
X357658Y244309D01*
X358546Y243941D01*
X359500Y243816D01*
X360454Y243941D01*
X361342Y244309D01*
X362105Y244895D01*
X362691Y245658D01*
X363059Y246546D01*
X363184Y247500D01*
X363059Y248454D01*
X362691Y249342D01*
X362105Y250105D01*
X361342Y250691D01*
X360454Y251059D01*
X359500Y251184D01*
D02*
G37*
G36*
X570500Y238440D02*
Y237000D01*
X571940D01*
X571884Y237280D01*
X571442Y237942D01*
X570780Y238384D01*
X570500Y238440D01*
D02*
G37*
G36*
X569500D02*
X569220Y238384D01*
X568558Y237942D01*
X568116Y237280D01*
X568060Y237000D01*
X569500D01*
Y238440D01*
D02*
G37*
G36*
X442500Y239733D02*
X441837Y239601D01*
X441274Y239226D01*
X440899Y238663D01*
X440767Y238000D01*
X440899Y237337D01*
X441274Y236774D01*
X441837Y236399D01*
X442500Y236267D01*
X443163Y236399D01*
X443726Y236774D01*
X443863Y236980D01*
X459863D01*
X460767Y236500D01*
X460899Y235837D01*
X461274Y235274D01*
X461837Y234899D01*
X462500Y234767D01*
X463163Y234899D01*
X463726Y235274D01*
X464101Y235837D01*
X464233Y236500D01*
X464101Y237163D01*
X463726Y237726D01*
X463163Y238101D01*
X462500Y238233D01*
X462257Y238185D01*
X461721Y238721D01*
X461390Y238942D01*
X461000Y239020D01*
X443863D01*
X443726Y239226D01*
X443163Y239601D01*
X442500Y239733D01*
D02*
G37*
G36*
X369500Y241184D02*
X368546Y241059D01*
X367658Y240691D01*
X366895Y240105D01*
X366309Y239342D01*
X365941Y238454D01*
X365816Y237500D01*
X365941Y236546D01*
X366309Y235658D01*
X366895Y234895D01*
X367658Y234309D01*
X368546Y233941D01*
X369500Y233816D01*
X370454Y233941D01*
X371342Y234309D01*
X372105Y234895D01*
X372691Y235658D01*
X373059Y236546D01*
X373184Y237500D01*
X373059Y238454D01*
X372691Y239342D01*
X372105Y240105D01*
X371342Y240691D01*
X370454Y241059D01*
X369500Y241184D01*
D02*
G37*
G36*
X359500D02*
X358546Y241059D01*
X357658Y240691D01*
X356895Y240105D01*
X356309Y239342D01*
X355941Y238454D01*
X355816Y237500D01*
X355941Y236546D01*
X356309Y235658D01*
X356895Y234895D01*
X357658Y234309D01*
X358546Y233941D01*
X359500Y233816D01*
X360454Y233941D01*
X361342Y234309D01*
X362105Y234895D01*
X362691Y235658D01*
X363059Y236546D01*
X363184Y237500D01*
X363059Y238454D01*
X362691Y239342D01*
X362105Y240105D01*
X361342Y240691D01*
X360454Y241059D01*
X359500Y241184D01*
D02*
G37*
G36*
X398153Y239653D02*
X390847D01*
Y232347D01*
X398153D01*
Y239653D01*
D02*
G37*
G36*
X404500Y239684D02*
X403546Y239559D01*
X402658Y239191D01*
X401895Y238605D01*
X401309Y237842D01*
X400941Y236954D01*
X400816Y236000D01*
X400941Y235046D01*
X401309Y234158D01*
X401895Y233395D01*
X402658Y232809D01*
X403546Y232441D01*
X404500Y232316D01*
X405454Y232441D01*
X406342Y232809D01*
X407105Y233395D01*
X407691Y234158D01*
X408059Y235046D01*
X408184Y236000D01*
X408059Y236954D01*
X407691Y237842D01*
X407105Y238605D01*
X406342Y239191D01*
X405454Y239559D01*
X404500Y239684D01*
D02*
G37*
G36*
X489000Y232440D02*
Y231000D01*
X490440D01*
X490384Y231280D01*
X489942Y231942D01*
X489280Y232384D01*
X489000Y232440D01*
D02*
G37*
G36*
X488000D02*
X487720Y232384D01*
X487058Y231942D01*
X486616Y231280D01*
X486560Y231000D01*
X488000D01*
Y232440D01*
D02*
G37*
G36*
X476500D02*
X476220Y232384D01*
X475558Y231942D01*
X475116Y231280D01*
X475060Y231000D01*
X476500D01*
Y232440D01*
D02*
G37*
G36*
X488000Y230000D02*
X486560D01*
X486616Y229720D01*
X487058Y229058D01*
X487720Y228616D01*
X488000Y228560D01*
Y230000D01*
D02*
G37*
G36*
X478940D02*
X477500D01*
Y228560D01*
X477780Y228616D01*
X478442Y229058D01*
X478884Y229720D01*
X478940Y230000D01*
D02*
G37*
G36*
X476500D02*
X475060D01*
X475116Y229720D01*
X475558Y229058D01*
X476220Y228616D01*
X476500Y228560D01*
Y230000D01*
D02*
G37*
G36*
X570500Y229940D02*
Y228500D01*
X571940D01*
X571884Y228780D01*
X571442Y229442D01*
X570780Y229884D01*
X570500Y229940D01*
D02*
G37*
G36*
X569500D02*
X569220Y229884D01*
X568558Y229442D01*
X568116Y228780D01*
X568060Y228500D01*
X569500D01*
Y229940D01*
D02*
G37*
G36*
X503500Y229440D02*
X503220Y229384D01*
X502558Y228942D01*
X502116Y228280D01*
X502060Y228000D01*
X503500D01*
Y229440D01*
D02*
G37*
G36*
X493000D02*
Y228000D01*
X494440D01*
X494384Y228280D01*
X493942Y228942D01*
X493280Y229384D01*
X493000Y229440D01*
D02*
G37*
G36*
X490440Y230000D02*
X489000D01*
Y228560D01*
X489280Y228616D01*
X489776Y228947D01*
X490620Y228410D01*
X490616Y228280D01*
X490580Y228100D01*
X490560Y228000D01*
X492000D01*
Y229440D01*
X491720Y229384D01*
X491224Y229053D01*
X490380Y229590D01*
X490384Y229720D01*
X490420Y229900D01*
X490440Y230000D01*
D02*
G37*
G36*
X571940Y227500D02*
X570500D01*
Y226060D01*
X570780Y226116D01*
X571442Y226558D01*
X571884Y227220D01*
X571940Y227500D01*
D02*
G37*
G36*
X569500D02*
X568060D01*
X568116Y227220D01*
X568558Y226558D01*
X569220Y226116D01*
X569500Y226060D01*
Y227500D01*
D02*
G37*
G36*
X503500Y227000D02*
X502060D01*
X502116Y226720D01*
X502558Y226058D01*
X503220Y225616D01*
X503500Y225560D01*
Y227000D01*
D02*
G37*
G36*
X494440D02*
X493000D01*
Y225560D01*
X493280Y225616D01*
X493942Y226058D01*
X494384Y226720D01*
X494440Y227000D01*
D02*
G37*
G36*
X492000D02*
X490560D01*
X490616Y226720D01*
X491058Y226058D01*
X491720Y225616D01*
X492000Y225560D01*
Y227000D01*
D02*
G37*
G36*
X401000Y228464D02*
Y225500D01*
X403964D01*
X403910Y225914D01*
X403557Y226765D01*
X402996Y227496D01*
X402265Y228057D01*
X401414Y228410D01*
X401000Y228464D01*
D02*
G37*
G36*
X400000D02*
X399586Y228410D01*
X398735Y228057D01*
X398004Y227496D01*
X397443Y226765D01*
X397090Y225914D01*
X397036Y225500D01*
X400000D01*
Y228464D01*
D02*
G37*
G36*
X369500Y231184D02*
X368546Y231059D01*
X367658Y230691D01*
X366895Y230105D01*
X366309Y229342D01*
X365941Y228454D01*
X365816Y227500D01*
X365941Y226546D01*
X366309Y225658D01*
X366895Y224895D01*
X367658Y224309D01*
X368546Y223941D01*
X369500Y223816D01*
X370454Y223941D01*
X371342Y224309D01*
X372105Y224895D01*
X372691Y225658D01*
X373059Y226546D01*
X373184Y227500D01*
X373059Y228454D01*
X372691Y229342D01*
X372105Y230105D01*
X371342Y230691D01*
X370454Y231059D01*
X369500Y231184D01*
D02*
G37*
G36*
X359500D02*
X358546Y231059D01*
X357658Y230691D01*
X356895Y230105D01*
X356309Y229342D01*
X355941Y228454D01*
X355816Y227500D01*
X355941Y226546D01*
X356309Y225658D01*
X356895Y224895D01*
X357658Y224309D01*
X358546Y223941D01*
X359500Y223816D01*
X360454Y223941D01*
X361342Y224309D01*
X362105Y224895D01*
X362691Y225658D01*
X363059Y226546D01*
X363184Y227500D01*
X363059Y228454D01*
X362691Y229342D01*
X362105Y230105D01*
X361342Y230691D01*
X360454Y231059D01*
X359500Y231184D01*
D02*
G37*
G36*
X439500Y235233D02*
X438837Y235101D01*
X438274Y234726D01*
X437899Y234163D01*
X437767Y233500D01*
X437899Y232837D01*
X438274Y232274D01*
X438837Y231899D01*
X439500Y231767D01*
X440163Y231899D01*
X440726Y232274D01*
X440795Y232379D01*
X448535D01*
X456707Y224207D01*
X456707Y224207D01*
X457071Y223964D01*
X457500Y223878D01*
X457500Y223879D01*
X459705D01*
X459774Y223774D01*
X460337Y223399D01*
X461000Y223267D01*
X461663Y223399D01*
X462226Y223774D01*
X462601Y224337D01*
X462733Y225000D01*
X462601Y225663D01*
X462226Y226226D01*
X461663Y226601D01*
X461000Y226733D01*
X460337Y226601D01*
X459774Y226226D01*
X459705Y226121D01*
X457965D01*
X449793Y234293D01*
X449429Y234536D01*
X449000Y234622D01*
X449000Y234622D01*
X440795D01*
X440726Y234726D01*
X440163Y235101D01*
X439500Y235233D01*
D02*
G37*
G36*
X551000Y224964D02*
Y222000D01*
X553964D01*
X553910Y222414D01*
X553557Y223265D01*
X552996Y223996D01*
X552265Y224557D01*
X551414Y224910D01*
X551000Y224964D01*
D02*
G37*
G36*
X550000D02*
X549586Y224910D01*
X548735Y224557D01*
X548004Y223996D01*
X547443Y223265D01*
X547090Y222414D01*
X547036Y222000D01*
X550000D01*
Y224964D01*
D02*
G37*
G36*
X403964Y224500D02*
X401000D01*
Y221536D01*
X401414Y221590D01*
X402265Y221943D01*
X402996Y222504D01*
X403557Y223235D01*
X403910Y224086D01*
X403964Y224500D01*
D02*
G37*
G36*
X400000D02*
X397036D01*
X397090Y224086D01*
X397443Y223235D01*
X398004Y222504D01*
X398735Y221943D01*
X399586Y221590D01*
X400000Y221536D01*
Y224500D01*
D02*
G37*
G36*
X564000Y224464D02*
Y221500D01*
X566964D01*
X566910Y221914D01*
X566557Y222765D01*
X565996Y223496D01*
X565265Y224057D01*
X564414Y224410D01*
X564000Y224464D01*
D02*
G37*
G36*
X563000D02*
X562586Y224410D01*
X561735Y224057D01*
X561004Y223496D01*
X560443Y222765D01*
X560090Y221914D01*
X560036Y221500D01*
X563000D01*
Y224464D01*
D02*
G37*
G36*
X553964Y221000D02*
X551000D01*
Y218036D01*
X551414Y218090D01*
X552265Y218443D01*
X552996Y219004D01*
X553557Y219735D01*
X553910Y220586D01*
X553964Y221000D01*
D02*
G37*
G36*
X550000D02*
X547036D01*
X547090Y220586D01*
X547443Y219735D01*
X548004Y219004D01*
X548735Y218443D01*
X549586Y218090D01*
X550000Y218036D01*
Y221000D01*
D02*
G37*
G36*
X610000Y221421D02*
Y218000D01*
X613421D01*
X613351Y218532D01*
X612953Y219493D01*
X612319Y220319D01*
X611493Y220953D01*
X610532Y221351D01*
X610000Y221421D01*
D02*
G37*
G36*
X370000D02*
Y218000D01*
X373421D01*
X373351Y218532D01*
X372953Y219493D01*
X372319Y220319D01*
X371493Y220953D01*
X370532Y221351D01*
X370000Y221421D01*
D02*
G37*
G36*
X360000D02*
Y218000D01*
X363421D01*
X363351Y218532D01*
X362953Y219493D01*
X362319Y220319D01*
X361493Y220953D01*
X360532Y221351D01*
X360000Y221421D01*
D02*
G37*
G36*
X582500Y219440D02*
Y218000D01*
X583940D01*
X583884Y218280D01*
X583442Y218942D01*
X582780Y219384D01*
X582500Y219440D01*
D02*
G37*
G36*
X581500D02*
X581220Y219384D01*
X580558Y218942D01*
X580116Y218280D01*
X580060Y218000D01*
X581500D01*
Y219440D01*
D02*
G37*
G36*
X609000Y221421D02*
X608468Y221351D01*
X607507Y220953D01*
X606681Y220319D01*
X606047Y219493D01*
X605649Y218532D01*
X605579Y218000D01*
X609000D01*
Y221421D01*
D02*
G37*
G36*
X369000D02*
X368468Y221351D01*
X367507Y220953D01*
X366681Y220319D01*
X366047Y219493D01*
X365649Y218532D01*
X365579Y218000D01*
X369000D01*
Y221421D01*
D02*
G37*
G36*
X359000D02*
X358468Y221351D01*
X357507Y220953D01*
X356681Y220319D01*
X356047Y219493D01*
X355649Y218532D01*
X355579Y218000D01*
X359000D01*
Y221421D01*
D02*
G37*
G36*
X566964Y220500D02*
X564000D01*
Y217536D01*
X564414Y217590D01*
X565265Y217943D01*
X565996Y218504D01*
X566557Y219235D01*
X566910Y220086D01*
X566964Y220500D01*
D02*
G37*
G36*
X563000D02*
X560036D01*
X560090Y220086D01*
X560443Y219235D01*
X561004Y218504D01*
X561735Y217943D01*
X562586Y217590D01*
X563000Y217536D01*
Y220500D01*
D02*
G37*
G36*
X441814Y230419D02*
X441151Y230287D01*
X440589Y229911D01*
X440213Y229349D01*
X440081Y228686D01*
X440213Y228023D01*
X440589Y227460D01*
X441151Y227084D01*
X441814Y226953D01*
X442478Y227084D01*
X443040Y227460D01*
X443109Y227564D01*
X447850D01*
X457207Y218207D01*
X457207Y218207D01*
X457571Y217964D01*
X458000Y217878D01*
X458000Y217879D01*
X460205D01*
X460274Y217774D01*
X460837Y217399D01*
X461500Y217267D01*
X462163Y217399D01*
X462726Y217774D01*
X463101Y218337D01*
X463233Y219000D01*
X463101Y219663D01*
X462726Y220226D01*
X462163Y220601D01*
X461500Y220733D01*
X460837Y220601D01*
X460274Y220226D01*
X460205Y220122D01*
X458465D01*
X449107Y229479D01*
X448743Y229722D01*
X448314Y229807D01*
X448314Y229807D01*
X443109D01*
X443040Y229911D01*
X442478Y230287D01*
X441814Y230419D01*
D02*
G37*
G36*
X583940Y217000D02*
X582500D01*
Y215560D01*
X582780Y215616D01*
X583442Y216058D01*
X583884Y216720D01*
X583940Y217000D01*
D02*
G37*
G36*
X581500D02*
X580060D01*
X580116Y216720D01*
X580558Y216058D01*
X581220Y215616D01*
X581500Y215560D01*
Y217000D01*
D02*
G37*
G36*
X450500Y218464D02*
Y215500D01*
X453464D01*
X453410Y215914D01*
X453057Y216765D01*
X452496Y217496D01*
X451765Y218057D01*
X450914Y218410D01*
X450500Y218464D01*
D02*
G37*
G36*
X449500D02*
X449086Y218410D01*
X448235Y218057D01*
X447504Y217496D01*
X446943Y216765D01*
X446590Y215914D01*
X446536Y215500D01*
X449500D01*
Y218464D01*
D02*
G37*
G36*
X613421Y217000D02*
X610000D01*
Y213579D01*
X610532Y213649D01*
X611493Y214047D01*
X612319Y214681D01*
X612953Y215507D01*
X613351Y216468D01*
X613421Y217000D01*
D02*
G37*
G36*
X373421D02*
X370000D01*
Y213579D01*
X370532Y213649D01*
X371493Y214047D01*
X372319Y214681D01*
X372953Y215507D01*
X373351Y216468D01*
X373421Y217000D01*
D02*
G37*
G36*
X363421D02*
X360000D01*
Y213579D01*
X360532Y213649D01*
X361493Y214047D01*
X362319Y214681D01*
X362953Y215507D01*
X363351Y216468D01*
X363421Y217000D01*
D02*
G37*
G36*
X609000D02*
X605579D01*
X605649Y216468D01*
X606047Y215507D01*
X606681Y214681D01*
X607507Y214047D01*
X608468Y213649D01*
X609000Y213579D01*
Y217000D01*
D02*
G37*
G36*
X369000D02*
X365579D01*
X365649Y216468D01*
X366047Y215507D01*
X366681Y214681D01*
X367507Y214047D01*
X368468Y213649D01*
X369000Y213579D01*
Y217000D01*
D02*
G37*
G36*
X359000D02*
X355579D01*
X355649Y216468D01*
X356047Y215507D01*
X356681Y214681D01*
X357507Y214047D01*
X358468Y213649D01*
X359000Y213579D01*
Y217000D01*
D02*
G37*
G36*
X462500Y213440D02*
Y212000D01*
X463940D01*
X463884Y212280D01*
X463442Y212942D01*
X462780Y213384D01*
X462500Y213440D01*
D02*
G37*
G36*
X461500D02*
X461220Y213384D01*
X460558Y212942D01*
X460116Y212280D01*
X460060Y212000D01*
X461500D01*
Y213440D01*
D02*
G37*
G36*
X453464Y214500D02*
X450500D01*
Y211536D01*
X450914Y211590D01*
X451765Y211943D01*
X452496Y212504D01*
X453057Y213235D01*
X453410Y214086D01*
X453464Y214500D01*
D02*
G37*
G36*
X449500D02*
X446536D01*
X446590Y214086D01*
X446943Y213235D01*
X447504Y212504D01*
X448235Y211943D01*
X449086Y211590D01*
X449500Y211536D01*
Y214500D01*
D02*
G37*
G36*
X463940Y211000D02*
X462500D01*
Y209560D01*
X462780Y209616D01*
X463442Y210058D01*
X463884Y210720D01*
X463940Y211000D01*
D02*
G37*
G36*
X461500D02*
X460060D01*
X460116Y210720D01*
X460558Y210058D01*
X461220Y209616D01*
X461500Y209560D01*
Y211000D01*
D02*
G37*
G36*
X370000Y211421D02*
Y208000D01*
X373421D01*
X373351Y208532D01*
X372953Y209493D01*
X372319Y210319D01*
X371493Y210953D01*
X370532Y211351D01*
X370000Y211421D01*
D02*
G37*
G36*
X369000D02*
X368468Y211351D01*
X367507Y210953D01*
X366681Y210319D01*
X366047Y209493D01*
X365649Y208532D01*
X365579Y208000D01*
X369000D01*
Y211421D01*
D02*
G37*
G36*
X359500Y211184D02*
X358546Y211059D01*
X357658Y210691D01*
X356895Y210105D01*
X356309Y209342D01*
X355941Y208454D01*
X355816Y207500D01*
X355941Y206546D01*
X356309Y205658D01*
X356895Y204895D01*
X357658Y204309D01*
X358546Y203941D01*
X359500Y203816D01*
X360454Y203941D01*
X361342Y204309D01*
X362105Y204895D01*
X362691Y205658D01*
X363059Y206546D01*
X363184Y207500D01*
X363059Y208454D01*
X362691Y209342D01*
X362105Y210105D01*
X361342Y210691D01*
X360454Y211059D01*
X359500Y211184D01*
D02*
G37*
G36*
X373421Y207000D02*
X370000D01*
Y203579D01*
X370532Y203649D01*
X371493Y204047D01*
X372319Y204681D01*
X372953Y205507D01*
X373351Y206468D01*
X373421Y207000D01*
D02*
G37*
G36*
X369000D02*
X365579D01*
X365649Y206468D01*
X366047Y205507D01*
X366681Y204681D01*
X367507Y204047D01*
X368468Y203649D01*
X369000Y203579D01*
Y207000D01*
D02*
G37*
G36*
X450500Y203464D02*
Y200500D01*
X453464D01*
X453410Y200914D01*
X453057Y201765D01*
X452496Y202496D01*
X451765Y203057D01*
X450914Y203410D01*
X450500Y203464D01*
D02*
G37*
G36*
X449500D02*
X449086Y203410D01*
X448235Y203057D01*
X447504Y202496D01*
X446943Y201765D01*
X446590Y200914D01*
X446536Y200500D01*
X449500D01*
Y203464D01*
D02*
G37*
G36*
X582500Y199440D02*
Y198000D01*
X583940D01*
X583884Y198280D01*
X583442Y198942D01*
X582780Y199384D01*
X582500Y199440D01*
D02*
G37*
G36*
X581500D02*
X581220Y199384D01*
X580558Y198942D01*
X580116Y198280D01*
X580060Y198000D01*
X581500D01*
Y199440D01*
D02*
G37*
G36*
X453464Y199500D02*
X450500D01*
Y196536D01*
X450914Y196590D01*
X451765Y196943D01*
X452496Y197504D01*
X453057Y198235D01*
X453410Y199086D01*
X453464Y199500D01*
D02*
G37*
G36*
X449500D02*
X446536D01*
X446590Y199086D01*
X446943Y198235D01*
X447504Y197504D01*
X448235Y196943D01*
X449086Y196590D01*
X449500Y196536D01*
Y199500D01*
D02*
G37*
G36*
X583940Y197000D02*
X582500D01*
Y195560D01*
X582780Y195616D01*
X583442Y196058D01*
X583884Y196720D01*
X583940Y197000D01*
D02*
G37*
G36*
X581500D02*
X580060D01*
X580116Y196720D01*
X580558Y196058D01*
X581220Y195616D01*
X581500Y195560D01*
Y197000D01*
D02*
G37*
G36*
X509500Y209969D02*
X508837Y209838D01*
X508274Y209462D01*
X507899Y208899D01*
X507767Y208236D01*
X507899Y207573D01*
X508274Y207011D01*
X508378Y206941D01*
Y189965D01*
X507614Y189200D01*
X507338Y189190D01*
X506426Y189426D01*
X506226Y189726D01*
X505663Y190101D01*
X505000Y190233D01*
X504337Y190101D01*
X503774Y189726D01*
X503705Y189622D01*
X495662D01*
X495662Y189622D01*
X495233Y189536D01*
X494869Y189293D01*
X494869Y189293D01*
X487847Y182271D01*
X486762Y182600D01*
X486743Y182695D01*
X486367Y183257D01*
X486002Y183501D01*
X485769Y184308D01*
X485750Y184663D01*
X492965Y191878D01*
X501705D01*
X501774Y191774D01*
X502337Y191399D01*
X503000Y191267D01*
X503663Y191399D01*
X504226Y191774D01*
X504601Y192337D01*
X504733Y193000D01*
X504601Y193663D01*
X504226Y194226D01*
X503663Y194601D01*
X503000Y194733D01*
X502337Y194601D01*
X501774Y194226D01*
X501705Y194122D01*
X492500D01*
X492500Y194122D01*
X492071Y194036D01*
X491707Y193793D01*
X491707Y193793D01*
X485466Y187552D01*
X484226Y187726D01*
X483663Y188101D01*
X483000Y188233D01*
X482688Y188171D01*
X482090Y188377D01*
X481663Y188854D01*
X481601Y189163D01*
X481226Y189726D01*
X480663Y190101D01*
X480000Y190233D01*
X479337Y190101D01*
X478570Y190402D01*
X478575Y190507D01*
X478713Y190949D01*
X479276Y191324D01*
X479651Y191887D01*
X479783Y192550D01*
X479651Y193213D01*
X479276Y193776D01*
X478713Y194151D01*
X478050Y194283D01*
X477387Y194151D01*
X476824Y193776D01*
X475862Y193846D01*
X475498Y194089D01*
X475069Y194174D01*
X475069Y194174D01*
X372756D01*
X372667Y194273D01*
X372320Y195174D01*
X372691Y195658D01*
X373059Y196546D01*
X373184Y197500D01*
X373059Y198454D01*
X372691Y199342D01*
X372105Y200105D01*
X371342Y200691D01*
X370454Y201059D01*
X369500Y201184D01*
X368546Y201059D01*
X367658Y200691D01*
X366895Y200105D01*
X366309Y199342D01*
X365941Y198454D01*
X365816Y197500D01*
X365941Y196546D01*
X366309Y195658D01*
X366680Y195174D01*
X366333Y194273D01*
X366244Y194174D01*
X364412D01*
X362760Y195826D01*
X363059Y196546D01*
X363184Y197500D01*
X363059Y198454D01*
X362691Y199342D01*
X362105Y200105D01*
X361342Y200691D01*
X360454Y201059D01*
X359500Y201184D01*
X358546Y201059D01*
X357658Y200691D01*
X356895Y200105D01*
X356309Y199342D01*
X355941Y198454D01*
X355816Y197500D01*
X355941Y196546D01*
X356309Y195658D01*
X356895Y194895D01*
X357658Y194309D01*
X358546Y193941D01*
X359500Y193816D01*
X360454Y193941D01*
X361174Y194240D01*
X362271Y193143D01*
X362207Y191793D01*
X361174Y190760D01*
X360454Y191059D01*
X359500Y191184D01*
X358546Y191059D01*
X357658Y190691D01*
X356895Y190105D01*
X356309Y189342D01*
X355941Y188454D01*
X355816Y187500D01*
X355941Y186546D01*
X356309Y185658D01*
X356895Y184895D01*
X357658Y184309D01*
X358546Y183941D01*
X359500Y183816D01*
X360454Y183941D01*
X361342Y184309D01*
X362105Y184895D01*
X362691Y185658D01*
X363059Y186546D01*
X363184Y187500D01*
X363059Y188454D01*
X362760Y189174D01*
X364017Y190431D01*
X365884D01*
X366378Y189431D01*
X366309Y189342D01*
X365941Y188454D01*
X365816Y187500D01*
X365941Y186546D01*
X366309Y185658D01*
X366895Y184895D01*
X367658Y184309D01*
X368546Y183941D01*
X369500Y183816D01*
X370454Y183941D01*
X371342Y184309D01*
X372105Y184895D01*
X372691Y185658D01*
X373059Y186546D01*
X373184Y187500D01*
X373059Y188454D01*
X372691Y189342D01*
X372622Y189431D01*
X373115Y190431D01*
X473983D01*
X476707Y187707D01*
X476707Y187707D01*
X477071Y187464D01*
X477500Y187378D01*
X478705D01*
X478774Y187274D01*
X479337Y186899D01*
X479388Y186888D01*
X479717Y185803D01*
X471535Y177622D01*
X465770D01*
X465498Y178622D01*
X465996Y179004D01*
X466557Y179735D01*
X466910Y180586D01*
X466964Y181000D01*
X460036D01*
X460090Y180586D01*
X460443Y179735D01*
X461004Y179004D01*
X461502Y178622D01*
X461230Y177622D01*
X446795D01*
X446726Y177726D01*
X446163Y178101D01*
X445500Y178233D01*
X444837Y178101D01*
X444274Y177726D01*
X443899Y177163D01*
X443767Y176500D01*
X443842Y176122D01*
X443605Y175710D01*
X443413Y175604D01*
X442463Y175401D01*
X442163Y175601D01*
X441500Y175733D01*
X440837Y175601D01*
X440274Y175226D01*
X439899Y174663D01*
X439767Y174000D01*
X439899Y173337D01*
X440274Y172774D01*
X440837Y172399D01*
X441500Y172267D01*
X442163Y172399D01*
X442463Y172599D01*
X443413Y172396D01*
X443605Y172290D01*
X443842Y171878D01*
X443767Y171500D01*
X443899Y170837D01*
X444274Y170274D01*
X444837Y169899D01*
X445500Y169767D01*
X446163Y169899D01*
X446726Y170274D01*
X446830Y170431D01*
X474553D01*
X474553Y170431D01*
X474603Y170441D01*
X475095Y169519D01*
X473697Y168122D01*
X445795D01*
X445726Y168226D01*
X445163Y168601D01*
X444500Y168733D01*
X443837Y168601D01*
X443274Y168226D01*
X442899Y167663D01*
X442767Y167000D01*
X442899Y166337D01*
X443274Y165774D01*
X443837Y165399D01*
X444500Y165267D01*
X445163Y165399D01*
X445726Y165774D01*
X445795Y165878D01*
X474162D01*
X474162Y165878D01*
X474591Y165964D01*
X474955Y166207D01*
X496126Y187378D01*
X503705D01*
X503774Y187274D01*
X504074Y187074D01*
X504310Y186162D01*
X504300Y185886D01*
X477035Y158622D01*
X446295D01*
X446226Y158726D01*
X445663Y159101D01*
X445000Y159233D01*
X444337Y159101D01*
X443774Y158726D01*
X443399Y158163D01*
X443267Y157500D01*
X443399Y156837D01*
X443774Y156274D01*
X444337Y155899D01*
X445000Y155767D01*
X445663Y155899D01*
X446226Y156274D01*
X446295Y156378D01*
X477500D01*
X477500Y156378D01*
X477929Y156464D01*
X478293Y156707D01*
X510293Y188707D01*
X510293Y188707D01*
X510536Y189071D01*
X510622Y189500D01*
Y206941D01*
X510726Y207011D01*
X511101Y207573D01*
X511233Y208236D01*
X511101Y208899D01*
X510726Y209462D01*
X510163Y209838D01*
X509500Y209969D01*
D02*
G37*
G36*
X532000Y188233D02*
X531337Y188101D01*
X530774Y187726D01*
X530705Y187622D01*
X523795D01*
X523726Y187726D01*
X523163Y188101D01*
X522500Y188233D01*
X521837Y188101D01*
X521274Y187726D01*
X520899Y187163D01*
X520767Y186500D01*
X520899Y185837D01*
X521274Y185274D01*
X521837Y184899D01*
X522500Y184767D01*
X523163Y184899D01*
X523726Y185274D01*
X523795Y185378D01*
X530705D01*
X530774Y185274D01*
X531337Y184899D01*
X532000Y184767D01*
X532663Y184899D01*
X533226Y185274D01*
X533601Y185837D01*
X533733Y186500D01*
X533601Y187163D01*
X533226Y187726D01*
X532663Y188101D01*
X532000Y188233D01*
D02*
G37*
G36*
X395000Y187464D02*
Y184500D01*
X397964D01*
X397910Y184914D01*
X397557Y185765D01*
X396996Y186496D01*
X396265Y187057D01*
X395414Y187410D01*
X395000Y187464D01*
D02*
G37*
G36*
X394000D02*
X393586Y187410D01*
X392735Y187057D01*
X392004Y186496D01*
X391443Y185765D01*
X391090Y184914D01*
X391036Y184500D01*
X394000D01*
Y187464D01*
D02*
G37*
G36*
X609500Y191184D02*
X608546Y191059D01*
X607658Y190691D01*
X606895Y190105D01*
X606309Y189342D01*
X605941Y188454D01*
X605816Y187500D01*
X605941Y186546D01*
X606309Y185658D01*
X606895Y184895D01*
X607658Y184309D01*
X608546Y183941D01*
X609500Y183816D01*
X610454Y183941D01*
X611342Y184309D01*
X612105Y184895D01*
X612691Y185658D01*
X613059Y186546D01*
X613184Y187500D01*
X613059Y188454D01*
X612691Y189342D01*
X612105Y190105D01*
X611342Y190691D01*
X610454Y191059D01*
X609500Y191184D01*
D02*
G37*
G36*
X599500D02*
X598546Y191059D01*
X597658Y190691D01*
X596895Y190105D01*
X596309Y189342D01*
X595941Y188454D01*
X595816Y187500D01*
X595941Y186546D01*
X596309Y185658D01*
X596895Y184895D01*
X597658Y184309D01*
X598546Y183941D01*
X599500Y183816D01*
X600454Y183941D01*
X601342Y184309D01*
X602105Y184895D01*
X602691Y185658D01*
X603059Y186546D01*
X603184Y187500D01*
X603059Y188454D01*
X602691Y189342D01*
X602105Y190105D01*
X601342Y190691D01*
X600454Y191059D01*
X599500Y191184D01*
D02*
G37*
G36*
X464000Y184964D02*
Y182000D01*
X466964D01*
X466910Y182414D01*
X466557Y183265D01*
X465996Y183996D01*
X465265Y184557D01*
X464414Y184910D01*
X464000Y184964D01*
D02*
G37*
G36*
X463000D02*
X462586Y184910D01*
X461735Y184557D01*
X461004Y183996D01*
X460443Y183265D01*
X460090Y182414D01*
X460036Y182000D01*
X463000D01*
Y184964D01*
D02*
G37*
G36*
X397964Y183500D02*
X395000D01*
Y180536D01*
X395414Y180590D01*
X396265Y180943D01*
X396996Y181504D01*
X397557Y182235D01*
X397910Y183086D01*
X397964Y183500D01*
D02*
G37*
G36*
X394000D02*
X391036D01*
X391090Y183086D01*
X391443Y182235D01*
X392004Y181504D01*
X392735Y180943D01*
X393586Y180590D01*
X394000Y180536D01*
Y183500D01*
D02*
G37*
G36*
X556000Y183228D02*
X555165Y183118D01*
X554386Y182795D01*
X553718Y182282D01*
X553492Y181988D01*
X531000D01*
X530239Y181837D01*
X529594Y181406D01*
X523579Y175391D01*
X523114Y175748D01*
X522335Y176070D01*
X521500Y176180D01*
X520665Y176070D01*
X519886Y175748D01*
X519218Y175235D01*
X518705Y174567D01*
X518382Y173788D01*
X518272Y172953D01*
X518382Y172117D01*
X518705Y171339D01*
X519218Y170670D01*
X519886Y170158D01*
X520665Y169835D01*
X521500Y169725D01*
X522335Y169835D01*
X523114Y170158D01*
X523782Y170670D01*
X524052Y171022D01*
X524761Y171163D01*
X525406Y171594D01*
X531823Y178012D01*
X553492D01*
X553718Y177718D01*
X554386Y177205D01*
X555165Y176882D01*
X556000Y176772D01*
X556835Y176882D01*
X557614Y177205D01*
X558282Y177718D01*
X558795Y178386D01*
X559118Y179165D01*
X559228Y180000D01*
X559118Y180835D01*
X558795Y181614D01*
X558282Y182282D01*
X557614Y182795D01*
X556835Y183118D01*
X556000Y183228D01*
D02*
G37*
G36*
X609500Y181184D02*
X608546Y181059D01*
X607658Y180691D01*
X606895Y180105D01*
X606309Y179342D01*
X605941Y178454D01*
X605816Y177500D01*
X605941Y176546D01*
X606309Y175658D01*
X606895Y174895D01*
X607658Y174309D01*
X608546Y173941D01*
X609500Y173816D01*
X610454Y173941D01*
X611342Y174309D01*
X612105Y174895D01*
X612691Y175658D01*
X613059Y176546D01*
X613184Y177500D01*
X613059Y178454D01*
X612691Y179342D01*
X612105Y180105D01*
X611342Y180691D01*
X610454Y181059D01*
X609500Y181184D01*
D02*
G37*
G36*
X599500D02*
X598546Y181059D01*
X597658Y180691D01*
X596895Y180105D01*
X596309Y179342D01*
X595941Y178454D01*
X595816Y177500D01*
X595941Y176546D01*
X596309Y175658D01*
X596895Y174895D01*
X597658Y174309D01*
X598546Y173941D01*
X599500Y173816D01*
X600454Y173941D01*
X601342Y174309D01*
X602105Y174895D01*
X602691Y175658D01*
X603059Y176546D01*
X603184Y177500D01*
X603059Y178454D01*
X602691Y179342D01*
X602105Y180105D01*
X601342Y180691D01*
X600454Y181059D01*
X599500Y181184D01*
D02*
G37*
G36*
X369500D02*
X368546Y181059D01*
X367658Y180691D01*
X366895Y180105D01*
X366309Y179342D01*
X365941Y178454D01*
X365816Y177500D01*
X365941Y176546D01*
X366309Y175658D01*
X366895Y174895D01*
X367658Y174309D01*
X368546Y173941D01*
X369500Y173816D01*
X370454Y173941D01*
X371342Y174309D01*
X372105Y174895D01*
X372691Y175658D01*
X373059Y176546D01*
X373184Y177500D01*
X373059Y178454D01*
X372691Y179342D01*
X372105Y180105D01*
X371342Y180691D01*
X370454Y181059D01*
X369500Y181184D01*
D02*
G37*
G36*
X359500D02*
X358546Y181059D01*
X357658Y180691D01*
X356895Y180105D01*
X356309Y179342D01*
X355941Y178454D01*
X355816Y177500D01*
X355941Y176546D01*
X356309Y175658D01*
X356895Y174895D01*
X357658Y174309D01*
X358546Y173941D01*
X359500Y173816D01*
X360454Y173941D01*
X361342Y174309D01*
X362105Y174895D01*
X362691Y175658D01*
X363059Y176546D01*
X363184Y177500D01*
X363059Y178454D01*
X362691Y179342D01*
X362105Y180105D01*
X361342Y180691D01*
X360454Y181059D01*
X359500Y181184D01*
D02*
G37*
G36*
X488000Y176233D02*
X487337Y176101D01*
X486774Y175726D01*
X486399Y175163D01*
X486267Y174500D01*
X486291Y174377D01*
X475535Y163622D01*
X446295D01*
X446226Y163726D01*
X445663Y164101D01*
X445000Y164233D01*
X444337Y164101D01*
X443774Y163726D01*
X443399Y163163D01*
X443267Y162500D01*
X443399Y161837D01*
X443774Y161274D01*
X444337Y160899D01*
X445000Y160767D01*
X445663Y160899D01*
X446226Y161274D01*
X446295Y161378D01*
X476000D01*
X476000Y161378D01*
X476429Y161464D01*
X476793Y161707D01*
X487877Y172791D01*
X488000Y172767D01*
X488663Y172899D01*
X489226Y173274D01*
X489601Y173837D01*
X489733Y174500D01*
X489601Y175163D01*
X489226Y175726D01*
X488663Y176101D01*
X488000Y176233D01*
D02*
G37*
G36*
X609500Y171184D02*
X608546Y171059D01*
X607658Y170691D01*
X606895Y170105D01*
X606309Y169342D01*
X605941Y168454D01*
X605816Y167500D01*
X605941Y166546D01*
X606309Y165658D01*
X606895Y164895D01*
X607658Y164309D01*
X608546Y163941D01*
X609500Y163816D01*
X610454Y163941D01*
X611342Y164309D01*
X612105Y164895D01*
X612691Y165658D01*
X613059Y166546D01*
X613184Y167500D01*
X613059Y168454D01*
X612691Y169342D01*
X612105Y170105D01*
X611342Y170691D01*
X610454Y171059D01*
X609500Y171184D01*
D02*
G37*
G36*
X599500D02*
X598546Y171059D01*
X597658Y170691D01*
X596895Y170105D01*
X596309Y169342D01*
X595941Y168454D01*
X595816Y167500D01*
X595941Y166546D01*
X596309Y165658D01*
X596895Y164895D01*
X597658Y164309D01*
X598546Y163941D01*
X599500Y163816D01*
X600454Y163941D01*
X601342Y164309D01*
X602105Y164895D01*
X602691Y165658D01*
X603059Y166546D01*
X603184Y167500D01*
X603059Y168454D01*
X602691Y169342D01*
X602105Y170105D01*
X601342Y170691D01*
X600454Y171059D01*
X599500Y171184D01*
D02*
G37*
G36*
X369500D02*
X368546Y171059D01*
X367658Y170691D01*
X366895Y170105D01*
X366309Y169342D01*
X365941Y168454D01*
X365816Y167500D01*
X365941Y166546D01*
X366309Y165658D01*
X366895Y164895D01*
X367658Y164309D01*
X368546Y163941D01*
X369500Y163816D01*
X370454Y163941D01*
X371342Y164309D01*
X372105Y164895D01*
X372691Y165658D01*
X373059Y166546D01*
X373184Y167500D01*
X373059Y168454D01*
X372691Y169342D01*
X372105Y170105D01*
X371342Y170691D01*
X370454Y171059D01*
X369500Y171184D01*
D02*
G37*
G36*
X359500D02*
X358546Y171059D01*
X357658Y170691D01*
X356895Y170105D01*
X356309Y169342D01*
X355941Y168454D01*
X355816Y167500D01*
X355941Y166546D01*
X356309Y165658D01*
X356895Y164895D01*
X357658Y164309D01*
X358546Y163941D01*
X359500Y163816D01*
X360454Y163941D01*
X361342Y164309D01*
X362105Y164895D01*
X362691Y165658D01*
X363059Y166546D01*
X363184Y167500D01*
X363059Y168454D01*
X362691Y169342D01*
X362105Y170105D01*
X361342Y170691D01*
X360454Y171059D01*
X359500Y171184D01*
D02*
G37*
G36*
X503500Y156440D02*
Y155000D01*
X504940D01*
X504884Y155280D01*
X504442Y155942D01*
X503780Y156384D01*
X503500Y156440D01*
D02*
G37*
G36*
X502500D02*
X502220Y156384D01*
X501558Y155942D01*
X501116Y155280D01*
X501060Y155000D01*
X502500D01*
Y156440D01*
D02*
G37*
G36*
X609500Y161184D02*
X608546Y161059D01*
X607658Y160691D01*
X606895Y160105D01*
X606309Y159342D01*
X605941Y158454D01*
X605816Y157500D01*
X605941Y156546D01*
X606309Y155658D01*
X606895Y154895D01*
X607658Y154309D01*
X608546Y153941D01*
X609500Y153816D01*
X610454Y153941D01*
X611342Y154309D01*
X612105Y154895D01*
X612691Y155658D01*
X613059Y156546D01*
X613184Y157500D01*
X613059Y158454D01*
X612691Y159342D01*
X612105Y160105D01*
X611342Y160691D01*
X610454Y161059D01*
X609500Y161184D01*
D02*
G37*
G36*
X599500D02*
X598546Y161059D01*
X597658Y160691D01*
X596895Y160105D01*
X596309Y159342D01*
X595941Y158454D01*
X595816Y157500D01*
X595941Y156546D01*
X596309Y155658D01*
X596895Y154895D01*
X597658Y154309D01*
X598546Y153941D01*
X599500Y153816D01*
X600454Y153941D01*
X601342Y154309D01*
X602105Y154895D01*
X602691Y155658D01*
X603059Y156546D01*
X603184Y157500D01*
X603059Y158454D01*
X602691Y159342D01*
X602105Y160105D01*
X601342Y160691D01*
X600454Y161059D01*
X599500Y161184D01*
D02*
G37*
G36*
X369500D02*
X368546Y161059D01*
X367658Y160691D01*
X366895Y160105D01*
X366309Y159342D01*
X365941Y158454D01*
X365816Y157500D01*
X365941Y156546D01*
X366309Y155658D01*
X366895Y154895D01*
X367658Y154309D01*
X368546Y153941D01*
X369500Y153816D01*
X370454Y153941D01*
X371342Y154309D01*
X372105Y154895D01*
X372691Y155658D01*
X373059Y156546D01*
X373184Y157500D01*
X373059Y158454D01*
X372691Y159342D01*
X372105Y160105D01*
X371342Y160691D01*
X370454Y161059D01*
X369500Y161184D01*
D02*
G37*
G36*
X359500D02*
X358546Y161059D01*
X357658Y160691D01*
X356895Y160105D01*
X356309Y159342D01*
X355941Y158454D01*
X355816Y157500D01*
X355941Y156546D01*
X356309Y155658D01*
X356895Y154895D01*
X357658Y154309D01*
X358546Y153941D01*
X359500Y153816D01*
X360454Y153941D01*
X361342Y154309D01*
X362105Y154895D01*
X362691Y155658D01*
X363059Y156546D01*
X363184Y157500D01*
X363059Y158454D01*
X362691Y159342D01*
X362105Y160105D01*
X361342Y160691D01*
X360454Y161059D01*
X359500Y161184D01*
D02*
G37*
G36*
X455016Y154218D02*
X454352Y154086D01*
X453790Y153710D01*
X453721Y153606D01*
X446295D01*
X446226Y153710D01*
X445663Y154086D01*
X445000Y154218D01*
X444337Y154086D01*
X443774Y153710D01*
X443399Y153148D01*
X443267Y152484D01*
X443399Y151821D01*
X443774Y151259D01*
X444337Y150883D01*
X445000Y150751D01*
X445663Y150883D01*
X446226Y151259D01*
X446295Y151363D01*
X453721D01*
X453790Y151259D01*
X454352Y150883D01*
X455016Y150751D01*
X455679Y150883D01*
X456241Y151259D01*
X456617Y151821D01*
X456749Y152484D01*
X456617Y153148D01*
X456241Y153710D01*
X455679Y154086D01*
X455016Y154218D01*
D02*
G37*
G36*
X492500Y156233D02*
X491837Y156101D01*
X491274Y155726D01*
X490899Y155163D01*
X490767Y154500D01*
X490791Y154377D01*
X475207Y138793D01*
X474964Y138429D01*
X474878Y138000D01*
X474878Y138000D01*
Y137295D01*
X474774Y137226D01*
X474399Y136663D01*
X474267Y136000D01*
X474399Y135337D01*
X474774Y134774D01*
X475337Y134399D01*
X476000Y134267D01*
X476663Y134399D01*
X477226Y134774D01*
X477439Y135094D01*
X477735Y135164D01*
X478294Y135160D01*
X478550Y135094D01*
X478774Y134759D01*
X479337Y134384D01*
X480000Y134252D01*
X480663Y134384D01*
X481226Y134759D01*
X482274Y134774D01*
X482837Y134399D01*
X483500Y134267D01*
X484163Y134399D01*
X484726Y134774D01*
X485774D01*
X486337Y134399D01*
X487000Y134267D01*
X487663Y134399D01*
X488226Y134774D01*
X488601Y135337D01*
X488733Y136000D01*
X488709Y136123D01*
X498793Y146207D01*
X499036Y146571D01*
X499122Y147000D01*
X499122Y147000D01*
Y147284D01*
X499226Y147353D01*
X499601Y147915D01*
X499733Y148579D01*
X499601Y149242D01*
X499226Y149804D01*
X498663Y150180D01*
X498000Y150312D01*
X497337Y150180D01*
X496774Y149804D01*
X496399Y149242D01*
X496267Y148579D01*
X496399Y147915D01*
X496771Y147357D01*
X492853Y143439D01*
X491671Y143671D01*
X491601Y143837D01*
X491733Y144500D01*
X491601Y145163D01*
X491793Y146207D01*
X493377Y147791D01*
X493500Y147767D01*
X494163Y147899D01*
X494726Y148274D01*
X495101Y148837D01*
X495233Y149500D01*
X495101Y150163D01*
X494726Y150726D01*
X494163Y151101D01*
X493500Y151233D01*
X492837Y151101D01*
X492274Y150726D01*
X491899Y150163D01*
X491767Y149500D01*
X491791Y149377D01*
X490535Y148122D01*
X489122D01*
X488897Y148408D01*
X488659Y149073D01*
X492377Y152791D01*
X492500Y152767D01*
X493163Y152899D01*
X493726Y153274D01*
X494101Y153837D01*
X494233Y154500D01*
X494101Y155163D01*
X493726Y155726D01*
X493163Y156101D01*
X492500Y156233D01*
D02*
G37*
G36*
X504940Y154000D02*
X503500D01*
Y152560D01*
X503780Y152616D01*
X504442Y153058D01*
X504884Y153720D01*
X504940Y154000D01*
D02*
G37*
G36*
X502500D02*
X501060D01*
X501116Y153720D01*
X501558Y153058D01*
X502220Y152616D01*
X502500Y152560D01*
Y154000D01*
D02*
G37*
G36*
X609500Y151184D02*
X608546Y151059D01*
X607658Y150691D01*
X606895Y150105D01*
X606309Y149342D01*
X605941Y148454D01*
X605816Y147500D01*
X605941Y146546D01*
X606309Y145658D01*
X606895Y144895D01*
X607658Y144309D01*
X608546Y143941D01*
X609500Y143816D01*
X610454Y143941D01*
X611342Y144309D01*
X612105Y144895D01*
X612691Y145658D01*
X613059Y146546D01*
X613184Y147500D01*
X613059Y148454D01*
X612691Y149342D01*
X612105Y150105D01*
X611342Y150691D01*
X610454Y151059D01*
X609500Y151184D01*
D02*
G37*
G36*
X599500D02*
X598546Y151059D01*
X597658Y150691D01*
X596895Y150105D01*
X596309Y149342D01*
X595941Y148454D01*
X595816Y147500D01*
X595941Y146546D01*
X596309Y145658D01*
X596895Y144895D01*
X597658Y144309D01*
X598546Y143941D01*
X599500Y143816D01*
X600454Y143941D01*
X601342Y144309D01*
X602105Y144895D01*
X602691Y145658D01*
X603059Y146546D01*
X603184Y147500D01*
X603059Y148454D01*
X602691Y149342D01*
X602105Y150105D01*
X601342Y150691D01*
X600454Y151059D01*
X599500Y151184D01*
D02*
G37*
G36*
X369500D02*
X368546Y151059D01*
X367658Y150691D01*
X366895Y150105D01*
X366309Y149342D01*
X365941Y148454D01*
X365816Y147500D01*
X365941Y146546D01*
X366309Y145658D01*
X366895Y144895D01*
X367658Y144309D01*
X368546Y143941D01*
X369500Y143816D01*
X370454Y143941D01*
X371342Y144309D01*
X372105Y144895D01*
X372691Y145658D01*
X373059Y146546D01*
X373184Y147500D01*
X373059Y148454D01*
X372691Y149342D01*
X372105Y150105D01*
X371342Y150691D01*
X370454Y151059D01*
X369500Y151184D01*
D02*
G37*
G36*
X359500D02*
X358546Y151059D01*
X357658Y150691D01*
X356895Y150105D01*
X356309Y149342D01*
X355941Y148454D01*
X355816Y147500D01*
X355941Y146546D01*
X356309Y145658D01*
X356895Y144895D01*
X357658Y144309D01*
X358546Y143941D01*
X359500Y143816D01*
X360454Y143941D01*
X361342Y144309D01*
X362105Y144895D01*
X362691Y145658D01*
X363059Y146546D01*
X363184Y147500D01*
X363059Y148454D01*
X362691Y149342D01*
X362105Y150105D01*
X361342Y150691D01*
X360454Y151059D01*
X359500Y151184D01*
D02*
G37*
G36*
X421500Y137964D02*
Y135000D01*
X424464D01*
X424410Y135414D01*
X424057Y136265D01*
X423496Y136996D01*
X422765Y137557D01*
X421914Y137910D01*
X421500Y137964D01*
D02*
G37*
G36*
X420500D02*
X420086Y137910D01*
X419235Y137557D01*
X418504Y136996D01*
X417943Y136265D01*
X417590Y135414D01*
X417536Y135000D01*
X420500D01*
Y137964D01*
D02*
G37*
G36*
X609500Y141184D02*
X608546Y141059D01*
X607658Y140691D01*
X606895Y140105D01*
X606309Y139342D01*
X605941Y138454D01*
X605816Y137500D01*
X605941Y136546D01*
X606309Y135658D01*
X606895Y134895D01*
X607658Y134309D01*
X608546Y133941D01*
X609500Y133816D01*
X610454Y133941D01*
X611342Y134309D01*
X612105Y134895D01*
X612691Y135658D01*
X613059Y136546D01*
X613184Y137500D01*
X613059Y138454D01*
X612691Y139342D01*
X612105Y140105D01*
X611342Y140691D01*
X610454Y141059D01*
X609500Y141184D01*
D02*
G37*
G36*
X599500D02*
X598546Y141059D01*
X597658Y140691D01*
X596895Y140105D01*
X596309Y139342D01*
X595941Y138454D01*
X595816Y137500D01*
X595941Y136546D01*
X596309Y135658D01*
X596895Y134895D01*
X597658Y134309D01*
X598546Y133941D01*
X599500Y133816D01*
X600454Y133941D01*
X601342Y134309D01*
X602105Y134895D01*
X602691Y135658D01*
X603059Y136546D01*
X603184Y137500D01*
X603059Y138454D01*
X602691Y139342D01*
X602105Y140105D01*
X601342Y140691D01*
X600454Y141059D01*
X599500Y141184D01*
D02*
G37*
G36*
X369500D02*
X368546Y141059D01*
X367658Y140691D01*
X366895Y140105D01*
X366309Y139342D01*
X365941Y138454D01*
X365816Y137500D01*
X365941Y136546D01*
X366309Y135658D01*
X366895Y134895D01*
X367658Y134309D01*
X368546Y133941D01*
X369500Y133816D01*
X370454Y133941D01*
X371342Y134309D01*
X372105Y134895D01*
X372691Y135658D01*
X373059Y136546D01*
X373184Y137500D01*
X373059Y138454D01*
X372691Y139342D01*
X372105Y140105D01*
X371342Y140691D01*
X370454Y141059D01*
X369500Y141184D01*
D02*
G37*
G36*
X359500D02*
X358546Y141059D01*
X357658Y140691D01*
X356895Y140105D01*
X356309Y139342D01*
X355941Y138454D01*
X355816Y137500D01*
X355941Y136546D01*
X356309Y135658D01*
X356895Y134895D01*
X357658Y134309D01*
X358546Y133941D01*
X359500Y133816D01*
X360454Y133941D01*
X361342Y134309D01*
X362105Y134895D01*
X362691Y135658D01*
X363059Y136546D01*
X363184Y137500D01*
X363059Y138454D01*
X362691Y139342D01*
X362105Y140105D01*
X361342Y140691D01*
X360454Y141059D01*
X359500Y141184D01*
D02*
G37*
G36*
X424464Y134000D02*
X421500D01*
Y131036D01*
X421914Y131090D01*
X422765Y131443D01*
X423496Y132004D01*
X424057Y132735D01*
X424410Y133586D01*
X424464Y134000D01*
D02*
G37*
G36*
X420500D02*
X417536D01*
X417590Y133586D01*
X417943Y132735D01*
X418504Y132004D01*
X419235Y131443D01*
X420086Y131090D01*
X420500Y131036D01*
Y134000D01*
D02*
G37*
G36*
X609500Y131184D02*
X608546Y131059D01*
X607658Y130691D01*
X606895Y130105D01*
X606309Y129342D01*
X605941Y128454D01*
X605816Y127500D01*
X605941Y126546D01*
X606309Y125658D01*
X606895Y124895D01*
X607658Y124309D01*
X608546Y123941D01*
X609500Y123816D01*
X610454Y123941D01*
X611342Y124309D01*
X612105Y124895D01*
X612691Y125658D01*
X613059Y126546D01*
X613184Y127500D01*
X613059Y128454D01*
X612691Y129342D01*
X612105Y130105D01*
X611342Y130691D01*
X610454Y131059D01*
X609500Y131184D01*
D02*
G37*
G36*
X599500D02*
X598546Y131059D01*
X597658Y130691D01*
X596895Y130105D01*
X596309Y129342D01*
X595941Y128454D01*
X595816Y127500D01*
X595941Y126546D01*
X596309Y125658D01*
X596895Y124895D01*
X597658Y124309D01*
X598546Y123941D01*
X599500Y123816D01*
X600454Y123941D01*
X601342Y124309D01*
X602105Y124895D01*
X602691Y125658D01*
X603059Y126546D01*
X603184Y127500D01*
X603059Y128454D01*
X602691Y129342D01*
X602105Y130105D01*
X601342Y130691D01*
X600454Y131059D01*
X599500Y131184D01*
D02*
G37*
G36*
X369500D02*
X368546Y131059D01*
X367658Y130691D01*
X366895Y130105D01*
X366309Y129342D01*
X365941Y128454D01*
X365816Y127500D01*
X365941Y126546D01*
X366309Y125658D01*
X366895Y124895D01*
X367658Y124309D01*
X368546Y123941D01*
X369500Y123816D01*
X370454Y123941D01*
X371342Y124309D01*
X372105Y124895D01*
X372691Y125658D01*
X373059Y126546D01*
X373184Y127500D01*
X373059Y128454D01*
X372691Y129342D01*
X372105Y130105D01*
X371342Y130691D01*
X370454Y131059D01*
X369500Y131184D01*
D02*
G37*
G36*
X359500D02*
X358546Y131059D01*
X357658Y130691D01*
X356895Y130105D01*
X356309Y129342D01*
X355941Y128454D01*
X355816Y127500D01*
X355941Y126546D01*
X356309Y125658D01*
X356895Y124895D01*
X357658Y124309D01*
X358546Y123941D01*
X359500Y123816D01*
X360454Y123941D01*
X361342Y124309D01*
X362105Y124895D01*
X362691Y125658D01*
X363059Y126546D01*
X363184Y127500D01*
X363059Y128454D01*
X362691Y129342D01*
X362105Y130105D01*
X361342Y130691D01*
X360454Y131059D01*
X359500Y131184D01*
D02*
G37*
%LPD*%
G36*
X504274Y256274D02*
X504837Y255899D01*
X505500Y255767D01*
X506163Y255899D01*
X506726Y256274D01*
X506795Y256379D01*
X509588D01*
X510042Y255379D01*
X509899Y255163D01*
X509767Y254500D01*
X509899Y253837D01*
X510274Y253274D01*
X510837Y252899D01*
X511500Y252767D01*
X512163Y252899D01*
X512726Y253274D01*
X512795Y253379D01*
X522535D01*
X523707Y252207D01*
X524071Y251964D01*
X524500Y251878D01*
X524500Y251878D01*
X527205D01*
X527274Y251774D01*
X527837Y251399D01*
X528500Y251267D01*
X529163Y251399D01*
X529207Y251428D01*
X529928Y250707D01*
X529899Y250663D01*
X529767Y250000D01*
X529899Y249337D01*
X529989Y249201D01*
X529428Y248314D01*
X529388Y248307D01*
X528357Y248529D01*
X528226Y248726D01*
X527663Y249101D01*
X527000Y249233D01*
X526337Y249101D01*
X525774Y248726D01*
X525399Y248163D01*
X525267Y247500D01*
X525399Y246837D01*
X525774Y246274D01*
X525878Y246205D01*
Y219122D01*
X524888Y218712D01*
X524873Y218713D01*
X522045Y221541D01*
X522142Y221998D01*
X522443Y222557D01*
X522916Y222651D01*
X523478Y223027D01*
X523854Y223589D01*
X523986Y224253D01*
X523854Y224916D01*
X523478Y225478D01*
X523374Y225548D01*
Y240747D01*
X523374Y240747D01*
X523289Y241176D01*
X523046Y241540D01*
X521980Y242606D01*
X522201Y242937D01*
X522333Y243600D01*
X522201Y244263D01*
X521826Y244826D01*
X521263Y245201D01*
X520600Y245333D01*
X520428Y245299D01*
X519743Y246182D01*
X519910Y246586D01*
X519964Y247000D01*
X517000D01*
Y244036D01*
X517414Y244090D01*
X517992Y244330D01*
X518678Y243909D01*
X518877Y243652D01*
X518867Y243600D01*
X518999Y242937D01*
X519374Y242374D01*
X519500Y242290D01*
X519564Y241971D01*
X519807Y241607D01*
X521131Y240283D01*
Y225548D01*
X521027Y225478D01*
X520651Y224916D01*
X520557Y224443D01*
X519998Y224142D01*
X519541Y224045D01*
X506998Y236588D01*
X506634Y236831D01*
X506205Y236917D01*
X506205Y236917D01*
X503577D01*
X503507Y237021D01*
X502945Y237397D01*
X502282Y237529D01*
X501618Y237397D01*
X500622Y237933D01*
Y253035D01*
X502293Y254707D01*
X502293Y254707D01*
X502536Y255071D01*
X502554Y255160D01*
X502726Y255274D01*
X503101Y255837D01*
X503162Y256140D01*
X504197Y256390D01*
X504274Y256274D01*
D02*
G37*
G36*
X597251Y210379D02*
X596895Y210105D01*
X596309Y209342D01*
X596011Y208622D01*
X593295D01*
X593226Y208726D01*
X592663Y209101D01*
X592000Y209233D01*
X591337Y209101D01*
X590774Y208726D01*
X590399Y208163D01*
X590267Y207500D01*
X590399Y206837D01*
X590774Y206274D01*
X591337Y205899D01*
X592000Y205767D01*
X592663Y205899D01*
X593226Y206274D01*
X593295Y206379D01*
X596011D01*
X596309Y205658D01*
X596895Y204895D01*
X597251Y204622D01*
X596911Y203622D01*
X576965D01*
X570131Y210455D01*
X570514Y211379D01*
X596911D01*
X597251Y210379D01*
D02*
G37*
%LPC*%
G36*
X517000Y250964D02*
Y248000D01*
X519964D01*
X519910Y248414D01*
X519557Y249265D01*
X518996Y249996D01*
X518265Y250557D01*
X517414Y250910D01*
X517000Y250964D01*
D02*
G37*
G36*
X516000D02*
X515586Y250910D01*
X514735Y250557D01*
X514004Y249996D01*
X513443Y249265D01*
X513090Y248414D01*
X513036Y248000D01*
X516000D01*
Y250964D01*
D02*
G37*
G36*
Y247000D02*
X513036D01*
X513090Y246586D01*
X513443Y245735D01*
X514004Y245004D01*
X514735Y244443D01*
X515586Y244090D01*
X516000Y244036D01*
Y247000D01*
D02*
G37*
G36*
X582500Y209440D02*
Y208000D01*
X583940D01*
X583884Y208280D01*
X583442Y208942D01*
X582780Y209384D01*
X582500Y209440D01*
D02*
G37*
G36*
X581500D02*
X581220Y209384D01*
X580558Y208942D01*
X580116Y208280D01*
X580060Y208000D01*
X581500D01*
Y209440D01*
D02*
G37*
G36*
X583940Y207000D02*
X582500D01*
Y205560D01*
X582780Y205616D01*
X583442Y206058D01*
X583884Y206720D01*
X583940Y207000D01*
D02*
G37*
G36*
X581500D02*
X580060D01*
X580116Y206720D01*
X580558Y206058D01*
X581220Y205616D01*
X581500Y205560D01*
Y207000D01*
D02*
G37*
%LPD*%
D10*
X441124Y242376D02*
X465376D01*
X466000Y243000D01*
X442500Y238000D02*
X461000D01*
X462500Y236500D01*
X439500Y251500D02*
X480173D01*
X481173Y252500D01*
X474500Y256000D02*
X475500Y255000D01*
X442500Y256000D02*
X474500D01*
D43*
X482000Y186500D02*
X483000D01*
X472000Y176500D02*
X482000Y186500D01*
X439500Y258500D02*
X478500D01*
X532911Y220089D02*
Y223089D01*
X530900Y225100D02*
X532911Y223089D01*
X530900Y225100D02*
Y235900D01*
X584000Y247500D02*
X599500D01*
X580000Y242500D02*
X604500D01*
X572000Y250500D02*
X580000Y242500D01*
X572000Y250500D02*
Y253000D01*
X474162Y167000D02*
X495662Y188500D01*
X444500Y167000D02*
X474162D01*
X474553Y171553D02*
X485087Y182087D01*
X445553Y171553D02*
X474553D01*
X445500Y171500D02*
X445553Y171553D01*
X445000Y157500D02*
X477500D01*
X509500Y189500D01*
X445000Y162500D02*
X476000D01*
X488000Y174500D01*
X445500Y176500D02*
X472000D01*
X441500Y174000D02*
X473500D01*
X492500Y193000D01*
X476000Y136000D02*
Y138000D01*
X492500Y154500D01*
X480000Y135985D02*
Y138000D01*
X522500Y186500D02*
X532000D01*
X498000Y147000D02*
Y148579D01*
X487000Y136000D02*
X498000Y147000D01*
X491000D02*
X493500Y149500D01*
X489000Y147000D02*
X491000D01*
X480000Y138000D02*
X489000Y147000D01*
X490000Y142500D02*
Y144500D01*
X483500Y136000D02*
X490000Y142500D01*
X475571Y192550D02*
X478050D01*
X475069Y193053D02*
X475571Y192550D01*
X363947Y193053D02*
X475069D01*
X359500Y197500D02*
X363947Y193053D01*
X539500Y202500D02*
X560000D01*
X506205Y235795D02*
X539500Y202500D01*
X493600Y259600D02*
X527400D01*
X491258Y257258D02*
X493600Y259600D01*
X499500Y253500D02*
X501500Y255500D01*
X499500Y216986D02*
Y253500D01*
X493514Y211000D02*
X499500Y216986D01*
X504500Y221000D02*
X506500D01*
Y224000D02*
X508000D01*
X545500Y186500D01*
X540500Y198500D02*
X542000D01*
X506309Y232691D02*
X540500Y198500D01*
X504191Y232691D02*
X506309D01*
X506500Y221000D02*
X540000Y187500D01*
X530900Y235900D02*
X536000Y241000D01*
X473000Y283000D02*
X500000D01*
X439500Y279000D02*
X463000D01*
X489000Y215500D02*
Y224000D01*
X467900Y245100D02*
X489000Y224000D01*
X465400Y245100D02*
X467900D01*
X496000Y264000D02*
X533500D01*
X494000Y266000D02*
X496000Y264000D01*
X492000Y266000D02*
X494000D01*
X498500Y266500D02*
X536000D01*
X495000Y270000D02*
X498500Y266500D01*
X500500Y269000D02*
X540500D01*
X496000Y273500D02*
X500500Y269000D01*
X502282Y235795D02*
X506205D01*
X520600Y242400D02*
Y243600D01*
Y242400D02*
X522253Y240747D01*
X524500Y253000D02*
X528500D01*
X523000Y254500D02*
X524500Y253000D01*
X511500Y254500D02*
X523000D01*
X522253Y224253D02*
Y240747D01*
X505500Y257500D02*
X523500D01*
X525500Y255500D01*
X501500D02*
Y256500D01*
X531000Y261500D02*
X531500Y261000D01*
X490500Y261500D02*
X531000D01*
X527400Y259600D02*
X529000Y258000D01*
X441814Y228686D02*
X448314D01*
X458000Y219000D01*
X439500Y233500D02*
X449000D01*
X457500Y225000D01*
X461000D01*
X458000Y219000D02*
X461500D01*
X463000Y247500D02*
X465400Y245100D01*
X463000Y279000D02*
X484000D01*
X463000Y279000D02*
X463000Y279000D01*
X492500Y193000D02*
X503000D01*
X495662Y188500D02*
X505000D01*
X509500Y189500D02*
Y208236D01*
X491500Y213000D02*
X497900Y219400D01*
X485000Y213000D02*
X491500D01*
X483913Y214087D02*
X485000Y213000D01*
X481500Y211000D02*
X493514D01*
X477500Y188500D02*
X480000D01*
X474447Y191553D02*
X477500Y188500D01*
X363553Y191553D02*
X474447D01*
X359500Y187500D02*
X363553Y191553D01*
X440500Y264500D02*
X454000D01*
X443000Y267500D02*
X451000D01*
X440000Y270000D02*
X453500D01*
X443000Y272500D02*
X457000D01*
X443000Y261500D02*
X448500D01*
X442500Y247500D02*
X463000D01*
X531500Y248672D02*
Y250000D01*
X527000Y218579D02*
Y247500D01*
Y218579D02*
X527500Y218079D01*
X536000Y241000D02*
X596000D01*
X533000Y230000D02*
X550500Y212500D01*
X530500Y215500D02*
Y218500D01*
X529000Y220000D02*
X530500Y218500D01*
X445000Y152484D02*
X455016D01*
X581500Y250500D02*
X582500D01*
X589500Y257500D01*
X529000Y246172D02*
X531500Y248672D01*
X545500Y233500D02*
Y234528D01*
X545972Y235000D01*
X576500Y202500D02*
X604500D01*
X609500Y197500D01*
X549500Y211000D02*
X568000D01*
X543016Y217484D02*
X549500Y211000D01*
X540000Y217484D02*
X543016D01*
X568000Y211000D02*
X576500Y202500D01*
X507000Y228500D02*
X540000Y195500D01*
X529000Y220000D02*
Y246172D01*
X545972Y235000D02*
X557500D01*
X560000Y232500D01*
X550500Y212500D02*
X604500D01*
X596000Y241000D02*
X599500Y237500D01*
X604500Y212500D02*
X609500Y207500D01*
X560000Y232500D02*
X604500D01*
X609500Y227500D01*
X604500Y242500D02*
X609500Y237500D01*
X589500Y257500D02*
X599500D01*
X588000Y217500D02*
X599500D01*
X592000Y207500D02*
X599500D01*
X497900Y219400D02*
Y256500D01*
X453500Y270000D02*
X456000Y267500D01*
X460000D01*
X359500Y276500D02*
Y277500D01*
D45*
X521500Y173000D02*
X524000D01*
X531000Y180000D01*
X556000D01*
X369500Y207500D02*
Y217500D01*
D48*
X599500Y307500D02*
D03*
X579500Y297500D02*
D03*
X359500Y307500D02*
D03*
D49*
X609500D02*
D03*
X599500Y297500D02*
D03*
X609500D02*
D03*
X599500Y287500D02*
D03*
X609500D02*
D03*
X599500Y277500D02*
D03*
X609500D02*
D03*
X599500Y267500D02*
D03*
X609500D02*
D03*
X599500Y257500D02*
D03*
X609500D02*
D03*
X599500Y247500D02*
D03*
X609500D02*
D03*
X599500Y237500D02*
D03*
X609500D02*
D03*
X599500Y227500D02*
D03*
X609500D02*
D03*
X599500Y217500D02*
D03*
X609500D02*
D03*
X599500Y207500D02*
D03*
X609500D02*
D03*
X599500Y197500D02*
D03*
X609500D02*
D03*
X599500Y187500D02*
D03*
X609500D02*
D03*
X599500Y177500D02*
D03*
X609500D02*
D03*
X599500Y167500D02*
D03*
X609500D02*
D03*
X599500Y157500D02*
D03*
X609500D02*
D03*
X599500Y147500D02*
D03*
X609500D02*
D03*
X599500Y137500D02*
D03*
X609500D02*
D03*
X599500Y127500D02*
D03*
X609500D02*
D03*
X404500Y236000D02*
D03*
X579500Y287500D02*
D03*
X369500Y307500D02*
D03*
X359500Y297500D02*
D03*
X369500D02*
D03*
X359500Y287500D02*
D03*
X369500D02*
D03*
X359500Y277500D02*
D03*
X369500D02*
D03*
X359500Y267500D02*
D03*
X369500D02*
D03*
X359500Y257500D02*
D03*
X369500D02*
D03*
X359500Y247500D02*
D03*
X369500D02*
D03*
X359500Y237500D02*
D03*
X369500D02*
D03*
X359500Y227500D02*
D03*
X369500D02*
D03*
X359500Y217500D02*
D03*
X369500D02*
D03*
X359500Y207500D02*
D03*
X369500D02*
D03*
X359500Y197500D02*
D03*
X369500D02*
D03*
X359500Y187500D02*
D03*
X369500D02*
D03*
X359500Y177500D02*
D03*
X369500D02*
D03*
X359500Y167500D02*
D03*
X369500D02*
D03*
X359500Y157500D02*
D03*
X369500D02*
D03*
X359500Y147500D02*
D03*
X369500D02*
D03*
X359500Y137500D02*
D03*
X369500D02*
D03*
X359500Y127500D02*
D03*
X369500D02*
D03*
X466000Y305000D02*
D03*
X476000D02*
D03*
X486000D02*
D03*
X496000D02*
D03*
X506000D02*
D03*
D50*
X394500Y236000D02*
D03*
X456000Y305000D02*
D03*
D51*
X483000Y186500D02*
D03*
X439500Y258500D02*
D03*
X570000Y245000D02*
D03*
Y236500D02*
D03*
Y228000D02*
D03*
X584000Y247500D02*
D03*
X444500Y167000D02*
D03*
X445500Y176500D02*
D03*
X441500Y174000D02*
D03*
X445500Y171500D02*
D03*
X445000Y162500D02*
D03*
Y157500D02*
D03*
X476000Y136000D02*
D03*
X480000Y135985D02*
D03*
X522500Y186500D02*
D03*
X492500Y154500D02*
D03*
X487000Y136000D02*
D03*
X483500D02*
D03*
X493500Y149500D02*
D03*
X490000Y144500D02*
D03*
X582000Y217500D02*
D03*
Y207500D02*
D03*
Y197500D02*
D03*
X560000Y202500D02*
D03*
X504000Y227500D02*
D03*
X504500Y221000D02*
D03*
X506500Y224000D02*
D03*
X545500Y186500D02*
D03*
X542000Y198500D02*
D03*
X540000Y187500D02*
D03*
Y195500D02*
D03*
X532911Y220089D02*
D03*
X492500Y227500D02*
D03*
X500000Y283000D02*
D03*
X476000Y287500D02*
D03*
X473000Y283000D02*
D03*
X488500Y230500D02*
D03*
X477000D02*
D03*
X476000Y275984D02*
D03*
X492000Y266000D02*
D03*
X495000Y270000D02*
D03*
X496000Y273500D02*
D03*
X504191Y232691D02*
D03*
X502282Y235795D02*
D03*
X520600Y243600D02*
D03*
X528500Y253000D02*
D03*
X572000D02*
D03*
X511500Y254500D02*
D03*
X522253Y224253D02*
D03*
X505500Y257500D02*
D03*
X501500Y256500D02*
D03*
X491258Y257258D02*
D03*
X490500Y261500D02*
D03*
X441124Y242376D02*
D03*
X442500Y238000D02*
D03*
X441814Y228686D02*
D03*
X439500Y233500D02*
D03*
X461000Y225000D02*
D03*
X440000Y295500D02*
D03*
Y279000D02*
D03*
X484000D02*
D03*
X532000Y186500D02*
D03*
X503000Y193000D02*
D03*
X505000Y188500D02*
D03*
X488000Y174500D02*
D03*
X489000Y215500D02*
D03*
X483913Y214087D02*
D03*
X481500Y211000D02*
D03*
X478050Y192550D02*
D03*
X480000Y188500D02*
D03*
X452500Y282500D02*
D03*
Y275500D02*
D03*
X439500Y251500D02*
D03*
X443000Y272500D02*
D03*
X440000Y270000D02*
D03*
X443000Y267500D02*
D03*
X440500Y264500D02*
D03*
X443000Y261500D02*
D03*
X442500Y256000D02*
D03*
Y247500D02*
D03*
X462500Y236500D02*
D03*
X531500Y250000D02*
D03*
X527000Y247500D02*
D03*
X529000Y258000D02*
D03*
X525500Y255500D02*
D03*
X540500Y269000D02*
D03*
X478500Y258500D02*
D03*
X475500Y255000D02*
D03*
X536000Y266500D02*
D03*
X533500Y264000D02*
D03*
X531500Y261000D02*
D03*
X530500Y215500D02*
D03*
X445000Y152484D02*
D03*
X455016D02*
D03*
X485142Y182032D02*
D03*
X503000Y154500D02*
D03*
X581500Y250500D02*
D03*
X545500Y233500D02*
D03*
X540000Y217484D02*
D03*
X507000Y228500D02*
D03*
X527500Y218079D02*
D03*
X533000Y229890D02*
D03*
X588000Y217500D02*
D03*
X592000Y207500D02*
D03*
X509500Y208236D02*
D03*
X498000Y148579D02*
D03*
X497900Y256600D02*
D03*
X481173Y252500D02*
D03*
X463000Y279000D02*
D03*
X448500Y261500D02*
D03*
X451000Y267500D02*
D03*
X454000Y264500D02*
D03*
X457000Y272500D02*
D03*
X460000Y267500D02*
D03*
X466000Y243000D02*
D03*
X463000Y247500D02*
D03*
X462000Y211500D02*
D03*
X461500Y219000D02*
D03*
D52*
X521500Y172953D02*
D03*
X421000Y134500D02*
D03*
X563500Y221000D02*
D03*
X516500Y247500D02*
D03*
X556000Y180000D02*
D03*
X533500Y275000D02*
D03*
X450000Y200000D02*
D03*
X400500Y225000D02*
D03*
X450000Y215000D02*
D03*
X409000Y300000D02*
D03*
X550500Y221500D02*
D03*
X394500Y184000D02*
D03*
X463500Y181500D02*
D03*
M02*
