G04*
G04 #@! TF.GenerationSoftware,Altium Limited,Altium Designer,19.1.7 (138)*
G04*
G04 Layer_Color=255*
%FSLAX25Y25*%
%MOIN*%
G70*
G01*
G75*
%ADD48R,0.05906X0.05906*%
%ADD49C,0.05906*%
%ADD50R,0.05906X0.05906*%
D48*
X599500Y307500D02*
D03*
X579500Y297500D02*
D03*
X359500Y307500D02*
D03*
D49*
X609500D02*
D03*
X599500Y297500D02*
D03*
X609500D02*
D03*
X599500Y287500D02*
D03*
X609500D02*
D03*
X599500Y277500D02*
D03*
X609500D02*
D03*
X599500Y267500D02*
D03*
X609500D02*
D03*
X599500Y257500D02*
D03*
X609500D02*
D03*
X599500Y247500D02*
D03*
X609500D02*
D03*
X599500Y237500D02*
D03*
X609500D02*
D03*
X599500Y227500D02*
D03*
X609500D02*
D03*
X599500Y217500D02*
D03*
X609500D02*
D03*
X599500Y207500D02*
D03*
X609500D02*
D03*
X599500Y197500D02*
D03*
X609500D02*
D03*
X599500Y187500D02*
D03*
X609500D02*
D03*
X599500Y177500D02*
D03*
X609500D02*
D03*
X599500Y167500D02*
D03*
X609500D02*
D03*
X599500Y157500D02*
D03*
X609500D02*
D03*
X599500Y147500D02*
D03*
X609500D02*
D03*
X599500Y137500D02*
D03*
X609500D02*
D03*
X599500Y127500D02*
D03*
X609500D02*
D03*
X404500Y236000D02*
D03*
X579500Y287500D02*
D03*
X369500Y307500D02*
D03*
X359500Y297500D02*
D03*
X369500D02*
D03*
X359500Y287500D02*
D03*
X369500D02*
D03*
X359500Y277500D02*
D03*
X369500D02*
D03*
X359500Y267500D02*
D03*
X369500D02*
D03*
X359500Y257500D02*
D03*
X369500D02*
D03*
X359500Y247500D02*
D03*
X369500D02*
D03*
X359500Y237500D02*
D03*
X369500D02*
D03*
X359500Y227500D02*
D03*
X369500D02*
D03*
X359500Y217500D02*
D03*
X369500D02*
D03*
X359500Y207500D02*
D03*
X369500D02*
D03*
X359500Y197500D02*
D03*
X369500D02*
D03*
X359500Y187500D02*
D03*
X369500D02*
D03*
X359500Y177500D02*
D03*
X369500D02*
D03*
X359500Y167500D02*
D03*
X369500D02*
D03*
X359500Y157500D02*
D03*
X369500D02*
D03*
X359500Y147500D02*
D03*
X369500D02*
D03*
X359500Y137500D02*
D03*
X369500D02*
D03*
X359500Y127500D02*
D03*
X369500D02*
D03*
X466000Y305000D02*
D03*
X476000D02*
D03*
X486000D02*
D03*
X496000D02*
D03*
X506000D02*
D03*
D50*
X394500Y236000D02*
D03*
X456000Y305000D02*
D03*
M02*
