G04*
G04 #@! TF.GenerationSoftware,Altium Limited,Altium Designer,19.1.7 (138)*
G04*
G04 Layer_Color=16711935*
%FSLAX25Y25*%
%MOIN*%
G70*
G01*
G75*
%ADD26C,0.06706*%
%ADD27R,0.06706X0.06706*%
%ADD28R,0.06706X0.06706*%
%ADD29C,0.05800*%
%ADD30C,0.02800*%
D26*
X584500Y187500D02*
D03*
Y177500D02*
D03*
X609500Y307500D02*
D03*
X599500Y297500D02*
D03*
X609500D02*
D03*
X599500Y287500D02*
D03*
X609500D02*
D03*
X599500Y277500D02*
D03*
X609500D02*
D03*
X599500Y267500D02*
D03*
X609500D02*
D03*
X599500Y257500D02*
D03*
X609500D02*
D03*
X599500Y247500D02*
D03*
X609500D02*
D03*
X599500Y237500D02*
D03*
X609500D02*
D03*
X599500Y227500D02*
D03*
X609500D02*
D03*
X599500Y217500D02*
D03*
X609500D02*
D03*
X599500Y207500D02*
D03*
X609500D02*
D03*
X599500Y197500D02*
D03*
X609500D02*
D03*
X599500Y187500D02*
D03*
X609500D02*
D03*
X599500Y177500D02*
D03*
X609500D02*
D03*
X599500Y167500D02*
D03*
X609500D02*
D03*
X599500Y157500D02*
D03*
X609500D02*
D03*
X599500Y147500D02*
D03*
X609500D02*
D03*
X599500Y137500D02*
D03*
X609500D02*
D03*
X599500Y127500D02*
D03*
X609500D02*
D03*
X581000Y227500D02*
D03*
X579500Y287500D02*
D03*
X369500Y307500D02*
D03*
X359500Y297500D02*
D03*
X369500D02*
D03*
X359500Y287500D02*
D03*
X369500D02*
D03*
X359500Y277500D02*
D03*
X369500D02*
D03*
X359500Y267500D02*
D03*
X369500D02*
D03*
X359500Y257500D02*
D03*
X369500D02*
D03*
X359500Y247500D02*
D03*
X369500D02*
D03*
X359500Y237500D02*
D03*
X369500D02*
D03*
X359500Y227500D02*
D03*
X369500D02*
D03*
X359500Y217500D02*
D03*
X369500D02*
D03*
X359500Y207500D02*
D03*
X369500D02*
D03*
X359500Y197500D02*
D03*
X369500D02*
D03*
X359500Y187500D02*
D03*
X369500D02*
D03*
X359500Y177500D02*
D03*
X369500D02*
D03*
X359500Y167500D02*
D03*
X369500D02*
D03*
X359500Y157500D02*
D03*
X369500D02*
D03*
X359500Y147500D02*
D03*
X369500D02*
D03*
X359500Y137500D02*
D03*
X369500D02*
D03*
X359500Y127500D02*
D03*
X369500D02*
D03*
X466000Y305000D02*
D03*
X476000D02*
D03*
X486000D02*
D03*
X496000D02*
D03*
X506000D02*
D03*
D27*
X584500Y167500D02*
D03*
X599500Y307500D02*
D03*
X581000Y217500D02*
D03*
X579500Y297500D02*
D03*
X359500Y307500D02*
D03*
D28*
X456000Y305000D02*
D03*
D29*
X388500Y277000D02*
D03*
X536500Y173000D02*
D03*
X383500Y117500D02*
D03*
X383500Y153000D02*
D03*
X400000Y238000D02*
D03*
Y228000D02*
D03*
X396500Y132000D02*
D03*
X550500Y221500D02*
D03*
X394500Y184000D02*
D03*
X523000Y173000D02*
D03*
X463500Y181500D02*
D03*
X450000Y200000D02*
D03*
D30*
X541000Y206500D02*
D03*
X545500Y199000D02*
D03*
X462500Y160000D02*
D03*
X383500Y160000D02*
D03*
X462500Y169500D02*
D03*
Y165000D02*
D03*
X515000Y193000D02*
D03*
X517500Y187000D02*
D03*
X400000Y250000D02*
D03*
Y244500D02*
D03*
X377000Y250000D02*
D03*
Y276500D02*
D03*
Y266000D02*
D03*
Y258500D02*
D03*
X377000Y289000D02*
D03*
Y295000D02*
D03*
Y300000D02*
D03*
Y310500D02*
D03*
Y305000D02*
D03*
X583000Y206500D02*
D03*
Y199000D02*
D03*
X572500Y254500D02*
D03*
X511555Y252500D02*
D03*
X517000Y248500D02*
D03*
X561000Y244500D02*
D03*
X561000Y237500D02*
D03*
Y221500D02*
D03*
Y207500D02*
D03*
X561000Y191500D02*
D03*
Y165500D02*
D03*
Y175500D02*
D03*
X533500Y275000D02*
D03*
X383500Y145000D02*
D03*
Y125500D02*
D03*
X383500Y133000D02*
D03*
X383500Y140000D02*
D03*
Y165000D02*
D03*
X383500Y180000D02*
D03*
X383500Y169500D02*
D03*
X476000Y283000D02*
D03*
X478836Y193836D02*
D03*
X530500Y215500D02*
D03*
X445000Y152484D02*
D03*
X455016D02*
D03*
X439500Y275000D02*
D03*
X493000Y150000D02*
D03*
X481000Y190500D02*
D03*
X483142Y187500D02*
D03*
X485142Y182032D02*
D03*
X487110Y173531D02*
D03*
X503000Y154500D02*
D03*
X585500Y260500D02*
D03*
X584000Y265000D02*
D03*
X583000Y258000D02*
D03*
X580000Y255500D02*
D03*
X491000Y260000D02*
D03*
X581500Y250500D02*
D03*
X490500Y264500D02*
D03*
X490000Y268000D02*
D03*
Y271500D02*
D03*
X479205Y258500D02*
D03*
X476000Y275984D02*
D03*
X531500Y250000D02*
D03*
X501500Y255500D02*
D03*
X505500Y257000D02*
D03*
X545500Y233500D02*
D03*
X550000Y200000D02*
D03*
X540000Y217484D02*
D03*
X558000Y205000D02*
D03*
X585000Y152484D02*
D03*
X564000Y179500D02*
D03*
X531500Y222984D02*
D03*
X536000Y220000D02*
D03*
X527500Y247500D02*
D03*
Y218079D02*
D03*
X521500Y242484D02*
D03*
Y223984D02*
D03*
X535500Y235500D02*
D03*
X533000Y229890D02*
D03*
X584000Y247500D02*
D03*
X588000Y217500D02*
D03*
X590000Y197500D02*
D03*
X592000Y207500D02*
D03*
X574500Y169500D02*
D03*
X569500Y171000D02*
D03*
X498000Y148579D02*
D03*
X495500Y154500D02*
D03*
X490000Y145500D02*
D03*
X497900Y256600D02*
D03*
X491500Y256500D02*
D03*
X481173Y252500D02*
D03*
X477236Y255000D02*
D03*
X502000Y284000D02*
D03*
X491000Y279000D02*
D03*
X463000D02*
D03*
X448500Y261500D02*
D03*
X451000Y267500D02*
D03*
X454000Y264500D02*
D03*
X457000Y272500D02*
D03*
X460000Y267500D02*
D03*
X466000Y243000D02*
D03*
X463000Y247500D02*
D03*
X462500Y235795D02*
D03*
X462000Y211500D02*
D03*
X461500Y219000D02*
D03*
X503000Y194000D02*
D03*
X505000Y190500D02*
D03*
M02*
