G04*
G04 #@! TF.GenerationSoftware,Altium Limited,Altium Designer,19.1.7 (138)*
G04*
G04 Layer_Physical_Order=2*
G04 Layer_Color=16711680*
%FSLAX25Y25*%
%MOIN*%
G70*
G01*
G75*
%ADD27C,0.36000*%
%ADD28C,0.23622*%
%ADD29R,0.23622X0.23622*%
%ADD30C,0.12000*%
%ADD31C,0.22000*%
%ADD32C,0.06000*%
%ADD33R,0.05543X0.05543*%
%ADD34C,0.05543*%
%ADD35C,0.20000*%
G36*
X1078500Y347500D02*
Y43500D01*
X909302D01*
X909185Y44000D01*
X911024Y44907D01*
X913422Y46509D01*
X915590Y48410D01*
X917491Y50578D01*
X919093Y52976D01*
X920369Y55563D01*
X921296Y58294D01*
X921859Y61122D01*
X922047Y64000D01*
X921859Y66878D01*
X921296Y69706D01*
X920369Y72437D01*
X919093Y75024D01*
X917491Y77421D01*
X915590Y79590D01*
X913422Y81491D01*
X911024Y83093D01*
X908437Y84369D01*
X905706Y85296D01*
X902878Y85859D01*
X900000Y86047D01*
X897122Y85859D01*
X894294Y85296D01*
X891563Y84369D01*
X888976Y83093D01*
X886578Y81491D01*
X884410Y79590D01*
X882509Y77421D01*
X880907Y75024D01*
X879631Y72437D01*
X878704Y69706D01*
X878141Y66878D01*
X877953Y64000D01*
X878141Y61122D01*
X878704Y58294D01*
X879631Y55563D01*
X880907Y52976D01*
X882509Y50578D01*
X884410Y48410D01*
X886578Y46509D01*
X888976Y44907D01*
X890815Y44000D01*
X890698Y43500D01*
X858113D01*
X858031Y43993D01*
X858437Y44131D01*
X861024Y45407D01*
X863422Y47009D01*
X865590Y48910D01*
X867491Y51078D01*
X869093Y53476D01*
X870369Y56063D01*
X871296Y58794D01*
X871859Y61622D01*
X872047Y64500D01*
X871859Y67378D01*
X871296Y70206D01*
X870369Y72937D01*
X869093Y75524D01*
X867491Y77921D01*
X865590Y80090D01*
X863422Y81991D01*
X861024Y83593D01*
X858437Y84869D01*
X855706Y85796D01*
X852878Y86359D01*
X850000Y86547D01*
X847122Y86359D01*
X844294Y85796D01*
X841563Y84869D01*
X838976Y83593D01*
X836578Y81991D01*
X834410Y80090D01*
X832509Y77921D01*
X830907Y75524D01*
X829631Y72937D01*
X828704Y70206D01*
X828141Y67378D01*
X827953Y64500D01*
X828141Y61622D01*
X828704Y58794D01*
X829631Y56063D01*
X830907Y53476D01*
X832509Y51078D01*
X834410Y48910D01*
X836578Y47009D01*
X838976Y45407D01*
X841563Y44131D01*
X841969Y43993D01*
X841887Y43500D01*
X809302D01*
X809185Y44000D01*
X811024Y44907D01*
X813422Y46509D01*
X815590Y48410D01*
X817491Y50578D01*
X819093Y52976D01*
X820369Y55563D01*
X821296Y58294D01*
X821859Y61122D01*
X822047Y64000D01*
X821859Y66878D01*
X821296Y69706D01*
X820369Y72437D01*
X819093Y75024D01*
X817491Y77421D01*
X815590Y79590D01*
X813422Y81491D01*
X811024Y83093D01*
X808437Y84369D01*
X805706Y85296D01*
X802878Y85859D01*
X800000Y86047D01*
X797122Y85859D01*
X794294Y85296D01*
X791563Y84369D01*
X788976Y83093D01*
X786579Y81491D01*
X784410Y79590D01*
X782509Y77421D01*
X780907Y75024D01*
X779631Y72437D01*
X778704Y69706D01*
X778141Y66878D01*
X777953Y64000D01*
X778141Y61122D01*
X778704Y58294D01*
X779631Y55563D01*
X780907Y52976D01*
X782509Y50578D01*
X784410Y48410D01*
X786579Y46509D01*
X788976Y44907D01*
X790815Y44000D01*
X790698Y43500D01*
X709302D01*
X709185Y44000D01*
X711024Y44907D01*
X713421Y46509D01*
X715590Y48410D01*
X717491Y50578D01*
X719093Y52976D01*
X720369Y55563D01*
X721296Y58294D01*
X721859Y61122D01*
X722047Y64000D01*
X721859Y66878D01*
X721296Y69706D01*
X720369Y72437D01*
X719093Y75024D01*
X717491Y77421D01*
X715590Y79590D01*
X713421Y81491D01*
X711024Y83093D01*
X708437Y84369D01*
X705706Y85296D01*
X702878Y85859D01*
X700000Y86047D01*
X697122Y85859D01*
X694294Y85296D01*
X691563Y84369D01*
X688976Y83093D01*
X686579Y81491D01*
X684410Y79590D01*
X682509Y77421D01*
X680907Y75024D01*
X679631Y72437D01*
X678704Y69706D01*
X678141Y66878D01*
X677953Y64000D01*
X678141Y61122D01*
X678704Y58294D01*
X679631Y55563D01*
X680907Y52976D01*
X682509Y50578D01*
X684410Y48410D01*
X686579Y46509D01*
X688976Y44907D01*
X690815Y44000D01*
X690698Y43500D01*
X659302D01*
X659185Y44000D01*
X661024Y44907D01*
X663421Y46509D01*
X665590Y48410D01*
X667491Y50578D01*
X669093Y52976D01*
X670369Y55563D01*
X671296Y58294D01*
X671859Y61122D01*
X672047Y64000D01*
X671859Y66878D01*
X671296Y69706D01*
X670369Y72437D01*
X669093Y75024D01*
X667491Y77421D01*
X665590Y79590D01*
X663421Y81491D01*
X661024Y83093D01*
X658437Y84369D01*
X655706Y85296D01*
X652878Y85859D01*
X650000Y86047D01*
X647122Y85859D01*
X644294Y85296D01*
X641563Y84369D01*
X638976Y83093D01*
X636579Y81491D01*
X634410Y79590D01*
X632509Y77421D01*
X630907Y75024D01*
X629631Y72437D01*
X628704Y69706D01*
X628141Y66878D01*
X627953Y64000D01*
X628141Y61122D01*
X628704Y58294D01*
X629631Y55563D01*
X630907Y52976D01*
X632509Y50578D01*
X634410Y48410D01*
X636579Y46509D01*
X638976Y44907D01*
X640815Y44000D01*
X640698Y43500D01*
X609302D01*
X609185Y44000D01*
X611024Y44907D01*
X613421Y46509D01*
X615590Y48410D01*
X617491Y50578D01*
X619093Y52976D01*
X620369Y55563D01*
X621296Y58294D01*
X621859Y61122D01*
X622047Y64000D01*
X621859Y66878D01*
X621296Y69706D01*
X620369Y72437D01*
X619093Y75024D01*
X617491Y77421D01*
X615590Y79590D01*
X613421Y81491D01*
X611024Y83093D01*
X608437Y84369D01*
X605706Y85296D01*
X602878Y85859D01*
X600000Y86047D01*
X597122Y85859D01*
X594294Y85296D01*
X591563Y84369D01*
X588976Y83093D01*
X586579Y81491D01*
X584410Y79590D01*
X582509Y77421D01*
X580907Y75024D01*
X579631Y72437D01*
X578704Y69706D01*
X578141Y66878D01*
X577953Y64000D01*
X578141Y61122D01*
X578704Y58294D01*
X579631Y55563D01*
X580907Y52976D01*
X582509Y50578D01*
X584410Y48410D01*
X586579Y46509D01*
X588976Y44907D01*
X590815Y44000D01*
X590698Y43500D01*
X3000Y43500D01*
Y58930D01*
X3500Y58950D01*
X3630Y57303D01*
X4144Y55160D01*
X4987Y53124D01*
X6139Y51246D01*
X7570Y49570D01*
X9246Y48139D01*
X11124Y46987D01*
X13160Y46144D01*
X15303Y45630D01*
X17500Y45457D01*
X19697Y45630D01*
X21840Y46144D01*
X23876Y46987D01*
X25754Y48139D01*
X27430Y49570D01*
X28861Y51246D01*
X30013Y53124D01*
X30856Y55160D01*
X31370Y57303D01*
X31543Y59500D01*
X31370Y61697D01*
X30856Y63840D01*
X30013Y65876D01*
X28861Y67754D01*
X27430Y69430D01*
X25754Y70861D01*
X23876Y72013D01*
X21840Y72856D01*
X19697Y73370D01*
X17500Y73543D01*
X15303Y73370D01*
X13160Y72856D01*
X11124Y72013D01*
X9246Y70861D01*
X7570Y69430D01*
X6139Y67754D01*
X4987Y65876D01*
X4144Y63840D01*
X3630Y61697D01*
X3500Y60050D01*
X3000Y60070D01*
Y347500D01*
X1078500Y347500D01*
D02*
G37*
%LPC*%
G36*
X584984Y345811D02*
X553362D01*
Y339190D01*
X552893Y339017D01*
X552041Y340014D01*
X550149Y341630D01*
X548027Y342931D01*
X545728Y343883D01*
X543308Y344464D01*
X540827Y344659D01*
X538346Y344464D01*
X535926Y343883D01*
X533627Y342931D01*
X531505Y341630D01*
X529612Y340014D01*
X527996Y338121D01*
X526695Y335999D01*
X525743Y333700D01*
X525162Y331280D01*
X524967Y328799D01*
X525162Y326318D01*
X525743Y323898D01*
X526695Y321599D01*
X527996Y319477D01*
X529612Y317585D01*
X531505Y315968D01*
X533627Y314668D01*
X535926Y313716D01*
X538346Y313135D01*
X540827Y312939D01*
X543308Y313135D01*
X545728Y313716D01*
X548027Y314668D01*
X550149Y315968D01*
X552041Y317585D01*
X552893Y318582D01*
X553362Y318409D01*
Y314189D01*
X584984D01*
Y345811D01*
D02*
G37*
G36*
X1008484Y345311D02*
X976862D01*
Y338690D01*
X976393Y338517D01*
X975541Y339514D01*
X973649Y341130D01*
X971527Y342430D01*
X969228Y343383D01*
X966808Y343964D01*
X964327Y344159D01*
X961846Y343964D01*
X959426Y343383D01*
X957127Y342430D01*
X955005Y341130D01*
X953112Y339514D01*
X951496Y337621D01*
X950196Y335500D01*
X949243Y333200D01*
X948662Y330780D01*
X948467Y328299D01*
X948662Y325818D01*
X949243Y323398D01*
X950196Y321099D01*
X951496Y318977D01*
X953112Y317085D01*
X955005Y315468D01*
X957127Y314168D01*
X959426Y313215D01*
X961846Y312635D01*
X964327Y312439D01*
X966808Y312635D01*
X969228Y313215D01*
X971527Y314168D01*
X973649Y315468D01*
X975541Y317085D01*
X976393Y318082D01*
X976862Y317909D01*
Y313689D01*
X1008484D01*
Y345311D01*
D02*
G37*
G36*
X794484D02*
X762862D01*
Y338690D01*
X762393Y338517D01*
X761541Y339514D01*
X759649Y341130D01*
X757527Y342430D01*
X755228Y343383D01*
X752808Y343964D01*
X750327Y344159D01*
X747846Y343964D01*
X745426Y343383D01*
X743126Y342430D01*
X741005Y341130D01*
X739112Y339514D01*
X737496Y337621D01*
X736196Y335500D01*
X735243Y333200D01*
X734662Y330780D01*
X734467Y328299D01*
X734662Y325818D01*
X735243Y323398D01*
X736196Y321099D01*
X737496Y318977D01*
X739112Y317085D01*
X741005Y315468D01*
X743126Y314168D01*
X745426Y313215D01*
X747846Y312635D01*
X750327Y312439D01*
X752808Y312635D01*
X755228Y313215D01*
X757527Y314168D01*
X759649Y315468D01*
X761541Y317085D01*
X762393Y318082D01*
X762862Y317909D01*
Y313689D01*
X794484D01*
Y345311D01*
D02*
G37*
G36*
X369984Y343811D02*
X338362D01*
Y337190D01*
X337893Y337017D01*
X337041Y338014D01*
X335149Y339630D01*
X333027Y340931D01*
X330728Y341883D01*
X328308Y342464D01*
X325827Y342659D01*
X323346Y342464D01*
X320926Y341883D01*
X318626Y340931D01*
X316505Y339630D01*
X314612Y338014D01*
X312996Y336121D01*
X311696Y333999D01*
X310743Y331700D01*
X310162Y329280D01*
X309967Y326799D01*
X310162Y324318D01*
X310743Y321898D01*
X311696Y319599D01*
X312996Y317477D01*
X314612Y315585D01*
X316505Y313968D01*
X318626Y312668D01*
X320926Y311716D01*
X323346Y311135D01*
X325827Y310939D01*
X328308Y311135D01*
X330728Y311716D01*
X333027Y312668D01*
X335149Y313968D01*
X337041Y315585D01*
X337893Y316582D01*
X338362Y316409D01*
Y312189D01*
X369984D01*
Y343811D01*
D02*
G37*
G36*
X156484Y343311D02*
X124862D01*
Y330819D01*
X124362Y330720D01*
X123777Y332133D01*
X122723Y333853D01*
X121414Y335386D01*
X119880Y336696D01*
X118161Y337749D01*
X116327Y338509D01*
Y326299D01*
Y314089D01*
X118161Y314849D01*
X119880Y315903D01*
X121414Y317212D01*
X122723Y318746D01*
X123777Y320465D01*
X124362Y321879D01*
X124862Y321779D01*
Y311689D01*
X156484D01*
Y343311D01*
D02*
G37*
G36*
X108327Y338509D02*
X106493Y337749D01*
X104773Y336696D01*
X103240Y335386D01*
X101930Y333853D01*
X100877Y332133D01*
X100117Y330299D01*
X108327D01*
Y338509D01*
D02*
G37*
G36*
X1060500Y346043D02*
X1058303Y345870D01*
X1056160Y345356D01*
X1054125Y344513D01*
X1052246Y343361D01*
X1050570Y341930D01*
X1049139Y340254D01*
X1047987Y338375D01*
X1047144Y336340D01*
X1046630Y334197D01*
X1046457Y332000D01*
X1046630Y329803D01*
X1047144Y327660D01*
X1047987Y325624D01*
X1049139Y323746D01*
X1050570Y322070D01*
X1052246Y320639D01*
X1054125Y319487D01*
X1056160Y318644D01*
X1058303Y318130D01*
X1060500Y317957D01*
X1062697Y318130D01*
X1064840Y318644D01*
X1066875Y319487D01*
X1068754Y320639D01*
X1070430Y322070D01*
X1071861Y323746D01*
X1073013Y325624D01*
X1073856Y327660D01*
X1074370Y329803D01*
X1074543Y332000D01*
X1074370Y334197D01*
X1073856Y336340D01*
X1073013Y338375D01*
X1071861Y340254D01*
X1070430Y341930D01*
X1068754Y343361D01*
X1066875Y344513D01*
X1064840Y345356D01*
X1062697Y345870D01*
X1060500Y346043D01*
D02*
G37*
G36*
X18000Y344543D02*
X15803Y344370D01*
X13660Y343856D01*
X11625Y343013D01*
X9746Y341861D01*
X8070Y340430D01*
X6639Y338754D01*
X5487Y336876D01*
X4644Y334840D01*
X4130Y332697D01*
X3957Y330500D01*
X4130Y328303D01*
X4644Y326160D01*
X5487Y324125D01*
X6639Y322246D01*
X8070Y320570D01*
X9746Y319139D01*
X11625Y317987D01*
X13660Y317144D01*
X15803Y316630D01*
X18000Y316457D01*
X20197Y316630D01*
X22340Y317144D01*
X24375Y317987D01*
X26254Y319139D01*
X27930Y320570D01*
X29361Y322246D01*
X30513Y324125D01*
X31356Y326160D01*
X31870Y328303D01*
X32043Y330500D01*
X31870Y332697D01*
X31356Y334840D01*
X30513Y336876D01*
X29361Y338754D01*
X27930Y340430D01*
X26254Y341861D01*
X24375Y343013D01*
X22340Y343856D01*
X20197Y344370D01*
X18000Y344543D01*
D02*
G37*
G36*
X108327Y322299D02*
X100117D01*
X100877Y320465D01*
X101930Y318746D01*
X103240Y317212D01*
X104773Y315903D01*
X106493Y314849D01*
X108327Y314089D01*
Y322299D01*
D02*
G37*
G36*
X145000Y268332D02*
Y261000D01*
X152332D01*
X151725Y262465D01*
X150738Y264075D01*
X149512Y265511D01*
X148075Y266738D01*
X146465Y267725D01*
X145000Y268332D01*
D02*
G37*
G36*
X137000D02*
X135535Y267725D01*
X133925Y266738D01*
X132489Y265511D01*
X131262Y264075D01*
X130275Y262465D01*
X129668Y261000D01*
X137000D01*
Y268332D01*
D02*
G37*
G36*
X687772Y327484D02*
X674228D01*
Y313941D01*
X674424D01*
X674711Y313538D01*
X674704Y313441D01*
X674326Y312198D01*
X674196Y310870D01*
X674326Y309543D01*
X674714Y308266D01*
X675342Y307090D01*
X676189Y306059D01*
Y305839D01*
X675342Y304808D01*
X674714Y303631D01*
X674326Y302355D01*
X674196Y301028D01*
X674326Y299700D01*
X674714Y298424D01*
X675342Y297247D01*
X676189Y296216D01*
Y295996D01*
X675342Y294965D01*
X674714Y293789D01*
X674326Y292512D01*
X674196Y291185D01*
X674326Y289858D01*
X674714Y288581D01*
X675342Y287405D01*
X676189Y286374D01*
Y286154D01*
X675342Y285123D01*
X674714Y283946D01*
X674326Y282670D01*
X674196Y281343D01*
X674326Y280015D01*
X674714Y278739D01*
X675342Y277562D01*
X676189Y276531D01*
Y276311D01*
X675342Y275280D01*
X674714Y274104D01*
X674326Y272828D01*
X674196Y271500D01*
X674326Y270173D01*
X674714Y268896D01*
X675342Y267720D01*
X676189Y266689D01*
Y266469D01*
X675342Y265438D01*
X674714Y264261D01*
X674326Y262985D01*
X674196Y261658D01*
X674326Y260330D01*
X674714Y259053D01*
X675342Y257877D01*
X676189Y256846D01*
X677220Y256000D01*
X678396Y255371D01*
X679672Y254984D01*
X681000Y254853D01*
X682328Y254984D01*
X683604Y255371D01*
X684780Y256000D01*
X685811Y256846D01*
X686658Y257877D01*
X687287Y259053D01*
X687674Y260330D01*
X687804Y261658D01*
X687674Y262985D01*
X687287Y264261D01*
X686658Y265438D01*
X685811Y266469D01*
Y266689D01*
X686658Y267720D01*
X687287Y268896D01*
X687674Y270173D01*
X687804Y271500D01*
X687674Y272828D01*
X687287Y274104D01*
X686658Y275280D01*
X685811Y276311D01*
Y276531D01*
X686658Y277562D01*
X687287Y278739D01*
X687674Y280015D01*
X687804Y281343D01*
X687674Y282670D01*
X687287Y283946D01*
X686658Y285123D01*
X685811Y286154D01*
Y286374D01*
X686658Y287405D01*
X687287Y288581D01*
X687674Y289858D01*
X687804Y291185D01*
X687674Y292512D01*
X687287Y293789D01*
X686658Y294965D01*
X685811Y295996D01*
Y296216D01*
X686658Y297247D01*
X687287Y298424D01*
X687674Y299700D01*
X687804Y301028D01*
X687674Y302355D01*
X687287Y303631D01*
X686658Y304808D01*
X685811Y305839D01*
Y306059D01*
X686658Y307090D01*
X687287Y308266D01*
X687674Y309543D01*
X687804Y310870D01*
X687674Y312198D01*
X687296Y313441D01*
X687289Y313538D01*
X687576Y313941D01*
X687772D01*
Y327484D01*
D02*
G37*
G36*
X55772Y327457D02*
X42228D01*
Y313913D01*
X42424D01*
X42711Y313510D01*
X42704Y313413D01*
X42326Y312170D01*
X42196Y310842D01*
X42326Y309515D01*
X42713Y308239D01*
X43342Y307062D01*
X44188Y306031D01*
Y305811D01*
X43342Y304780D01*
X42713Y303604D01*
X42326Y302327D01*
X42196Y301000D01*
X42326Y299673D01*
X42713Y298396D01*
X43342Y297220D01*
X44188Y296189D01*
Y295969D01*
X43342Y294938D01*
X42713Y293761D01*
X42326Y292485D01*
X42196Y291158D01*
X42326Y289830D01*
X42713Y288554D01*
X43342Y287377D01*
X44188Y286346D01*
Y286126D01*
X43342Y285095D01*
X42713Y283919D01*
X42326Y282642D01*
X42196Y281315D01*
X42326Y279988D01*
X42713Y278711D01*
X43342Y277535D01*
X44188Y276503D01*
Y276284D01*
X43342Y275253D01*
X42713Y274076D01*
X42326Y272800D01*
X42196Y271472D01*
X42326Y270145D01*
X42713Y268868D01*
X43342Y267692D01*
X44188Y266661D01*
Y266441D01*
X43342Y265410D01*
X42713Y264234D01*
X42326Y262957D01*
X42196Y261630D01*
X42326Y260302D01*
X42713Y259026D01*
X43342Y257850D01*
X44188Y256819D01*
X45220Y255972D01*
X46396Y255344D01*
X47673Y254956D01*
X49000Y254825D01*
X50327Y254956D01*
X51604Y255344D01*
X52780Y255972D01*
X53812Y256819D01*
X54658Y257850D01*
X55287Y259026D01*
X55674Y260302D01*
X55804Y261630D01*
X55674Y262957D01*
X55287Y264234D01*
X54658Y265410D01*
X53812Y266441D01*
Y266661D01*
X54658Y267692D01*
X55287Y268868D01*
X55674Y270145D01*
X55804Y271472D01*
X55674Y272800D01*
X55287Y274076D01*
X54658Y275253D01*
X53812Y276284D01*
Y276503D01*
X54658Y277535D01*
X55287Y278711D01*
X55674Y279988D01*
X55804Y281315D01*
X55674Y282642D01*
X55287Y283919D01*
X54658Y285095D01*
X53812Y286126D01*
Y286346D01*
X54658Y287377D01*
X55287Y288554D01*
X55674Y289830D01*
X55804Y291158D01*
X55674Y292485D01*
X55287Y293761D01*
X54658Y294938D01*
X53812Y295969D01*
Y296189D01*
X54658Y297220D01*
X55287Y298396D01*
X55674Y299673D01*
X55804Y301000D01*
X55674Y302327D01*
X55287Y303604D01*
X54658Y304780D01*
X53812Y305811D01*
Y306031D01*
X54658Y307062D01*
X55287Y308239D01*
X55674Y309515D01*
X55804Y310842D01*
X55674Y312170D01*
X55296Y313413D01*
X55289Y313510D01*
X55576Y313913D01*
X55772D01*
Y327457D01*
D02*
G37*
G36*
X478272Y326984D02*
X464728D01*
Y313441D01*
X464924D01*
X465211Y313038D01*
X465204Y312941D01*
X464826Y311698D01*
X464696Y310370D01*
X464826Y309043D01*
X465213Y307766D01*
X465842Y306590D01*
X466689Y305559D01*
Y305339D01*
X465842Y304308D01*
X465213Y303132D01*
X464826Y301855D01*
X464696Y300528D01*
X464826Y299200D01*
X465213Y297924D01*
X465842Y296747D01*
X466689Y295716D01*
Y295497D01*
X465842Y294465D01*
X465213Y293289D01*
X464826Y292013D01*
X464696Y290685D01*
X464826Y289358D01*
X465213Y288081D01*
X465842Y286905D01*
X466689Y285874D01*
Y285654D01*
X465842Y284623D01*
X465213Y283447D01*
X464826Y282170D01*
X464696Y280842D01*
X464826Y279515D01*
X465213Y278239D01*
X465842Y277062D01*
X466689Y276031D01*
Y275811D01*
X465842Y274780D01*
X465213Y273604D01*
X464826Y272327D01*
X464696Y271000D01*
X464826Y269672D01*
X465213Y268396D01*
X465842Y267220D01*
X466689Y266189D01*
Y265969D01*
X465842Y264938D01*
X465213Y263761D01*
X464826Y262485D01*
X464696Y261157D01*
X464826Y259830D01*
X465213Y258554D01*
X465842Y257377D01*
X466689Y256346D01*
X467720Y255500D01*
X468896Y254871D01*
X470173Y254484D01*
X471500Y254353D01*
X472827Y254484D01*
X474104Y254871D01*
X475280Y255500D01*
X476311Y256346D01*
X477158Y257377D01*
X477786Y258554D01*
X478174Y259830D01*
X478304Y261157D01*
X478174Y262485D01*
X477786Y263761D01*
X477158Y264938D01*
X476311Y265969D01*
Y266189D01*
X477158Y267220D01*
X477786Y268396D01*
X478174Y269672D01*
X478304Y271000D01*
X478174Y272327D01*
X477786Y273604D01*
X477158Y274780D01*
X476311Y275811D01*
Y276031D01*
X477158Y277062D01*
X477786Y278239D01*
X478174Y279515D01*
X478304Y280842D01*
X478174Y282170D01*
X477786Y283447D01*
X477158Y284623D01*
X476311Y285654D01*
Y285874D01*
X477158Y286905D01*
X477786Y288081D01*
X478174Y289358D01*
X478304Y290685D01*
X478174Y292013D01*
X477786Y293289D01*
X477158Y294465D01*
X476311Y295497D01*
Y295716D01*
X477158Y296747D01*
X477786Y297924D01*
X478174Y299200D01*
X478304Y300528D01*
X478174Y301855D01*
X477786Y303132D01*
X477158Y304308D01*
X476311Y305339D01*
Y305559D01*
X477158Y306590D01*
X477786Y307766D01*
X478174Y309043D01*
X478304Y310370D01*
X478174Y311698D01*
X477797Y312941D01*
X477789Y313038D01*
X478076Y313441D01*
X478272D01*
Y326984D01*
D02*
G37*
G36*
X268272Y326772D02*
X254728D01*
Y313228D01*
X254924D01*
X255211Y312825D01*
X255204Y312728D01*
X254826Y311485D01*
X254696Y310157D01*
X254826Y308830D01*
X255213Y307554D01*
X255842Y306377D01*
X256688Y305346D01*
Y305126D01*
X255842Y304095D01*
X255213Y302919D01*
X254826Y301642D01*
X254696Y300315D01*
X254826Y298988D01*
X255213Y297711D01*
X255842Y296535D01*
X256688Y295503D01*
Y295284D01*
X255842Y294253D01*
X255213Y293076D01*
X254826Y291800D01*
X254696Y290472D01*
X254826Y289145D01*
X255213Y287868D01*
X255842Y286692D01*
X256688Y285661D01*
Y285441D01*
X255842Y284410D01*
X255213Y283234D01*
X254826Y281957D01*
X254696Y280630D01*
X254826Y279302D01*
X255213Y278026D01*
X255842Y276850D01*
X256688Y275818D01*
Y275599D01*
X255842Y274568D01*
X255213Y273391D01*
X254826Y272115D01*
X254696Y270787D01*
X254826Y269460D01*
X255213Y268183D01*
X255842Y267007D01*
X256688Y265976D01*
Y265756D01*
X255842Y264725D01*
X255213Y263549D01*
X254826Y262272D01*
X254696Y260945D01*
X254826Y259617D01*
X255213Y258341D01*
X255842Y257165D01*
X256688Y256133D01*
X257720Y255287D01*
X258896Y254658D01*
X260173Y254271D01*
X261500Y254140D01*
X262827Y254271D01*
X264104Y254658D01*
X265280Y255287D01*
X266312Y256133D01*
X267158Y257165D01*
X267787Y258341D01*
X268174Y259617D01*
X268304Y260945D01*
X268174Y262272D01*
X267787Y263549D01*
X267158Y264725D01*
X266312Y265756D01*
Y265976D01*
X267158Y267007D01*
X267787Y268183D01*
X268174Y269460D01*
X268304Y270787D01*
X268174Y272115D01*
X267787Y273391D01*
X267158Y274568D01*
X266312Y275599D01*
Y275818D01*
X267158Y276850D01*
X267787Y278026D01*
X268174Y279302D01*
X268304Y280630D01*
X268174Y281957D01*
X267787Y283234D01*
X267158Y284410D01*
X266312Y285441D01*
Y285661D01*
X267158Y286692D01*
X267787Y287868D01*
X268174Y289145D01*
X268304Y290472D01*
X268174Y291800D01*
X267787Y293076D01*
X267158Y294253D01*
X266312Y295284D01*
Y295503D01*
X267158Y296535D01*
X267787Y297711D01*
X268174Y298988D01*
X268304Y300315D01*
X268174Y301642D01*
X267787Y302919D01*
X267158Y304095D01*
X266312Y305126D01*
Y305346D01*
X267158Y306377D01*
X267787Y307554D01*
X268174Y308830D01*
X268304Y310157D01*
X268174Y311485D01*
X267796Y312728D01*
X267789Y312825D01*
X268076Y313228D01*
X268272D01*
Y326772D01*
D02*
G37*
G36*
X89500Y267534D02*
X88128Y267399D01*
X86808Y266999D01*
X85592Y266349D01*
X84526Y265474D01*
X83652Y264408D01*
X83002Y263192D01*
X82601Y261872D01*
X82466Y260500D01*
X82601Y259128D01*
X83002Y257808D01*
X83652Y256592D01*
X84526Y255526D01*
X85592Y254651D01*
X86808Y254001D01*
X88128Y253601D01*
X89500Y253466D01*
X90872Y253601D01*
X92192Y254001D01*
X93408Y254651D01*
X94474Y255526D01*
X95349Y256592D01*
X95999Y257808D01*
X96399Y259128D01*
X96534Y260500D01*
X96399Y261872D01*
X95999Y263192D01*
X95349Y264408D01*
X94474Y265474D01*
X93408Y266349D01*
X92192Y266999D01*
X90872Y267399D01*
X89500Y267534D01*
D02*
G37*
G36*
X720500Y267034D02*
X719128Y266899D01*
X717808Y266498D01*
X716592Y265848D01*
X715526Y264974D01*
X714652Y263908D01*
X714002Y262692D01*
X713601Y261372D01*
X713466Y260000D01*
X713601Y258628D01*
X714002Y257308D01*
X714652Y256092D01*
X715526Y255026D01*
X716592Y254152D01*
X717808Y253502D01*
X719128Y253101D01*
X720500Y252966D01*
X721872Y253101D01*
X723192Y253502D01*
X724408Y254152D01*
X725474Y255026D01*
X726348Y256092D01*
X726998Y257308D01*
X727399Y258628D01*
X727534Y260000D01*
X727399Y261372D01*
X726998Y262692D01*
X726348Y263908D01*
X725474Y264974D01*
X724408Y265848D01*
X723192Y266498D01*
X721872Y266899D01*
X720500Y267034D01*
D02*
G37*
G36*
X167000D02*
X165628Y266899D01*
X164308Y266498D01*
X163092Y265848D01*
X162026Y264974D01*
X161152Y263908D01*
X160502Y262692D01*
X160101Y261372D01*
X159966Y260000D01*
X160101Y258628D01*
X160502Y257308D01*
X161152Y256092D01*
X162026Y255026D01*
X163092Y254152D01*
X164308Y253502D01*
X165628Y253101D01*
X167000Y252966D01*
X168372Y253101D01*
X169692Y253502D01*
X170908Y254152D01*
X171974Y255026D01*
X172848Y256092D01*
X173498Y257308D01*
X173899Y258628D01*
X174034Y260000D01*
X173899Y261372D01*
X173498Y262692D01*
X172848Y263908D01*
X171974Y264974D01*
X170908Y265848D01*
X169692Y266498D01*
X168372Y266899D01*
X167000Y267034D01*
D02*
G37*
G36*
X798000Y266534D02*
X796628Y266399D01*
X795308Y265999D01*
X794092Y265349D01*
X793026Y264474D01*
X792152Y263408D01*
X791502Y262192D01*
X791101Y260872D01*
X790966Y259500D01*
X791101Y258128D01*
X791502Y256808D01*
X792152Y255592D01*
X793026Y254526D01*
X794092Y253651D01*
X795308Y253001D01*
X796628Y252601D01*
X798000Y252466D01*
X799372Y252601D01*
X800692Y253001D01*
X801908Y253651D01*
X802974Y254526D01*
X803848Y255592D01*
X804498Y256808D01*
X804899Y258128D01*
X805034Y259500D01*
X804899Y260872D01*
X804498Y262192D01*
X803848Y263408D01*
X802974Y264474D01*
X801908Y265349D01*
X800692Y265999D01*
X799372Y266399D01*
X798000Y266534D01*
D02*
G37*
G36*
X900772Y324642D02*
X887228D01*
Y311098D01*
X887424D01*
X887711Y310695D01*
X887704Y310598D01*
X887326Y309355D01*
X887196Y308028D01*
X887326Y306700D01*
X887714Y305424D01*
X888342Y304247D01*
X889189Y303216D01*
Y302996D01*
X888342Y301965D01*
X887714Y300789D01*
X887326Y299513D01*
X887196Y298185D01*
X887326Y296858D01*
X887714Y295581D01*
X888342Y294405D01*
X889189Y293374D01*
Y293154D01*
X888342Y292123D01*
X887714Y290947D01*
X887326Y289670D01*
X887196Y288342D01*
X887326Y287015D01*
X887714Y285739D01*
X888342Y284562D01*
X889189Y283531D01*
Y283311D01*
X888342Y282280D01*
X887714Y281104D01*
X887326Y279827D01*
X887196Y278500D01*
X887326Y277172D01*
X887714Y275896D01*
X888342Y274720D01*
X889189Y273689D01*
Y273469D01*
X888342Y272438D01*
X887714Y271261D01*
X887326Y269985D01*
X887196Y268657D01*
X887326Y267330D01*
X887714Y266054D01*
X888342Y264877D01*
X889189Y263846D01*
Y263626D01*
X888342Y262595D01*
X887714Y261419D01*
X887326Y260142D01*
X887196Y258815D01*
X887326Y257488D01*
X887714Y256211D01*
X888342Y255035D01*
X889189Y254004D01*
X890220Y253157D01*
X891396Y252529D01*
X892673Y252141D01*
X894000Y252010D01*
X895327Y252141D01*
X896604Y252529D01*
X897780Y253157D01*
X898811Y254004D01*
X899658Y255035D01*
X900286Y256211D01*
X900674Y257488D01*
X900804Y258815D01*
X900674Y260142D01*
X900286Y261419D01*
X899658Y262595D01*
X898811Y263626D01*
Y263846D01*
X899658Y264877D01*
X900286Y266054D01*
X900674Y267330D01*
X900804Y268657D01*
X900674Y269985D01*
X900286Y271261D01*
X899658Y272438D01*
X898811Y273469D01*
Y273689D01*
X899658Y274720D01*
X900286Y275896D01*
X900674Y277172D01*
X900804Y278500D01*
X900674Y279827D01*
X900286Y281104D01*
X899658Y282280D01*
X898811Y283311D01*
Y283531D01*
X899658Y284562D01*
X900286Y285739D01*
X900674Y287015D01*
X900804Y288342D01*
X900674Y289670D01*
X900286Y290947D01*
X899658Y292123D01*
X898811Y293154D01*
Y293374D01*
X899658Y294405D01*
X900286Y295581D01*
X900674Y296858D01*
X900804Y298185D01*
X900674Y299513D01*
X900286Y300789D01*
X899658Y301965D01*
X898811Y302996D01*
Y303216D01*
X899658Y304247D01*
X900286Y305424D01*
X900674Y306700D01*
X900804Y308028D01*
X900674Y309355D01*
X900296Y310598D01*
X900289Y310695D01*
X900576Y311098D01*
X900772D01*
Y324642D01*
D02*
G37*
G36*
X510500Y266034D02*
X509128Y265899D01*
X507808Y265498D01*
X506592Y264848D01*
X505526Y263974D01*
X504652Y262908D01*
X504002Y261692D01*
X503601Y260372D01*
X503466Y259000D01*
X503601Y257628D01*
X504002Y256308D01*
X504652Y255092D01*
X505526Y254026D01*
X506592Y253151D01*
X507808Y252502D01*
X509128Y252101D01*
X510500Y251966D01*
X511872Y252101D01*
X513192Y252502D01*
X514408Y253151D01*
X515474Y254026D01*
X516348Y255092D01*
X516998Y256308D01*
X517399Y257628D01*
X517534Y259000D01*
X517399Y260372D01*
X516998Y261692D01*
X516348Y262908D01*
X515474Y263974D01*
X514408Y264848D01*
X513192Y265498D01*
X511872Y265899D01*
X510500Y266034D01*
D02*
G37*
G36*
X588000Y265534D02*
X586628Y265399D01*
X585308Y264999D01*
X584092Y264349D01*
X583026Y263474D01*
X582152Y262408D01*
X581502Y261192D01*
X581101Y259872D01*
X580966Y258500D01*
X581101Y257128D01*
X581502Y255808D01*
X582152Y254592D01*
X583026Y253526D01*
X584092Y252652D01*
X585308Y252002D01*
X586628Y251601D01*
X588000Y251466D01*
X589372Y251601D01*
X590692Y252002D01*
X591908Y252652D01*
X592974Y253526D01*
X593848Y254592D01*
X594498Y255808D01*
X594899Y257128D01*
X595034Y258500D01*
X594899Y259872D01*
X594498Y261192D01*
X593848Y262408D01*
X592974Y263474D01*
X591908Y264349D01*
X590692Y264999D01*
X589372Y265399D01*
X588000Y265534D01*
D02*
G37*
G36*
X301000D02*
X299628Y265399D01*
X298308Y264999D01*
X297092Y264349D01*
X296026Y263474D01*
X295151Y262408D01*
X294501Y261192D01*
X294101Y259872D01*
X293966Y258500D01*
X294101Y257128D01*
X294501Y255808D01*
X295151Y254592D01*
X296026Y253526D01*
X297092Y252652D01*
X298308Y252002D01*
X299628Y251601D01*
X301000Y251466D01*
X302372Y251601D01*
X303692Y252002D01*
X304908Y252652D01*
X305974Y253526D01*
X306849Y254592D01*
X307499Y255808D01*
X307899Y257128D01*
X308034Y258500D01*
X307899Y259872D01*
X307499Y261192D01*
X306849Y262408D01*
X305974Y263474D01*
X304908Y264349D01*
X303692Y264999D01*
X302372Y265399D01*
X301000Y265534D01*
D02*
G37*
G36*
X378500Y265034D02*
X377128Y264899D01*
X375808Y264498D01*
X374592Y263848D01*
X373526Y262974D01*
X372652Y261908D01*
X372002Y260692D01*
X371601Y259372D01*
X371466Y258000D01*
X371601Y256628D01*
X372002Y255308D01*
X372652Y254092D01*
X373526Y253026D01*
X374592Y252151D01*
X375808Y251501D01*
X377128Y251101D01*
X378500Y250966D01*
X379872Y251101D01*
X381192Y251501D01*
X382408Y252151D01*
X383474Y253026D01*
X384349Y254092D01*
X384998Y255308D01*
X385399Y256628D01*
X385534Y258000D01*
X385399Y259372D01*
X384998Y260692D01*
X384349Y261908D01*
X383474Y262974D01*
X382408Y263848D01*
X381192Y264498D01*
X379872Y264899D01*
X378500Y265034D01*
D02*
G37*
G36*
X933500Y264534D02*
X932128Y264399D01*
X930808Y263999D01*
X929592Y263349D01*
X928526Y262474D01*
X927652Y261408D01*
X927001Y260192D01*
X926601Y258872D01*
X926466Y257500D01*
X926601Y256128D01*
X927001Y254808D01*
X927652Y253592D01*
X928526Y252526D01*
X929592Y251652D01*
X930808Y251002D01*
X932128Y250601D01*
X933500Y250466D01*
X934872Y250601D01*
X936192Y251002D01*
X937408Y251652D01*
X938474Y252526D01*
X939349Y253592D01*
X939999Y254808D01*
X940399Y256128D01*
X940534Y257500D01*
X940399Y258872D01*
X939999Y260192D01*
X939349Y261408D01*
X938474Y262474D01*
X937408Y263349D01*
X936192Y263999D01*
X934872Y264399D01*
X933500Y264534D01*
D02*
G37*
G36*
X1011000Y264034D02*
X1009628Y263899D01*
X1008308Y263498D01*
X1007092Y262848D01*
X1006026Y261974D01*
X1005151Y260908D01*
X1004502Y259692D01*
X1004101Y258372D01*
X1003966Y257000D01*
X1004101Y255628D01*
X1004502Y254308D01*
X1005151Y253092D01*
X1006026Y252026D01*
X1007092Y251151D01*
X1008308Y250501D01*
X1009628Y250101D01*
X1011000Y249966D01*
X1012372Y250101D01*
X1013692Y250501D01*
X1014908Y251151D01*
X1015974Y252026D01*
X1016848Y253092D01*
X1017498Y254308D01*
X1017899Y255628D01*
X1018034Y257000D01*
X1017899Y258372D01*
X1017498Y259692D01*
X1016848Y260908D01*
X1015974Y261974D01*
X1014908Y262848D01*
X1013692Y263498D01*
X1012372Y263899D01*
X1011000Y264034D01*
D02*
G37*
G36*
X152332Y253000D02*
X145000D01*
Y245668D01*
X146465Y246275D01*
X148075Y247262D01*
X149512Y248488D01*
X150738Y249925D01*
X151725Y251535D01*
X152332Y253000D01*
D02*
G37*
G36*
X137000D02*
X129668D01*
X130275Y251535D01*
X131262Y249925D01*
X132489Y248488D01*
X133925Y247262D01*
X135535Y246275D01*
X137000Y245668D01*
Y253000D01*
D02*
G37*
G36*
X772000Y271546D02*
X769646Y271361D01*
X767350Y270810D01*
X765169Y269906D01*
X763156Y268673D01*
X761361Y267139D01*
X759827Y265344D01*
X758594Y263331D01*
X757690Y261150D01*
X757139Y258854D01*
X756954Y256500D01*
X757139Y254146D01*
X757690Y251850D01*
X758594Y249669D01*
X759827Y247656D01*
X761361Y245861D01*
X763156Y244327D01*
X765169Y243094D01*
X767350Y242190D01*
X769646Y241639D01*
X772000Y241454D01*
X774354Y241639D01*
X776650Y242190D01*
X778831Y243094D01*
X780844Y244327D01*
X782639Y245861D01*
X784173Y247656D01*
X785406Y249669D01*
X786310Y251850D01*
X786861Y254146D01*
X787046Y256500D01*
X786861Y258854D01*
X786310Y261150D01*
X785406Y263331D01*
X784173Y265344D01*
X782639Y267139D01*
X780844Y268673D01*
X778831Y269906D01*
X776650Y270810D01*
X774354Y271361D01*
X772000Y271546D01*
D02*
G37*
G36*
X562000Y270546D02*
X559646Y270361D01*
X557350Y269810D01*
X555169Y268906D01*
X553156Y267673D01*
X551361Y266139D01*
X549827Y264344D01*
X548594Y262331D01*
X547690Y260150D01*
X547139Y257854D01*
X546954Y255500D01*
X547139Y253146D01*
X547690Y250850D01*
X548594Y248669D01*
X549827Y246656D01*
X551361Y244861D01*
X553156Y243327D01*
X555169Y242094D01*
X557350Y241190D01*
X559646Y240639D01*
X562000Y240454D01*
X564354Y240639D01*
X566650Y241190D01*
X568831Y242094D01*
X570844Y243327D01*
X572639Y244861D01*
X574173Y246656D01*
X575406Y248669D01*
X576310Y250850D01*
X576861Y253146D01*
X577046Y255500D01*
X576861Y257854D01*
X576310Y260150D01*
X575406Y262331D01*
X574173Y264344D01*
X572639Y266139D01*
X570844Y267673D01*
X568831Y268906D01*
X566650Y269810D01*
X564354Y270361D01*
X562000Y270546D01*
D02*
G37*
G36*
X352500Y270046D02*
X350146Y269861D01*
X347850Y269310D01*
X345669Y268406D01*
X343656Y267173D01*
X341861Y265639D01*
X340327Y263844D01*
X339094Y261831D01*
X338190Y259650D01*
X337639Y257354D01*
X337454Y255000D01*
X337639Y252646D01*
X338190Y250350D01*
X339094Y248169D01*
X340327Y246156D01*
X341861Y244361D01*
X343656Y242827D01*
X345669Y241594D01*
X347850Y240690D01*
X350146Y240139D01*
X352500Y239954D01*
X354854Y240139D01*
X357150Y240690D01*
X359331Y241594D01*
X361344Y242827D01*
X363139Y244361D01*
X364673Y246156D01*
X365906Y248169D01*
X366810Y250350D01*
X367361Y252646D01*
X367546Y255000D01*
X367361Y257354D01*
X366810Y259650D01*
X365906Y261831D01*
X364673Y263844D01*
X363139Y265639D01*
X361344Y267173D01*
X359331Y268406D01*
X357150Y269310D01*
X354854Y269861D01*
X352500Y270046D01*
D02*
G37*
G36*
X985000Y269046D02*
X982646Y268861D01*
X980350Y268310D01*
X978169Y267406D01*
X976156Y266173D01*
X974361Y264639D01*
X972827Y262844D01*
X971594Y260831D01*
X970690Y258650D01*
X970139Y256354D01*
X969954Y254000D01*
X970139Y251646D01*
X970690Y249350D01*
X971594Y247169D01*
X972827Y245156D01*
X974361Y243361D01*
X976156Y241827D01*
X978169Y240594D01*
X980350Y239690D01*
X982646Y239139D01*
X985000Y238954D01*
X987354Y239139D01*
X989650Y239690D01*
X991831Y240594D01*
X993844Y241827D01*
X995639Y243361D01*
X997173Y245156D01*
X998406Y247169D01*
X999310Y249350D01*
X999861Y251646D01*
X1000046Y254000D01*
X999861Y256354D01*
X999310Y258650D01*
X998406Y260831D01*
X997173Y262844D01*
X995639Y264639D01*
X993844Y266173D01*
X991831Y267406D01*
X989650Y268310D01*
X987354Y268861D01*
X985000Y269046D01*
D02*
G37*
G36*
X47000Y196534D02*
X45628Y196399D01*
X44308Y195999D01*
X43092Y195349D01*
X42026Y194474D01*
X41151Y193408D01*
X40501Y192192D01*
X40101Y190872D01*
X39966Y189500D01*
X40101Y188128D01*
X40501Y186808D01*
X41151Y185592D01*
X42026Y184526D01*
X43092Y183651D01*
X44308Y183001D01*
X45628Y182601D01*
X47000Y182466D01*
X48372Y182601D01*
X49692Y183001D01*
X50908Y183651D01*
X51974Y184526D01*
X52849Y185592D01*
X53499Y186808D01*
X53899Y188128D01*
X54034Y189500D01*
X53899Y190872D01*
X53499Y192192D01*
X52849Y193408D01*
X51974Y194474D01*
X50908Y195349D01*
X49692Y195999D01*
X48372Y196399D01*
X47000Y196534D01*
D02*
G37*
G36*
X678000Y196034D02*
X676628Y195899D01*
X675308Y195499D01*
X674092Y194849D01*
X673026Y193974D01*
X672152Y192908D01*
X671502Y191692D01*
X671101Y190372D01*
X670966Y189000D01*
X671101Y187628D01*
X671502Y186308D01*
X672152Y185092D01*
X673026Y184026D01*
X674092Y183151D01*
X675308Y182501D01*
X676628Y182101D01*
X678000Y181966D01*
X679372Y182101D01*
X680692Y182501D01*
X681908Y183151D01*
X682974Y184026D01*
X683848Y185092D01*
X684498Y186308D01*
X684899Y187628D01*
X685034Y189000D01*
X684899Y190372D01*
X684498Y191692D01*
X683848Y192908D01*
X682974Y193974D01*
X681908Y194849D01*
X680692Y195499D01*
X679372Y195899D01*
X678000Y196034D01*
D02*
G37*
G36*
X468000Y195034D02*
X466628Y194899D01*
X465308Y194499D01*
X464092Y193849D01*
X463026Y192974D01*
X462152Y191908D01*
X461502Y190692D01*
X461101Y189372D01*
X460966Y188000D01*
X461101Y186628D01*
X461502Y185308D01*
X462152Y184092D01*
X463026Y183026D01*
X464092Y182151D01*
X465308Y181501D01*
X466628Y181101D01*
X468000Y180966D01*
X469372Y181101D01*
X470692Y181501D01*
X471908Y182151D01*
X472974Y183026D01*
X473848Y184092D01*
X474498Y185308D01*
X474899Y186628D01*
X475034Y188000D01*
X474899Y189372D01*
X474498Y190692D01*
X473848Y191908D01*
X472974Y192974D01*
X471908Y193849D01*
X470692Y194499D01*
X469372Y194899D01*
X468000Y195034D01*
D02*
G37*
G36*
X258500Y194534D02*
X257128Y194399D01*
X255808Y193999D01*
X254592Y193349D01*
X253526Y192474D01*
X252652Y191408D01*
X252002Y190192D01*
X251601Y188872D01*
X251466Y187500D01*
X251601Y186128D01*
X252002Y184808D01*
X252652Y183592D01*
X253526Y182526D01*
X254592Y181651D01*
X255808Y181001D01*
X257128Y180601D01*
X258500Y180466D01*
X259872Y180601D01*
X261192Y181001D01*
X262408Y181651D01*
X263474Y182526D01*
X264349Y183592D01*
X264999Y184808D01*
X265399Y186128D01*
X265534Y187500D01*
X265399Y188872D01*
X264999Y190192D01*
X264349Y191408D01*
X263474Y192474D01*
X262408Y193349D01*
X261192Y193999D01*
X259872Y194399D01*
X258500Y194534D01*
D02*
G37*
G36*
X208500D02*
X207128Y194399D01*
X205808Y193999D01*
X204592Y193349D01*
X203526Y192474D01*
X202652Y191408D01*
X202002Y190192D01*
X201601Y188872D01*
X201466Y187500D01*
X201601Y186128D01*
X202002Y184808D01*
X202652Y183592D01*
X203526Y182526D01*
X204592Y181651D01*
X205808Y181001D01*
X207128Y180601D01*
X208500Y180466D01*
X209872Y180601D01*
X211192Y181001D01*
X212408Y181651D01*
X213474Y182526D01*
X214349Y183592D01*
X214999Y184808D01*
X215399Y186128D01*
X215534Y187500D01*
X215399Y188872D01*
X214999Y190192D01*
X214349Y191408D01*
X213474Y192474D01*
X212408Y193349D01*
X211192Y193999D01*
X209872Y194399D01*
X208500Y194534D01*
D02*
G37*
G36*
X839500Y194034D02*
X838128Y193899D01*
X836808Y193499D01*
X835592Y192849D01*
X834526Y191974D01*
X833652Y190908D01*
X833002Y189692D01*
X832601Y188372D01*
X832466Y187000D01*
X832601Y185628D01*
X833002Y184308D01*
X833652Y183092D01*
X834526Y182026D01*
X835592Y181151D01*
X836808Y180501D01*
X838128Y180101D01*
X839500Y179966D01*
X840872Y180101D01*
X842192Y180501D01*
X843408Y181151D01*
X844474Y182026D01*
X845348Y183092D01*
X845998Y184308D01*
X846399Y185628D01*
X846534Y187000D01*
X846399Y188372D01*
X845998Y189692D01*
X845348Y190908D01*
X844474Y191974D01*
X843408Y192849D01*
X842192Y193499D01*
X840872Y193899D01*
X839500Y194034D01*
D02*
G37*
G36*
X891000Y193534D02*
X889628Y193399D01*
X888308Y192999D01*
X887092Y192349D01*
X886026Y191474D01*
X885151Y190408D01*
X884501Y189192D01*
X884101Y187872D01*
X883966Y186500D01*
X884101Y185128D01*
X884501Y183808D01*
X885151Y182592D01*
X886026Y181526D01*
X887092Y180651D01*
X888308Y180001D01*
X889628Y179601D01*
X891000Y179466D01*
X892372Y179601D01*
X893692Y180001D01*
X894908Y180651D01*
X895974Y181526D01*
X896848Y182592D01*
X897499Y183808D01*
X897899Y185128D01*
X898034Y186500D01*
X897899Y187872D01*
X897499Y189192D01*
X896848Y190408D01*
X895974Y191474D01*
X894908Y192349D01*
X893692Y192999D01*
X892372Y193399D01*
X891000Y193534D01*
D02*
G37*
G36*
X629500Y193034D02*
X628128Y192899D01*
X626808Y192499D01*
X625592Y191849D01*
X624526Y190974D01*
X623652Y189908D01*
X623002Y188692D01*
X622601Y187372D01*
X622466Y186000D01*
X622601Y184628D01*
X623002Y183308D01*
X623652Y182092D01*
X624526Y181026D01*
X625592Y180151D01*
X626808Y179501D01*
X628128Y179101D01*
X629500Y178966D01*
X630872Y179101D01*
X632192Y179501D01*
X633408Y180151D01*
X634474Y181026D01*
X635348Y182092D01*
X635998Y183308D01*
X636399Y184628D01*
X636534Y186000D01*
X636399Y187372D01*
X635998Y188692D01*
X635348Y189908D01*
X634474Y190974D01*
X633408Y191849D01*
X632192Y192499D01*
X630872Y192899D01*
X629500Y193034D01*
D02*
G37*
G36*
X420000Y192534D02*
X418628Y192399D01*
X417308Y191999D01*
X416092Y191349D01*
X415026Y190474D01*
X414152Y189408D01*
X413502Y188192D01*
X413101Y186872D01*
X412966Y185500D01*
X413101Y184128D01*
X413502Y182808D01*
X414152Y181592D01*
X415026Y180526D01*
X416092Y179651D01*
X417308Y179001D01*
X418628Y178601D01*
X420000Y178466D01*
X421372Y178601D01*
X422692Y179001D01*
X423908Y179651D01*
X424974Y180526D01*
X425848Y181592D01*
X426498Y182808D01*
X426899Y184128D01*
X427034Y185500D01*
X426899Y186872D01*
X426498Y188192D01*
X425848Y189408D01*
X424974Y190474D01*
X423908Y191349D01*
X422692Y191999D01*
X421372Y192399D01*
X420000Y192534D01*
D02*
G37*
G36*
X1052500Y191534D02*
X1051128Y191399D01*
X1049808Y190998D01*
X1048592Y190348D01*
X1047526Y189474D01*
X1046651Y188408D01*
X1046002Y187192D01*
X1045601Y185872D01*
X1045466Y184500D01*
X1045601Y183128D01*
X1046002Y181808D01*
X1046651Y180592D01*
X1047526Y179526D01*
X1048592Y178651D01*
X1049808Y178001D01*
X1051128Y177601D01*
X1052500Y177466D01*
X1053872Y177601D01*
X1055192Y178001D01*
X1056408Y178651D01*
X1057474Y179526D01*
X1058348Y180592D01*
X1058998Y181808D01*
X1059399Y183128D01*
X1059534Y184500D01*
X1059399Y185872D01*
X1058998Y187192D01*
X1058348Y188408D01*
X1057474Y189474D01*
X1056408Y190348D01*
X1055192Y190998D01*
X1053872Y191399D01*
X1052500Y191534D01*
D02*
G37*
G36*
X194000Y144548D02*
X192040Y144355D01*
X190155Y143783D01*
X188417Y142855D01*
X186895Y141605D01*
X185645Y140083D01*
X184716Y138345D01*
X184145Y136460D01*
X183952Y134500D01*
X184145Y132540D01*
X184716Y130655D01*
X185645Y128917D01*
X186895Y127395D01*
X188417Y126145D01*
X190155Y125216D01*
X192040Y124645D01*
X194000Y124452D01*
X195960Y124645D01*
X197845Y125216D01*
X199583Y126145D01*
X201105Y127395D01*
X202355Y128917D01*
X203284Y130655D01*
X203855Y132540D01*
X204048Y134500D01*
X203855Y136460D01*
X203284Y138345D01*
X202355Y140083D01*
X201105Y141605D01*
X199583Y142855D01*
X197845Y143783D01*
X195960Y144355D01*
X194000Y144548D01*
D02*
G37*
G36*
X825000Y144048D02*
X823040Y143855D01*
X821155Y143283D01*
X819417Y142355D01*
X817895Y141105D01*
X816645Y139583D01*
X815716Y137845D01*
X815145Y135960D01*
X814952Y134000D01*
X815145Y132040D01*
X815716Y130155D01*
X816645Y128417D01*
X817895Y126895D01*
X819417Y125645D01*
X821155Y124716D01*
X823040Y124145D01*
X825000Y123952D01*
X826960Y124145D01*
X828845Y124716D01*
X830583Y125645D01*
X832105Y126895D01*
X833355Y128417D01*
X834284Y130155D01*
X834855Y132040D01*
X835048Y134000D01*
X834855Y135960D01*
X834284Y137845D01*
X833355Y139583D01*
X832105Y141105D01*
X830583Y142355D01*
X828845Y143283D01*
X826960Y143855D01*
X825000Y144048D01*
D02*
G37*
G36*
X615000Y143048D02*
X613040Y142855D01*
X611155Y142283D01*
X609417Y141355D01*
X607895Y140105D01*
X606645Y138583D01*
X605717Y136845D01*
X605145Y134960D01*
X604952Y133000D01*
X605145Y131040D01*
X605717Y129155D01*
X606645Y127417D01*
X607895Y125895D01*
X609417Y124645D01*
X611155Y123716D01*
X613040Y123145D01*
X615000Y122952D01*
X616960Y123145D01*
X618845Y123716D01*
X620583Y124645D01*
X622105Y125895D01*
X623355Y127417D01*
X624284Y129155D01*
X624855Y131040D01*
X625048Y133000D01*
X624855Y134960D01*
X624284Y136845D01*
X623355Y138583D01*
X622105Y140105D01*
X620583Y141355D01*
X618845Y142283D01*
X616960Y142855D01*
X615000Y143048D01*
D02*
G37*
G36*
X405500Y142548D02*
X403540Y142355D01*
X401655Y141783D01*
X399917Y140855D01*
X398395Y139605D01*
X397145Y138083D01*
X396217Y136345D01*
X395645Y134460D01*
X395452Y132500D01*
X395645Y130540D01*
X396217Y128655D01*
X397145Y126917D01*
X398395Y125395D01*
X399917Y124145D01*
X401655Y123216D01*
X403540Y122645D01*
X405500Y122452D01*
X407460Y122645D01*
X409345Y123216D01*
X411083Y124145D01*
X412605Y125395D01*
X413855Y126917D01*
X414783Y128655D01*
X415355Y130540D01*
X415548Y132500D01*
X415355Y134460D01*
X414783Y136345D01*
X413855Y138083D01*
X412605Y139605D01*
X411083Y140855D01*
X409345Y141783D01*
X407460Y142355D01*
X405500Y142548D01*
D02*
G37*
G36*
X1038000Y141548D02*
X1036040Y141355D01*
X1034155Y140784D01*
X1032417Y139855D01*
X1030895Y138605D01*
X1029645Y137083D01*
X1028716Y135345D01*
X1028145Y133460D01*
X1027952Y131500D01*
X1028145Y129540D01*
X1028716Y127655D01*
X1029645Y125917D01*
X1030895Y124395D01*
X1032417Y123145D01*
X1034155Y122216D01*
X1036040Y121645D01*
X1038000Y121452D01*
X1039960Y121645D01*
X1041845Y122216D01*
X1043583Y123145D01*
X1045105Y124395D01*
X1046355Y125917D01*
X1047283Y127655D01*
X1047855Y129540D01*
X1048048Y131500D01*
X1047855Y133460D01*
X1047283Y135345D01*
X1046355Y137083D01*
X1045105Y138605D01*
X1043583Y139855D01*
X1041845Y140784D01*
X1039960Y141355D01*
X1038000Y141548D01*
D02*
G37*
G36*
X72500Y134034D02*
X71128Y133899D01*
X69808Y133499D01*
X68592Y132849D01*
X67526Y131974D01*
X66651Y130908D01*
X66001Y129692D01*
X65601Y128372D01*
X65466Y127000D01*
X65601Y125628D01*
X66001Y124308D01*
X66651Y123092D01*
X67526Y122026D01*
X68592Y121151D01*
X69808Y120501D01*
X71128Y120101D01*
X72500Y119966D01*
X73872Y120101D01*
X75192Y120501D01*
X76408Y121151D01*
X77474Y122026D01*
X78348Y123092D01*
X78999Y124308D01*
X79399Y125628D01*
X79534Y127000D01*
X79399Y128372D01*
X78999Y129692D01*
X78348Y130908D01*
X77474Y131974D01*
X76408Y132849D01*
X75192Y133499D01*
X73872Y133899D01*
X72500Y134034D01*
D02*
G37*
G36*
X703500Y133534D02*
X702128Y133399D01*
X700808Y132999D01*
X699592Y132349D01*
X698526Y131474D01*
X697652Y130408D01*
X697002Y129192D01*
X696601Y127872D01*
X696466Y126500D01*
X696601Y125128D01*
X697002Y123808D01*
X697652Y122592D01*
X698526Y121526D01*
X699592Y120651D01*
X700808Y120001D01*
X702128Y119601D01*
X703500Y119466D01*
X704872Y119601D01*
X706192Y120001D01*
X707408Y120651D01*
X708474Y121526D01*
X709348Y122592D01*
X709998Y123808D01*
X710399Y125128D01*
X710534Y126500D01*
X710399Y127872D01*
X709998Y129192D01*
X709348Y130408D01*
X708474Y131474D01*
X707408Y132349D01*
X706192Y132999D01*
X704872Y133399D01*
X703500Y133534D01*
D02*
G37*
G36*
X493500Y132534D02*
X492128Y132399D01*
X490808Y131999D01*
X489592Y131349D01*
X488526Y130474D01*
X487652Y129408D01*
X487002Y128192D01*
X486601Y126872D01*
X486466Y125500D01*
X486601Y124128D01*
X487002Y122808D01*
X487652Y121592D01*
X488526Y120526D01*
X489592Y119651D01*
X490808Y119001D01*
X492128Y118601D01*
X493500Y118466D01*
X494872Y118601D01*
X496192Y119001D01*
X497408Y119651D01*
X498474Y120526D01*
X499348Y121592D01*
X499998Y122808D01*
X500399Y124128D01*
X500534Y125500D01*
X500399Y126872D01*
X499998Y128192D01*
X499348Y129408D01*
X498474Y130474D01*
X497408Y131349D01*
X496192Y131999D01*
X494872Y132399D01*
X493500Y132534D01*
D02*
G37*
G36*
X284000Y132034D02*
X282628Y131899D01*
X281308Y131499D01*
X280092Y130849D01*
X279026Y129974D01*
X278151Y128908D01*
X277502Y127692D01*
X277101Y126372D01*
X276966Y125000D01*
X277101Y123628D01*
X277502Y122308D01*
X278151Y121092D01*
X279026Y120026D01*
X280092Y119151D01*
X281308Y118501D01*
X282628Y118101D01*
X284000Y117966D01*
X285372Y118101D01*
X286692Y118501D01*
X287908Y119151D01*
X288974Y120026D01*
X289848Y121092D01*
X290498Y122308D01*
X290899Y123628D01*
X291034Y125000D01*
X290899Y126372D01*
X290498Y127692D01*
X289848Y128908D01*
X288974Y129974D01*
X287908Y130849D01*
X286692Y131499D01*
X285372Y131899D01*
X284000Y132034D01*
D02*
G37*
G36*
X916500Y131034D02*
X915128Y130899D01*
X913808Y130499D01*
X912592Y129849D01*
X911526Y128974D01*
X910651Y127908D01*
X910001Y126692D01*
X909601Y125372D01*
X909466Y124000D01*
X909601Y122628D01*
X910001Y121308D01*
X910651Y120092D01*
X911526Y119026D01*
X912592Y118151D01*
X913808Y117501D01*
X915128Y117101D01*
X916500Y116966D01*
X917872Y117101D01*
X919192Y117501D01*
X920408Y118151D01*
X921474Y119026D01*
X922348Y120092D01*
X922999Y121308D01*
X923399Y122628D01*
X923534Y124000D01*
X923399Y125372D01*
X922999Y126692D01*
X922348Y127908D01*
X921474Y128974D01*
X920408Y129849D01*
X919192Y130499D01*
X917872Y130899D01*
X916500Y131034D01*
D02*
G37*
G36*
X137500Y116548D02*
X135540Y116355D01*
X133655Y115784D01*
X131917Y114855D01*
X130395Y113605D01*
X129145Y112083D01*
X128217Y110345D01*
X127645Y108460D01*
X127452Y106500D01*
X127645Y104540D01*
X128217Y102655D01*
X129145Y100917D01*
X130395Y99395D01*
X131917Y98145D01*
X133655Y97216D01*
X135540Y96645D01*
X137500Y96452D01*
X139460Y96645D01*
X141345Y97216D01*
X143083Y98145D01*
X144605Y99395D01*
X145855Y100917D01*
X146783Y102655D01*
X147355Y104540D01*
X147548Y106500D01*
X147355Y108460D01*
X146783Y110345D01*
X145855Y112083D01*
X144605Y113605D01*
X143083Y114855D01*
X141345Y115784D01*
X139460Y116355D01*
X137500Y116548D01*
D02*
G37*
G36*
X768500Y116048D02*
X766540Y115855D01*
X764655Y115284D01*
X762917Y114355D01*
X761395Y113105D01*
X760145Y111583D01*
X759216Y109845D01*
X758645Y107960D01*
X758452Y106000D01*
X758645Y104040D01*
X759216Y102155D01*
X760145Y100417D01*
X761395Y98895D01*
X762917Y97645D01*
X764655Y96716D01*
X766540Y96145D01*
X768500Y95952D01*
X770460Y96145D01*
X772345Y96716D01*
X774083Y97645D01*
X775605Y98895D01*
X776855Y100417D01*
X777783Y102155D01*
X778355Y104040D01*
X778548Y106000D01*
X778355Y107960D01*
X777783Y109845D01*
X776855Y111583D01*
X775605Y113105D01*
X774083Y114355D01*
X772345Y115284D01*
X770460Y115855D01*
X768500Y116048D01*
D02*
G37*
G36*
X558500Y115048D02*
X556540Y114855D01*
X554655Y114284D01*
X552917Y113355D01*
X551395Y112105D01*
X550145Y110583D01*
X549217Y108845D01*
X548645Y106960D01*
X548452Y105000D01*
X548645Y103040D01*
X549217Y101155D01*
X550145Y99417D01*
X551395Y97895D01*
X552917Y96645D01*
X554655Y95717D01*
X556540Y95145D01*
X558500Y94952D01*
X560460Y95145D01*
X562345Y95717D01*
X564083Y96645D01*
X565605Y97895D01*
X566855Y99417D01*
X567783Y101155D01*
X568355Y103040D01*
X568548Y105000D01*
X568355Y106960D01*
X567783Y108845D01*
X566855Y110583D01*
X565605Y112105D01*
X564083Y113355D01*
X562345Y114284D01*
X560460Y114855D01*
X558500Y115048D01*
D02*
G37*
G36*
X349000Y114548D02*
X347040Y114355D01*
X345155Y113784D01*
X343417Y112855D01*
X341895Y111605D01*
X340645Y110083D01*
X339717Y108345D01*
X339145Y106460D01*
X338952Y104500D01*
X339145Y102540D01*
X339717Y100655D01*
X340645Y98917D01*
X341895Y97395D01*
X343417Y96145D01*
X345155Y95217D01*
X347040Y94645D01*
X349000Y94452D01*
X350960Y94645D01*
X352845Y95217D01*
X354583Y96145D01*
X356105Y97395D01*
X357355Y98917D01*
X358283Y100655D01*
X358855Y102540D01*
X359048Y104500D01*
X358855Y106460D01*
X358283Y108345D01*
X357355Y110083D01*
X356105Y111605D01*
X354583Y112855D01*
X352845Y113784D01*
X350960Y114355D01*
X349000Y114548D01*
D02*
G37*
G36*
X981500Y113548D02*
X979540Y113355D01*
X977655Y112784D01*
X975917Y111855D01*
X974395Y110605D01*
X973145Y109083D01*
X972217Y107345D01*
X971645Y105460D01*
X971452Y103500D01*
X971645Y101540D01*
X972217Y99655D01*
X973145Y97917D01*
X974395Y96395D01*
X975917Y95145D01*
X977655Y94217D01*
X979540Y93645D01*
X981500Y93452D01*
X983460Y93645D01*
X985345Y94217D01*
X987083Y95145D01*
X988605Y96395D01*
X989855Y97917D01*
X990784Y99655D01*
X991355Y101540D01*
X991548Y103500D01*
X991355Y105460D01*
X990784Y107345D01*
X989855Y109083D01*
X988605Y110605D01*
X987083Y111855D01*
X985345Y112784D01*
X983460Y113355D01*
X981500Y113548D01*
D02*
G37*
G36*
X454000Y83077D02*
Y68500D01*
X468577D01*
X468392Y69428D01*
X467591Y71787D01*
X466490Y74020D01*
X465106Y76091D01*
X463464Y77964D01*
X461591Y79606D01*
X459520Y80990D01*
X457287Y82091D01*
X454928Y82892D01*
X454000Y83077D01*
D02*
G37*
G36*
X446000D02*
X445072Y82892D01*
X442713Y82091D01*
X440480Y80990D01*
X438409Y79606D01*
X436536Y77964D01*
X434894Y76091D01*
X433510Y74020D01*
X432409Y71787D01*
X431608Y69428D01*
X431423Y68500D01*
X446000D01*
Y83077D01*
D02*
G37*
G36*
X404000D02*
Y68500D01*
X418577D01*
X418392Y69428D01*
X417591Y71787D01*
X416490Y74020D01*
X415106Y76091D01*
X413464Y77964D01*
X411591Y79606D01*
X409520Y80990D01*
X407287Y82091D01*
X404928Y82892D01*
X404000Y83077D01*
D02*
G37*
G36*
X396000D02*
X395072Y82892D01*
X392713Y82091D01*
X390480Y80990D01*
X388409Y79606D01*
X386536Y77964D01*
X384894Y76091D01*
X383510Y74020D01*
X382409Y71787D01*
X381608Y69428D01*
X381423Y68500D01*
X396000D01*
Y83077D01*
D02*
G37*
G36*
X234000D02*
Y68500D01*
X248577D01*
X248392Y69428D01*
X247591Y71787D01*
X246490Y74020D01*
X245106Y76091D01*
X243464Y77964D01*
X241591Y79606D01*
X239520Y80990D01*
X237287Y82091D01*
X234928Y82892D01*
X234000Y83077D01*
D02*
G37*
G36*
X226000D02*
X225072Y82892D01*
X222713Y82091D01*
X220480Y80990D01*
X218409Y79606D01*
X216536Y77964D01*
X214894Y76091D01*
X213510Y74020D01*
X212409Y71787D01*
X211608Y69428D01*
X211423Y68500D01*
X226000D01*
Y83077D01*
D02*
G37*
G36*
X184000D02*
Y68500D01*
X198577D01*
X198392Y69428D01*
X197591Y71787D01*
X196490Y74020D01*
X195106Y76091D01*
X193464Y77964D01*
X191591Y79606D01*
X189520Y80990D01*
X187287Y82091D01*
X184928Y82892D01*
X184000Y83077D01*
D02*
G37*
G36*
X176000D02*
X175072Y82892D01*
X172713Y82091D01*
X170480Y80990D01*
X168409Y79606D01*
X166536Y77964D01*
X164894Y76091D01*
X163510Y74020D01*
X162409Y71787D01*
X161608Y69428D01*
X161423Y68500D01*
X176000D01*
Y83077D01*
D02*
G37*
G36*
X504000Y82577D02*
Y68000D01*
X518577D01*
X518392Y68928D01*
X517591Y71287D01*
X516490Y73520D01*
X515106Y75591D01*
X513464Y77464D01*
X511591Y79106D01*
X509520Y80490D01*
X507287Y81591D01*
X504928Y82392D01*
X504000Y82577D01*
D02*
G37*
G36*
X496000D02*
X495072Y82392D01*
X492713Y81591D01*
X490480Y80490D01*
X488409Y79106D01*
X486536Y77464D01*
X484894Y75591D01*
X483510Y73520D01*
X482409Y71287D01*
X481608Y68928D01*
X481423Y68000D01*
X496000D01*
Y82577D01*
D02*
G37*
G36*
X284000D02*
Y68000D01*
X298577D01*
X298392Y68928D01*
X297591Y71287D01*
X296490Y73520D01*
X295106Y75591D01*
X293464Y77464D01*
X291591Y79106D01*
X289520Y80490D01*
X287287Y81591D01*
X284928Y82392D01*
X284000Y82577D01*
D02*
G37*
G36*
X276000D02*
X275072Y82392D01*
X272713Y81591D01*
X270480Y80490D01*
X268409Y79106D01*
X266536Y77464D01*
X264894Y75591D01*
X263510Y73520D01*
X262409Y71287D01*
X261608Y68928D01*
X261423Y68000D01*
X276000D01*
Y82577D01*
D02*
G37*
G36*
X248577Y60500D02*
X234000D01*
Y45923D01*
X234928Y46108D01*
X237287Y46909D01*
X239520Y48010D01*
X241591Y49394D01*
X243464Y51036D01*
X245106Y52909D01*
X246490Y54980D01*
X247591Y57213D01*
X248392Y59572D01*
X248577Y60500D01*
D02*
G37*
G36*
X226000D02*
X211423D01*
X211608Y59572D01*
X212409Y57213D01*
X213510Y54980D01*
X214894Y52909D01*
X216536Y51036D01*
X218409Y49394D01*
X220480Y48010D01*
X222713Y46909D01*
X225072Y46108D01*
X226000Y45923D01*
Y60500D01*
D02*
G37*
G36*
X198577D02*
X184000D01*
Y45923D01*
X184928Y46108D01*
X187287Y46909D01*
X189520Y48010D01*
X191591Y49394D01*
X193464Y51036D01*
X195106Y52909D01*
X196490Y54980D01*
X197591Y57213D01*
X198392Y59572D01*
X198577Y60500D01*
D02*
G37*
G36*
X176000D02*
X161423D01*
X161608Y59572D01*
X162409Y57213D01*
X163510Y54980D01*
X164894Y52909D01*
X166536Y51036D01*
X168409Y49394D01*
X170480Y48010D01*
X172713Y46909D01*
X175072Y46108D01*
X176000Y45923D01*
Y60500D01*
D02*
G37*
G36*
X468577D02*
X454000D01*
Y45923D01*
X454928Y46108D01*
X457287Y46909D01*
X459520Y48010D01*
X461591Y49394D01*
X463464Y51036D01*
X465106Y52909D01*
X466490Y54980D01*
X467591Y57213D01*
X468392Y59572D01*
X468577Y60500D01*
D02*
G37*
G36*
X446000D02*
X431423D01*
X431608Y59572D01*
X432409Y57213D01*
X433510Y54980D01*
X434894Y52909D01*
X436536Y51036D01*
X438409Y49394D01*
X440480Y48010D01*
X442713Y46909D01*
X445072Y46108D01*
X446000Y45923D01*
Y60500D01*
D02*
G37*
G36*
X418577D02*
X404000D01*
Y45923D01*
X404928Y46108D01*
X407287Y46909D01*
X409520Y48010D01*
X411591Y49394D01*
X413464Y51036D01*
X415106Y52909D01*
X416490Y54980D01*
X417591Y57213D01*
X418392Y59572D01*
X418577Y60500D01*
D02*
G37*
G36*
X396000D02*
X381423D01*
X381608Y59572D01*
X382409Y57213D01*
X383510Y54980D01*
X384894Y52909D01*
X386536Y51036D01*
X388409Y49394D01*
X390480Y48010D01*
X392713Y46909D01*
X395072Y46108D01*
X396000Y45923D01*
Y60500D01*
D02*
G37*
G36*
X298577Y60000D02*
X284000D01*
Y45423D01*
X284928Y45608D01*
X287287Y46409D01*
X289520Y47510D01*
X291591Y48894D01*
X293464Y50536D01*
X295106Y52409D01*
X296490Y54480D01*
X297591Y56713D01*
X298392Y59072D01*
X298577Y60000D01*
D02*
G37*
G36*
X276000D02*
X261423D01*
X261608Y59072D01*
X262409Y56713D01*
X263510Y54480D01*
X264894Y52409D01*
X266536Y50536D01*
X268409Y48894D01*
X270480Y47510D01*
X272713Y46409D01*
X275072Y45608D01*
X276000Y45423D01*
Y60000D01*
D02*
G37*
G36*
X518577D02*
X504000D01*
Y45423D01*
X504928Y45608D01*
X507287Y46409D01*
X509520Y47510D01*
X511591Y48894D01*
X513464Y50536D01*
X515106Y52409D01*
X516490Y54480D01*
X517591Y56713D01*
X518392Y59072D01*
X518577Y60000D01*
D02*
G37*
G36*
X496000D02*
X481423D01*
X481608Y59072D01*
X482409Y56713D01*
X483510Y54480D01*
X484894Y52409D01*
X486536Y50536D01*
X488409Y48894D01*
X490480Y47510D01*
X492713Y46409D01*
X495072Y45608D01*
X496000Y45423D01*
Y60000D01*
D02*
G37*
G36*
X1061500Y72543D02*
X1059303Y72370D01*
X1057160Y71856D01*
X1055124Y71013D01*
X1053246Y69861D01*
X1051570Y68430D01*
X1050139Y66754D01*
X1048987Y64876D01*
X1048144Y62840D01*
X1047630Y60697D01*
X1047457Y58500D01*
X1047630Y56303D01*
X1048144Y54160D01*
X1048987Y52125D01*
X1050139Y50246D01*
X1051570Y48570D01*
X1053246Y47139D01*
X1055124Y45987D01*
X1057160Y45144D01*
X1059303Y44630D01*
X1061500Y44457D01*
X1063697Y44630D01*
X1065840Y45144D01*
X1067875Y45987D01*
X1069754Y47139D01*
X1071430Y48570D01*
X1072861Y50246D01*
X1074013Y52125D01*
X1074856Y54160D01*
X1075370Y56303D01*
X1075543Y58500D01*
X1075370Y60697D01*
X1074856Y62840D01*
X1074013Y64876D01*
X1072861Y66754D01*
X1071430Y68430D01*
X1069754Y69861D01*
X1067875Y71013D01*
X1065840Y71856D01*
X1063697Y72370D01*
X1061500Y72543D01*
D02*
G37*
%LPD*%
D27*
X280000Y64000D02*
D03*
X230000Y64500D02*
D03*
X180000D02*
D03*
X800000Y64000D02*
D03*
X850000Y64500D02*
D03*
X900000Y64000D02*
D03*
X400000Y64500D02*
D03*
X450000D02*
D03*
X500000Y64000D02*
D03*
X700000D02*
D03*
X650000D02*
D03*
X600000D02*
D03*
D28*
X964327Y328299D02*
D03*
X750327D02*
D03*
X540827Y328799D02*
D03*
X325827Y326799D02*
D03*
X112327Y326299D02*
D03*
D29*
X992673Y329500D02*
D03*
X778673D02*
D03*
X569173Y330000D02*
D03*
X354173Y328000D02*
D03*
X140673Y327500D02*
D03*
D30*
X981500Y103500D02*
D03*
X1038000Y131500D02*
D03*
X768500Y106000D02*
D03*
X825000Y134000D02*
D03*
X558500Y105000D02*
D03*
X615000Y133000D02*
D03*
X137500Y106500D02*
D03*
X194000Y134500D02*
D03*
X349000Y104500D02*
D03*
X405500Y132500D02*
D03*
D31*
X985000Y254000D02*
D03*
X772000Y256500D02*
D03*
X562000Y255500D02*
D03*
X141000Y257000D02*
D03*
X352500Y255000D02*
D03*
D32*
X1052500Y184500D02*
D03*
X916500Y124000D02*
D03*
X891000Y186500D02*
D03*
X933500Y257500D02*
D03*
X1011000Y257000D02*
D03*
X839500Y187000D02*
D03*
X703500Y126500D02*
D03*
X678000Y189000D02*
D03*
X720500Y260000D02*
D03*
X798000Y259500D02*
D03*
X629500Y186000D02*
D03*
X493500Y125500D02*
D03*
X468000Y188000D02*
D03*
X510500Y259000D02*
D03*
X588000Y258500D02*
D03*
X208500Y187500D02*
D03*
X72500Y127000D02*
D03*
X47000Y189500D02*
D03*
X89500Y260500D02*
D03*
X167000Y260000D02*
D03*
X420000Y185500D02*
D03*
X284000Y125000D02*
D03*
X258500Y187500D02*
D03*
X301000Y258500D02*
D03*
X378500Y258000D02*
D03*
D33*
X471500Y320213D02*
D03*
X261500Y320000D02*
D03*
X49000Y320685D02*
D03*
X894000Y317870D02*
D03*
X681000Y320713D02*
D03*
D34*
X471500Y310370D02*
D03*
Y300528D02*
D03*
Y290685D02*
D03*
Y280842D02*
D03*
Y271000D02*
D03*
Y261157D02*
D03*
X261500Y310157D02*
D03*
Y300315D02*
D03*
Y290472D02*
D03*
Y280630D02*
D03*
Y270787D02*
D03*
Y260945D02*
D03*
X49000Y310842D02*
D03*
Y301000D02*
D03*
Y291158D02*
D03*
Y281315D02*
D03*
Y271472D02*
D03*
Y261630D02*
D03*
X894000Y308028D02*
D03*
Y298185D02*
D03*
Y288342D02*
D03*
Y278500D02*
D03*
Y268657D02*
D03*
Y258815D02*
D03*
X681000Y310870D02*
D03*
Y301028D02*
D03*
Y291185D02*
D03*
Y281343D02*
D03*
Y271500D02*
D03*
Y261658D02*
D03*
D35*
X1060500Y332000D02*
D03*
X1061500Y58500D02*
D03*
X18000Y330500D02*
D03*
X17500Y59500D02*
D03*
M02*
