G04*
G04 #@! TF.GenerationSoftware,Altium Limited,Altium Designer,19.1.7 (138)*
G04*
G04 Layer_Physical_Order=1*
G04 Layer_Color=255*
%FSLAX25Y25*%
%MOIN*%
G70*
G01*
G75*
%ADD23C,0.15000*%
%ADD24C,0.02000*%
%ADD25C,0.10000*%
%ADD26C,0.09000*%
%ADD27C,0.36000*%
%ADD28C,0.23622*%
%ADD29R,0.23622X0.23622*%
%ADD30C,0.12000*%
%ADD31C,0.22000*%
%ADD32C,0.06000*%
%ADD33R,0.05543X0.05543*%
%ADD34C,0.05543*%
%ADD35C,0.20000*%
D23*
X700011Y63806D02*
X703500Y64000D01*
X700002Y63920D02*
X703500Y64000D01*
X800000Y63500D02*
X969984D01*
X700011D02*
X800000D01*
X693777Y63777D02*
X700002Y63920D01*
X992657Y302343D02*
X1067000Y228000D01*
Y160516D02*
Y228000D01*
X1038000Y131516D02*
X1067000Y160516D01*
X992657Y329484D02*
X992673Y329500D01*
X992657Y302343D02*
Y329484D01*
X140673Y327500D02*
X221000Y247173D01*
Y161000D02*
Y247173D01*
X312000Y338500D02*
X323701Y326799D01*
X151673Y338500D02*
X312000Y338500D01*
X140673Y327500D02*
X151673Y338500D01*
X539532Y328626D02*
X541000D01*
X529658Y338500D02*
X539532Y328626D01*
X364673Y338500D02*
X529658D01*
X354173Y328000D02*
X364673Y338500D01*
X738854Y339000D02*
X749555Y328299D01*
X578173Y339000D02*
X738854D01*
X569173Y330000D02*
X578173Y339000D01*
X785484Y336311D02*
X786673Y337500D01*
X779500Y306000D02*
Y330327D01*
X955126Y337500D02*
X964327Y328299D01*
X786673Y337500D02*
X955126Y337500D01*
X750235Y278265D02*
X772000Y256500D01*
X568893Y309047D02*
X642000Y235940D01*
Y160000D02*
Y235940D01*
X615000Y133000D02*
X642000Y160000D01*
X353673Y327500D02*
X354173Y328000D01*
X353673Y309000D02*
X432000Y230673D01*
Y159000D02*
Y230673D01*
X405500Y132500D02*
X432000Y159000D01*
X779500Y306000D02*
X855000Y230500D01*
Y164000D02*
Y230500D01*
X825000Y134000D02*
X855000Y164000D01*
X778673Y329500D02*
X779500Y330327D01*
X785484Y336311D01*
X700011Y63500D02*
Y63806D01*
X600000Y64000D02*
X650000D01*
X700000D01*
X568893Y329720D02*
X569173Y330000D01*
X749555Y328299D02*
X750327D01*
X568893Y309047D02*
Y329720D01*
X969984Y63500D02*
X1037984Y131500D01*
X1038000D01*
Y131516D01*
X203000Y143500D02*
X203500D01*
X221000Y161000D01*
X194000Y134500D02*
X203000Y143500D01*
X964327Y274673D02*
Y328299D01*
Y274673D02*
X985000Y254000D01*
X750235Y328208D02*
X750327Y328299D01*
X750235Y278265D02*
Y328208D01*
X771729Y256500D02*
X772000D01*
X771229Y257000D02*
X771729Y256500D01*
X771000Y257000D02*
X771229D01*
X541000Y276500D02*
X562000Y255500D01*
X541000Y276500D02*
Y328626D01*
X353673Y309000D02*
Y327500D01*
X323701Y326799D02*
X325827D01*
X325327Y282173D02*
X352500Y255000D01*
X325327Y282173D02*
Y325500D01*
D24*
X236500Y295000D02*
X261500Y320000D01*
X236500Y123500D02*
Y295000D01*
Y123500D02*
X255500Y104500D01*
X446500Y295213D02*
X471500Y320213D01*
X446500Y123000D02*
Y295213D01*
Y123000D02*
X464500Y105000D01*
X454500Y293370D02*
X471500Y310370D01*
X454500Y135000D02*
Y293370D01*
Y135000D02*
X467000Y122500D01*
X656500Y296213D02*
X681000Y320713D01*
X656500Y132000D02*
Y296213D01*
Y132000D02*
X663500Y125000D01*
X867000Y290870D02*
X894000Y317870D01*
X867000Y125000D02*
Y290870D01*
Y125000D02*
X888500Y103500D01*
X872500Y286528D02*
X894000Y308028D01*
X872500Y139500D02*
Y286528D01*
Y139500D02*
X888000Y124000D01*
X348000Y185500D02*
X420000D01*
X262713Y270787D02*
X348000Y185500D01*
X261500Y270787D02*
X262713D01*
X558000Y186000D02*
X629500D01*
X473000Y271000D02*
X558000Y186000D01*
X471500Y271000D02*
X473000D01*
X252500Y291315D02*
X261500Y300315D01*
X252500Y193500D02*
Y291315D01*
X167000Y254000D02*
Y260000D01*
X147789Y234789D02*
X167000Y254000D01*
X95526Y234789D02*
X147789D01*
X134000Y187500D02*
X208500D01*
X50028Y271472D02*
X134000Y187500D01*
X49000Y271472D02*
X50028D01*
X49000Y281315D02*
X95526Y234789D01*
X79658Y260500D02*
X89500D01*
X49000Y291158D02*
X79658Y260500D01*
X503185Y259000D02*
X510500D01*
X471500Y290685D02*
X503185Y259000D01*
X462500Y291528D02*
X471500Y300528D01*
X462500Y193086D02*
Y291528D01*
X894000Y288342D02*
X894658D01*
X925500Y257500D02*
X933500D01*
X894658Y288342D02*
X925500Y257500D01*
X894000Y278500D02*
X895000D01*
X937825Y235675D02*
X989642D01*
X895000Y278500D02*
X937825Y235675D01*
X894000Y268657D02*
X894843D01*
X979000Y184500D01*
X1052500D01*
X681000Y291185D02*
X681815D01*
X713000Y260000D02*
X720500D01*
X681815Y291185D02*
X713000Y260000D01*
X681000Y281343D02*
X682158D01*
X722500Y241000D02*
X779500D01*
X682158Y281343D02*
X722500Y241000D01*
X681000Y271500D02*
X682000D01*
X766500Y187000D02*
X839500D01*
X682000Y271500D02*
X766500Y187000D01*
X261500Y280500D02*
Y280630D01*
Y280500D02*
X307104Y234896D01*
X355245D01*
X261500Y290472D02*
X262028D01*
X294000Y258500D02*
X301000D01*
X262028Y290472D02*
X294000Y258500D01*
X467000Y122500D02*
X490500D01*
X493500Y125500D01*
X663500Y140000D02*
Y293370D01*
X677000Y126500D02*
X703500D01*
X663500Y140000D02*
X677000Y126500D01*
X663500Y125000D02*
X682500Y106000D01*
X768500D01*
X663500Y125000D02*
Y125000D01*
X672500Y292914D02*
X680613Y301028D01*
X672500Y194500D02*
X678000Y189000D01*
X672500Y194500D02*
Y292914D01*
X1010967Y257000D02*
X1011000D01*
X989642Y235675D02*
X1010967Y257000D01*
X779500Y241000D02*
X798000Y259500D01*
X378350Y258000D02*
X378500D01*
X355245Y234896D02*
X378350Y258000D01*
X512343Y240000D02*
X569500D01*
X471500Y280842D02*
X512343Y240000D01*
X569500D02*
X588000Y258500D01*
X25000Y143500D02*
X41500Y127000D01*
X25000Y143500D02*
Y286842D01*
X41500Y127000D02*
X72500D01*
X463500Y192500D02*
X468000Y188000D01*
X463086Y192500D02*
X463500D01*
X462500Y193086D02*
X463086Y192500D01*
X15000Y128000D02*
X36500Y106500D01*
X15000Y286685D02*
X49000Y320685D01*
X15000Y128000D02*
Y286685D01*
X25000Y286842D02*
X49000Y310842D01*
X35011Y201489D02*
Y287011D01*
X49000Y301000D01*
X35011Y201489D02*
X47000Y189500D01*
X663500Y293370D02*
X681000Y310870D01*
X894000Y298000D02*
Y298185D01*
X878000Y282000D02*
X894000Y298000D01*
X878000Y199500D02*
X891000Y186500D01*
X878000Y199500D02*
Y282000D01*
X888000Y124000D02*
X916500D01*
X888500Y103500D02*
X981500D01*
X680613Y301028D02*
X681000D01*
X464500Y105000D02*
X558500D01*
X252500Y193500D02*
X258500Y187500D01*
X258000Y125000D02*
X284000D01*
X243500Y139500D02*
X258000Y125000D01*
X243500Y292158D02*
X261500Y310157D01*
X243500Y139500D02*
Y292158D01*
X255500Y104500D02*
X349000D01*
X36500Y106500D02*
X137500D01*
D25*
X589000Y133000D02*
X615000D01*
X471500Y250500D02*
X589000Y133000D01*
X1007000Y131500D02*
X1037984D01*
X894000Y244500D02*
Y258815D01*
Y244500D02*
X1007000Y131500D01*
X681000Y249000D02*
Y261658D01*
X796000Y134000D02*
X825000D01*
X681000Y249000D02*
X796000Y134000D01*
X471500Y250500D02*
Y261157D01*
X49000Y251000D02*
Y261630D01*
Y251000D02*
X165500Y134500D01*
X194000D01*
X378319Y132500D02*
X405500D01*
X261500Y249319D02*
X378319Y132500D01*
X261500Y249319D02*
Y260945D01*
D26*
X111528Y322500D02*
X113827Y324799D01*
D27*
X280000Y64000D02*
D03*
X230000Y64500D02*
D03*
X180000D02*
D03*
X800000Y64000D02*
D03*
X850000Y64500D02*
D03*
X900000Y64000D02*
D03*
X400000Y64500D02*
D03*
X450000D02*
D03*
X500000Y64000D02*
D03*
X700000D02*
D03*
X650000D02*
D03*
X600000D02*
D03*
D28*
X964327Y328299D02*
D03*
X750327D02*
D03*
X540827Y328799D02*
D03*
X325827Y326799D02*
D03*
X112327Y326299D02*
D03*
D29*
X992673Y329500D02*
D03*
X778673D02*
D03*
X569173Y330000D02*
D03*
X354173Y328000D02*
D03*
X140673Y327500D02*
D03*
D30*
X981500Y103500D02*
D03*
X1038000Y131500D02*
D03*
X768500Y106000D02*
D03*
X825000Y134000D02*
D03*
X558500Y105000D02*
D03*
X615000Y133000D02*
D03*
X137500Y106500D02*
D03*
X194000Y134500D02*
D03*
X349000Y104500D02*
D03*
X405500Y132500D02*
D03*
D31*
X985000Y254000D02*
D03*
X772000Y256500D02*
D03*
X562000Y255500D02*
D03*
X141000Y257000D02*
D03*
X352500Y255000D02*
D03*
D32*
X1052500Y184500D02*
D03*
X916500Y124000D02*
D03*
X891000Y186500D02*
D03*
X933500Y257500D02*
D03*
X1011000Y257000D02*
D03*
X839500Y187000D02*
D03*
X703500Y126500D02*
D03*
X678000Y189000D02*
D03*
X720500Y260000D02*
D03*
X798000Y259500D02*
D03*
X629500Y186000D02*
D03*
X493500Y125500D02*
D03*
X468000Y188000D02*
D03*
X510500Y259000D02*
D03*
X588000Y258500D02*
D03*
X208500Y187500D02*
D03*
X72500Y127000D02*
D03*
X47000Y189500D02*
D03*
X89500Y260500D02*
D03*
X167000Y260000D02*
D03*
X420000Y185500D02*
D03*
X284000Y125000D02*
D03*
X258500Y187500D02*
D03*
X301000Y258500D02*
D03*
X378500Y258000D02*
D03*
D33*
X471500Y320213D02*
D03*
X261500Y320000D02*
D03*
X49000Y320685D02*
D03*
X894000Y317870D02*
D03*
X681000Y320713D02*
D03*
D34*
X471500Y310370D02*
D03*
Y300528D02*
D03*
Y290685D02*
D03*
Y280842D02*
D03*
Y271000D02*
D03*
Y261157D02*
D03*
X261500Y310157D02*
D03*
Y300315D02*
D03*
Y290472D02*
D03*
Y280630D02*
D03*
Y270787D02*
D03*
Y260945D02*
D03*
X49000Y310842D02*
D03*
Y301000D02*
D03*
Y291158D02*
D03*
Y281315D02*
D03*
Y271472D02*
D03*
Y261630D02*
D03*
X894000Y308028D02*
D03*
Y298185D02*
D03*
Y288342D02*
D03*
Y278500D02*
D03*
Y268657D02*
D03*
Y258815D02*
D03*
X681000Y310870D02*
D03*
Y301028D02*
D03*
Y291185D02*
D03*
Y281343D02*
D03*
Y271500D02*
D03*
Y261658D02*
D03*
D35*
X1060500Y332000D02*
D03*
X1061500Y58500D02*
D03*
X18000Y330500D02*
D03*
X17500Y59500D02*
D03*
M02*
