M48
;Layer_Color=9474304
;FILE_FORMAT=2:5
INCH,LZ
;TYPE=PLATED
T1F00S00C0.03000
T2F00S00C0.03543
T3F00S00C0.06000
T4F00S00C0.08000
T5F00S00C0.11000
T6F00S00C0.17000
T7F00S00C0.17717
%
T01
X00725Y0127
X0284Y0125
X04935Y01255
X07035Y01265
X09165Y0124
X10525Y01845
X1011Y0257
X09335Y02575
X0891Y01865
X08395Y0187
X0798Y02595
X07205Y026
X0678Y0189
X06295Y0186
X0588Y02585
X05105Y0259
X0468Y0188
X042Y01855
X03785Y0258
X0301Y02585
X02585Y01875
X02085
X0167Y026
X00895Y02605
X0047Y01895
T02
X0894Y0258815
Y0268657
Y02785
Y0288342
Y0298185
Y0308028
X0681Y031087
Y0301028
Y0291185
Y0281343
Y02715
Y0261658
X04715Y0261157
Y0271
Y0280842
Y0290685
Y0300528
Y031037
X02615Y0310157
Y0300315
Y0290472
Y028063
Y0270787
Y0260945
X0049Y026163
Y0271472
Y0281315
Y0291158
Y0301
Y0310842
Y0320685
X02615Y032
X04715Y0320213
X0681Y0320713
X0894Y031787
T03
X0194Y01345
X04055Y01325
X0615Y0133
X0825Y0134
X1038Y01315
T04
X01375Y01065
X0349Y01045
X05585Y0105
X07685Y0106
X09815Y01035
T05
X0985Y0254
X0772Y02565
X0562Y02555
X03525Y0255
X0141Y0257
T06
X00175Y00595
X018Y00645
X023
X028Y0064
X04Y00645
X045
X05Y0064
X06
X065
X07
X08
X085Y00645
X09Y0064
X10615Y00585
X0018Y03305
X10605Y0332
T07
X0112327Y0326299
X0140673Y03275
X0325827Y0326799
X0354173Y0328
X0540827Y0328799
X0569173Y033
X0750327Y0328299
X0778673Y03295
X0964327Y0328299
X0992673Y03295
M30
