G04*
G04 #@! TF.GenerationSoftware,Altium Limited,Altium Designer,19.1.7 (138)*
G04*
G04 Layer_Color=65535*
%FSLAX25Y25*%
%MOIN*%
G70*
G01*
G75*
%ADD10C,0.00787*%
%ADD11C,0.00500*%
%ADD12C,0.02500*%
%ADD13C,0.01000*%
G36*
X57720Y93740D02*
X57860Y93700D01*
X57880Y93680D01*
X57960Y93640D01*
X58080Y93560D01*
X58220Y93460D01*
X58500Y93140D01*
Y84440D01*
X59160Y84280D01*
X59220D01*
X59280Y84260D01*
X59360Y84240D01*
X59540Y84200D01*
X59740Y84140D01*
X59760D01*
X59780Y84120D01*
X59900Y84080D01*
X60020Y84020D01*
X60140Y83960D01*
X60160D01*
X60200Y83940D01*
X60320Y83860D01*
X60480Y83800D01*
X60620Y83760D01*
X60660D01*
X60740Y83720D01*
X60840Y83660D01*
X60980Y83540D01*
X61020Y83500D01*
X61080Y83480D01*
X61160Y83440D01*
X61280Y83380D01*
X61440Y83340D01*
X61640Y83300D01*
X61900Y83260D01*
X62000D01*
X62100Y83240D01*
X62220Y83220D01*
X62520Y83160D01*
X62660Y83120D01*
X62780Y83060D01*
X62800D01*
X62840Y83040D01*
X62920Y82980D01*
X63000Y82920D01*
X63140Y82840D01*
X63280Y82720D01*
X63440Y82560D01*
X63640Y82380D01*
X63660Y82360D01*
X63740Y82300D01*
X63840Y82200D01*
X63980Y82100D01*
X64300Y81900D01*
X64460Y81800D01*
X64620Y81740D01*
X64640D01*
X64700Y81720D01*
X64800Y81680D01*
X64940Y81640D01*
X65100Y81560D01*
X65320Y81480D01*
X65560Y81360D01*
X65820Y81220D01*
X65860Y81200D01*
X65940Y81160D01*
X66080Y81080D01*
X66240Y81000D01*
X66580Y80820D01*
X66740Y80720D01*
X66860Y80640D01*
X66880Y80620D01*
X66920Y80600D01*
X67020Y80540D01*
X67160Y80500D01*
X67600Y80340D01*
X67620D01*
X67660Y80320D01*
X67800Y80280D01*
X67960Y80240D01*
X68020Y80220D01*
X68100D01*
X68160Y80240D01*
X68240Y80280D01*
X68340Y80340D01*
X68360D01*
X68380Y80380D01*
X68500Y80440D01*
X68660Y80540D01*
X68840Y80640D01*
X68860Y80660D01*
X68900Y80700D01*
X69000Y80780D01*
X69140Y80900D01*
X69320Y81080D01*
X69460Y81220D01*
X69600Y81340D01*
X69740Y81500D01*
X69920Y81680D01*
X70120Y81900D01*
X70340Y82120D01*
X70360Y82140D01*
X70400Y82180D01*
X70460Y82240D01*
X70540Y82340D01*
X70660Y82460D01*
X70780Y82580D01*
X71080Y82900D01*
X71400Y83280D01*
X71760Y83680D01*
X72140Y84100D01*
X72480Y84520D01*
Y84540D01*
X72520Y84560D01*
X72620Y84680D01*
X72780Y84860D01*
X72980Y85100D01*
X73240Y85380D01*
X73540Y85700D01*
X73860Y86020D01*
X74200Y86360D01*
X74220Y86380D01*
X74240Y86400D01*
X74360Y86500D01*
X74520Y86660D01*
X74720Y86840D01*
X74940Y87020D01*
X75140Y87180D01*
X75340Y87320D01*
X75500Y87400D01*
X75520D01*
X75540Y87420D01*
X75620Y87440D01*
X75720Y87480D01*
X75860Y87540D01*
X76060Y87620D01*
X76300Y87700D01*
X76600Y87820D01*
X76620D01*
X76640Y87840D01*
X76760Y87880D01*
X76920Y87960D01*
X77160Y88060D01*
X77420Y88180D01*
X77720Y88320D01*
X78040Y88460D01*
X78380Y88620D01*
X78400D01*
X78480Y88640D01*
X78580Y88680D01*
X78740Y88720D01*
X78760D01*
X78780Y88740D01*
X78900Y88760D01*
X79060Y88780D01*
X79220Y88800D01*
X79260D01*
X79360Y88840D01*
X79520Y88880D01*
X79720Y88940D01*
X79740D01*
X79780Y88960D01*
X79900Y89020D01*
X80060Y89100D01*
X80220Y89200D01*
X80240Y89220D01*
X80300Y89240D01*
X80400Y89300D01*
X80500Y89360D01*
X80640Y89440D01*
X80800Y89500D01*
X81140Y89640D01*
X81160D01*
X81220Y89660D01*
X81300Y89700D01*
X81420Y89740D01*
X81660Y89800D01*
X81900Y89820D01*
X81940D01*
X82060Y89840D01*
X82180Y89860D01*
X82220Y89880D01*
X82260Y89900D01*
X82280Y89920D01*
X82300D01*
X82360Y89940D01*
X82420Y89960D01*
X82520Y89980D01*
X82640Y90000D01*
X83000D01*
X83140Y90020D01*
X85800D01*
X87060Y88500D01*
X87140Y82240D01*
X86780Y81860D01*
X86760Y81840D01*
X86680Y81760D01*
X86580Y81660D01*
X86460Y81560D01*
X86440Y81540D01*
X86380Y81480D01*
X86300Y81420D01*
X86240Y81380D01*
X86220D01*
X86200Y81360D01*
X86080Y81300D01*
X85900Y81220D01*
X85680Y81080D01*
X85660D01*
X85640Y81040D01*
X85500Y80960D01*
X85320Y80860D01*
X85140Y80760D01*
X85120D01*
X85080Y80720D01*
X84980Y80660D01*
X84840Y80560D01*
X84800Y80540D01*
X84720Y80460D01*
X84580Y80360D01*
X84400Y80220D01*
X84380Y80200D01*
X84300Y80140D01*
X84180Y80040D01*
X84040Y79920D01*
X83860Y79780D01*
X83660Y79640D01*
X83240Y79340D01*
X83220Y79320D01*
X83140Y79280D01*
X83040Y79220D01*
X82920Y79160D01*
X82600Y79000D01*
X82440Y78940D01*
X82280Y78880D01*
X82260D01*
X82200Y78860D01*
X82120Y78820D01*
X81980Y78760D01*
X81800Y78700D01*
X81580Y78580D01*
X81320Y78440D01*
X81000Y78280D01*
X80960Y78260D01*
X80860Y78200D01*
X80700Y78120D01*
X80520Y78020D01*
X80320Y77900D01*
X80120Y77780D01*
X79960Y77660D01*
X79820Y77560D01*
X79800Y77540D01*
X79740Y77480D01*
X79700Y77420D01*
Y77380D01*
X79760D01*
X79800Y77360D01*
X80100D01*
X80200Y77340D01*
X80340Y77320D01*
X80540Y77260D01*
X80560D01*
X80600Y77240D01*
X80640Y77220D01*
X80720Y77200D01*
X80900Y77120D01*
X81100Y77020D01*
X81120D01*
X81140Y77000D01*
X81280Y76960D01*
X81440Y76880D01*
X81620Y76820D01*
X81640D01*
X81660Y76800D01*
X81760Y76780D01*
X81860Y76740D01*
X81960Y76720D01*
X81980D01*
X82040Y76700D01*
X82160Y76680D01*
X82320Y76620D01*
X83620Y76240D01*
X83640D01*
X83680Y76220D01*
X83740Y76200D01*
X83820Y76180D01*
X84000Y76120D01*
X84200Y76080D01*
X84220D01*
X84280Y76060D01*
X84360Y76040D01*
X84480Y76020D01*
X84620Y75980D01*
X84780Y75940D01*
X85120Y75820D01*
X85140D01*
X85200Y75800D01*
X85300Y75760D01*
X85400Y75720D01*
X85680Y75600D01*
X85960Y75500D01*
X85980D01*
X86000Y75480D01*
X86100Y75420D01*
X86200Y75360D01*
X86280Y75340D01*
X86300D01*
X86360Y75320D01*
X86440Y75280D01*
X86540Y75200D01*
X86560Y75180D01*
X86640Y75100D01*
X86760Y75000D01*
X86900Y74860D01*
X86940Y74820D01*
X87020Y74740D01*
X87140Y74640D01*
X87260Y74520D01*
X87280Y74500D01*
X87360Y74460D01*
X87420Y74420D01*
X87480Y74400D01*
X87500D01*
X87540Y74360D01*
X87640Y74320D01*
X87760Y74240D01*
X87920Y74100D01*
X88140Y73920D01*
X88400Y73700D01*
X88720Y73400D01*
X88740D01*
X88760Y73360D01*
X88880Y73260D01*
X89040Y73100D01*
X89220Y72900D01*
X89440Y72700D01*
X89640Y72480D01*
X89800Y72280D01*
X89940Y72100D01*
Y72080D01*
X89960Y72040D01*
X90000Y71980D01*
X90060Y71920D01*
X90180Y71720D01*
X90340Y71540D01*
X90360Y71520D01*
X90380Y71500D01*
X90400Y71460D01*
X90420Y71360D01*
X90460Y71240D01*
Y71060D01*
X90480Y70820D01*
Y70780D01*
Y70740D01*
Y70660D01*
Y70560D01*
X90500Y70440D01*
Y70280D01*
Y70080D01*
Y69860D01*
Y69600D01*
X90520Y69300D01*
Y68940D01*
Y68560D01*
Y68120D01*
Y67640D01*
Y67100D01*
Y62840D01*
X89820Y62140D01*
X87160D01*
X86940Y62160D01*
X86640D01*
X86540Y62180D01*
X86420Y62200D01*
X86180Y62220D01*
X86040Y62260D01*
X85940Y62280D01*
X85920D01*
X85900Y62300D01*
X85840D01*
X85760Y62320D01*
X85560Y62360D01*
X85300Y62400D01*
X85240D01*
X85160Y62420D01*
X85080D01*
X84860Y62440D01*
X84600Y62460D01*
X84540D01*
X84480Y62480D01*
X84260D01*
X84140Y62500D01*
X83820Y62540D01*
X83800D01*
X83740Y62560D01*
X83660D01*
X83560Y62580D01*
X83300Y62620D01*
X83020Y62680D01*
X83000D01*
X82960Y62700D01*
X82900D01*
X82800Y62720D01*
X82580Y62780D01*
X82320Y62820D01*
X82300D01*
X82260Y62840D01*
X82200D01*
X82120Y62860D01*
X81960Y62880D01*
X81680D01*
X81540Y62900D01*
X81340Y62940D01*
X81320D01*
X81300Y62960D01*
X81180Y63000D01*
X81000Y63040D01*
X80800Y63100D01*
X80780D01*
X80760Y63120D01*
X80620Y63140D01*
X80460Y63200D01*
X80260Y63240D01*
X80220Y63260D01*
X80120Y63280D01*
X80000Y63300D01*
X79820D01*
X79720Y63320D01*
X79600Y63340D01*
X79520Y63400D01*
X79500Y63420D01*
X79460Y63460D01*
X79380Y63500D01*
X79260Y63520D01*
X79220D01*
X79140Y63560D01*
X79000Y63660D01*
X78920Y63720D01*
X78820Y63820D01*
X78800Y63840D01*
X78760Y63880D01*
X78680Y63940D01*
X78540Y64020D01*
X78380Y64120D01*
X78160Y64240D01*
X77900Y64360D01*
X77580Y64500D01*
X77540Y64520D01*
X77420Y64560D01*
X77240Y64640D01*
X77000Y64740D01*
X76700Y64840D01*
X76380Y64960D01*
X76020Y65080D01*
X75640Y65180D01*
X75620D01*
X75600Y65200D01*
X75480Y65240D01*
X75320Y65280D01*
X75120Y65340D01*
X75100D01*
X75080Y65360D01*
X74980Y65400D01*
X74840Y65440D01*
X74700Y65500D01*
X74680D01*
X74660Y65520D01*
X74560Y65580D01*
X74420Y65620D01*
X74280Y65640D01*
X74260D01*
X74220Y65620D01*
X74160Y65580D01*
X74100Y65540D01*
X74020Y65460D01*
X73920Y65340D01*
X73800Y65200D01*
X73780Y65180D01*
X73740Y65120D01*
X73680Y65020D01*
X73600Y64900D01*
X73480Y64720D01*
X73360Y64520D01*
X73220Y64280D01*
X73060Y64000D01*
X72640Y63220D01*
Y63200D01*
X72600Y63160D01*
X72540Y63020D01*
X72440Y62860D01*
X72400Y62800D01*
X72360Y62760D01*
X72320Y62720D01*
X72260Y62620D01*
X72160Y62500D01*
X72100Y62360D01*
Y62340D01*
X72060Y62300D01*
X72000Y62200D01*
X71900Y62060D01*
X71160Y61000D01*
X70840Y60520D01*
X70820Y60500D01*
X70760Y60420D01*
X70640Y60280D01*
X70560Y60180D01*
X70460Y60080D01*
X70440Y60060D01*
X70420Y60020D01*
X70360Y59960D01*
X70280Y59900D01*
X70080Y59700D01*
X69820Y59480D01*
X67880Y57840D01*
X67860Y57820D01*
X67800Y57780D01*
X67700Y57700D01*
X67600Y57640D01*
X67400Y57460D01*
X67300Y57400D01*
X67240Y57360D01*
X67220D01*
X67160Y57340D01*
X67120D01*
X67040Y57320D01*
X66920D01*
X66780Y57300D01*
X66620Y57280D01*
X66400D01*
X66160Y57260D01*
X65520D01*
X65120Y57240D01*
X61320D01*
X61000Y57560D01*
X60960Y57600D01*
X60900Y57680D01*
X60820Y57800D01*
X60760Y57940D01*
Y57960D01*
Y57980D01*
Y58040D01*
X60740Y58120D01*
Y58240D01*
Y58380D01*
Y58560D01*
X60760Y58780D01*
X60840Y59560D01*
X60920Y60300D01*
Y60320D01*
Y60360D01*
X60940Y60440D01*
Y60560D01*
X60960Y60740D01*
X60980Y60980D01*
Y61280D01*
X61000Y61660D01*
Y61680D01*
Y61720D01*
Y61780D01*
Y61860D01*
Y61960D01*
X61020Y62080D01*
Y62380D01*
Y62740D01*
X61040Y63160D01*
Y63620D01*
Y64120D01*
Y67320D01*
X61500Y67720D01*
X61520Y67760D01*
X61600Y67860D01*
X61720Y68000D01*
X61860Y68160D01*
Y68180D01*
X61900Y68200D01*
X61980Y68320D01*
X62060Y68460D01*
X62140Y68620D01*
X62160Y68660D01*
X62200Y68740D01*
X62280Y68860D01*
X62380Y69000D01*
X62400Y69040D01*
X62460Y69120D01*
X62540Y69200D01*
X62600Y69280D01*
X62620Y69300D01*
X62640Y69320D01*
X62720Y69440D01*
X62820Y69600D01*
X62840Y69680D01*
X62860Y69780D01*
Y69800D01*
Y69820D01*
X62900Y69960D01*
X62960Y70120D01*
X63060Y70300D01*
X63300Y70520D01*
X62160Y71200D01*
X62140Y71220D01*
X62060Y71260D01*
X61920Y71360D01*
X61720Y71480D01*
X61700Y71500D01*
X61660Y71520D01*
X61600Y71560D01*
X61520Y71620D01*
X61320Y71780D01*
X61080Y71980D01*
X61060Y72000D01*
X61020Y72040D01*
X60960Y72100D01*
X60860Y72160D01*
X60640Y72360D01*
X60340Y72560D01*
X60320Y72580D01*
X60280Y72600D01*
X60200Y72660D01*
X60100Y72720D01*
X59860Y72860D01*
X59620Y72980D01*
X59600D01*
X59560Y73000D01*
X59500Y73040D01*
X59440Y73080D01*
X59240Y73180D01*
X59020Y73300D01*
X59000D01*
X58980Y73320D01*
X58880Y73400D01*
X58760Y73460D01*
X58660Y73540D01*
X58640Y73560D01*
X58580Y73600D01*
X58480Y73680D01*
X58360Y73760D01*
X58180Y73880D01*
X57960Y74000D01*
X57700Y74140D01*
X57400Y74300D01*
X57360Y74320D01*
X57260Y74380D01*
X57100Y74460D01*
X56880Y74540D01*
X56640Y74660D01*
X56380Y74760D01*
X56100Y74860D01*
X55840Y74940D01*
X55820D01*
X55800Y74960D01*
X55740Y74980D01*
X55660Y75000D01*
X55440Y75080D01*
X55180Y75180D01*
X55160D01*
X55120Y75200D01*
X55060Y75240D01*
X54960Y75280D01*
X54760Y75380D01*
X54520Y75500D01*
X54500Y75520D01*
X54440Y75540D01*
X54340Y75580D01*
X54220Y75640D01*
X53940Y75740D01*
X53660Y75820D01*
X53640D01*
X53600Y75840D01*
X53500D01*
X53380Y75860D01*
X53220D01*
X53000Y75880D01*
X51900D01*
X51700Y75900D01*
X51320D01*
X51200Y75920D01*
X51180D01*
X51160Y75940D01*
X51060Y75960D01*
X50920Y76040D01*
X50780Y76160D01*
Y76180D01*
X50760Y76200D01*
X50680Y76300D01*
X50600Y76440D01*
X50540Y76580D01*
Y76600D01*
Y76620D01*
X50520Y76680D01*
Y76760D01*
Y76860D01*
Y77000D01*
Y77160D01*
Y77360D01*
Y77380D01*
Y77420D01*
X50540Y77500D01*
Y77600D01*
X50560Y77720D01*
Y77860D01*
X50620Y78180D01*
X50680Y78520D01*
X50760Y78880D01*
X50860Y79200D01*
X51000Y79480D01*
X51340Y80220D01*
Y80240D01*
X51380Y80280D01*
X51420Y80360D01*
X51460Y80440D01*
X51560Y80640D01*
X51660Y80840D01*
X52140Y81580D01*
X52160Y81620D01*
X52220Y81720D01*
X52300Y81860D01*
X52400Y82060D01*
X52480Y82280D01*
X52560Y82520D01*
X52620Y82760D01*
X52640Y83020D01*
Y83040D01*
Y83060D01*
X52660Y83180D01*
X52700Y83340D01*
X52760Y83500D01*
Y83520D01*
X52800Y83580D01*
X52820Y83660D01*
X52880Y83820D01*
X53020Y84240D01*
Y84260D01*
X53040Y84280D01*
X53060Y84400D01*
X53140Y84580D01*
X53260Y84820D01*
Y84840D01*
X53300Y84880D01*
X53340Y84960D01*
X53380Y85040D01*
X53520Y85260D01*
X53660Y85500D01*
X53680Y85540D01*
X53760Y85640D01*
X53860Y85800D01*
X53960Y85980D01*
X54100Y86200D01*
X54200Y86420D01*
X54300Y86620D01*
X54380Y86820D01*
Y86840D01*
X54400Y86920D01*
X54420Y87040D01*
X54460Y87220D01*
X54480Y87440D01*
X54520Y87720D01*
X54540Y88060D01*
X54560Y88460D01*
Y88480D01*
Y88500D01*
Y88620D01*
X54580Y88780D01*
Y88980D01*
X54600Y89180D01*
X54620Y89380D01*
Y89580D01*
X54640Y89720D01*
Y89740D01*
X54660Y89780D01*
X54700Y89920D01*
X54760Y90080D01*
X54860Y90220D01*
X54880Y90240D01*
X54900Y90280D01*
X54960Y90340D01*
X55020Y90440D01*
X55080Y90560D01*
X55180Y90720D01*
X55260Y90880D01*
X55360Y91080D01*
X55380Y91100D01*
X55400Y91180D01*
X55460Y91300D01*
X55520Y91460D01*
X55600Y91640D01*
X55680Y91840D01*
X55840Y92320D01*
Y92340D01*
X55860Y92380D01*
X55900Y92460D01*
X55940Y92540D01*
X56060Y92760D01*
X56220Y93040D01*
X56440Y93300D01*
X56700Y93520D01*
X56860Y93600D01*
X57020Y93680D01*
X57200Y93720D01*
X57400Y93740D01*
X57460D01*
X57580Y93760D01*
X57720Y93740D01*
D02*
G37*
%LPC*%
G36*
X84980Y88340D02*
X83960Y88300D01*
X83860D01*
X83740Y88280D01*
X83580Y88260D01*
X83400Y88240D01*
X83180Y88220D01*
X82940Y88180D01*
X82700Y88140D01*
X82160Y88020D01*
X81620Y87880D01*
X81360Y87780D01*
X81120Y87660D01*
X80920Y87540D01*
X80720Y87400D01*
X80700Y87380D01*
X80660Y87360D01*
X80560Y87300D01*
X80420Y87260D01*
X80380D01*
X80280Y87220D01*
X80140Y87180D01*
X79940Y87140D01*
X79900D01*
X79840Y87120D01*
X79760Y87100D01*
X79560Y87060D01*
X79320Y87000D01*
X79300D01*
X79260Y86980D01*
X79200Y86960D01*
X79140Y86940D01*
X78960Y86860D01*
X78780Y86780D01*
X77600Y86320D01*
X77100Y86080D01*
X77080D01*
X77060Y86060D01*
X76940Y86000D01*
X76760Y85940D01*
X76580Y85860D01*
X76540Y85840D01*
X76440Y85820D01*
X76340Y85780D01*
X76240Y85760D01*
X76220D01*
X76200Y85740D01*
X76140Y85720D01*
X76040Y85680D01*
X75940Y85600D01*
X75780Y85500D01*
X75600Y85360D01*
X75400Y85180D01*
X75380Y85160D01*
X75300Y85100D01*
X75200Y84980D01*
X75080Y84860D01*
X74800Y84560D01*
X74680Y84400D01*
X74560Y84240D01*
X74540Y84220D01*
X74500Y84160D01*
X74420Y84060D01*
X74300Y83900D01*
X74100Y83680D01*
X73980Y83540D01*
X73840Y83380D01*
X73680Y83180D01*
X73480Y82980D01*
X73280Y82760D01*
X73040Y82500D01*
X73020Y82480D01*
X72980Y82440D01*
X72920Y82360D01*
X72820Y82260D01*
X72700Y82140D01*
X72560Y81980D01*
X72400Y81820D01*
X72240Y81620D01*
X71840Y81200D01*
X71400Y80740D01*
X70940Y80240D01*
X70460Y79740D01*
X69640Y78840D01*
X69940Y78740D01*
X69960D01*
X70000Y78720D01*
X70060Y78700D01*
X70120Y78680D01*
X70220Y78660D01*
X70340Y78640D01*
X70500Y78620D01*
X70680Y78580D01*
X70880Y78540D01*
X71140Y78500D01*
X71420Y78480D01*
X71760Y78440D01*
X72140Y78380D01*
X72560Y78340D01*
X73020Y78300D01*
X73920Y78220D01*
X74000D01*
X74080Y78200D01*
X74180D01*
X74420Y78160D01*
X74520Y78140D01*
X74620Y78120D01*
X74660D01*
X74720Y78100D01*
X74800Y78080D01*
X75000Y78060D01*
X75260Y78020D01*
X75520D01*
X75760Y78000D01*
X76040D01*
X76780Y77960D01*
X76840D01*
X76900Y77940D01*
X76980D01*
X77140Y77920D01*
X77300D01*
X77340Y77900D01*
X77480Y77860D01*
X77640Y77840D01*
X77780D01*
X77840Y77880D01*
X77900Y77960D01*
X77960Y78060D01*
Y78080D01*
X77980Y78100D01*
X78020Y78220D01*
X78040Y78340D01*
X78060Y78460D01*
Y78480D01*
X78100Y78540D01*
X78160Y78620D01*
X78280Y78760D01*
X78360Y78820D01*
X78460Y78920D01*
X78600Y79020D01*
X78760Y79120D01*
X78940Y79240D01*
X79140Y79360D01*
X79380Y79500D01*
X79660Y79640D01*
X80500Y80060D01*
X80960Y80340D01*
X80980D01*
X81000Y80360D01*
X81140Y80440D01*
X81300Y80500D01*
X81480Y80540D01*
X81520D01*
X81600Y80560D01*
X81680Y80600D01*
X81780Y80640D01*
X81920Y80700D01*
X82080Y80780D01*
X82260Y80880D01*
X82280Y80900D01*
X82360Y80940D01*
X82460Y81000D01*
X82600Y81100D01*
X82760Y81220D01*
X82940Y81360D01*
X83140Y81520D01*
X83340Y81700D01*
X83820Y82100D01*
X83840Y82120D01*
X83920Y82180D01*
X84000Y82220D01*
X84060Y82240D01*
X84080D01*
X84120Y82260D01*
X84200Y82300D01*
X84320Y82360D01*
X84780Y82640D01*
X85460Y83020D01*
X85420Y85380D01*
Y85400D01*
Y85440D01*
Y85520D01*
Y85620D01*
Y85740D01*
X85400Y85880D01*
Y86200D01*
X85380Y86540D01*
Y86880D01*
X85360Y87180D01*
X85340Y87300D01*
Y87400D01*
Y87420D01*
Y87480D01*
X85320Y87580D01*
X85300Y87680D01*
X85260Y87880D01*
X85220Y87960D01*
X85180Y88020D01*
X84980Y88340D01*
D02*
G37*
G36*
X56780Y89740D02*
X56540Y89520D01*
X56520Y89500D01*
X56460Y89420D01*
X56380Y89280D01*
X56340Y89080D01*
Y89060D01*
Y89020D01*
Y88940D01*
X56320Y88820D01*
Y88660D01*
X56300Y88440D01*
Y88200D01*
X56280Y87880D01*
Y87860D01*
Y87840D01*
Y87780D01*
X56260Y87700D01*
X56240Y87520D01*
X56220Y87280D01*
X56200Y87000D01*
X56160Y86740D01*
X56120Y86460D01*
X56060Y86220D01*
Y86200D01*
X56040Y86120D01*
X56000Y86020D01*
X55960Y85880D01*
X55820Y85580D01*
X55740Y85440D01*
X55640Y85300D01*
X55620Y85280D01*
X55560Y85200D01*
X55480Y85080D01*
X55380Y84900D01*
X55240Y84680D01*
X55100Y84420D01*
X54940Y84100D01*
X54780Y83760D01*
Y83740D01*
X54760Y83720D01*
X54720Y83600D01*
X54640Y83420D01*
X54580Y83200D01*
X54500Y82960D01*
X54420Y82700D01*
X54380Y82440D01*
X54360Y82200D01*
Y82180D01*
X54340Y82100D01*
X54300Y81960D01*
X54220Y81760D01*
Y81740D01*
X54200Y81700D01*
X54160Y81640D01*
X54140Y81580D01*
X54040Y81380D01*
X53920Y81160D01*
Y81140D01*
X53900Y81120D01*
X53860Y81060D01*
X53820Y80980D01*
X53720Y80800D01*
X53600Y80560D01*
X53440Y80260D01*
X53280Y79960D01*
X53120Y79640D01*
X52960Y79340D01*
X52940Y79300D01*
X52900Y79220D01*
X52820Y79080D01*
X52760Y78900D01*
X52580Y78540D01*
X52520Y78380D01*
X52480Y78260D01*
X52360Y77800D01*
Y77780D01*
Y77740D01*
X52420Y77680D01*
X52460Y77660D01*
X52540Y77640D01*
X52580D01*
X52660Y77620D01*
X52740D01*
X52880Y77600D01*
X53040D01*
X53260Y77580D01*
X53520Y77560D01*
X53640D01*
X53780Y77540D01*
X53940D01*
X54280Y77500D01*
X54440Y77480D01*
X54580Y77460D01*
X54600D01*
X54640Y77440D01*
X54700D01*
X54760Y77420D01*
X54940Y77360D01*
X55120Y77260D01*
X55140D01*
X55160Y77240D01*
X55260Y77180D01*
X55440Y77100D01*
X55640Y76980D01*
X55660D01*
X55700Y76960D01*
X55760Y76920D01*
X55840Y76900D01*
X56040Y76820D01*
X56280Y76740D01*
X57280Y76340D01*
X57300D01*
X57340Y76320D01*
X57400Y76300D01*
X57480Y76280D01*
X57660Y76220D01*
X57880Y76160D01*
X57900Y76140D01*
X57980Y76100D01*
X58100Y76020D01*
X58260Y75920D01*
X59120Y75380D01*
X59140D01*
X59160Y75340D01*
X59300Y75260D01*
X59460Y75140D01*
X59640Y75020D01*
X59660Y75000D01*
X59700Y74960D01*
X59780Y74920D01*
X59900Y74840D01*
X59940Y74820D01*
X60020Y74780D01*
X60140Y74740D01*
X60280Y74680D01*
X60320D01*
X60400Y74640D01*
X60520Y74580D01*
X60680Y74500D01*
X60700D01*
X60720Y74480D01*
X60820Y74420D01*
X60960Y74320D01*
X61080Y74200D01*
X61100Y74180D01*
X61120Y74160D01*
X61240Y74040D01*
X61400Y73920D01*
X61460Y73860D01*
X61520Y73840D01*
X61540D01*
X61580Y73820D01*
X61640Y73780D01*
X61720Y73740D01*
X61820Y73680D01*
X61940Y73580D01*
X62100Y73460D01*
X62140Y73440D01*
X62240Y73360D01*
X62380Y73240D01*
X62580Y73080D01*
X62820Y72920D01*
X63100Y72720D01*
X63400Y72540D01*
X63720Y72340D01*
X63740D01*
X63760Y72320D01*
X63860Y72260D01*
X64020Y72200D01*
X64180Y72100D01*
X64380Y72020D01*
X64560Y71960D01*
X64720Y71900D01*
X64820D01*
X64840Y71920D01*
X64900Y71980D01*
X65000Y72100D01*
X65140Y72240D01*
X65760Y72960D01*
X65780Y72980D01*
X65800Y73000D01*
X65900Y73120D01*
X66000Y73280D01*
X66100Y73440D01*
Y73460D01*
X66120Y73480D01*
X66160Y73580D01*
X66200Y73760D01*
X66240Y73960D01*
Y73980D01*
Y74000D01*
X66260Y74060D01*
X66280Y74140D01*
X66320Y74320D01*
X66420Y74540D01*
X66540Y74740D01*
X66700Y74940D01*
X66920Y75080D01*
X67060Y75120D01*
X67200Y75140D01*
X67240D01*
X67380Y75120D01*
X67540Y75040D01*
X67640Y75000D01*
X67720Y74920D01*
X67800Y74840D01*
X67880Y74720D01*
X67960Y74580D01*
X68000Y74420D01*
X68040Y74220D01*
Y73980D01*
X68020Y73720D01*
X67960Y73420D01*
Y73400D01*
X67940Y73340D01*
X67920Y73260D01*
X67900Y73140D01*
X67800Y72880D01*
X67680Y72600D01*
Y72580D01*
X67640Y72540D01*
X67580Y72460D01*
X67520Y72340D01*
X67420Y72220D01*
X67280Y72060D01*
X67120Y71860D01*
X66940Y71660D01*
X66280Y70880D01*
X66540Y70840D01*
X66560D01*
X66660Y70800D01*
X66780Y70760D01*
X66940Y70680D01*
X67480Y70460D01*
X67500D01*
X67520Y70440D01*
X67660Y70380D01*
X67840Y70300D01*
X68040Y70220D01*
X68060D01*
X68100Y70200D01*
X68220Y70160D01*
X68360Y70120D01*
X68500Y70100D01*
X68520D01*
X68560Y70080D01*
X68620Y70060D01*
X68720Y70020D01*
X68880Y69940D01*
X68980Y69880D01*
X69040Y69820D01*
X69060Y69800D01*
X69140Y69740D01*
X69260Y69660D01*
X69400Y69600D01*
X69780Y69400D01*
X69800D01*
X69820Y69380D01*
X69880Y69340D01*
X69960Y69300D01*
X70140Y69200D01*
X70360Y69100D01*
X70380D01*
X70420Y69080D01*
X70540Y69040D01*
X70700Y68980D01*
X70840Y68960D01*
X70900D01*
X70980Y68940D01*
X71120Y68900D01*
X71280Y68840D01*
X71520Y68740D01*
X71800Y68620D01*
X72160Y68460D01*
X72180D01*
X72220Y68440D01*
X72280Y68420D01*
X72360Y68400D01*
X72580Y68320D01*
X72840Y68260D01*
X72880D01*
X72960Y68240D01*
X73060Y68260D01*
X73120Y68300D01*
X73180Y68360D01*
X73220Y68400D01*
X73260Y68460D01*
X73320Y68540D01*
X73400Y68660D01*
X73520Y68820D01*
X73660Y69020D01*
X73820Y69280D01*
X73840Y69300D01*
X73860Y69360D01*
X73900Y69440D01*
X73960Y69540D01*
X74040Y69680D01*
X74120Y69840D01*
X74280Y70200D01*
X74460Y70600D01*
X74620Y71020D01*
X74720Y71420D01*
X74760Y71600D01*
X74780Y71780D01*
Y71800D01*
Y71820D01*
X74800Y71900D01*
X74820Y72000D01*
X74880Y72080D01*
X74900Y72100D01*
X74940Y72140D01*
X74960Y72220D01*
X74980Y72320D01*
Y72340D01*
X75000Y72360D01*
X75040Y72460D01*
X75120Y72620D01*
X75260Y72780D01*
X75280Y72800D01*
X75300Y72820D01*
X75440Y72900D01*
X75620Y72960D01*
X75720Y73000D01*
X75880D01*
X75980Y72980D01*
X76120Y72940D01*
X76280Y72880D01*
X76420Y72760D01*
X76560Y72580D01*
X76620Y72460D01*
X76660Y72320D01*
X76700Y72160D01*
Y71980D01*
Y71960D01*
Y71940D01*
Y71840D01*
X76680Y71700D01*
X76660Y71560D01*
Y71540D01*
X76640Y71460D01*
X76600Y71380D01*
X76560Y71320D01*
Y71300D01*
X76520Y71260D01*
Y71200D01*
X76500Y71140D01*
X76480Y71040D01*
Y70920D01*
Y70900D01*
Y70860D01*
X76460Y70740D01*
X76420Y70580D01*
X76400Y70520D01*
X76360Y70480D01*
X76340Y70460D01*
X76320Y70420D01*
X76300Y70360D01*
X76280Y70240D01*
Y70200D01*
X76260Y70100D01*
X76220Y69940D01*
X76120Y69700D01*
Y69680D01*
X76100Y69640D01*
X76060Y69580D01*
X76020Y69500D01*
X75900Y69280D01*
X75760Y69040D01*
X75180Y68100D01*
Y68080D01*
X75140Y68040D01*
X75100Y67960D01*
X75060Y67880D01*
X74960Y67680D01*
X74920Y67600D01*
X74880Y67520D01*
Y67500D01*
Y67440D01*
X74900Y67380D01*
X74940Y67360D01*
X74980Y67340D01*
X75020D01*
X75100Y67300D01*
X75260Y67240D01*
X75480Y67120D01*
X75500D01*
X75540Y67100D01*
X75600Y67060D01*
X75680Y67040D01*
X75860Y66960D01*
X76000Y66940D01*
X76020D01*
X76060Y66920D01*
X76140D01*
X76260Y66880D01*
X76420Y66840D01*
X76620Y66780D01*
X76880Y66680D01*
X77200Y66580D01*
X77220D01*
X77240Y66560D01*
X77360Y66520D01*
X77540Y66480D01*
X77760Y66400D01*
X78000Y66300D01*
X78260Y66200D01*
X78520Y66100D01*
X78780Y66000D01*
X78800D01*
X78820Y65980D01*
X78940Y65900D01*
X79100Y65800D01*
X79280Y65700D01*
X79300D01*
X79320Y65680D01*
X79420Y65620D01*
X79520Y65540D01*
X79600Y65460D01*
X79620D01*
X79640Y65420D01*
X79740Y65360D01*
X79860Y65280D01*
X80000Y65240D01*
X80040D01*
X80100Y65220D01*
X80180Y65180D01*
X80260Y65120D01*
X80280Y65100D01*
X80340Y65080D01*
X80460Y65040D01*
X80540Y65020D01*
X80740D01*
X80840Y65000D01*
X81000Y64960D01*
X81020D01*
X81040Y64940D01*
X81140Y64920D01*
X81300Y64860D01*
X81460Y64800D01*
X81480D01*
X81500Y64780D01*
X81620Y64740D01*
X81780Y64700D01*
X82000Y64640D01*
X82060D01*
X82120Y64620D01*
X82200D01*
X82380Y64600D01*
X82740D01*
X82840Y64580D01*
X83080Y64560D01*
X83180Y64520D01*
X83240Y64480D01*
X83280Y64460D01*
X83320Y64440D01*
X83400Y64400D01*
X83500Y64380D01*
X83640Y64340D01*
X83820Y64300D01*
X84040Y64260D01*
X84080D01*
X84160Y64240D01*
X84280Y64220D01*
X84460D01*
X84660Y64200D01*
X84900Y64180D01*
X85420Y64160D01*
X85640D01*
X85840Y64140D01*
X86080Y64120D01*
X86140D01*
X86280Y64100D01*
X86440Y64060D01*
X86580Y64020D01*
X86620D01*
X86700Y63980D01*
X86860Y63940D01*
X87100Y63900D01*
X87160D01*
X87240Y63880D01*
X87340D01*
X87460Y63860D01*
X87600D01*
X87920Y63840D01*
X88820D01*
Y67160D01*
Y67180D01*
Y67260D01*
Y67360D01*
Y67500D01*
Y67660D01*
Y67860D01*
Y68280D01*
Y68760D01*
Y69220D01*
X88800Y69420D01*
Y69620D01*
Y69800D01*
Y69940D01*
Y69980D01*
Y70060D01*
X88780Y70160D01*
Y70300D01*
X88760Y70420D01*
X88740Y70540D01*
X88700Y70620D01*
X88660Y70640D01*
X88640Y70660D01*
X88600Y70740D01*
X88540Y70860D01*
X88500Y70980D01*
X88480Y71020D01*
X88460Y71080D01*
X88400Y71140D01*
X88320Y71260D01*
X88200Y71400D01*
X88040Y71560D01*
X87840Y71780D01*
X87820Y71800D01*
X87740Y71880D01*
X87620Y72000D01*
X87480Y72140D01*
X87320Y72300D01*
X87140Y72460D01*
X86960Y72620D01*
X86780Y72760D01*
X86340Y73020D01*
X85960Y73380D01*
X85940Y73400D01*
X85900Y73420D01*
X85820Y73480D01*
X85720Y73560D01*
X85580Y73640D01*
X85400Y73740D01*
X85200Y73840D01*
X84960Y73940D01*
X84940Y73960D01*
X84840Y73980D01*
X84720Y74040D01*
X84540Y74100D01*
X84340Y74180D01*
X84100Y74240D01*
X83620Y74360D01*
X83020Y74520D01*
X82360Y74740D01*
X82340D01*
X82300Y74760D01*
X82260Y74780D01*
X82180Y74820D01*
X81980Y74880D01*
X81780Y74940D01*
X81760D01*
X81740Y74960D01*
X81620Y74980D01*
X81500Y75000D01*
X81380Y75020D01*
X81360D01*
X81300Y75040D01*
X81200Y75060D01*
X81060Y75100D01*
X81020Y75120D01*
X80920Y75160D01*
X80780Y75220D01*
X80600Y75300D01*
X80560Y75320D01*
X80500Y75340D01*
X80440Y75380D01*
X80240Y75440D01*
X79960Y75520D01*
X79940D01*
X79900Y75540D01*
X79820Y75560D01*
X79700Y75600D01*
X79580Y75620D01*
X79440Y75660D01*
X79120Y75720D01*
X78140Y75880D01*
X77200Y76080D01*
X77180D01*
X77140Y76100D01*
X77060Y76120D01*
X76940Y76140D01*
X76820Y76180D01*
X76660Y76200D01*
X76320Y76260D01*
X76300D01*
X76240Y76280D01*
X76140D01*
X76040Y76300D01*
X75760Y76320D01*
X74980D01*
X74680Y76340D01*
X74620D01*
X74540Y76360D01*
X74440D01*
X74240Y76400D01*
X74020Y76420D01*
X73980D01*
X73920Y76440D01*
X73840D01*
X73740Y76460D01*
X73620Y76480D01*
X73460D01*
X73300Y76500D01*
X72400Y76620D01*
X72320D01*
X72240Y76640D01*
X72120D01*
X71980Y76660D01*
X71820Y76680D01*
X71460Y76720D01*
X71060Y76760D01*
X70660Y76820D01*
X70280Y76860D01*
X70100Y76900D01*
X69940Y76920D01*
X69900D01*
X69820Y76940D01*
X69680Y76980D01*
X69540Y77000D01*
X69380Y77060D01*
X69220Y77100D01*
X69100Y77140D01*
X69020Y77200D01*
X69000Y77220D01*
X68940Y77280D01*
X68860Y77340D01*
X68760Y77380D01*
X68740D01*
X68700Y77400D01*
X68660Y77420D01*
X68580Y77460D01*
X68500Y77520D01*
X68380Y77600D01*
X68220Y77700D01*
X68200Y77720D01*
X68160Y77760D01*
X68080Y77800D01*
X67980Y77880D01*
X67760Y78060D01*
X67540Y78240D01*
X67520Y78260D01*
X67500Y78280D01*
X67400Y78380D01*
X67260Y78460D01*
X67200Y78500D01*
X67140Y78520D01*
X67120D01*
X67060Y78540D01*
X66960Y78580D01*
X66820Y78620D01*
X66460Y78780D01*
X65800Y79160D01*
X65760Y79180D01*
X65680Y79220D01*
X65540Y79300D01*
X65380Y79400D01*
X65180Y79500D01*
X64960Y79600D01*
X64500Y79820D01*
X64480Y79840D01*
X64400Y79860D01*
X64300Y79920D01*
X64180Y79960D01*
X63940Y80080D01*
X63820Y80120D01*
X63740Y80140D01*
X63720D01*
X63640Y80160D01*
X63520Y80220D01*
X63340Y80320D01*
X63320D01*
X63300Y80360D01*
X63240Y80400D01*
X63160Y80460D01*
X62980Y80600D01*
X62760Y80800D01*
X62740Y80820D01*
X62680Y80880D01*
X62580Y80960D01*
X62480Y81060D01*
X62220Y81240D01*
X62100Y81320D01*
X62000Y81380D01*
X61960Y81400D01*
X61900Y81420D01*
X61840Y81440D01*
X61740Y81480D01*
X61620Y81500D01*
X61460Y81520D01*
X61300Y81540D01*
X61220D01*
X61140Y81560D01*
X61040Y81580D01*
X60780Y81620D01*
X60540Y81700D01*
X60520D01*
X60500Y81720D01*
X60440Y81760D01*
X60360Y81800D01*
X60140Y81900D01*
X59860Y82060D01*
X59820Y82080D01*
X59740Y82120D01*
X59620Y82200D01*
X59460Y82280D01*
X59100Y82460D01*
X58920Y82520D01*
X58760Y82580D01*
X58740D01*
X58700Y82600D01*
X58460D01*
X58360Y82580D01*
X58260Y82520D01*
X58180Y82460D01*
X58140Y82420D01*
X58040Y82360D01*
X57880Y82280D01*
X57760Y82260D01*
X57640Y82240D01*
X57580D01*
X57520Y82260D01*
X57440Y82280D01*
X57240Y82340D01*
X57140Y82400D01*
X57060Y82480D01*
X56780Y82720D01*
Y89740D01*
D02*
G37*
G36*
X64920Y69420D02*
X64880D01*
X64760Y69400D01*
X64640Y69340D01*
X64580Y69300D01*
X64560Y69220D01*
Y69180D01*
X64520Y69080D01*
X64460Y68960D01*
X64360Y68820D01*
X64340Y68800D01*
X64300Y68740D01*
X64240Y68660D01*
X64160Y68540D01*
X64000Y68220D01*
Y68200D01*
X63980Y68160D01*
X63940Y68080D01*
X63900Y68000D01*
X63780Y67800D01*
X63660Y67580D01*
Y67560D01*
X63640Y67540D01*
X63600Y67480D01*
X63540Y67400D01*
X63400Y67200D01*
X63180Y66940D01*
X62800Y66460D01*
X62720Y62880D01*
X62680Y60340D01*
Y60320D01*
Y60300D01*
Y60160D01*
X62660Y59980D01*
Y59780D01*
X62640Y59560D01*
X62620Y59360D01*
X62580Y59200D01*
Y59160D01*
X62560Y59120D01*
Y59100D01*
Y59060D01*
X62580Y59020D01*
X62640Y59000D01*
X62720Y58980D01*
X62820Y58960D01*
X63000D01*
X63180Y58940D01*
X64080D01*
X64320Y58960D01*
X65760D01*
X66000Y58980D01*
X66280D01*
X66340Y59000D01*
X66440D01*
X66600Y59040D01*
X66660Y59080D01*
X66700Y59120D01*
X66720Y59140D01*
X66780Y59180D01*
X66860Y59240D01*
X66960Y59260D01*
X66980D01*
X67040Y59300D01*
X67140Y59380D01*
X67180Y59440D01*
X67240Y59520D01*
X67260Y59540D01*
X67320Y59620D01*
X67440Y59720D01*
X67520Y59800D01*
X67620Y59880D01*
X67640Y59900D01*
X67680Y59920D01*
X67740Y59980D01*
X67820Y60040D01*
X68020Y60220D01*
X68280Y60420D01*
X68300Y60440D01*
X68340Y60480D01*
X68420Y60540D01*
X68500Y60600D01*
X68720Y60800D01*
X68940Y61020D01*
X68960Y61040D01*
X68980Y61060D01*
X69100Y61180D01*
X69220Y61340D01*
X69280Y61400D01*
X69320Y61460D01*
Y61480D01*
X69340Y61520D01*
X69420Y61620D01*
X69480Y61760D01*
X69520Y61800D01*
X69560Y61840D01*
X69580Y61860D01*
X69640Y61920D01*
X69680Y61960D01*
X69720Y62040D01*
X69800Y62120D01*
X69880Y62240D01*
X69900Y62260D01*
X69920Y62300D01*
X69980Y62400D01*
X70080Y62520D01*
X70180Y62680D01*
X70320Y62900D01*
X70460Y63140D01*
X70640Y63420D01*
X71660Y65220D01*
Y65240D01*
X71680Y65260D01*
X71760Y65380D01*
X71840Y65500D01*
X71940Y65600D01*
X71960Y65640D01*
X72020Y65720D01*
X72080Y65820D01*
X72120Y65940D01*
Y65960D01*
X72140Y66020D01*
X72200Y66100D01*
X72280Y66200D01*
X72300D01*
X72320Y66220D01*
X72400Y66300D01*
X72420Y66340D01*
X72400Y66400D01*
X72340Y66460D01*
X72240Y66520D01*
X72220D01*
X72160Y66560D01*
X72040Y66600D01*
X71960Y66640D01*
X71860Y66680D01*
X71740Y66720D01*
X71580Y66780D01*
X71420Y66840D01*
X71220Y66900D01*
X71000Y66980D01*
X70760Y67060D01*
X70480Y67140D01*
X70180Y67240D01*
X70160D01*
X70120Y67260D01*
X70040Y67280D01*
X69920Y67320D01*
X69800Y67380D01*
X69660Y67420D01*
X69340Y67560D01*
X69320D01*
X69280Y67600D01*
X69200Y67640D01*
X69100Y67680D01*
X68880Y67780D01*
X68680Y67900D01*
X68640Y67920D01*
X68540Y68000D01*
X68380Y68100D01*
X68200Y68200D01*
X68160Y68220D01*
X68060Y68280D01*
X67940Y68340D01*
X67820Y68380D01*
X67800D01*
X67720Y68420D01*
X67600Y68440D01*
X67440Y68500D01*
X66980Y68700D01*
X66960Y68720D01*
X66900Y68740D01*
X66780Y68800D01*
X66640Y68860D01*
X66480Y68940D01*
X66280Y69020D01*
X65860Y69180D01*
X65840Y69200D01*
X65760Y69220D01*
X65660Y69260D01*
X65520Y69300D01*
X65220Y69380D01*
X65060Y69400D01*
X64920Y69420D01*
D02*
G37*
%LPD*%
D10*
X1012161Y329500D02*
G03*
X1012161Y329500I-394J0D01*
G01*
X988894Y338250D02*
G03*
X988894Y338250I-394J0D01*
G01*
X798161Y329500D02*
G03*
X798161Y329500I-394J0D01*
G01*
X774894Y338250D02*
G03*
X774894Y338250I-394J0D01*
G01*
X588661Y330000D02*
G03*
X588661Y330000I-394J0D01*
G01*
X565394Y338750D02*
G03*
X565394Y338750I-394J0D01*
G01*
X373661Y328000D02*
G03*
X373661Y328000I-394J0D01*
G01*
X350394Y336750D02*
G03*
X350394Y336750I-394J0D01*
G01*
X160161Y327500D02*
G03*
X160161Y327500I-394J0D01*
G01*
X136894Y336250D02*
G03*
X136894Y336250I-394J0D01*
G01*
D11*
X472287Y333992D02*
G03*
X472287Y333992I-787J0D01*
G01*
X262287Y333780D02*
G03*
X262287Y333780I-787J0D01*
G01*
X49787Y334465D02*
G03*
X49787Y334465I-787J0D01*
G01*
X894787Y331650D02*
G03*
X894787Y331650I-787J0D01*
G01*
X681787Y334492D02*
G03*
X681787Y334492I-787J0D01*
G01*
X1008815Y313752D02*
Y345248D01*
X948185D02*
X1008815D01*
X948185Y313752D02*
Y345248D01*
Y313752D02*
X1008815D01*
X794815D02*
Y345248D01*
X734185D02*
X794815D01*
X734185Y313752D02*
Y345248D01*
Y313752D02*
X794815D01*
X585315Y314252D02*
Y345748D01*
X524685D02*
X585315D01*
X524685Y314252D02*
Y345748D01*
Y314252D02*
X585315D01*
X370315Y312252D02*
Y343748D01*
X309685D02*
X370315D01*
X309685Y312252D02*
Y343748D01*
Y312252D02*
X370315D01*
X156815Y311752D02*
Y343248D01*
X96185D02*
X156815D01*
X96185Y311752D02*
Y343248D01*
Y311752D02*
X156815D01*
X480201Y251512D02*
Y329858D01*
X462484Y251512D02*
X480201D01*
X462484D02*
Y329858D01*
X480122D01*
X480201D01*
X270201Y251299D02*
Y329646D01*
X252484Y251299D02*
X270201D01*
X252484D02*
Y329646D01*
X270122D01*
X270201D01*
X57701Y251984D02*
Y330331D01*
X39984Y251984D02*
X57701D01*
X39984D02*
Y330331D01*
X57622D01*
X57701D01*
X902701Y249169D02*
Y327516D01*
X884984Y249169D02*
X902701D01*
X884984D02*
Y327516D01*
X902622D01*
X902701D01*
X689701Y252012D02*
Y330358D01*
X671984Y252012D02*
X689701D01*
X671984D02*
Y330358D01*
X689622D01*
X689701D01*
D12*
X1058000Y136296D02*
Y235889D01*
X971750Y285686D02*
X1058000Y235889D01*
X971750Y86500D02*
X1058000Y136296D01*
X885500D02*
X971750Y86500D01*
X885500Y136296D02*
Y235889D01*
X971800Y285686D01*
X845000Y138796D02*
Y238389D01*
X758750Y288186D02*
X845000Y238389D01*
X758750Y89000D02*
X845000Y138796D01*
X672500D02*
X758750Y89000D01*
X672500Y138796D02*
Y238389D01*
X758800Y288186D01*
X635000Y137796D02*
Y237389D01*
X548750Y287186D02*
X635000Y237389D01*
X548750Y88000D02*
X635000Y137796D01*
X462500D02*
X548750Y88000D01*
X462500Y137796D02*
Y237389D01*
X548800Y287186D01*
X214000Y139296D02*
Y238889D01*
X127750Y288686D02*
X214000Y238889D01*
X127750Y89500D02*
X214000Y139296D01*
X41500D02*
X127750Y89500D01*
X41500Y139296D02*
Y238889D01*
X127800Y288686D01*
X425500Y137296D02*
Y236889D01*
X339250Y286686D02*
X425500Y236889D01*
X339250Y87500D02*
X425500Y137296D01*
X253000D02*
X339250Y87500D01*
X253000Y137296D02*
Y236889D01*
X339300Y286686D01*
D13*
X957000Y303500D02*
Y309498D01*
X959999D01*
X960999Y308498D01*
Y306499D01*
X959999Y305499D01*
X957000D01*
X962998Y306499D02*
X966997D01*
X987500Y303500D02*
Y309498D01*
X990499D01*
X991499Y308498D01*
Y306499D01*
X990499Y305499D01*
X987500D01*
X993498Y306499D02*
X997497D01*
X995497Y308498D02*
Y304500D01*
X742173Y302701D02*
Y308699D01*
X745172D01*
X746172Y307699D01*
Y305700D01*
X745172Y304700D01*
X742173D01*
X748171Y305700D02*
X752170D01*
X772673Y302701D02*
Y308699D01*
X775672D01*
X776672Y307699D01*
Y305700D01*
X775672Y304700D01*
X772673D01*
X778671Y305700D02*
X782670D01*
X780671Y307699D02*
Y303700D01*
X533673Y303827D02*
Y309825D01*
X536672D01*
X537672Y308825D01*
Y306826D01*
X536672Y305826D01*
X533673D01*
X539671Y306826D02*
X543670D01*
X564173Y303827D02*
Y309825D01*
X567172D01*
X568172Y308825D01*
Y306826D01*
X567172Y305826D01*
X564173D01*
X570171Y306826D02*
X574170D01*
X572171Y308825D02*
Y304826D01*
X318500Y302000D02*
Y307998D01*
X321499D01*
X322499Y306998D01*
Y304999D01*
X321499Y303999D01*
X318500D01*
X324498Y304999D02*
X328497D01*
X349000Y302000D02*
Y307998D01*
X351999D01*
X352999Y306998D01*
Y304999D01*
X351999Y303999D01*
X349000D01*
X354998Y304999D02*
X358997D01*
X356997Y306998D02*
Y303000D01*
X135500Y301500D02*
Y307498D01*
X138499D01*
X139499Y306498D01*
Y304499D01*
X138499Y303499D01*
X135500D01*
X141498Y304499D02*
X145497D01*
X143497Y306498D02*
Y302500D01*
X105000Y301500D02*
Y307498D01*
X107999D01*
X108999Y306498D01*
Y304499D01*
X107999Y303499D01*
X105000D01*
X110998Y304499D02*
X114997D01*
X176999Y92498D02*
X175999Y93498D01*
X174000D01*
X173000Y92498D01*
Y88500D01*
X174000Y87500D01*
X175999D01*
X176999Y88500D01*
Y90499D01*
X174999D01*
X178998Y87500D02*
Y93498D01*
X182997Y87500D01*
Y93498D01*
X184996D02*
Y87500D01*
X187995D01*
X188995Y88500D01*
Y92498D01*
X187995Y93498D01*
X184996D01*
X225499Y93498D02*
X224499Y94498D01*
X222500D01*
X221500Y93498D01*
Y89500D01*
X222500Y88500D01*
X224499D01*
X225499Y89500D01*
Y91499D01*
X223499D01*
X227498Y88500D02*
Y94498D01*
X231497Y88500D01*
Y94498D01*
X233496D02*
Y88500D01*
X236495D01*
X237495Y89500D01*
Y93498D01*
X236495Y94498D01*
X233496D01*
X275499Y91998D02*
X274499Y92998D01*
X272500D01*
X271500Y91998D01*
Y88000D01*
X272500Y87000D01*
X274499D01*
X275499Y88000D01*
Y89999D01*
X273499D01*
X277498Y87000D02*
Y92998D01*
X281497Y87000D01*
Y92998D01*
X283496D02*
Y87000D01*
X286495D01*
X287495Y88000D01*
Y91998D01*
X286495Y92998D01*
X283496D01*
X794500Y89500D02*
Y95498D01*
X797499D01*
X798499Y94498D01*
Y92499D01*
X797499Y91499D01*
X794500D01*
X800498Y92499D02*
X804497D01*
X802497Y94498D02*
Y90500D01*
X845000Y89000D02*
Y94998D01*
X847999D01*
X848999Y93998D01*
Y91999D01*
X847999Y90999D01*
X845000D01*
X850998Y91999D02*
X854997D01*
X852997Y93998D02*
Y90000D01*
X894500Y89500D02*
Y95498D01*
X897499D01*
X898499Y94498D01*
Y92499D01*
X897499Y91499D01*
X894500D01*
X900498Y92499D02*
X904497D01*
X902497Y94498D02*
Y90500D01*
X874500Y320683D02*
Y315685D01*
X876999D01*
X877832Y316518D01*
Y317351D01*
X876999Y318184D01*
X874500D01*
X876999D01*
X877832Y319017D01*
Y319850D01*
X876999Y320683D01*
X874500D01*
X879498Y318184D02*
X882831D01*
X874500Y310183D02*
Y305185D01*
X876999D01*
X877832Y306018D01*
Y306851D01*
X876999Y307684D01*
X874500D01*
X876999D01*
X877832Y308517D01*
Y309350D01*
X876999Y310183D01*
X874500D01*
X879498Y305185D02*
X881164D01*
X880331D01*
Y310183D01*
X879498Y309350D01*
X874500Y300683D02*
Y295685D01*
X876999D01*
X877832Y296518D01*
Y297351D01*
X876999Y298184D01*
X874500D01*
X876999D01*
X877832Y299017D01*
Y299850D01*
X876999Y300683D01*
X874500D01*
X882831Y295685D02*
X879498D01*
X882831Y299017D01*
Y299850D01*
X881998Y300683D01*
X880331D01*
X879498Y299850D01*
X874500Y290683D02*
Y285685D01*
X876999D01*
X877832Y286518D01*
Y287351D01*
X876999Y288184D01*
X874500D01*
X876999D01*
X877832Y289017D01*
Y289850D01*
X876999Y290683D01*
X874500D01*
X879498Y289850D02*
X880331Y290683D01*
X881998D01*
X882831Y289850D01*
Y289017D01*
X881998Y288184D01*
X881164D01*
X881998D01*
X882831Y287351D01*
Y286518D01*
X881998Y285685D01*
X880331D01*
X879498Y286518D01*
X874000Y280683D02*
Y275685D01*
X876499D01*
X877332Y276518D01*
Y277351D01*
X876499Y278184D01*
X874000D01*
X876499D01*
X877332Y279017D01*
Y279850D01*
X876499Y280683D01*
X874000D01*
X881498Y275685D02*
Y280683D01*
X878998Y278184D01*
X882331D01*
X874000Y270683D02*
Y265685D01*
X876499D01*
X877332Y266518D01*
Y267351D01*
X876499Y268184D01*
X874000D01*
X876499D01*
X877332Y269017D01*
Y269850D01*
X876499Y270683D01*
X874000D01*
X882331D02*
X878998D01*
Y268184D01*
X880665Y269017D01*
X881498D01*
X882331Y268184D01*
Y266518D01*
X881498Y265685D01*
X879831D01*
X878998Y266518D01*
X858500Y256185D02*
Y261183D01*
X860999D01*
X861832Y260350D01*
Y258684D01*
X860999Y257851D01*
X858500D01*
X863498Y258684D02*
X866831D01*
X865164Y260350D02*
Y257018D01*
X868497Y256185D02*
X871829Y259517D01*
X873495Y261183D02*
Y256185D01*
X875994D01*
X876827Y257018D01*
Y257851D01*
X875994Y258684D01*
X873495D01*
X875994D01*
X876827Y259517D01*
Y260350D01*
X875994Y261183D01*
X873495D01*
X881826D02*
X880160Y260350D01*
X878493Y258684D01*
Y257018D01*
X879327Y256185D01*
X880993D01*
X881826Y257018D01*
Y257851D01*
X880993Y258684D01*
X878493D01*
X661500Y323526D02*
Y318528D01*
X663999D01*
X664832Y319361D01*
Y320194D01*
X663999Y321027D01*
X661500D01*
X663999D01*
X664832Y321860D01*
Y322693D01*
X663999Y323526D01*
X661500D01*
X666498Y321027D02*
X669831D01*
X661500Y313026D02*
Y308028D01*
X663999D01*
X664832Y308861D01*
Y309694D01*
X663999Y310527D01*
X661500D01*
X663999D01*
X664832Y311360D01*
Y312193D01*
X663999Y313026D01*
X661500D01*
X666498Y308028D02*
X668164D01*
X667331D01*
Y313026D01*
X666498Y312193D01*
X661500Y303526D02*
Y298528D01*
X663999D01*
X664832Y299361D01*
Y300194D01*
X663999Y301027D01*
X661500D01*
X663999D01*
X664832Y301860D01*
Y302693D01*
X663999Y303526D01*
X661500D01*
X669831Y298528D02*
X666498D01*
X669831Y301860D01*
Y302693D01*
X668998Y303526D01*
X667331D01*
X666498Y302693D01*
X661500Y293526D02*
Y288528D01*
X663999D01*
X664832Y289361D01*
Y290194D01*
X663999Y291027D01*
X661500D01*
X663999D01*
X664832Y291860D01*
Y292693D01*
X663999Y293526D01*
X661500D01*
X666498Y292693D02*
X667331Y293526D01*
X668998D01*
X669831Y292693D01*
Y291860D01*
X668998Y291027D01*
X668164D01*
X668998D01*
X669831Y290194D01*
Y289361D01*
X668998Y288528D01*
X667331D01*
X666498Y289361D01*
X661000Y283526D02*
Y278528D01*
X663499D01*
X664332Y279361D01*
Y280194D01*
X663499Y281027D01*
X661000D01*
X663499D01*
X664332Y281860D01*
Y282693D01*
X663499Y283526D01*
X661000D01*
X668498Y278528D02*
Y283526D01*
X665998Y281027D01*
X669331D01*
X661000Y273526D02*
Y268528D01*
X663499D01*
X664332Y269361D01*
Y270194D01*
X663499Y271027D01*
X661000D01*
X663499D01*
X664332Y271860D01*
Y272693D01*
X663499Y273526D01*
X661000D01*
X669331D02*
X665998D01*
Y271027D01*
X667664Y271860D01*
X668498D01*
X669331Y271027D01*
Y269361D01*
X668498Y268528D01*
X666831D01*
X665998Y269361D01*
X645500Y259028D02*
Y264026D01*
X647999D01*
X648832Y263193D01*
Y261527D01*
X647999Y260694D01*
X645500D01*
X650498Y261527D02*
X653831D01*
X652165Y263193D02*
Y259861D01*
X655497Y259028D02*
X658829Y262360D01*
X660495Y264026D02*
Y259028D01*
X662994D01*
X663827Y259861D01*
Y260694D01*
X662994Y261527D01*
X660495D01*
X662994D01*
X663827Y262360D01*
Y263193D01*
X662994Y264026D01*
X660495D01*
X668826D02*
X667160Y263193D01*
X665493Y261527D01*
Y259861D01*
X666327Y259028D01*
X667993D01*
X668826Y259861D01*
Y260694D01*
X667993Y261527D01*
X665493D01*
X452000Y323026D02*
Y318028D01*
X454499D01*
X455332Y318861D01*
Y319694D01*
X454499Y320527D01*
X452000D01*
X454499D01*
X455332Y321360D01*
Y322193D01*
X454499Y323026D01*
X452000D01*
X456998Y320527D02*
X460331D01*
X452000Y312526D02*
Y307528D01*
X454499D01*
X455332Y308361D01*
Y309194D01*
X454499Y310027D01*
X452000D01*
X454499D01*
X455332Y310860D01*
Y311693D01*
X454499Y312526D01*
X452000D01*
X456998Y307528D02*
X458665D01*
X457831D01*
Y312526D01*
X456998Y311693D01*
X452000Y303026D02*
Y298028D01*
X454499D01*
X455332Y298861D01*
Y299694D01*
X454499Y300527D01*
X452000D01*
X454499D01*
X455332Y301360D01*
Y302193D01*
X454499Y303026D01*
X452000D01*
X460331Y298028D02*
X456998D01*
X460331Y301360D01*
Y302193D01*
X459498Y303026D01*
X457831D01*
X456998Y302193D01*
X452000Y293026D02*
Y288028D01*
X454499D01*
X455332Y288861D01*
Y289694D01*
X454499Y290527D01*
X452000D01*
X454499D01*
X455332Y291360D01*
Y292193D01*
X454499Y293026D01*
X452000D01*
X456998Y292193D02*
X457831Y293026D01*
X459498D01*
X460331Y292193D01*
Y291360D01*
X459498Y290527D01*
X458665D01*
X459498D01*
X460331Y289694D01*
Y288861D01*
X459498Y288028D01*
X457831D01*
X456998Y288861D01*
X451500Y283026D02*
Y278028D01*
X453999D01*
X454832Y278861D01*
Y279694D01*
X453999Y280527D01*
X451500D01*
X453999D01*
X454832Y281360D01*
Y282193D01*
X453999Y283026D01*
X451500D01*
X458998Y278028D02*
Y283026D01*
X456498Y280527D01*
X459831D01*
X451500Y273026D02*
Y268028D01*
X453999D01*
X454832Y268861D01*
Y269694D01*
X453999Y270527D01*
X451500D01*
X453999D01*
X454832Y271360D01*
Y272193D01*
X453999Y273026D01*
X451500D01*
X459831D02*
X456498D01*
Y270527D01*
X458165Y271360D01*
X458998D01*
X459831Y270527D01*
Y268861D01*
X458998Y268028D01*
X457331D01*
X456498Y268861D01*
X436000Y258528D02*
Y263526D01*
X438499D01*
X439332Y262693D01*
Y261027D01*
X438499Y260194D01*
X436000D01*
X440998Y261027D02*
X444331D01*
X442664Y262693D02*
Y259361D01*
X445997Y258528D02*
X449329Y261860D01*
X450995Y263526D02*
Y258528D01*
X453494D01*
X454327Y259361D01*
Y260194D01*
X453494Y261027D01*
X450995D01*
X453494D01*
X454327Y261860D01*
Y262693D01*
X453494Y263526D01*
X450995D01*
X459326D02*
X457660Y262693D01*
X455994Y261027D01*
Y259361D01*
X456827Y258528D01*
X458493D01*
X459326Y259361D01*
Y260194D01*
X458493Y261027D01*
X455994D01*
X242000Y322813D02*
Y317815D01*
X244499D01*
X245332Y318648D01*
Y319481D01*
X244499Y320314D01*
X242000D01*
X244499D01*
X245332Y321147D01*
Y321980D01*
X244499Y322813D01*
X242000D01*
X246998Y320314D02*
X250331D01*
X242000Y312313D02*
Y307315D01*
X244499D01*
X245332Y308148D01*
Y308981D01*
X244499Y309814D01*
X242000D01*
X244499D01*
X245332Y310647D01*
Y311480D01*
X244499Y312313D01*
X242000D01*
X246998Y307315D02*
X248664D01*
X247831D01*
Y312313D01*
X246998Y311480D01*
X242000Y302813D02*
Y297815D01*
X244499D01*
X245332Y298648D01*
Y299481D01*
X244499Y300314D01*
X242000D01*
X244499D01*
X245332Y301147D01*
Y301980D01*
X244499Y302813D01*
X242000D01*
X250331Y297815D02*
X246998D01*
X250331Y301147D01*
Y301980D01*
X249498Y302813D01*
X247831D01*
X246998Y301980D01*
X242000Y292813D02*
Y287815D01*
X244499D01*
X245332Y288648D01*
Y289481D01*
X244499Y290314D01*
X242000D01*
X244499D01*
X245332Y291147D01*
Y291980D01*
X244499Y292813D01*
X242000D01*
X246998Y291980D02*
X247831Y292813D01*
X249498D01*
X250331Y291980D01*
Y291147D01*
X249498Y290314D01*
X248664D01*
X249498D01*
X250331Y289481D01*
Y288648D01*
X249498Y287815D01*
X247831D01*
X246998Y288648D01*
X241500Y282813D02*
Y277815D01*
X243999D01*
X244832Y278648D01*
Y279481D01*
X243999Y280314D01*
X241500D01*
X243999D01*
X244832Y281147D01*
Y281980D01*
X243999Y282813D01*
X241500D01*
X248998Y277815D02*
Y282813D01*
X246498Y280314D01*
X249831D01*
X241500Y272813D02*
Y267815D01*
X243999D01*
X244832Y268648D01*
Y269481D01*
X243999Y270314D01*
X241500D01*
X243999D01*
X244832Y271147D01*
Y271980D01*
X243999Y272813D01*
X241500D01*
X249831D02*
X246498D01*
Y270314D01*
X248165Y271147D01*
X248998D01*
X249831Y270314D01*
Y268648D01*
X248998Y267815D01*
X247331D01*
X246498Y268648D01*
X226000Y258315D02*
Y263313D01*
X228499D01*
X229332Y262480D01*
Y260814D01*
X228499Y259981D01*
X226000D01*
X230998Y260814D02*
X234331D01*
X232664Y262480D02*
Y259148D01*
X235997Y258315D02*
X239329Y261647D01*
X240995Y263313D02*
Y258315D01*
X243494D01*
X244327Y259148D01*
Y259981D01*
X243494Y260814D01*
X240995D01*
X243494D01*
X244327Y261647D01*
Y262480D01*
X243494Y263313D01*
X240995D01*
X249326D02*
X247660Y262480D01*
X245993Y260814D01*
Y259148D01*
X246827Y258315D01*
X248493D01*
X249326Y259148D01*
Y259981D01*
X248493Y260814D01*
X245993D01*
X13500Y259000D02*
Y263998D01*
X15999D01*
X16832Y263165D01*
Y261499D01*
X15999Y260666D01*
X13500D01*
X18498Y261499D02*
X21831D01*
X20165Y263165D02*
Y259833D01*
X23497Y259000D02*
X26829Y262332D01*
X28495Y263998D02*
Y259000D01*
X30994D01*
X31827Y259833D01*
Y260666D01*
X30994Y261499D01*
X28495D01*
X30994D01*
X31827Y262332D01*
Y263165D01*
X30994Y263998D01*
X28495D01*
X36826D02*
X35160Y263165D01*
X33494Y261499D01*
Y259833D01*
X34327Y259000D01*
X35993D01*
X36826Y259833D01*
Y260666D01*
X35993Y261499D01*
X33494D01*
X29000Y273498D02*
Y268500D01*
X31499D01*
X32332Y269333D01*
Y270166D01*
X31499Y270999D01*
X29000D01*
X31499D01*
X32332Y271832D01*
Y272665D01*
X31499Y273498D01*
X29000D01*
X37331D02*
X33998D01*
Y270999D01*
X35664Y271832D01*
X36498D01*
X37331Y270999D01*
Y269333D01*
X36498Y268500D01*
X34831D01*
X33998Y269333D01*
X29000Y283498D02*
Y278500D01*
X31499D01*
X32332Y279333D01*
Y280166D01*
X31499Y280999D01*
X29000D01*
X31499D01*
X32332Y281832D01*
Y282665D01*
X31499Y283498D01*
X29000D01*
X36498Y278500D02*
Y283498D01*
X33998Y280999D01*
X37331D01*
X29500Y293498D02*
Y288500D01*
X31999D01*
X32832Y289333D01*
Y290166D01*
X31999Y290999D01*
X29500D01*
X31999D01*
X32832Y291832D01*
Y292665D01*
X31999Y293498D01*
X29500D01*
X34498Y292665D02*
X35331Y293498D01*
X36998D01*
X37831Y292665D01*
Y291832D01*
X36998Y290999D01*
X36165D01*
X36998D01*
X37831Y290166D01*
Y289333D01*
X36998Y288500D01*
X35331D01*
X34498Y289333D01*
X29500Y303498D02*
Y298500D01*
X31999D01*
X32832Y299333D01*
Y300166D01*
X31999Y300999D01*
X29500D01*
X31999D01*
X32832Y301832D01*
Y302665D01*
X31999Y303498D01*
X29500D01*
X37831Y298500D02*
X34498D01*
X37831Y301832D01*
Y302665D01*
X36998Y303498D01*
X35331D01*
X34498Y302665D01*
X29500Y312998D02*
Y308000D01*
X31999D01*
X32832Y308833D01*
Y309666D01*
X31999Y310499D01*
X29500D01*
X31999D01*
X32832Y311332D01*
Y312165D01*
X31999Y312998D01*
X29500D01*
X34498Y308000D02*
X36165D01*
X35331D01*
Y312998D01*
X34498Y312165D01*
X29500Y323498D02*
Y318500D01*
X31999D01*
X32832Y319333D01*
Y320166D01*
X31999Y320999D01*
X29500D01*
X31999D01*
X32832Y321832D01*
Y322665D01*
X31999Y323498D01*
X29500D01*
X34498Y320999D02*
X37831D01*
X495499Y91998D02*
X494499Y92998D01*
X492500D01*
X491500Y91998D01*
Y88000D01*
X492500Y87000D01*
X494499D01*
X495499Y88000D01*
Y89999D01*
X493499D01*
X497498Y87000D02*
Y92998D01*
X501497Y87000D01*
Y92998D01*
X503496D02*
Y87000D01*
X506495D01*
X507495Y88000D01*
Y91998D01*
X506495Y92998D01*
X503496D01*
X445499Y93498D02*
X444499Y94498D01*
X442500D01*
X441500Y93498D01*
Y89500D01*
X442500Y88500D01*
X444499D01*
X445499Y89500D01*
Y91499D01*
X443499D01*
X447498Y88500D02*
Y94498D01*
X451497Y88500D01*
Y94498D01*
X453496D02*
Y88500D01*
X456495D01*
X457495Y89500D01*
Y93498D01*
X456495Y94498D01*
X453496D01*
X396999Y92498D02*
X395999Y93498D01*
X394000D01*
X393000Y92498D01*
Y88500D01*
X394000Y87500D01*
X395999D01*
X396999Y88500D01*
Y90499D01*
X394999D01*
X398998Y87500D02*
Y93498D01*
X402997Y87500D01*
Y93498D01*
X404996D02*
Y87500D01*
X407995D01*
X408995Y88500D01*
Y92498D01*
X407995Y93498D01*
X404996D01*
X694500Y89000D02*
Y94998D01*
X697499D01*
X698499Y93998D01*
Y91999D01*
X697499Y90999D01*
X694500D01*
X700498Y91999D02*
X704497D01*
X702497Y93998D02*
Y90000D01*
X645000Y88500D02*
Y94498D01*
X647999D01*
X648999Y93498D01*
Y91499D01*
X647999Y90499D01*
X645000D01*
X650998Y91499D02*
X654997D01*
X652997Y93498D02*
Y89500D01*
X594500Y89000D02*
Y94998D01*
X597499D01*
X598499Y93998D01*
Y91999D01*
X597499Y90999D01*
X594500D01*
X600498Y91999D02*
X604497D01*
X602497Y93998D02*
Y90000D01*
X78500Y292998D02*
Y287000D01*
X81499D01*
X82499Y288000D01*
Y288999D01*
X81499Y289999D01*
X78500D01*
X81499D01*
X82499Y290999D01*
Y291998D01*
X81499Y292998D01*
X78500D01*
X84498Y287000D02*
Y292998D01*
X86497Y290999D01*
X88497Y292998D01*
Y287000D01*
X94495Y291998D02*
X93495Y292998D01*
X91496D01*
X90496Y291998D01*
Y290999D01*
X91496Y289999D01*
X93495D01*
X94495Y288999D01*
Y288000D01*
X93495Y287000D01*
X91496D01*
X90496Y288000D01*
X96494Y287000D02*
X98493D01*
X97494D01*
Y292998D01*
X96494Y291998D01*
X935999Y327500D02*
Y331498D01*
X934999Y332498D01*
X933000D01*
X932000Y331498D01*
Y327500D01*
X933000Y326500D01*
X934999D01*
X933999Y328499D02*
X935999Y326500D01*
X934999D02*
X935999Y327500D01*
X941997Y332498D02*
X937998D01*
Y329499D01*
X939997Y330499D01*
X940997D01*
X941997Y329499D01*
Y327500D01*
X940997Y326500D01*
X938998D01*
X937998Y327500D01*
X720999Y326500D02*
Y330498D01*
X719999Y331498D01*
X718000D01*
X717000Y330498D01*
Y326500D01*
X718000Y325500D01*
X719999D01*
X718999Y327499D02*
X720999Y325500D01*
X719999D02*
X720999Y326500D01*
X725997Y325500D02*
Y331498D01*
X722998Y328499D01*
X726997D01*
X513999Y327000D02*
Y330998D01*
X512999Y331998D01*
X511000D01*
X510000Y330998D01*
Y327000D01*
X511000Y326000D01*
X512999D01*
X511999Y327999D02*
X513999Y326000D01*
X512999D02*
X513999Y327000D01*
X515998Y330998D02*
X516998Y331998D01*
X518997D01*
X519997Y330998D01*
Y329999D01*
X518997Y328999D01*
X517997D01*
X518997D01*
X519997Y327999D01*
Y327000D01*
X518997Y326000D01*
X516998D01*
X515998Y327000D01*
X296999Y322500D02*
Y326498D01*
X295999Y327498D01*
X294000D01*
X293000Y326498D01*
Y322500D01*
X294000Y321500D01*
X295999D01*
X294999Y323499D02*
X296999Y321500D01*
X295999D02*
X296999Y322500D01*
X302997Y321500D02*
X298998D01*
X302997Y325499D01*
Y326498D01*
X301997Y327498D01*
X299998D01*
X298998Y326498D01*
X87499Y333000D02*
Y336998D01*
X86499Y337998D01*
X84500D01*
X83500Y336998D01*
Y333000D01*
X84500Y332000D01*
X86499D01*
X85499Y333999D02*
X87499Y332000D01*
X86499D02*
X87499Y333000D01*
X89498Y332000D02*
X91497D01*
X90498D01*
Y337998D01*
X89498Y336998D01*
X888899Y341698D02*
X886899D01*
X887899D01*
Y336700D01*
X886899Y335700D01*
X885900D01*
X884900Y336700D01*
X894897Y340698D02*
X893897Y341698D01*
X891898D01*
X890898Y340698D01*
Y339699D01*
X891898Y338699D01*
X893897D01*
X894897Y337699D01*
Y336700D01*
X893897Y335700D01*
X891898D01*
X890898Y336700D01*
X896896Y341698D02*
X900895D01*
X898895D01*
Y335700D01*
X906893Y341698D02*
X902894D01*
Y338699D01*
X904893Y339699D01*
X905893D01*
X906893Y338699D01*
Y336700D01*
X905893Y335700D01*
X903894D01*
X902894Y336700D01*
X675899Y344498D02*
X673899D01*
X674899D01*
Y339500D01*
X673899Y338500D01*
X672900D01*
X671900Y339500D01*
X681897Y343498D02*
X680897Y344498D01*
X678898D01*
X677898Y343498D01*
Y342499D01*
X678898Y341499D01*
X680897D01*
X681897Y340499D01*
Y339500D01*
X680897Y338500D01*
X678898D01*
X677898Y339500D01*
X683896Y344498D02*
X687895D01*
X685895D01*
Y338500D01*
X692893D02*
Y344498D01*
X689894Y341499D01*
X693893D01*
X466399Y343998D02*
X464399D01*
X465399D01*
Y339000D01*
X464399Y338000D01*
X463400D01*
X462400Y339000D01*
X472397Y342998D02*
X471397Y343998D01*
X469398D01*
X468398Y342998D01*
Y341999D01*
X469398Y340999D01*
X471397D01*
X472397Y339999D01*
Y339000D01*
X471397Y338000D01*
X469398D01*
X468398Y339000D01*
X474396Y343998D02*
X478395D01*
X476396D01*
Y338000D01*
X480394Y342998D02*
X481394Y343998D01*
X483393D01*
X484393Y342998D01*
Y341999D01*
X483393Y340999D01*
X482394D01*
X483393D01*
X484393Y339999D01*
Y339000D01*
X483393Y338000D01*
X481394D01*
X480394Y339000D01*
X256399Y343771D02*
X254399D01*
X255399D01*
Y338772D01*
X254399Y337772D01*
X253400D01*
X252400Y338772D01*
X262397Y342771D02*
X261397Y343771D01*
X259398D01*
X258398Y342771D01*
Y341771D01*
X259398Y340772D01*
X261397D01*
X262397Y339772D01*
Y338772D01*
X261397Y337772D01*
X259398D01*
X258398Y338772D01*
X264396Y343771D02*
X268395D01*
X266395D01*
Y337772D01*
X274393D02*
X270394D01*
X274393Y341771D01*
Y342771D01*
X273393Y343771D01*
X271394D01*
X270394Y342771D01*
X43899Y344471D02*
X41899D01*
X42899D01*
Y339472D01*
X41899Y338472D01*
X40900D01*
X39900Y339472D01*
X49897Y343471D02*
X48897Y344471D01*
X46898D01*
X45898Y343471D01*
Y342471D01*
X46898Y341472D01*
X48897D01*
X49897Y340472D01*
Y339472D01*
X48897Y338472D01*
X46898D01*
X45898Y339472D01*
X51896Y344471D02*
X55895D01*
X53895D01*
Y338472D01*
X57894D02*
X59894D01*
X58894D01*
Y344471D01*
X57894Y343471D01*
X921004Y295499D02*
Y289501D01*
X924003D01*
X925002Y290501D01*
Y291500D01*
X924003Y292500D01*
X921004D01*
X924003D01*
X925002Y293500D01*
Y294499D01*
X924003Y295499D01*
X921004D01*
X927002Y289501D02*
Y295499D01*
X929001Y293500D01*
X931000Y295499D01*
Y289501D01*
X936998Y294499D02*
X935999Y295499D01*
X933999D01*
X933000Y294499D01*
Y293500D01*
X933999Y292500D01*
X935999D01*
X936998Y291500D01*
Y290501D01*
X935999Y289501D01*
X933999D01*
X933000Y290501D01*
X942997Y295499D02*
X938998D01*
Y292500D01*
X940997Y293500D01*
X941997D01*
X942997Y292500D01*
Y290501D01*
X941997Y289501D01*
X939997D01*
X938998Y290501D01*
X704004Y292499D02*
Y286501D01*
X707003D01*
X708002Y287501D01*
Y288500D01*
X707003Y289500D01*
X704004D01*
X707003D01*
X708002Y290500D01*
Y291499D01*
X707003Y292499D01*
X704004D01*
X710002Y286501D02*
Y292499D01*
X712001Y290500D01*
X714000Y292499D01*
Y286501D01*
X719998Y291499D02*
X718999Y292499D01*
X716999D01*
X716000Y291499D01*
Y290500D01*
X716999Y289500D01*
X718999D01*
X719998Y288500D01*
Y287501D01*
X718999Y286501D01*
X716999D01*
X716000Y287501D01*
X724997Y286501D02*
Y292499D01*
X721998Y289500D01*
X725996D01*
X496504Y295999D02*
Y290001D01*
X499503D01*
X500502Y291001D01*
Y292000D01*
X499503Y293000D01*
X496504D01*
X499503D01*
X500502Y294000D01*
Y294999D01*
X499503Y295999D01*
X496504D01*
X502502Y290001D02*
Y295999D01*
X504501Y294000D01*
X506500Y295999D01*
Y290001D01*
X512498Y294999D02*
X511499Y295999D01*
X509499D01*
X508500Y294999D01*
Y294000D01*
X509499Y293000D01*
X511499D01*
X512498Y292000D01*
Y291001D01*
X511499Y290001D01*
X509499D01*
X508500Y291001D01*
X514498Y294999D02*
X515497Y295999D01*
X517497D01*
X518497Y294999D01*
Y294000D01*
X517497Y293000D01*
X516497D01*
X517497D01*
X518497Y292000D01*
Y291001D01*
X517497Y290001D01*
X515497D01*
X514498Y291001D01*
X288004Y288999D02*
Y283001D01*
X291003D01*
X292002Y284001D01*
Y285000D01*
X291003Y286000D01*
X288004D01*
X291003D01*
X292002Y287000D01*
Y287999D01*
X291003Y288999D01*
X288004D01*
X294002Y283001D02*
Y288999D01*
X296001Y287000D01*
X298000Y288999D01*
Y283001D01*
X303998Y287999D02*
X302999Y288999D01*
X300999D01*
X300000Y287999D01*
Y287000D01*
X300999Y286000D01*
X302999D01*
X303998Y285000D01*
Y284001D01*
X302999Y283001D01*
X300999D01*
X300000Y284001D01*
X309997Y283001D02*
X305998D01*
X309997Y287000D01*
Y287999D01*
X308997Y288999D01*
X306997D01*
X305998Y287999D01*
M02*
