M48
;Layer_Color=9474304
;FILE_FORMAT=2:5
INCH,TZ
;TYPE=PLATED
T1F00S00C0.01600
T2F00S00C0.02800
T3F00S00C0.03500
T4F00S00C0.03543
T5F00S00C0.04291
T6F00S00C0.12835
T7F00S00C0.17000
%
T01
X497000Y203000
Y218500
X493000
X487500
X489295Y241795
X493500Y254000
Y259000
X505000
X505500Y254000
X523669Y254500
X524069Y259000
X524000Y264500
Y269000
X537500
Y264500
Y259500
Y254500
X547500Y288500
X527000
X515000Y289000
Y295000
X509000Y302000
X507500Y282000
X469500Y300697
X461500Y301500
X458500Y286500
X452500
X445500Y285000
X463705Y276205
X438500Y327744
X534500Y330000
X555500
T02
X549000Y154500
X556500Y154000
X563250
X570000
X577500
X631000Y202000
X630500Y275500
X611500Y292000
X584500Y310000
X557000Y288000
X561000Y269000
X541500Y207500
Y190000
X541376Y168222
X549000Y165000
X556500
X563500
X570000
X577500
X598500Y178500
X609500
X619500Y171500
X612213Y214122
X457000Y197500
X463000Y166000
X420047Y166000
X415000Y197500
X377000Y203500
X374500Y166500
X411500Y245000
X411000Y261500
Y277500
X412000Y293500
X411000Y310000
X433000Y244000
X411000Y324500
X412000Y338500
T03
X401500Y203500
Y212000
X422000Y209000
X448000Y210500
Y203000
X359500Y314500
T04
X446500Y338226
X456500
X466500
X476500
X486500
X496500
X522000Y341500
X532000
X542000
X552000
X562000
X572000
X582000
T05
X645319Y185974
Y196844
Y207715
Y218585
Y229455
Y240325
Y251195
Y262065
Y272935
Y283805
Y294675
Y305545
X656500Y300110
Y289240
Y278370
Y267500
Y256630
Y245760
Y234890
Y224020
Y213150
Y202279
Y191409
Y310980
X645319Y316415
T06
X650910Y158573
Y343817
T07
X597000Y160000
X364000Y342000
X613000Y344000
M30
