G04*
G04 #@! TF.GenerationSoftware,Altium Limited,Altium Designer,19.1.8 (144)*
G04*
G04 Layer_Color=16711935*
%FSLAX25Y25*%
%MOIN*%
G70*
G01*
G75*
%ADD33C,0.06800*%
%ADD34R,0.06800X0.06800*%
%ADD35C,0.07453*%
%ADD36R,0.07453X0.07453*%
%ADD37C,0.19540*%
%ADD38C,0.06706*%
%ADD39R,0.06706X0.06706*%
%ADD40C,0.03300*%
%ADD41C,0.05800*%
%ADD42C,0.20800*%
D33*
X595000Y315000D02*
D03*
D34*
X604843D02*
D03*
D35*
X645319Y185974D02*
D03*
X656500Y191409D02*
D03*
X645319Y196844D02*
D03*
X656500Y202279D02*
D03*
X645319Y207715D02*
D03*
X656500Y213150D02*
D03*
X645319Y218585D02*
D03*
X656500Y224020D02*
D03*
X645319Y229455D02*
D03*
X656500Y234890D02*
D03*
X645319Y240325D02*
D03*
X656500Y245760D02*
D03*
X645319Y251195D02*
D03*
X656500Y256630D02*
D03*
X645319Y262065D02*
D03*
X656500Y267500D02*
D03*
X645319Y272935D02*
D03*
X656500Y278370D02*
D03*
X645319Y283805D02*
D03*
X656500Y289240D02*
D03*
X645319Y294675D02*
D03*
X656500Y300110D02*
D03*
X645319Y305545D02*
D03*
X656500Y310980D02*
D03*
D36*
X645319Y316415D02*
D03*
D37*
X650910Y343817D02*
D03*
Y158573D02*
D03*
D38*
X542000Y341500D02*
D03*
X532000D02*
D03*
X552000D02*
D03*
X562000D02*
D03*
X572000D02*
D03*
X582000D02*
D03*
X446500Y341226D02*
D03*
X456500D02*
D03*
X466500D02*
D03*
X476500D02*
D03*
X486500D02*
D03*
D39*
X522000Y341500D02*
D03*
X496500Y341226D02*
D03*
D40*
X516000Y289000D02*
D03*
Y295000D02*
D03*
X536500Y258500D02*
D03*
Y268000D02*
D03*
X526000Y259000D02*
D03*
X536062Y254250D02*
D03*
X526000D02*
D03*
X536387Y263000D02*
D03*
X525500D02*
D03*
X498000Y223000D02*
D03*
X527000Y327000D02*
D03*
X557000D02*
D03*
X552000Y285000D02*
D03*
X455500Y294000D02*
D03*
Y288000D02*
D03*
X481000Y219500D02*
D03*
X475000D02*
D03*
X483000Y223500D02*
D03*
X506000Y255000D02*
D03*
X522500Y266500D02*
D03*
X461500Y301500D02*
D03*
X527000Y285000D02*
D03*
X445500Y285000D02*
D03*
X505500Y307500D02*
D03*
X505000Y259000D02*
D03*
X506500Y282000D02*
D03*
X467500Y300697D02*
D03*
X438500Y327744D02*
D03*
D41*
X601000Y353500D02*
D03*
X432500Y353000D02*
D03*
Y346500D02*
D03*
X594000Y341000D02*
D03*
X411547Y204953D02*
D03*
X399000Y203500D02*
D03*
X558500Y284000D02*
D03*
X449303Y205303D02*
D03*
X624000Y198000D02*
D03*
X541500Y207500D02*
D03*
X549000Y165000D02*
D03*
Y154500D02*
D03*
X556500Y165000D02*
D03*
Y154000D02*
D03*
X563500Y165000D02*
D03*
X563250Y154000D02*
D03*
X570000Y165000D02*
D03*
Y154000D02*
D03*
X577500D02*
D03*
Y165000D02*
D03*
X612213Y214122D02*
D03*
X619500Y171500D02*
D03*
X561000Y262000D02*
D03*
X630500Y268500D02*
D03*
X611500Y285000D02*
D03*
X598500Y178500D02*
D03*
X369000Y314500D02*
D03*
X411500Y212000D02*
D03*
Y245000D02*
D03*
X411000Y261500D02*
D03*
Y277500D02*
D03*
X412000Y293500D02*
D03*
X411000Y310000D02*
D03*
X437000Y197500D02*
D03*
X411000Y324500D02*
D03*
X442047Y166000D02*
D03*
X396500Y166500D02*
D03*
X584500Y303000D02*
D03*
X609500Y178500D02*
D03*
X541376Y168222D02*
D03*
X541500Y190000D02*
D03*
X412000Y338500D02*
D03*
X433000Y244000D02*
D03*
D42*
X379000Y342000D02*
D03*
X613000Y344000D02*
D03*
X597000Y160000D02*
D03*
M02*
