M48
;Layer_Color=9474304
;FILE_FORMAT=2:5
INCH,LZ
;TYPE=PLATED
T1F00S00C0.01600
T2F00S00C0.02800
T3F00S00C0.03500
T4F00S00C0.03543
T5F00S00C0.04291
T6F00S00C0.12835
T7F00S00C0.17000
%
T01
X04915Y0200153
X0503653Y0201807
X0498Y0223
X0483Y02235
X0481Y02195
X0475
X0489295Y0241795
X0492738Y025425
X04935Y0259
X0505
X0506Y0254
X05125Y0246153
X05195Y0242653
X0526Y025425
Y0259
X05255Y0263
X05225Y02665
X05365Y0268
X0536387Y0263
X05365Y02585
X0536062Y025425
X0553693Y0268
X0552Y0285
X0527Y0285
X0516Y0289
Y0295
X05065Y0282
X05055Y03075
X0541347Y02135
X0466862Y0216863
X0461Y0217
X04578Y02388
X046Y0244
X0463705Y0276205
X04555Y0288
Y0294
X04615Y03015
X04675Y0300697
X04455Y0285
X04385Y0327744
X0527Y0327
X0557
T02
X0549Y01545
X05565Y0154
X056325
X057
X05775
X06305Y02685
X06115Y0285
X05845Y0303
X05585Y0284
X0561Y02635
X05415Y02075
Y019
X0541376Y0168222
X0549Y0165
X05565
X05635
X057
X05775
X05985Y01785
X06095
X06195Y01715
X0624Y0198
X0612213Y0214122
X0437Y01975
X0442047Y0166
X03965Y01665
X0399Y02035
X04115Y0245
X0411Y02615
Y02775
X0412Y02935
X0411Y031
X0433Y0244
X0411Y03175
X0412Y03385
X0595Y0315
X0604843
T03
X0411547Y0204953
X04115Y0212
X0449303Y0205303
X04325Y03465
Y0353
X0369Y03145
X0594Y0341
X0601Y03535
T04
X04465Y0341226
X04565
X04665
X04765
X04865
X04965
X0522Y03415
X0532
X0542
X0552
X0562
X0572
X0582
T05
X0645319Y0185974
Y0196844
Y0207715
Y0218585
Y0229455
Y0240325
Y0251195
Y0262065
Y0272935
Y0283805
Y0294675
Y0305545
X06565Y030011
Y028924
Y027837
Y02675
Y025663
Y024576
Y023489
Y022402
Y021315
Y0202279
Y0191409
Y031098
X0645319Y0316415
T06
X065091Y0158573
Y0343817
T07
X0597Y016
X0379Y0342
X0613Y0344
M30
