G04*
G04 #@! TF.GenerationSoftware,Altium Limited,Altium Designer,19.1.8 (144)*
G04*
G04 Layer_Color=65535*
%FSLAX25Y25*%
%MOIN*%
G70*
G01*
G75*
%ADD10C,0.00984*%
%ADD11C,0.02362*%
%ADD12C,0.01000*%
%ADD13C,0.00787*%
%ADD14C,0.00600*%
%ADD15C,0.01575*%
G36*
X468392Y233012D02*
X466892D01*
Y232012D01*
X468392D01*
Y233012D01*
D02*
G37*
G36*
X450512Y256797D02*
X449512D01*
Y255297D01*
X450512D01*
Y256797D01*
D02*
G37*
G36*
X470360Y284988D02*
X468860D01*
Y285988D01*
X470360D01*
Y284988D01*
D02*
G37*
G36*
X488077Y233012D02*
X486577D01*
Y232012D01*
X488077D01*
Y233012D01*
D02*
G37*
G36*
X502488Y258766D02*
X503488D01*
Y257266D01*
X502488D01*
Y258766D01*
D02*
G37*
G36*
X490045Y284988D02*
X488545D01*
Y285988D01*
X490045D01*
Y284988D01*
D02*
G37*
G36*
X543692Y250711D02*
X543831Y250684D01*
X543859Y250656D01*
X543942Y250628D01*
X544053Y250545D01*
X544192Y250434D01*
X544470Y250128D01*
Y241436D01*
X545136Y241270D01*
X545192D01*
X545331Y241242D01*
X545525Y241214D01*
X545720Y241131D01*
X545775Y241103D01*
X545886Y241075D01*
X545997Y241020D01*
X546108Y240964D01*
X546136D01*
X546164Y240936D01*
X546275Y240853D01*
X546442Y240798D01*
X546581Y240742D01*
X546608D01*
X546692Y240714D01*
X546803Y240631D01*
X546942Y240520D01*
X546969Y240492D01*
X547025Y240464D01*
X547108Y240409D01*
X547247Y240381D01*
X547386Y240325D01*
X547608Y240270D01*
X547858Y240242D01*
X547941D01*
X548052Y240214D01*
X548191D01*
X548469Y240159D01*
X548747Y240048D01*
X548774D01*
X548802Y240020D01*
X548885Y239965D01*
X548969Y239909D01*
X549108Y239826D01*
X549246Y239715D01*
X549413Y239576D01*
X549607Y239381D01*
X549635Y239354D01*
X549691Y239298D01*
X549802Y239215D01*
X549941Y239104D01*
X550246Y238881D01*
X550413Y238770D01*
X550579Y238715D01*
X550607D01*
X550663Y238687D01*
X550774Y238659D01*
X550885Y238604D01*
X551079Y238548D01*
X551274Y238465D01*
X551496Y238354D01*
X551774Y238215D01*
X551801Y238187D01*
X551912Y238159D01*
X552023Y238076D01*
X552190Y237993D01*
X552551Y237799D01*
X552718Y237715D01*
X552829Y237632D01*
X552856D01*
X552912Y237576D01*
X552995Y237548D01*
X553134Y237493D01*
X553551Y237326D01*
X553579D01*
X553606Y237299D01*
X553745Y237271D01*
X553912Y237243D01*
X554051Y237215D01*
X554078D01*
X554134Y237243D01*
X554217Y237271D01*
X554301Y237326D01*
X554356Y237354D01*
X554467Y237438D01*
X554606Y237548D01*
X554800Y237632D01*
X554828D01*
X554856Y237687D01*
X554967Y237771D01*
X555106Y237882D01*
X555300Y238076D01*
X555550Y238326D01*
X555884Y238687D01*
X556300Y239104D01*
X556328Y239131D01*
X556356Y239159D01*
X556522Y239326D01*
X556744Y239576D01*
X557050Y239881D01*
X557383Y240270D01*
X557744Y240659D01*
X558105Y241075D01*
X558438Y241492D01*
X558466Y241547D01*
X558577Y241658D01*
X558744Y241853D01*
X558938Y242075D01*
X559188Y242353D01*
X559494Y242686D01*
X559827Y243019D01*
X560160Y243353D01*
X560216Y243380D01*
X560327Y243491D01*
X560465Y243658D01*
X560688Y243825D01*
X560882Y244019D01*
X561104Y244186D01*
X561299Y244297D01*
X561465Y244380D01*
X561521Y244408D01*
X561576Y244436D01*
X561687Y244463D01*
X561826Y244519D01*
X562021Y244602D01*
X562243Y244713D01*
X562548Y244824D01*
X562576Y244852D01*
X562715Y244880D01*
X562882Y244963D01*
X563104Y245046D01*
X563381Y245185D01*
X563687Y245296D01*
X564353Y245602D01*
X564381D01*
X564437Y245630D01*
X564548Y245657D01*
X564714Y245685D01*
X564770Y245713D01*
X564881Y245741D01*
X565020Y245768D01*
X565186Y245796D01*
X565214D01*
X565325Y245824D01*
X565492Y245852D01*
X565686Y245907D01*
X565714D01*
X565742Y245935D01*
X565853Y245991D01*
X566019Y246074D01*
X566186Y246185D01*
X566214D01*
X566269Y246240D01*
X566353Y246296D01*
X566492Y246352D01*
X566769Y246491D01*
X567102Y246629D01*
X567130D01*
X567186Y246657D01*
X567269Y246685D01*
X567380Y246740D01*
X567630Y246796D01*
X567852Y246824D01*
X568019D01*
X568130Y246851D01*
X568213Y246879D01*
X568241Y246907D01*
X568324Y246935D01*
X568380D01*
X568491Y246963D01*
X568602Y246990D01*
X568963D01*
X569130Y247018D01*
X571768D01*
X573018Y245491D01*
X573101Y239243D01*
X572740Y238854D01*
X572712Y238826D01*
X572629Y238743D01*
X572518Y238659D01*
X572407Y238548D01*
X572379Y238521D01*
X572323Y238465D01*
X572268Y238409D01*
X572185Y238382D01*
X572157Y238354D01*
X572046Y238298D01*
X571851Y238215D01*
X571629Y238076D01*
X571573Y238048D01*
X571462Y237965D01*
X571268Y237854D01*
X571101Y237743D01*
X571074D01*
X571046Y237715D01*
X570935Y237660D01*
X570796Y237548D01*
X570768Y237521D01*
X570657Y237465D01*
X570518Y237354D01*
X570352Y237215D01*
X570324Y237188D01*
X570240Y237132D01*
X570129Y237021D01*
X569991Y236910D01*
X569602Y236632D01*
X569185Y236327D01*
X569158D01*
X569102Y236271D01*
X568991Y236216D01*
X568852Y236160D01*
X568547Y235993D01*
X568241Y235882D01*
X568213D01*
X568158Y235855D01*
X568075Y235827D01*
X567936Y235771D01*
X567741Y235688D01*
X567519Y235577D01*
X567269Y235438D01*
X566936Y235271D01*
X566908Y235244D01*
X566797Y235188D01*
X566631Y235105D01*
X566464Y234994D01*
X566075Y234744D01*
X565908Y234633D01*
X565797Y234549D01*
X565770Y234522D01*
X565714Y234466D01*
X565659Y234411D01*
Y234355D01*
X566158D01*
X566297Y234299D01*
X566492Y234244D01*
X566519D01*
X566547Y234216D01*
X566686Y234188D01*
X566880Y234105D01*
X567075Y234022D01*
X567130Y233994D01*
X567241Y233938D01*
X567408Y233883D01*
X567575Y233800D01*
X567602D01*
X567713Y233772D01*
X567825Y233744D01*
X567908Y233716D01*
X567936D01*
X567991Y233688D01*
X568130Y233661D01*
X568297Y233605D01*
X569574Y233216D01*
X569602D01*
X569630Y233189D01*
X569796Y233161D01*
X569963Y233105D01*
X570157Y233078D01*
X570185D01*
X570240Y233050D01*
X570324D01*
X570435Y233022D01*
X570740Y232939D01*
X571074Y232800D01*
X571101D01*
X571157Y232772D01*
X571240Y232744D01*
X571379Y232689D01*
X571629Y232606D01*
X571907Y232494D01*
X571935Y232467D01*
X572046Y232411D01*
X572157Y232355D01*
X572240Y232328D01*
X572268D01*
X572323Y232300D01*
X572407Y232272D01*
X572490Y232189D01*
X572518Y232161D01*
X572601Y232106D01*
X572712Y231995D01*
X572851Y231856D01*
X572879Y231828D01*
X572962Y231745D01*
X573073Y231633D01*
X573212Y231522D01*
X573240Y231495D01*
X573323Y231467D01*
X573379Y231411D01*
X573434Y231384D01*
X573462D01*
X573490Y231356D01*
X573573Y231300D01*
X573712Y231217D01*
X573878Y231078D01*
X574101Y230911D01*
X574351Y230689D01*
X574684Y230384D01*
X574739Y230356D01*
X574850Y230245D01*
X574989Y230078D01*
X575184Y229912D01*
X575600Y229468D01*
X575767Y229273D01*
X575906Y229079D01*
X575933Y229023D01*
X576017Y228884D01*
X576128Y228718D01*
X576294Y228523D01*
X576322D01*
Y228496D01*
X576350Y228440D01*
X576378Y228357D01*
X576405Y228218D01*
X576433Y228051D01*
Y227801D01*
Y227773D01*
Y227635D01*
Y227551D01*
X576461Y227413D01*
Y227246D01*
Y227079D01*
Y226829D01*
Y226579D01*
X576489Y226274D01*
Y225941D01*
Y225552D01*
Y225108D01*
Y224608D01*
Y224080D01*
Y219831D01*
X575795Y219137D01*
X573129D01*
X572906Y219165D01*
X572601D01*
X572518Y219193D01*
X572379D01*
X572129Y219220D01*
X571907Y219276D01*
X571851Y219304D01*
X571740Y219331D01*
X571546Y219359D01*
X571268Y219387D01*
X571212D01*
X571046Y219415D01*
X570824Y219443D01*
X570518D01*
X570352Y219470D01*
X570102Y219498D01*
X569796Y219526D01*
X569713D01*
X569630Y219554D01*
X569519D01*
X569269Y219609D01*
X568991Y219665D01*
X568963D01*
X568935Y219692D01*
X568769Y219720D01*
X568547Y219748D01*
X568269Y219804D01*
X568213D01*
X568075Y219831D01*
X567908Y219859D01*
X567630D01*
X567491Y219887D01*
X567297Y219942D01*
X567241Y219970D01*
X567130Y219998D01*
X566964Y220053D01*
X566769Y220109D01*
X566714Y220137D01*
X566603Y220164D01*
X566436Y220192D01*
X566242Y220248D01*
X566214D01*
X566103Y220276D01*
X565964Y220303D01*
X565686D01*
X565547Y220331D01*
X565464Y220387D01*
Y220414D01*
X565409Y220442D01*
X565325Y220470D01*
X565214Y220498D01*
X565186D01*
X565103Y220553D01*
X564964Y220637D01*
X564770Y220803D01*
X564742Y220831D01*
X564714Y220859D01*
X564631Y220914D01*
X564492Y220998D01*
X564326Y221109D01*
X564131Y221220D01*
X563853Y221359D01*
X563548Y221498D01*
X563520Y221525D01*
X563381Y221553D01*
X563215Y221636D01*
X562965Y221720D01*
X562659Y221831D01*
X562354Y221942D01*
X561993Y222053D01*
X561604Y222164D01*
X561549Y222192D01*
X561438Y222219D01*
X561271Y222275D01*
X561076Y222331D01*
X561049Y222358D01*
X560938Y222386D01*
X560799Y222442D01*
X560660Y222497D01*
X560632Y222525D01*
X560521Y222581D01*
X560382Y222608D01*
X560243Y222636D01*
X560216D01*
X560132Y222581D01*
X560049Y222525D01*
X559966Y222442D01*
X559882Y222331D01*
X559771Y222192D01*
Y222164D01*
X559716Y222108D01*
X559660Y222025D01*
X559577Y221886D01*
X559466Y221720D01*
X559327Y221525D01*
X559188Y221275D01*
X559022Y220998D01*
X558605Y220220D01*
Y220192D01*
X558577Y220164D01*
X558494Y220026D01*
X558411Y219859D01*
X558355Y219804D01*
X558327Y219748D01*
X558299Y219720D01*
X558216Y219609D01*
X558133Y219498D01*
X558049Y219359D01*
Y219331D01*
X558022Y219304D01*
X557966Y219193D01*
X557855Y219054D01*
X557105Y217999D01*
X556800Y217526D01*
X556772Y217499D01*
X556717Y217415D01*
X556605Y217249D01*
X556411Y217054D01*
X556356Y216999D01*
X556245Y216888D01*
X556050Y216693D01*
X555800Y216471D01*
X553828Y214833D01*
X553801Y214805D01*
X553745Y214777D01*
X553579Y214638D01*
X553356Y214472D01*
X553273Y214416D01*
X553218Y214361D01*
X553134Y214333D01*
X552995D01*
X552884Y214305D01*
X552579D01*
X552384Y214277D01*
X551829D01*
X551496Y214249D01*
X547275D01*
X546969Y214555D01*
X546942Y214583D01*
X546858Y214666D01*
X546775Y214805D01*
X546719Y214944D01*
Y214971D01*
Y215027D01*
Y215110D01*
Y215222D01*
Y215388D01*
Y215555D01*
Y215777D01*
X546803Y216554D01*
X546886Y217276D01*
Y217304D01*
Y217332D01*
Y217415D01*
X546914Y217554D01*
Y217721D01*
Y217971D01*
X546942Y218276D01*
Y218637D01*
Y218693D01*
Y218832D01*
X546969Y219054D01*
Y219359D01*
Y219720D01*
X546997Y220137D01*
Y220609D01*
Y221109D01*
Y224330D01*
X547469Y224719D01*
X547497Y224747D01*
X547580Y224858D01*
X547691Y224996D01*
X547830Y225163D01*
X547858Y225219D01*
X547941Y225302D01*
X548025Y225469D01*
X548108Y225607D01*
X548136Y225635D01*
X548191Y225718D01*
X548275Y225857D01*
X548358Y225996D01*
X548386Y226024D01*
X548441Y226107D01*
X548497Y226191D01*
X548552Y226274D01*
X548580Y226302D01*
X548691Y226413D01*
X548774Y226579D01*
X548802Y226774D01*
Y226829D01*
X548830Y226940D01*
X548913Y227107D01*
X549024Y227274D01*
X549274Y227524D01*
X548136Y228190D01*
X548108Y228218D01*
X548025Y228246D01*
X547858Y228357D01*
X547663Y228468D01*
X547608Y228496D01*
X547497Y228607D01*
X547302Y228773D01*
X547053Y228968D01*
X547025Y228995D01*
X546997Y229023D01*
X546830Y229162D01*
X546608Y229356D01*
X546303Y229551D01*
X546275D01*
X546247Y229606D01*
X546081Y229717D01*
X545831Y229856D01*
X545581Y229967D01*
X545525Y229995D01*
X545386Y230078D01*
X545192Y230162D01*
X544970Y230273D01*
X544914Y230301D01*
X544831Y230356D01*
X544692Y230439D01*
X544609Y230523D01*
X544581Y230551D01*
X544525Y230578D01*
X544442Y230662D01*
X544303Y230745D01*
X544137Y230884D01*
X543915Y230995D01*
X543665Y231161D01*
X543359Y231300D01*
X543331Y231328D01*
X543220Y231384D01*
X543054Y231439D01*
X542832Y231550D01*
X542609Y231661D01*
X542332Y231745D01*
X541804Y231939D01*
X541749Y231967D01*
X541610Y231995D01*
X541415Y232078D01*
X541165Y232161D01*
X541138D01*
X541110Y232189D01*
X540943Y232272D01*
X540721Y232383D01*
X540471Y232494D01*
X540443D01*
X540388Y232522D01*
X540305Y232578D01*
X540193Y232633D01*
X539916Y232717D01*
X539638Y232800D01*
X539610D01*
X539582Y232828D01*
X539471D01*
X539360Y232855D01*
X539194D01*
X538972Y232883D01*
X537472D01*
X537305Y232911D01*
X537139D01*
X537028Y232966D01*
X536889Y233022D01*
X536750Y233161D01*
X536722Y233189D01*
X536667Y233300D01*
X536583Y233439D01*
X536528Y233577D01*
Y233605D01*
X536500Y233744D01*
Y233855D01*
Y233994D01*
Y234161D01*
Y234355D01*
Y234383D01*
Y234411D01*
X536528Y234605D01*
X536555Y234855D01*
X536583Y235160D01*
X536667Y235494D01*
X536722Y235855D01*
X536833Y236188D01*
X536972Y236466D01*
X537305Y237215D01*
Y237243D01*
X537333Y237271D01*
X537416Y237438D01*
X537528Y237632D01*
X537639Y237826D01*
X538111Y238576D01*
X538138Y238604D01*
X538194Y238715D01*
X538277Y238854D01*
X538361Y239048D01*
X538444Y239270D01*
X538527Y239520D01*
X538583Y239770D01*
X538611Y240020D01*
Y240076D01*
X538638Y240187D01*
X538666Y240325D01*
X538722Y240492D01*
Y240520D01*
X538749Y240576D01*
X538777Y240659D01*
X538833Y240798D01*
X538999Y241242D01*
Y241270D01*
X539027Y241409D01*
X539110Y241575D01*
X539221Y241797D01*
Y241825D01*
X539249Y241853D01*
X539332Y242020D01*
X539471Y242242D01*
X539610Y242492D01*
X539638Y242519D01*
X539721Y242631D01*
X539805Y242769D01*
X539944Y242964D01*
X540166Y243408D01*
X540277Y243630D01*
X540332Y243825D01*
Y243852D01*
X540360Y243908D01*
X540388Y244047D01*
X540416Y244213D01*
X540443Y244436D01*
X540471Y244713D01*
X540499Y245046D01*
X540527Y245435D01*
Y245491D01*
Y245602D01*
Y245741D01*
X540554Y245963D01*
X540582Y246379D01*
Y246574D01*
X540610Y246713D01*
Y246740D01*
Y246768D01*
X540665Y246907D01*
X540721Y247074D01*
X540832Y247213D01*
Y247240D01*
X540860Y247268D01*
X540971Y247435D01*
X541138Y247712D01*
X541332Y248073D01*
Y248101D01*
X541388Y248184D01*
X541443Y248295D01*
X541499Y248462D01*
X541582Y248629D01*
X541637Y248851D01*
X541804Y249323D01*
Y249351D01*
X541832Y249379D01*
X541887Y249545D01*
X542026Y249767D01*
X542193Y250017D01*
X542415Y250267D01*
X542665Y250489D01*
X542998Y250656D01*
X543165Y250684D01*
X543359Y250711D01*
X543415D01*
X543554Y250739D01*
X543692Y250711D01*
D02*
G37*
%LPC*%
G36*
X570935Y245324D02*
X569935Y245296D01*
X569824D01*
X569713Y245269D01*
X569574D01*
X569380Y245241D01*
X569158Y245213D01*
X568658Y245130D01*
X568130Y245019D01*
X567602Y244852D01*
X567102Y244658D01*
X566880Y244519D01*
X566686Y244380D01*
X566658D01*
X566631Y244352D01*
X566519Y244297D01*
X566381Y244241D01*
X566353D01*
X566242Y244213D01*
X566103Y244186D01*
X565908Y244130D01*
X565853D01*
X565742Y244102D01*
X565547Y244047D01*
X565298Y243963D01*
X565242D01*
X565103Y243908D01*
X564936Y243852D01*
X564742Y243769D01*
X563548Y243297D01*
X563048Y243075D01*
X562993Y243047D01*
X562882Y242991D01*
X562715Y242908D01*
X562521Y242825D01*
X562493D01*
X562409Y242797D01*
X562298Y242769D01*
X562187Y242741D01*
X562132D01*
X561993Y242658D01*
X561882Y242575D01*
X561743Y242492D01*
X561576Y242353D01*
X561382Y242158D01*
X561354Y242131D01*
X561299Y242075D01*
X561188Y241964D01*
X561049Y241853D01*
X560771Y241547D01*
X560632Y241381D01*
X560521Y241242D01*
Y241214D01*
X560465Y241159D01*
X560382Y241075D01*
X560271Y240909D01*
X560077Y240659D01*
X559799Y240353D01*
X559466Y239965D01*
X559022Y239492D01*
X558994Y239465D01*
X558966Y239437D01*
X558883Y239354D01*
X558799Y239243D01*
X558549Y238965D01*
X558216Y238632D01*
X557800Y238187D01*
X557383Y237743D01*
X556911Y237243D01*
X556411Y236743D01*
X555606Y235827D01*
X555911Y235716D01*
X555939D01*
X556022Y235688D01*
X556189Y235632D01*
X556300D01*
X556467Y235605D01*
X556633Y235549D01*
X556855Y235521D01*
X557105Y235494D01*
X557383Y235466D01*
X557716Y235410D01*
X558105Y235383D01*
X558522Y235355D01*
X558994Y235299D01*
X559882Y235216D01*
X559966D01*
X560160Y235188D01*
X560382Y235160D01*
X560577Y235105D01*
X560632D01*
X560743Y235077D01*
X560965Y235049D01*
X561243Y235021D01*
X561493D01*
X561743Y234994D01*
X561993D01*
X562743Y234938D01*
X562937D01*
X563104Y234910D01*
X563270D01*
X563298Y234883D01*
X563437Y234855D01*
X563603Y234799D01*
X563742D01*
X563770Y234855D01*
X563853Y234938D01*
X563909Y235049D01*
X563937Y235105D01*
X563965Y235216D01*
X563992Y235327D01*
X564020Y235438D01*
Y235466D01*
X564048Y235521D01*
X564131Y235605D01*
X564242Y235743D01*
X564437Y235910D01*
X564714Y236104D01*
X564909Y236216D01*
X565103Y236354D01*
X565353Y236493D01*
X565631Y236632D01*
X566464Y237049D01*
X566908Y237326D01*
X566964Y237354D01*
X567075Y237438D01*
X567241Y237493D01*
X567436Y237521D01*
X567491D01*
X567630Y237576D01*
X567880Y237687D01*
X568213Y237854D01*
X568241Y237882D01*
X568297Y237910D01*
X568408Y237993D01*
X568547Y238076D01*
X568908Y238354D01*
X569296Y238687D01*
X569768Y239076D01*
X569796Y239104D01*
X569879Y239159D01*
X569963Y239215D01*
X570018Y239243D01*
X570074Y239270D01*
X570157Y239298D01*
X570268Y239354D01*
X570740Y239631D01*
X571407Y240020D01*
X571379Y242353D01*
Y242380D01*
Y242408D01*
Y242492D01*
Y242603D01*
X571351Y242853D01*
Y243186D01*
X571324Y243519D01*
Y243852D01*
X571296Y244158D01*
X571268Y244380D01*
Y244408D01*
Y244463D01*
X571240Y244658D01*
X571212Y244880D01*
X571157Y244963D01*
X571129Y245019D01*
X570935Y245324D01*
D02*
G37*
G36*
X542748Y246740D02*
X542498Y246491D01*
X542471Y246463D01*
X542415Y246407D01*
X542359Y246268D01*
X542304Y246074D01*
Y246046D01*
Y246018D01*
Y245935D01*
X542276Y245796D01*
Y245630D01*
Y245435D01*
X542248Y245158D01*
Y244852D01*
Y244796D01*
X542221Y244685D01*
Y244491D01*
X542193Y244241D01*
X542109Y243713D01*
X542082Y243463D01*
X542026Y243214D01*
Y243186D01*
X541998Y243130D01*
X541971Y243019D01*
X541915Y242880D01*
X541804Y242575D01*
X541610Y242269D01*
X541582Y242242D01*
X541526Y242186D01*
X541443Y242047D01*
X541360Y241881D01*
X541221Y241658D01*
X541082Y241409D01*
X540915Y241103D01*
X540749Y240742D01*
X540721Y240686D01*
X540693Y240576D01*
X540610Y240409D01*
X540554Y240187D01*
X540388Y239687D01*
X540360Y239409D01*
X540332Y239187D01*
Y239159D01*
X540305Y239076D01*
X540277Y238937D01*
X540193Y238743D01*
X540166Y238687D01*
X540110Y238576D01*
X539999Y238382D01*
X539888Y238132D01*
X539860Y238076D01*
X539805Y237965D01*
X539693Y237771D01*
X539582Y237521D01*
X539416Y237243D01*
X539277Y236938D01*
X538944Y236327D01*
X538916Y236299D01*
X538888Y236188D01*
X538805Y236049D01*
X538722Y235882D01*
X538555Y235521D01*
X538499Y235383D01*
X538444Y235244D01*
X538333Y234771D01*
Y234744D01*
Y234716D01*
X538388Y234661D01*
X538499Y234605D01*
X538611D01*
X538694Y234577D01*
X538999D01*
X539221Y234549D01*
X539721D01*
X539888Y234522D01*
X540249Y234494D01*
X540416Y234466D01*
X540554Y234438D01*
X540610D01*
X540749Y234383D01*
X540915Y234327D01*
X541082Y234244D01*
X541110Y234216D01*
X541221Y234161D01*
X541388Y234077D01*
X541610Y233966D01*
X541637D01*
X541665Y233938D01*
X541804Y233883D01*
X541998Y233800D01*
X542248Y233744D01*
X543248Y233328D01*
X543276D01*
X543304Y233300D01*
X543442Y233272D01*
X543637Y233189D01*
X543831Y233133D01*
X543859D01*
X543942Y233078D01*
X544053Y233022D01*
X544220Y232911D01*
X545081Y232355D01*
X545136Y232328D01*
X545248Y232244D01*
X545414Y232133D01*
X545609Y232022D01*
X545664Y231967D01*
X545747Y231911D01*
X545858Y231828D01*
X545886D01*
X545970Y231772D01*
X546081Y231745D01*
X546219Y231689D01*
X546247D01*
X546358Y231633D01*
X546469Y231578D01*
X546636Y231495D01*
X546692Y231467D01*
X546775Y231411D01*
X546914Y231300D01*
X547053Y231189D01*
X547080D01*
X547108Y231134D01*
X547219Y231023D01*
X547358Y230911D01*
X547497Y230828D01*
X547525D01*
X547608Y230773D01*
X547802Y230662D01*
X547914Y230551D01*
X548052Y230439D01*
X548080Y230412D01*
X548191Y230328D01*
X548330Y230217D01*
X548524Y230078D01*
X548774Y229912D01*
X549052Y229717D01*
X549663Y229329D01*
X549691Y229301D01*
X549802Y229245D01*
X549968Y229190D01*
X550135Y229106D01*
X550524Y228940D01*
X550691Y228884D01*
X550802D01*
X550829Y228912D01*
X550885Y228968D01*
X550968Y229079D01*
X551107Y229245D01*
X551718Y229940D01*
X551746Y229995D01*
X551857Y230106D01*
X551968Y230245D01*
X552051Y230412D01*
X552079Y230439D01*
X552107Y230578D01*
X552162Y230745D01*
X552190Y230967D01*
Y231023D01*
X552218Y231134D01*
X552273Y231328D01*
X552384Y231522D01*
X552495Y231745D01*
X552662Y231939D01*
X552884Y232078D01*
X553162Y232133D01*
X553218D01*
X553329Y232106D01*
X553495Y232050D01*
X553690Y231911D01*
X553856Y231717D01*
X553912Y231578D01*
X553967Y231411D01*
X553995Y231217D01*
Y230967D01*
X553967Y230717D01*
X553912Y230412D01*
Y230384D01*
X553884Y230328D01*
Y230245D01*
X553856Y230134D01*
X553773Y229856D01*
X553634Y229578D01*
Y229551D01*
X553606Y229523D01*
X553551Y229440D01*
X553468Y229329D01*
X553384Y229218D01*
X553245Y229051D01*
X553106Y228856D01*
X552912Y228662D01*
X552246Y227885D01*
X552495Y227829D01*
X552523D01*
X552607Y227801D01*
X552745Y227773D01*
X552912Y227690D01*
X553440Y227440D01*
X553495Y227413D01*
X553606Y227357D01*
X553801Y227301D01*
X553995Y227190D01*
X554023D01*
X554051Y227163D01*
X554162Y227135D01*
X554328Y227107D01*
X554467Y227079D01*
X554495D01*
X554523Y227051D01*
X554689Y226996D01*
X554856Y226913D01*
X554995Y226801D01*
X555023Y226774D01*
X555106Y226718D01*
X555217Y226663D01*
X555356Y226579D01*
X555745Y226385D01*
X555800Y226357D01*
X555911Y226302D01*
X556106Y226218D01*
X556328Y226107D01*
X556356D01*
X556383Y226080D01*
X556522Y226052D01*
X556661Y225996D01*
X556800Y225968D01*
X556855D01*
X556939Y225941D01*
X557078Y225913D01*
X557244Y225830D01*
X557494Y225746D01*
X557772Y225607D01*
X558133Y225441D01*
X558161D01*
X558188Y225413D01*
X558327Y225385D01*
X558549Y225302D01*
X558799Y225246D01*
X558910D01*
X559022Y225274D01*
X559132Y225358D01*
X559160Y225385D01*
X559216Y225441D01*
X559271Y225524D01*
X559355Y225663D01*
X559466Y225802D01*
X559605Y226024D01*
X559771Y226274D01*
Y226302D01*
X559799Y226357D01*
X559855Y226441D01*
X559910Y226552D01*
X560077Y226829D01*
X560243Y227190D01*
X560438Y227579D01*
X560577Y227996D01*
X560688Y228412D01*
X560743Y228773D01*
Y228801D01*
Y228884D01*
X560771Y228995D01*
X560826Y229079D01*
X560854Y229106D01*
X560882Y229134D01*
X560910Y229218D01*
X560938Y229329D01*
Y229356D01*
X560993Y229468D01*
X561104Y229606D01*
X561243Y229773D01*
X561299Y229801D01*
X561410Y229884D01*
X561576Y229967D01*
X561798Y229995D01*
X561826D01*
X561937Y229967D01*
X562076Y229940D01*
X562243Y229856D01*
X562382Y229745D01*
X562521Y229551D01*
X562632Y229301D01*
X562659Y228968D01*
Y228940D01*
Y228829D01*
X562632Y228690D01*
X562604Y228551D01*
Y228523D01*
X562576Y228468D01*
X562548Y228384D01*
X562521Y228329D01*
X562493Y228246D01*
X562465Y228134D01*
X562437Y228023D01*
Y227912D01*
Y227885D01*
Y227857D01*
Y227718D01*
X562382Y227579D01*
X562326Y227468D01*
X562298Y227413D01*
X562271Y227329D01*
X562243Y227218D01*
Y227190D01*
X562215Y227079D01*
X562187Y226913D01*
X562076Y226691D01*
Y226663D01*
X562048Y226635D01*
X561965Y226496D01*
X561854Y226274D01*
X561715Y226024D01*
X561132Y225108D01*
Y225080D01*
X561104Y225024D01*
X561021Y224858D01*
X560910Y224663D01*
X560854Y224497D01*
Y224469D01*
Y224413D01*
Y224358D01*
X560938Y224330D01*
X560965D01*
X561076Y224302D01*
X561215Y224247D01*
X561438Y224136D01*
X561465D01*
X561493Y224108D01*
X561632Y224052D01*
X561826Y223969D01*
X561965Y223941D01*
X562021D01*
X562104Y223914D01*
X562215Y223886D01*
X562382Y223830D01*
X562576Y223775D01*
X562854Y223691D01*
X563159Y223580D01*
X563215D01*
X563326Y223525D01*
X563492Y223469D01*
X563715Y223386D01*
X563965Y223303D01*
X564215Y223219D01*
X564492Y223108D01*
X564742Y222997D01*
X564798Y222969D01*
X564909Y222886D01*
X565048Y222803D01*
X565214Y222692D01*
X565242Y222664D01*
X565353Y222608D01*
X565464Y222525D01*
X565547Y222442D01*
X565603Y222414D01*
X565686Y222331D01*
X565825Y222275D01*
X565964Y222219D01*
X566047D01*
X566131Y222164D01*
X566214Y222108D01*
X566242D01*
X566297Y222081D01*
X566408Y222053D01*
X566603Y222025D01*
X566686D01*
X566797Y221997D01*
X566936Y221942D01*
X566992D01*
X567102Y221914D01*
X567241Y221859D01*
X567408Y221775D01*
X567464D01*
X567575Y221720D01*
X567741Y221692D01*
X567963Y221636D01*
X568019D01*
X568158Y221609D01*
X568352Y221581D01*
X568824D01*
X569046Y221525D01*
X569158Y221498D01*
X569213Y221470D01*
X569241Y221442D01*
X569296D01*
X569352Y221414D01*
X569463Y221359D01*
X569602Y221331D01*
X569768Y221303D01*
X569991Y221248D01*
X570102D01*
X570240Y221220D01*
X570407D01*
X570629Y221192D01*
X570852D01*
X571379Y221164D01*
X571601D01*
X571796Y221136D01*
X572046Y221109D01*
X572101D01*
X572240Y221081D01*
X572407Y221053D01*
X572545Y221025D01*
X572573D01*
X572684Y220998D01*
X572851Y220942D01*
X573073Y220886D01*
X573129D01*
X573323Y220859D01*
X573573Y220831D01*
X574767D01*
Y224163D01*
Y224191D01*
Y224247D01*
Y224358D01*
Y224497D01*
Y224663D01*
Y224858D01*
Y225302D01*
Y225746D01*
Y226218D01*
X574739Y226635D01*
Y226801D01*
Y226940D01*
Y226968D01*
Y227051D01*
Y227163D01*
X574712Y227301D01*
Y227413D01*
X574684Y227524D01*
X574656Y227607D01*
X574600Y227635D01*
X574573Y227662D01*
X574545Y227746D01*
X574489Y227857D01*
X574434Y227968D01*
Y227996D01*
X574406Y228051D01*
X574351Y228134D01*
X574267Y228246D01*
X574156Y228357D01*
X573989Y228551D01*
X573795Y228745D01*
X573767Y228773D01*
X573684Y228856D01*
X573573Y228968D01*
X573434Y229106D01*
X573101Y229440D01*
X572740Y229745D01*
X572296Y230023D01*
X571907Y230384D01*
X571851Y230439D01*
X571768Y230467D01*
X571657Y230551D01*
X571518Y230634D01*
X571351Y230717D01*
X571157Y230828D01*
X570907Y230939D01*
X570879Y230967D01*
X570796Y230995D01*
X570657Y231050D01*
X570491Y231106D01*
X570296Y231189D01*
X570074Y231245D01*
X569574Y231356D01*
X568991Y231495D01*
X568324Y231745D01*
X568269Y231772D01*
X568130Y231800D01*
X567963Y231884D01*
X567741Y231939D01*
X567686Y231967D01*
X567602Y231995D01*
X567464Y232022D01*
X567269D01*
X567158Y232050D01*
X567019Y232078D01*
X566992Y232106D01*
X566880Y232133D01*
X566714Y232189D01*
X566547Y232272D01*
X566519Y232300D01*
X566381Y232355D01*
X566186Y232439D01*
X565908Y232522D01*
X565881D01*
X565853Y232550D01*
X565770D01*
X565659Y232578D01*
X565381Y232661D01*
X565075Y232717D01*
X564103Y232883D01*
X563159Y233078D01*
X563131D01*
X563104Y233105D01*
X563020D01*
X562909Y233133D01*
X562632Y233189D01*
X562271Y233244D01*
X562187D01*
X562104Y233272D01*
X561993D01*
X561715Y233300D01*
X560938D01*
X560632Y233328D01*
X560577D01*
X560410Y233355D01*
X560188Y233383D01*
X559993Y233411D01*
X559938D01*
X559799Y233439D01*
X559577Y233466D01*
X559271Y233494D01*
X558355Y233605D01*
X558272D01*
X558188Y233633D01*
X558077D01*
X557800Y233661D01*
X557439Y233716D01*
X557022Y233744D01*
X556633Y233800D01*
X556245Y233855D01*
X555911Y233911D01*
X555884D01*
X555800Y233938D01*
X555661Y233966D01*
X555495Y233994D01*
X555189Y234077D01*
X555078Y234133D01*
X554995Y234188D01*
X554967Y234216D01*
X554912Y234272D01*
X554828Y234327D01*
X554717Y234355D01*
X554689D01*
X554606Y234411D01*
X554439Y234522D01*
X554301Y234577D01*
X554162Y234688D01*
X554134Y234716D01*
X554106Y234744D01*
X553912Y234883D01*
X553717Y235049D01*
X553495Y235244D01*
X553468Y235271D01*
X553356Y235383D01*
X553218Y235466D01*
X553106Y235494D01*
X553079D01*
X553023Y235521D01*
X552912Y235549D01*
X552773Y235605D01*
X552440Y235771D01*
X551774Y236160D01*
X551746Y236188D01*
X551662Y236216D01*
X551524Y236299D01*
X551329Y236382D01*
X550913Y236604D01*
X550468Y236799D01*
X550441D01*
X550385Y236854D01*
X550274Y236882D01*
X550163Y236938D01*
X549885Y237049D01*
X549774Y237104D01*
X549691Y237132D01*
X549663D01*
X549607Y237160D01*
X549469Y237215D01*
X549302Y237326D01*
X549246Y237354D01*
X549135Y237465D01*
X548941Y237604D01*
X548719Y237799D01*
X548691Y237826D01*
X548635Y237882D01*
X548552Y237965D01*
X548441Y238048D01*
X548191Y238243D01*
X548080Y238326D01*
X547969Y238382D01*
X547941Y238409D01*
X547802Y238437D01*
X547580Y238493D01*
X547275Y238521D01*
X547191D01*
X547108Y238548D01*
X546997Y238576D01*
X546747Y238604D01*
X546497Y238687D01*
X546442Y238715D01*
X546303Y238770D01*
X546108Y238881D01*
X545831Y239048D01*
X545803Y239076D01*
X545720Y239104D01*
X545581Y239187D01*
X545442Y239270D01*
X545081Y239437D01*
X544914Y239492D01*
X544748Y239548D01*
X544720D01*
X544692Y239576D01*
X544525D01*
X544331Y239548D01*
X544248Y239520D01*
X544165Y239437D01*
X544137Y239409D01*
X544026Y239354D01*
X543859Y239270D01*
X543609Y239243D01*
X543554D01*
X543415Y239270D01*
X543220Y239326D01*
X543026Y239465D01*
X542748Y239715D01*
Y246740D01*
D02*
G37*
G36*
X550885Y226413D02*
X550718D01*
X550579Y226357D01*
X550496Y226218D01*
Y226191D01*
X550468Y226080D01*
X550413Y225941D01*
X550329Y225802D01*
Y225774D01*
X550274Y225718D01*
X550218Y225635D01*
X550135Y225524D01*
X549968Y225219D01*
Y225191D01*
X549941Y225163D01*
X549857Y224996D01*
X549746Y224774D01*
X549607Y224580D01*
X549580Y224524D01*
X549496Y224413D01*
X549358Y224219D01*
X549163Y223941D01*
X548747Y223469D01*
X548691Y219859D01*
X548635Y217332D01*
Y217276D01*
Y217165D01*
Y216971D01*
X548608Y216777D01*
Y216554D01*
X548580Y216360D01*
X548552Y216193D01*
X548524Y216110D01*
Y216082D01*
Y216055D01*
X548552Y216027D01*
X548608Y215999D01*
X548691Y215971D01*
X548802Y215944D01*
X550052D01*
X550524Y215971D01*
X552246D01*
X552412Y215999D01*
X552579Y216055D01*
X552634Y216082D01*
X552662Y216110D01*
X552690Y216138D01*
X552745Y216193D01*
X552829Y216221D01*
X552912Y216249D01*
X552940D01*
X552995Y216304D01*
X553106Y216360D01*
X553218Y216499D01*
X553245Y216527D01*
X553301Y216610D01*
X553412Y216721D01*
X553579Y216888D01*
X553606D01*
X553634Y216943D01*
X553773Y217054D01*
X553995Y217221D01*
X554245Y217415D01*
X554273Y217443D01*
X554301Y217471D01*
X554467Y217610D01*
X554689Y217804D01*
X554912Y217999D01*
X554939Y218026D01*
X554967Y218054D01*
X555078Y218165D01*
X555189Y218332D01*
X555272Y218471D01*
Y218498D01*
X555300Y218526D01*
X555356Y218637D01*
X555439Y218748D01*
X555522Y218832D01*
X555550Y218859D01*
X555606Y218915D01*
X555689Y219026D01*
X555856Y219220D01*
Y219248D01*
X555911Y219304D01*
X555967Y219387D01*
X556050Y219498D01*
X556161Y219665D01*
X556272Y219887D01*
X556439Y220137D01*
X556605Y220414D01*
X557633Y222219D01*
X557661Y222275D01*
X557716Y222386D01*
X557800Y222497D01*
X557911Y222608D01*
X557938Y222636D01*
X557994Y222719D01*
X558049Y222830D01*
X558077Y222941D01*
Y222969D01*
X558105Y223025D01*
X558161Y223108D01*
X558244Y223191D01*
X558299Y223219D01*
X558355Y223275D01*
Y223330D01*
Y223386D01*
X558299Y223441D01*
X558188Y223497D01*
X558161D01*
X558105Y223525D01*
X557994Y223580D01*
X557800Y223663D01*
X557550Y223775D01*
X557189Y223886D01*
X556966Y223969D01*
X556717Y224052D01*
X556439Y224136D01*
X556133Y224247D01*
X556106D01*
X556078Y224274D01*
X555995Y224302D01*
X555884Y224330D01*
X555606Y224413D01*
X555300Y224552D01*
X555272D01*
X555245Y224580D01*
X555050Y224663D01*
X554856Y224774D01*
X554634Y224885D01*
X554606Y224913D01*
X554495Y224996D01*
X554328Y225080D01*
X554162Y225191D01*
X554134Y225219D01*
X554023Y225274D01*
X553884Y225330D01*
X553773Y225358D01*
X553745D01*
X553690Y225385D01*
X553551Y225441D01*
X553412Y225496D01*
X552940Y225691D01*
X552912D01*
X552856Y225746D01*
X552745Y225802D01*
X552607Y225857D01*
X552440Y225941D01*
X552273Y225996D01*
X551829Y226163D01*
X551801D01*
X551718Y226191D01*
X551607Y226246D01*
X551496Y226274D01*
X551163Y226357D01*
X550885Y226413D01*
D02*
G37*
%LPD*%
D10*
X519146Y291728D02*
G03*
X519146Y291728I-492J0D01*
G01*
X514506Y161136D02*
G03*
X514506Y161136I-492J0D01*
G01*
X624709Y268012D02*
G03*
X624709Y268012I-492J0D01*
G01*
X610008Y182811D02*
G03*
X610008Y182811I-492J0D01*
G01*
X628406Y320614D02*
G03*
X628406Y320614I-492J0D01*
G01*
X404815Y299413D02*
G03*
X404815Y299413I-492J0D01*
G01*
Y282913D02*
G03*
X404815Y282913I-492J0D01*
G01*
Y266913D02*
G03*
X404815Y266913I-492J0D01*
G01*
Y250913D02*
G03*
X404815Y250913I-492J0D01*
G01*
Y234413D02*
G03*
X404815Y234413I-492J0D01*
G01*
D11*
X523949Y300488D02*
G03*
X523949Y300488I-1181J0D01*
G01*
D12*
X612323Y315000D02*
G03*
X612323Y315000I-12402J0D01*
G01*
D13*
X711933Y326573D02*
G03*
X709197Y329309I-2736J0D01*
G01*
X691067Y172636D02*
G03*
X688331Y169900I0J-2736D01*
G01*
Y332065D02*
G03*
X691067Y329329I2736J0D01*
G01*
X709197Y172655D02*
G03*
X711933Y175392I0J2736D01*
G01*
X544693Y267000D02*
X546693Y269000D01*
X544693Y266000D02*
X546693D01*
X544693Y270000D02*
X546693D01*
X560000Y255346D02*
X562000Y253346D01*
X563000D02*
Y255346D01*
X559000Y253346D02*
Y255346D01*
X457013Y227622D02*
X458587D01*
X457013Y230378D02*
X458587D01*
X457013Y220822D02*
X458587D01*
X457013Y223578D02*
X458587D01*
X511500Y255153D02*
X513500Y253153D01*
X510500D02*
Y255153D01*
X514500Y253153D02*
Y255153D01*
X518500Y251654D02*
X520500Y249654D01*
X517500D02*
Y251654D01*
X521500Y249654D02*
Y251654D01*
X532346Y212500D02*
X534346Y214500D01*
X532346Y211500D02*
X534346D01*
X532346Y215500D02*
X534346D01*
X498000Y206153D02*
X500000Y204153D01*
X497000D02*
Y206153D01*
X501000Y204153D02*
Y206153D01*
X490500Y209154D02*
X492500Y207154D01*
X489500D02*
Y209154D01*
X493500Y207154D02*
Y209154D01*
X507713Y290622D02*
X509287D01*
X507713Y293378D02*
X509287D01*
X550622Y328713D02*
Y330287D01*
X553378Y328713D02*
Y330287D01*
X518831Y296551D02*
X560169D01*
X518831Y315449D02*
X560169D01*
X518831Y296551D02*
Y315449D01*
X560169Y296551D02*
Y315449D01*
X526213Y200122D02*
X527787D01*
X526213Y202878D02*
X527787D01*
X537636Y171963D02*
X541573D01*
X506140D02*
X510077D01*
X506140D02*
Y186136D01*
X541573Y171963D02*
Y186136D01*
X506140D02*
X510077D01*
X537636D02*
X541573D01*
X623213Y260622D02*
X624787D01*
X623213Y263378D02*
X624787D01*
X609665Y260622D02*
X611240D01*
X609665Y263378D02*
X611240D01*
X676500Y146455D02*
Y355510D01*
X691067Y329329D02*
X709177D01*
X691067Y172636D02*
X709177D01*
X711933Y175392D02*
Y326573D01*
X639098Y321849D02*
X676500D01*
X688311Y146455D02*
Y355510D01*
X639098Y180116D02*
X676500D01*
X639098Y146455D02*
Y355510D01*
X688311D01*
X639098Y146455D02*
X688311D01*
X568858Y265858D02*
X601142D01*
X568858Y298142D02*
X601142D01*
Y265858D02*
Y266646D01*
X568858Y265858D02*
Y266646D01*
X601142Y297354D02*
Y298142D01*
X568858Y297354D02*
Y298142D01*
X617228Y269094D02*
X620772D01*
X617228Y280906D02*
X620772D01*
Y269094D02*
Y280906D01*
X617228Y269094D02*
Y280906D01*
X413713Y196122D02*
X415287D01*
X413713Y198878D02*
X415287D01*
X459260Y196122D02*
X460835D01*
X459260Y198878D02*
X460835D01*
X587000Y336500D02*
Y346500D01*
X517000Y336500D02*
X587000D01*
X517000D02*
Y346500D01*
X587000D01*
X495122Y319939D02*
Y321514D01*
X497878Y319939D02*
Y321514D01*
X485122Y319986D02*
Y321561D01*
X487878Y319986D02*
Y321561D01*
X465122Y319939D02*
Y321514D01*
X467878Y319939D02*
Y321514D01*
X455122Y319939D02*
Y321514D01*
X457878Y319939D02*
Y321514D01*
X445122Y319939D02*
Y321514D01*
X447878Y319939D02*
Y321514D01*
X441500Y346226D02*
X501500D01*
X441500Y336226D02*
X501500D01*
Y346226D01*
X441500Y336226D02*
Y346226D01*
X534213Y326122D02*
X535787D01*
X534213Y328878D02*
X535787D01*
X588925Y215500D02*
X590500D01*
X588925Y212744D02*
X590500D01*
X591898Y209189D02*
X604102D01*
X591898Y182811D02*
X604102D01*
X591898D02*
Y209189D01*
X604102Y182811D02*
Y209189D01*
X616791Y299945D02*
X617677D01*
X616791Y318055D02*
X617677D01*
X627323Y299945D02*
X628209D01*
X627323Y318055D02*
X628209D01*
X616791Y299945D02*
Y318055D01*
X628209Y299945D02*
Y318055D01*
X542122Y280213D02*
Y281787D01*
X544878Y280213D02*
Y281787D01*
X472122Y169213D02*
Y170787D01*
X474878Y169213D02*
Y170787D01*
X426122Y169713D02*
Y171287D01*
X428878Y169713D02*
Y171287D01*
X466122Y292213D02*
Y293787D01*
X468878Y292213D02*
Y293787D01*
X445878Y246213D02*
Y247787D01*
X443122Y246213D02*
Y247787D01*
X434378Y251713D02*
Y253287D01*
X431622Y251713D02*
Y253287D01*
X481878Y292213D02*
Y293787D01*
X479122Y292213D02*
Y293787D01*
X524378Y273713D02*
Y275287D01*
X521622Y273713D02*
Y275287D01*
X475378Y292213D02*
Y293787D01*
X472622Y292213D02*
Y293787D01*
X514878Y273713D02*
Y275287D01*
X512122Y273713D02*
Y275287D01*
X396547Y309256D02*
Y312602D01*
X400878D01*
X396547Y300398D02*
Y303744D01*
Y300398D02*
X400878D01*
X534713Y285378D02*
X536287D01*
X534713Y282622D02*
X536287D01*
X396547Y292756D02*
Y296102D01*
X400878D01*
X396547Y283898D02*
Y287244D01*
Y283898D02*
X400878D01*
X396547Y276756D02*
Y280102D01*
X400878D01*
X396547Y267898D02*
Y271244D01*
Y267898D02*
X400878D01*
X396547Y260756D02*
Y264102D01*
X400878D01*
X396547Y251898D02*
Y255244D01*
Y251898D02*
X400878D01*
X396547Y244256D02*
Y247602D01*
X400878D01*
X396547Y235398D02*
Y238744D01*
Y235398D02*
X400878D01*
D14*
X449828Y273764D02*
G03*
X449828Y273764I-300J0D01*
G01*
X496700Y275671D02*
Y279200D01*
X493171Y238800D02*
X496700D01*
X456300D02*
Y242329D01*
Y275671D02*
Y279200D01*
X493171D02*
X496700D01*
Y238800D02*
Y242329D01*
X456300Y238800D02*
X459829D01*
X456300Y279200D02*
X459829D01*
X591133Y355666D02*
X590599Y356199D01*
X589533D01*
X589000Y355666D01*
Y353533D01*
X589533Y353000D01*
X590599D01*
X591133Y353533D01*
Y354599D01*
X590066D01*
X592199Y353000D02*
Y356199D01*
X594332Y353000D01*
Y356199D01*
X595398D02*
Y353000D01*
X596997D01*
X597531Y353533D01*
Y355666D01*
X596997Y356199D01*
X595398D01*
X420633Y353666D02*
X420099Y354199D01*
X419033D01*
X418500Y353666D01*
Y351533D01*
X419033Y351000D01*
X420099D01*
X420633Y351533D01*
Y352600D01*
X419566D01*
X421699Y351000D02*
Y354199D01*
X423832Y351000D01*
Y354199D01*
X424898D02*
Y351000D01*
X426497D01*
X427031Y351533D01*
Y353666D01*
X426497Y354199D01*
X424898D01*
X593900Y331500D02*
Y333633D01*
X592834Y332566D02*
X594967D01*
X592301Y336832D02*
Y334699D01*
X593900D01*
X593367Y335765D01*
Y336298D01*
X593900Y336832D01*
X594967D01*
X595500Y336298D01*
Y335232D01*
X594967Y334699D01*
X416000Y346099D02*
X418133D01*
X417066Y347166D02*
Y345033D01*
X419199Y347166D02*
X419732Y347699D01*
X420798D01*
X421332Y347166D01*
Y346633D01*
X420798Y346099D01*
X420265D01*
X420798D01*
X421332Y345566D01*
Y345033D01*
X420798Y344500D01*
X419732D01*
X419199Y345033D01*
X422398Y344500D02*
Y345033D01*
X422931D01*
Y344500D01*
X422398D01*
X425064Y347166D02*
X425597Y347699D01*
X426663D01*
X427196Y347166D01*
Y346633D01*
X426663Y346099D01*
X426130D01*
X426663D01*
X427196Y345566D01*
Y345033D01*
X426663Y344500D01*
X425597D01*
X425064Y345033D01*
X607000Y309401D02*
X604867D01*
X605934Y308334D02*
Y310467D01*
X632500Y317000D02*
Y315934D01*
Y316467D01*
X635699D01*
X635166Y317000D01*
X631323Y190403D02*
Y189337D01*
Y189870D01*
X634522D01*
X633989Y190403D01*
Y187738D02*
X634522Y187205D01*
Y186138D01*
X633989Y185605D01*
X633456D01*
X632922Y186138D01*
Y186671D01*
Y186138D01*
X632389Y185605D01*
X631856D01*
X631323Y186138D01*
Y187205D01*
X631856Y187738D01*
X668724Y315409D02*
Y314343D01*
Y314876D01*
X671923D01*
X671390Y315409D01*
X668724Y311144D02*
X671923D01*
X670324Y312744D01*
Y310611D01*
X668724Y194198D02*
Y196331D01*
X670857Y194198D01*
X671390D01*
X671923Y194731D01*
Y195798D01*
X671390Y196331D01*
X671923Y190999D02*
Y193132D01*
X670324D01*
X670857Y192065D01*
Y191532D01*
X670324Y190999D01*
X669258D01*
X668724Y191532D01*
Y192599D01*
X669258Y193132D01*
X371133Y328166D02*
X370600Y328699D01*
X369533D01*
X369000Y328166D01*
Y327633D01*
X369533Y327099D01*
X370600D01*
X371133Y326566D01*
Y326033D01*
X370600Y325500D01*
X369533D01*
X369000Y326033D01*
X372732Y328166D02*
Y327633D01*
X372199D01*
X373265D01*
X372732D01*
Y326033D01*
X373265Y325500D01*
X375398Y327633D02*
X376464D01*
X376997Y327099D01*
Y325500D01*
X375398D01*
X374865Y326033D01*
X375398Y326566D01*
X376997D01*
X378064Y325500D02*
Y327633D01*
X379663D01*
X380196Y327099D01*
Y325500D01*
X383395Y328699D02*
Y325500D01*
X381796D01*
X381263Y326033D01*
Y327099D01*
X381796Y327633D01*
X383395D01*
X384995Y325500D02*
X386061D01*
X386594Y326033D01*
Y327099D01*
X386061Y327633D01*
X384995D01*
X384462Y327099D01*
Y326033D01*
X384995Y325500D01*
X388194D02*
Y328166D01*
Y327099D01*
X387661D01*
X388727D01*
X388194D01*
Y328166D01*
X388727Y328699D01*
X390860Y325500D02*
Y328166D01*
Y327099D01*
X390326D01*
X391393D01*
X390860D01*
Y328166D01*
X391393Y328699D01*
X588133Y148666D02*
X587600Y149199D01*
X586533D01*
X586000Y148666D01*
Y148133D01*
X586533Y147599D01*
X587600D01*
X588133Y147066D01*
Y146533D01*
X587600Y146000D01*
X586533D01*
X586000Y146533D01*
X589732Y148666D02*
Y148133D01*
X589199D01*
X590265D01*
X589732D01*
Y146533D01*
X590265Y146000D01*
X592398Y148133D02*
X593464D01*
X593997Y147599D01*
Y146000D01*
X592398D01*
X591865Y146533D01*
X592398Y147066D01*
X593997D01*
X595064Y146000D02*
Y148133D01*
X596663D01*
X597196Y147599D01*
Y146000D01*
X600395Y149199D02*
Y146000D01*
X598796D01*
X598263Y146533D01*
Y147599D01*
X598796Y148133D01*
X600395D01*
X601995Y146000D02*
X603061D01*
X603594Y146533D01*
Y147599D01*
X603061Y148133D01*
X601995D01*
X601462Y147599D01*
Y146533D01*
X601995Y146000D01*
X605194D02*
Y148666D01*
Y147599D01*
X604661D01*
X605727D01*
X605194D01*
Y148666D01*
X605727Y149199D01*
X607860Y146000D02*
Y148666D01*
Y147599D01*
X607327D01*
X608393D01*
X607860D01*
Y148666D01*
X608393Y149199D01*
X607133Y331166D02*
X606600Y331699D01*
X605533D01*
X605000Y331166D01*
Y330633D01*
X605533Y330100D01*
X606600D01*
X607133Y329566D01*
Y329033D01*
X606600Y328500D01*
X605533D01*
X605000Y329033D01*
X608732Y331166D02*
Y330633D01*
X608199D01*
X609265D01*
X608732D01*
Y329033D01*
X609265Y328500D01*
X611398Y330633D02*
X612464D01*
X612997Y330100D01*
Y328500D01*
X611398D01*
X610865Y329033D01*
X611398Y329566D01*
X612997D01*
X614064Y328500D02*
Y330633D01*
X615663D01*
X616196Y330100D01*
Y328500D01*
X619395Y331699D02*
Y328500D01*
X617796D01*
X617263Y329033D01*
Y330100D01*
X617796Y330633D01*
X619395D01*
X620995Y328500D02*
X622061D01*
X622594Y329033D01*
Y330100D01*
X622061Y330633D01*
X620995D01*
X620462Y330100D01*
Y329033D01*
X620995Y328500D01*
X624194D02*
Y331166D01*
Y330100D01*
X623661D01*
X624727D01*
X624194D01*
Y331166D01*
X624727Y331699D01*
X626860Y328500D02*
Y331166D01*
Y330100D01*
X626327D01*
X627393D01*
X626860D01*
Y331166D01*
X627393Y331699D01*
X400633Y212666D02*
X400100Y213199D01*
X399033D01*
X398500Y212666D01*
Y210533D01*
X399033Y210000D01*
X400100D01*
X400633Y210533D01*
Y211599D01*
X399566D01*
X401699Y210000D02*
Y213199D01*
X403832Y210000D01*
Y213199D01*
X404898D02*
Y210000D01*
X406497D01*
X407031Y210533D01*
Y212666D01*
X406497Y213199D01*
X404898D01*
X376133Y315666D02*
X375600Y316199D01*
X374533D01*
X374000Y315666D01*
Y313533D01*
X374533Y313000D01*
X375600D01*
X376133Y313533D01*
Y314599D01*
X375066D01*
X377199Y313000D02*
Y316199D01*
X379332Y313000D01*
Y316199D01*
X380398D02*
Y313000D01*
X381997D01*
X382531Y313533D01*
Y315666D01*
X381997Y316199D01*
X380398D01*
X440133Y350666D02*
X439600Y351199D01*
X438533D01*
X438000Y350666D01*
Y350133D01*
X438533Y349600D01*
X439600D01*
X440133Y349066D01*
Y348533D01*
X439600Y348000D01*
X438533D01*
X438000Y348533D01*
X441199Y351199D02*
Y348000D01*
X442265Y349066D01*
X443332Y348000D01*
Y351199D01*
X445997D02*
X444931D01*
X444398Y350666D01*
Y348533D01*
X444931Y348000D01*
X445997D01*
X446531Y348533D01*
Y350666D01*
X445997Y351199D01*
X449000Y348000D02*
Y351199D01*
X451133Y348000D01*
Y351199D01*
X452199Y348000D02*
Y351199D01*
X453798D01*
X454332Y350666D01*
Y349600D01*
X453798Y349066D01*
X452199D01*
X453265D02*
X454332Y348000D01*
X457531Y350666D02*
X456997Y351199D01*
X455931D01*
X455398Y350666D01*
Y350133D01*
X455931Y349600D01*
X456997D01*
X457531Y349066D01*
Y348533D01*
X456997Y348000D01*
X455931D01*
X455398Y348533D01*
X458597Y351199D02*
X460730D01*
X459663D01*
Y348000D01*
X462500Y351199D02*
X464633D01*
X463566D01*
Y348000D01*
X465699D02*
Y351199D01*
X466765Y350133D01*
X467832Y351199D01*
Y348000D01*
X471031Y350666D02*
X470497Y351199D01*
X469431D01*
X468898Y350666D01*
Y350133D01*
X469431Y349600D01*
X470497D01*
X471031Y349066D01*
Y348533D01*
X470497Y348000D01*
X469431D01*
X468898Y348533D01*
X475133Y350666D02*
X474600Y351199D01*
X473533D01*
X473000Y350666D01*
Y348533D01*
X473533Y348000D01*
X474600D01*
X475133Y348533D01*
Y349600D01*
X474066D01*
X476199Y348000D02*
Y351199D01*
X478332Y348000D01*
Y351199D01*
X479398D02*
Y348000D01*
X480997D01*
X481531Y348533D01*
Y350666D01*
X480997Y351199D01*
X479398D01*
X483500D02*
X485633D01*
X484566D01*
Y348000D01*
X488832Y350666D02*
X488298Y351199D01*
X487232D01*
X486699Y350666D01*
Y348533D01*
X487232Y348000D01*
X488298D01*
X488832Y348533D01*
X489898Y351199D02*
Y348000D01*
Y349066D01*
X492031Y351199D01*
X490431Y349600D01*
X492031Y348000D01*
X494500Y351199D02*
Y349066D01*
X495566Y348000D01*
X496633Y349066D01*
Y351199D01*
X497699D02*
Y348000D01*
X499298D01*
X499832Y348533D01*
Y350666D01*
X499298Y351199D01*
X497699D01*
X500898D02*
Y348000D01*
X502497D01*
X503031Y348533D01*
Y350666D01*
X502497Y351199D01*
X500898D01*
X579500Y348500D02*
Y351699D01*
X580566Y350633D01*
X581633Y351699D01*
Y348500D01*
X582699Y351699D02*
X583765D01*
X583232D01*
Y348500D01*
X582699D01*
X583765D01*
X587497Y351166D02*
X586964Y351699D01*
X585898D01*
X585365Y351166D01*
Y350633D01*
X585898Y350099D01*
X586964D01*
X587497Y349566D01*
Y349033D01*
X586964Y348500D01*
X585898D01*
X585365Y349033D01*
X590163Y351699D02*
X589097D01*
X588564Y351166D01*
Y349033D01*
X589097Y348500D01*
X590163D01*
X590696Y349033D01*
Y351166D01*
X590163Y351699D01*
X571133Y351166D02*
X570600Y351699D01*
X569533D01*
X569000Y351166D01*
Y350633D01*
X569533Y350099D01*
X570600D01*
X571133Y349566D01*
Y349033D01*
X570600Y348500D01*
X569533D01*
X569000Y349033D01*
X574332Y351166D02*
X573798Y351699D01*
X572732D01*
X572199Y351166D01*
Y349033D01*
X572732Y348500D01*
X573798D01*
X574332Y349033D01*
X575398Y351699D02*
Y348500D01*
Y349566D01*
X577531Y351699D01*
X575931Y350099D01*
X577531Y348500D01*
X562133Y351166D02*
X561599Y351699D01*
X560533D01*
X560000Y351166D01*
Y349033D01*
X560533Y348500D01*
X561599D01*
X562133Y349033D01*
X565332Y351166D02*
X564798Y351699D01*
X563732D01*
X563199Y351166D01*
Y350633D01*
X563732Y350099D01*
X564798D01*
X565332Y349566D01*
Y349033D01*
X564798Y348500D01*
X563732D01*
X563199Y349033D01*
X546500Y348500D02*
Y351699D01*
X547566Y350633D01*
X548633Y351699D01*
Y348500D01*
X551298Y351699D02*
X550232D01*
X549699Y351166D01*
Y349033D01*
X550232Y348500D01*
X551298D01*
X551832Y349033D01*
Y351166D01*
X551298Y351699D01*
X555031Y351166D02*
X554497Y351699D01*
X553431D01*
X552898Y351166D01*
Y350633D01*
X553431Y350099D01*
X554497D01*
X555031Y349566D01*
Y349033D01*
X554497Y348500D01*
X553431D01*
X552898Y349033D01*
X556097Y351699D02*
X557163D01*
X556630D01*
Y348500D01*
X556097D01*
X557163D01*
X538000Y350099D02*
X540133D01*
X539066Y351166D02*
Y349033D01*
X543332Y351699D02*
X541199D01*
Y350099D01*
X542265Y350633D01*
X542798D01*
X543332Y350099D01*
Y349033D01*
X542798Y348500D01*
X541732D01*
X541199Y349033D01*
X529000Y350099D02*
X531133D01*
X530066Y351166D02*
Y349033D01*
X534332Y351699D02*
X532199D01*
Y350099D01*
X533265Y350633D01*
X533798D01*
X534332Y350099D01*
Y349033D01*
X533798Y348500D01*
X532732D01*
X532199Y349033D01*
X519633Y351166D02*
X519100Y351699D01*
X518033D01*
X517500Y351166D01*
Y349033D01*
X518033Y348500D01*
X519100D01*
X519633Y349033D01*
Y350099D01*
X518566D01*
X520699Y348500D02*
Y351699D01*
X522832Y348500D01*
Y351699D01*
X523898D02*
Y348500D01*
X525497D01*
X526031Y349033D01*
Y351166D01*
X525497Y351699D01*
X523898D01*
X442800Y227500D02*
Y230699D01*
X444399D01*
X444933Y230166D01*
Y229099D01*
X444399Y228566D01*
X442800D01*
X443866D02*
X444933Y227500D01*
X448132D02*
X445999D01*
X448132Y229633D01*
Y230166D01*
X447598Y230699D01*
X446532D01*
X445999Y230166D01*
X451331Y230699D02*
X450264Y230166D01*
X449198Y229099D01*
Y228033D01*
X449731Y227500D01*
X450797D01*
X451331Y228033D01*
Y228566D01*
X450797Y229099D01*
X449198D01*
X442300Y220700D02*
Y223899D01*
X443899D01*
X444433Y223366D01*
Y222300D01*
X443899Y221766D01*
X442300D01*
X443366D02*
X444433Y220700D01*
X447632D02*
X445499D01*
X447632Y222833D01*
Y223366D01*
X447098Y223899D01*
X446032D01*
X445499Y223366D01*
X450831Y223899D02*
X448698D01*
Y222300D01*
X449764Y222833D01*
X450297D01*
X450831Y222300D01*
Y221233D01*
X450297Y220700D01*
X449231D01*
X448698Y221233D01*
X510000Y263199D02*
Y260000D01*
X511599D01*
X512133Y260533D01*
Y262666D01*
X511599Y263199D01*
X510000D01*
X513199Y262666D02*
X513732Y263199D01*
X514798D01*
X515332Y262666D01*
Y262133D01*
X514798Y261599D01*
X515332Y261066D01*
Y260533D01*
X514798Y260000D01*
X513732D01*
X513199Y260533D01*
Y261066D01*
X513732Y261599D01*
X513199Y262133D01*
Y262666D01*
X513732Y261599D02*
X514798D01*
X489700Y218852D02*
Y215653D01*
X491299D01*
X491833Y216187D01*
Y218319D01*
X491299Y218852D01*
X489700D01*
X492899D02*
X495032D01*
Y218319D01*
X492899Y216187D01*
Y215653D01*
X551000Y256199D02*
Y253000D01*
X552599D01*
X553133Y253533D01*
Y255666D01*
X552599Y256199D01*
X551000D01*
X556332D02*
X555265Y255666D01*
X554199Y254599D01*
Y253533D01*
X554732Y253000D01*
X555798D01*
X556332Y253533D01*
Y254066D01*
X555798Y254599D01*
X554199D01*
X529000Y221199D02*
Y218000D01*
X530599D01*
X531133Y218533D01*
Y220666D01*
X530599Y221199D01*
X529000D01*
X534332D02*
X532199D01*
Y219600D01*
X533265Y220133D01*
X533798D01*
X534332Y219600D01*
Y218533D01*
X533798Y218000D01*
X532732D01*
X532199Y218533D01*
X497200Y215852D02*
Y212653D01*
X498800D01*
X499333Y213187D01*
Y215319D01*
X498800Y215852D01*
X497200D01*
X501998Y212653D02*
Y215852D01*
X500399Y214253D01*
X502532D01*
X517000Y260199D02*
Y257000D01*
X518600D01*
X519133Y257533D01*
Y259666D01*
X518600Y260199D01*
X517000D01*
X520199Y259666D02*
X520732Y260199D01*
X521798D01*
X522332Y259666D01*
Y259133D01*
X521798Y258599D01*
X521265D01*
X521798D01*
X522332Y258066D01*
Y257533D01*
X521798Y257000D01*
X520732D01*
X520199Y257533D01*
X543000Y264199D02*
Y261000D01*
X544599D01*
X545133Y261533D01*
Y263666D01*
X544599Y264199D01*
X543000D01*
X548332Y261000D02*
X546199D01*
X548332Y263133D01*
Y263666D01*
X547798Y264199D01*
X546732D01*
X546199Y263666D01*
X503500Y285500D02*
Y288699D01*
X505099D01*
X505633Y288166D01*
Y287100D01*
X505099Y286566D01*
X503500D01*
X504566D02*
X505633Y285500D01*
X508832D02*
X506699D01*
X508832Y287633D01*
Y288166D01*
X508298Y288699D01*
X507232D01*
X506699Y288166D01*
X511497Y285500D02*
Y288699D01*
X509898Y287100D01*
X512031D01*
X510500Y309699D02*
Y307033D01*
X511033Y306500D01*
X512100D01*
X512633Y307033D01*
Y309699D01*
X515298Y306500D02*
Y309699D01*
X513699Y308100D01*
X515832D01*
X569133Y257666D02*
X568600Y258199D01*
X567533D01*
X567000Y257666D01*
Y255533D01*
X567533Y255000D01*
X568600D01*
X569133Y255533D01*
X570199Y255000D02*
X571265D01*
X570732D01*
Y258199D01*
X570199Y257666D01*
X572865Y255533D02*
X573398Y255000D01*
X574464D01*
X574997Y255533D01*
Y257666D01*
X574464Y258199D01*
X573398D01*
X572865Y257666D01*
Y257133D01*
X573398Y256599D01*
X574997D01*
X619000Y255500D02*
Y258699D01*
X620600D01*
X621133Y258166D01*
Y257100D01*
X620600Y256566D01*
X619000D01*
X620066D02*
X621133Y255500D01*
X624332D02*
X622199D01*
X624332Y257633D01*
Y258166D01*
X623798Y258699D01*
X622732D01*
X622199Y258166D01*
X625398D02*
X625931Y258699D01*
X626997D01*
X627531Y258166D01*
Y257633D01*
X626997Y257100D01*
X626464D01*
X626997D01*
X627531Y256566D01*
Y256033D01*
X626997Y255500D01*
X625931D01*
X625398Y256033D01*
X595500Y260500D02*
Y263699D01*
X597099D01*
X597633Y263166D01*
Y262100D01*
X597099Y261566D01*
X595500D01*
X596566D02*
X597633Y260500D01*
X600832D02*
X598699D01*
X600832Y262633D01*
Y263166D01*
X600298Y263699D01*
X599232D01*
X598699Y263166D01*
X604031Y260500D02*
X601898D01*
X604031Y262633D01*
Y263166D01*
X603497Y263699D01*
X602431D01*
X601898Y263166D01*
X561301Y269000D02*
X564500D01*
Y271133D01*
Y274332D02*
Y272199D01*
X562367Y274332D01*
X561834D01*
X561301Y273798D01*
Y272732D01*
X561834Y272199D01*
X532000Y331000D02*
Y334199D01*
X533600D01*
X534133Y333666D01*
Y332599D01*
X533600Y332066D01*
X532000D01*
X533066D02*
X534133Y331000D01*
X537332D02*
X535199D01*
X537332Y333133D01*
Y333666D01*
X536798Y334199D01*
X535732D01*
X535199Y333666D01*
X538398Y331000D02*
X539464D01*
X538931D01*
Y334199D01*
X538398Y333666D01*
X597633Y257666D02*
X597099Y258199D01*
X596033D01*
X595500Y257666D01*
Y255533D01*
X596033Y255000D01*
X597099D01*
X597633Y255533D01*
X600832Y255000D02*
X598699D01*
X600832Y257133D01*
Y257666D01*
X600298Y258199D01*
X599232D01*
X598699Y257666D01*
X601898D02*
X602431Y258199D01*
X603497D01*
X604031Y257666D01*
Y255533D01*
X603497Y255000D01*
X602431D01*
X601898Y255533D01*
Y257666D01*
X518133Y329666D02*
X517599Y330199D01*
X516533D01*
X516000Y329666D01*
Y327533D01*
X516533Y327000D01*
X517599D01*
X518133Y327533D01*
X521332Y327000D02*
X519199D01*
X521332Y329133D01*
Y329666D01*
X520798Y330199D01*
X519732D01*
X519199Y329666D01*
X522398Y327000D02*
X523464D01*
X522931D01*
Y330199D01*
X522398Y329666D01*
X573633Y309166D02*
X573100Y309699D01*
X572033D01*
X571500Y309166D01*
Y307033D01*
X572033Y306500D01*
X573100D01*
X573633Y307033D01*
X574699Y306500D02*
X575765D01*
X575232D01*
Y309699D01*
X574699Y309166D01*
X577365D02*
X577898Y309699D01*
X578964D01*
X579497Y309166D01*
Y308633D01*
X578964Y308100D01*
X579497Y307566D01*
Y307033D01*
X578964Y306500D01*
X577898D01*
X577365Y307033D01*
Y307566D01*
X577898Y308100D01*
X577365Y308633D01*
Y309166D01*
X577898Y308100D02*
X578964D01*
X634633Y300699D02*
X633566D01*
X634099D01*
Y298033D01*
X633566Y297500D01*
X633033D01*
X632500Y298033D01*
X635699Y297500D02*
X636765D01*
X636232D01*
Y300699D01*
X635699Y300166D01*
X503133Y194666D02*
X502599Y195199D01*
X501533D01*
X501000Y194666D01*
Y194133D01*
X501533Y193599D01*
X502599D01*
X503133Y193066D01*
Y192533D01*
X502599Y192000D01*
X501533D01*
X501000Y192533D01*
X504199Y195199D02*
Y192000D01*
X505265Y193066D01*
X506332Y192000D01*
Y195199D01*
X507398Y192000D02*
X508464D01*
X507931D01*
Y195199D01*
X507398Y194666D01*
X523000Y205500D02*
Y208699D01*
X524600D01*
X525133Y208166D01*
Y207100D01*
X524600Y206566D01*
X523000D01*
X524066D02*
X525133Y205500D01*
X528332D02*
X526199D01*
X528332Y207633D01*
Y208166D01*
X527798Y208699D01*
X526732D01*
X526199Y208166D01*
X529398D02*
X529931Y208699D01*
X530997D01*
X531531Y208166D01*
Y206033D01*
X530997Y205500D01*
X529931D01*
X529398Y206033D01*
Y208166D01*
X555500Y329500D02*
Y332699D01*
X557099D01*
X557633Y332166D01*
Y331100D01*
X557099Y330566D01*
X555500D01*
X556566D02*
X557633Y329500D01*
X558699D02*
X559765D01*
X559232D01*
Y332699D01*
X558699Y332166D01*
X561365Y330033D02*
X561898Y329500D01*
X562964D01*
X563497Y330033D01*
Y332166D01*
X562964Y332699D01*
X561898D01*
X561365Y332166D01*
Y331633D01*
X561898Y331100D01*
X563497D01*
X536500Y271800D02*
Y274999D01*
X538099D01*
X538633Y274466D01*
Y273399D01*
X538099Y272866D01*
X536500D01*
X537566D02*
X538633Y271800D01*
X539699D02*
X540765D01*
X540232D01*
Y274999D01*
X539699Y274466D01*
X542365D02*
X542898Y274999D01*
X543964D01*
X544497Y274466D01*
Y273933D01*
X543964Y273399D01*
X544497Y272866D01*
Y272333D01*
X543964Y271800D01*
X542898D01*
X542365Y272333D01*
Y272866D01*
X542898Y273399D01*
X542365Y273933D01*
Y274466D01*
X542898Y273399D02*
X543964D01*
X456500Y191000D02*
Y194199D01*
X458100D01*
X458633Y193666D01*
Y192599D01*
X458100Y192066D01*
X456500D01*
X457566D02*
X458633Y191000D01*
X459699D02*
X460765D01*
X460232D01*
Y194199D01*
X459699Y193666D01*
X462365Y194199D02*
X464497D01*
Y193666D01*
X462365Y191533D01*
Y191000D01*
X411500Y190500D02*
Y193699D01*
X413099D01*
X413633Y193166D01*
Y192099D01*
X413099Y191566D01*
X411500D01*
X412566D02*
X413633Y190500D01*
X414699D02*
X415765D01*
X415232D01*
Y193699D01*
X414699Y193166D01*
X419497Y193699D02*
X418431Y193166D01*
X417365Y192099D01*
Y191033D01*
X417898Y190500D01*
X418964D01*
X419497Y191033D01*
Y191566D01*
X418964Y192099D01*
X417365D01*
X460500Y165500D02*
Y168699D01*
X462100D01*
X462633Y168166D01*
Y167099D01*
X462100Y166566D01*
X460500D01*
X461566D02*
X462633Y165500D01*
X463699D02*
X464765D01*
X464232D01*
Y168699D01*
X463699Y168166D01*
X468497Y168699D02*
X466365D01*
Y167099D01*
X467431Y167633D01*
X467964D01*
X468497Y167099D01*
Y166033D01*
X467964Y165500D01*
X466898D01*
X466365Y166033D01*
X415000Y166000D02*
Y169199D01*
X416600D01*
X417133Y168666D01*
Y167599D01*
X416600Y167066D01*
X415000D01*
X416066D02*
X417133Y166000D01*
X418199D02*
X419265D01*
X418732D01*
Y169199D01*
X418199Y168666D01*
X422464Y166000D02*
Y169199D01*
X420865Y167599D01*
X422997D01*
X539633Y198166D02*
X539100Y198699D01*
X538033D01*
X537500Y198166D01*
Y196033D01*
X538033Y195500D01*
X539100D01*
X539633Y196033D01*
X540699Y195500D02*
X541765D01*
X541232D01*
Y198699D01*
X540699Y198166D01*
X543365Y198699D02*
X545497D01*
Y198166D01*
X543365Y196033D01*
Y195500D01*
X618633Y291166D02*
X618099Y291699D01*
X617033D01*
X616500Y291166D01*
Y289033D01*
X617033Y288500D01*
X618099D01*
X618633Y289033D01*
X619699Y288500D02*
X620765D01*
X620232D01*
Y291699D01*
X619699Y291166D01*
X624497Y291699D02*
X623431Y291166D01*
X622365Y290100D01*
Y289033D01*
X622898Y288500D01*
X623964D01*
X624497Y289033D01*
Y289566D01*
X623964Y290100D01*
X622365D01*
X443633Y193166D02*
X443099Y193699D01*
X442033D01*
X441500Y193166D01*
Y191033D01*
X442033Y190500D01*
X443099D01*
X443633Y191033D01*
X444699Y190500D02*
X445765D01*
X445232D01*
Y193699D01*
X444699Y193166D01*
X449497Y193699D02*
X447365D01*
Y192099D01*
X448431Y192633D01*
X448964D01*
X449497Y192099D01*
Y191033D01*
X448964Y190500D01*
X447898D01*
X447365Y191033D01*
X400133Y193166D02*
X399600Y193699D01*
X398533D01*
X398000Y193166D01*
Y191033D01*
X398533Y190500D01*
X399600D01*
X400133Y191033D01*
X401199Y190500D02*
X402265D01*
X401732D01*
Y193699D01*
X401199Y193166D01*
X405464Y190500D02*
Y193699D01*
X403865Y192099D01*
X405997D01*
X431000Y180699D02*
Y177500D01*
X432599D01*
X433133Y178033D01*
Y178566D01*
X432599Y179100D01*
X431000D01*
X432599D01*
X433133Y179633D01*
Y180166D01*
X432599Y180699D01*
X431000D01*
X434199Y180166D02*
X434732Y180699D01*
X435798D01*
X436332Y180166D01*
Y179633D01*
X435798Y179100D01*
X435265D01*
X435798D01*
X436332Y178566D01*
Y178033D01*
X435798Y177500D01*
X434732D01*
X434199Y178033D01*
X385000Y180199D02*
Y177000D01*
X386599D01*
X387133Y177533D01*
Y178066D01*
X386599Y178600D01*
X385000D01*
X386599D01*
X387133Y179133D01*
Y179666D01*
X386599Y180199D01*
X385000D01*
X390332Y177000D02*
X388199D01*
X390332Y179133D01*
Y179666D01*
X389798Y180199D01*
X388732D01*
X388199Y179666D01*
X577000Y209199D02*
Y206533D01*
X577533Y206000D01*
X578600D01*
X579133Y206533D01*
Y209199D01*
X582332Y206000D02*
X580199D01*
X582332Y208133D01*
Y208666D01*
X581798Y209199D01*
X580732D01*
X580199Y208666D01*
X620000Y326199D02*
Y323000D01*
X621599D01*
X622133Y323533D01*
Y325666D01*
X621599Y326199D01*
X620000D01*
X623199Y323000D02*
X624265D01*
X623732D01*
Y326199D01*
X623199Y325666D01*
X408500Y331199D02*
Y328000D01*
X410100D01*
X410633Y328533D01*
Y329066D01*
X410100Y329599D01*
X408500D01*
X410100D01*
X410633Y330133D01*
Y330666D01*
X410100Y331199D01*
X408500D01*
X411699Y328000D02*
X412765D01*
X412232D01*
Y331199D01*
X411699Y330666D01*
X572500Y331500D02*
Y334699D01*
X574099D01*
X574633Y334166D01*
Y333100D01*
X574099Y332566D01*
X572500D01*
X575699Y331500D02*
X576765D01*
X576232D01*
Y334699D01*
X575699Y334166D01*
X496500Y287699D02*
Y285033D01*
X497033Y284500D01*
X498100D01*
X498633Y285033D01*
Y287699D01*
X499699Y284500D02*
X500765D01*
X500232D01*
Y287699D01*
X499699Y287166D01*
X629500Y280199D02*
Y277533D01*
X630033Y277000D01*
X631100D01*
X631633Y277533D01*
Y280199D01*
X632699Y279666D02*
X633232Y280199D01*
X634298D01*
X634832Y279666D01*
Y279133D01*
X634298Y278600D01*
X633765D01*
X634298D01*
X634832Y278066D01*
Y277533D01*
X634298Y277000D01*
X633232D01*
X632699Y277533D01*
X443500Y310500D02*
Y313699D01*
X445099D01*
X445633Y313166D01*
Y312100D01*
X445099Y311566D01*
X443500D01*
X444566D02*
X445633Y310500D01*
X446699D02*
X447765D01*
X447232D01*
Y313699D01*
X446699Y313166D01*
X449365D02*
X449898Y313699D01*
X450964D01*
X451497Y313166D01*
Y312633D01*
X450964Y312100D01*
X450431D01*
X450964D01*
X451497Y311566D01*
Y311033D01*
X450964Y310500D01*
X449898D01*
X449365Y311033D01*
X454000Y311000D02*
Y314199D01*
X455599D01*
X456133Y313666D01*
Y312599D01*
X455599Y312066D01*
X454000D01*
X455066D02*
X456133Y311000D01*
X457199D02*
X458265D01*
X457732D01*
Y314199D01*
X457199Y313666D01*
X461997Y311000D02*
X459865D01*
X461997Y313133D01*
Y313666D01*
X461464Y314199D01*
X460398D01*
X459865Y313666D01*
X465000Y311000D02*
Y314199D01*
X466600D01*
X467133Y313666D01*
Y312599D01*
X466600Y312066D01*
X465000D01*
X466066D02*
X467133Y311000D01*
X468199D02*
X469265D01*
X468732D01*
Y314199D01*
X468199Y313666D01*
X470865Y311000D02*
X471931D01*
X471398D01*
Y314199D01*
X470865Y313666D01*
X482000Y311500D02*
Y314699D01*
X483600D01*
X484133Y314166D01*
Y313100D01*
X483600Y312566D01*
X482000D01*
X483066D02*
X484133Y311500D01*
X485199D02*
X486265D01*
X485732D01*
Y314699D01*
X485199Y314166D01*
X487865D02*
X488398Y314699D01*
X489464D01*
X489997Y314166D01*
Y312033D01*
X489464Y311500D01*
X488398D01*
X487865Y312033D01*
Y314166D01*
X429500Y259000D02*
Y262199D01*
X431100D01*
X431633Y261666D01*
Y260599D01*
X431100Y260066D01*
X429500D01*
X430566D02*
X431633Y259000D01*
X432699Y259533D02*
X433232Y259000D01*
X434298D01*
X434832Y259533D01*
Y261666D01*
X434298Y262199D01*
X433232D01*
X432699Y261666D01*
Y261133D01*
X433232Y260599D01*
X434832D01*
X493500Y311000D02*
Y314199D01*
X495099D01*
X495633Y313666D01*
Y312599D01*
X495099Y312066D01*
X493500D01*
X494566D02*
X495633Y311000D01*
X496699Y313666D02*
X497232Y314199D01*
X498298D01*
X498832Y313666D01*
Y313133D01*
X498298Y312599D01*
X498832Y312066D01*
Y311533D01*
X498298Y311000D01*
X497232D01*
X496699Y311533D01*
Y312066D01*
X497232Y312599D01*
X496699Y313133D01*
Y313666D01*
X497232Y312599D02*
X498298D01*
X587213Y218244D02*
Y221443D01*
X588812D01*
X589345Y220910D01*
Y219844D01*
X588812Y219310D01*
X587213D01*
X588279D02*
X589345Y218244D01*
X590412Y221443D02*
X592544D01*
Y220910D01*
X590412Y218777D01*
Y218244D01*
X531500Y277500D02*
Y280699D01*
X533100D01*
X533633Y280166D01*
Y279099D01*
X533100Y278566D01*
X531500D01*
X532566D02*
X533633Y277500D01*
X536832Y280699D02*
X535765Y280166D01*
X534699Y279099D01*
Y278033D01*
X535232Y277500D01*
X536298D01*
X536832Y278033D01*
Y278566D01*
X536298Y279099D01*
X534699D01*
X511000Y265500D02*
Y268699D01*
X512600D01*
X513133Y268166D01*
Y267099D01*
X512600Y266566D01*
X511000D01*
X512066D02*
X513133Y265500D01*
X516332Y268699D02*
X514199D01*
Y267099D01*
X515265Y267633D01*
X515798D01*
X516332Y267099D01*
Y266033D01*
X515798Y265500D01*
X514732D01*
X514199Y266033D01*
X471500Y299500D02*
Y302699D01*
X473100D01*
X473633Y302166D01*
Y301099D01*
X473100Y300566D01*
X471500D01*
X472566D02*
X473633Y299500D01*
X476298D02*
Y302699D01*
X474699Y301099D01*
X476832D01*
X526500Y276000D02*
X529699D01*
Y274400D01*
X529166Y273867D01*
X528099D01*
X527566Y274400D01*
Y276000D01*
Y274934D02*
X526500Y273867D01*
X529166Y272801D02*
X529699Y272268D01*
Y271201D01*
X529166Y270668D01*
X528633D01*
X528099Y271201D01*
Y271735D01*
Y271201D01*
X527566Y270668D01*
X527033D01*
X526500Y271201D01*
Y272268D01*
X527033Y272801D01*
X479000Y299500D02*
Y302699D01*
X480599D01*
X481133Y302166D01*
Y301099D01*
X480599Y300566D01*
X479000D01*
X480066D02*
X481133Y299500D01*
X484332D02*
X482199D01*
X484332Y301633D01*
Y302166D01*
X483798Y302699D01*
X482732D01*
X482199Y302166D01*
X466500Y304000D02*
Y307199D01*
X468099D01*
X468633Y306666D01*
Y305599D01*
X468099Y305066D01*
X466500D01*
X467566D02*
X468633Y304000D01*
X469699D02*
X470765D01*
X470232D01*
Y307199D01*
X469699Y306666D01*
X411633Y237033D02*
Y239166D01*
X411099Y239699D01*
X410033D01*
X409500Y239166D01*
Y237033D01*
X410033Y236500D01*
X411099D01*
X410566Y237566D02*
X411633Y236500D01*
X411099D02*
X411633Y237033D01*
X414832Y239699D02*
X412699D01*
Y238100D01*
X413765Y238633D01*
X414298D01*
X414832Y238100D01*
Y237033D01*
X414298Y236500D01*
X413232D01*
X412699Y237033D01*
X412133Y253533D02*
Y255666D01*
X411599Y256199D01*
X410533D01*
X410000Y255666D01*
Y253533D01*
X410533Y253000D01*
X411599D01*
X411066Y254066D02*
X412133Y253000D01*
X411599D02*
X412133Y253533D01*
X414798Y253000D02*
Y256199D01*
X413199Y254599D01*
X415332D01*
X412133Y269033D02*
Y271166D01*
X411599Y271699D01*
X410533D01*
X410000Y271166D01*
Y269033D01*
X410533Y268500D01*
X411599D01*
X411066Y269566D02*
X412133Y268500D01*
X411599D02*
X412133Y269033D01*
X413199Y271166D02*
X413732Y271699D01*
X414798D01*
X415332Y271166D01*
Y270633D01*
X414798Y270099D01*
X414265D01*
X414798D01*
X415332Y269566D01*
Y269033D01*
X414798Y268500D01*
X413732D01*
X413199Y269033D01*
X411633Y285533D02*
Y287666D01*
X411099Y288199D01*
X410033D01*
X409500Y287666D01*
Y285533D01*
X410033Y285000D01*
X411099D01*
X410566Y286066D02*
X411633Y285000D01*
X411099D02*
X411633Y285533D01*
X414832Y285000D02*
X412699D01*
X414832Y287133D01*
Y287666D01*
X414298Y288199D01*
X413232D01*
X412699Y287666D01*
X411633Y301533D02*
Y303666D01*
X411099Y304199D01*
X410033D01*
X409500Y303666D01*
Y301533D01*
X410033Y301000D01*
X411099D01*
X410566Y302066D02*
X411633Y301000D01*
X411099D02*
X411633Y301533D01*
X412699Y301000D02*
X413765D01*
X413232D01*
Y304199D01*
X412699Y303666D01*
X598213Y221821D02*
Y218622D01*
X600345D01*
X601412Y221821D02*
Y218622D01*
X603011D01*
X603544Y219155D01*
Y221288D01*
X603011Y221821D01*
X601412D01*
X604610Y218622D02*
X605677D01*
X605144D01*
Y221821D01*
X604610Y221288D01*
X443000Y256699D02*
Y253500D01*
X445133D01*
X446199D02*
X447265D01*
X446732D01*
Y256699D01*
X446199Y256166D01*
X489633Y334166D02*
X489100Y334699D01*
X488033D01*
X487500Y334166D01*
Y332033D01*
X488033Y331500D01*
X489100D01*
X489633Y332033D01*
X490699Y331500D02*
Y334699D01*
X492832Y331500D01*
Y334699D01*
X493898Y334166D02*
X494431Y334699D01*
X495497D01*
X496031Y334166D01*
Y333633D01*
X495497Y333100D01*
X496031Y332566D01*
Y332033D01*
X495497Y331500D01*
X494431D01*
X493898Y332033D01*
Y332566D01*
X494431Y333100D01*
X493898Y333633D01*
Y334166D01*
X494431Y333100D02*
X495497D01*
X632666Y175867D02*
X633199Y176400D01*
Y177467D01*
X632666Y178000D01*
X630533D01*
X630000Y177467D01*
Y176400D01*
X630533Y175867D01*
X630000Y174801D02*
Y173735D01*
Y174268D01*
X633199D01*
X632666Y174801D01*
Y172135D02*
X633199Y171602D01*
Y170536D01*
X632666Y170003D01*
X632133D01*
X631600Y170536D01*
Y171069D01*
Y170536D01*
X631066Y170003D01*
X630533D01*
X630000Y170536D01*
Y171602D01*
X630533Y172135D01*
X439334Y275633D02*
X438801Y275099D01*
Y274033D01*
X439334Y273500D01*
X441467D01*
X442000Y274033D01*
Y275099D01*
X441467Y275633D01*
X442000Y276699D02*
Y277765D01*
Y277232D01*
X438801D01*
X439334Y276699D01*
X442000Y281497D02*
Y279365D01*
X439867Y281497D01*
X439334D01*
X438801Y280964D01*
Y279898D01*
X439334Y279365D01*
X460133Y306666D02*
X459599Y307199D01*
X458533D01*
X458000Y306666D01*
Y304533D01*
X458533Y304000D01*
X459599D01*
X460133Y304533D01*
X461199Y304000D02*
X462265D01*
X461732D01*
Y307199D01*
X461199Y306666D01*
X463865Y304000D02*
X464931D01*
X464398D01*
Y307199D01*
X463865Y306666D01*
X498633Y228666D02*
X498100Y229199D01*
X497033D01*
X496500Y228666D01*
Y226533D01*
X497033Y226000D01*
X498100D01*
X498633Y226533D01*
X499699Y226000D02*
X500765D01*
X500232D01*
Y229199D01*
X499699Y228666D01*
X502365D02*
X502898Y229199D01*
X503964D01*
X504497Y228666D01*
Y226533D01*
X503964Y226000D01*
X502898D01*
X502365Y226533D01*
Y228666D01*
X579834Y179133D02*
X579301Y178600D01*
Y177533D01*
X579834Y177000D01*
X581967D01*
X582500Y177533D01*
Y178600D01*
X581967Y179133D01*
Y180199D02*
X582500Y180732D01*
Y181799D01*
X581967Y182332D01*
X579834D01*
X579301Y181799D01*
Y180732D01*
X579834Y180199D01*
X580367D01*
X580900Y180732D01*
Y182332D01*
X608666Y280367D02*
X609199Y280901D01*
Y281967D01*
X608666Y282500D01*
X606533D01*
X606000Y281967D01*
Y280901D01*
X606533Y280367D01*
X608666Y279301D02*
X609199Y278768D01*
Y277701D01*
X608666Y277168D01*
X608133D01*
X607599Y277701D01*
X607066Y277168D01*
X606533D01*
X606000Y277701D01*
Y278768D01*
X606533Y279301D01*
X607066D01*
X607599Y278768D01*
X608133Y279301D01*
X608666D01*
X607599Y278768D02*
Y277701D01*
X581633Y317666D02*
X581100Y318199D01*
X580033D01*
X579500Y317666D01*
Y315533D01*
X580033Y315000D01*
X581100D01*
X581633Y315533D01*
X582699Y318199D02*
X584832D01*
Y317666D01*
X582699Y315533D01*
Y315000D01*
X624633Y211166D02*
X624099Y211699D01*
X623033D01*
X622500Y211166D01*
Y209033D01*
X623033Y208500D01*
X624099D01*
X624633Y209033D01*
X627832Y211699D02*
X626765Y211166D01*
X625699Y210100D01*
Y209033D01*
X626232Y208500D01*
X627298D01*
X627832Y209033D01*
Y209566D01*
X627298Y210100D01*
X625699D01*
X439633Y261410D02*
X439100Y261943D01*
X438033D01*
X437500Y261410D01*
Y259277D01*
X438033Y258744D01*
X439100D01*
X439633Y259277D01*
X442832Y261943D02*
X440699D01*
Y260344D01*
X441765Y260877D01*
X442299D01*
X442832Y260344D01*
Y259277D01*
X442299Y258744D01*
X441232D01*
X440699Y259277D01*
X505633Y268166D02*
X505099Y268699D01*
X504033D01*
X503500Y268166D01*
Y266033D01*
X504033Y265500D01*
X505099D01*
X505633Y266033D01*
X508298Y265500D02*
Y268699D01*
X506699Y267099D01*
X508832D01*
X498834Y299877D02*
X498301Y299344D01*
Y298277D01*
X498834Y297744D01*
X500967D01*
X501500Y298277D01*
Y299344D01*
X500967Y299877D01*
X498834Y300943D02*
X498301Y301476D01*
Y302542D01*
X498834Y303076D01*
X499367D01*
X499900Y302542D01*
Y302009D01*
Y302542D01*
X500434Y303076D01*
X500967D01*
X501500Y302542D01*
Y301476D01*
X500967Y300943D01*
X437633Y313166D02*
X437100Y313699D01*
X436033D01*
X435500Y313166D01*
Y311033D01*
X436033Y310500D01*
X437100D01*
X437633Y311033D01*
X440832Y310500D02*
X438699D01*
X440832Y312633D01*
Y313166D01*
X440298Y313699D01*
X439232D01*
X438699Y313166D01*
X482133Y229166D02*
X481600Y229699D01*
X480533D01*
X480000Y229166D01*
Y227033D01*
X480533Y226500D01*
X481600D01*
X482133Y227033D01*
X483199Y226500D02*
X484265D01*
X483732D01*
Y229699D01*
X483199Y229166D01*
D15*
X607209Y212548D02*
Y215697D01*
M02*
