G04*
G04 #@! TF.GenerationSoftware,Altium Limited,Altium Designer,19.1.7 (138)*
G04*
G04 Layer_Color=16711935*
%FSLAX25Y25*%
%MOIN*%
G70*
G01*
G75*
%ADD32C,0.07453*%
%ADD33R,0.07453X0.07453*%
%ADD34C,0.19540*%
%ADD35C,0.06706*%
%ADD36R,0.06706X0.06706*%
%ADD37C,0.03300*%
%ADD38C,0.05800*%
%ADD39C,0.20800*%
D32*
X645319Y185974D02*
D03*
X656500Y191409D02*
D03*
X645319Y196844D02*
D03*
X656500Y202279D02*
D03*
X645319Y207715D02*
D03*
X656500Y213150D02*
D03*
X645319Y218585D02*
D03*
X656500Y224020D02*
D03*
X645319Y229455D02*
D03*
X656500Y234890D02*
D03*
X645319Y240325D02*
D03*
X656500Y245760D02*
D03*
X645319Y251195D02*
D03*
X656500Y256630D02*
D03*
X645319Y262065D02*
D03*
X656500Y267500D02*
D03*
X645319Y272935D02*
D03*
X656500Y278370D02*
D03*
X645319Y283805D02*
D03*
X656500Y289240D02*
D03*
X645319Y294675D02*
D03*
X656500Y300110D02*
D03*
X645319Y305545D02*
D03*
X656500Y310980D02*
D03*
D33*
X645319Y316415D02*
D03*
D34*
X650910Y343817D02*
D03*
Y158573D02*
D03*
D35*
X542000Y341500D02*
D03*
X532000D02*
D03*
X552000D02*
D03*
X562000D02*
D03*
X572000D02*
D03*
X582000D02*
D03*
X446500Y338226D02*
D03*
X456500D02*
D03*
X466500D02*
D03*
X476500D02*
D03*
X486500D02*
D03*
D36*
X522000Y341500D02*
D03*
X496500Y338226D02*
D03*
D37*
X461500Y301500D02*
D03*
X458500Y286500D02*
D03*
X497000Y203000D02*
D03*
X547500Y288500D02*
D03*
X534500Y330000D02*
D03*
X527000Y288500D02*
D03*
X555500Y330000D02*
D03*
X515000Y295000D02*
D03*
X452500Y286500D02*
D03*
X523669Y254500D02*
D03*
X537500D02*
D03*
Y269000D02*
D03*
X524000D02*
D03*
X524069Y259000D02*
D03*
X537500Y259500D02*
D03*
X445500Y285000D02*
D03*
X509000Y302000D02*
D03*
X515000Y289000D02*
D03*
X505500Y254000D02*
D03*
X524000Y264500D02*
D03*
X537500Y264500D02*
D03*
X505000Y259000D02*
D03*
X497000Y218500D02*
D03*
X487500D02*
D03*
X493000D02*
D03*
X507500Y282000D02*
D03*
X469500Y300697D02*
D03*
X438500Y327744D02*
D03*
D38*
X631000Y202000D02*
D03*
X448000Y203000D02*
D03*
X422000Y209000D02*
D03*
X401500Y203500D02*
D03*
X541500Y207500D02*
D03*
X549000Y165000D02*
D03*
Y154500D02*
D03*
X556500Y165000D02*
D03*
Y154000D02*
D03*
X563500Y165000D02*
D03*
X563250Y154000D02*
D03*
X570000Y165000D02*
D03*
Y154000D02*
D03*
X577500D02*
D03*
Y165000D02*
D03*
X612213Y214122D02*
D03*
X619500Y171500D02*
D03*
X377000Y203500D02*
D03*
X561000Y269000D02*
D03*
X630500Y275500D02*
D03*
X611500Y292000D02*
D03*
X557000Y288000D02*
D03*
X598500Y178500D02*
D03*
X448000Y210500D02*
D03*
X359500Y314500D02*
D03*
X401500Y212000D02*
D03*
X411500Y245000D02*
D03*
X411000Y261500D02*
D03*
Y277500D02*
D03*
X412000Y293500D02*
D03*
X411000Y310000D02*
D03*
X457000Y197500D02*
D03*
X415000D02*
D03*
X411000Y324500D02*
D03*
X420047Y166000D02*
D03*
X374500Y166500D02*
D03*
X463000Y166000D02*
D03*
X584500Y310000D02*
D03*
X609500Y178500D02*
D03*
X541376Y168222D02*
D03*
X541500Y190000D02*
D03*
X412000Y338500D02*
D03*
X433000Y244000D02*
D03*
D39*
X364000Y342000D02*
D03*
X613000Y344000D02*
D03*
X597000Y160000D02*
D03*
M02*
