G04*
G04 #@! TF.GenerationSoftware,Altium Limited,Altium Designer,19.1.8 (144)*
G04*
G04 Layer_Physical_Order=2*
G04 Layer_Color=16711680*
%FSLAX25Y25*%
%MOIN*%
G70*
G01*
G75*
%ADD12C,0.01000*%
%ADD14C,0.00600*%
%ADD65C,0.00800*%
%ADD66C,0.02000*%
%ADD70C,0.06000*%
%ADD71R,0.06000X0.06000*%
%ADD72C,0.06653*%
%ADD73R,0.06653X0.06653*%
%ADD74C,0.18740*%
%ADD75C,0.05906*%
%ADD76R,0.05906X0.05906*%
%ADD77C,0.02500*%
%ADD78C,0.05000*%
%ADD79C,0.20000*%
G36*
X688000Y137500D02*
X359500Y137500D01*
X359500Y357500D01*
X600323Y357500D01*
X600749Y357322D01*
Y357322D01*
D01*
X600771Y357000D01*
X600743Y356996D01*
X600086Y356910D01*
X599235Y356557D01*
X598504Y355996D01*
X597943Y355265D01*
X597590Y354414D01*
X597536Y354000D01*
X604464D01*
X604410Y354414D01*
X604057Y355265D01*
X603496Y355996D01*
X602765Y356557D01*
X601914Y356910D01*
X601257Y356996D01*
X601229Y357000D01*
X601251Y357322D01*
X601677Y357500D01*
X688000D01*
X688000Y137500D01*
D02*
G37*
%LPC*%
G36*
X433000Y356464D02*
Y353500D01*
X435964D01*
X435910Y353914D01*
X435557Y354765D01*
X434996Y355496D01*
X434265Y356057D01*
X433414Y356410D01*
X433000Y356464D01*
D02*
G37*
G36*
X432000D02*
X431586Y356410D01*
X430735Y356057D01*
X430004Y355496D01*
X429443Y354765D01*
X429090Y353914D01*
X429036Y353500D01*
X432000D01*
Y356464D01*
D02*
G37*
G36*
X604464Y353000D02*
X601500D01*
Y350036D01*
X601914Y350090D01*
X602765Y350443D01*
X603496Y351004D01*
X604057Y351735D01*
X604410Y352586D01*
X604464Y353000D01*
D02*
G37*
G36*
X600500D02*
X597536D01*
X597590Y352586D01*
X597943Y351735D01*
X598504Y351004D01*
X599235Y350443D01*
X600086Y350090D01*
X600500Y350036D01*
Y353000D01*
D02*
G37*
G36*
X651409Y354180D02*
Y344317D01*
X661272D01*
X661184Y345444D01*
X660803Y347031D01*
X660178Y348539D01*
X659325Y349931D01*
X658265Y351172D01*
X657024Y352232D01*
X655632Y353085D01*
X654124Y353710D01*
X652537Y354091D01*
X651409Y354180D01*
D02*
G37*
G36*
X650409D02*
X649282Y354091D01*
X647695Y353710D01*
X646187Y353085D01*
X644795Y352232D01*
X643554Y351172D01*
X642494Y349931D01*
X641641Y348539D01*
X641016Y347031D01*
X640635Y345444D01*
X640547Y344317D01*
X650409D01*
Y354180D01*
D02*
G37*
G36*
X435964Y352500D02*
X429036D01*
X429090Y352086D01*
X429443Y351235D01*
X430004Y350504D01*
X430735Y349943D01*
X431200Y349750D01*
X431200Y349209D01*
X430987Y349120D01*
X430360Y348640D01*
X429880Y348013D01*
X429577Y347283D01*
X429474Y346500D01*
X429577Y345717D01*
X429880Y344987D01*
X430360Y344360D01*
X430987Y343880D01*
X431717Y343577D01*
X432500Y343474D01*
X433283Y343577D01*
X434013Y343880D01*
X434640Y344360D01*
X435120Y344987D01*
X435423Y345717D01*
X435526Y346500D01*
X435423Y347283D01*
X435120Y348013D01*
X434640Y348640D01*
X434013Y349120D01*
X433800Y349209D01*
X433800Y349750D01*
X434265Y349943D01*
X434996Y350504D01*
X435557Y351235D01*
X435910Y352086D01*
X435964Y352500D01*
D02*
G37*
G36*
X525953Y345453D02*
X522500D01*
Y342000D01*
X525953D01*
Y345453D01*
D02*
G37*
G36*
X521500D02*
X518047D01*
Y342000D01*
X521500D01*
Y345453D01*
D02*
G37*
G36*
X477000Y345147D02*
Y341726D01*
X480421D01*
X480351Y342258D01*
X479953Y343220D01*
X479319Y344045D01*
X478493Y344679D01*
X477532Y345077D01*
X477000Y345147D01*
D02*
G37*
G36*
X476000D02*
X475468Y345077D01*
X474507Y344679D01*
X473681Y344045D01*
X473047Y343220D01*
X472649Y342258D01*
X472579Y341726D01*
X476000D01*
Y345147D01*
D02*
G37*
G36*
X412500Y341964D02*
Y339000D01*
X415464D01*
X415410Y339414D01*
X415057Y340265D01*
X414496Y340996D01*
X413765Y341557D01*
X412914Y341910D01*
X412500Y341964D01*
D02*
G37*
G36*
X411500D02*
X411086Y341910D01*
X410235Y341557D01*
X409504Y340996D01*
X408943Y340265D01*
X408590Y339414D01*
X408536Y339000D01*
X411500D01*
Y341964D01*
D02*
G37*
G36*
X582000Y344983D02*
X581099Y344864D01*
X580259Y344516D01*
X579537Y343963D01*
X578984Y343241D01*
X578636Y342401D01*
X578517Y341500D01*
X578636Y340599D01*
X578984Y339759D01*
X579537Y339037D01*
X580259Y338484D01*
X581099Y338136D01*
X582000Y338018D01*
X582901Y338136D01*
X583741Y338484D01*
X584462Y339037D01*
X585016Y339759D01*
X585364Y340599D01*
X585483Y341500D01*
X585364Y342401D01*
X585016Y343241D01*
X584462Y343963D01*
X583741Y344516D01*
X582901Y344864D01*
X582000Y344983D01*
D02*
G37*
G36*
X572000D02*
X571099Y344864D01*
X570259Y344516D01*
X569537Y343963D01*
X568984Y343241D01*
X568636Y342401D01*
X568517Y341500D01*
X568636Y340599D01*
X568984Y339759D01*
X569537Y339037D01*
X570259Y338484D01*
X571099Y338136D01*
X572000Y338018D01*
X572901Y338136D01*
X573741Y338484D01*
X574463Y339037D01*
X575016Y339759D01*
X575364Y340599D01*
X575483Y341500D01*
X575364Y342401D01*
X575016Y343241D01*
X574463Y343963D01*
X573741Y344516D01*
X572901Y344864D01*
X572000Y344983D01*
D02*
G37*
G36*
X562000D02*
X561099Y344864D01*
X560259Y344516D01*
X559538Y343963D01*
X558984Y343241D01*
X558636Y342401D01*
X558518Y341500D01*
X558636Y340599D01*
X558984Y339759D01*
X559538Y339037D01*
X560259Y338484D01*
X561099Y338136D01*
X562000Y338018D01*
X562901Y338136D01*
X563741Y338484D01*
X564463Y339037D01*
X565016Y339759D01*
X565364Y340599D01*
X565483Y341500D01*
X565364Y342401D01*
X565016Y343241D01*
X564463Y343963D01*
X563741Y344516D01*
X562901Y344864D01*
X562000Y344983D01*
D02*
G37*
G36*
X552000D02*
X551099Y344864D01*
X550259Y344516D01*
X549538Y343963D01*
X548984Y343241D01*
X548636Y342401D01*
X548518Y341500D01*
X548636Y340599D01*
X548984Y339759D01*
X549538Y339037D01*
X550259Y338484D01*
X551099Y338136D01*
X552000Y338018D01*
X552901Y338136D01*
X553741Y338484D01*
X554462Y339037D01*
X555016Y339759D01*
X555364Y340599D01*
X555482Y341500D01*
X555364Y342401D01*
X555016Y343241D01*
X554462Y343963D01*
X553741Y344516D01*
X552901Y344864D01*
X552000Y344983D01*
D02*
G37*
G36*
X542000D02*
X541099Y344864D01*
X540259Y344516D01*
X539537Y343963D01*
X538984Y343241D01*
X538636Y342401D01*
X538518Y341500D01*
X538636Y340599D01*
X538984Y339759D01*
X539537Y339037D01*
X540259Y338484D01*
X541099Y338136D01*
X542000Y338018D01*
X542901Y338136D01*
X543741Y338484D01*
X544462Y339037D01*
X545016Y339759D01*
X545364Y340599D01*
X545482Y341500D01*
X545364Y342401D01*
X545016Y343241D01*
X544462Y343963D01*
X543741Y344516D01*
X542901Y344864D01*
X542000Y344983D01*
D02*
G37*
G36*
X532000D02*
X531099Y344864D01*
X530259Y344516D01*
X529537Y343963D01*
X528984Y343241D01*
X528636Y342401D01*
X528517Y341500D01*
X528636Y340599D01*
X528984Y339759D01*
X529537Y339037D01*
X530259Y338484D01*
X531099Y338136D01*
X532000Y338018D01*
X532901Y338136D01*
X533741Y338484D01*
X534462Y339037D01*
X535016Y339759D01*
X535364Y340599D01*
X535483Y341500D01*
X535364Y342401D01*
X535016Y343241D01*
X534462Y343963D01*
X533741Y344516D01*
X532901Y344864D01*
X532000Y344983D01*
D02*
G37*
G36*
X594000Y344026D02*
X593217Y343923D01*
X592487Y343620D01*
X591860Y343140D01*
X591379Y342513D01*
X591077Y341783D01*
X590974Y341000D01*
X591077Y340217D01*
X591379Y339487D01*
X591860Y338860D01*
X592487Y338380D01*
X593217Y338077D01*
X594000Y337974D01*
X594783Y338077D01*
X595513Y338380D01*
X596140Y338860D01*
X596621Y339487D01*
X596923Y340217D01*
X597026Y341000D01*
X596923Y341783D01*
X596621Y342513D01*
X596140Y343140D01*
X595513Y343620D01*
X594783Y343923D01*
X594000Y344026D01*
D02*
G37*
G36*
X499953Y344679D02*
X493047D01*
Y337774D01*
X499953D01*
Y344679D01*
D02*
G37*
G36*
X486500Y344709D02*
X485599Y344590D01*
X484759Y344242D01*
X484037Y343689D01*
X483484Y342968D01*
X483136Y342128D01*
X483017Y341226D01*
X483136Y340325D01*
X483484Y339485D01*
X484037Y338764D01*
X484759Y338210D01*
X485599Y337862D01*
X486500Y337744D01*
X487401Y337862D01*
X488241Y338210D01*
X488963Y338764D01*
X489516Y339485D01*
X489864Y340325D01*
X489983Y341226D01*
X489864Y342128D01*
X489516Y342968D01*
X488963Y343689D01*
X488241Y344242D01*
X487401Y344590D01*
X486500Y344709D01*
D02*
G37*
G36*
X466500D02*
X465599Y344590D01*
X464759Y344242D01*
X464038Y343689D01*
X463484Y342968D01*
X463136Y342128D01*
X463018Y341226D01*
X463136Y340325D01*
X463484Y339485D01*
X464038Y338764D01*
X464759Y338210D01*
X465599Y337862D01*
X466500Y337744D01*
X467401Y337862D01*
X468241Y338210D01*
X468962Y338764D01*
X469516Y339485D01*
X469864Y340325D01*
X469982Y341226D01*
X469864Y342128D01*
X469516Y342968D01*
X468962Y343689D01*
X468241Y344242D01*
X467401Y344590D01*
X466500Y344709D01*
D02*
G37*
G36*
X456500D02*
X455599Y344590D01*
X454759Y344242D01*
X454038Y343689D01*
X453484Y342968D01*
X453136Y342128D01*
X453018Y341226D01*
X453136Y340325D01*
X453484Y339485D01*
X454038Y338764D01*
X454759Y338210D01*
X455599Y337862D01*
X456500Y337744D01*
X457401Y337862D01*
X458241Y338210D01*
X458962Y338764D01*
X459516Y339485D01*
X459864Y340325D01*
X459982Y341226D01*
X459864Y342128D01*
X459516Y342968D01*
X458962Y343689D01*
X458241Y344242D01*
X457401Y344590D01*
X456500Y344709D01*
D02*
G37*
G36*
X446500D02*
X445599Y344590D01*
X444759Y344242D01*
X444037Y343689D01*
X443484Y342968D01*
X443136Y342128D01*
X443017Y341226D01*
X443136Y340325D01*
X443484Y339485D01*
X444037Y338764D01*
X444759Y338210D01*
X445599Y337862D01*
X446500Y337744D01*
X447401Y337862D01*
X448241Y338210D01*
X448962Y338764D01*
X449516Y339485D01*
X449864Y340325D01*
X449983Y341226D01*
X449864Y342128D01*
X449516Y342968D01*
X448962Y343689D01*
X448241Y344242D01*
X447401Y344590D01*
X446500Y344709D01*
D02*
G37*
G36*
X525953Y341000D02*
X522500D01*
Y337547D01*
X525953D01*
Y341000D01*
D02*
G37*
G36*
X521500D02*
X518047D01*
Y337547D01*
X521500D01*
Y341000D01*
D02*
G37*
G36*
X480421Y340726D02*
X477000D01*
Y337305D01*
X477532Y337375D01*
X478493Y337774D01*
X479319Y338407D01*
X479953Y339233D01*
X480351Y340195D01*
X480421Y340726D01*
D02*
G37*
G36*
X476000D02*
X472579D01*
X472649Y340195D01*
X473047Y339233D01*
X473681Y338407D01*
X474507Y337774D01*
X475468Y337375D01*
X476000Y337305D01*
Y340726D01*
D02*
G37*
G36*
X415464Y338000D02*
X412500D01*
Y335036D01*
X412914Y335090D01*
X413765Y335443D01*
X414496Y336004D01*
X415057Y336735D01*
X415410Y337586D01*
X415464Y338000D01*
D02*
G37*
G36*
X411500D02*
X408536D01*
X408590Y337586D01*
X408943Y336735D01*
X409504Y336004D01*
X410235Y335443D01*
X411086Y335090D01*
X411500Y335036D01*
Y338000D01*
D02*
G37*
G36*
X613000Y354533D02*
X611352Y354403D01*
X609745Y354017D01*
X608218Y353384D01*
X606809Y352521D01*
X605552Y351448D01*
X604479Y350191D01*
X603616Y348782D01*
X602983Y347255D01*
X602597Y345648D01*
X602467Y344000D01*
X602597Y342352D01*
X602983Y340745D01*
X603616Y339218D01*
X604479Y337809D01*
X605552Y336552D01*
X606809Y335479D01*
X608218Y334615D01*
X609745Y333983D01*
X611352Y333597D01*
X613000Y333468D01*
X614648Y333597D01*
X616255Y333983D01*
X617782Y334615D01*
X619191Y335479D01*
X620448Y336552D01*
X621521Y337809D01*
X622385Y339218D01*
X623017Y340745D01*
X623403Y342352D01*
X623532Y344000D01*
X623403Y345648D01*
X623017Y347255D01*
X622385Y348782D01*
X621521Y350191D01*
X620448Y351448D01*
X619191Y352521D01*
X617782Y353384D01*
X616255Y354017D01*
X614648Y354403D01*
X613000Y354533D01*
D02*
G37*
G36*
X650409Y343317D02*
X640547D01*
X640635Y342190D01*
X641016Y340602D01*
X641641Y339094D01*
X642494Y337703D01*
X643554Y336461D01*
X644795Y335401D01*
X646187Y334548D01*
X647695Y333924D01*
X649282Y333543D01*
X650409Y333454D01*
Y343317D01*
D02*
G37*
G36*
X661272D02*
X651409D01*
Y333454D01*
X652537Y333543D01*
X654124Y333924D01*
X655632Y334548D01*
X657024Y335401D01*
X658265Y336461D01*
X659325Y337703D01*
X660178Y339094D01*
X660803Y340602D01*
X661184Y342190D01*
X661272Y343317D01*
D02*
G37*
G36*
X379000Y352533D02*
X377352Y352403D01*
X375745Y352017D01*
X374218Y351384D01*
X372809Y350521D01*
X371552Y349448D01*
X370479Y348191D01*
X369616Y346782D01*
X368983Y345255D01*
X368597Y343648D01*
X368467Y342000D01*
X368597Y340352D01*
X368983Y338745D01*
X369616Y337218D01*
X370479Y335809D01*
X371552Y334552D01*
X372809Y333479D01*
X374218Y332615D01*
X375745Y331983D01*
X377352Y331597D01*
X379000Y331468D01*
X380648Y331597D01*
X382255Y331983D01*
X383782Y332615D01*
X385191Y333479D01*
X386448Y334552D01*
X387521Y335809D01*
X388385Y337218D01*
X389017Y338745D01*
X389403Y340352D01*
X389532Y342000D01*
X389403Y343648D01*
X389017Y345255D01*
X388385Y346782D01*
X387521Y348191D01*
X386448Y349448D01*
X385191Y350521D01*
X383782Y351384D01*
X382255Y352017D01*
X380648Y352403D01*
X379000Y352533D01*
D02*
G37*
G36*
X439000Y329939D02*
Y328244D01*
X440695D01*
X440620Y328622D01*
X440122Y329366D01*
X439378Y329864D01*
X439000Y329939D01*
D02*
G37*
G36*
X438000D02*
X437622Y329864D01*
X436878Y329366D01*
X436381Y328622D01*
X436305Y328244D01*
X438000D01*
Y329939D01*
D02*
G37*
G36*
X557000Y328784D02*
X556317Y328648D01*
X555738Y328262D01*
X555577Y328020D01*
X528424D01*
X528262Y328262D01*
X527683Y328648D01*
X527000Y328784D01*
X526317Y328648D01*
X525738Y328262D01*
X525352Y327683D01*
X525216Y327000D01*
X525352Y326317D01*
X525738Y325738D01*
X526317Y325352D01*
X527000Y325216D01*
X527683Y325352D01*
X528262Y325738D01*
X528424Y325980D01*
X555577D01*
X555738Y325738D01*
X556317Y325352D01*
X557000Y325216D01*
X557683Y325352D01*
X558262Y325738D01*
X558648Y326317D01*
X558784Y327000D01*
X558648Y327683D01*
X558262Y328262D01*
X557683Y328648D01*
X557000Y328784D01*
D02*
G37*
G36*
X440695Y327244D02*
X439000D01*
Y325550D01*
X439378Y325625D01*
X440122Y326122D01*
X440620Y326866D01*
X440695Y327244D01*
D02*
G37*
G36*
X438000D02*
X436305D01*
X436381Y326866D01*
X436878Y326122D01*
X437622Y325625D01*
X438000Y325550D01*
Y327244D01*
D02*
G37*
G36*
X411500Y320964D02*
Y318000D01*
X414464D01*
X414410Y318414D01*
X414057Y319265D01*
X413496Y319996D01*
X412765Y320557D01*
X411914Y320910D01*
X411500Y320964D01*
D02*
G37*
G36*
X410500D02*
X410086Y320910D01*
X409235Y320557D01*
X408504Y319996D01*
X407943Y319265D01*
X407590Y318414D01*
X407536Y318000D01*
X410500D01*
Y320964D01*
D02*
G37*
G36*
X595500Y318969D02*
Y315500D01*
X598969D01*
X598897Y316044D01*
X598494Y317017D01*
X597853Y317853D01*
X597017Y318494D01*
X596044Y318897D01*
X595500Y318969D01*
D02*
G37*
G36*
X594500Y318969D02*
X593956Y318897D01*
X592983Y318494D01*
X592147Y317853D01*
X591506Y317017D01*
X591103Y316044D01*
X591031Y315500D01*
X594500D01*
Y318969D01*
D02*
G37*
G36*
X369500Y317964D02*
Y315000D01*
X372464D01*
X372410Y315414D01*
X372057Y316265D01*
X371496Y316996D01*
X370765Y317557D01*
X369914Y317910D01*
X369500Y317964D01*
D02*
G37*
G36*
X368500D02*
X368086Y317910D01*
X367235Y317557D01*
X366504Y316996D01*
X365943Y316265D01*
X365590Y315414D01*
X365536Y315000D01*
X368500D01*
Y317964D01*
D02*
G37*
G36*
X649146Y320242D02*
X641492D01*
Y312589D01*
X649146D01*
Y320242D01*
D02*
G37*
G36*
X608343Y318500D02*
X601343D01*
Y311500D01*
X608343D01*
Y318500D01*
D02*
G37*
G36*
X372464Y314000D02*
X369500D01*
Y311036D01*
X369914Y311090D01*
X370765Y311443D01*
X371496Y312004D01*
X372057Y312735D01*
X372410Y313586D01*
X372464Y314000D01*
D02*
G37*
G36*
X368500D02*
X365536D01*
X365590Y313586D01*
X365943Y312735D01*
X366504Y312004D01*
X367235Y311443D01*
X368086Y311090D01*
X368500Y311036D01*
Y314000D01*
D02*
G37*
G36*
X598969Y314500D02*
X595500D01*
Y311031D01*
X596044Y311103D01*
X597017Y311506D01*
X597853Y312147D01*
X598494Y312983D01*
X598897Y313956D01*
X598969Y314500D01*
D02*
G37*
G36*
X594500D02*
X591031D01*
X591103Y313956D01*
X591506Y312983D01*
X592147Y312147D01*
X592983Y311506D01*
X593956Y311103D01*
X594500Y311031D01*
Y314500D01*
D02*
G37*
G36*
X414464Y317000D02*
X407536D01*
X407590Y316586D01*
X407943Y315735D01*
X408504Y315004D01*
X409235Y314443D01*
X410086Y314090D01*
X410746Y314003D01*
X410754Y314002D01*
Y313498D01*
X410746Y313497D01*
X410086Y313410D01*
X409235Y313057D01*
X408504Y312496D01*
X407943Y311765D01*
X407590Y310914D01*
X407536Y310500D01*
X414464D01*
X414410Y310914D01*
X414057Y311765D01*
X413496Y312496D01*
X412765Y313057D01*
X411914Y313410D01*
X411254Y313497D01*
X411246Y313498D01*
Y314002D01*
X411254Y314003D01*
X411914Y314090D01*
X412765Y314443D01*
X413496Y315004D01*
X414057Y315735D01*
X414410Y316586D01*
X414464Y317000D01*
D02*
G37*
G36*
X506000Y309695D02*
Y308000D01*
X507695D01*
X507619Y308378D01*
X507122Y309122D01*
X506378Y309619D01*
X506000Y309695D01*
D02*
G37*
G36*
X505000D02*
X504622Y309619D01*
X503878Y309122D01*
X503381Y308378D01*
X503305Y308000D01*
X505000D01*
Y309695D01*
D02*
G37*
G36*
X656500Y314840D02*
X655501Y314709D01*
X654570Y314323D01*
X653771Y313710D01*
X653157Y312910D01*
X652772Y311979D01*
X652640Y310980D01*
X652772Y309981D01*
X653157Y309050D01*
X653771Y308251D01*
X654570Y307638D01*
X655501Y307252D01*
X656500Y307120D01*
X657499Y307252D01*
X658430Y307638D01*
X659229Y308251D01*
X659843Y309050D01*
X660228Y309981D01*
X660360Y310980D01*
X660228Y311979D01*
X659843Y312910D01*
X659229Y313710D01*
X658430Y314323D01*
X657499Y314709D01*
X656500Y314840D01*
D02*
G37*
G36*
X414464Y309500D02*
X411500D01*
Y306536D01*
X411914Y306590D01*
X412765Y306943D01*
X413496Y307504D01*
X414057Y308235D01*
X414410Y309086D01*
X414464Y309500D01*
D02*
G37*
G36*
X410500D02*
X407536D01*
X407590Y309086D01*
X407943Y308235D01*
X408504Y307504D01*
X409235Y306943D01*
X410086Y306590D01*
X410500Y306536D01*
Y309500D01*
D02*
G37*
G36*
X645819Y309844D02*
Y306045D01*
X649617D01*
X649534Y306675D01*
X649098Y307727D01*
X648405Y308631D01*
X647501Y309325D01*
X646448Y309761D01*
X645819Y309844D01*
D02*
G37*
G36*
X644819D02*
X644189Y309761D01*
X643137Y309325D01*
X642233Y308631D01*
X641539Y307727D01*
X641104Y306675D01*
X641021Y306045D01*
X644819D01*
Y309844D01*
D02*
G37*
G36*
X507695Y307000D02*
X506000D01*
Y305305D01*
X506378Y305381D01*
X507122Y305878D01*
X507619Y306622D01*
X507695Y307000D01*
D02*
G37*
G36*
X505000D02*
X503305D01*
X503381Y306622D01*
X503878Y305878D01*
X504622Y305381D01*
X505000Y305305D01*
Y307000D01*
D02*
G37*
G36*
X585000Y306464D02*
Y303500D01*
X587964D01*
X587910Y303914D01*
X587557Y304765D01*
X586996Y305496D01*
X586265Y306057D01*
X585414Y306410D01*
X585000Y306464D01*
D02*
G37*
G36*
X584000D02*
X583586Y306410D01*
X582735Y306057D01*
X582004Y305496D01*
X581443Y304765D01*
X581090Y303914D01*
X581036Y303500D01*
X584000D01*
Y306464D01*
D02*
G37*
G36*
X462000Y303695D02*
Y302000D01*
X463695D01*
X463619Y302378D01*
X463122Y303122D01*
X462378Y303620D01*
X462000Y303695D01*
D02*
G37*
G36*
X461000D02*
X460622Y303620D01*
X459878Y303122D01*
X459381Y302378D01*
X459305Y302000D01*
X461000D01*
Y303695D01*
D02*
G37*
G36*
X649617Y305045D02*
X645819D01*
Y301247D01*
X646448Y301330D01*
X647501Y301766D01*
X648405Y302459D01*
X649098Y303363D01*
X649534Y304416D01*
X649617Y305045D01*
D02*
G37*
G36*
X644819D02*
X641021D01*
X641104Y304416D01*
X641539Y303363D01*
X642233Y302459D01*
X643137Y301766D01*
X644189Y301330D01*
X644819Y301247D01*
Y305045D01*
D02*
G37*
G36*
X468000Y302891D02*
Y301197D01*
X469695D01*
X469619Y301575D01*
X469122Y302319D01*
X468378Y302816D01*
X468000Y302891D01*
D02*
G37*
G36*
X467000D02*
X466622Y302816D01*
X465878Y302319D01*
X465381Y301575D01*
X465305Y301197D01*
X467000D01*
Y302891D01*
D02*
G37*
G36*
X657000Y304409D02*
Y300610D01*
X660798D01*
X660715Y301240D01*
X660279Y302292D01*
X659586Y303196D01*
X658682Y303890D01*
X657629Y304326D01*
X657000Y304409D01*
D02*
G37*
G36*
X656000D02*
X655371Y304326D01*
X654318Y303890D01*
X653414Y303196D01*
X652721Y302292D01*
X652285Y301240D01*
X652202Y300610D01*
X656000D01*
Y304409D01*
D02*
G37*
G36*
X587964Y302500D02*
X585000D01*
Y299536D01*
X585414Y299590D01*
X586265Y299943D01*
X586996Y300504D01*
X587557Y301235D01*
X587910Y302086D01*
X587964Y302500D01*
D02*
G37*
G36*
X584000D02*
X581036D01*
X581090Y302086D01*
X581443Y301235D01*
X582004Y300504D01*
X582735Y299943D01*
X583586Y299590D01*
X584000Y299536D01*
Y302500D01*
D02*
G37*
G36*
X463695Y301000D02*
X462000D01*
Y299305D01*
X462378Y299380D01*
X463122Y299878D01*
X463619Y300622D01*
X463695Y301000D01*
D02*
G37*
G36*
X461000D02*
X459305D01*
X459381Y300622D01*
X459878Y299878D01*
X460622Y299380D01*
X461000Y299305D01*
Y301000D01*
D02*
G37*
G36*
X469695Y300197D02*
X468000D01*
Y298502D01*
X468378Y298577D01*
X469122Y299075D01*
X469619Y299819D01*
X469695Y300197D01*
D02*
G37*
G36*
X467000D02*
X465305D01*
X465381Y299819D01*
X465878Y299075D01*
X466622Y298577D01*
X467000Y298502D01*
Y300197D01*
D02*
G37*
G36*
X660798Y299610D02*
X657000D01*
Y295812D01*
X657629Y295895D01*
X658682Y296331D01*
X659586Y297024D01*
X660279Y297928D01*
X660715Y298981D01*
X660798Y299610D01*
D02*
G37*
G36*
X656000D02*
X652202D01*
X652285Y298981D01*
X652721Y297928D01*
X653414Y297024D01*
X654318Y296331D01*
X655371Y295895D01*
X656000Y295812D01*
Y299610D01*
D02*
G37*
G36*
X645819Y298973D02*
Y295175D01*
X649617D01*
X649534Y295805D01*
X649098Y296857D01*
X648405Y297761D01*
X647501Y298455D01*
X646448Y298891D01*
X645819Y298973D01*
D02*
G37*
G36*
X644819D02*
X644189Y298891D01*
X643137Y298455D01*
X642233Y297761D01*
X641539Y296857D01*
X641104Y295805D01*
X641021Y295175D01*
X644819D01*
Y298973D01*
D02*
G37*
G36*
X412500Y296964D02*
Y294000D01*
X415464D01*
X415410Y294414D01*
X415057Y295265D01*
X414496Y295996D01*
X413765Y296557D01*
X412914Y296910D01*
X412500Y296964D01*
D02*
G37*
G36*
X411500D02*
X411086Y296910D01*
X410235Y296557D01*
X409504Y295996D01*
X408943Y295265D01*
X408590Y294414D01*
X408536Y294000D01*
X411500D01*
Y296964D01*
D02*
G37*
G36*
X649617Y294175D02*
X645819D01*
Y290377D01*
X646448Y290460D01*
X647501Y290896D01*
X648405Y291589D01*
X649098Y292493D01*
X649534Y293546D01*
X649617Y294175D01*
D02*
G37*
G36*
X644819D02*
X641021D01*
X641104Y293546D01*
X641539Y292493D01*
X642233Y291589D01*
X643137Y290896D01*
X644189Y290460D01*
X644819Y290377D01*
Y294175D01*
D02*
G37*
G36*
X415464Y293000D02*
X412500D01*
Y290036D01*
X412914Y290090D01*
X413765Y290443D01*
X414496Y291004D01*
X415057Y291735D01*
X415410Y292586D01*
X415464Y293000D01*
D02*
G37*
G36*
X411500D02*
X408536D01*
X408590Y292586D01*
X408943Y291735D01*
X409504Y291004D01*
X410235Y290443D01*
X411086Y290090D01*
X411500Y290036D01*
Y293000D01*
D02*
G37*
G36*
X516000Y296784D02*
X515317Y296649D01*
X514738Y296262D01*
X514352Y295683D01*
X514216Y295000D01*
X514352Y294317D01*
X514738Y293738D01*
X515184Y293440D01*
Y290560D01*
X514738Y290262D01*
X514352Y289683D01*
X514216Y289000D01*
X514352Y288317D01*
X514738Y287738D01*
X515317Y287351D01*
X516000Y287216D01*
X516683Y287351D01*
X517262Y287738D01*
X517649Y288317D01*
X517784Y289000D01*
X517649Y289683D01*
X517262Y290262D01*
X516816Y290560D01*
Y293440D01*
X517262Y293738D01*
X517649Y294317D01*
X517784Y295000D01*
X517649Y295683D01*
X517262Y296262D01*
X516683Y296649D01*
X516000Y296784D01*
D02*
G37*
G36*
X455500Y295784D02*
X454817Y295649D01*
X454238Y295262D01*
X453852Y294683D01*
X453716Y294000D01*
X453852Y293317D01*
X454238Y292738D01*
X454582Y292508D01*
Y289492D01*
X454238Y289262D01*
X453852Y288683D01*
X453716Y288000D01*
X453852Y287317D01*
X454238Y286738D01*
X454817Y286351D01*
X455500Y286216D01*
X456183Y286351D01*
X456762Y286738D01*
X457149Y287317D01*
X457284Y288000D01*
X457149Y288683D01*
X456762Y289262D01*
X456418Y289492D01*
Y292508D01*
X456762Y292738D01*
X457149Y293317D01*
X457284Y294000D01*
X457149Y294683D01*
X456762Y295262D01*
X456183Y295649D01*
X455500Y295784D01*
D02*
G37*
G36*
X612000Y288464D02*
Y285500D01*
X614964D01*
X614910Y285914D01*
X614557Y286765D01*
X613996Y287496D01*
X613265Y288057D01*
X612414Y288410D01*
X612000Y288464D01*
D02*
G37*
G36*
X611000D02*
X610586Y288410D01*
X609735Y288057D01*
X609004Y287496D01*
X608443Y286765D01*
X608090Y285914D01*
X608036Y285500D01*
X611000D01*
Y288464D01*
D02*
G37*
G36*
X446000Y287195D02*
Y285500D01*
X447695D01*
X447619Y285878D01*
X447122Y286622D01*
X446378Y287120D01*
X446000Y287195D01*
D02*
G37*
G36*
X445000D02*
X444622Y287120D01*
X443878Y286622D01*
X443381Y285878D01*
X443305Y285500D01*
X445000D01*
Y287195D01*
D02*
G37*
G36*
X656500Y293100D02*
X655501Y292968D01*
X654570Y292583D01*
X653771Y291969D01*
X653157Y291170D01*
X652772Y290239D01*
X652640Y289240D01*
X652772Y288241D01*
X653157Y287310D01*
X653771Y286511D01*
X654570Y285897D01*
X655501Y285512D01*
X656500Y285380D01*
X657499Y285512D01*
X658430Y285897D01*
X659229Y286511D01*
X659843Y287310D01*
X660228Y288241D01*
X660360Y289240D01*
X660228Y290239D01*
X659843Y291170D01*
X659229Y291969D01*
X658430Y292583D01*
X657499Y292968D01*
X656500Y293100D01*
D02*
G37*
G36*
X559000Y287464D02*
Y284500D01*
X561964D01*
X561910Y284914D01*
X561557Y285765D01*
X560996Y286496D01*
X560265Y287057D01*
X559414Y287410D01*
X559000Y287464D01*
D02*
G37*
G36*
X558000D02*
X557586Y287410D01*
X556735Y287057D01*
X556004Y286496D01*
X555443Y285765D01*
X555090Y284914D01*
X555036Y284500D01*
X558000D01*
Y287464D01*
D02*
G37*
G36*
X527000Y286784D02*
X526317Y286649D01*
X525738Y286262D01*
X525351Y285683D01*
X525216Y285000D01*
X525351Y284317D01*
X525738Y283738D01*
X526317Y283352D01*
X527000Y283216D01*
X527683Y283352D01*
X528262Y283738D01*
X528423Y283980D01*
X550577D01*
X550738Y283738D01*
X551317Y283351D01*
X552000Y283216D01*
X552683Y283351D01*
X553262Y283738D01*
X553649Y284317D01*
X553784Y285000D01*
X553649Y285683D01*
X553262Y286262D01*
X552683Y286649D01*
X552000Y286784D01*
X551317Y286649D01*
X550738Y286262D01*
X550577Y286020D01*
X528424D01*
X528262Y286262D01*
X527683Y286649D01*
X527000Y286784D01*
D02*
G37*
G36*
X447695Y284500D02*
X446000D01*
Y282805D01*
X446378Y282880D01*
X447122Y283378D01*
X447619Y284122D01*
X447695Y284500D01*
D02*
G37*
G36*
X445000D02*
X443305D01*
X443381Y284122D01*
X443878Y283378D01*
X444622Y282880D01*
X445000Y282805D01*
Y284500D01*
D02*
G37*
G36*
X507000Y284195D02*
Y282500D01*
X508695D01*
X508619Y282878D01*
X508122Y283622D01*
X507378Y284120D01*
X507000Y284195D01*
D02*
G37*
G36*
X506000D02*
X505622Y284120D01*
X504878Y283622D01*
X504381Y282878D01*
X504305Y282500D01*
X506000D01*
Y284195D01*
D02*
G37*
G36*
X614964Y284500D02*
X612000D01*
Y281536D01*
X612414Y281590D01*
X613265Y281943D01*
X613996Y282504D01*
X614557Y283235D01*
X614910Y284086D01*
X614964Y284500D01*
D02*
G37*
G36*
X611000D02*
X608036D01*
X608090Y284086D01*
X608443Y283235D01*
X609004Y282504D01*
X609735Y281943D01*
X610586Y281590D01*
X611000Y281536D01*
Y284500D01*
D02*
G37*
G36*
X561964Y283500D02*
X559000D01*
Y280536D01*
X559414Y280590D01*
X560265Y280943D01*
X560996Y281504D01*
X561557Y282235D01*
X561910Y283086D01*
X561964Y283500D01*
D02*
G37*
G36*
X558000D02*
X555036D01*
X555090Y283086D01*
X555443Y282235D01*
X556004Y281504D01*
X556735Y280943D01*
X557586Y280590D01*
X558000Y280536D01*
Y283500D01*
D02*
G37*
G36*
X645319Y287665D02*
X644320Y287533D01*
X643389Y287148D01*
X642590Y286534D01*
X641976Y285735D01*
X641591Y284804D01*
X641459Y283805D01*
X641591Y282806D01*
X641976Y281875D01*
X642590Y281076D01*
X643389Y280462D01*
X644320Y280077D01*
X645319Y279945D01*
X646318Y280077D01*
X647249Y280462D01*
X648048Y281076D01*
X648662Y281875D01*
X649047Y282806D01*
X649179Y283805D01*
X649047Y284804D01*
X648662Y285735D01*
X648048Y286534D01*
X647249Y287148D01*
X646318Y287533D01*
X645319Y287665D01*
D02*
G37*
G36*
X508695Y281500D02*
X507000D01*
Y279805D01*
X507378Y279880D01*
X508122Y280378D01*
X508619Y281122D01*
X508695Y281500D01*
D02*
G37*
G36*
X506000D02*
X504305D01*
X504381Y281122D01*
X504878Y280378D01*
X505622Y279880D01*
X506000Y279805D01*
Y281500D01*
D02*
G37*
G36*
X657000Y282668D02*
Y278870D01*
X660798D01*
X660715Y279500D01*
X660279Y280552D01*
X659586Y281456D01*
X658682Y282150D01*
X657629Y282586D01*
X657000Y282668D01*
D02*
G37*
G36*
X656000D02*
X655371Y282586D01*
X654318Y282150D01*
X653414Y281456D01*
X652721Y280552D01*
X652285Y279500D01*
X652202Y278870D01*
X656000D01*
Y282668D01*
D02*
G37*
G36*
X411500Y280964D02*
Y278000D01*
X414464D01*
X414410Y278414D01*
X414057Y279265D01*
X413496Y279996D01*
X412765Y280557D01*
X411914Y280910D01*
X411500Y280964D01*
D02*
G37*
G36*
X410500D02*
X410086Y280910D01*
X409235Y280557D01*
X408504Y279996D01*
X407943Y279265D01*
X407590Y278414D01*
X407536Y278000D01*
X410500D01*
Y280964D01*
D02*
G37*
G36*
X464205Y278399D02*
Y276705D01*
X465899D01*
X465824Y277083D01*
X465327Y277827D01*
X464583Y278324D01*
X464205Y278399D01*
D02*
G37*
G36*
X463205D02*
X462827Y278324D01*
X462083Y277827D01*
X461585Y277083D01*
X461510Y276705D01*
X463205D01*
Y278399D01*
D02*
G37*
G36*
X660798Y277870D02*
X657000D01*
Y274072D01*
X657629Y274155D01*
X658682Y274591D01*
X659586Y275284D01*
X660279Y276188D01*
X660715Y277241D01*
X660798Y277870D01*
D02*
G37*
G36*
X656000D02*
X652202D01*
X652285Y277241D01*
X652721Y276188D01*
X653414Y275284D01*
X654318Y274591D01*
X655371Y274155D01*
X656000Y274072D01*
Y277870D01*
D02*
G37*
G36*
X414464Y277000D02*
X411500D01*
Y274036D01*
X411914Y274090D01*
X412765Y274443D01*
X413496Y275004D01*
X414057Y275735D01*
X414410Y276586D01*
X414464Y277000D01*
D02*
G37*
G36*
X410500D02*
X407536D01*
X407590Y276586D01*
X407943Y275735D01*
X408504Y275004D01*
X409235Y274443D01*
X410086Y274090D01*
X410500Y274036D01*
Y277000D01*
D02*
G37*
G36*
X465899Y275705D02*
X464205D01*
Y274010D01*
X464583Y274085D01*
X465327Y274583D01*
X465824Y275327D01*
X465899Y275705D01*
D02*
G37*
G36*
X463205D02*
X461510D01*
X461585Y275327D01*
X462083Y274583D01*
X462827Y274085D01*
X463205Y274010D01*
Y275705D01*
D02*
G37*
G36*
X604000Y296500D02*
X591000D01*
X590000Y295500D01*
Y268500D01*
X591000Y267500D01*
X603500D01*
X604000Y268000D01*
Y270500D01*
X605000Y271500D01*
X609000Y271500D01*
X611000Y273500D01*
X615500Y273500D01*
X616000Y274000D01*
Y276000D01*
X615500Y276500D01*
X608500D01*
X604500Y280500D01*
Y296000D01*
X604000Y296500D01*
D02*
G37*
G36*
X645319Y276795D02*
X644320Y276663D01*
X643389Y276278D01*
X642590Y275664D01*
X641976Y274865D01*
X641591Y273934D01*
X641459Y272935D01*
X641591Y271936D01*
X641976Y271005D01*
X642590Y270206D01*
X643389Y269592D01*
X644320Y269207D01*
X645319Y269075D01*
X646318Y269207D01*
X647249Y269592D01*
X648048Y270206D01*
X648662Y271005D01*
X649047Y271936D01*
X649179Y272935D01*
X649047Y273934D01*
X648662Y274865D01*
X648048Y275664D01*
X647249Y276278D01*
X646318Y276663D01*
X645319Y276795D01*
D02*
G37*
G36*
X631000Y271964D02*
Y269000D01*
X633964D01*
X633910Y269414D01*
X633557Y270265D01*
X632996Y270996D01*
X632265Y271557D01*
X631414Y271910D01*
X631000Y271964D01*
D02*
G37*
G36*
X630000D02*
X629586Y271910D01*
X628735Y271557D01*
X628004Y270996D01*
X627443Y270265D01*
X627090Y269414D01*
X627036Y269000D01*
X630000D01*
Y271964D01*
D02*
G37*
G36*
X554193Y270195D02*
Y268500D01*
X555888D01*
X555812Y268878D01*
X555315Y269622D01*
X554571Y270120D01*
X554193Y270195D01*
D02*
G37*
G36*
X553193D02*
X552815Y270120D01*
X552071Y269622D01*
X551574Y268878D01*
X551498Y268500D01*
X553193D01*
Y270195D01*
D02*
G37*
G36*
X536500Y269784D02*
X535817Y269649D01*
X535238Y269262D01*
X534852Y268683D01*
X534716Y268000D01*
X534725Y267952D01*
X534408Y267566D01*
X523893D01*
X523762Y267762D01*
X523183Y268148D01*
X522500Y268284D01*
X521817Y268148D01*
X521238Y267762D01*
X520852Y267183D01*
X520716Y266500D01*
X520852Y265817D01*
X521238Y265238D01*
X521817Y264851D01*
X522500Y264716D01*
X523183Y264851D01*
X523762Y265238D01*
X524149Y265817D01*
X524172Y265934D01*
X535250D01*
X535250Y265934D01*
X535562Y265996D01*
X535827Y266173D01*
X535974Y266320D01*
X536500Y266216D01*
X537183Y266352D01*
X537762Y266738D01*
X538148Y267317D01*
X538284Y268000D01*
X538148Y268683D01*
X537762Y269262D01*
X537183Y269649D01*
X536500Y269784D01*
D02*
G37*
G36*
X555888Y267500D02*
X554193D01*
Y265805D01*
X554571Y265880D01*
X555315Y266378D01*
X555812Y267122D01*
X555888Y267500D01*
D02*
G37*
G36*
X553193D02*
X551498D01*
X551574Y267122D01*
X552071Y266378D01*
X552815Y265880D01*
X553193Y265805D01*
Y267500D01*
D02*
G37*
G36*
X633964Y268000D02*
X631000D01*
Y265036D01*
X631414Y265090D01*
X632265Y265443D01*
X632996Y266004D01*
X633557Y266735D01*
X633910Y267586D01*
X633964Y268000D01*
D02*
G37*
G36*
X630000D02*
X627036D01*
X627090Y267586D01*
X627443Y266735D01*
X628004Y266004D01*
X628735Y265443D01*
X629586Y265090D01*
X630000Y265036D01*
Y268000D01*
D02*
G37*
G36*
X561500Y266964D02*
Y264000D01*
X564464D01*
X564410Y264414D01*
X564057Y265265D01*
X563496Y265996D01*
X562765Y266557D01*
X561914Y266910D01*
X561500Y266964D01*
D02*
G37*
G36*
X560500D02*
X560086Y266910D01*
X559235Y266557D01*
X558504Y265996D01*
X557943Y265265D01*
X557590Y264414D01*
X557536Y264000D01*
X560500D01*
Y266964D01*
D02*
G37*
G36*
X536387Y264784D02*
X535704Y264649D01*
X535125Y264262D01*
X534827Y263816D01*
X527060D01*
X526762Y264262D01*
X526183Y264649D01*
X525500Y264784D01*
X524817Y264649D01*
X524238Y264262D01*
X523851Y263683D01*
X523716Y263000D01*
X523851Y262317D01*
X524238Y261738D01*
X524817Y261351D01*
X525500Y261216D01*
X526183Y261351D01*
X526762Y261738D01*
X527060Y262184D01*
X534827D01*
X535125Y261738D01*
X535704Y261351D01*
X536387Y261216D01*
X537070Y261351D01*
X537649Y261738D01*
X538035Y262317D01*
X538171Y263000D01*
X538035Y263683D01*
X537649Y264262D01*
X537070Y264649D01*
X536387Y264784D01*
D02*
G37*
G36*
X656500Y271360D02*
X655501Y271228D01*
X654570Y270843D01*
X653771Y270229D01*
X653157Y269430D01*
X652772Y268499D01*
X652640Y267500D01*
X652772Y266501D01*
X653157Y265570D01*
X653771Y264771D01*
X654570Y264157D01*
X655501Y263772D01*
X656500Y263640D01*
X657499Y263772D01*
X658430Y264157D01*
X659229Y264771D01*
X659843Y265570D01*
X660228Y266501D01*
X660360Y267500D01*
X660228Y268499D01*
X659843Y269430D01*
X659229Y270229D01*
X658430Y270843D01*
X657499Y271228D01*
X656500Y271360D01*
D02*
G37*
G36*
X645819Y266363D02*
Y262565D01*
X649617D01*
X649534Y263194D01*
X649098Y264247D01*
X648405Y265151D01*
X647501Y265844D01*
X646448Y266280D01*
X645819Y266363D01*
D02*
G37*
G36*
X644819D02*
X644189Y266280D01*
X643137Y265844D01*
X642233Y265151D01*
X641539Y264247D01*
X641104Y263194D01*
X641021Y262565D01*
X644819D01*
Y266363D01*
D02*
G37*
G36*
X411500Y264964D02*
Y262000D01*
X414464D01*
X414410Y262414D01*
X414057Y263265D01*
X413496Y263996D01*
X412765Y264557D01*
X411914Y264910D01*
X411500Y264964D01*
D02*
G37*
G36*
X410500D02*
X410086Y264910D01*
X409235Y264557D01*
X408504Y263996D01*
X407943Y263265D01*
X407590Y262414D01*
X407536Y262000D01*
X410500D01*
Y264964D01*
D02*
G37*
G36*
X564464Y263000D02*
X561500D01*
Y260036D01*
X561914Y260090D01*
X562765Y260443D01*
X563496Y261004D01*
X564057Y261735D01*
X564410Y262586D01*
X564464Y263000D01*
D02*
G37*
G36*
X560500D02*
X557536D01*
X557590Y262586D01*
X557943Y261735D01*
X558504Y261004D01*
X559235Y260443D01*
X560086Y260090D01*
X560500Y260036D01*
Y263000D01*
D02*
G37*
G36*
X505000Y260784D02*
X504317Y260648D01*
X503738Y260262D01*
X503440Y259816D01*
X495060D01*
X494762Y260262D01*
X494183Y260648D01*
X493500Y260784D01*
X492817Y260648D01*
X492238Y260262D01*
X491852Y259683D01*
X491716Y259000D01*
X491852Y258317D01*
X492238Y257738D01*
X492817Y257351D01*
X493500Y257216D01*
X494183Y257351D01*
X494762Y257738D01*
X495060Y258184D01*
X503440D01*
X503738Y257738D01*
X504317Y257351D01*
X505000Y257216D01*
X505683Y257351D01*
X506262Y257738D01*
X506648Y258317D01*
X506784Y259000D01*
X506648Y259683D01*
X506262Y260262D01*
X505683Y260648D01*
X505000Y260784D01*
D02*
G37*
G36*
X414464Y261000D02*
X411500D01*
Y258036D01*
X411914Y258090D01*
X412765Y258443D01*
X413496Y259004D01*
X414057Y259735D01*
X414410Y260586D01*
X414464Y261000D01*
D02*
G37*
G36*
X410500D02*
X407536D01*
X407590Y260586D01*
X407943Y259735D01*
X408504Y259004D01*
X409235Y258443D01*
X410086Y258090D01*
X410500Y258036D01*
Y261000D01*
D02*
G37*
G36*
X649617Y261565D02*
X645819D01*
Y257767D01*
X646448Y257850D01*
X647501Y258285D01*
X648405Y258979D01*
X649098Y259883D01*
X649534Y260935D01*
X649617Y261565D01*
D02*
G37*
G36*
X644819D02*
X641021D01*
X641104Y260935D01*
X641539Y259883D01*
X642233Y258979D01*
X643137Y258285D01*
X644189Y257850D01*
X644819Y257767D01*
Y261565D01*
D02*
G37*
G36*
X526000Y260784D02*
X525317Y260648D01*
X524738Y260262D01*
X524352Y259683D01*
X524216Y259000D01*
X524352Y258317D01*
X524738Y257738D01*
X525317Y257351D01*
X526000Y257216D01*
X526683Y257351D01*
X527181Y257684D01*
X534940D01*
X535238Y257238D01*
X535817Y256852D01*
X536500Y256716D01*
X537183Y256852D01*
X537762Y257238D01*
X538148Y257817D01*
X538284Y258500D01*
X538148Y259183D01*
X537762Y259762D01*
X537183Y260149D01*
X536500Y260284D01*
X535817Y260149D01*
X535238Y259762D01*
X534940Y259316D01*
X527722D01*
X527648Y259683D01*
X527262Y260262D01*
X526683Y260648D01*
X526000Y260784D01*
D02*
G37*
G36*
X536062Y256034D02*
X535380Y255898D01*
X534801Y255512D01*
X534503Y255066D01*
X527560D01*
X527262Y255512D01*
X526683Y255898D01*
X526000Y256034D01*
X525317Y255898D01*
X524738Y255512D01*
X524352Y254933D01*
X524216Y254250D01*
X524352Y253567D01*
X524738Y252988D01*
X525317Y252602D01*
X526000Y252466D01*
X526683Y252602D01*
X527262Y252988D01*
X527560Y253434D01*
X534503D01*
X534801Y252988D01*
X535380Y252602D01*
X536062Y252466D01*
X536745Y252602D01*
X537324Y252988D01*
X537711Y253567D01*
X537847Y254250D01*
X537711Y254933D01*
X537324Y255512D01*
X536745Y255898D01*
X536062Y256034D01*
D02*
G37*
G36*
X656500Y260490D02*
X655501Y260358D01*
X654570Y259973D01*
X653771Y259359D01*
X653157Y258560D01*
X652772Y257629D01*
X652640Y256630D01*
X652772Y255631D01*
X653157Y254700D01*
X653771Y253901D01*
X654570Y253287D01*
X655501Y252902D01*
X656500Y252770D01*
X657499Y252902D01*
X658430Y253287D01*
X659229Y253901D01*
X659843Y254700D01*
X660228Y255631D01*
X660360Y256630D01*
X660228Y257629D01*
X659843Y258560D01*
X659229Y259359D01*
X658430Y259973D01*
X657499Y260358D01*
X656500Y260490D01*
D02*
G37*
G36*
X492738Y256034D02*
X492056Y255898D01*
X491477Y255512D01*
X491090Y254933D01*
X490954Y254250D01*
X491090Y253567D01*
X491477Y252988D01*
X492056Y252602D01*
X492738Y252466D01*
X493421Y252602D01*
X494000Y252988D01*
X494298Y253434D01*
X504328D01*
X504352Y253317D01*
X504738Y252738D01*
X505317Y252351D01*
X506000Y252216D01*
X506683Y252351D01*
X507262Y252738D01*
X507649Y253317D01*
X507784Y254000D01*
X507649Y254683D01*
X507262Y255262D01*
X506683Y255648D01*
X506000Y255784D01*
X505317Y255648D01*
X504738Y255262D01*
X504607Y255066D01*
X494298D01*
X494000Y255512D01*
X493421Y255898D01*
X492738Y256034D01*
D02*
G37*
G36*
X645319Y255055D02*
X644320Y254923D01*
X643389Y254538D01*
X642590Y253924D01*
X641976Y253125D01*
X641591Y252194D01*
X641459Y251195D01*
X641591Y250196D01*
X641976Y249265D01*
X642590Y248466D01*
X643389Y247852D01*
X644320Y247467D01*
X645319Y247335D01*
X646318Y247467D01*
X647249Y247852D01*
X648048Y248466D01*
X648662Y249265D01*
X649047Y250196D01*
X649179Y251195D01*
X649047Y252194D01*
X648662Y253125D01*
X648048Y253924D01*
X647249Y254538D01*
X646318Y254923D01*
X645319Y255055D01*
D02*
G37*
G36*
X513000Y248348D02*
Y246654D01*
X514695D01*
X514619Y247031D01*
X514122Y247776D01*
X513378Y248273D01*
X513000Y248348D01*
D02*
G37*
G36*
X512000D02*
X511622Y248273D01*
X510878Y247776D01*
X510381Y247031D01*
X510305Y246654D01*
X512000D01*
Y248348D01*
D02*
G37*
G36*
X412000Y248464D02*
Y245500D01*
X414964D01*
X414910Y245914D01*
X414557Y246765D01*
X413996Y247496D01*
X413265Y248057D01*
X412414Y248410D01*
X412000Y248464D01*
D02*
G37*
G36*
X411000D02*
X410586Y248410D01*
X409735Y248057D01*
X409004Y247496D01*
X408443Y246765D01*
X408090Y245914D01*
X408036Y245500D01*
X411000D01*
Y248464D01*
D02*
G37*
G36*
X433500Y247464D02*
Y244500D01*
X436464D01*
X436410Y244914D01*
X436057Y245765D01*
X435496Y246496D01*
X434765Y247057D01*
X433914Y247410D01*
X433500Y247464D01*
D02*
G37*
G36*
X432500D02*
X432086Y247410D01*
X431235Y247057D01*
X430504Y246496D01*
X429943Y245765D01*
X429590Y244914D01*
X429536Y244500D01*
X432500D01*
Y247464D01*
D02*
G37*
G36*
X514695Y245654D02*
X513000D01*
Y243959D01*
X513378Y244034D01*
X514122Y244531D01*
X514619Y245276D01*
X514695Y245654D01*
D02*
G37*
G36*
X512000D02*
X510305D01*
X510381Y245276D01*
X510878Y244531D01*
X511622Y244034D01*
X512000Y243959D01*
Y245654D01*
D02*
G37*
G36*
X520000Y244848D02*
Y243154D01*
X521695D01*
X521619Y243531D01*
X521122Y244276D01*
X520378Y244773D01*
X520000Y244848D01*
D02*
G37*
G36*
X519000D02*
X518622Y244773D01*
X517878Y244276D01*
X517381Y243531D01*
X517305Y243154D01*
X519000D01*
Y244848D01*
D02*
G37*
G36*
X489795Y243990D02*
Y242295D01*
X491490D01*
X491415Y242673D01*
X490917Y243417D01*
X490173Y243915D01*
X489795Y243990D01*
D02*
G37*
G36*
X488795D02*
X488417Y243915D01*
X487673Y243417D01*
X487176Y242673D01*
X487101Y242295D01*
X488795D01*
Y243990D01*
D02*
G37*
G36*
X460000Y245784D02*
X459317Y245649D01*
X458738Y245262D01*
X458352Y244683D01*
X458216Y244000D01*
X458320Y243474D01*
X457223Y242377D01*
X457046Y242112D01*
X456984Y241800D01*
X456984Y241800D01*
Y240360D01*
X456538Y240062D01*
X456151Y239483D01*
X456016Y238800D01*
X456151Y238117D01*
X456538Y237538D01*
X457117Y237152D01*
X457800Y237016D01*
X458483Y237152D01*
X459062Y237538D01*
X459448Y238117D01*
X459584Y238800D01*
X459448Y239483D01*
X459062Y240062D01*
X458616Y240360D01*
Y241462D01*
X459474Y242320D01*
X460000Y242216D01*
X460683Y242352D01*
X461262Y242738D01*
X461649Y243317D01*
X461784Y244000D01*
X461649Y244683D01*
X461262Y245262D01*
X460683Y245649D01*
X460000Y245784D01*
D02*
G37*
G36*
X656500Y249620D02*
X655501Y249488D01*
X654570Y249102D01*
X653771Y248489D01*
X653157Y247690D01*
X652772Y246759D01*
X652640Y245760D01*
X652772Y244761D01*
X653157Y243830D01*
X653771Y243031D01*
X654570Y242417D01*
X655501Y242032D01*
X656500Y241900D01*
X657499Y242032D01*
X658430Y242417D01*
X659229Y243031D01*
X659843Y243830D01*
X660228Y244761D01*
X660360Y245760D01*
X660228Y246759D01*
X659843Y247690D01*
X659229Y248489D01*
X658430Y249102D01*
X657499Y249488D01*
X656500Y249620D01*
D02*
G37*
G36*
X414964Y244500D02*
X412000D01*
Y241536D01*
X412414Y241590D01*
X413265Y241943D01*
X413996Y242504D01*
X414557Y243235D01*
X414910Y244086D01*
X414964Y244500D01*
D02*
G37*
G36*
X411000D02*
X408036D01*
X408090Y244086D01*
X408443Y243235D01*
X409004Y242504D01*
X409735Y241943D01*
X410586Y241590D01*
X411000Y241536D01*
Y244500D01*
D02*
G37*
G36*
X436464Y243500D02*
X433500D01*
Y240536D01*
X433914Y240590D01*
X434765Y240943D01*
X435496Y241504D01*
X436057Y242235D01*
X436410Y243086D01*
X436464Y243500D01*
D02*
G37*
G36*
X432500D02*
X429536D01*
X429590Y243086D01*
X429943Y242235D01*
X430504Y241504D01*
X431235Y240943D01*
X432086Y240590D01*
X432500Y240536D01*
Y243500D01*
D02*
G37*
G36*
X521695Y242154D02*
X520000D01*
Y240459D01*
X520378Y240534D01*
X521122Y241031D01*
X521619Y241776D01*
X521695Y242154D01*
D02*
G37*
G36*
X519000D02*
X517305D01*
X517381Y241776D01*
X517878Y241031D01*
X518622Y240534D01*
X519000Y240459D01*
Y242154D01*
D02*
G37*
G36*
X491490Y241295D02*
X489795D01*
Y239601D01*
X490173Y239676D01*
X490917Y240173D01*
X491415Y240917D01*
X491490Y241295D01*
D02*
G37*
G36*
X488795D02*
X487101D01*
X487176Y240917D01*
X487673Y240173D01*
X488417Y239676D01*
X488795Y239601D01*
Y241295D01*
D02*
G37*
G36*
X645319Y244185D02*
X644320Y244053D01*
X643389Y243668D01*
X642590Y243054D01*
X641976Y242255D01*
X641591Y241324D01*
X641459Y240325D01*
X641591Y239326D01*
X641976Y238395D01*
X642590Y237596D01*
X643389Y236982D01*
X644320Y236596D01*
X645319Y236465D01*
X646318Y236596D01*
X647249Y236982D01*
X648048Y237596D01*
X648662Y238395D01*
X649047Y239326D01*
X649179Y240325D01*
X649047Y241324D01*
X648662Y242255D01*
X648048Y243054D01*
X647249Y243668D01*
X646318Y244053D01*
X645319Y244185D01*
D02*
G37*
G36*
X657000Y239188D02*
Y235390D01*
X660798D01*
X660715Y236019D01*
X660279Y237072D01*
X659586Y237976D01*
X658682Y238669D01*
X657629Y239105D01*
X657000Y239188D01*
D02*
G37*
G36*
X656000D02*
X655371Y239105D01*
X654318Y238669D01*
X653414Y237976D01*
X652721Y237072D01*
X652285Y236019D01*
X652202Y235390D01*
X656000D01*
Y239188D01*
D02*
G37*
G36*
X660798Y234390D02*
X657000D01*
Y230592D01*
X657629Y230674D01*
X658682Y231110D01*
X659586Y231804D01*
X660279Y232708D01*
X660715Y233760D01*
X660798Y234390D01*
D02*
G37*
G36*
X656000D02*
X652202D01*
X652285Y233760D01*
X652721Y232708D01*
X653414Y231804D01*
X654318Y231110D01*
X655371Y230674D01*
X656000Y230592D01*
Y234390D01*
D02*
G37*
G36*
X645319Y233314D02*
X644320Y233183D01*
X643389Y232797D01*
X642590Y232184D01*
X641976Y231385D01*
X641591Y230454D01*
X641459Y229455D01*
X641591Y228456D01*
X641976Y227525D01*
X642590Y226725D01*
X643389Y226112D01*
X644320Y225727D01*
X645319Y225595D01*
X646318Y225727D01*
X647249Y226112D01*
X648048Y226725D01*
X648662Y227525D01*
X649047Y228456D01*
X649179Y229455D01*
X649047Y230454D01*
X648662Y231385D01*
X648048Y232184D01*
X647249Y232797D01*
X646318Y233183D01*
X645319Y233314D01*
D02*
G37*
G36*
X483500Y225695D02*
Y224000D01*
X485195D01*
X485119Y224378D01*
X484622Y225122D01*
X483878Y225620D01*
X483500Y225695D01*
D02*
G37*
G36*
X482500D02*
X482122Y225620D01*
X481378Y225122D01*
X480881Y224378D01*
X480805Y224000D01*
X482500D01*
Y225695D01*
D02*
G37*
G36*
X498500Y225195D02*
Y223500D01*
X500195D01*
X500119Y223878D01*
X499622Y224622D01*
X498878Y225119D01*
X498500Y225195D01*
D02*
G37*
G36*
X497500D02*
X497122Y225119D01*
X496378Y224622D01*
X495881Y223878D01*
X495805Y223500D01*
X497500D01*
Y225195D01*
D02*
G37*
G36*
X485195Y223000D02*
X483500D01*
Y221305D01*
X483878Y221380D01*
X484622Y221878D01*
X485119Y222622D01*
X485195Y223000D01*
D02*
G37*
G36*
X482500D02*
X480805D01*
X480881Y222622D01*
X481378Y221878D01*
X481716Y221652D01*
X481521Y221181D01*
X481000Y221284D01*
X480317Y221148D01*
X479738Y220762D01*
X479440Y220316D01*
X476560D01*
X476262Y220762D01*
X475683Y221148D01*
X475000Y221284D01*
X474317Y221148D01*
X473738Y220762D01*
X473351Y220183D01*
X473216Y219500D01*
X473351Y218817D01*
X473738Y218238D01*
X474317Y217851D01*
X475000Y217716D01*
X475683Y217851D01*
X476262Y218238D01*
X476560Y218684D01*
X479440D01*
X479738Y218238D01*
X480317Y217851D01*
X481000Y217716D01*
X481683Y217851D01*
X482262Y218238D01*
X482649Y218817D01*
X482784Y219500D01*
X482649Y220183D01*
X482262Y220762D01*
X482088Y220877D01*
X482283Y221348D01*
X482500Y221305D01*
Y223000D01*
D02*
G37*
G36*
X500195Y222500D02*
X498500D01*
Y220805D01*
X498878Y220881D01*
X499622Y221378D01*
X500119Y222122D01*
X500195Y222500D01*
D02*
G37*
G36*
X497500D02*
X495805D01*
X495881Y222122D01*
X496378Y221378D01*
X497122Y220881D01*
X497500Y220805D01*
Y222500D01*
D02*
G37*
G36*
X656500Y227880D02*
X655501Y227748D01*
X654570Y227362D01*
X653771Y226749D01*
X653157Y225950D01*
X652772Y225019D01*
X652640Y224020D01*
X652772Y223021D01*
X653157Y222090D01*
X653771Y221290D01*
X654570Y220677D01*
X655501Y220291D01*
X656500Y220160D01*
X657499Y220291D01*
X658430Y220677D01*
X659229Y221290D01*
X659843Y222090D01*
X660228Y223021D01*
X660360Y224020D01*
X660228Y225019D01*
X659843Y225950D01*
X659229Y226749D01*
X658430Y227362D01*
X657499Y227748D01*
X656500Y227880D01*
D02*
G37*
G36*
X461000Y218784D02*
X460317Y218649D01*
X459738Y218262D01*
X459351Y217683D01*
X459216Y217000D01*
X459351Y216317D01*
X459738Y215738D01*
X460317Y215352D01*
X461000Y215216D01*
X461683Y215352D01*
X462262Y215738D01*
X462560Y216184D01*
X465213D01*
X465214Y216180D01*
X465601Y215601D01*
X466180Y215214D01*
X466862Y215078D01*
X467545Y215214D01*
X468124Y215601D01*
X468511Y216180D01*
X468647Y216863D01*
X468511Y217545D01*
X468124Y218124D01*
X467545Y218511D01*
X466862Y218647D01*
X466180Y218511D01*
X465601Y218124D01*
X465395Y217816D01*
X462560D01*
X462262Y218262D01*
X461683Y218649D01*
X461000Y218784D01*
D02*
G37*
G36*
X645319Y222444D02*
X644320Y222313D01*
X643389Y221927D01*
X642590Y221314D01*
X641976Y220514D01*
X641591Y219584D01*
X641459Y218585D01*
X641591Y217586D01*
X641976Y216655D01*
X642590Y215855D01*
X643389Y215242D01*
X644320Y214856D01*
X645319Y214725D01*
X646318Y214856D01*
X647249Y215242D01*
X648048Y215855D01*
X648662Y216655D01*
X649047Y217586D01*
X649179Y218585D01*
X649047Y219584D01*
X648662Y220514D01*
X648048Y221314D01*
X647249Y221927D01*
X646318Y222313D01*
X645319Y222444D01*
D02*
G37*
G36*
X612713Y217586D02*
Y214622D01*
X615677D01*
X615623Y215036D01*
X615270Y215887D01*
X614709Y216618D01*
X613978Y217179D01*
X613126Y217532D01*
X612713Y217586D01*
D02*
G37*
G36*
X611713D02*
X611299Y217532D01*
X610448Y217179D01*
X609716Y216618D01*
X609155Y215887D01*
X608803Y215036D01*
X608748Y214622D01*
X611713D01*
Y217586D01*
D02*
G37*
G36*
X541847Y215695D02*
Y214000D01*
X543541D01*
X543466Y214378D01*
X542969Y215122D01*
X542224Y215619D01*
X541847Y215695D01*
D02*
G37*
G36*
X540846D02*
X540469Y215619D01*
X539724Y215122D01*
X539227Y214378D01*
X539152Y214000D01*
X540846D01*
Y215695D01*
D02*
G37*
G36*
X412000Y215464D02*
Y212500D01*
X414964D01*
X414910Y212914D01*
X414557Y213765D01*
X413996Y214496D01*
X413265Y215057D01*
X412414Y215410D01*
X412000Y215464D01*
D02*
G37*
G36*
X411000D02*
X410586Y215410D01*
X409735Y215057D01*
X409004Y214496D01*
X408443Y213765D01*
X408090Y212914D01*
X408036Y212500D01*
X411000D01*
Y215464D01*
D02*
G37*
G36*
X615677Y213622D02*
X612713D01*
Y210658D01*
X613126Y210712D01*
X613978Y211065D01*
X614709Y211626D01*
X615270Y212357D01*
X615623Y213208D01*
X615677Y213622D01*
D02*
G37*
G36*
X611713D02*
X608748D01*
X608803Y213208D01*
X609155Y212357D01*
X609716Y211626D01*
X610448Y211065D01*
X611299Y210712D01*
X611713Y210658D01*
Y213622D01*
D02*
G37*
G36*
X656500Y217009D02*
X655501Y216878D01*
X654570Y216492D01*
X653771Y215879D01*
X653157Y215079D01*
X652772Y214149D01*
X652640Y213150D01*
X652772Y212151D01*
X653157Y211220D01*
X653771Y210420D01*
X654570Y209807D01*
X655501Y209421D01*
X656500Y209290D01*
X657499Y209421D01*
X658430Y209807D01*
X659229Y210420D01*
X659843Y211220D01*
X660228Y212151D01*
X660360Y213150D01*
X660228Y214149D01*
X659843Y215079D01*
X659229Y215879D01*
X658430Y216492D01*
X657499Y216878D01*
X656500Y217009D01*
D02*
G37*
G36*
X414964Y211500D02*
X412000D01*
Y208536D01*
X412414Y208590D01*
X413265Y208943D01*
X413996Y209504D01*
X414557Y210235D01*
X414910Y211086D01*
X414964Y211500D01*
D02*
G37*
G36*
X411000D02*
X408036D01*
X408090Y211086D01*
X408443Y210235D01*
X409004Y209504D01*
X409735Y208943D01*
X410586Y208590D01*
X411000Y208536D01*
Y211500D01*
D02*
G37*
G36*
X543541Y213000D02*
X539152D01*
X539227Y212622D01*
X539724Y211878D01*
X540469Y211381D01*
X540475Y211379D01*
X540506Y211251D01*
X540484Y210868D01*
X539735Y210557D01*
X539004Y209996D01*
X538443Y209265D01*
X538090Y208414D01*
X538036Y208000D01*
X544964D01*
X544910Y208414D01*
X544557Y209265D01*
X543996Y209996D01*
X543265Y210557D01*
X542414Y210910D01*
X542362Y210917D01*
X542300Y211127D01*
X542298Y211430D01*
X542969Y211878D01*
X543466Y212622D01*
X543541Y213000D01*
D02*
G37*
G36*
X544964Y207000D02*
X542000D01*
Y204036D01*
X542414Y204090D01*
X543265Y204443D01*
X543996Y205004D01*
X544557Y205735D01*
X544910Y206586D01*
X544964Y207000D01*
D02*
G37*
G36*
X541000D02*
X538036D01*
X538090Y206586D01*
X538443Y205735D01*
X539004Y205004D01*
X539735Y204443D01*
X540586Y204090D01*
X541000Y204036D01*
Y207000D01*
D02*
G37*
G36*
X399500Y206964D02*
Y204000D01*
X402464D01*
X402410Y204414D01*
X402057Y205265D01*
X401496Y205996D01*
X400765Y206557D01*
X399914Y206910D01*
X399500Y206964D01*
D02*
G37*
G36*
X398500D02*
X398086Y206910D01*
X397235Y206557D01*
X396504Y205996D01*
X395943Y205265D01*
X395590Y204414D01*
X395536Y204000D01*
X398500D01*
Y206964D01*
D02*
G37*
G36*
X645319Y211574D02*
X644320Y211443D01*
X643389Y211057D01*
X642590Y210444D01*
X641976Y209645D01*
X641591Y208714D01*
X641459Y207715D01*
X641591Y206716D01*
X641976Y205785D01*
X642590Y204985D01*
X643389Y204372D01*
X644320Y203986D01*
X645319Y203855D01*
X646318Y203986D01*
X647249Y204372D01*
X648048Y204985D01*
X648662Y205785D01*
X649047Y206716D01*
X649179Y207715D01*
X649047Y208714D01*
X648662Y209645D01*
X648048Y210444D01*
X647249Y211057D01*
X646318Y211443D01*
X645319Y211574D01*
D02*
G37*
G36*
X657000Y206578D02*
Y202780D01*
X660798D01*
X660715Y203409D01*
X660279Y204462D01*
X659586Y205365D01*
X658682Y206059D01*
X657629Y206495D01*
X657000Y206578D01*
D02*
G37*
G36*
X656000D02*
X655371Y206495D01*
X654318Y206059D01*
X653414Y205365D01*
X652721Y204462D01*
X652285Y203409D01*
X652202Y202780D01*
X656000D01*
Y206578D01*
D02*
G37*
G36*
X504153Y204002D02*
Y202307D01*
X505848D01*
X505773Y202685D01*
X505276Y203429D01*
X504531Y203926D01*
X504153Y204002D01*
D02*
G37*
G36*
X503154D02*
X502776Y203926D01*
X502031Y203429D01*
X501534Y202685D01*
X501459Y202307D01*
X503154D01*
Y204002D01*
D02*
G37*
G36*
X449303Y208329D02*
X448520Y208226D01*
X447790Y207924D01*
X447163Y207443D01*
X446683Y206816D01*
X446380Y206086D01*
X446277Y205303D01*
X446380Y204520D01*
X446683Y203790D01*
X447163Y203164D01*
X447790Y202683D01*
X448520Y202380D01*
X449303Y202277D01*
X450086Y202380D01*
X450816Y202683D01*
X451443Y203164D01*
X451924Y203790D01*
X452226Y204520D01*
X452329Y205303D01*
X452226Y206086D01*
X451924Y206816D01*
X451443Y207443D01*
X450816Y207924D01*
X450086Y208226D01*
X449303Y208329D01*
D02*
G37*
G36*
X411547Y207979D02*
X410764Y207876D01*
X410034Y207573D01*
X409408Y207092D01*
X408927Y206466D01*
X408625Y205736D01*
X408521Y204953D01*
X408625Y204170D01*
X408927Y203440D01*
X409408Y202813D01*
X410034Y202332D01*
X410764Y202030D01*
X411547Y201927D01*
X412330Y202030D01*
X413060Y202332D01*
X413687Y202813D01*
X414168Y203440D01*
X414470Y204170D01*
X414573Y204953D01*
X414470Y205736D01*
X414168Y206466D01*
X413687Y207092D01*
X413060Y207573D01*
X412330Y207876D01*
X411547Y207979D01*
D02*
G37*
G36*
X492000Y202348D02*
Y200654D01*
X493695D01*
X493619Y201031D01*
X493122Y201776D01*
X492378Y202273D01*
X492000Y202348D01*
D02*
G37*
G36*
X491000D02*
X490622Y202273D01*
X489878Y201776D01*
X489381Y201031D01*
X489305Y200654D01*
X491000D01*
Y202348D01*
D02*
G37*
G36*
X402464Y203000D02*
X399500D01*
Y200036D01*
X399914Y200090D01*
X400765Y200443D01*
X401496Y201004D01*
X402057Y201735D01*
X402410Y202586D01*
X402464Y203000D01*
D02*
G37*
G36*
X398500D02*
X395536D01*
X395590Y202586D01*
X395943Y201735D01*
X396504Y201004D01*
X397235Y200443D01*
X398086Y200090D01*
X398500Y200036D01*
Y203000D01*
D02*
G37*
G36*
X505848Y201307D02*
X504153D01*
Y199612D01*
X504531Y199688D01*
X505276Y200185D01*
X505773Y200929D01*
X505848Y201307D01*
D02*
G37*
G36*
X503154D02*
X501459D01*
X501534Y200929D01*
X502031Y200185D01*
X502776Y199688D01*
X503154Y199612D01*
Y201307D01*
D02*
G37*
G36*
X624500Y201464D02*
Y198500D01*
X627464D01*
X627410Y198914D01*
X627057Y199765D01*
X626496Y200496D01*
X625765Y201057D01*
X624914Y201410D01*
X624500Y201464D01*
D02*
G37*
G36*
X623500D02*
X623086Y201410D01*
X622235Y201057D01*
X621504Y200496D01*
X620943Y199765D01*
X620590Y198914D01*
X620536Y198500D01*
X623500D01*
Y201464D01*
D02*
G37*
G36*
X437500Y200964D02*
Y198000D01*
X440464D01*
X440410Y198414D01*
X440057Y199265D01*
X439496Y199996D01*
X438765Y200557D01*
X437914Y200910D01*
X437500Y200964D01*
D02*
G37*
G36*
X436500D02*
X436086Y200910D01*
X435235Y200557D01*
X434504Y199996D01*
X433943Y199265D01*
X433590Y198414D01*
X433536Y198000D01*
X436500D01*
Y200964D01*
D02*
G37*
G36*
X660798Y201780D02*
X657000D01*
Y197981D01*
X657629Y198064D01*
X658682Y198500D01*
X659586Y199194D01*
X660279Y200097D01*
X660715Y201150D01*
X660798Y201780D01*
D02*
G37*
G36*
X656000D02*
X652202D01*
X652285Y201150D01*
X652721Y200097D01*
X653414Y199194D01*
X654318Y198500D01*
X655371Y198064D01*
X656000Y197981D01*
Y201780D01*
D02*
G37*
G36*
X493695Y199653D02*
X492000D01*
Y197959D01*
X492378Y198034D01*
X493122Y198531D01*
X493619Y199276D01*
X493695Y199653D01*
D02*
G37*
G36*
X491000D02*
X489305D01*
X489381Y199276D01*
X489878Y198531D01*
X490622Y198034D01*
X491000Y197959D01*
Y199653D01*
D02*
G37*
G36*
X627464Y197500D02*
X624500D01*
Y194536D01*
X624914Y194590D01*
X625765Y194943D01*
X626496Y195504D01*
X627057Y196235D01*
X627410Y197086D01*
X627464Y197500D01*
D02*
G37*
G36*
X623500D02*
X620536D01*
X620590Y197086D01*
X620943Y196235D01*
X621504Y195504D01*
X622235Y194943D01*
X623086Y194590D01*
X623500Y194536D01*
Y197500D01*
D02*
G37*
G36*
X440464Y197000D02*
X437500D01*
Y194036D01*
X437914Y194090D01*
X438765Y194443D01*
X439496Y195004D01*
X440057Y195735D01*
X440410Y196586D01*
X440464Y197000D01*
D02*
G37*
G36*
X436500D02*
X433536D01*
X433590Y196586D01*
X433943Y195735D01*
X434504Y195004D01*
X435235Y194443D01*
X436086Y194090D01*
X436500Y194036D01*
Y197000D01*
D02*
G37*
G36*
X645319Y200704D02*
X644320Y200573D01*
X643389Y200187D01*
X642590Y199574D01*
X641976Y198774D01*
X641591Y197844D01*
X641459Y196844D01*
X641591Y195845D01*
X641976Y194915D01*
X642590Y194115D01*
X643389Y193502D01*
X644320Y193116D01*
X645319Y192985D01*
X646318Y193116D01*
X647249Y193502D01*
X648048Y194115D01*
X648662Y194915D01*
X649047Y195845D01*
X649179Y196844D01*
X649047Y197844D01*
X648662Y198774D01*
X648048Y199574D01*
X647249Y200187D01*
X646318Y200573D01*
X645319Y200704D01*
D02*
G37*
G36*
X542000Y193464D02*
Y190500D01*
X544964D01*
X544910Y190914D01*
X544557Y191765D01*
X543996Y192496D01*
X543265Y193057D01*
X542414Y193410D01*
X542000Y193464D01*
D02*
G37*
G36*
X541000D02*
X540586Y193410D01*
X539735Y193057D01*
X539004Y192496D01*
X538443Y191765D01*
X538090Y190914D01*
X538036Y190500D01*
X541000D01*
Y193464D01*
D02*
G37*
G36*
X656500Y195269D02*
X655501Y195138D01*
X654570Y194752D01*
X653771Y194139D01*
X653157Y193339D01*
X652772Y192408D01*
X652640Y191409D01*
X652772Y190410D01*
X653157Y189479D01*
X653771Y188680D01*
X654570Y188067D01*
X655501Y187681D01*
X656500Y187550D01*
X657499Y187681D01*
X658430Y188067D01*
X659229Y188680D01*
X659843Y189479D01*
X660228Y190410D01*
X660360Y191409D01*
X660228Y192408D01*
X659843Y193339D01*
X659229Y194139D01*
X658430Y194752D01*
X657499Y195138D01*
X656500Y195269D01*
D02*
G37*
G36*
X544964Y189500D02*
X542000D01*
Y186536D01*
X542414Y186590D01*
X543265Y186943D01*
X543996Y187504D01*
X544557Y188235D01*
X544910Y189086D01*
X544964Y189500D01*
D02*
G37*
G36*
X541000D02*
X538036D01*
X538090Y189086D01*
X538443Y188235D01*
X539004Y187504D01*
X539735Y186943D01*
X540586Y186590D01*
X541000Y186536D01*
Y189500D01*
D02*
G37*
G36*
X645819Y190273D02*
Y186474D01*
X649617D01*
X649534Y187104D01*
X649098Y188156D01*
X648405Y189060D01*
X647501Y189754D01*
X646448Y190190D01*
X645819Y190273D01*
D02*
G37*
G36*
X644819D02*
X644189Y190190D01*
X643137Y189754D01*
X642233Y189060D01*
X641539Y188156D01*
X641104Y187104D01*
X641021Y186474D01*
X644819D01*
Y190273D01*
D02*
G37*
G36*
X649617Y185474D02*
X645819D01*
Y181676D01*
X646448Y181759D01*
X647501Y182195D01*
X648405Y182888D01*
X649098Y183792D01*
X649534Y184845D01*
X649617Y185474D01*
D02*
G37*
G36*
X644819D02*
X641021D01*
X641104Y184845D01*
X641539Y183792D01*
X642233Y182888D01*
X643137Y182195D01*
X644189Y181759D01*
X644819Y181676D01*
Y185474D01*
D02*
G37*
G36*
X610000Y181964D02*
Y179000D01*
X612964D01*
X612910Y179414D01*
X612557Y180265D01*
X611996Y180996D01*
X611265Y181557D01*
X610414Y181910D01*
X610000Y181964D01*
D02*
G37*
G36*
X609000D02*
X608586Y181910D01*
X607735Y181557D01*
X607004Y180996D01*
X606443Y180265D01*
X606090Y179414D01*
X606036Y179000D01*
X609000D01*
Y181964D01*
D02*
G37*
G36*
X599000D02*
Y179000D01*
X601964D01*
X601910Y179414D01*
X601557Y180265D01*
X600996Y180996D01*
X600265Y181557D01*
X599414Y181910D01*
X599000Y181964D01*
D02*
G37*
G36*
X598000D02*
X597586Y181910D01*
X596735Y181557D01*
X596004Y180996D01*
X595443Y180265D01*
X595090Y179414D01*
X595036Y179000D01*
X598000D01*
Y181964D01*
D02*
G37*
G36*
X612964Y178000D02*
X610000D01*
Y175036D01*
X610414Y175090D01*
X611265Y175443D01*
X611996Y176004D01*
X612557Y176735D01*
X612910Y177586D01*
X612964Y178000D01*
D02*
G37*
G36*
X609000D02*
X606036D01*
X606090Y177586D01*
X606443Y176735D01*
X607004Y176004D01*
X607735Y175443D01*
X608586Y175090D01*
X609000Y175036D01*
Y178000D01*
D02*
G37*
G36*
X601964D02*
X599000D01*
Y175036D01*
X599414Y175090D01*
X600265Y175443D01*
X600996Y176004D01*
X601557Y176735D01*
X601910Y177586D01*
X601964Y178000D01*
D02*
G37*
G36*
X598000D02*
X595036D01*
X595090Y177586D01*
X595443Y176735D01*
X596004Y176004D01*
X596735Y175443D01*
X597586Y175090D01*
X598000Y175036D01*
Y178000D01*
D02*
G37*
G36*
X620000Y174964D02*
Y172000D01*
X622964D01*
X622910Y172414D01*
X622557Y173265D01*
X621996Y173996D01*
X621265Y174557D01*
X620414Y174910D01*
X620000Y174964D01*
D02*
G37*
G36*
X619000D02*
X618586Y174910D01*
X617735Y174557D01*
X617004Y173996D01*
X616443Y173265D01*
X616090Y172414D01*
X616036Y172000D01*
X619000D01*
Y174964D01*
D02*
G37*
G36*
X541876Y171687D02*
Y168722D01*
X544840D01*
X544786Y169136D01*
X544433Y169988D01*
X543872Y170719D01*
X543141Y171280D01*
X542290Y171632D01*
X541876Y171687D01*
D02*
G37*
G36*
X540876D02*
X540462Y171632D01*
X539611Y171280D01*
X538880Y170719D01*
X538319Y169988D01*
X537966Y169136D01*
X537912Y168722D01*
X540876D01*
Y171687D01*
D02*
G37*
G36*
X622964Y171000D02*
X620000D01*
Y168036D01*
X620414Y168090D01*
X621265Y168443D01*
X621996Y169004D01*
X622557Y169735D01*
X622910Y170586D01*
X622964Y171000D01*
D02*
G37*
G36*
X619000D02*
X616036D01*
X616090Y170586D01*
X616443Y169735D01*
X617004Y169004D01*
X617735Y168443D01*
X618586Y168090D01*
X619000Y168036D01*
Y171000D01*
D02*
G37*
G36*
X397000Y169964D02*
Y167000D01*
X399964D01*
X399910Y167414D01*
X399557Y168265D01*
X398996Y168996D01*
X398265Y169557D01*
X397414Y169910D01*
X397000Y169964D01*
D02*
G37*
G36*
X396000D02*
X395586Y169910D01*
X394735Y169557D01*
X394004Y168996D01*
X393443Y168265D01*
X393090Y167414D01*
X393036Y167000D01*
X396000D01*
Y169964D01*
D02*
G37*
G36*
X442547Y169464D02*
Y166500D01*
X445512D01*
X445457Y166914D01*
X445105Y167765D01*
X444544Y168496D01*
X443812Y169057D01*
X442961Y169410D01*
X442547Y169464D01*
D02*
G37*
G36*
X441547D02*
X441134Y169410D01*
X440282Y169057D01*
X439551Y168496D01*
X438990Y167765D01*
X438637Y166914D01*
X438583Y166500D01*
X441547D01*
Y169464D01*
D02*
G37*
G36*
X570000Y168026D02*
X569217Y167923D01*
X568487Y167621D01*
X567860Y167140D01*
X567380Y166513D01*
X567077Y165783D01*
X567011Y165283D01*
X567002Y165213D01*
X566498D01*
X566489Y165283D01*
X566423Y165783D01*
X566120Y166513D01*
X565640Y167140D01*
X565013Y167621D01*
X564283Y167923D01*
X563500Y168026D01*
X562717Y167923D01*
X561987Y167621D01*
X561360Y167140D01*
X560880Y166513D01*
X560577Y165783D01*
X560474Y165000D01*
X560577Y164217D01*
X560880Y163487D01*
X561360Y162860D01*
X561971Y162392D01*
Y156717D01*
X561737Y156621D01*
X561110Y156140D01*
X560630Y155513D01*
X560327Y154783D01*
X560224Y154000D01*
X560327Y153217D01*
X560630Y152487D01*
X561110Y151860D01*
X561737Y151380D01*
X562467Y151077D01*
X563250Y150974D01*
X564033Y151077D01*
X564763Y151380D01*
X565390Y151860D01*
X565871Y152487D01*
X566173Y153217D01*
X566276Y154000D01*
X566173Y154783D01*
X565871Y155513D01*
X565390Y156140D01*
X565029Y156416D01*
Y162392D01*
X565640Y162860D01*
X566120Y163487D01*
X566423Y164217D01*
X566489Y164717D01*
X566498Y164787D01*
X567002D01*
X567011Y164717D01*
X567077Y164217D01*
X567380Y163487D01*
X567860Y162860D01*
X568471Y162392D01*
Y156608D01*
X567860Y156140D01*
X567380Y155513D01*
X567077Y154783D01*
X566974Y154000D01*
X567077Y153217D01*
X567380Y152487D01*
X567860Y151860D01*
X568487Y151380D01*
X569217Y151077D01*
X570000Y150974D01*
X570783Y151077D01*
X571513Y151380D01*
X572140Y151860D01*
X572620Y152487D01*
X572923Y153217D01*
X573026Y154000D01*
X572923Y154783D01*
X572620Y155513D01*
X572140Y156140D01*
X571529Y156608D01*
Y162392D01*
X572140Y162860D01*
X572620Y163487D01*
X572923Y164217D01*
X573026Y165000D01*
X572923Y165783D01*
X572620Y166513D01*
X572140Y167140D01*
X571513Y167621D01*
X570783Y167923D01*
X570000Y168026D01*
D02*
G37*
G36*
X544840Y167722D02*
X541876D01*
Y164758D01*
X542290Y164813D01*
X543141Y165165D01*
X543872Y165726D01*
X544433Y166457D01*
X544786Y167309D01*
X544840Y167722D01*
D02*
G37*
G36*
X540876D02*
X537912D01*
X537966Y167309D01*
X538319Y166457D01*
X538880Y165726D01*
X539611Y165165D01*
X540462Y164813D01*
X540876Y164758D01*
Y167722D01*
D02*
G37*
G36*
X399964Y166000D02*
X397000D01*
Y163036D01*
X397414Y163090D01*
X398265Y163443D01*
X398996Y164004D01*
X399557Y164735D01*
X399910Y165586D01*
X399964Y166000D01*
D02*
G37*
G36*
X396000D02*
X393036D01*
X393090Y165586D01*
X393443Y164735D01*
X394004Y164004D01*
X394735Y163443D01*
X395586Y163090D01*
X396000Y163036D01*
Y166000D01*
D02*
G37*
G36*
X445512Y165500D02*
X442547D01*
Y162536D01*
X442961Y162590D01*
X443812Y162943D01*
X444544Y163504D01*
X445105Y164235D01*
X445457Y165086D01*
X445512Y165500D01*
D02*
G37*
G36*
X441547D02*
X438583D01*
X438637Y165086D01*
X438990Y164235D01*
X439551Y163504D01*
X440282Y162943D01*
X441134Y162590D01*
X441547Y162536D01*
Y165500D01*
D02*
G37*
G36*
X651409Y168936D02*
Y159073D01*
X661272D01*
X661184Y160200D01*
X660803Y161787D01*
X660178Y163295D01*
X659325Y164687D01*
X658265Y165928D01*
X657024Y166988D01*
X655632Y167841D01*
X654124Y168466D01*
X652537Y168847D01*
X651409Y168936D01*
D02*
G37*
G36*
X650409D02*
X649282Y168847D01*
X647695Y168466D01*
X646187Y167841D01*
X644795Y166988D01*
X643554Y165928D01*
X642494Y164687D01*
X641641Y163295D01*
X641016Y161787D01*
X640635Y160200D01*
X640547Y159073D01*
X650409D01*
Y168936D01*
D02*
G37*
G36*
X549000Y168026D02*
X548217Y167923D01*
X547487Y167621D01*
X546860Y167140D01*
X546380Y166513D01*
X546077Y165783D01*
X545974Y165000D01*
X546077Y164217D01*
X546380Y163487D01*
X546860Y162860D01*
X547471Y162392D01*
Y157108D01*
X546860Y156640D01*
X546380Y156013D01*
X546077Y155283D01*
X545974Y154500D01*
X546077Y153717D01*
X546380Y152987D01*
X546860Y152360D01*
X547487Y151880D01*
X548217Y151577D01*
X549000Y151474D01*
X549783Y151577D01*
X550513Y151880D01*
X551140Y152360D01*
X551620Y152987D01*
X551923Y153717D01*
X552026Y154500D01*
X551923Y155283D01*
X551620Y156013D01*
X551140Y156640D01*
X550529Y157108D01*
Y162392D01*
X551140Y162860D01*
X551620Y163487D01*
X551923Y164217D01*
X552026Y165000D01*
X551923Y165783D01*
X551620Y166513D01*
X551140Y167140D01*
X550513Y167621D01*
X549783Y167923D01*
X549000Y168026D01*
D02*
G37*
G36*
X577500D02*
X576717Y167923D01*
X575987Y167621D01*
X575360Y167140D01*
X574880Y166513D01*
X574577Y165783D01*
X574474Y165000D01*
X574577Y164217D01*
X574880Y163487D01*
X575360Y162860D01*
X575971Y162392D01*
Y156608D01*
X575360Y156140D01*
X574880Y155513D01*
X574577Y154783D01*
X574474Y154000D01*
X574577Y153217D01*
X574880Y152487D01*
X575360Y151860D01*
X575987Y151380D01*
X576717Y151077D01*
X577500Y150974D01*
X578283Y151077D01*
X579013Y151380D01*
X579640Y151860D01*
X580121Y152487D01*
X580423Y153217D01*
X580526Y154000D01*
X580423Y154783D01*
X580121Y155513D01*
X579640Y156140D01*
X579029Y156608D01*
Y162392D01*
X579640Y162860D01*
X580121Y163487D01*
X580423Y164217D01*
X580526Y165000D01*
X580423Y165783D01*
X580121Y166513D01*
X579640Y167140D01*
X579013Y167621D01*
X578283Y167923D01*
X577500Y168026D01*
D02*
G37*
G36*
X556500D02*
X555717Y167923D01*
X554987Y167621D01*
X554360Y167140D01*
X553879Y166513D01*
X553577Y165783D01*
X553474Y165000D01*
X553577Y164217D01*
X553879Y163487D01*
X554360Y162860D01*
X554971Y162392D01*
Y156608D01*
X554360Y156140D01*
X553879Y155513D01*
X553577Y154783D01*
X553474Y154000D01*
X553577Y153217D01*
X553879Y152487D01*
X554360Y151860D01*
X554987Y151380D01*
X555717Y151077D01*
X556500Y150974D01*
X557283Y151077D01*
X558013Y151380D01*
X558640Y151860D01*
X559121Y152487D01*
X559423Y153217D01*
X559526Y154000D01*
X559423Y154783D01*
X559121Y155513D01*
X558640Y156140D01*
X558029Y156608D01*
Y162392D01*
X558640Y162860D01*
X559121Y163487D01*
X559423Y164217D01*
X559526Y165000D01*
X559423Y165783D01*
X559121Y166513D01*
X558640Y167140D01*
X558013Y167621D01*
X557283Y167923D01*
X556500Y168026D01*
D02*
G37*
G36*
X597000Y170533D02*
X595352Y170403D01*
X593745Y170017D01*
X592218Y169385D01*
X590809Y168521D01*
X589552Y167448D01*
X588479Y166191D01*
X587615Y164782D01*
X586983Y163255D01*
X586597Y161648D01*
X586468Y160000D01*
X586597Y158352D01*
X586983Y156745D01*
X587615Y155218D01*
X588479Y153809D01*
X589552Y152552D01*
X590809Y151479D01*
X592218Y150616D01*
X593745Y149983D01*
X595352Y149597D01*
X597000Y149468D01*
X598648Y149597D01*
X600255Y149983D01*
X601782Y150616D01*
X603191Y151479D01*
X604448Y152552D01*
X605521Y153809D01*
X606385Y155218D01*
X607017Y156745D01*
X607403Y158352D01*
X607533Y160000D01*
X607403Y161648D01*
X607017Y163255D01*
X606385Y164782D01*
X605521Y166191D01*
X604448Y167448D01*
X603191Y168521D01*
X601782Y169385D01*
X600255Y170017D01*
X598648Y170403D01*
X597000Y170533D01*
D02*
G37*
G36*
X650409Y158073D02*
X640547D01*
X640635Y156946D01*
X641016Y155358D01*
X641641Y153850D01*
X642494Y152459D01*
X643554Y151217D01*
X644795Y150157D01*
X646187Y149304D01*
X647695Y148680D01*
X649282Y148299D01*
X650409Y148210D01*
Y158073D01*
D02*
G37*
G36*
X661272D02*
X651409D01*
Y148210D01*
X652537Y148299D01*
X654124Y148680D01*
X655632Y149304D01*
X657024Y150157D01*
X658265Y151217D01*
X659325Y152459D01*
X660178Y153850D01*
X660803Y155358D01*
X661184Y156946D01*
X661272Y158073D01*
D02*
G37*
%LPD*%
D12*
X527000Y327000D02*
X557000D01*
X527000Y285000D02*
X552000D01*
X527000Y285000D02*
X527000Y285000D01*
D14*
X461000Y217000D02*
X466725D01*
X466862Y216863D01*
X535250Y266750D02*
X536500Y268000D01*
X522750Y266750D02*
X535250D01*
X522500Y266500D02*
X522750Y266750D01*
X492738Y254250D02*
X505750D01*
X506000Y254000D01*
X516000Y289000D02*
Y295000D01*
X526500Y258500D02*
X536500D01*
X526000Y259000D02*
X526500Y258500D01*
X526000Y254250D02*
X536062D01*
X526000D02*
Y254500D01*
X525500Y255000D02*
X526000Y254500D01*
X525500Y263000D02*
X536387D01*
X457800Y241800D02*
X460000Y244000D01*
X457800Y238800D02*
Y241800D01*
X475000Y219500D02*
X481000D01*
X493500Y259000D02*
X505000D01*
D65*
X455500Y288000D02*
Y294000D01*
D66*
X549000Y154500D02*
Y165000D01*
X556500Y154000D02*
Y165000D01*
X563500Y154250D02*
Y165000D01*
X563250Y154000D02*
X563500Y154250D01*
X570000Y154000D02*
Y165000D01*
X577500Y154000D02*
Y165000D01*
D70*
X595000Y315000D02*
D03*
D71*
X604843D02*
D03*
D72*
X645319Y185974D02*
D03*
X656500Y191409D02*
D03*
X645319Y196844D02*
D03*
X656500Y202279D02*
D03*
X645319Y207715D02*
D03*
X656500Y213150D02*
D03*
X645319Y218585D02*
D03*
X656500Y224020D02*
D03*
X645319Y229455D02*
D03*
X656500Y234890D02*
D03*
X645319Y240325D02*
D03*
X656500Y245760D02*
D03*
X645319Y251195D02*
D03*
X656500Y256630D02*
D03*
X645319Y262065D02*
D03*
X656500Y267500D02*
D03*
X645319Y272935D02*
D03*
X656500Y278370D02*
D03*
X645319Y283805D02*
D03*
X656500Y289240D02*
D03*
X645319Y294675D02*
D03*
X656500Y300110D02*
D03*
X645319Y305545D02*
D03*
X656500Y310980D02*
D03*
D73*
X645319Y316415D02*
D03*
D74*
X650910Y343817D02*
D03*
Y158573D02*
D03*
D75*
X542000Y341500D02*
D03*
X532000D02*
D03*
X552000D02*
D03*
X562000D02*
D03*
X572000D02*
D03*
X582000D02*
D03*
X446500Y341226D02*
D03*
X456500D02*
D03*
X466500D02*
D03*
X476500D02*
D03*
X486500D02*
D03*
D76*
X522000Y341500D02*
D03*
X496500Y341226D02*
D03*
D77*
X466862Y216863D02*
D03*
X461000Y217000D02*
D03*
X503653Y201807D02*
D03*
X491500Y200153D02*
D03*
X541347Y213500D02*
D03*
X553693Y268000D02*
D03*
X536500D02*
D03*
X505000Y259000D02*
D03*
X519500Y242653D02*
D03*
X512500Y246153D02*
D03*
X492738Y254250D02*
D03*
X506000Y254000D02*
D03*
X516000Y289000D02*
D03*
Y295000D02*
D03*
X536500Y258500D02*
D03*
X526000Y259000D02*
D03*
X536062Y254250D02*
D03*
X526000D02*
D03*
X536387Y263000D02*
D03*
X525500D02*
D03*
X498000Y223000D02*
D03*
X527000Y327000D02*
D03*
X557000D02*
D03*
X552000Y285000D02*
D03*
X455500Y294000D02*
D03*
Y288000D02*
D03*
X457800Y238800D02*
D03*
X460000Y244000D02*
D03*
X489295Y241795D02*
D03*
X481000Y219500D02*
D03*
X475000D02*
D03*
X483000Y223500D02*
D03*
X522500Y266500D02*
D03*
X461500Y301500D02*
D03*
X527000Y285000D02*
D03*
X445500Y285000D02*
D03*
X505500Y307500D02*
D03*
X493500Y259000D02*
D03*
X463705Y276205D02*
D03*
X506500Y282000D02*
D03*
X467500Y300697D02*
D03*
X438500Y327744D02*
D03*
D78*
X411000Y317500D02*
D03*
X561000Y263500D02*
D03*
X601000Y353500D02*
D03*
X432500Y353000D02*
D03*
Y346500D02*
D03*
X594000Y341000D02*
D03*
X411547Y204953D02*
D03*
X399000Y203500D02*
D03*
X558500Y284000D02*
D03*
X449303Y205303D02*
D03*
X624000Y198000D02*
D03*
X541500Y207500D02*
D03*
X549000Y165000D02*
D03*
Y154500D02*
D03*
X556500Y165000D02*
D03*
Y154000D02*
D03*
X563500Y165000D02*
D03*
X563250Y154000D02*
D03*
X570000Y165000D02*
D03*
Y154000D02*
D03*
X577500D02*
D03*
Y165000D02*
D03*
X612213Y214122D02*
D03*
X619500Y171500D02*
D03*
X630500Y268500D02*
D03*
X611500Y285000D02*
D03*
X598500Y178500D02*
D03*
X369000Y314500D02*
D03*
X411500Y212000D02*
D03*
Y245000D02*
D03*
X411000Y261500D02*
D03*
Y277500D02*
D03*
X412000Y293500D02*
D03*
X411000Y310000D02*
D03*
X437000Y197500D02*
D03*
X442047Y166000D02*
D03*
X396500Y166500D02*
D03*
X584500Y303000D02*
D03*
X609500Y178500D02*
D03*
X541376Y168222D02*
D03*
X541500Y190000D02*
D03*
X412000Y338500D02*
D03*
X433000Y244000D02*
D03*
D79*
X379000Y342000D02*
D03*
X613000Y344000D02*
D03*
X597000Y160000D02*
D03*
M02*
