M48
;Layer_Color=9474304
;FILE_FORMAT=2:5
INCH,LZ
;TYPE=PLATED
T1F00S00C0.01600
T2F00S00C0.02800
T3F00S00C0.03500
T4F00S00C0.03543
T5F00S00C0.04291
T6F00S00C0.12835
T7F00S00C0.17000
%
T01
X0497Y0203
Y02185
X0493
X04875
X0489295Y0241795
X04935Y0254
Y0259
X0505
X05055Y0254
X0523669Y02545
X0524069Y0259
X0524Y02645
Y0269
X05375
Y02645
Y02595
Y02545
X05475Y02885
X0527
X0515Y0289
Y0295
X0509Y0302
X05075Y0282
X04695Y0300697
X04615Y03015
X04585Y02865
X04525
X04455Y0285
X0463705Y0276205
X04385Y0327744
X05345Y033
X05555
T02
X0549Y01545
X05565Y0154
X056325
X057
X05775
X0631Y0202
X06305Y02755
X06115Y0292
X05845Y031
X0557Y0288
X0561Y0269
X05415Y02075
Y019
X0541376Y0168222
X0549Y0165
X05565
X05635
X057
X05775
X05985Y01785
X06095
X06195Y01715
X0612213Y0214122
X0457Y01975
X0463Y0166
X0420047Y0166
X0415Y01975
X0377Y02035
X03745Y01665
X04115Y0245
X0411Y02615
Y02775
X0412Y02935
X0411Y031
X0433Y0244
X0411Y03245
X0412Y03385
T03
X04015Y02035
Y0212
X0422Y0209
X0448Y02105
Y0203
X03595Y03145
T04
X04465Y0338226
X04565
X04665
X04765
X04865
X04965
X0522Y03415
X0532
X0542
X0552
X0562
X0572
X0582
T05
X0645319Y0185974
Y0196844
Y0207715
Y0218585
Y0229455
Y0240325
Y0251195
Y0262065
Y0272935
Y0283805
Y0294675
Y0305545
X06565Y030011
Y028924
Y027837
Y02675
Y025663
Y024576
Y023489
Y022402
Y021315
Y0202279
Y0191409
Y031098
X0645319Y0316415
T06
X065091Y0158573
Y0343817
T07
X0597Y016
X0364Y0342
X0613Y0344
M30
