G04*
G04 #@! TF.GenerationSoftware,Altium Limited,Altium Designer,19.1.7 (138)*
G04*
G04 Layer_Physical_Order=2*
G04 Layer_Color=16711680*
%FSLAX25Y25*%
%MOIN*%
G70*
G01*
G75*
%ADD13C,0.00600*%
%ADD58C,0.01000*%
%ADD60C,0.02000*%
%ADD64C,0.06653*%
%ADD65R,0.06653X0.06653*%
%ADD66C,0.18740*%
%ADD67C,0.05906*%
%ADD68R,0.05906X0.05906*%
%ADD69C,0.02500*%
%ADD70C,0.05000*%
%ADD71C,0.20000*%
G36*
X688000Y137500D02*
X345000D01*
X345000Y357500D01*
X688000D01*
X688000Y137500D01*
D02*
G37*
%LPC*%
G36*
X651409Y354180D02*
Y344317D01*
X661272D01*
X661184Y345444D01*
X660803Y347031D01*
X660178Y348539D01*
X659325Y349931D01*
X658265Y351172D01*
X657024Y352232D01*
X655632Y353085D01*
X654124Y353710D01*
X652537Y354091D01*
X651409Y354180D01*
D02*
G37*
G36*
X650409D02*
X649282Y354091D01*
X647695Y353710D01*
X646187Y353085D01*
X644795Y352232D01*
X643554Y351172D01*
X642494Y349931D01*
X641641Y348539D01*
X641016Y347031D01*
X640635Y345444D01*
X640547Y344317D01*
X650409D01*
Y354180D01*
D02*
G37*
G36*
X525953Y345453D02*
X522500D01*
Y342000D01*
X525953D01*
Y345453D01*
D02*
G37*
G36*
X521500D02*
X518047D01*
Y342000D01*
X521500D01*
Y345453D01*
D02*
G37*
G36*
X412500Y341964D02*
Y339000D01*
X415464D01*
X415410Y339414D01*
X415057Y340265D01*
X414496Y340996D01*
X413765Y341557D01*
X412914Y341910D01*
X412500Y341964D01*
D02*
G37*
G36*
X411500D02*
X411086Y341910D01*
X410235Y341557D01*
X409504Y340996D01*
X408943Y340265D01*
X408590Y339414D01*
X408536Y339000D01*
X411500D01*
Y341964D01*
D02*
G37*
G36*
X477000Y342147D02*
Y338726D01*
X480421D01*
X480351Y339258D01*
X479953Y340220D01*
X479319Y341045D01*
X478493Y341679D01*
X477532Y342077D01*
X477000Y342147D01*
D02*
G37*
G36*
X476000D02*
X475468Y342077D01*
X474507Y341679D01*
X473681Y341045D01*
X473047Y340220D01*
X472649Y339258D01*
X472579Y338726D01*
X476000D01*
Y342147D01*
D02*
G37*
G36*
X582000Y344983D02*
X581099Y344864D01*
X580259Y344516D01*
X579537Y343963D01*
X578984Y343241D01*
X578636Y342401D01*
X578517Y341500D01*
X578636Y340599D01*
X578984Y339759D01*
X579537Y339037D01*
X580259Y338484D01*
X581099Y338136D01*
X582000Y338018D01*
X582901Y338136D01*
X583741Y338484D01*
X584462Y339037D01*
X585016Y339759D01*
X585364Y340599D01*
X585483Y341500D01*
X585364Y342401D01*
X585016Y343241D01*
X584462Y343963D01*
X583741Y344516D01*
X582901Y344864D01*
X582000Y344983D01*
D02*
G37*
G36*
X572000D02*
X571099Y344864D01*
X570259Y344516D01*
X569537Y343963D01*
X568984Y343241D01*
X568636Y342401D01*
X568517Y341500D01*
X568636Y340599D01*
X568984Y339759D01*
X569537Y339037D01*
X570259Y338484D01*
X571099Y338136D01*
X572000Y338018D01*
X572901Y338136D01*
X573741Y338484D01*
X574463Y339037D01*
X575016Y339759D01*
X575364Y340599D01*
X575483Y341500D01*
X575364Y342401D01*
X575016Y343241D01*
X574463Y343963D01*
X573741Y344516D01*
X572901Y344864D01*
X572000Y344983D01*
D02*
G37*
G36*
X562000D02*
X561099Y344864D01*
X560259Y344516D01*
X559538Y343963D01*
X558984Y343241D01*
X558636Y342401D01*
X558518Y341500D01*
X558636Y340599D01*
X558984Y339759D01*
X559538Y339037D01*
X560259Y338484D01*
X561099Y338136D01*
X562000Y338018D01*
X562901Y338136D01*
X563741Y338484D01*
X564463Y339037D01*
X565016Y339759D01*
X565364Y340599D01*
X565483Y341500D01*
X565364Y342401D01*
X565016Y343241D01*
X564463Y343963D01*
X563741Y344516D01*
X562901Y344864D01*
X562000Y344983D01*
D02*
G37*
G36*
X552000D02*
X551099Y344864D01*
X550259Y344516D01*
X549538Y343963D01*
X548984Y343241D01*
X548636Y342401D01*
X548518Y341500D01*
X548636Y340599D01*
X548984Y339759D01*
X549538Y339037D01*
X550259Y338484D01*
X551099Y338136D01*
X552000Y338018D01*
X552901Y338136D01*
X553741Y338484D01*
X554462Y339037D01*
X555016Y339759D01*
X555364Y340599D01*
X555482Y341500D01*
X555364Y342401D01*
X555016Y343241D01*
X554462Y343963D01*
X553741Y344516D01*
X552901Y344864D01*
X552000Y344983D01*
D02*
G37*
G36*
X542000D02*
X541099Y344864D01*
X540259Y344516D01*
X539537Y343963D01*
X538984Y343241D01*
X538636Y342401D01*
X538518Y341500D01*
X538636Y340599D01*
X538984Y339759D01*
X539537Y339037D01*
X540259Y338484D01*
X541099Y338136D01*
X542000Y338018D01*
X542901Y338136D01*
X543741Y338484D01*
X544462Y339037D01*
X545016Y339759D01*
X545364Y340599D01*
X545482Y341500D01*
X545364Y342401D01*
X545016Y343241D01*
X544462Y343963D01*
X543741Y344516D01*
X542901Y344864D01*
X542000Y344983D01*
D02*
G37*
G36*
X532000D02*
X531099Y344864D01*
X530259Y344516D01*
X529537Y343963D01*
X528984Y343241D01*
X528636Y342401D01*
X528517Y341500D01*
X528636Y340599D01*
X528984Y339759D01*
X529537Y339037D01*
X530259Y338484D01*
X531099Y338136D01*
X532000Y338018D01*
X532901Y338136D01*
X533741Y338484D01*
X534462Y339037D01*
X535016Y339759D01*
X535364Y340599D01*
X535483Y341500D01*
X535364Y342401D01*
X535016Y343241D01*
X534462Y343963D01*
X533741Y344516D01*
X532901Y344864D01*
X532000Y344983D01*
D02*
G37*
G36*
X525953Y341000D02*
X522500D01*
Y337547D01*
X525953D01*
Y341000D01*
D02*
G37*
G36*
X521500D02*
X518047D01*
Y337547D01*
X521500D01*
Y341000D01*
D02*
G37*
G36*
X415464Y338000D02*
X412500D01*
Y335036D01*
X412914Y335090D01*
X413765Y335443D01*
X414496Y336004D01*
X415057Y336735D01*
X415410Y337586D01*
X415464Y338000D01*
D02*
G37*
G36*
X411500D02*
X408536D01*
X408590Y337586D01*
X408943Y336735D01*
X409504Y336004D01*
X410235Y335443D01*
X411086Y335090D01*
X411500Y335036D01*
Y338000D01*
D02*
G37*
G36*
X499953Y341679D02*
X493047D01*
Y334774D01*
X499953D01*
Y341679D01*
D02*
G37*
G36*
X486500Y341709D02*
X485599Y341590D01*
X484759Y341242D01*
X484037Y340689D01*
X483484Y339968D01*
X483136Y339128D01*
X483017Y338226D01*
X483136Y337325D01*
X483484Y336485D01*
X484037Y335764D01*
X484759Y335210D01*
X485599Y334862D01*
X486500Y334744D01*
X487401Y334862D01*
X488241Y335210D01*
X488963Y335764D01*
X489516Y336485D01*
X489864Y337325D01*
X489983Y338226D01*
X489864Y339128D01*
X489516Y339968D01*
X488963Y340689D01*
X488241Y341242D01*
X487401Y341590D01*
X486500Y341709D01*
D02*
G37*
G36*
X466500D02*
X465599Y341590D01*
X464759Y341242D01*
X464038Y340689D01*
X463484Y339968D01*
X463136Y339128D01*
X463018Y338226D01*
X463136Y337325D01*
X463484Y336485D01*
X464038Y335764D01*
X464759Y335210D01*
X465599Y334862D01*
X466500Y334744D01*
X467401Y334862D01*
X468241Y335210D01*
X468962Y335764D01*
X469516Y336485D01*
X469864Y337325D01*
X469982Y338226D01*
X469864Y339128D01*
X469516Y339968D01*
X468962Y340689D01*
X468241Y341242D01*
X467401Y341590D01*
X466500Y341709D01*
D02*
G37*
G36*
X456500D02*
X455599Y341590D01*
X454759Y341242D01*
X454038Y340689D01*
X453484Y339968D01*
X453136Y339128D01*
X453018Y338226D01*
X453136Y337325D01*
X453484Y336485D01*
X454038Y335764D01*
X454759Y335210D01*
X455599Y334862D01*
X456500Y334744D01*
X457401Y334862D01*
X458241Y335210D01*
X458962Y335764D01*
X459516Y336485D01*
X459864Y337325D01*
X459982Y338226D01*
X459864Y339128D01*
X459516Y339968D01*
X458962Y340689D01*
X458241Y341242D01*
X457401Y341590D01*
X456500Y341709D01*
D02*
G37*
G36*
X446500D02*
X445599Y341590D01*
X444759Y341242D01*
X444037Y340689D01*
X443484Y339968D01*
X443136Y339128D01*
X443017Y338226D01*
X443136Y337325D01*
X443484Y336485D01*
X444037Y335764D01*
X444759Y335210D01*
X445599Y334862D01*
X446500Y334744D01*
X447401Y334862D01*
X448241Y335210D01*
X448962Y335764D01*
X449516Y336485D01*
X449864Y337325D01*
X449983Y338226D01*
X449864Y339128D01*
X449516Y339968D01*
X448962Y340689D01*
X448241Y341242D01*
X447401Y341590D01*
X446500Y341709D01*
D02*
G37*
G36*
X480421Y337726D02*
X477000D01*
Y334305D01*
X477532Y334375D01*
X478493Y334774D01*
X479319Y335407D01*
X479953Y336233D01*
X480351Y337194D01*
X480421Y337726D01*
D02*
G37*
G36*
X476000D02*
X472579D01*
X472649Y337194D01*
X473047Y336233D01*
X473681Y335407D01*
X474507Y334774D01*
X475468Y334375D01*
X476000Y334305D01*
Y337726D01*
D02*
G37*
G36*
X613000Y354533D02*
X611352Y354403D01*
X609745Y354017D01*
X608218Y353384D01*
X606809Y352521D01*
X605552Y351448D01*
X604479Y350191D01*
X603616Y348782D01*
X602983Y347255D01*
X602597Y345648D01*
X602467Y344000D01*
X602597Y342352D01*
X602983Y340745D01*
X603616Y339218D01*
X604479Y337809D01*
X605552Y336552D01*
X606809Y335479D01*
X608218Y334615D01*
X609745Y333983D01*
X611352Y333597D01*
X613000Y333468D01*
X614648Y333597D01*
X616255Y333983D01*
X617782Y334615D01*
X619191Y335479D01*
X620448Y336552D01*
X621521Y337809D01*
X622385Y339218D01*
X623017Y340745D01*
X623403Y342352D01*
X623532Y344000D01*
X623403Y345648D01*
X623017Y347255D01*
X622385Y348782D01*
X621521Y350191D01*
X620448Y351448D01*
X619191Y352521D01*
X617782Y353384D01*
X616255Y354017D01*
X614648Y354403D01*
X613000Y354533D01*
D02*
G37*
G36*
X650409Y343317D02*
X640547D01*
X640635Y342190D01*
X641016Y340602D01*
X641641Y339094D01*
X642494Y337703D01*
X643554Y336461D01*
X644795Y335401D01*
X646187Y334548D01*
X647695Y333924D01*
X649282Y333543D01*
X650409Y333454D01*
Y343317D01*
D02*
G37*
G36*
X661272D02*
X651409D01*
Y333454D01*
X652537Y333543D01*
X654124Y333924D01*
X655632Y334548D01*
X657024Y335401D01*
X658265Y336461D01*
X659325Y337703D01*
X660178Y339094D01*
X660803Y340602D01*
X661184Y342190D01*
X661272Y343317D01*
D02*
G37*
G36*
X364000Y352533D02*
X362352Y352403D01*
X360745Y352017D01*
X359218Y351384D01*
X357809Y350521D01*
X356552Y349448D01*
X355479Y348191D01*
X354615Y346782D01*
X353983Y345255D01*
X353597Y343648D01*
X353467Y342000D01*
X353597Y340352D01*
X353983Y338745D01*
X354615Y337218D01*
X355479Y335809D01*
X356552Y334552D01*
X357809Y333479D01*
X359218Y332615D01*
X360745Y331983D01*
X362352Y331597D01*
X364000Y331468D01*
X365648Y331597D01*
X367255Y331983D01*
X368782Y332615D01*
X370191Y333479D01*
X371448Y334552D01*
X372521Y335809D01*
X373384Y337218D01*
X374017Y338745D01*
X374403Y340352D01*
X374533Y342000D01*
X374403Y343648D01*
X374017Y345255D01*
X373384Y346782D01*
X372521Y348191D01*
X371448Y349448D01*
X370191Y350521D01*
X368782Y351384D01*
X367255Y352017D01*
X365648Y352403D01*
X364000Y352533D01*
D02*
G37*
G36*
X555500Y331784D02*
X554817Y331648D01*
X554238Y331262D01*
X554077Y331020D01*
X535923D01*
X535762Y331262D01*
X535183Y331648D01*
X534500Y331784D01*
X533817Y331648D01*
X533238Y331262D01*
X532852Y330683D01*
X532716Y330000D01*
X532852Y329317D01*
X533238Y328738D01*
X533817Y328351D01*
X534500Y328216D01*
X535183Y328351D01*
X535762Y328738D01*
X535923Y328980D01*
X554077D01*
X554238Y328738D01*
X554817Y328351D01*
X555500Y328216D01*
X556183Y328351D01*
X556762Y328738D01*
X557149Y329317D01*
X557284Y330000D01*
X557149Y330683D01*
X556762Y331262D01*
X556183Y331648D01*
X555500Y331784D01*
D02*
G37*
G36*
X439000Y329939D02*
Y328244D01*
X440695D01*
X440620Y328622D01*
X440122Y329366D01*
X439378Y329864D01*
X439000Y329939D01*
D02*
G37*
G36*
X438000D02*
X437622Y329864D01*
X436878Y329366D01*
X436381Y328622D01*
X436305Y328244D01*
X438000D01*
Y329939D01*
D02*
G37*
G36*
X440695Y327244D02*
X439000D01*
Y325550D01*
X439378Y325625D01*
X440122Y326122D01*
X440620Y326866D01*
X440695Y327244D01*
D02*
G37*
G36*
X438000D02*
X436305D01*
X436381Y326866D01*
X436878Y326122D01*
X437622Y325625D01*
X438000Y325550D01*
Y327244D01*
D02*
G37*
G36*
X411500Y327964D02*
Y325000D01*
X414464D01*
X414410Y325414D01*
X414057Y326265D01*
X413496Y326996D01*
X412765Y327557D01*
X411914Y327910D01*
X411500Y327964D01*
D02*
G37*
G36*
X410500D02*
X410086Y327910D01*
X409235Y327557D01*
X408504Y326996D01*
X407943Y326265D01*
X407590Y325414D01*
X407536Y325000D01*
X410500D01*
Y327964D01*
D02*
G37*
G36*
X414464Y324000D02*
X411500D01*
Y321036D01*
X411914Y321090D01*
X412765Y321443D01*
X413496Y322004D01*
X414057Y322735D01*
X414410Y323586D01*
X414464Y324000D01*
D02*
G37*
G36*
X410500D02*
X407536D01*
X407590Y323586D01*
X407943Y322735D01*
X408504Y322004D01*
X409235Y321443D01*
X410086Y321090D01*
X410500Y321036D01*
Y324000D01*
D02*
G37*
G36*
X360000Y317964D02*
Y315000D01*
X362964D01*
X362910Y315414D01*
X362557Y316265D01*
X361996Y316996D01*
X361265Y317557D01*
X360414Y317910D01*
X360000Y317964D01*
D02*
G37*
G36*
X359000D02*
X358586Y317910D01*
X357735Y317557D01*
X357004Y316996D01*
X356443Y316265D01*
X356090Y315414D01*
X356036Y315000D01*
X359000D01*
Y317964D01*
D02*
G37*
G36*
X649146Y320242D02*
X641492D01*
Y312589D01*
X649146D01*
Y320242D01*
D02*
G37*
G36*
X362964Y314000D02*
X360000D01*
Y311036D01*
X360414Y311090D01*
X361265Y311443D01*
X361996Y312004D01*
X362557Y312735D01*
X362910Y313586D01*
X362964Y314000D01*
D02*
G37*
G36*
X359000D02*
X356036D01*
X356090Y313586D01*
X356443Y312735D01*
X357004Y312004D01*
X357735Y311443D01*
X358586Y311090D01*
X359000Y311036D01*
Y314000D01*
D02*
G37*
G36*
X585000Y313464D02*
Y310500D01*
X587964D01*
X587910Y310914D01*
X587557Y311765D01*
X586996Y312496D01*
X586265Y313057D01*
X585414Y313410D01*
X585000Y313464D01*
D02*
G37*
G36*
X584000D02*
X583586Y313410D01*
X582735Y313057D01*
X582004Y312496D01*
X581443Y311765D01*
X581090Y310914D01*
X581036Y310500D01*
X584000D01*
Y313464D01*
D02*
G37*
G36*
X411500D02*
Y310500D01*
X414464D01*
X414410Y310914D01*
X414057Y311765D01*
X413496Y312496D01*
X412765Y313057D01*
X411914Y313410D01*
X411500Y313464D01*
D02*
G37*
G36*
X410500D02*
X410086Y313410D01*
X409235Y313057D01*
X408504Y312496D01*
X407943Y311765D01*
X407590Y310914D01*
X407536Y310500D01*
X410500D01*
Y313464D01*
D02*
G37*
G36*
X656500Y314840D02*
X655501Y314709D01*
X654570Y314323D01*
X653771Y313710D01*
X653157Y312910D01*
X652772Y311979D01*
X652640Y310980D01*
X652772Y309981D01*
X653157Y309050D01*
X653771Y308251D01*
X654570Y307638D01*
X655501Y307252D01*
X656500Y307120D01*
X657499Y307252D01*
X658430Y307638D01*
X659229Y308251D01*
X659843Y309050D01*
X660228Y309981D01*
X660360Y310980D01*
X660228Y311979D01*
X659843Y312910D01*
X659229Y313710D01*
X658430Y314323D01*
X657499Y314709D01*
X656500Y314840D01*
D02*
G37*
G36*
X587964Y309500D02*
X585000D01*
Y306536D01*
X585414Y306590D01*
X586265Y306943D01*
X586996Y307504D01*
X587557Y308235D01*
X587910Y309086D01*
X587964Y309500D01*
D02*
G37*
G36*
X584000D02*
X581036D01*
X581090Y309086D01*
X581443Y308235D01*
X582004Y307504D01*
X582735Y306943D01*
X583586Y306590D01*
X584000Y306536D01*
Y309500D01*
D02*
G37*
G36*
X414464D02*
X411500D01*
Y306536D01*
X411914Y306590D01*
X412765Y306943D01*
X413496Y307504D01*
X414057Y308235D01*
X414410Y309086D01*
X414464Y309500D01*
D02*
G37*
G36*
X410500D02*
X407536D01*
X407590Y309086D01*
X407943Y308235D01*
X408504Y307504D01*
X409235Y306943D01*
X410086Y306590D01*
X410500Y306536D01*
Y309500D01*
D02*
G37*
G36*
X645819Y309844D02*
Y306045D01*
X649617D01*
X649534Y306675D01*
X649098Y307727D01*
X648405Y308631D01*
X647501Y309325D01*
X646448Y309761D01*
X645819Y309844D01*
D02*
G37*
G36*
X644819D02*
X644189Y309761D01*
X643137Y309325D01*
X642233Y308631D01*
X641539Y307727D01*
X641104Y306675D01*
X641021Y306045D01*
X644819D01*
Y309844D01*
D02*
G37*
G36*
X509500Y304195D02*
Y302500D01*
X511195D01*
X511119Y302878D01*
X510622Y303622D01*
X509878Y304119D01*
X509500Y304195D01*
D02*
G37*
G36*
X508500D02*
X508122Y304119D01*
X507378Y303622D01*
X506881Y302878D01*
X506805Y302500D01*
X508500D01*
Y304195D01*
D02*
G37*
G36*
X462000Y303695D02*
Y302000D01*
X463695D01*
X463619Y302378D01*
X463122Y303122D01*
X462378Y303620D01*
X462000Y303695D01*
D02*
G37*
G36*
X461000D02*
X460622Y303620D01*
X459878Y303122D01*
X459381Y302378D01*
X459305Y302000D01*
X461000D01*
Y303695D01*
D02*
G37*
G36*
X649617Y305045D02*
X645819D01*
Y301247D01*
X646448Y301330D01*
X647501Y301766D01*
X648405Y302459D01*
X649098Y303363D01*
X649534Y304416D01*
X649617Y305045D01*
D02*
G37*
G36*
X644819D02*
X641021D01*
X641104Y304416D01*
X641539Y303363D01*
X642233Y302459D01*
X643137Y301766D01*
X644189Y301330D01*
X644819Y301247D01*
Y305045D01*
D02*
G37*
G36*
X470000Y302891D02*
Y301197D01*
X471695D01*
X471619Y301575D01*
X471122Y302319D01*
X470378Y302816D01*
X470000Y302891D01*
D02*
G37*
G36*
X469000D02*
X468622Y302816D01*
X467878Y302319D01*
X467381Y301575D01*
X467305Y301197D01*
X469000D01*
Y302891D01*
D02*
G37*
G36*
X657000Y304409D02*
Y300610D01*
X660798D01*
X660715Y301240D01*
X660279Y302292D01*
X659586Y303196D01*
X658682Y303890D01*
X657629Y304326D01*
X657000Y304409D01*
D02*
G37*
G36*
X656000D02*
X655371Y304326D01*
X654318Y303890D01*
X653414Y303196D01*
X652721Y302292D01*
X652285Y301240D01*
X652202Y300610D01*
X656000D01*
Y304409D01*
D02*
G37*
G36*
X511195Y301500D02*
X509500D01*
Y299805D01*
X509878Y299881D01*
X510622Y300378D01*
X511119Y301122D01*
X511195Y301500D01*
D02*
G37*
G36*
X508500D02*
X506805D01*
X506881Y301122D01*
X507378Y300378D01*
X508122Y299881D01*
X508500Y299805D01*
Y301500D01*
D02*
G37*
G36*
X463695Y301000D02*
X462000D01*
Y299305D01*
X462378Y299380D01*
X463122Y299878D01*
X463619Y300622D01*
X463695Y301000D01*
D02*
G37*
G36*
X461000D02*
X459305D01*
X459381Y300622D01*
X459878Y299878D01*
X460622Y299380D01*
X461000Y299305D01*
Y301000D01*
D02*
G37*
G36*
X471695Y300197D02*
X470000D01*
Y298502D01*
X470378Y298577D01*
X471122Y299075D01*
X471619Y299819D01*
X471695Y300197D01*
D02*
G37*
G36*
X469000D02*
X467305D01*
X467381Y299819D01*
X467878Y299075D01*
X468622Y298577D01*
X469000Y298502D01*
Y300197D01*
D02*
G37*
G36*
X660798Y299610D02*
X657000D01*
Y295812D01*
X657629Y295895D01*
X658682Y296331D01*
X659586Y297024D01*
X660279Y297928D01*
X660715Y298981D01*
X660798Y299610D01*
D02*
G37*
G36*
X656000D02*
X652202D01*
X652285Y298981D01*
X652721Y297928D01*
X653414Y297024D01*
X654318Y296331D01*
X655371Y295895D01*
X656000Y295812D01*
Y299610D01*
D02*
G37*
G36*
X645819Y298973D02*
Y295175D01*
X649617D01*
X649534Y295805D01*
X649098Y296857D01*
X648405Y297761D01*
X647501Y298455D01*
X646448Y298891D01*
X645819Y298973D01*
D02*
G37*
G36*
X644819D02*
X644189Y298891D01*
X643137Y298455D01*
X642233Y297761D01*
X641539Y296857D01*
X641104Y295805D01*
X641021Y295175D01*
X644819D01*
Y298973D01*
D02*
G37*
G36*
X412500Y296964D02*
Y294000D01*
X415464D01*
X415410Y294414D01*
X415057Y295265D01*
X414496Y295996D01*
X413765Y296557D01*
X412914Y296910D01*
X412500Y296964D01*
D02*
G37*
G36*
X411500D02*
X411086Y296910D01*
X410235Y296557D01*
X409504Y295996D01*
X408943Y295265D01*
X408590Y294414D01*
X408536Y294000D01*
X411500D01*
Y296964D01*
D02*
G37*
G36*
X612000Y295464D02*
Y292500D01*
X614964D01*
X614910Y292914D01*
X614557Y293765D01*
X613996Y294496D01*
X613265Y295057D01*
X612414Y295410D01*
X612000Y295464D01*
D02*
G37*
G36*
X611000D02*
X610586Y295410D01*
X609735Y295057D01*
X609004Y294496D01*
X608443Y293765D01*
X608090Y292914D01*
X608036Y292500D01*
X611000D01*
Y295464D01*
D02*
G37*
G36*
X649617Y294175D02*
X645819D01*
Y290377D01*
X646448Y290460D01*
X647501Y290896D01*
X648405Y291589D01*
X649098Y292493D01*
X649534Y293546D01*
X649617Y294175D01*
D02*
G37*
G36*
X644819D02*
X641021D01*
X641104Y293546D01*
X641539Y292493D01*
X642233Y291589D01*
X643137Y290896D01*
X644189Y290460D01*
X644819Y290377D01*
Y294175D01*
D02*
G37*
G36*
X415464Y293000D02*
X412500D01*
Y290036D01*
X412914Y290090D01*
X413765Y290443D01*
X414496Y291004D01*
X415057Y291735D01*
X415410Y292586D01*
X415464Y293000D01*
D02*
G37*
G36*
X411500D02*
X408536D01*
X408590Y292586D01*
X408943Y291735D01*
X409504Y291004D01*
X410235Y290443D01*
X411086Y290090D01*
X411500Y290036D01*
Y293000D01*
D02*
G37*
G36*
X547500Y290284D02*
X546817Y290148D01*
X546238Y289762D01*
X546077Y289520D01*
X528423D01*
X528262Y289762D01*
X527683Y290148D01*
X527000Y290284D01*
X526317Y290148D01*
X525738Y289762D01*
X525351Y289183D01*
X525216Y288500D01*
X525351Y287817D01*
X525738Y287238D01*
X526317Y286852D01*
X527000Y286716D01*
X527683Y286852D01*
X528262Y287238D01*
X528423Y287480D01*
X546077D01*
X546238Y287238D01*
X546817Y286852D01*
X547500Y286716D01*
X548183Y286852D01*
X548762Y287238D01*
X549149Y287817D01*
X549284Y288500D01*
X549149Y289183D01*
X548762Y289762D01*
X548183Y290148D01*
X547500Y290284D01*
D02*
G37*
G36*
X614964Y291500D02*
X612000D01*
Y288536D01*
X612414Y288590D01*
X613265Y288943D01*
X613996Y289504D01*
X614557Y290235D01*
X614910Y291086D01*
X614964Y291500D01*
D02*
G37*
G36*
X611000D02*
X608036D01*
X608090Y291086D01*
X608443Y290235D01*
X609004Y289504D01*
X609735Y288943D01*
X610586Y288590D01*
X611000Y288536D01*
Y291500D01*
D02*
G37*
G36*
X557500Y291464D02*
Y288500D01*
X560464D01*
X560410Y288914D01*
X560057Y289765D01*
X559496Y290496D01*
X558765Y291057D01*
X557914Y291410D01*
X557500Y291464D01*
D02*
G37*
G36*
X556500D02*
X556086Y291410D01*
X555235Y291057D01*
X554504Y290496D01*
X553943Y289765D01*
X553590Y288914D01*
X553536Y288500D01*
X556500D01*
Y291464D01*
D02*
G37*
G36*
X458500Y288284D02*
X457817Y288148D01*
X457238Y287762D01*
X457077Y287520D01*
X453923D01*
X453762Y287762D01*
X453183Y288148D01*
X452500Y288284D01*
X451817Y288148D01*
X451238Y287762D01*
X450851Y287183D01*
X450716Y286500D01*
X450851Y285817D01*
X451238Y285238D01*
X451817Y284852D01*
X452500Y284716D01*
X453183Y284852D01*
X453762Y285238D01*
X453923Y285480D01*
X457077D01*
X457238Y285238D01*
X457817Y284852D01*
X458500Y284716D01*
X459183Y284852D01*
X459762Y285238D01*
X460148Y285817D01*
X460284Y286500D01*
X460148Y287183D01*
X459762Y287762D01*
X459183Y288148D01*
X458500Y288284D01*
D02*
G37*
G36*
X515000Y296784D02*
X514317Y296649D01*
X513738Y296262D01*
X513351Y295683D01*
X513216Y295000D01*
X513351Y294317D01*
X513738Y293738D01*
X514184Y293440D01*
Y290560D01*
X513738Y290262D01*
X513351Y289683D01*
X513216Y289000D01*
X513351Y288317D01*
X513738Y287738D01*
X514317Y287351D01*
X515000Y287216D01*
X515683Y287351D01*
X516262Y287738D01*
X516648Y288317D01*
X516784Y289000D01*
X516648Y289683D01*
X516262Y290262D01*
X515816Y290560D01*
Y293440D01*
X516262Y293738D01*
X516648Y294317D01*
X516784Y295000D01*
X516648Y295683D01*
X516262Y296262D01*
X515683Y296649D01*
X515000Y296784D01*
D02*
G37*
G36*
X446000Y287195D02*
Y285500D01*
X447695D01*
X447619Y285878D01*
X447122Y286622D01*
X446378Y287120D01*
X446000Y287195D01*
D02*
G37*
G36*
X445000D02*
X444622Y287120D01*
X443878Y286622D01*
X443381Y285878D01*
X443305Y285500D01*
X445000D01*
Y287195D01*
D02*
G37*
G36*
X656500Y293100D02*
X655501Y292968D01*
X654570Y292583D01*
X653771Y291969D01*
X653157Y291170D01*
X652772Y290239D01*
X652640Y289240D01*
X652772Y288241D01*
X653157Y287310D01*
X653771Y286511D01*
X654570Y285897D01*
X655501Y285512D01*
X656500Y285380D01*
X657499Y285512D01*
X658430Y285897D01*
X659229Y286511D01*
X659843Y287310D01*
X660228Y288241D01*
X660360Y289240D01*
X660228Y290239D01*
X659843Y291170D01*
X659229Y291969D01*
X658430Y292583D01*
X657499Y292968D01*
X656500Y293100D01*
D02*
G37*
G36*
X560464Y287500D02*
X557500D01*
Y284536D01*
X557914Y284590D01*
X558765Y284943D01*
X559496Y285504D01*
X560057Y286235D01*
X560410Y287086D01*
X560464Y287500D01*
D02*
G37*
G36*
X556500D02*
X553536D01*
X553590Y287086D01*
X553943Y286235D01*
X554504Y285504D01*
X555235Y284943D01*
X556086Y284590D01*
X556500Y284536D01*
Y287500D01*
D02*
G37*
G36*
X447695Y284500D02*
X446000D01*
Y282805D01*
X446378Y282880D01*
X447122Y283378D01*
X447619Y284122D01*
X447695Y284500D01*
D02*
G37*
G36*
X445000D02*
X443305D01*
X443381Y284122D01*
X443878Y283378D01*
X444622Y282880D01*
X445000Y282805D01*
Y284500D01*
D02*
G37*
G36*
X508000Y284195D02*
Y282500D01*
X509695D01*
X509619Y282878D01*
X509122Y283622D01*
X508378Y284120D01*
X508000Y284195D01*
D02*
G37*
G36*
X507000D02*
X506622Y284120D01*
X505878Y283622D01*
X505381Y282878D01*
X505305Y282500D01*
X507000D01*
Y284195D01*
D02*
G37*
G36*
X645319Y287665D02*
X644320Y287533D01*
X643389Y287148D01*
X642590Y286534D01*
X641976Y285735D01*
X641591Y284804D01*
X641459Y283805D01*
X641591Y282806D01*
X641976Y281875D01*
X642590Y281076D01*
X643389Y280462D01*
X644320Y280077D01*
X645319Y279945D01*
X646318Y280077D01*
X647249Y280462D01*
X648048Y281076D01*
X648662Y281875D01*
X649047Y282806D01*
X649179Y283805D01*
X649047Y284804D01*
X648662Y285735D01*
X648048Y286534D01*
X647249Y287148D01*
X646318Y287533D01*
X645319Y287665D01*
D02*
G37*
G36*
X509695Y281500D02*
X508000D01*
Y279805D01*
X508378Y279880D01*
X509122Y280378D01*
X509619Y281122D01*
X509695Y281500D01*
D02*
G37*
G36*
X507000D02*
X505305D01*
X505381Y281122D01*
X505878Y280378D01*
X506622Y279880D01*
X507000Y279805D01*
Y281500D01*
D02*
G37*
G36*
X604000Y303500D02*
X591000D01*
X590000Y302500D01*
Y275500D01*
X591000Y274500D01*
X603500D01*
X604000Y275000D01*
Y277500D01*
X605000Y278500D01*
X609000Y278500D01*
X611000Y280500D01*
X615500Y280500D01*
X616000Y281000D01*
Y283000D01*
X615500Y283500D01*
X608500D01*
X604500Y287500D01*
Y303000D01*
X604000Y303500D01*
D02*
G37*
G36*
X411500Y280964D02*
Y278000D01*
X414464D01*
X414410Y278414D01*
X414057Y279265D01*
X413496Y279996D01*
X412765Y280557D01*
X411914Y280910D01*
X411500Y280964D01*
D02*
G37*
G36*
X410500D02*
X410086Y280910D01*
X409235Y280557D01*
X408504Y279996D01*
X407943Y279265D01*
X407590Y278414D01*
X407536Y278000D01*
X410500D01*
Y280964D01*
D02*
G37*
G36*
X464205Y278399D02*
Y276705D01*
X465899D01*
X465824Y277083D01*
X465327Y277827D01*
X464583Y278324D01*
X464205Y278399D01*
D02*
G37*
G36*
X463205D02*
X462827Y278324D01*
X462083Y277827D01*
X461585Y277083D01*
X461510Y276705D01*
X463205D01*
Y278399D01*
D02*
G37*
G36*
X631000Y278964D02*
Y276000D01*
X633964D01*
X633910Y276414D01*
X633557Y277265D01*
X632996Y277996D01*
X632265Y278557D01*
X631414Y278910D01*
X631000Y278964D01*
D02*
G37*
G36*
X630000D02*
X629586Y278910D01*
X628735Y278557D01*
X628004Y277996D01*
X627443Y277265D01*
X627090Y276414D01*
X627036Y276000D01*
X630000D01*
Y278964D01*
D02*
G37*
G36*
X656500Y282230D02*
X655501Y282098D01*
X654570Y281713D01*
X653771Y281099D01*
X653157Y280300D01*
X652772Y279369D01*
X652640Y278370D01*
X652772Y277371D01*
X653157Y276440D01*
X653771Y275641D01*
X654570Y275027D01*
X655501Y274642D01*
X656500Y274510D01*
X657499Y274642D01*
X658430Y275027D01*
X659229Y275641D01*
X659843Y276440D01*
X660228Y277371D01*
X660360Y278370D01*
X660228Y279369D01*
X659843Y280300D01*
X659229Y281099D01*
X658430Y281713D01*
X657499Y282098D01*
X656500Y282230D01*
D02*
G37*
G36*
X414464Y277000D02*
X411500D01*
Y274036D01*
X411914Y274090D01*
X412765Y274443D01*
X413496Y275004D01*
X414057Y275735D01*
X414410Y276586D01*
X414464Y277000D01*
D02*
G37*
G36*
X410500D02*
X407536D01*
X407590Y276586D01*
X407943Y275735D01*
X408504Y275004D01*
X409235Y274443D01*
X410086Y274090D01*
X410500Y274036D01*
Y277000D01*
D02*
G37*
G36*
X465899Y275705D02*
X464205D01*
Y274010D01*
X464583Y274085D01*
X465327Y274583D01*
X465824Y275327D01*
X465899Y275705D01*
D02*
G37*
G36*
X463205D02*
X461510D01*
X461585Y275327D01*
X462083Y274583D01*
X462827Y274085D01*
X463205Y274010D01*
Y275705D01*
D02*
G37*
G36*
X633964Y275000D02*
X631000D01*
Y272036D01*
X631414Y272090D01*
X632265Y272443D01*
X632996Y273004D01*
X633557Y273735D01*
X633910Y274586D01*
X633964Y275000D01*
D02*
G37*
G36*
X630000D02*
X627036D01*
X627090Y274586D01*
X627443Y273735D01*
X628004Y273004D01*
X628735Y272443D01*
X629586Y272090D01*
X630000Y272036D01*
Y275000D01*
D02*
G37*
G36*
X537500Y270784D02*
X536817Y270649D01*
X536238Y270262D01*
X535940Y269816D01*
X525560D01*
X525262Y270262D01*
X524683Y270649D01*
X524000Y270784D01*
X523317Y270649D01*
X522738Y270262D01*
X522352Y269683D01*
X522216Y269000D01*
X522352Y268317D01*
X522738Y267738D01*
X523317Y267352D01*
X524000Y267216D01*
X524683Y267352D01*
X525262Y267738D01*
X525560Y268184D01*
X535940D01*
X536238Y267738D01*
X536817Y267352D01*
X537500Y267216D01*
X538183Y267352D01*
X538762Y267738D01*
X539149Y268317D01*
X539284Y269000D01*
X539149Y269683D01*
X538762Y270262D01*
X538183Y270649D01*
X537500Y270784D01*
D02*
G37*
G36*
X561500Y272464D02*
Y269500D01*
X564464D01*
X564410Y269914D01*
X564057Y270765D01*
X563496Y271496D01*
X562765Y272057D01*
X561914Y272410D01*
X561500Y272464D01*
D02*
G37*
G36*
X560500D02*
X560086Y272410D01*
X559235Y272057D01*
X558504Y271496D01*
X557943Y270765D01*
X557590Y269914D01*
X557536Y269500D01*
X560500D01*
Y272464D01*
D02*
G37*
G36*
X645319Y276795D02*
X644320Y276663D01*
X643389Y276278D01*
X642590Y275664D01*
X641976Y274865D01*
X641591Y273934D01*
X641459Y272935D01*
X641591Y271936D01*
X641976Y271005D01*
X642590Y270206D01*
X643389Y269592D01*
X644320Y269207D01*
X645319Y269075D01*
X646318Y269207D01*
X647249Y269592D01*
X648048Y270206D01*
X648662Y271005D01*
X649047Y271936D01*
X649179Y272935D01*
X649047Y273934D01*
X648662Y274865D01*
X648048Y275664D01*
X647249Y276278D01*
X646318Y276663D01*
X645319Y276795D01*
D02*
G37*
G36*
X564464Y268500D02*
X561500D01*
Y265536D01*
X561914Y265590D01*
X562765Y265943D01*
X563496Y266504D01*
X564057Y267235D01*
X564410Y268086D01*
X564464Y268500D01*
D02*
G37*
G36*
X560500D02*
X557536D01*
X557590Y268086D01*
X557943Y267235D01*
X558504Y266504D01*
X559235Y265943D01*
X560086Y265590D01*
X560500Y265536D01*
Y268500D01*
D02*
G37*
G36*
X656500Y271360D02*
X655501Y271228D01*
X654570Y270843D01*
X653771Y270229D01*
X653157Y269430D01*
X652772Y268499D01*
X652640Y267500D01*
X652772Y266501D01*
X653157Y265570D01*
X653771Y264771D01*
X654570Y264157D01*
X655501Y263772D01*
X656500Y263640D01*
X657499Y263772D01*
X658430Y264157D01*
X659229Y264771D01*
X659843Y265570D01*
X660228Y266501D01*
X660360Y267500D01*
X660228Y268499D01*
X659843Y269430D01*
X659229Y270229D01*
X658430Y270843D01*
X657499Y271228D01*
X656500Y271360D01*
D02*
G37*
G36*
X524000Y266284D02*
X523317Y266148D01*
X522738Y265762D01*
X522352Y265183D01*
X522216Y264500D01*
X522352Y263817D01*
X522738Y263238D01*
X523317Y262852D01*
X524000Y262716D01*
X524683Y262852D01*
X525262Y263238D01*
X525560Y263684D01*
X535940D01*
X536238Y263238D01*
X536817Y262852D01*
X537500Y262716D01*
X538183Y262852D01*
X538762Y263238D01*
X539149Y263817D01*
X539284Y264500D01*
X539149Y265183D01*
X538762Y265762D01*
X538183Y266148D01*
X537500Y266284D01*
X536817Y266148D01*
X536238Y265762D01*
X535940Y265316D01*
X525560D01*
X525262Y265762D01*
X524683Y266148D01*
X524000Y266284D01*
D02*
G37*
G36*
X411500Y264964D02*
Y262000D01*
X414464D01*
X414410Y262414D01*
X414057Y263265D01*
X413496Y263996D01*
X412765Y264557D01*
X411914Y264910D01*
X411500Y264964D01*
D02*
G37*
G36*
X410500D02*
X410086Y264910D01*
X409235Y264557D01*
X408504Y263996D01*
X407943Y263265D01*
X407590Y262414D01*
X407536Y262000D01*
X410500D01*
Y264964D01*
D02*
G37*
G36*
X537500Y261284D02*
X536817Y261149D01*
X536238Y260762D01*
X535851Y260183D01*
X535779Y259816D01*
X525629D01*
X525331Y260262D01*
X524752Y260648D01*
X524069Y260784D01*
X523386Y260648D01*
X522808Y260262D01*
X522421Y259683D01*
X522285Y259000D01*
X522421Y258317D01*
X522808Y257738D01*
X523386Y257351D01*
X524069Y257216D01*
X524752Y257351D01*
X525331Y257738D01*
X525629Y258184D01*
X536319D01*
X536817Y257852D01*
X537500Y257716D01*
X538183Y257852D01*
X538762Y258238D01*
X539149Y258817D01*
X539284Y259500D01*
X539149Y260183D01*
X538762Y260762D01*
X538183Y261149D01*
X537500Y261284D01*
D02*
G37*
G36*
X505000Y260784D02*
X504317Y260648D01*
X503738Y260262D01*
X503440Y259816D01*
X495060D01*
X494762Y260262D01*
X494183Y260648D01*
X493500Y260784D01*
X492817Y260648D01*
X492238Y260262D01*
X491852Y259683D01*
X491716Y259000D01*
X491852Y258317D01*
X492238Y257738D01*
X492817Y257351D01*
X493500Y257216D01*
X494183Y257351D01*
X494762Y257738D01*
X495060Y258184D01*
X503440D01*
X503738Y257738D01*
X504317Y257351D01*
X505000Y257216D01*
X505683Y257351D01*
X506262Y257738D01*
X506648Y258317D01*
X506784Y259000D01*
X506648Y259683D01*
X506262Y260262D01*
X505683Y260648D01*
X505000Y260784D01*
D02*
G37*
G36*
X645319Y265925D02*
X644320Y265793D01*
X643389Y265408D01*
X642590Y264794D01*
X641976Y263995D01*
X641591Y263064D01*
X641459Y262065D01*
X641591Y261066D01*
X641976Y260135D01*
X642590Y259336D01*
X643389Y258722D01*
X644320Y258337D01*
X645319Y258205D01*
X646318Y258337D01*
X647249Y258722D01*
X648048Y259336D01*
X648662Y260135D01*
X649047Y261066D01*
X649179Y262065D01*
X649047Y263064D01*
X648662Y263995D01*
X648048Y264794D01*
X647249Y265408D01*
X646318Y265793D01*
X645319Y265925D01*
D02*
G37*
G36*
X414464Y261000D02*
X411500D01*
Y258036D01*
X411914Y258090D01*
X412765Y258443D01*
X413496Y259004D01*
X414057Y259735D01*
X414410Y260586D01*
X414464Y261000D01*
D02*
G37*
G36*
X410500D02*
X407536D01*
X407590Y260586D01*
X407943Y259735D01*
X408504Y259004D01*
X409235Y258443D01*
X410086Y258090D01*
X410500Y258036D01*
Y261000D01*
D02*
G37*
G36*
X537500Y256284D02*
X536817Y256149D01*
X536238Y255762D01*
X535940Y255316D01*
X525228D01*
X524930Y255762D01*
X524352Y256149D01*
X523669Y256284D01*
X522986Y256149D01*
X522407Y255762D01*
X522020Y255183D01*
X521884Y254500D01*
X522020Y253817D01*
X522407Y253238D01*
X522986Y252852D01*
X523669Y252716D01*
X524352Y252852D01*
X524930Y253238D01*
X525228Y253684D01*
X535940D01*
X536238Y253238D01*
X536817Y252852D01*
X537500Y252716D01*
X538183Y252852D01*
X538762Y253238D01*
X539149Y253817D01*
X539284Y254500D01*
X539149Y255183D01*
X538762Y255762D01*
X538183Y256149D01*
X537500Y256284D01*
D02*
G37*
G36*
X505500Y255784D02*
X504817Y255648D01*
X504238Y255262D01*
X503940Y254816D01*
X495060D01*
X494762Y255262D01*
X494183Y255648D01*
X493500Y255784D01*
X492817Y255648D01*
X492238Y255262D01*
X491852Y254683D01*
X491716Y254000D01*
X491852Y253317D01*
X492238Y252738D01*
X492817Y252351D01*
X493500Y252216D01*
X494183Y252351D01*
X494762Y252738D01*
X495060Y253184D01*
X503940D01*
X504238Y252738D01*
X504817Y252351D01*
X505500Y252216D01*
X506183Y252351D01*
X506762Y252738D01*
X507149Y253317D01*
X507284Y254000D01*
X507149Y254683D01*
X506762Y255262D01*
X506183Y255648D01*
X505500Y255784D01*
D02*
G37*
G36*
X656500Y260490D02*
X655501Y260358D01*
X654570Y259973D01*
X653771Y259359D01*
X653157Y258560D01*
X652772Y257629D01*
X652640Y256630D01*
X652772Y255631D01*
X653157Y254700D01*
X653771Y253901D01*
X654570Y253287D01*
X655501Y252902D01*
X656500Y252770D01*
X657499Y252902D01*
X658430Y253287D01*
X659229Y253901D01*
X659843Y254700D01*
X660228Y255631D01*
X660360Y256630D01*
X660228Y257629D01*
X659843Y258560D01*
X659229Y259359D01*
X658430Y259973D01*
X657499Y260358D01*
X656500Y260490D01*
D02*
G37*
G36*
X645319Y255055D02*
X644320Y254923D01*
X643389Y254538D01*
X642590Y253924D01*
X641976Y253125D01*
X641591Y252194D01*
X641459Y251195D01*
X641591Y250196D01*
X641976Y249265D01*
X642590Y248466D01*
X643389Y247852D01*
X644320Y247467D01*
X645319Y247335D01*
X646318Y247467D01*
X647249Y247852D01*
X648048Y248466D01*
X648662Y249265D01*
X649047Y250196D01*
X649179Y251195D01*
X649047Y252194D01*
X648662Y253125D01*
X648048Y253924D01*
X647249Y254538D01*
X646318Y254923D01*
X645319Y255055D01*
D02*
G37*
G36*
X412000Y248464D02*
Y245500D01*
X414964D01*
X414910Y245914D01*
X414557Y246765D01*
X413996Y247496D01*
X413265Y248057D01*
X412414Y248410D01*
X412000Y248464D01*
D02*
G37*
G36*
X411000D02*
X410586Y248410D01*
X409735Y248057D01*
X409004Y247496D01*
X408443Y246765D01*
X408090Y245914D01*
X408036Y245500D01*
X411000D01*
Y248464D01*
D02*
G37*
G36*
X433500Y247464D02*
Y244500D01*
X436464D01*
X436410Y244914D01*
X436057Y245765D01*
X435496Y246496D01*
X434765Y247057D01*
X433914Y247410D01*
X433500Y247464D01*
D02*
G37*
G36*
X432500D02*
X432086Y247410D01*
X431235Y247057D01*
X430504Y246496D01*
X429943Y245765D01*
X429590Y244914D01*
X429536Y244500D01*
X432500D01*
Y247464D01*
D02*
G37*
G36*
X489795Y243990D02*
Y242295D01*
X491490D01*
X491415Y242673D01*
X490917Y243417D01*
X490173Y243915D01*
X489795Y243990D01*
D02*
G37*
G36*
X488795D02*
X488417Y243915D01*
X487673Y243417D01*
X487176Y242673D01*
X487101Y242295D01*
X488795D01*
Y243990D01*
D02*
G37*
G36*
X656500Y249620D02*
X655501Y249488D01*
X654570Y249102D01*
X653771Y248489D01*
X653157Y247690D01*
X652772Y246759D01*
X652640Y245760D01*
X652772Y244761D01*
X653157Y243830D01*
X653771Y243031D01*
X654570Y242417D01*
X655501Y242032D01*
X656500Y241900D01*
X657499Y242032D01*
X658430Y242417D01*
X659229Y243031D01*
X659843Y243830D01*
X660228Y244761D01*
X660360Y245760D01*
X660228Y246759D01*
X659843Y247690D01*
X659229Y248489D01*
X658430Y249102D01*
X657499Y249488D01*
X656500Y249620D01*
D02*
G37*
G36*
X414964Y244500D02*
X412000D01*
Y241536D01*
X412414Y241590D01*
X413265Y241943D01*
X413996Y242504D01*
X414557Y243235D01*
X414910Y244086D01*
X414964Y244500D01*
D02*
G37*
G36*
X411000D02*
X408036D01*
X408090Y244086D01*
X408443Y243235D01*
X409004Y242504D01*
X409735Y241943D01*
X410586Y241590D01*
X411000Y241536D01*
Y244500D01*
D02*
G37*
G36*
X436464Y243500D02*
X433500D01*
Y240536D01*
X433914Y240590D01*
X434765Y240943D01*
X435496Y241504D01*
X436057Y242235D01*
X436410Y243086D01*
X436464Y243500D01*
D02*
G37*
G36*
X432500D02*
X429536D01*
X429590Y243086D01*
X429943Y242235D01*
X430504Y241504D01*
X431235Y240943D01*
X432086Y240590D01*
X432500Y240536D01*
Y243500D01*
D02*
G37*
G36*
X491490Y241295D02*
X489795D01*
Y239601D01*
X490173Y239676D01*
X490917Y240173D01*
X491415Y240917D01*
X491490Y241295D01*
D02*
G37*
G36*
X488795D02*
X487101D01*
X487176Y240917D01*
X487673Y240173D01*
X488417Y239676D01*
X488795Y239601D01*
Y241295D01*
D02*
G37*
G36*
X645319Y244185D02*
X644320Y244053D01*
X643389Y243668D01*
X642590Y243054D01*
X641976Y242255D01*
X641591Y241324D01*
X641459Y240325D01*
X641591Y239326D01*
X641976Y238395D01*
X642590Y237596D01*
X643389Y236982D01*
X644320Y236596D01*
X645319Y236465D01*
X646318Y236596D01*
X647249Y236982D01*
X648048Y237596D01*
X648662Y238395D01*
X649047Y239326D01*
X649179Y240325D01*
X649047Y241324D01*
X648662Y242255D01*
X648048Y243054D01*
X647249Y243668D01*
X646318Y244053D01*
X645319Y244185D01*
D02*
G37*
G36*
X656500Y238750D02*
X655501Y238618D01*
X654570Y238232D01*
X653771Y237619D01*
X653157Y236820D01*
X652772Y235889D01*
X652640Y234890D01*
X652772Y233891D01*
X653157Y232960D01*
X653771Y232160D01*
X654570Y231547D01*
X655501Y231161D01*
X656500Y231030D01*
X657499Y231161D01*
X658430Y231547D01*
X659229Y232160D01*
X659843Y232960D01*
X660228Y233891D01*
X660360Y234890D01*
X660228Y235889D01*
X659843Y236820D01*
X659229Y237619D01*
X658430Y238232D01*
X657499Y238618D01*
X656500Y238750D01*
D02*
G37*
G36*
X645319Y233314D02*
X644320Y233183D01*
X643389Y232797D01*
X642590Y232184D01*
X641976Y231385D01*
X641591Y230454D01*
X641459Y229455D01*
X641591Y228456D01*
X641976Y227525D01*
X642590Y226725D01*
X643389Y226112D01*
X644320Y225727D01*
X645319Y225595D01*
X646318Y225727D01*
X647249Y226112D01*
X648048Y226725D01*
X648662Y227525D01*
X649047Y228456D01*
X649179Y229455D01*
X649047Y230454D01*
X648662Y231385D01*
X648048Y232184D01*
X647249Y232797D01*
X646318Y233183D01*
X645319Y233314D01*
D02*
G37*
G36*
X656500Y227880D02*
X655501Y227748D01*
X654570Y227362D01*
X653771Y226749D01*
X653157Y225950D01*
X652772Y225019D01*
X652640Y224020D01*
X652772Y223021D01*
X653157Y222090D01*
X653771Y221290D01*
X654570Y220677D01*
X655501Y220291D01*
X656500Y220160D01*
X657499Y220291D01*
X658430Y220677D01*
X659229Y221290D01*
X659843Y222090D01*
X660228Y223021D01*
X660360Y224020D01*
X660228Y225019D01*
X659843Y225950D01*
X659229Y226749D01*
X658430Y227362D01*
X657499Y227748D01*
X656500Y227880D01*
D02*
G37*
G36*
X492500Y220695D02*
X492122Y220620D01*
X491378Y220122D01*
X490881Y219378D01*
X490805Y219000D01*
X492500D01*
Y220695D01*
D02*
G37*
G36*
X488000D02*
Y219000D01*
X489695D01*
X489619Y219378D01*
X489122Y220122D01*
X488378Y220620D01*
X488000Y220695D01*
D02*
G37*
G36*
X487000D02*
X486622Y220620D01*
X485878Y220122D01*
X485381Y219378D01*
X485305Y219000D01*
X487000D01*
Y220695D01*
D02*
G37*
G36*
X492500Y218000D02*
X490805D01*
X490881Y217622D01*
X491378Y216878D01*
X492122Y216381D01*
X492500Y216305D01*
Y218000D01*
D02*
G37*
G36*
X489695D02*
X488000D01*
Y216305D01*
X488378Y216381D01*
X489122Y216878D01*
X489619Y217622D01*
X489695Y218000D01*
D02*
G37*
G36*
X487000D02*
X485305D01*
X485381Y217622D01*
X485878Y216878D01*
X486622Y216381D01*
X487000Y216305D01*
Y218000D01*
D02*
G37*
G36*
X645319Y222444D02*
X644320Y222313D01*
X643389Y221927D01*
X642590Y221314D01*
X641976Y220514D01*
X641591Y219584D01*
X641459Y218585D01*
X641591Y217586D01*
X641976Y216655D01*
X642590Y215855D01*
X643389Y215242D01*
X644320Y214856D01*
X645319Y214725D01*
X646318Y214856D01*
X647249Y215242D01*
X648048Y215855D01*
X648662Y216655D01*
X649047Y217586D01*
X649179Y218585D01*
X649047Y219584D01*
X648662Y220514D01*
X648048Y221314D01*
X647249Y221927D01*
X646318Y222313D01*
X645319Y222444D01*
D02*
G37*
G36*
X612713Y217586D02*
Y214622D01*
X615677D01*
X615623Y215036D01*
X615270Y215887D01*
X614709Y216618D01*
X613978Y217179D01*
X613126Y217532D01*
X612713Y217586D01*
D02*
G37*
G36*
X611713D02*
X611299Y217532D01*
X610448Y217179D01*
X609716Y216618D01*
X609155Y215887D01*
X608803Y215036D01*
X608748Y214622D01*
X611713D01*
Y217586D01*
D02*
G37*
G36*
X402000Y215464D02*
Y212500D01*
X404964D01*
X404910Y212914D01*
X404557Y213765D01*
X403996Y214496D01*
X403265Y215057D01*
X402414Y215410D01*
X402000Y215464D01*
D02*
G37*
G36*
X401000D02*
X400586Y215410D01*
X399735Y215057D01*
X399004Y214496D01*
X398443Y213765D01*
X398090Y212914D01*
X398036Y212500D01*
X401000D01*
Y215464D01*
D02*
G37*
G36*
X448500Y213964D02*
Y211000D01*
X451464D01*
X451410Y211414D01*
X451057Y212265D01*
X450496Y212996D01*
X449765Y213557D01*
X448914Y213910D01*
X448500Y213964D01*
D02*
G37*
G36*
X447500D02*
X447086Y213910D01*
X446235Y213557D01*
X445504Y212996D01*
X444943Y212265D01*
X444590Y211414D01*
X444536Y211000D01*
X447500D01*
Y213964D01*
D02*
G37*
G36*
X615677Y213622D02*
X612713D01*
Y210658D01*
X613126Y210712D01*
X613978Y211065D01*
X614709Y211626D01*
X615270Y212357D01*
X615623Y213208D01*
X615677Y213622D01*
D02*
G37*
G36*
X611713D02*
X608748D01*
X608803Y213208D01*
X609155Y212357D01*
X609716Y211626D01*
X610448Y211065D01*
X611299Y210712D01*
X611713Y210658D01*
Y213622D01*
D02*
G37*
G36*
X656500Y217009D02*
X655501Y216878D01*
X654570Y216492D01*
X653771Y215879D01*
X653157Y215079D01*
X652772Y214149D01*
X652640Y213150D01*
X652772Y212151D01*
X653157Y211220D01*
X653771Y210420D01*
X654570Y209807D01*
X655501Y209421D01*
X656500Y209290D01*
X657499Y209421D01*
X658430Y209807D01*
X659229Y210420D01*
X659843Y211220D01*
X660228Y212151D01*
X660360Y213150D01*
X660228Y214149D01*
X659843Y215079D01*
X659229Y215879D01*
X658430Y216492D01*
X657499Y216878D01*
X656500Y217009D01*
D02*
G37*
G36*
X404964Y211500D02*
X402000D01*
Y208536D01*
X402414Y208590D01*
X403265Y208943D01*
X403996Y209504D01*
X404557Y210235D01*
X404910Y211086D01*
X404964Y211500D01*
D02*
G37*
G36*
X401000D02*
X398036D01*
X398090Y211086D01*
X398443Y210235D01*
X399004Y209504D01*
X399735Y208943D01*
X400586Y208590D01*
X401000Y208536D01*
Y211500D01*
D02*
G37*
G36*
X542000Y210964D02*
Y208000D01*
X544964D01*
X544910Y208414D01*
X544557Y209265D01*
X543996Y209996D01*
X543265Y210557D01*
X542414Y210910D01*
X542000Y210964D01*
D02*
G37*
G36*
X541000D02*
X540586Y210910D01*
X539735Y210557D01*
X539004Y209996D01*
X538443Y209265D01*
X538090Y208414D01*
X538036Y208000D01*
X541000D01*
Y210964D01*
D02*
G37*
G36*
X451464Y210000D02*
X448500D01*
Y207036D01*
X448914Y207090D01*
X449765Y207443D01*
X450496Y208004D01*
X451057Y208735D01*
X451410Y209586D01*
X451464Y210000D01*
D02*
G37*
G36*
X447500D02*
X444536D01*
X444590Y209586D01*
X444943Y208735D01*
X445504Y208004D01*
X446235Y207443D01*
X447086Y207090D01*
X447500Y207036D01*
Y210000D01*
D02*
G37*
G36*
X422000Y212026D02*
X421217Y211923D01*
X420487Y211620D01*
X419860Y211140D01*
X419380Y210513D01*
X419077Y209783D01*
X418974Y209000D01*
X419077Y208217D01*
X419380Y207487D01*
X419860Y206860D01*
X420487Y206380D01*
X421217Y206077D01*
X422000Y205974D01*
X422783Y206077D01*
X423513Y206380D01*
X424140Y206860D01*
X424620Y207487D01*
X424923Y208217D01*
X425026Y209000D01*
X424923Y209783D01*
X424620Y210513D01*
X424140Y211140D01*
X423513Y211620D01*
X422783Y211923D01*
X422000Y212026D01*
D02*
G37*
G36*
X544964Y207000D02*
X542000D01*
Y204036D01*
X542414Y204090D01*
X543265Y204443D01*
X543996Y205004D01*
X544557Y205735D01*
X544910Y206586D01*
X544964Y207000D01*
D02*
G37*
G36*
X541000D02*
X538036D01*
X538090Y206586D01*
X538443Y205735D01*
X539004Y205004D01*
X539735Y204443D01*
X540586Y204090D01*
X541000Y204036D01*
Y207000D01*
D02*
G37*
G36*
X377500Y206964D02*
Y204000D01*
X380464D01*
X380410Y204414D01*
X380057Y205265D01*
X379496Y205996D01*
X378765Y206557D01*
X377914Y206910D01*
X377500Y206964D01*
D02*
G37*
G36*
X376500D02*
X376086Y206910D01*
X375235Y206557D01*
X374504Y205996D01*
X373943Y205265D01*
X373590Y204414D01*
X373536Y204000D01*
X376500D01*
Y206964D01*
D02*
G37*
G36*
X645319Y211574D02*
X644320Y211443D01*
X643389Y211057D01*
X642590Y210444D01*
X641976Y209645D01*
X641591Y208714D01*
X641459Y207715D01*
X641591Y206716D01*
X641976Y205785D01*
X642590Y204985D01*
X643389Y204372D01*
X644320Y203986D01*
X645319Y203855D01*
X646318Y203986D01*
X647249Y204372D01*
X648048Y204985D01*
X648662Y205785D01*
X649047Y206716D01*
X649179Y207715D01*
X649047Y208714D01*
X648662Y209645D01*
X648048Y210444D01*
X647249Y211057D01*
X646318Y211443D01*
X645319Y211574D01*
D02*
G37*
G36*
X631500Y205464D02*
Y202500D01*
X634464D01*
X634410Y202914D01*
X634057Y203765D01*
X633496Y204496D01*
X632765Y205057D01*
X631914Y205410D01*
X631500Y205464D01*
D02*
G37*
G36*
X630500D02*
X630086Y205410D01*
X629235Y205057D01*
X628504Y204496D01*
X627943Y203765D01*
X627590Y202914D01*
X627536Y202500D01*
X630500D01*
Y205464D01*
D02*
G37*
G36*
X493500Y220695D02*
Y218500D01*
Y216305D01*
X493878Y216381D01*
X494622Y216878D01*
X495000Y217443D01*
X495528Y217493D01*
X495578Y217478D01*
X495738Y217238D01*
X495980Y217077D01*
Y204423D01*
X495738Y204262D01*
X495352Y203683D01*
X495216Y203000D01*
X495352Y202317D01*
X495738Y201738D01*
X496317Y201351D01*
X497000Y201216D01*
X497683Y201351D01*
X498262Y201738D01*
X498649Y202317D01*
X498784Y203000D01*
X498649Y203683D01*
X498262Y204262D01*
X498020Y204423D01*
Y217077D01*
X498262Y217238D01*
X498649Y217817D01*
X498784Y218500D01*
X498649Y219183D01*
X498262Y219762D01*
X497683Y220148D01*
X497000Y220284D01*
X496317Y220148D01*
X495738Y219762D01*
X495578Y219522D01*
X495528Y219507D01*
X495000Y219557D01*
X494622Y220122D01*
X493878Y220620D01*
X493500Y220695D01*
D02*
G37*
G36*
X401500Y206526D02*
X400717Y206423D01*
X399987Y206120D01*
X399360Y205640D01*
X398880Y205013D01*
X398577Y204283D01*
X398474Y203500D01*
X398577Y202717D01*
X398880Y201987D01*
X399360Y201360D01*
X399987Y200880D01*
X400717Y200577D01*
X401500Y200474D01*
X402283Y200577D01*
X403013Y200880D01*
X403640Y201360D01*
X404120Y201987D01*
X404423Y202717D01*
X404526Y203500D01*
X404423Y204283D01*
X404120Y205013D01*
X403640Y205640D01*
X403013Y206120D01*
X402283Y206423D01*
X401500Y206526D01*
D02*
G37*
G36*
X380464Y203000D02*
X377500D01*
Y200036D01*
X377914Y200090D01*
X378765Y200443D01*
X379496Y201004D01*
X380057Y201735D01*
X380410Y202586D01*
X380464Y203000D01*
D02*
G37*
G36*
X376500D02*
X373536D01*
X373590Y202586D01*
X373943Y201735D01*
X374504Y201004D01*
X375235Y200443D01*
X376086Y200090D01*
X376500Y200036D01*
Y203000D01*
D02*
G37*
G36*
X448000Y206026D02*
X447217Y205923D01*
X446487Y205621D01*
X445860Y205140D01*
X445379Y204513D01*
X445077Y203783D01*
X444974Y203000D01*
X445077Y202217D01*
X445379Y201487D01*
X445860Y200860D01*
X446487Y200379D01*
X447217Y200077D01*
X448000Y199974D01*
X448783Y200077D01*
X449513Y200379D01*
X450140Y200860D01*
X450621Y201487D01*
X450923Y202217D01*
X451026Y203000D01*
X450923Y203783D01*
X450621Y204513D01*
X450140Y205140D01*
X449513Y205621D01*
X448783Y205923D01*
X448000Y206026D01*
D02*
G37*
G36*
X634464Y201500D02*
X631500D01*
Y198536D01*
X631914Y198590D01*
X632765Y198943D01*
X633496Y199504D01*
X634057Y200235D01*
X634410Y201086D01*
X634464Y201500D01*
D02*
G37*
G36*
X630500D02*
X627536D01*
X627590Y201086D01*
X627943Y200235D01*
X628504Y199504D01*
X629235Y198943D01*
X630086Y198590D01*
X630500Y198536D01*
Y201500D01*
D02*
G37*
G36*
X656500Y206139D02*
X655501Y206008D01*
X654570Y205622D01*
X653771Y205009D01*
X653157Y204209D01*
X652772Y203278D01*
X652640Y202279D01*
X652772Y201280D01*
X653157Y200350D01*
X653771Y199550D01*
X654570Y198937D01*
X655501Y198551D01*
X656500Y198420D01*
X657499Y198551D01*
X658430Y198937D01*
X659229Y199550D01*
X659843Y200350D01*
X660228Y201280D01*
X660360Y202279D01*
X660228Y203278D01*
X659843Y204209D01*
X659229Y205009D01*
X658430Y205622D01*
X657499Y206008D01*
X656500Y206139D01*
D02*
G37*
G36*
X457500Y200964D02*
Y198000D01*
X460464D01*
X460410Y198414D01*
X460057Y199265D01*
X459496Y199996D01*
X458765Y200557D01*
X457914Y200910D01*
X457500Y200964D01*
D02*
G37*
G36*
X456500D02*
X456086Y200910D01*
X455235Y200557D01*
X454504Y199996D01*
X453943Y199265D01*
X453590Y198414D01*
X453536Y198000D01*
X456500D01*
Y200964D01*
D02*
G37*
G36*
X415500D02*
Y198000D01*
X418464D01*
X418410Y198414D01*
X418057Y199265D01*
X417496Y199996D01*
X416765Y200557D01*
X415914Y200910D01*
X415500Y200964D01*
D02*
G37*
G36*
X414500D02*
X414086Y200910D01*
X413235Y200557D01*
X412504Y199996D01*
X411943Y199265D01*
X411590Y198414D01*
X411536Y198000D01*
X414500D01*
Y200964D01*
D02*
G37*
G36*
X460464Y197000D02*
X457500D01*
Y194036D01*
X457914Y194090D01*
X458765Y194443D01*
X459496Y195004D01*
X460057Y195735D01*
X460410Y196586D01*
X460464Y197000D01*
D02*
G37*
G36*
X456500D02*
X453536D01*
X453590Y196586D01*
X453943Y195735D01*
X454504Y195004D01*
X455235Y194443D01*
X456086Y194090D01*
X456500Y194036D01*
Y197000D01*
D02*
G37*
G36*
X418464D02*
X415500D01*
Y194036D01*
X415914Y194090D01*
X416765Y194443D01*
X417496Y195004D01*
X418057Y195735D01*
X418410Y196586D01*
X418464Y197000D01*
D02*
G37*
G36*
X414500D02*
X411536D01*
X411590Y196586D01*
X411943Y195735D01*
X412504Y195004D01*
X413235Y194443D01*
X414086Y194090D01*
X414500Y194036D01*
Y197000D01*
D02*
G37*
G36*
X645319Y200704D02*
X644320Y200573D01*
X643389Y200187D01*
X642590Y199574D01*
X641976Y198774D01*
X641591Y197844D01*
X641459Y196844D01*
X641591Y195845D01*
X641976Y194915D01*
X642590Y194115D01*
X643389Y193502D01*
X644320Y193116D01*
X645319Y192985D01*
X646318Y193116D01*
X647249Y193502D01*
X648048Y194115D01*
X648662Y194915D01*
X649047Y195845D01*
X649179Y196844D01*
X649047Y197844D01*
X648662Y198774D01*
X648048Y199574D01*
X647249Y200187D01*
X646318Y200573D01*
X645319Y200704D01*
D02*
G37*
G36*
X657000Y195708D02*
Y191909D01*
X660798D01*
X660715Y192539D01*
X660279Y193591D01*
X659586Y194495D01*
X658682Y195189D01*
X657629Y195625D01*
X657000Y195708D01*
D02*
G37*
G36*
X656000D02*
X655371Y195625D01*
X654318Y195189D01*
X653414Y194495D01*
X652721Y193591D01*
X652285Y192539D01*
X652202Y191909D01*
X656000D01*
Y195708D01*
D02*
G37*
G36*
X542000Y193464D02*
Y190500D01*
X544964D01*
X544910Y190914D01*
X544557Y191765D01*
X543996Y192496D01*
X543265Y193057D01*
X542414Y193410D01*
X542000Y193464D01*
D02*
G37*
G36*
X541000D02*
X540586Y193410D01*
X539735Y193057D01*
X539004Y192496D01*
X538443Y191765D01*
X538090Y190914D01*
X538036Y190500D01*
X541000D01*
Y193464D01*
D02*
G37*
G36*
X660798Y190909D02*
X657000D01*
Y187111D01*
X657629Y187194D01*
X658682Y187630D01*
X659586Y188324D01*
X660279Y189227D01*
X660715Y190280D01*
X660798Y190909D01*
D02*
G37*
G36*
X656000D02*
X652202D01*
X652285Y190280D01*
X652721Y189227D01*
X653414Y188324D01*
X654318Y187630D01*
X655371Y187194D01*
X656000Y187111D01*
Y190909D01*
D02*
G37*
G36*
X544964Y189500D02*
X542000D01*
Y186536D01*
X542414Y186590D01*
X543265Y186943D01*
X543996Y187504D01*
X544557Y188235D01*
X544910Y189086D01*
X544964Y189500D01*
D02*
G37*
G36*
X541000D02*
X538036D01*
X538090Y189086D01*
X538443Y188235D01*
X539004Y187504D01*
X539735Y186943D01*
X540586Y186590D01*
X541000Y186536D01*
Y189500D01*
D02*
G37*
G36*
X645819Y190273D02*
Y186474D01*
X649617D01*
X649534Y187104D01*
X649098Y188156D01*
X648405Y189060D01*
X647501Y189754D01*
X646448Y190190D01*
X645819Y190273D01*
D02*
G37*
G36*
X644819D02*
X644189Y190190D01*
X643137Y189754D01*
X642233Y189060D01*
X641539Y188156D01*
X641104Y187104D01*
X641021Y186474D01*
X644819D01*
Y190273D01*
D02*
G37*
G36*
X649617Y185474D02*
X645819D01*
Y181676D01*
X646448Y181759D01*
X647501Y182195D01*
X648405Y182888D01*
X649098Y183792D01*
X649534Y184845D01*
X649617Y185474D01*
D02*
G37*
G36*
X644819D02*
X641021D01*
X641104Y184845D01*
X641539Y183792D01*
X642233Y182888D01*
X643137Y182195D01*
X644189Y181759D01*
X644819Y181676D01*
Y185474D01*
D02*
G37*
G36*
X610000Y181964D02*
Y179000D01*
X612964D01*
X612910Y179414D01*
X612557Y180265D01*
X611996Y180996D01*
X611265Y181557D01*
X610414Y181910D01*
X610000Y181964D01*
D02*
G37*
G36*
X609000D02*
X608586Y181910D01*
X607735Y181557D01*
X607004Y180996D01*
X606443Y180265D01*
X606090Y179414D01*
X606036Y179000D01*
X609000D01*
Y181964D01*
D02*
G37*
G36*
X599000D02*
Y179000D01*
X601964D01*
X601910Y179414D01*
X601557Y180265D01*
X600996Y180996D01*
X600265Y181557D01*
X599414Y181910D01*
X599000Y181964D01*
D02*
G37*
G36*
X598000D02*
X597586Y181910D01*
X596735Y181557D01*
X596004Y180996D01*
X595443Y180265D01*
X595090Y179414D01*
X595036Y179000D01*
X598000D01*
Y181964D01*
D02*
G37*
G36*
X612964Y178000D02*
X610000D01*
Y175036D01*
X610414Y175090D01*
X611265Y175443D01*
X611996Y176004D01*
X612557Y176735D01*
X612910Y177586D01*
X612964Y178000D01*
D02*
G37*
G36*
X609000D02*
X606036D01*
X606090Y177586D01*
X606443Y176735D01*
X607004Y176004D01*
X607735Y175443D01*
X608586Y175090D01*
X609000Y175036D01*
Y178000D01*
D02*
G37*
G36*
X601964D02*
X599000D01*
Y175036D01*
X599414Y175090D01*
X600265Y175443D01*
X600996Y176004D01*
X601557Y176735D01*
X601910Y177586D01*
X601964Y178000D01*
D02*
G37*
G36*
X598000D02*
X595036D01*
X595090Y177586D01*
X595443Y176735D01*
X596004Y176004D01*
X596735Y175443D01*
X597586Y175090D01*
X598000Y175036D01*
Y178000D01*
D02*
G37*
G36*
X620000Y174964D02*
Y172000D01*
X622964D01*
X622910Y172414D01*
X622557Y173265D01*
X621996Y173996D01*
X621265Y174557D01*
X620414Y174910D01*
X620000Y174964D01*
D02*
G37*
G36*
X619000D02*
X618586Y174910D01*
X617735Y174557D01*
X617004Y173996D01*
X616443Y173265D01*
X616090Y172414D01*
X616036Y172000D01*
X619000D01*
Y174964D01*
D02*
G37*
G36*
X541876Y171687D02*
Y168722D01*
X544840D01*
X544786Y169136D01*
X544433Y169988D01*
X543872Y170719D01*
X543141Y171280D01*
X542290Y171632D01*
X541876Y171687D01*
D02*
G37*
G36*
X540876D02*
X540462Y171632D01*
X539611Y171280D01*
X538880Y170719D01*
X538319Y169988D01*
X537966Y169136D01*
X537912Y168722D01*
X540876D01*
Y171687D01*
D02*
G37*
G36*
X622964Y171000D02*
X620000D01*
Y168036D01*
X620414Y168090D01*
X621265Y168443D01*
X621996Y169004D01*
X622557Y169735D01*
X622910Y170586D01*
X622964Y171000D01*
D02*
G37*
G36*
X619000D02*
X616036D01*
X616090Y170586D01*
X616443Y169735D01*
X617004Y169004D01*
X617735Y168443D01*
X618586Y168090D01*
X619000Y168036D01*
Y171000D01*
D02*
G37*
G36*
X375000Y169964D02*
Y167000D01*
X377964D01*
X377910Y167414D01*
X377557Y168265D01*
X376996Y168996D01*
X376265Y169557D01*
X375414Y169910D01*
X375000Y169964D01*
D02*
G37*
G36*
X374000D02*
X373586Y169910D01*
X372735Y169557D01*
X372004Y168996D01*
X371443Y168265D01*
X371090Y167414D01*
X371036Y167000D01*
X374000D01*
Y169964D01*
D02*
G37*
G36*
X463500Y169464D02*
Y166500D01*
X466464D01*
X466410Y166914D01*
X466057Y167765D01*
X465496Y168496D01*
X464765Y169057D01*
X463914Y169410D01*
X463500Y169464D01*
D02*
G37*
G36*
X462500D02*
X462086Y169410D01*
X461235Y169057D01*
X460504Y168496D01*
X459943Y167765D01*
X459590Y166914D01*
X459536Y166500D01*
X462500D01*
Y169464D01*
D02*
G37*
G36*
X420547Y169464D02*
Y166500D01*
X423512D01*
X423457Y166914D01*
X423104Y167765D01*
X422543Y168496D01*
X421812Y169057D01*
X420961Y169410D01*
X420547Y169464D01*
D02*
G37*
G36*
X419547D02*
X419134Y169410D01*
X418282Y169057D01*
X417551Y168496D01*
X416990Y167765D01*
X416637Y166914D01*
X416583Y166500D01*
X419547D01*
Y169464D01*
D02*
G37*
G36*
X570000Y168026D02*
X569217Y167923D01*
X568487Y167621D01*
X567860Y167140D01*
X567380Y166513D01*
X567077Y165783D01*
X567011Y165283D01*
X567002Y165213D01*
X566498D01*
X566489Y165283D01*
X566423Y165783D01*
X566120Y166513D01*
X565640Y167140D01*
X565013Y167621D01*
X564283Y167923D01*
X563500Y168026D01*
X562717Y167923D01*
X561987Y167621D01*
X561360Y167140D01*
X560880Y166513D01*
X560577Y165783D01*
X560474Y165000D01*
X560577Y164217D01*
X560880Y163487D01*
X561360Y162860D01*
X561971Y162392D01*
Y156717D01*
X561737Y156621D01*
X561110Y156140D01*
X560630Y155513D01*
X560327Y154783D01*
X560224Y154000D01*
X560327Y153217D01*
X560630Y152487D01*
X561110Y151860D01*
X561737Y151380D01*
X562467Y151077D01*
X563250Y150974D01*
X564033Y151077D01*
X564763Y151380D01*
X565390Y151860D01*
X565871Y152487D01*
X566173Y153217D01*
X566276Y154000D01*
X566173Y154783D01*
X565871Y155513D01*
X565390Y156140D01*
X565029Y156416D01*
Y162392D01*
X565640Y162860D01*
X566120Y163487D01*
X566423Y164217D01*
X566489Y164717D01*
X566498Y164787D01*
X567002D01*
X567011Y164717D01*
X567077Y164217D01*
X567380Y163487D01*
X567860Y162860D01*
X568471Y162392D01*
Y156608D01*
X567860Y156140D01*
X567380Y155513D01*
X567077Y154783D01*
X566974Y154000D01*
X567077Y153217D01*
X567380Y152487D01*
X567860Y151860D01*
X568487Y151380D01*
X569217Y151077D01*
X570000Y150974D01*
X570783Y151077D01*
X571513Y151380D01*
X572140Y151860D01*
X572620Y152487D01*
X572923Y153217D01*
X573026Y154000D01*
X572923Y154783D01*
X572620Y155513D01*
X572140Y156140D01*
X571529Y156608D01*
Y162392D01*
X572140Y162860D01*
X572620Y163487D01*
X572923Y164217D01*
X573026Y165000D01*
X572923Y165783D01*
X572620Y166513D01*
X572140Y167140D01*
X571513Y167621D01*
X570783Y167923D01*
X570000Y168026D01*
D02*
G37*
G36*
X544840Y167722D02*
X541876D01*
Y164758D01*
X542290Y164813D01*
X543141Y165165D01*
X543872Y165726D01*
X544433Y166457D01*
X544786Y167309D01*
X544840Y167722D01*
D02*
G37*
G36*
X540876D02*
X537912D01*
X537966Y167309D01*
X538319Y166457D01*
X538880Y165726D01*
X539611Y165165D01*
X540462Y164813D01*
X540876Y164758D01*
Y167722D01*
D02*
G37*
G36*
X377964Y166000D02*
X375000D01*
Y163036D01*
X375414Y163090D01*
X376265Y163443D01*
X376996Y164004D01*
X377557Y164735D01*
X377910Y165586D01*
X377964Y166000D01*
D02*
G37*
G36*
X374000D02*
X371036D01*
X371090Y165586D01*
X371443Y164735D01*
X372004Y164004D01*
X372735Y163443D01*
X373586Y163090D01*
X374000Y163036D01*
Y166000D01*
D02*
G37*
G36*
X466464Y165500D02*
X463500D01*
Y162536D01*
X463914Y162590D01*
X464765Y162943D01*
X465496Y163504D01*
X466057Y164235D01*
X466410Y165086D01*
X466464Y165500D01*
D02*
G37*
G36*
X462500D02*
X459536D01*
X459590Y165086D01*
X459943Y164235D01*
X460504Y163504D01*
X461235Y162943D01*
X462086Y162590D01*
X462500Y162536D01*
Y165500D01*
D02*
G37*
G36*
X423512Y165500D02*
X420547D01*
Y162536D01*
X420961Y162590D01*
X421812Y162943D01*
X422543Y163504D01*
X423104Y164235D01*
X423457Y165086D01*
X423512Y165500D01*
D02*
G37*
G36*
X419547D02*
X416583D01*
X416637Y165086D01*
X416990Y164235D01*
X417551Y163504D01*
X418282Y162943D01*
X419134Y162590D01*
X419547Y162536D01*
Y165500D01*
D02*
G37*
G36*
X651409Y168936D02*
Y159073D01*
X661272D01*
X661184Y160200D01*
X660803Y161787D01*
X660178Y163295D01*
X659325Y164687D01*
X658265Y165928D01*
X657024Y166988D01*
X655632Y167841D01*
X654124Y168466D01*
X652537Y168847D01*
X651409Y168936D01*
D02*
G37*
G36*
X650409D02*
X649282Y168847D01*
X647695Y168466D01*
X646187Y167841D01*
X644795Y166988D01*
X643554Y165928D01*
X642494Y164687D01*
X641641Y163295D01*
X641016Y161787D01*
X640635Y160200D01*
X640547Y159073D01*
X650409D01*
Y168936D01*
D02*
G37*
G36*
X549000Y168026D02*
X548217Y167923D01*
X547487Y167621D01*
X546860Y167140D01*
X546380Y166513D01*
X546077Y165783D01*
X545974Y165000D01*
X546077Y164217D01*
X546380Y163487D01*
X546860Y162860D01*
X547471Y162392D01*
Y157108D01*
X546860Y156640D01*
X546380Y156013D01*
X546077Y155283D01*
X545974Y154500D01*
X546077Y153717D01*
X546380Y152987D01*
X546860Y152360D01*
X547487Y151880D01*
X548217Y151577D01*
X549000Y151474D01*
X549783Y151577D01*
X550513Y151880D01*
X551140Y152360D01*
X551620Y152987D01*
X551923Y153717D01*
X552026Y154500D01*
X551923Y155283D01*
X551620Y156013D01*
X551140Y156640D01*
X550529Y157108D01*
Y162392D01*
X551140Y162860D01*
X551620Y163487D01*
X551923Y164217D01*
X552026Y165000D01*
X551923Y165783D01*
X551620Y166513D01*
X551140Y167140D01*
X550513Y167621D01*
X549783Y167923D01*
X549000Y168026D01*
D02*
G37*
G36*
X577500D02*
X576717Y167923D01*
X575987Y167621D01*
X575360Y167140D01*
X574880Y166513D01*
X574577Y165783D01*
X574474Y165000D01*
X574577Y164217D01*
X574880Y163487D01*
X575360Y162860D01*
X575971Y162392D01*
Y156608D01*
X575360Y156140D01*
X574880Y155513D01*
X574577Y154783D01*
X574474Y154000D01*
X574577Y153217D01*
X574880Y152487D01*
X575360Y151860D01*
X575987Y151380D01*
X576717Y151077D01*
X577500Y150974D01*
X578283Y151077D01*
X579013Y151380D01*
X579640Y151860D01*
X580121Y152487D01*
X580423Y153217D01*
X580526Y154000D01*
X580423Y154783D01*
X580121Y155513D01*
X579640Y156140D01*
X579029Y156608D01*
Y162392D01*
X579640Y162860D01*
X580121Y163487D01*
X580423Y164217D01*
X580526Y165000D01*
X580423Y165783D01*
X580121Y166513D01*
X579640Y167140D01*
X579013Y167621D01*
X578283Y167923D01*
X577500Y168026D01*
D02*
G37*
G36*
X556500D02*
X555717Y167923D01*
X554987Y167621D01*
X554360Y167140D01*
X553879Y166513D01*
X553577Y165783D01*
X553474Y165000D01*
X553577Y164217D01*
X553879Y163487D01*
X554360Y162860D01*
X554971Y162392D01*
Y156608D01*
X554360Y156140D01*
X553879Y155513D01*
X553577Y154783D01*
X553474Y154000D01*
X553577Y153217D01*
X553879Y152487D01*
X554360Y151860D01*
X554987Y151380D01*
X555717Y151077D01*
X556500Y150974D01*
X557283Y151077D01*
X558013Y151380D01*
X558640Y151860D01*
X559121Y152487D01*
X559423Y153217D01*
X559526Y154000D01*
X559423Y154783D01*
X559121Y155513D01*
X558640Y156140D01*
X558029Y156608D01*
Y162392D01*
X558640Y162860D01*
X559121Y163487D01*
X559423Y164217D01*
X559526Y165000D01*
X559423Y165783D01*
X559121Y166513D01*
X558640Y167140D01*
X558013Y167621D01*
X557283Y167923D01*
X556500Y168026D01*
D02*
G37*
G36*
X597000Y170533D02*
X595352Y170403D01*
X593745Y170017D01*
X592218Y169385D01*
X590809Y168521D01*
X589552Y167448D01*
X588479Y166191D01*
X587615Y164782D01*
X586983Y163255D01*
X586597Y161648D01*
X586468Y160000D01*
X586597Y158352D01*
X586983Y156745D01*
X587615Y155218D01*
X588479Y153809D01*
X589552Y152552D01*
X590809Y151479D01*
X592218Y150616D01*
X593745Y149983D01*
X595352Y149597D01*
X597000Y149468D01*
X598648Y149597D01*
X600255Y149983D01*
X601782Y150616D01*
X603191Y151479D01*
X604448Y152552D01*
X605521Y153809D01*
X606385Y155218D01*
X607017Y156745D01*
X607403Y158352D01*
X607533Y160000D01*
X607403Y161648D01*
X607017Y163255D01*
X606385Y164782D01*
X605521Y166191D01*
X604448Y167448D01*
X603191Y168521D01*
X601782Y169385D01*
X600255Y170017D01*
X598648Y170403D01*
X597000Y170533D01*
D02*
G37*
G36*
X650409Y158073D02*
X640547D01*
X640635Y156946D01*
X641016Y155358D01*
X641641Y153850D01*
X642494Y152459D01*
X643554Y151217D01*
X644795Y150157D01*
X646187Y149304D01*
X647695Y148680D01*
X649282Y148299D01*
X650409Y148210D01*
Y158073D01*
D02*
G37*
G36*
X661272D02*
X651409D01*
Y148210D01*
X652537Y148299D01*
X654124Y148680D01*
X655632Y149304D01*
X657024Y150157D01*
X658265Y151217D01*
X659325Y152459D01*
X660178Y153850D01*
X660803Y155358D01*
X661184Y156946D01*
X661272Y158073D01*
D02*
G37*
%LPD*%
D13*
X523669Y254500D02*
X537500D01*
X524000Y269000D02*
X537500D01*
X524069Y259000D02*
X537000D01*
X537500Y259500D01*
X515000Y289000D02*
Y295000D01*
X493500Y254000D02*
X505500D01*
X524000Y264500D02*
X524000Y264500D01*
X537500D01*
X493500Y259000D02*
X505000D01*
D58*
X497000Y203000D02*
Y218500D01*
X452500Y286500D02*
X458500D01*
X534500Y330000D02*
X555500D01*
X527000Y288500D02*
X547500D01*
D60*
X549000Y154500D02*
Y165000D01*
X556500Y154000D02*
Y165000D01*
X563500Y154250D02*
Y165000D01*
X563250Y154000D02*
X563500Y154250D01*
X570000Y154000D02*
Y165000D01*
X577500Y154000D02*
Y165000D01*
D64*
X645319Y185974D02*
D03*
X656500Y191409D02*
D03*
X645319Y196844D02*
D03*
X656500Y202279D02*
D03*
X645319Y207715D02*
D03*
X656500Y213150D02*
D03*
X645319Y218585D02*
D03*
X656500Y224020D02*
D03*
X645319Y229455D02*
D03*
X656500Y234890D02*
D03*
X645319Y240325D02*
D03*
X656500Y245760D02*
D03*
X645319Y251195D02*
D03*
X656500Y256630D02*
D03*
X645319Y262065D02*
D03*
X656500Y267500D02*
D03*
X645319Y272935D02*
D03*
X656500Y278370D02*
D03*
X645319Y283805D02*
D03*
X656500Y289240D02*
D03*
X645319Y294675D02*
D03*
X656500Y300110D02*
D03*
X645319Y305545D02*
D03*
X656500Y310980D02*
D03*
D65*
X645319Y316415D02*
D03*
D66*
X650910Y343817D02*
D03*
Y158573D02*
D03*
D67*
X542000Y341500D02*
D03*
X532000D02*
D03*
X552000D02*
D03*
X562000D02*
D03*
X572000D02*
D03*
X582000D02*
D03*
X446500Y338226D02*
D03*
X456500D02*
D03*
X466500D02*
D03*
X476500D02*
D03*
X486500D02*
D03*
D68*
X522000Y341500D02*
D03*
X496500Y338226D02*
D03*
D69*
X461500Y301500D02*
D03*
X458500Y286500D02*
D03*
X497000Y203000D02*
D03*
X547500Y288500D02*
D03*
X534500Y330000D02*
D03*
X527000Y288500D02*
D03*
X555500Y330000D02*
D03*
X515000Y295000D02*
D03*
X452500Y286500D02*
D03*
X523669Y254500D02*
D03*
X537500D02*
D03*
Y269000D02*
D03*
X524000D02*
D03*
X524069Y259000D02*
D03*
X537500Y259500D02*
D03*
X445500Y285000D02*
D03*
X509000Y302000D02*
D03*
X515000Y289000D02*
D03*
X505500Y254000D02*
D03*
X524000Y264500D02*
D03*
X537500Y264500D02*
D03*
X505000Y259000D02*
D03*
X493500Y254000D02*
D03*
X489295Y241795D02*
D03*
X497000Y218500D02*
D03*
X493500Y259000D02*
D03*
X463705Y276205D02*
D03*
X487500Y218500D02*
D03*
X493000D02*
D03*
X507500Y282000D02*
D03*
X469500Y300697D02*
D03*
X438500Y327744D02*
D03*
D70*
X631000Y202000D02*
D03*
X448000Y203000D02*
D03*
X422000Y209000D02*
D03*
X401500Y203500D02*
D03*
X541500Y207500D02*
D03*
X549000Y165000D02*
D03*
Y154500D02*
D03*
X556500Y165000D02*
D03*
Y154000D02*
D03*
X563500Y165000D02*
D03*
X563250Y154000D02*
D03*
X570000Y165000D02*
D03*
Y154000D02*
D03*
X577500D02*
D03*
Y165000D02*
D03*
X612213Y214122D02*
D03*
X619500Y171500D02*
D03*
X377000Y203500D02*
D03*
X561000Y269000D02*
D03*
X630500Y275500D02*
D03*
X611500Y292000D02*
D03*
X557000Y288000D02*
D03*
X598500Y178500D02*
D03*
X448000Y210500D02*
D03*
X359500Y314500D02*
D03*
X401500Y212000D02*
D03*
X411500Y245000D02*
D03*
X411000Y261500D02*
D03*
Y277500D02*
D03*
X412000Y293500D02*
D03*
X411000Y310000D02*
D03*
X457000Y197500D02*
D03*
X415000D02*
D03*
X411000Y324500D02*
D03*
X420047Y166000D02*
D03*
X374500Y166500D02*
D03*
X463000Y166000D02*
D03*
X584500Y310000D02*
D03*
X609500Y178500D02*
D03*
X541376Y168222D02*
D03*
X541500Y190000D02*
D03*
X412000Y338500D02*
D03*
X433000Y244000D02*
D03*
D71*
X364000Y342000D02*
D03*
X613000Y344000D02*
D03*
X597000Y160000D02*
D03*
M02*
