G04*
G04 #@! TF.GenerationSoftware,Altium Limited,Altium Designer,19.1.8 (144)*
G04*
G04 Layer_Physical_Order=1*
G04 Layer_Color=255*
%FSLAX25Y25*%
%MOIN*%
G70*
G01*
G75*
%ADD12C,0.01000*%
%ADD14C,0.00600*%
%ADD43R,0.02756X0.03543*%
%ADD44R,0.03543X0.02756*%
G04:AMPARAMS|DCode=45|XSize=23.62mil|YSize=64.96mil|CornerRadius=2.01mil|HoleSize=0mil|Usage=FLASHONLY|Rotation=180.000|XOffset=0mil|YOffset=0mil|HoleType=Round|Shape=RoundedRectangle|*
%AMROUNDEDRECTD45*
21,1,0.02362,0.06095,0,0,180.0*
21,1,0.01961,0.06496,0,0,180.0*
1,1,0.00402,-0.00980,0.03047*
1,1,0.00402,0.00980,0.03047*
1,1,0.00402,0.00980,-0.03047*
1,1,0.00402,-0.00980,-0.03047*
%
%ADD45ROUNDEDRECTD45*%
%ADD46R,0.05906X0.03937*%
%ADD47R,0.03150X0.03543*%
%ADD48R,0.04724X0.09843*%
%ADD49R,0.11811X0.27559*%
%ADD50R,0.03740X0.02165*%
%ADD51R,0.03543X0.03150*%
%ADD52R,0.03150X0.03150*%
%ADD53R,0.08465X0.12795*%
%ADD54R,0.08465X0.03937*%
%ADD55R,0.06496X0.07874*%
%ADD56R,0.03937X0.05906*%
%ADD57R,0.03740X0.02362*%
%ADD58R,0.01200X0.04700*%
%ADD59R,0.04700X0.01200*%
%ADD60C,0.00800*%
%ADD61C,0.02000*%
%ADD62C,0.03000*%
%ADD63C,0.01200*%
%ADD64C,0.02500*%
%ADD65C,0.00700*%
%ADD66C,0.06000*%
%ADD67R,0.06000X0.06000*%
%ADD68C,0.06653*%
%ADD69R,0.06653X0.06653*%
%ADD70C,0.18740*%
%ADD71C,0.05906*%
%ADD72R,0.05906X0.05906*%
%ADD73C,0.02500*%
%ADD74C,0.05000*%
%ADD75C,0.20000*%
G36*
X604500Y296000D02*
Y280500D01*
X608500Y276500D01*
X615500D01*
X616000Y276000D01*
Y274000D01*
X615500Y273500D01*
X611000Y273500D01*
X609000Y271500D01*
X605000Y271500D01*
X604000Y270500D01*
Y268000D01*
X603500Y267500D01*
X591000D01*
X590000Y268500D01*
Y295500D01*
X591000Y296500D01*
X604000D01*
X604500Y296000D01*
D02*
G37*
D12*
X461039Y289980D02*
X461736D01*
X505500Y296500D02*
X505547Y296453D01*
Y292000D02*
Y296453D01*
X527000Y320272D02*
Y327000D01*
X527000Y320272D02*
X527000Y320272D01*
X511453Y298953D02*
X527000Y314500D01*
Y320272D01*
X511453Y292000D02*
Y298953D01*
X521728Y292000D02*
X522000Y291728D01*
X511453Y292000D02*
X521728D01*
X505772Y288728D02*
X513500Y281000D01*
X505772Y288728D02*
Y291776D01*
X505547Y292000D02*
X505772Y291776D01*
X499500Y292000D02*
X505547D01*
X496500Y295000D02*
X499500Y292000D01*
X496500Y295000D02*
Y317774D01*
X513500Y277453D02*
Y281000D01*
X527000Y327000D02*
X527000Y327000D01*
X557000Y320272D02*
Y327000D01*
X552000Y285000D02*
Y291728D01*
X513500Y277453D02*
X523000D01*
X466000Y203000D02*
X509000D01*
X444500Y224500D02*
X466000Y203000D01*
X444500Y224500D02*
Y241500D01*
Y244047D01*
X489295Y236362D02*
Y241795D01*
X496834Y317834D02*
X496894Y317774D01*
X509000Y203000D02*
X514014Y197986D01*
Y189876D02*
Y197986D01*
X521319Y292681D02*
X522000Y293362D01*
Y291728D02*
X527000D01*
Y285000D02*
Y291728D01*
X493000Y228756D02*
X493197D01*
X396500Y173500D02*
X417500D01*
X463705Y276205D02*
Y281638D01*
X444689Y250142D02*
X453862D01*
D14*
X629000Y253000D02*
X634500Y258500D01*
X551500Y253000D02*
X629000D01*
X536500Y268000D02*
X551500Y253000D01*
X629500Y249000D02*
X638500Y258000D01*
X546000Y249000D02*
X629500D01*
X536500Y258500D02*
X546000Y249000D01*
X473606Y287606D02*
Y290047D01*
X630500Y247000D02*
X640500Y257000D01*
X544500Y247000D02*
X630500D01*
X537250Y254250D02*
X544500Y247000D01*
X516000Y289000D02*
X518000D01*
X527500Y279500D01*
Y271000D02*
Y279500D01*
Y271000D02*
X528500Y270000D01*
Y245500D02*
Y270000D01*
X516000Y295000D02*
Y296000D01*
X532000Y312000D01*
X505000Y259000D02*
X526000D01*
X536062Y254250D02*
X537250D01*
X506750D02*
X526000D01*
X506000Y255000D02*
X506750Y254250D01*
X548387Y251000D02*
X629500D01*
X536387Y263000D02*
X548387Y251000D01*
X525500Y263000D02*
Y267000D01*
X523000Y269500D02*
X525500Y267000D01*
X524453Y261953D02*
X525500Y263000D01*
X499138Y261953D02*
X524453D01*
X542953Y278000D02*
X543250Y278297D01*
X547000Y278500D02*
Y291728D01*
X546547Y278047D02*
X547000Y278500D01*
X543500Y278047D02*
X546547D01*
X537000Y285953D02*
Y291728D01*
Y285953D02*
X538453Y284500D01*
X538500Y278000D02*
X542953D01*
X533500Y273000D02*
X538500Y278000D01*
X532000Y284500D02*
Y291728D01*
X533500Y241500D02*
Y273000D01*
X532047Y320319D02*
Y327500D01*
X532000Y320272D02*
X532047Y320319D01*
X552000Y326547D02*
X552000Y326547D01*
X552000Y320272D02*
Y326547D01*
X529600Y270900D02*
Y301100D01*
Y270900D02*
X530500Y270000D01*
Y244500D02*
Y270000D01*
X503000Y217000D02*
X530500Y244500D01*
X502500Y219500D02*
X528500Y245500D01*
X552000Y314500D02*
Y320272D01*
X529600Y301100D02*
X536500Y308000D01*
X511000Y209500D02*
X544500Y243000D01*
X469500Y209500D02*
X511000D01*
X465673Y213327D02*
X469500Y209500D01*
X509500Y211500D02*
X543000Y245000D01*
X470500Y211500D02*
X509500D01*
X467642Y214358D02*
X470500Y211500D01*
X465673Y213327D02*
Y236362D01*
X467642Y214358D02*
Y236362D01*
X468000Y206500D02*
X529953D01*
X457800Y216700D02*
X468000Y206500D01*
X457800Y216700D02*
Y238800D01*
X543000Y245000D02*
X632000D01*
X544500Y243000D02*
X637124D01*
X632000Y245000D02*
X643630Y256630D01*
X637124Y243000D02*
X645319Y251195D01*
X636500Y270000D02*
Y285000D01*
X634500Y268000D02*
X636500Y270000D01*
X634500Y258500D02*
Y268000D01*
X636500Y285000D02*
X640740Y289240D01*
X656500D01*
X636500Y267000D02*
X639500Y270000D01*
X636500Y258000D02*
Y267000D01*
X629500Y251000D02*
X636500Y258000D01*
X639500Y277986D02*
X645319Y283805D01*
X639500Y270000D02*
Y277986D01*
X640500Y257000D02*
Y263500D01*
X638500Y258000D02*
Y266116D01*
X645319Y272935D01*
X640500Y263500D02*
X644500Y267500D01*
X656500D01*
X643630Y256630D02*
X656500D01*
X523000Y269500D02*
Y271547D01*
X471500Y285500D02*
X473606Y287606D01*
X471500Y281716D02*
Y285500D01*
X480500Y288500D02*
Y290047D01*
X478500Y286500D02*
X480500Y288500D01*
X474734Y286500D02*
X478500D01*
X473547Y285314D02*
X474734Y286500D01*
X473547Y281638D02*
Y285314D01*
X471500Y281716D02*
X471579Y281638D01*
X473606Y290047D02*
X474000D01*
X471579Y275921D02*
Y281638D01*
X473547D02*
X473647Y277835D01*
X481500Y286500D02*
X484000D01*
X479500Y284500D02*
X481500Y286500D01*
X479500Y281685D02*
Y284500D01*
X479453Y281638D02*
X479500Y281685D01*
X484000Y286500D02*
X487500Y290000D01*
Y303500D01*
X481000Y310000D02*
X487500Y303500D01*
X465500Y310000D02*
X481000D01*
X461500Y314000D02*
X465500Y310000D01*
X461500Y314000D02*
Y318500D01*
X459274Y320726D02*
X461500Y318500D01*
X456921Y254079D02*
X460000Y251000D01*
Y244000D02*
Y251000D01*
X481000Y219500D02*
X502500D01*
X480500Y217000D02*
X503000D01*
X475516Y221984D02*
X480500Y217000D01*
X475516Y221984D02*
Y236362D01*
X473547Y220953D02*
X475000Y219500D01*
X473547Y220953D02*
Y236362D01*
X506000Y214000D02*
X533500Y241500D01*
X532000Y243000D02*
Y284500D01*
X504500Y215500D02*
X532000Y243000D01*
X492500Y255000D02*
X494000D01*
X471579Y275921D02*
X492500Y255000D01*
X520000Y266500D02*
X522500D01*
X517421Y263921D02*
X520000Y266500D01*
X513500Y263921D02*
X517421D01*
X499138D02*
X513500D01*
X513500Y271547D02*
X513500Y271547D01*
Y263921D02*
Y271547D01*
X474500Y215500D02*
X504500D01*
X473000Y214000D02*
X506000D01*
X469610Y217390D02*
X473000Y214000D01*
X469610Y217390D02*
Y236362D01*
X532000Y312000D02*
Y320272D01*
X493500Y272000D02*
Y316000D01*
Y272000D02*
X495673Y269827D01*
X488726Y320774D02*
X493500Y316000D01*
X491264Y281638D02*
Y313451D01*
X486894Y317821D02*
X491264Y313451D01*
X476132Y317774D02*
X479132Y320774D01*
X466500Y317774D02*
X476132D01*
X545500Y308000D02*
X552000Y314500D01*
X536500Y308000D02*
X545500D01*
X471579Y218421D02*
X474500Y215500D01*
X471579Y218421D02*
Y236362D01*
X453226Y320726D02*
X459274D01*
X450274Y317774D02*
X453226Y320726D01*
X446500Y317774D02*
X450274D01*
X473647Y277835D02*
X493500Y259000D01*
X479132Y320774D02*
X488726D01*
X495673Y269827D02*
X499138D01*
X453862Y254079D02*
X456921D01*
X486500Y317821D02*
X486894D01*
D43*
X511453Y292000D02*
D03*
X505547D02*
D03*
X529953Y201500D02*
D03*
X524047D02*
D03*
X626953Y262000D02*
D03*
X621047D02*
D03*
X613406Y262000D02*
D03*
X607500D02*
D03*
X417453Y197500D02*
D03*
X411547D02*
D03*
X463000Y197500D02*
D03*
X457094D02*
D03*
X537953Y327500D02*
D03*
X532047D02*
D03*
X586760Y214122D02*
D03*
X592665D02*
D03*
X532547Y284000D02*
D03*
X538453D02*
D03*
D44*
X552000Y326547D02*
D03*
Y332453D02*
D03*
X496500Y317774D02*
D03*
Y323679D02*
D03*
X486500Y317821D02*
D03*
Y323726D02*
D03*
X466500Y317774D02*
D03*
Y323679D02*
D03*
X456500Y317774D02*
D03*
Y323679D02*
D03*
X446500Y317774D02*
D03*
Y323679D02*
D03*
X543500Y278047D02*
D03*
Y283953D02*
D03*
X473500Y167047D02*
D03*
Y172953D02*
D03*
X427500Y167547D02*
D03*
Y173453D02*
D03*
X467500Y290047D02*
D03*
Y295953D02*
D03*
X444500Y249953D02*
D03*
Y244047D02*
D03*
X433000Y255453D02*
D03*
Y249547D02*
D03*
X480500Y295953D02*
D03*
Y290047D02*
D03*
X523000Y277453D02*
D03*
Y271547D02*
D03*
X474000Y295953D02*
D03*
Y290047D02*
D03*
X513500Y277453D02*
D03*
Y271547D02*
D03*
D45*
X522000Y291728D02*
D03*
X527000D02*
D03*
X532000D02*
D03*
X537000D02*
D03*
X542000D02*
D03*
X547000D02*
D03*
X552000D02*
D03*
X557000D02*
D03*
X522000Y320272D02*
D03*
X527000D02*
D03*
X532000D02*
D03*
X537000D02*
D03*
X542000D02*
D03*
X547000D02*
D03*
X552000D02*
D03*
X557000D02*
D03*
D46*
X442047Y185500D02*
D03*
X463047D02*
D03*
Y173000D02*
D03*
X442047D02*
D03*
X396500Y186000D02*
D03*
X417500D02*
D03*
Y173500D02*
D03*
X396500D02*
D03*
D47*
X535744Y201500D02*
D03*
X541256D02*
D03*
X567244Y262000D02*
D03*
X572756D02*
D03*
X607744Y257000D02*
D03*
X613256D02*
D03*
X404756Y197500D02*
D03*
X399244D02*
D03*
X622756Y285000D02*
D03*
X617244D02*
D03*
X449303Y197500D02*
D03*
X443791D02*
D03*
X572744Y303000D02*
D03*
X578256D02*
D03*
X521744Y333000D02*
D03*
X527256D02*
D03*
X592256Y179000D02*
D03*
X586744D02*
D03*
X624256Y205000D02*
D03*
X618744D02*
D03*
D48*
X523856Y189876D02*
D03*
X533699D02*
D03*
X514014D02*
D03*
Y168222D02*
D03*
X533699D02*
D03*
X523856D02*
D03*
D49*
X597205Y282000D02*
D03*
X572795D02*
D03*
D50*
X624217Y271260D02*
D03*
Y275000D02*
D03*
Y278740D02*
D03*
X613784D02*
D03*
Y275000D02*
D03*
Y271260D02*
D03*
D51*
X506500Y271744D02*
D03*
Y277256D02*
D03*
X445500Y274744D02*
D03*
Y280256D02*
D03*
X505500Y297244D02*
D03*
Y302756D02*
D03*
X438500Y317488D02*
D03*
Y323000D02*
D03*
X439000Y249744D02*
D03*
Y255256D02*
D03*
X626000Y176756D02*
D03*
Y171244D02*
D03*
X461500Y290744D02*
D03*
Y296256D02*
D03*
X487500Y228756D02*
D03*
Y223244D02*
D03*
X493000Y228756D02*
D03*
Y223244D02*
D03*
X607500Y273756D02*
D03*
Y268244D02*
D03*
D52*
X603666Y214122D02*
D03*
X597760D02*
D03*
D53*
X586484Y196000D02*
D03*
D54*
X609516Y205055D02*
D03*
Y196000D02*
D03*
Y186945D02*
D03*
D55*
X622500Y301520D02*
D03*
Y316480D02*
D03*
D56*
X418500Y317500D02*
D03*
Y338500D02*
D03*
X431000D02*
D03*
Y317500D02*
D03*
D57*
X394677Y306500D02*
D03*
X404323Y310240D02*
D03*
Y302760D02*
D03*
X394677Y290000D02*
D03*
X404323Y293740D02*
D03*
Y286260D02*
D03*
X394677Y274000D02*
D03*
X404323Y277740D02*
D03*
Y270260D02*
D03*
X394677Y258000D02*
D03*
X404323Y261740D02*
D03*
Y254260D02*
D03*
X394677Y241500D02*
D03*
X404323Y245240D02*
D03*
Y237760D02*
D03*
D58*
X461736Y281638D02*
D03*
X463705D02*
D03*
X465673D02*
D03*
X467642D02*
D03*
X469610D02*
D03*
X471579D02*
D03*
X473547D02*
D03*
X475516D02*
D03*
X477484D02*
D03*
X479453D02*
D03*
X481421D02*
D03*
X483390D02*
D03*
X485358D02*
D03*
X487327D02*
D03*
X489295D02*
D03*
X491264D02*
D03*
Y236362D02*
D03*
X489295D02*
D03*
X487327D02*
D03*
X485358D02*
D03*
X483390D02*
D03*
X481421D02*
D03*
X479453D02*
D03*
X477484D02*
D03*
X475516D02*
D03*
X473547D02*
D03*
X471579D02*
D03*
X469610D02*
D03*
X467642D02*
D03*
X465673D02*
D03*
X463705D02*
D03*
X461736D02*
D03*
D59*
X499138Y273764D02*
D03*
Y271795D02*
D03*
Y269827D02*
D03*
Y267858D02*
D03*
Y265890D02*
D03*
Y263921D02*
D03*
Y261953D02*
D03*
Y259984D02*
D03*
Y258016D02*
D03*
Y256047D02*
D03*
Y254079D02*
D03*
Y252110D02*
D03*
Y250142D02*
D03*
Y248173D02*
D03*
Y246205D02*
D03*
Y244236D02*
D03*
X453862D02*
D03*
Y246205D02*
D03*
Y248173D02*
D03*
Y250142D02*
D03*
Y252110D02*
D03*
Y254079D02*
D03*
Y256047D02*
D03*
Y258016D02*
D03*
Y259984D02*
D03*
Y261953D02*
D03*
Y263921D02*
D03*
Y265890D02*
D03*
Y267858D02*
D03*
Y269827D02*
D03*
Y271795D02*
D03*
Y273764D02*
D03*
D60*
X445500Y273744D02*
X453842D01*
X428516Y258016D02*
X453862D01*
X426016Y255516D02*
X428516Y258016D01*
X426016Y208984D02*
Y255516D01*
X425984Y259984D02*
X453862D01*
X422500Y256500D02*
X425984Y259984D01*
X422500Y209000D02*
Y256500D01*
X429697Y205303D02*
X449303D01*
X426016Y208984D02*
X429697Y205303D01*
X418453Y204953D02*
X422500Y209000D01*
X411547Y204953D02*
X418453D01*
X411547Y197500D02*
Y204953D01*
X493244Y223000D02*
X498000D01*
X493000Y223244D02*
X493244Y223000D01*
X538000Y321272D02*
Y327500D01*
X537000Y320272D02*
X538000Y321272D01*
Y327500D02*
X552000Y341500D01*
X582000Y334500D02*
Y341500D01*
X552000Y304500D02*
X582000Y334500D01*
X541500Y304500D02*
X552000D01*
X537000Y300000D02*
X541500Y304500D01*
X537000Y291728D02*
Y300000D01*
X544500Y302000D02*
X555517D01*
X542000Y291728D02*
Y299500D01*
X543106Y283953D02*
X543500D01*
X542228Y284831D02*
X543106Y283953D01*
X542228Y284831D02*
Y291500D01*
X542000Y291728D02*
X542228Y291500D01*
X555517Y302000D02*
X589500Y335983D01*
X548953Y332453D02*
X552000D01*
X547000Y330500D02*
X548953Y332453D01*
X547000Y320272D02*
Y330500D01*
X552000Y332453D02*
X561047Y341500D01*
X562000D01*
X449303Y197500D02*
Y205303D01*
X453842Y273744D02*
X453862Y273764D01*
X424421Y263921D02*
X453862D01*
X418000Y257500D02*
X424421Y263921D01*
X418000Y242000D02*
Y257500D01*
X421642Y267858D02*
X453862D01*
X419240Y270260D02*
X421642Y267858D01*
X404323Y270260D02*
X419240D01*
X430800Y269700D02*
X453735D01*
X414240Y286260D02*
X430800Y269700D01*
X404323Y286260D02*
X414240D01*
X439705Y271795D02*
X453862D01*
X408740Y302760D02*
X439705Y271795D01*
X404323Y302760D02*
X408740D01*
X461500Y290744D02*
X463756Y293000D01*
X474000Y295953D02*
X480500D01*
X470653Y293000D02*
X473606Y295953D01*
X474000D01*
X463756Y293000D02*
X470653D01*
X454274Y317774D02*
X456478D01*
X455500Y294000D02*
Y316796D01*
X456478Y317774D01*
X456500D01*
X455500Y280000D02*
Y288000D01*
Y280000D02*
X459000Y276500D01*
X413760Y237760D02*
X418000Y242000D01*
X404323Y237760D02*
X413760D01*
X467610Y289937D02*
X469610Y287937D01*
X491000Y244500D02*
X492000Y243500D01*
Y241000D02*
Y243500D01*
X491264Y240264D02*
X492000Y241000D01*
X482500Y241500D02*
X485500Y244500D01*
X444500Y241500D02*
X482500D01*
X485500Y244500D02*
X491000D01*
X491264Y236362D02*
Y240264D01*
X461500Y295756D02*
Y301500D01*
X589500Y335983D02*
Y344500D01*
X483000Y223500D02*
X487244D01*
X487500Y223244D01*
X431000Y317500D02*
X438488D01*
X506500Y271744D02*
X507500D01*
X506449Y271795D02*
X506500Y271744D01*
X499138Y271795D02*
X506449D01*
X466500Y323679D02*
Y341226D01*
Y323679D02*
Y323679D01*
X459000Y263500D02*
Y276500D01*
X421390Y265890D02*
X453862D01*
X409760Y254260D02*
X421390Y265890D01*
X404323Y254260D02*
X409760D01*
X445500Y280256D02*
Y285000D01*
X505500Y302756D02*
Y307500D01*
X572000Y341500D02*
X577500Y347000D01*
X587000D01*
X589500Y344500D01*
X542000Y299500D02*
X544500Y302000D01*
X441488Y314500D02*
X451000D01*
X438500Y317488D02*
X441488Y314500D01*
X457094Y197500D02*
X457500Y197906D01*
X439000Y255512D02*
X444988D01*
X448390Y252110D02*
X453862D01*
X444988Y255512D02*
X448390Y252110D01*
X453735Y269700D02*
X453862Y269827D01*
X451000Y314500D02*
X454274Y317774D01*
X438488Y317500D02*
X438500Y317488D01*
X457453Y261953D02*
X459000Y263500D01*
X453862Y261953D02*
X457453D01*
X449303Y197500D02*
X457094D01*
X463047Y185500D02*
Y197453D01*
X442047Y185500D02*
X463047D01*
X442047Y173000D02*
X463047D01*
X404756Y197500D02*
X411547D01*
X417500Y186000D02*
Y197453D01*
X396500Y186000D02*
X417500D01*
X469610Y281638D02*
Y287937D01*
X461736Y281638D02*
Y289980D01*
X491264Y230295D02*
X492803Y228756D01*
X491264Y230295D02*
Y236362D01*
X487327Y228929D02*
Y236362D01*
X506500Y277256D02*
Y282000D01*
X467500Y295953D02*
Y300697D01*
X438500Y323000D02*
Y327744D01*
Y323000D02*
X438500Y323000D01*
X444500Y249953D02*
X444689Y250142D01*
X496500Y341226D02*
X496500Y341226D01*
Y323679D02*
Y341226D01*
X486500Y323726D02*
Y341226D01*
X466500Y323679D02*
X466500Y323679D01*
X456500Y323679D02*
Y341226D01*
Y323679D02*
X456500Y323679D01*
X446500Y323679D02*
Y341226D01*
Y323679D02*
X446500Y323679D01*
D61*
X585000Y177059D02*
X586744Y178803D01*
X461500Y159500D02*
X520177D01*
X594000Y341000D02*
Y345500D01*
Y333000D02*
Y341000D01*
X625500Y177000D02*
X655500D01*
X589500Y350000D02*
X594000Y345500D01*
X540500Y350000D02*
X589500D01*
X532000Y341500D02*
X540500Y350000D01*
X506000Y327000D02*
Y346500D01*
Y346500D02*
X514000Y354500D01*
X592328D01*
X598500Y348328D01*
Y337000D02*
Y348328D01*
X461500Y159500D02*
X461500Y159500D01*
X435744Y159500D02*
X461500D01*
X374000Y306500D02*
X394677D01*
X365500Y298000D02*
X374000Y306500D01*
X365500Y298000D02*
X365500Y154000D01*
X379000Y140500D01*
X571500D01*
X383000Y143500D02*
X566000D01*
X370000Y156500D02*
X383000Y143500D01*
X370000Y156500D02*
Y281500D01*
X378500Y290000D01*
X394677D01*
X382500Y274000D02*
X394677D01*
X374000Y265500D02*
X382500Y274000D01*
X374000Y161500D02*
Y265500D01*
X389000Y146500D02*
X559500D01*
X374000Y161500D02*
X389000Y146500D01*
X378500Y249000D02*
X387500Y258000D01*
X378500Y163500D02*
Y249000D01*
Y163500D02*
X392000Y150000D01*
X552500D01*
X387500Y258000D02*
X394677D01*
X383500Y238500D02*
X386500Y241500D01*
X383500Y165000D02*
Y238500D01*
Y165000D02*
X394000Y154500D01*
X549000D01*
X531000Y333000D02*
X539000D01*
X386500Y241500D02*
X394677D01*
X639774Y235000D02*
X645319Y229455D01*
X563000Y235000D02*
X639774D01*
X632903Y231000D02*
X645319Y218585D01*
X565500Y231000D02*
X632903D01*
X556500Y222000D02*
X565500Y231000D01*
X626033Y227000D02*
X645319Y207715D01*
X570000Y227000D02*
X626033D01*
X563500Y220500D02*
X570000Y227000D01*
X622000Y223500D02*
X634500Y211000D01*
X575500Y223500D02*
X622000D01*
X570000Y218000D02*
X575500Y223500D01*
X619500Y219500D02*
X630500Y208500D01*
X579500Y219500D02*
X619500D01*
X577500Y217500D02*
X579500Y219500D01*
X563500Y165000D02*
Y220500D01*
X570000Y165000D02*
Y218000D01*
X577500Y165000D02*
Y217500D01*
X586760Y196276D02*
Y214122D01*
X639655Y196844D02*
X645319D01*
X634500Y202000D02*
X639655Y196844D01*
X634500Y202000D02*
Y211000D01*
X630500Y198500D02*
Y208500D01*
Y198500D02*
X637500Y191500D01*
X656409D01*
X656500Y191409D01*
X549000Y221000D02*
X563000Y235000D01*
X549000Y165000D02*
Y221000D01*
X556500Y165000D02*
Y222000D01*
X600500Y326500D02*
X654000D01*
X594000Y333000D02*
X600500Y326500D01*
X572744Y311744D02*
X594000Y333000D01*
X572744Y303000D02*
Y311744D01*
X624512Y275000D02*
Y283244D01*
X473500Y159500D02*
Y167047D01*
X427697Y167547D02*
X427894D01*
X427500D02*
X427697D01*
X435744Y159500D01*
X654000Y326500D02*
X666000Y314500D01*
X656500Y331500D02*
X671000Y317000D01*
X604000Y331500D02*
X656500D01*
X598500Y337000D02*
X604000Y331500D01*
X496834Y317834D02*
X506000Y327000D01*
X586484Y196000D02*
X586760Y196276D01*
X586484Y196000D02*
X586744Y195740D01*
Y179000D02*
Y195740D01*
Y178803D02*
Y179000D01*
X586484Y196000D02*
X609516D01*
X586744Y177756D02*
Y178803D01*
X591000Y173500D02*
X604774D01*
X586744Y177756D02*
X591000Y173500D01*
X604774D02*
X611774Y166500D01*
X585000Y164000D02*
Y177059D01*
X580500Y159500D02*
X585000Y164000D01*
X618744Y183756D02*
X625500Y177000D01*
X618744Y183756D02*
Y205000D01*
X552500Y150000D02*
X556500Y154000D01*
X571500Y140500D02*
X577500Y146500D01*
X566000Y143500D02*
X570000Y147500D01*
X559500Y146500D02*
X563250Y150250D01*
Y154000D01*
X570000Y147500D02*
Y154000D01*
X577500Y146500D02*
Y154000D01*
X520177Y159500D02*
X580500D01*
X592476Y214311D02*
X592665Y214122D01*
X671000Y186000D02*
Y317000D01*
X658000Y173000D02*
X671000Y186000D01*
X644000Y173000D02*
X658000D01*
X637500Y166500D02*
X644000Y173000D01*
X611774Y166500D02*
X637500D01*
X666000Y233520D02*
Y314500D01*
X655500Y177000D02*
X666000Y187500D01*
X514014Y165663D02*
X520177Y159500D01*
X609516Y205055D02*
X609543Y205028D01*
X618716D01*
X618744Y205000D01*
X666000Y187500D02*
Y222650D01*
X656500Y213150D02*
X666000Y222650D01*
Y233520D01*
X656500Y224020D02*
X666000Y233520D01*
X624217Y268717D02*
Y271260D01*
X621047Y265547D02*
X624217Y268717D01*
X621047Y262000D02*
Y265547D01*
X622756Y285000D02*
X624512Y283244D01*
X404563Y245000D02*
X411500D01*
X404323Y245240D02*
X404563Y245000D01*
Y261500D02*
X411000D01*
X404323Y261740D02*
X404563Y261500D01*
Y277500D02*
X411000D01*
X404323Y277740D02*
X404563Y277500D01*
Y293500D02*
X412000D01*
X404323Y293740D02*
X404563Y293500D01*
Y310000D02*
X411000D01*
X404323Y310240D02*
X404563Y310000D01*
X473500Y167047D02*
X473894D01*
X514014Y165663D02*
Y168222D01*
Y189876D01*
X532000Y334000D02*
Y341500D01*
X531000Y333000D02*
X532000Y334000D01*
X527256Y333000D02*
X531000D01*
X542000Y336000D02*
Y341500D01*
X539000Y333000D02*
X542000Y336000D01*
X597571Y214311D02*
X597760Y214122D01*
X592665Y214122D02*
X592665Y214122D01*
X609500Y178500D02*
Y186929D01*
D62*
X572795Y262000D02*
Y282000D01*
X613331Y261925D02*
X613406Y262000D01*
X607500D02*
X607622Y261878D01*
X607744Y257000D02*
Y257197D01*
X607622Y257319D02*
X607744Y257197D01*
X613256Y257000D02*
X613331Y257075D01*
Y261500D01*
X607622Y257319D02*
Y261878D01*
X613331Y261500D02*
Y261925D01*
X572744Y282051D02*
Y303000D01*
Y282051D02*
X572795Y282000D01*
X613406Y262000D02*
X621047D01*
X613406Y262000D02*
X613406Y262000D01*
X572756Y262000D02*
X607500D01*
D63*
X522000Y320853D02*
X522581Y320272D01*
X432500Y346500D02*
X506000Y346500D01*
X427500Y346500D02*
X432500D01*
X425000Y344000D02*
X427500Y346500D01*
X558500Y284000D02*
Y290228D01*
X557000Y291728D02*
X558500Y290228D01*
X522000Y327547D02*
X527256Y332803D01*
X522000Y320853D02*
Y327547D01*
X529953Y206500D02*
Y212953D01*
Y201500D02*
Y206500D01*
X446744Y274744D02*
X450500Y278500D01*
X445500Y274744D02*
X446744D01*
X443256D02*
X445500D01*
X425000Y293000D02*
X443256Y274744D01*
X425000Y293000D02*
Y344000D01*
X453244Y290744D02*
X461500D01*
X450500Y288000D02*
X453244Y290744D01*
X557325Y240325D02*
X645319D01*
X529953Y212953D02*
X557325Y240325D01*
X651065D02*
X656500Y245760D01*
X645319Y240325D02*
X651065D01*
X624000Y198000D02*
Y204744D01*
X624256Y205000D01*
X541500Y201744D02*
Y207500D01*
X541256Y201500D02*
X541500Y201744D01*
X592476Y214311D02*
X597571D01*
X619500Y171500D02*
X625744D01*
X626000Y171244D01*
X399000Y197744D02*
Y203500D01*
Y197744D02*
X399244Y197500D01*
X399244Y197500D01*
X561000Y262000D02*
X567244D01*
X630500Y265547D02*
Y268500D01*
X626953Y262000D02*
X630500Y265547D01*
X609980Y268244D02*
X612996Y271260D01*
X607500Y268244D02*
X609980D01*
X612996Y271260D02*
X613784D01*
X611824Y279913D02*
Y284676D01*
X611500Y285000D02*
X611824Y284676D01*
Y279913D02*
X612996Y278740D01*
X613784D01*
X617244Y285000D02*
X617244Y285000D01*
X611500Y285000D02*
X617244D01*
X521744Y333000D02*
Y341244D01*
X557000Y291728D02*
X557000Y291728D01*
X592256Y178500D02*
X598500D01*
X450500Y278500D02*
Y288000D01*
X437000Y197500D02*
X443791D01*
X496500Y317774D02*
X496894D01*
X527256Y332803D02*
Y333000D01*
X411000Y324500D02*
X411500D01*
X418500Y317500D01*
X442047Y166000D02*
Y173000D01*
X396500Y166500D02*
Y173500D01*
X441500Y172453D02*
X442047Y173000D01*
X578256Y303000D02*
X584500D01*
X603666Y214122D02*
X610712D01*
X603666Y214122D02*
X603666Y214122D01*
X603666Y214122D02*
X603787Y214244D01*
X609500Y186929D02*
X609516Y186945D01*
X524047Y190067D02*
Y201500D01*
X523856Y189876D02*
X524047Y190067D01*
X523856Y168222D02*
Y189876D01*
X533699Y168222D02*
X541376D01*
X533823Y190000D02*
X541500D01*
X533699Y189876D02*
X533823Y190000D01*
X412000Y338500D02*
X418500D01*
X431000Y317500D02*
Y338500D01*
X433000Y244000D02*
Y249547D01*
Y244000D02*
X433000Y244000D01*
X433000Y255453D02*
X433030Y255482D01*
X438971D01*
X439000Y255512D01*
Y250000D02*
X439024Y249976D01*
X444476D01*
X444500Y249953D01*
D64*
X622628Y285128D02*
Y301392D01*
X622500Y301520D02*
X622628Y301392D01*
X605250Y308250D02*
X611980Y301520D01*
X605250Y308250D02*
Y314593D01*
X604843Y315000D02*
X605250Y314593D01*
X611980Y301520D02*
X622500D01*
X622628Y285128D02*
X622756Y285000D01*
X622500Y316480D02*
X622565Y316415D01*
X645319D01*
X645403Y316500D02*
X651500D01*
X645319Y316415D02*
X645403Y316500D01*
X651500D02*
X656500Y311500D01*
Y310980D02*
Y311500D01*
D65*
X530346Y201500D02*
X535744D01*
X464032Y185500D02*
X473500Y176031D01*
Y172953D02*
Y176031D01*
X463047Y185500D02*
X464032D01*
X427500Y173453D02*
Y176984D01*
X418484Y186000D02*
X427500Y176984D01*
X417500Y186000D02*
X418484D01*
X463000Y197500D02*
X463047Y197453D01*
X417453Y197500D02*
X417500Y197453D01*
X535744Y201500D02*
X535744Y201500D01*
X467500Y290047D02*
X467610Y289937D01*
X492803Y228756D02*
X493000D01*
X487327Y228929D02*
X487500Y228756D01*
D66*
X595000Y315000D02*
D03*
D67*
X604843D02*
D03*
D68*
X645319Y185974D02*
D03*
X656500Y191409D02*
D03*
X645319Y196844D02*
D03*
X656500Y202279D02*
D03*
X645319Y207715D02*
D03*
X656500Y213150D02*
D03*
X645319Y218585D02*
D03*
X656500Y224020D02*
D03*
X645319Y229455D02*
D03*
X656500Y234890D02*
D03*
X645319Y240325D02*
D03*
X656500Y245760D02*
D03*
X645319Y251195D02*
D03*
X656500Y256630D02*
D03*
X645319Y262065D02*
D03*
X656500Y267500D02*
D03*
X645319Y272935D02*
D03*
X656500Y278370D02*
D03*
X645319Y283805D02*
D03*
X656500Y289240D02*
D03*
X645319Y294675D02*
D03*
X656500Y300110D02*
D03*
X645319Y305545D02*
D03*
X656500Y310980D02*
D03*
D69*
X645319Y316415D02*
D03*
D70*
X650910Y343817D02*
D03*
Y158573D02*
D03*
D71*
X542000Y341500D02*
D03*
X532000D02*
D03*
X552000D02*
D03*
X562000D02*
D03*
X572000D02*
D03*
X582000D02*
D03*
X446500Y341226D02*
D03*
X456500D02*
D03*
X466500D02*
D03*
X476500D02*
D03*
X486500D02*
D03*
D72*
X522000Y341500D02*
D03*
X496500Y341226D02*
D03*
D73*
X516000Y289000D02*
D03*
Y295000D02*
D03*
X536500Y258500D02*
D03*
Y268000D02*
D03*
X526000Y259000D02*
D03*
X536062Y254250D02*
D03*
X526000D02*
D03*
X536387Y263000D02*
D03*
X525500D02*
D03*
X498000Y223000D02*
D03*
X527000Y327000D02*
D03*
X557000D02*
D03*
X552000Y285000D02*
D03*
X455500Y294000D02*
D03*
Y288000D02*
D03*
X457800Y238800D02*
D03*
X460000Y244000D02*
D03*
X489295Y241795D02*
D03*
X481000Y219500D02*
D03*
X475000D02*
D03*
X483000Y223500D02*
D03*
X494000Y255000D02*
D03*
X506000D02*
D03*
X522500Y266500D02*
D03*
X461500Y301500D02*
D03*
X527000Y285000D02*
D03*
X445500Y285000D02*
D03*
X505500Y307500D02*
D03*
X505000Y259000D02*
D03*
X493500D02*
D03*
X463705Y276205D02*
D03*
X506500Y282000D02*
D03*
X467500Y300697D02*
D03*
X438500Y327744D02*
D03*
D74*
X601000Y353500D02*
D03*
X432500Y353000D02*
D03*
Y346500D02*
D03*
X594000Y341000D02*
D03*
X411547Y204953D02*
D03*
X399000Y203500D02*
D03*
X558500Y284000D02*
D03*
X449303Y205303D02*
D03*
X624000Y198000D02*
D03*
X541500Y207500D02*
D03*
X549000Y165000D02*
D03*
Y154500D02*
D03*
X556500Y165000D02*
D03*
Y154000D02*
D03*
X563500Y165000D02*
D03*
X563250Y154000D02*
D03*
X570000Y165000D02*
D03*
Y154000D02*
D03*
X577500D02*
D03*
Y165000D02*
D03*
X612213Y214122D02*
D03*
X619500Y171500D02*
D03*
X561000Y262000D02*
D03*
X630500Y268500D02*
D03*
X611500Y285000D02*
D03*
X598500Y178500D02*
D03*
X369000Y314500D02*
D03*
X411500Y212000D02*
D03*
Y245000D02*
D03*
X411000Y261500D02*
D03*
Y277500D02*
D03*
X412000Y293500D02*
D03*
X411000Y310000D02*
D03*
X437000Y197500D02*
D03*
X411000Y324500D02*
D03*
X442047Y166000D02*
D03*
X396500Y166500D02*
D03*
X584500Y303000D02*
D03*
X609500Y178500D02*
D03*
X541376Y168222D02*
D03*
X541500Y190000D02*
D03*
X412000Y338500D02*
D03*
X433000Y244000D02*
D03*
D75*
X379000Y342000D02*
D03*
X613000Y344000D02*
D03*
X597000Y160000D02*
D03*
M02*
