G04*
G04 #@! TF.GenerationSoftware,Altium Limited,Altium Designer,19.1.7 (138)*
G04*
G04 Layer_Physical_Order=1*
G04 Layer_Color=255*
%FSLAX25Y25*%
%MOIN*%
G70*
G01*
G75*
%ADD13C,0.00600*%
%ADD40R,0.02756X0.03543*%
%ADD41R,0.03150X0.03543*%
%ADD42R,0.04724X0.09843*%
%ADD43R,0.11811X0.27559*%
%ADD44R,0.03740X0.02165*%
%ADD45R,0.03543X0.02756*%
%ADD46R,0.03543X0.03150*%
G04:AMPARAMS|DCode=47|XSize=23.62mil|YSize=64.96mil|CornerRadius=2.01mil|HoleSize=0mil|Usage=FLASHONLY|Rotation=180.000|XOffset=0mil|YOffset=0mil|HoleType=Round|Shape=RoundedRectangle|*
%AMROUNDEDRECTD47*
21,1,0.02362,0.06095,0,0,180.0*
21,1,0.01961,0.06496,0,0,180.0*
1,1,0.00402,-0.00980,0.03047*
1,1,0.00402,0.00980,0.03047*
1,1,0.00402,0.00980,-0.03047*
1,1,0.00402,-0.00980,-0.03047*
%
%ADD47ROUNDEDRECTD47*%
%ADD48R,0.03150X0.03150*%
%ADD49R,0.08465X0.12795*%
%ADD50R,0.08465X0.03937*%
%ADD51R,0.06496X0.07874*%
%ADD52R,0.05906X0.03937*%
%ADD53R,0.03937X0.05906*%
%ADD54R,0.03740X0.02362*%
%ADD55R,0.01200X0.04700*%
%ADD56R,0.04700X0.01200*%
%ADD57C,0.00800*%
%ADD58C,0.01000*%
%ADD59C,0.01200*%
%ADD60C,0.02000*%
%ADD61C,0.03000*%
%ADD62C,0.02500*%
%ADD63C,0.00700*%
%ADD64C,0.06653*%
%ADD65R,0.06653X0.06653*%
%ADD66C,0.18740*%
%ADD67C,0.05906*%
%ADD68R,0.05906X0.05906*%
%ADD69C,0.02500*%
%ADD70C,0.05000*%
%ADD71C,0.20000*%
G36*
X604500Y303000D02*
Y287500D01*
X608500Y283500D01*
X615500D01*
X616000Y283000D01*
Y281000D01*
X615500Y280500D01*
X611000Y280500D01*
X609000Y278500D01*
X605000Y278500D01*
X604000Y277500D01*
Y275000D01*
X603500Y274500D01*
X591000D01*
X590000Y275500D01*
Y302500D01*
X591000Y303500D01*
X604000D01*
X604500Y303000D01*
D02*
G37*
D13*
X547500Y252500D02*
X628000D01*
X507500Y212500D02*
X547500Y252500D01*
X471444Y212500D02*
X507500D01*
X640036Y246500D02*
X644731Y251195D01*
X553000Y246500D02*
X640036D01*
X514500Y208000D02*
X553000Y246500D01*
X630000Y248500D02*
X638130Y256630D01*
X551000Y248500D02*
X630000D01*
X512000Y209500D02*
X551000Y248500D01*
X629000Y250500D02*
X640649Y262148D01*
X549000Y250500D02*
X629000D01*
X509500Y211000D02*
X549000Y250500D01*
X624500Y260500D02*
X634500Y270500D01*
X561500Y260500D02*
X624500D01*
X553000Y269000D02*
X561500Y260500D01*
X625500Y258500D02*
X636000Y269000D01*
X560500Y258500D02*
X625500D01*
X554500Y264500D02*
X560500Y258500D01*
X626500Y256500D02*
X638000Y268000D01*
X558500Y256500D02*
X626500D01*
X555500Y259500D02*
X558500Y256500D01*
X628000Y252500D02*
X643000Y267500D01*
X470000Y211000D02*
X509500D01*
X469000Y209500D02*
X512000D01*
X467500Y208000D02*
X514500D01*
X530000Y201847D02*
X530346Y201500D01*
X466500Y206500D02*
X527500D01*
X458500Y214500D02*
X466500Y206500D01*
X458500Y214500D02*
Y252500D01*
X527500Y206500D02*
X530000Y204000D01*
X634500Y270500D02*
Y283000D01*
X537500Y269000D02*
X553000D01*
X537500Y259500D02*
X555500D01*
X537500Y254500D02*
X626884D01*
X644731Y251195D02*
X645319D01*
X638130Y256630D02*
X656500D01*
X640649Y262148D02*
X645235D01*
X645319Y262065D01*
X643000Y267500D02*
X656500D01*
X467642Y216303D02*
X471444Y212500D01*
X532000Y243000D02*
Y295228D01*
X504500Y215500D02*
X532000Y243000D01*
X474500Y215500D02*
X504500D01*
X534500Y242500D02*
Y279000D01*
X506000Y214000D02*
X534500Y242500D01*
X473000Y214000D02*
X506000D01*
X469610Y217390D02*
X473000Y214000D01*
X469610Y217390D02*
Y236362D01*
X467642Y216303D02*
Y236362D01*
X465673Y215327D02*
X470000Y211000D01*
X463705Y214795D02*
X469000Y209500D01*
X461736Y213764D02*
X467500Y208000D01*
X463705Y214795D02*
Y236362D01*
X465673Y215327D02*
Y236362D01*
X626884Y254500D02*
X645319Y272935D01*
X636000Y274486D02*
X645319Y283805D01*
X636000Y269000D02*
Y274486D01*
X634500Y283000D02*
X640740Y289240D01*
X638000Y268000D02*
Y273000D01*
X643370Y278370D01*
X656500D01*
X537500Y264500D02*
X554500D01*
X640740Y289240D02*
X656500D01*
X515000Y295000D02*
X532000Y312000D01*
Y320272D01*
X493500Y272000D02*
Y316000D01*
Y272000D02*
X495673Y269827D01*
X488726Y320774D02*
X493500Y316000D01*
X523169Y254000D02*
X523669Y254500D01*
X505500Y254000D02*
X523169D01*
X517421Y263921D02*
X522500Y269000D01*
X524000D01*
X505000Y259000D02*
X524069D01*
X491264Y281638D02*
Y313451D01*
X486894Y317821D02*
X491264Y313451D01*
X476132Y317774D02*
X479132Y320774D01*
X466500Y317774D02*
X476132D01*
X515000Y289000D02*
X527000Y277000D01*
Y244000D02*
Y277000D01*
X499138Y263921D02*
X517421D01*
X521453Y261953D02*
X524000Y264500D01*
X499138Y261953D02*
X521453D01*
X525500Y242500D02*
X527000Y244000D01*
X495000Y242500D02*
X525500D01*
X527500Y241000D02*
X529500Y243000D01*
X545500Y308000D02*
X552000Y314500D01*
Y323772D01*
X536500Y308000D02*
X545500D01*
X529500Y301000D02*
X536500Y308000D01*
X529500Y243000D02*
Y301000D01*
X534500Y279000D02*
X547000Y291500D01*
X494000Y241000D02*
X527500D01*
X492000Y245500D02*
X495000Y242500D01*
X479000Y245500D02*
X492000D01*
X473547Y240047D02*
X479000Y245500D01*
X473547Y236362D02*
Y240047D01*
X479845Y243845D02*
X491155D01*
X475516Y239516D02*
X479845Y243845D01*
X475516Y236362D02*
Y239516D01*
X491155Y243845D02*
X494000Y241000D01*
X547000Y291500D02*
Y295228D01*
X471579Y275921D02*
X493500Y254000D01*
X471579Y275921D02*
Y281638D01*
Y218421D02*
X474500Y215500D01*
X471579Y218421D02*
Y236362D01*
X461736Y213764D02*
Y236362D01*
X461500Y315500D02*
Y318500D01*
X459274Y320726D02*
X461500Y318500D01*
X453226Y320726D02*
X459274D01*
X450274Y317774D02*
X453226Y320726D01*
X446500Y317774D02*
X450274D01*
X473547Y278953D02*
X493500Y259000D01*
X473547Y278953D02*
Y281638D01*
X479132Y320774D02*
X488726D01*
X479453Y281638D02*
Y297547D01*
X495673Y269827D02*
X499138D01*
X530000Y201847D02*
Y204000D01*
X456921Y254079D02*
X458500Y252500D01*
X453862Y254079D02*
X456921D01*
X461500Y315500D02*
X479453Y297547D01*
X486500Y317821D02*
X486894D01*
D40*
X529953Y201500D02*
D03*
X524047D02*
D03*
X626953Y269000D02*
D03*
X621047D02*
D03*
X613406Y269000D02*
D03*
X607500D02*
D03*
X395453Y197500D02*
D03*
X389547D02*
D03*
X441000Y197500D02*
D03*
X435094D02*
D03*
X581953Y333000D02*
D03*
X576047D02*
D03*
X586760Y214122D02*
D03*
X592665D02*
D03*
X478047Y197500D02*
D03*
X483953D02*
D03*
X382547Y306500D02*
D03*
X388453D02*
D03*
X382547Y290000D02*
D03*
X388453D02*
D03*
X382047Y274000D02*
D03*
X387953D02*
D03*
X382047Y258000D02*
D03*
X387953D02*
D03*
X382047Y241500D02*
D03*
X387953D02*
D03*
D41*
X535744Y201500D02*
D03*
X541256D02*
D03*
X567244Y269000D02*
D03*
X572756D02*
D03*
X607744Y264000D02*
D03*
X613256D02*
D03*
X622756Y292000D02*
D03*
X617244D02*
D03*
X382756Y197500D02*
D03*
X377244D02*
D03*
X469256D02*
D03*
X463744D02*
D03*
X427303Y197500D02*
D03*
X421791D02*
D03*
X572744Y310000D02*
D03*
X578256D02*
D03*
X521744Y333000D02*
D03*
X527256D02*
D03*
X592256Y179000D02*
D03*
X586744D02*
D03*
X624256Y205000D02*
D03*
X618744D02*
D03*
D42*
X523856Y189876D02*
D03*
X533699D02*
D03*
X514014D02*
D03*
Y168222D02*
D03*
X533699D02*
D03*
X523856D02*
D03*
D43*
X597205Y289000D02*
D03*
X572795D02*
D03*
D44*
X624217Y278260D02*
D03*
Y282000D02*
D03*
Y285740D02*
D03*
X613784D02*
D03*
Y282000D02*
D03*
Y278260D02*
D03*
D45*
X496500Y317774D02*
D03*
Y323679D02*
D03*
X486500Y317821D02*
D03*
Y323726D02*
D03*
X466500Y317774D02*
D03*
Y323679D02*
D03*
X456500Y317774D02*
D03*
Y323679D02*
D03*
X446500Y317774D02*
D03*
Y323679D02*
D03*
X493500Y167047D02*
D03*
Y172953D02*
D03*
X451500Y167047D02*
D03*
Y172953D02*
D03*
X405500Y167547D02*
D03*
Y173453D02*
D03*
X469500Y290047D02*
D03*
Y295953D02*
D03*
X444500Y249953D02*
D03*
Y244047D02*
D03*
X433000Y255453D02*
D03*
Y249547D02*
D03*
D46*
X507500Y271744D02*
D03*
Y277256D02*
D03*
X445500Y274744D02*
D03*
Y280256D02*
D03*
X509000Y291744D02*
D03*
Y297256D02*
D03*
X438500Y317488D02*
D03*
Y323000D02*
D03*
X439000Y249744D02*
D03*
Y255256D02*
D03*
X626000Y176756D02*
D03*
Y171244D02*
D03*
X461500Y290744D02*
D03*
Y296256D02*
D03*
X487500Y228756D02*
D03*
Y223244D02*
D03*
X493000Y228756D02*
D03*
Y223244D02*
D03*
X607500Y280756D02*
D03*
Y275244D02*
D03*
D47*
X557000Y323772D02*
D03*
X552000D02*
D03*
X547000D02*
D03*
X542000D02*
D03*
X537000D02*
D03*
X532000D02*
D03*
X527000D02*
D03*
X522000D02*
D03*
X557000Y295228D02*
D03*
X552000D02*
D03*
X547000D02*
D03*
X542000D02*
D03*
X537000D02*
D03*
X532000D02*
D03*
X527000D02*
D03*
X522000D02*
D03*
D48*
X603666Y214122D02*
D03*
X597760D02*
D03*
D49*
X586484Y196000D02*
D03*
D50*
X609516Y205055D02*
D03*
Y196000D02*
D03*
Y186945D02*
D03*
D51*
X622500Y301520D02*
D03*
Y316480D02*
D03*
D52*
X374500Y186000D02*
D03*
X395500D02*
D03*
Y173500D02*
D03*
X374500D02*
D03*
X420047Y173000D02*
D03*
X441047D02*
D03*
Y185500D02*
D03*
X420047D02*
D03*
X463000Y173000D02*
D03*
X484000D02*
D03*
Y185500D02*
D03*
X463000D02*
D03*
D53*
X418500Y317500D02*
D03*
Y338500D02*
D03*
X431000D02*
D03*
Y317500D02*
D03*
D54*
X394677Y306500D02*
D03*
X404323Y310240D02*
D03*
Y302760D02*
D03*
X394677Y290000D02*
D03*
X404323Y293740D02*
D03*
Y286260D02*
D03*
X394677Y274000D02*
D03*
X404323Y277740D02*
D03*
Y270260D02*
D03*
X394677Y258000D02*
D03*
X404323Y261740D02*
D03*
Y254260D02*
D03*
X394677Y241500D02*
D03*
X404323Y245240D02*
D03*
Y237760D02*
D03*
D55*
X461736Y281638D02*
D03*
X463705D02*
D03*
X465673D02*
D03*
X467642D02*
D03*
X469610D02*
D03*
X471579D02*
D03*
X473547D02*
D03*
X475516D02*
D03*
X477484D02*
D03*
X479453D02*
D03*
X481421D02*
D03*
X483390D02*
D03*
X485358D02*
D03*
X487327D02*
D03*
X489295D02*
D03*
X491264D02*
D03*
Y236362D02*
D03*
X489295D02*
D03*
X487327D02*
D03*
X485358D02*
D03*
X483390D02*
D03*
X481421D02*
D03*
X479453D02*
D03*
X477484D02*
D03*
X475516D02*
D03*
X473547D02*
D03*
X471579D02*
D03*
X469610D02*
D03*
X467642D02*
D03*
X465673D02*
D03*
X463705D02*
D03*
X461736D02*
D03*
D56*
X499138Y273764D02*
D03*
Y271795D02*
D03*
Y269827D02*
D03*
Y267858D02*
D03*
Y265890D02*
D03*
Y263921D02*
D03*
Y261953D02*
D03*
Y259984D02*
D03*
Y258016D02*
D03*
Y256047D02*
D03*
Y254079D02*
D03*
Y252110D02*
D03*
Y250142D02*
D03*
Y248173D02*
D03*
Y246205D02*
D03*
Y244236D02*
D03*
X453862D02*
D03*
Y246205D02*
D03*
Y248173D02*
D03*
Y250142D02*
D03*
Y252110D02*
D03*
Y254079D02*
D03*
Y256047D02*
D03*
Y258016D02*
D03*
Y259984D02*
D03*
Y261953D02*
D03*
Y263921D02*
D03*
Y265890D02*
D03*
Y267858D02*
D03*
Y269827D02*
D03*
Y271795D02*
D03*
Y273764D02*
D03*
D57*
X461500Y295756D02*
Y301500D01*
X448000Y203000D02*
X463756D01*
X437500D02*
X448000D01*
X425000Y215500D02*
X437500Y203000D01*
X463756D02*
X469256Y197500D01*
X425000Y215500D02*
Y255500D01*
X419500Y215500D02*
Y257500D01*
X407500Y203500D02*
X419500Y215500D01*
X401500Y203500D02*
X407500D01*
X422000Y209000D02*
X423000D01*
X427303Y204697D01*
X422000Y209000D02*
Y256500D01*
X427303Y197500D02*
Y204697D01*
X392000Y203500D02*
X401500D01*
X445500Y273744D02*
X453842D01*
X455500Y280000D02*
X459000Y276500D01*
X455500Y316774D02*
X456500Y317774D01*
X455500Y280000D02*
Y316774D01*
X459000Y263500D02*
Y276500D01*
X417000Y258000D02*
X422921Y263921D01*
X417000Y244000D02*
Y258000D01*
X410760Y237760D02*
X417000Y244000D01*
X422921Y263921D02*
X453862D01*
X421390Y265890D02*
X453862D01*
X409760Y254260D02*
X421390Y265890D01*
X404323Y254260D02*
X409760D01*
X404323Y237760D02*
X410760D01*
X445500Y280256D02*
Y285000D01*
X509000Y297256D02*
Y302000D01*
X441488Y314500D02*
X451000D01*
X438500Y317488D02*
X441488Y314500D01*
X419500Y257500D02*
X424000Y262000D01*
X389547Y201047D02*
X392000Y203500D01*
X389547Y197500D02*
Y201047D01*
X463000Y185500D02*
X484000D01*
X483953Y185547D02*
X484937D01*
X493500Y172953D02*
Y176984D01*
X484937Y185547D02*
X493500Y176984D01*
X483953Y185547D02*
X484000Y185500D01*
X483953Y185547D02*
Y197500D01*
X469256D02*
X478047D01*
X435094Y197500D02*
X435500Y197906D01*
X422000Y256500D02*
X425500Y260000D01*
X439000Y255512D02*
X444988D01*
X448390Y252110D02*
X453862D01*
X444988Y255512D02*
X448390Y252110D01*
X427500Y258000D02*
X445080D01*
X425000Y255500D02*
X427500Y258000D01*
X445080D02*
X447032Y256047D01*
X425500Y260000D02*
X446500D01*
X448484Y258016D01*
X424000Y262000D02*
X448000D01*
X450016Y259984D01*
X447032Y256047D02*
X453862D01*
X448484Y258016D02*
X453862D01*
X450016Y259984D02*
X453862D01*
X420142Y267858D02*
X453862D01*
X417740Y270260D02*
X420142Y267858D01*
X404323Y270260D02*
X417740D01*
X441577Y271795D02*
X453862D01*
X410612Y302760D02*
X441577Y271795D01*
X439800Y269700D02*
X453735D01*
X423240Y286260D02*
X439800Y269700D01*
X404323Y286260D02*
X423240D01*
X453735Y269700D02*
X453862Y269827D01*
X404323Y302760D02*
X410612D01*
X454274Y317774D02*
X456500D01*
X451000Y314500D02*
X454274Y317774D01*
X438488Y317500D02*
X438500Y317488D01*
X431000Y317500D02*
X438488D01*
X507449Y271795D02*
X507500Y271744D01*
X499138Y271795D02*
X507449D01*
X457453Y261953D02*
X459000Y263500D01*
X453862Y261953D02*
X457453D01*
X453842Y273744D02*
X453862Y273764D01*
X463000Y173000D02*
X484000D01*
X427303Y197500D02*
X435094D01*
X441047Y185500D02*
Y197453D01*
X420047Y185500D02*
X441047D01*
X420047Y173000D02*
X441047D01*
X382756Y197500D02*
X389547D01*
X395500Y186000D02*
Y197453D01*
X374500Y186000D02*
X395500D01*
X469610Y281638D02*
Y289937D01*
X461736Y281638D02*
Y289980D01*
X491264Y230295D02*
X492803Y228756D01*
X491264Y230295D02*
Y236362D01*
X487327Y228929D02*
Y236362D01*
X487500Y218500D02*
Y223244D01*
X493000Y218500D02*
Y223244D01*
X507500Y277256D02*
Y282000D01*
X469500Y295953D02*
Y300697D01*
X438500Y323000D02*
Y327744D01*
Y323000D02*
X438500Y323000D01*
X444500Y249953D02*
X444689Y250142D01*
X496500Y338226D02*
X496500Y338226D01*
Y323679D02*
Y338226D01*
X486500Y323726D02*
Y338226D01*
X466500Y323679D02*
Y338226D01*
Y323679D02*
X466500Y323679D01*
X456500Y323679D02*
Y338226D01*
Y323679D02*
X456500Y323679D01*
X446500Y323679D02*
Y338226D01*
Y323679D02*
X446500Y323679D01*
D58*
X458500Y286500D02*
X458787Y286787D01*
Y287728D02*
X461039Y289980D01*
X458787Y286787D02*
Y287728D01*
X461039Y289980D02*
X461736D01*
X496894Y317774D02*
X501167Y313500D01*
X496834Y317834D02*
X496894Y317774D01*
X467500Y203000D02*
X497000D01*
X444500Y226000D02*
X467500Y203000D01*
X444500Y226000D02*
Y244047D01*
X497000Y203000D02*
X509000D01*
X514014Y197986D01*
Y189876D02*
Y197986D01*
X518244Y291744D02*
X519181Y292681D01*
X521319D01*
X522000Y293362D01*
Y295228D01*
X527000D01*
X509000Y291744D02*
X518244D01*
X582500Y327500D02*
X589500Y334500D01*
X573500Y327500D02*
X582500D01*
X562000Y316000D02*
X573500Y327500D01*
X555500Y329594D02*
Y330000D01*
X549250Y288500D02*
X552000Y291250D01*
Y295228D01*
X531161Y330000D02*
X534500D01*
X527000Y325838D02*
X531161Y330000D01*
X527000Y288500D02*
Y295228D01*
X557000Y323772D02*
Y328094D01*
X555500Y329594D02*
X557000Y328094D01*
X547500Y288500D02*
X549250D01*
X589500Y334500D02*
Y344500D01*
X527000Y317000D02*
Y322339D01*
X504772Y291728D02*
X504787Y291744D01*
X509000D01*
X523500Y313500D02*
X527000Y317000D01*
X501167Y313500D02*
X523500D01*
X489295Y236362D02*
Y241795D01*
X574000Y333000D02*
X576047D01*
X559000Y318000D02*
X574000Y333000D01*
X559000Y314000D02*
Y318000D01*
X550500Y305500D02*
X559000Y314000D01*
X542000Y305500D02*
X550500D01*
X537000Y300500D02*
X542000Y305500D01*
X537000Y295228D02*
Y300500D01*
X572000Y341500D02*
X577500Y347000D01*
X587000D01*
X589500Y344500D01*
X497000Y218500D02*
Y224953D01*
X547000Y326500D02*
X562000Y341500D01*
X547000Y323772D02*
Y326500D01*
X552000Y340839D02*
Y341500D01*
X537000Y325838D02*
X552000Y340839D01*
X537000Y323772D02*
Y325838D01*
X544500Y302000D02*
X551500D01*
X542000Y299500D02*
X544500Y302000D01*
X542000Y295228D02*
Y299500D01*
X551500Y302000D02*
X562000Y312500D01*
Y316000D01*
X493197Y228756D02*
X497000Y224953D01*
X493000Y228756D02*
X493197D01*
X496500Y300000D02*
Y317774D01*
Y300000D02*
X504772Y291728D01*
X374500Y173500D02*
X395500D01*
X463705Y276205D02*
Y281638D01*
X444689Y250142D02*
X453862D01*
D59*
X626744Y202000D02*
X631000D01*
X624000Y204744D02*
X626744Y202000D01*
X404500Y343500D02*
X407500Y346500D01*
X404500Y322500D02*
Y343500D01*
Y322500D02*
X426000Y301000D01*
X624000Y204744D02*
X624256Y205000D01*
X541500Y201744D02*
Y207500D01*
X541256Y201500D02*
X541500Y201744D01*
X592476Y214311D02*
X597571D01*
X407500Y346500D02*
X506000Y346500D01*
X619500Y171500D02*
X625744D01*
X626000Y171244D01*
X377000Y197744D02*
Y203500D01*
Y197744D02*
X377244Y197500D01*
X377244Y197500D01*
X561000Y269000D02*
X567244D01*
X630500Y272547D02*
Y275500D01*
X626953Y269000D02*
X630500Y272547D01*
X609980Y275244D02*
X612996Y278260D01*
X607500Y275244D02*
X609980D01*
X612996Y278260D02*
X613784D01*
X611824Y286913D02*
Y291676D01*
X611500Y292000D02*
X611824Y291676D01*
Y286913D02*
X612996Y285740D01*
X613784D01*
X617244Y292000D02*
X617244Y292000D01*
X611500Y292000D02*
X617244D01*
X521744Y333000D02*
Y341244D01*
X557000Y295228D02*
X557000Y295228D01*
X557000Y288000D02*
Y295228D01*
X522581Y328128D02*
X527256Y332803D01*
X522581Y324353D02*
Y328128D01*
X592256Y178500D02*
X598500D01*
X450500Y284500D02*
X452500Y286500D01*
X450500Y278500D02*
Y284500D01*
X446744Y274744D02*
X450500Y278500D01*
X445500Y274744D02*
X446744D01*
X426000Y293000D02*
Y301000D01*
X457000Y197500D02*
X463744D01*
X463744Y197500D01*
X415000Y197500D02*
X421791D01*
X496500Y317774D02*
X496894D01*
X444256Y274744D02*
X445500D01*
X426000Y293000D02*
X444256Y274744D01*
X582000Y332953D02*
Y341500D01*
X527256Y332803D02*
Y333000D01*
X411000Y324500D02*
X411500D01*
X418500Y317500D01*
X420047Y166000D02*
Y173000D01*
X374500Y166500D02*
Y173500D01*
X419500Y172453D02*
X420047Y173000D01*
X463000Y166000D02*
Y173000D01*
X578256Y310000D02*
X584500D01*
X603666Y214122D02*
X610712D01*
X603666Y214122D02*
X603666Y214122D01*
X603666Y214122D02*
X603787Y214244D01*
X609500Y186929D02*
X609516Y186945D01*
X524047Y190067D02*
Y201500D01*
X523856Y189876D02*
X524047Y190067D01*
X523856Y168222D02*
Y189876D01*
X533699Y168222D02*
X541376D01*
X533823Y190000D02*
X541500D01*
X533699Y189876D02*
X533823Y190000D01*
X412000Y338500D02*
X418500D01*
X431000Y317500D02*
Y338500D01*
X433000Y244000D02*
Y249547D01*
Y244000D02*
X433000Y244000D01*
X433000Y255453D02*
X433030Y255482D01*
X438971D01*
X439000Y255512D01*
Y250000D02*
X439024Y249976D01*
X444476D01*
X444500Y249953D01*
D60*
X496834Y317834D02*
X506000Y327000D01*
Y346500D01*
X586760Y196276D02*
Y214122D01*
X586484Y196000D02*
X586760Y196276D01*
X581500Y221500D02*
X620663D01*
X645319Y196844D01*
X577500Y217500D02*
X581500Y221500D01*
X577500Y165000D02*
Y217500D01*
X632903Y231000D02*
X645319Y218585D01*
X574000Y231000D02*
X632903D01*
X563500Y220500D02*
X574000Y231000D01*
X578500Y226500D02*
X626534D01*
X645319Y207715D01*
X570000Y218000D02*
X578500Y226500D01*
X570000Y165000D02*
Y218000D01*
X586484Y196000D02*
X586744Y195740D01*
Y179000D02*
Y195740D01*
Y178803D02*
Y179000D01*
X586484Y196000D02*
X609516D01*
X586744Y177756D02*
Y178803D01*
X585000Y177059D02*
X586744Y178803D01*
X563500Y165000D02*
Y220500D01*
X639274Y235500D02*
X645319Y229455D01*
X570000Y235500D02*
X639274D01*
X556500Y222000D02*
X570000Y235500D01*
X556500Y165000D02*
Y222000D01*
X591000Y173500D02*
X604774D01*
X586744Y177756D02*
X591000Y173500D01*
X604774D02*
X611774Y166500D01*
X585000Y164000D02*
Y177059D01*
X580500Y159500D02*
X585000Y164000D01*
X625500Y177000D02*
X655500D01*
X618744Y183756D02*
X625500Y177000D01*
X618744Y183756D02*
Y205000D01*
X531000Y333000D02*
X539000D01*
X562000Y240000D02*
X644994D01*
X645319Y240325D01*
X549000Y227000D02*
X562000Y240000D01*
X549000Y165000D02*
Y227000D01*
X377000Y154500D02*
X549000D01*
X363000Y168500D02*
X377000Y154500D01*
X552500Y150000D02*
X556500Y154000D01*
X375500Y150000D02*
X552500D01*
X359000Y166500D02*
X375500Y150000D01*
X571500Y140500D02*
X577500Y146500D01*
X367000Y140500D02*
X571500D01*
X348500Y159000D02*
X367000Y140500D01*
X566000Y143500D02*
X570000Y147500D01*
X369500Y143500D02*
X566000D01*
X352000Y161000D02*
X369500Y143500D01*
X559500Y146500D02*
X563250Y150250D01*
X372500Y146500D02*
X559500D01*
X355500Y163500D02*
X372500Y146500D01*
X563250Y150250D02*
Y154000D01*
X570000Y147500D02*
Y154000D01*
X577500Y146500D02*
Y154000D01*
X520177Y159500D02*
X580500D01*
X352000Y161000D02*
Y270500D01*
X592476Y214311D02*
X592665Y214122D01*
X359000Y245500D02*
X371500Y258000D01*
X359000Y166500D02*
Y245500D01*
X355500Y258000D02*
X371500Y274000D01*
X355500Y163500D02*
Y258000D01*
X363000Y233000D02*
X371500Y241500D01*
X363000Y168500D02*
Y233000D01*
X352000Y270500D02*
X371500Y290000D01*
X348500Y159000D02*
Y283500D01*
X371500Y306500D01*
X671000Y186000D02*
Y317000D01*
X658000Y173000D02*
X671000Y186000D01*
X644000Y173000D02*
X658000D01*
X659500Y328500D02*
X671000Y317000D01*
X592328Y354500D02*
X598500Y348328D01*
Y337000D02*
Y348328D01*
Y337000D02*
X607000Y328500D01*
X506000Y346500D02*
X514000Y354500D01*
X592328D01*
X607000Y328500D02*
X659500D01*
X637500Y166500D02*
X644000Y173000D01*
X611774Y166500D02*
X637500D01*
X656500Y324000D02*
X666000Y314500D01*
X602500Y324000D02*
X656500D01*
X594000Y332500D02*
X602500Y324000D01*
X594000Y332500D02*
Y345500D01*
X582500Y321000D02*
X594000Y332500D01*
X579000Y321000D02*
X582500D01*
X589000Y350500D02*
X594000Y345500D01*
X541000Y350500D02*
X589000D01*
X532000Y341500D02*
X541000Y350500D01*
X666000Y255260D02*
Y314500D01*
Y187500D02*
Y211779D01*
X655500Y177000D02*
X666000Y187500D01*
X656500Y245760D02*
X666000Y255260D01*
Y244390D02*
Y255260D01*
X514014Y165663D02*
X520177Y159500D01*
X501441D02*
X520177D01*
X405894Y167547D02*
X413941Y159500D01*
X451894Y167047D02*
X459441Y159500D01*
X413941D02*
X459441D01*
X501441D01*
X493894Y167047D02*
X501441Y159500D01*
X609516Y205055D02*
X609543Y205028D01*
X618716D01*
X618744Y205000D01*
X656500Y202279D02*
X666000Y211779D01*
Y222650D01*
X656500Y213150D02*
X666000Y222650D01*
Y233520D01*
X656500Y224020D02*
X666000Y233520D01*
Y244390D01*
X656500Y234890D02*
X666000Y244390D01*
X572744Y314744D02*
X579000Y321000D01*
X572744Y310000D02*
Y314744D01*
X624217Y275716D02*
Y278260D01*
X621047Y272547D02*
X624217Y275716D01*
X621047Y269000D02*
Y272547D01*
X624512Y282000D02*
Y290244D01*
X622756Y292000D02*
X624512Y290244D01*
X404563Y245000D02*
X411500D01*
X404323Y245240D02*
X404563Y245000D01*
Y261500D02*
X411000D01*
X404323Y261740D02*
X404563Y261500D01*
Y277500D02*
X411000D01*
X404323Y277740D02*
X404563Y277500D01*
Y293500D02*
X412000D01*
X404323Y293740D02*
X404563Y293500D01*
Y310000D02*
X411000D01*
X404323Y310240D02*
X404563Y310000D01*
X405500Y167547D02*
X405894D01*
X451500Y167047D02*
X451894D01*
X493500D02*
X493894D01*
X514014Y165663D02*
Y168222D01*
Y189876D01*
X532000Y334000D02*
Y341500D01*
X531000Y333000D02*
X532000Y334000D01*
X527256Y333000D02*
X531000D01*
X542000Y336000D02*
Y341500D01*
X539000Y333000D02*
X542000Y336000D01*
X597571Y214311D02*
X597760Y214122D01*
X592665Y214122D02*
X592665Y214122D01*
X609500Y178500D02*
Y186929D01*
X371500Y241500D02*
X382047D01*
X382047Y241500D01*
X371500Y258000D02*
X382047D01*
X382047Y258000D01*
X371500Y274000D02*
X382047D01*
X382047Y274000D01*
X371500Y290000D02*
X382547D01*
X382547Y290000D01*
X371500Y306500D02*
X371500Y306500D01*
X382547D01*
X388953Y306500D02*
X394677D01*
X388953Y306500D02*
X388953Y306500D01*
X388453Y290000D02*
X394677D01*
X388453Y290000D02*
X388453Y290000D01*
X387953Y274000D02*
X394677D01*
X387953Y274000D02*
X387953Y274000D01*
Y258000D02*
X394677D01*
X387953Y258000D02*
X387953Y258000D01*
X387953Y241500D02*
X387953Y241500D01*
X394677D01*
D61*
X572795Y269000D02*
Y289000D01*
X572744Y289051D02*
Y310000D01*
Y289051D02*
X572795Y289000D01*
X613406Y269000D02*
X621047D01*
X613406Y269000D02*
X613406Y269000D01*
X613256Y264000D02*
X613331Y264075D01*
Y268925D01*
X613406Y269000D01*
X607744Y264000D02*
Y264197D01*
X607622Y264319D02*
X607744Y264197D01*
X607622Y264319D02*
Y268878D01*
X607500Y269000D02*
X607622Y268878D01*
X572756Y269000D02*
X607500D01*
D62*
X622628Y292128D02*
X622756Y292000D01*
X622628Y292128D02*
Y301392D01*
X622500Y301520D02*
X622628Y301392D01*
X622500Y316480D02*
X622565Y316415D01*
X645319D01*
X645403Y316500D02*
X651500D01*
X645319Y316415D02*
X645403Y316500D01*
X651500D02*
X656500Y311500D01*
Y310980D02*
Y311500D01*
D63*
X530346Y201500D02*
X535744D01*
X442031Y185500D02*
X451500Y176031D01*
Y172953D02*
Y176031D01*
X441047Y185500D02*
X442031D01*
X405500Y173453D02*
Y176984D01*
X396484Y186000D02*
X405500Y176984D01*
X395500Y186000D02*
X396484D01*
X441000Y197500D02*
X441047Y197453D01*
X395453Y197500D02*
X395500Y197453D01*
X535744Y201500D02*
X535744Y201500D01*
X469500Y290047D02*
X469610Y289937D01*
X492803Y228756D02*
X493000D01*
X487327Y228929D02*
X487500Y228756D01*
D64*
X645319Y185974D02*
D03*
X656500Y191409D02*
D03*
X645319Y196844D02*
D03*
X656500Y202279D02*
D03*
X645319Y207715D02*
D03*
X656500Y213150D02*
D03*
X645319Y218585D02*
D03*
X656500Y224020D02*
D03*
X645319Y229455D02*
D03*
X656500Y234890D02*
D03*
X645319Y240325D02*
D03*
X656500Y245760D02*
D03*
X645319Y251195D02*
D03*
X656500Y256630D02*
D03*
X645319Y262065D02*
D03*
X656500Y267500D02*
D03*
X645319Y272935D02*
D03*
X656500Y278370D02*
D03*
X645319Y283805D02*
D03*
X656500Y289240D02*
D03*
X645319Y294675D02*
D03*
X656500Y300110D02*
D03*
X645319Y305545D02*
D03*
X656500Y310980D02*
D03*
D65*
X645319Y316415D02*
D03*
D66*
X650910Y343817D02*
D03*
Y158573D02*
D03*
D67*
X542000Y341500D02*
D03*
X532000D02*
D03*
X552000D02*
D03*
X562000D02*
D03*
X572000D02*
D03*
X582000D02*
D03*
X446500Y338226D02*
D03*
X456500D02*
D03*
X466500D02*
D03*
X476500D02*
D03*
X486500D02*
D03*
D68*
X522000Y341500D02*
D03*
X496500Y338226D02*
D03*
D69*
X461500Y301500D02*
D03*
X458500Y286500D02*
D03*
X497000Y203000D02*
D03*
X547500Y288500D02*
D03*
X534500Y330000D02*
D03*
X527000Y288500D02*
D03*
X555500Y330000D02*
D03*
X515000Y295000D02*
D03*
X452500Y286500D02*
D03*
X523669Y254500D02*
D03*
X537500D02*
D03*
Y269000D02*
D03*
X524000D02*
D03*
X524069Y259000D02*
D03*
X537500Y259500D02*
D03*
X445500Y285000D02*
D03*
X509000Y302000D02*
D03*
X515000Y289000D02*
D03*
X505500Y254000D02*
D03*
X524000Y264500D02*
D03*
X537500Y264500D02*
D03*
X505000Y259000D02*
D03*
X493500Y254000D02*
D03*
X489295Y241795D02*
D03*
X497000Y218500D02*
D03*
X493500Y259000D02*
D03*
X463705Y276205D02*
D03*
X487500Y218500D02*
D03*
X493000D02*
D03*
X507500Y282000D02*
D03*
X469500Y300697D02*
D03*
X438500Y327744D02*
D03*
D70*
X631000Y202000D02*
D03*
X448000Y203000D02*
D03*
X422000Y209000D02*
D03*
X401500Y203500D02*
D03*
X541500Y207500D02*
D03*
X549000Y165000D02*
D03*
Y154500D02*
D03*
X556500Y165000D02*
D03*
Y154000D02*
D03*
X563500Y165000D02*
D03*
X563250Y154000D02*
D03*
X570000Y165000D02*
D03*
Y154000D02*
D03*
X577500D02*
D03*
Y165000D02*
D03*
X612213Y214122D02*
D03*
X619500Y171500D02*
D03*
X377000Y203500D02*
D03*
X561000Y269000D02*
D03*
X630500Y275500D02*
D03*
X611500Y292000D02*
D03*
X557000Y288000D02*
D03*
X598500Y178500D02*
D03*
X448000Y210500D02*
D03*
X359500Y314500D02*
D03*
X401500Y212000D02*
D03*
X411500Y245000D02*
D03*
X411000Y261500D02*
D03*
Y277500D02*
D03*
X412000Y293500D02*
D03*
X411000Y310000D02*
D03*
X457000Y197500D02*
D03*
X415000D02*
D03*
X411000Y324500D02*
D03*
X420047Y166000D02*
D03*
X374500Y166500D02*
D03*
X463000Y166000D02*
D03*
X584500Y310000D02*
D03*
X609500Y178500D02*
D03*
X541376Y168222D02*
D03*
X541500Y190000D02*
D03*
X412000Y338500D02*
D03*
X433000Y244000D02*
D03*
D71*
X364000Y342000D02*
D03*
X613000Y344000D02*
D03*
X597000Y160000D02*
D03*
M02*
