G04*
G04 #@! TF.GenerationSoftware,Altium Limited,Altium Designer,19.1.7 (138)*
G04*
G04 Layer_Color=65535*
%FSLAX25Y25*%
%MOIN*%
G70*
G01*
G75*
%ADD10C,0.00984*%
%ADD11C,0.00787*%
%ADD12C,0.02362*%
%ADD13C,0.00600*%
%ADD14C,0.01575*%
G36*
X468392Y233012D02*
X466892D01*
Y232012D01*
X468392D01*
Y233012D01*
D02*
G37*
G36*
X450512Y256797D02*
X449512D01*
Y255297D01*
X450512D01*
Y256797D01*
D02*
G37*
G36*
X470360Y284988D02*
X468860D01*
Y285988D01*
X470360D01*
Y284988D01*
D02*
G37*
G36*
X488077Y233012D02*
X486577D01*
Y232012D01*
X488077D01*
Y233012D01*
D02*
G37*
G36*
X502488Y258766D02*
X503488D01*
Y257266D01*
X502488D01*
Y258766D01*
D02*
G37*
G36*
X490045Y284988D02*
X488545D01*
Y285988D01*
X490045D01*
Y284988D01*
D02*
G37*
G36*
X546200Y252240D02*
X546340Y252200D01*
X546360Y252180D01*
X546440Y252140D01*
X546560Y252060D01*
X546700Y251960D01*
X546980Y251640D01*
Y242940D01*
X547640Y242780D01*
X547700D01*
X547760Y242760D01*
X547840Y242740D01*
X548020Y242700D01*
X548220Y242640D01*
X548240D01*
X548260Y242620D01*
X548380Y242580D01*
X548500Y242520D01*
X548620Y242460D01*
X548640D01*
X548680Y242440D01*
X548800Y242360D01*
X548960Y242300D01*
X549100Y242260D01*
X549140D01*
X549220Y242220D01*
X549320Y242160D01*
X549460Y242040D01*
X549500Y242000D01*
X549560Y241980D01*
X549640Y241940D01*
X549760Y241880D01*
X549920Y241840D01*
X550120Y241800D01*
X550380Y241760D01*
X550480D01*
X550580Y241740D01*
X550700Y241720D01*
X551000Y241660D01*
X551140Y241620D01*
X551260Y241560D01*
X551280D01*
X551320Y241540D01*
X551400Y241480D01*
X551480Y241420D01*
X551620Y241340D01*
X551760Y241220D01*
X551920Y241060D01*
X552120Y240880D01*
X552140Y240860D01*
X552220Y240800D01*
X552320Y240700D01*
X552460Y240600D01*
X552780Y240400D01*
X552940Y240300D01*
X553100Y240240D01*
X553120D01*
X553180Y240220D01*
X553280Y240180D01*
X553420Y240140D01*
X553580Y240060D01*
X553800Y239980D01*
X554040Y239860D01*
X554300Y239720D01*
X554340Y239700D01*
X554420Y239660D01*
X554560Y239580D01*
X554720Y239500D01*
X555060Y239320D01*
X555220Y239220D01*
X555340Y239140D01*
X555360Y239120D01*
X555400Y239100D01*
X555500Y239040D01*
X555640Y239000D01*
X556080Y238840D01*
X556100D01*
X556140Y238820D01*
X556280Y238780D01*
X556440Y238740D01*
X556500Y238720D01*
X556580D01*
X556640Y238740D01*
X556720Y238780D01*
X556820Y238840D01*
X556840D01*
X556860Y238880D01*
X556980Y238940D01*
X557140Y239040D01*
X557320Y239140D01*
X557340Y239160D01*
X557380Y239200D01*
X557480Y239280D01*
X557620Y239400D01*
X557800Y239580D01*
X557940Y239720D01*
X558080Y239840D01*
X558220Y240000D01*
X558400Y240180D01*
X558600Y240400D01*
X558820Y240620D01*
X558840Y240640D01*
X558880Y240680D01*
X558940Y240740D01*
X559020Y240840D01*
X559140Y240960D01*
X559260Y241080D01*
X559560Y241400D01*
X559880Y241780D01*
X560240Y242180D01*
X560620Y242600D01*
X560960Y243020D01*
Y243040D01*
X561000Y243060D01*
X561100Y243180D01*
X561260Y243360D01*
X561460Y243600D01*
X561720Y243880D01*
X562020Y244200D01*
X562340Y244520D01*
X562680Y244860D01*
X562700Y244880D01*
X562720Y244900D01*
X562840Y245000D01*
X563000Y245160D01*
X563200Y245340D01*
X563420Y245520D01*
X563620Y245680D01*
X563820Y245820D01*
X563980Y245900D01*
X564000D01*
X564020Y245920D01*
X564100Y245940D01*
X564200Y245980D01*
X564340Y246040D01*
X564540Y246120D01*
X564780Y246200D01*
X565080Y246320D01*
X565100D01*
X565120Y246340D01*
X565240Y246380D01*
X565400Y246460D01*
X565640Y246560D01*
X565900Y246680D01*
X566200Y246820D01*
X566520Y246960D01*
X566860Y247120D01*
X566880D01*
X566960Y247140D01*
X567060Y247180D01*
X567220Y247220D01*
X567240D01*
X567260Y247240D01*
X567380Y247260D01*
X567540Y247280D01*
X567700Y247300D01*
X567740D01*
X567840Y247340D01*
X568000Y247380D01*
X568200Y247440D01*
X568220D01*
X568260Y247460D01*
X568380Y247520D01*
X568540Y247600D01*
X568700Y247700D01*
X568720Y247720D01*
X568780Y247740D01*
X568880Y247800D01*
X568980Y247860D01*
X569120Y247940D01*
X569280Y248000D01*
X569620Y248140D01*
X569640D01*
X569700Y248160D01*
X569780Y248200D01*
X569900Y248240D01*
X570140Y248300D01*
X570380Y248320D01*
X570420D01*
X570540Y248340D01*
X570660Y248360D01*
X570700Y248380D01*
X570740Y248400D01*
X570760Y248420D01*
X570780D01*
X570840Y248440D01*
X570900Y248460D01*
X571000Y248480D01*
X571120Y248500D01*
X571480D01*
X571620Y248520D01*
X574280D01*
X575540Y247000D01*
X575620Y240740D01*
X575260Y240360D01*
X575240Y240340D01*
X575160Y240260D01*
X575060Y240160D01*
X574940Y240060D01*
X574920Y240040D01*
X574860Y239980D01*
X574780Y239920D01*
X574720Y239880D01*
X574700D01*
X574680Y239860D01*
X574560Y239800D01*
X574380Y239720D01*
X574160Y239580D01*
X574140D01*
X574120Y239540D01*
X573980Y239460D01*
X573800Y239360D01*
X573620Y239260D01*
X573600D01*
X573560Y239220D01*
X573460Y239160D01*
X573320Y239060D01*
X573280Y239040D01*
X573200Y238960D01*
X573060Y238860D01*
X572880Y238720D01*
X572860Y238700D01*
X572780Y238640D01*
X572660Y238540D01*
X572520Y238420D01*
X572340Y238280D01*
X572140Y238140D01*
X571720Y237840D01*
X571700Y237820D01*
X571620Y237780D01*
X571520Y237720D01*
X571400Y237660D01*
X571080Y237500D01*
X570920Y237440D01*
X570760Y237380D01*
X570740D01*
X570680Y237360D01*
X570600Y237320D01*
X570460Y237260D01*
X570280Y237200D01*
X570060Y237080D01*
X569800Y236940D01*
X569480Y236780D01*
X569440Y236760D01*
X569340Y236700D01*
X569180Y236620D01*
X569000Y236520D01*
X568800Y236400D01*
X568600Y236280D01*
X568440Y236160D01*
X568300Y236060D01*
X568280Y236040D01*
X568220Y235980D01*
X568180Y235920D01*
Y235880D01*
X568240D01*
X568280Y235860D01*
X568580D01*
X568680Y235840D01*
X568820Y235820D01*
X569020Y235760D01*
X569040D01*
X569080Y235740D01*
X569120Y235720D01*
X569200Y235700D01*
X569380Y235620D01*
X569580Y235520D01*
X569600D01*
X569620Y235500D01*
X569760Y235460D01*
X569920Y235380D01*
X570100Y235320D01*
X570120D01*
X570140Y235300D01*
X570240Y235280D01*
X570340Y235240D01*
X570440Y235220D01*
X570460D01*
X570520Y235200D01*
X570640Y235180D01*
X570800Y235120D01*
X572100Y234740D01*
X572120D01*
X572160Y234720D01*
X572220Y234700D01*
X572300Y234680D01*
X572480Y234620D01*
X572680Y234580D01*
X572700D01*
X572760Y234560D01*
X572840Y234540D01*
X572960Y234520D01*
X573100Y234480D01*
X573260Y234440D01*
X573600Y234320D01*
X573620D01*
X573680Y234300D01*
X573780Y234260D01*
X573880Y234220D01*
X574160Y234100D01*
X574440Y234000D01*
X574460D01*
X574480Y233980D01*
X574580Y233920D01*
X574680Y233860D01*
X574760Y233840D01*
X574780D01*
X574840Y233820D01*
X574920Y233780D01*
X575020Y233700D01*
X575040Y233680D01*
X575120Y233600D01*
X575240Y233500D01*
X575380Y233360D01*
X575420Y233320D01*
X575500Y233240D01*
X575620Y233140D01*
X575740Y233020D01*
X575760Y233000D01*
X575840Y232960D01*
X575900Y232920D01*
X575960Y232900D01*
X575980D01*
X576020Y232860D01*
X576120Y232820D01*
X576240Y232740D01*
X576400Y232600D01*
X576620Y232420D01*
X576880Y232200D01*
X577200Y231900D01*
X577220D01*
X577240Y231860D01*
X577360Y231760D01*
X577520Y231600D01*
X577700Y231400D01*
X577920Y231200D01*
X578120Y230980D01*
X578280Y230780D01*
X578420Y230600D01*
Y230580D01*
X578440Y230540D01*
X578480Y230480D01*
X578540Y230420D01*
X578660Y230220D01*
X578820Y230040D01*
X578840Y230020D01*
X578860Y230000D01*
X578880Y229960D01*
X578900Y229860D01*
X578940Y229740D01*
Y229560D01*
X578960Y229320D01*
Y229280D01*
Y229240D01*
Y229160D01*
Y229060D01*
X578980Y228940D01*
Y228780D01*
Y228580D01*
Y228360D01*
Y228100D01*
X579000Y227800D01*
Y227440D01*
Y227060D01*
Y226620D01*
Y226140D01*
Y225600D01*
Y221340D01*
X578300Y220640D01*
X575640D01*
X575420Y220660D01*
X575120D01*
X575020Y220680D01*
X574900Y220700D01*
X574660Y220720D01*
X574520Y220760D01*
X574420Y220780D01*
X574400D01*
X574380Y220800D01*
X574320D01*
X574240Y220820D01*
X574040Y220860D01*
X573780Y220900D01*
X573720D01*
X573640Y220920D01*
X573560D01*
X573340Y220940D01*
X573080Y220960D01*
X573020D01*
X572960Y220980D01*
X572740D01*
X572620Y221000D01*
X572300Y221040D01*
X572280D01*
X572220Y221060D01*
X572140D01*
X572040Y221080D01*
X571780Y221120D01*
X571500Y221180D01*
X571480D01*
X571440Y221200D01*
X571380D01*
X571280Y221220D01*
X571060Y221280D01*
X570800Y221320D01*
X570780D01*
X570740Y221340D01*
X570680D01*
X570600Y221360D01*
X570440Y221380D01*
X570160D01*
X570020Y221400D01*
X569820Y221440D01*
X569800D01*
X569780Y221460D01*
X569660Y221500D01*
X569480Y221540D01*
X569280Y221600D01*
X569260D01*
X569240Y221620D01*
X569100Y221640D01*
X568940Y221700D01*
X568740Y221740D01*
X568700Y221760D01*
X568600Y221780D01*
X568480Y221800D01*
X568300D01*
X568200Y221820D01*
X568080Y221840D01*
X568000Y221900D01*
X567980Y221920D01*
X567940Y221960D01*
X567860Y222000D01*
X567740Y222020D01*
X567700D01*
X567620Y222060D01*
X567480Y222160D01*
X567400Y222220D01*
X567300Y222320D01*
X567280Y222340D01*
X567240Y222380D01*
X567160Y222440D01*
X567020Y222520D01*
X566860Y222620D01*
X566640Y222740D01*
X566380Y222860D01*
X566060Y223000D01*
X566020Y223020D01*
X565900Y223060D01*
X565720Y223140D01*
X565480Y223240D01*
X565180Y223340D01*
X564860Y223460D01*
X564500Y223580D01*
X564120Y223680D01*
X564100D01*
X564080Y223700D01*
X563960Y223740D01*
X563800Y223780D01*
X563600Y223840D01*
X563580D01*
X563560Y223860D01*
X563460Y223900D01*
X563320Y223940D01*
X563180Y224000D01*
X563160D01*
X563140Y224020D01*
X563040Y224080D01*
X562900Y224120D01*
X562760Y224140D01*
X562740D01*
X562700Y224120D01*
X562640Y224080D01*
X562580Y224040D01*
X562500Y223960D01*
X562400Y223840D01*
X562280Y223700D01*
X562260Y223680D01*
X562220Y223620D01*
X562160Y223520D01*
X562080Y223400D01*
X561960Y223220D01*
X561840Y223020D01*
X561700Y222780D01*
X561540Y222500D01*
X561120Y221720D01*
Y221700D01*
X561080Y221660D01*
X561020Y221520D01*
X560920Y221360D01*
X560880Y221300D01*
X560840Y221260D01*
X560800Y221220D01*
X560740Y221120D01*
X560640Y221000D01*
X560580Y220860D01*
Y220840D01*
X560540Y220800D01*
X560480Y220700D01*
X560380Y220560D01*
X559640Y219500D01*
X559320Y219020D01*
X559300Y219000D01*
X559240Y218920D01*
X559120Y218780D01*
X559040Y218680D01*
X558940Y218580D01*
X558920Y218560D01*
X558900Y218520D01*
X558840Y218460D01*
X558760Y218400D01*
X558560Y218200D01*
X558300Y217980D01*
X556360Y216340D01*
X556340Y216320D01*
X556280Y216280D01*
X556180Y216200D01*
X556080Y216140D01*
X555880Y215960D01*
X555780Y215900D01*
X555720Y215860D01*
X555700D01*
X555640Y215840D01*
X555600D01*
X555520Y215820D01*
X555400D01*
X555260Y215800D01*
X555100Y215780D01*
X554880D01*
X554640Y215760D01*
X554000D01*
X553600Y215740D01*
X549800D01*
X549480Y216060D01*
X549440Y216100D01*
X549380Y216180D01*
X549300Y216300D01*
X549240Y216440D01*
Y216460D01*
Y216480D01*
Y216540D01*
X549220Y216620D01*
Y216740D01*
Y216880D01*
Y217060D01*
X549240Y217280D01*
X549320Y218060D01*
X549400Y218800D01*
Y218820D01*
Y218860D01*
X549420Y218940D01*
Y219060D01*
X549440Y219240D01*
X549460Y219480D01*
Y219780D01*
X549480Y220160D01*
Y220180D01*
Y220220D01*
Y220280D01*
Y220360D01*
Y220460D01*
X549500Y220580D01*
Y220880D01*
Y221240D01*
X549520Y221660D01*
Y222120D01*
Y222620D01*
Y225820D01*
X549980Y226220D01*
X550000Y226260D01*
X550080Y226360D01*
X550200Y226500D01*
X550340Y226660D01*
Y226680D01*
X550380Y226700D01*
X550460Y226820D01*
X550540Y226960D01*
X550620Y227120D01*
X550640Y227160D01*
X550680Y227240D01*
X550760Y227360D01*
X550860Y227500D01*
X550880Y227540D01*
X550940Y227620D01*
X551020Y227700D01*
X551080Y227780D01*
X551100Y227800D01*
X551120Y227820D01*
X551200Y227940D01*
X551300Y228100D01*
X551320Y228180D01*
X551340Y228280D01*
Y228300D01*
Y228320D01*
X551380Y228460D01*
X551440Y228620D01*
X551540Y228800D01*
X551780Y229020D01*
X550640Y229700D01*
X550620Y229720D01*
X550540Y229760D01*
X550400Y229860D01*
X550200Y229980D01*
X550180Y230000D01*
X550140Y230020D01*
X550080Y230060D01*
X550000Y230120D01*
X549800Y230280D01*
X549560Y230480D01*
X549540Y230500D01*
X549500Y230540D01*
X549440Y230600D01*
X549340Y230660D01*
X549120Y230860D01*
X548820Y231060D01*
X548800Y231080D01*
X548760Y231100D01*
X548680Y231160D01*
X548580Y231220D01*
X548340Y231360D01*
X548100Y231480D01*
X548080D01*
X548040Y231500D01*
X547980Y231540D01*
X547920Y231580D01*
X547720Y231680D01*
X547500Y231800D01*
X547480D01*
X547460Y231820D01*
X547360Y231900D01*
X547240Y231960D01*
X547140Y232040D01*
X547120Y232060D01*
X547060Y232100D01*
X546960Y232180D01*
X546840Y232260D01*
X546660Y232380D01*
X546440Y232500D01*
X546180Y232640D01*
X545880Y232800D01*
X545840Y232820D01*
X545740Y232880D01*
X545580Y232960D01*
X545360Y233040D01*
X545120Y233160D01*
X544860Y233260D01*
X544580Y233360D01*
X544320Y233440D01*
X544300D01*
X544280Y233460D01*
X544220Y233480D01*
X544140Y233500D01*
X543920Y233580D01*
X543660Y233680D01*
X543640D01*
X543600Y233700D01*
X543540Y233740D01*
X543440Y233780D01*
X543240Y233880D01*
X543000Y234000D01*
X542980Y234020D01*
X542920Y234040D01*
X542820Y234080D01*
X542700Y234140D01*
X542420Y234240D01*
X542140Y234320D01*
X542120D01*
X542080Y234340D01*
X541980D01*
X541860Y234360D01*
X541700D01*
X541480Y234380D01*
X540380D01*
X540180Y234400D01*
X539800D01*
X539680Y234420D01*
X539660D01*
X539640Y234440D01*
X539540Y234460D01*
X539400Y234540D01*
X539260Y234660D01*
Y234680D01*
X539240Y234700D01*
X539160Y234800D01*
X539080Y234940D01*
X539020Y235080D01*
Y235100D01*
Y235120D01*
X539000Y235180D01*
Y235260D01*
Y235360D01*
Y235500D01*
Y235660D01*
Y235860D01*
Y235880D01*
Y235920D01*
X539020Y236000D01*
Y236100D01*
X539040Y236220D01*
Y236360D01*
X539100Y236680D01*
X539160Y237020D01*
X539240Y237380D01*
X539340Y237700D01*
X539480Y237980D01*
X539820Y238720D01*
Y238740D01*
X539860Y238780D01*
X539900Y238860D01*
X539940Y238940D01*
X540040Y239140D01*
X540140Y239340D01*
X540620Y240080D01*
X540640Y240120D01*
X540700Y240220D01*
X540780Y240360D01*
X540880Y240560D01*
X540960Y240780D01*
X541040Y241020D01*
X541100Y241260D01*
X541120Y241520D01*
Y241540D01*
Y241560D01*
X541140Y241680D01*
X541180Y241840D01*
X541240Y242000D01*
Y242020D01*
X541280Y242080D01*
X541300Y242160D01*
X541360Y242320D01*
X541500Y242740D01*
Y242760D01*
X541520Y242780D01*
X541540Y242900D01*
X541620Y243080D01*
X541740Y243320D01*
Y243340D01*
X541780Y243380D01*
X541820Y243460D01*
X541860Y243540D01*
X542000Y243760D01*
X542140Y244000D01*
X542160Y244040D01*
X542240Y244140D01*
X542340Y244300D01*
X542440Y244480D01*
X542580Y244700D01*
X542680Y244920D01*
X542780Y245120D01*
X542860Y245320D01*
Y245340D01*
X542880Y245420D01*
X542900Y245540D01*
X542940Y245720D01*
X542960Y245940D01*
X543000Y246220D01*
X543020Y246560D01*
X543040Y246960D01*
Y246980D01*
Y247000D01*
Y247120D01*
X543060Y247280D01*
Y247480D01*
X543080Y247680D01*
X543100Y247880D01*
Y248080D01*
X543120Y248220D01*
Y248240D01*
X543140Y248280D01*
X543180Y248420D01*
X543240Y248580D01*
X543340Y248720D01*
X543360Y248740D01*
X543380Y248780D01*
X543440Y248840D01*
X543500Y248940D01*
X543560Y249060D01*
X543660Y249220D01*
X543740Y249380D01*
X543840Y249580D01*
X543860Y249600D01*
X543880Y249680D01*
X543940Y249800D01*
X544000Y249960D01*
X544080Y250140D01*
X544160Y250340D01*
X544320Y250820D01*
Y250840D01*
X544340Y250880D01*
X544380Y250960D01*
X544420Y251040D01*
X544540Y251260D01*
X544700Y251540D01*
X544920Y251800D01*
X545180Y252020D01*
X545340Y252100D01*
X545500Y252180D01*
X545680Y252220D01*
X545880Y252240D01*
X545940D01*
X546060Y252260D01*
X546200Y252240D01*
D02*
G37*
%LPC*%
G36*
X573460Y246840D02*
X572440Y246800D01*
X572340D01*
X572220Y246780D01*
X572060Y246760D01*
X571880Y246740D01*
X571660Y246720D01*
X571420Y246680D01*
X571180Y246640D01*
X570640Y246520D01*
X570100Y246380D01*
X569840Y246280D01*
X569600Y246160D01*
X569400Y246040D01*
X569200Y245900D01*
X569180Y245880D01*
X569140Y245860D01*
X569040Y245800D01*
X568900Y245760D01*
X568860D01*
X568760Y245720D01*
X568620Y245680D01*
X568420Y245640D01*
X568380D01*
X568320Y245620D01*
X568240Y245600D01*
X568040Y245560D01*
X567800Y245500D01*
X567780D01*
X567740Y245480D01*
X567680Y245460D01*
X567620Y245440D01*
X567440Y245360D01*
X567260Y245280D01*
X566080Y244820D01*
X565580Y244580D01*
X565560D01*
X565540Y244560D01*
X565420Y244500D01*
X565240Y244440D01*
X565060Y244360D01*
X565020Y244340D01*
X564920Y244320D01*
X564820Y244280D01*
X564720Y244260D01*
X564700D01*
X564680Y244240D01*
X564620Y244220D01*
X564520Y244180D01*
X564420Y244100D01*
X564260Y244000D01*
X564080Y243860D01*
X563880Y243680D01*
X563860Y243660D01*
X563780Y243600D01*
X563680Y243480D01*
X563560Y243360D01*
X563280Y243060D01*
X563160Y242900D01*
X563040Y242740D01*
X563020Y242720D01*
X562980Y242660D01*
X562900Y242560D01*
X562780Y242400D01*
X562580Y242180D01*
X562460Y242040D01*
X562320Y241880D01*
X562160Y241680D01*
X561960Y241480D01*
X561760Y241260D01*
X561520Y241000D01*
X561500Y240980D01*
X561460Y240940D01*
X561400Y240860D01*
X561300Y240760D01*
X561180Y240640D01*
X561040Y240480D01*
X560880Y240320D01*
X560720Y240120D01*
X560320Y239700D01*
X559880Y239240D01*
X559420Y238740D01*
X558940Y238240D01*
X558120Y237340D01*
X558420Y237240D01*
X558440D01*
X558480Y237220D01*
X558540Y237200D01*
X558600Y237180D01*
X558700Y237160D01*
X558820Y237140D01*
X558980Y237120D01*
X559160Y237080D01*
X559360Y237040D01*
X559620Y237000D01*
X559900Y236980D01*
X560240Y236940D01*
X560620Y236880D01*
X561040Y236840D01*
X561500Y236800D01*
X562400Y236720D01*
X562480D01*
X562560Y236700D01*
X562660D01*
X562900Y236660D01*
X563000Y236640D01*
X563100Y236620D01*
X563140D01*
X563200Y236600D01*
X563280Y236580D01*
X563480Y236560D01*
X563740Y236520D01*
X564000D01*
X564240Y236500D01*
X564520D01*
X565260Y236460D01*
X565320D01*
X565380Y236440D01*
X565460D01*
X565620Y236420D01*
X565780D01*
X565820Y236400D01*
X565960Y236360D01*
X566120Y236340D01*
X566260D01*
X566320Y236380D01*
X566380Y236460D01*
X566440Y236560D01*
Y236580D01*
X566460Y236600D01*
X566500Y236720D01*
X566520Y236840D01*
X566540Y236960D01*
Y236980D01*
X566580Y237040D01*
X566640Y237120D01*
X566760Y237260D01*
X566840Y237320D01*
X566940Y237420D01*
X567080Y237520D01*
X567240Y237620D01*
X567420Y237740D01*
X567620Y237860D01*
X567860Y238000D01*
X568140Y238140D01*
X568980Y238560D01*
X569440Y238840D01*
X569460D01*
X569480Y238860D01*
X569620Y238940D01*
X569780Y239000D01*
X569960Y239040D01*
X570000D01*
X570080Y239060D01*
X570160Y239100D01*
X570260Y239140D01*
X570400Y239200D01*
X570560Y239280D01*
X570740Y239380D01*
X570760Y239400D01*
X570840Y239440D01*
X570940Y239500D01*
X571080Y239600D01*
X571240Y239720D01*
X571420Y239860D01*
X571620Y240020D01*
X571820Y240200D01*
X572300Y240600D01*
X572320Y240620D01*
X572400Y240680D01*
X572480Y240720D01*
X572540Y240740D01*
X572560D01*
X572600Y240760D01*
X572680Y240800D01*
X572800Y240860D01*
X573260Y241140D01*
X573940Y241520D01*
X573900Y243880D01*
Y243900D01*
Y243940D01*
Y244020D01*
Y244120D01*
Y244240D01*
X573880Y244380D01*
Y244700D01*
X573860Y245040D01*
Y245380D01*
X573840Y245680D01*
X573820Y245800D01*
Y245900D01*
Y245920D01*
Y245980D01*
X573800Y246080D01*
X573780Y246180D01*
X573740Y246380D01*
X573700Y246460D01*
X573660Y246520D01*
X573460Y246840D01*
D02*
G37*
G36*
X545260Y248240D02*
X545020Y248020D01*
X545000Y248000D01*
X544940Y247920D01*
X544860Y247780D01*
X544820Y247580D01*
Y247560D01*
Y247520D01*
Y247440D01*
X544800Y247320D01*
Y247160D01*
X544780Y246940D01*
Y246700D01*
X544760Y246380D01*
Y246360D01*
Y246340D01*
Y246280D01*
X544740Y246200D01*
X544720Y246020D01*
X544700Y245780D01*
X544680Y245500D01*
X544640Y245240D01*
X544600Y244960D01*
X544540Y244720D01*
Y244700D01*
X544520Y244620D01*
X544480Y244520D01*
X544440Y244380D01*
X544300Y244080D01*
X544220Y243940D01*
X544120Y243800D01*
X544100Y243780D01*
X544040Y243700D01*
X543960Y243580D01*
X543860Y243400D01*
X543720Y243180D01*
X543580Y242920D01*
X543420Y242600D01*
X543260Y242260D01*
Y242240D01*
X543240Y242220D01*
X543200Y242100D01*
X543120Y241920D01*
X543060Y241700D01*
X542980Y241460D01*
X542900Y241200D01*
X542860Y240940D01*
X542840Y240700D01*
Y240680D01*
X542820Y240600D01*
X542780Y240460D01*
X542700Y240260D01*
Y240240D01*
X542680Y240200D01*
X542640Y240140D01*
X542620Y240080D01*
X542520Y239880D01*
X542400Y239660D01*
Y239640D01*
X542380Y239620D01*
X542340Y239560D01*
X542300Y239480D01*
X542200Y239300D01*
X542080Y239060D01*
X541920Y238760D01*
X541760Y238460D01*
X541600Y238140D01*
X541440Y237840D01*
X541420Y237800D01*
X541380Y237720D01*
X541300Y237580D01*
X541240Y237400D01*
X541060Y237040D01*
X541000Y236880D01*
X540960Y236760D01*
X540840Y236300D01*
Y236280D01*
Y236240D01*
X540900Y236180D01*
X540940Y236160D01*
X541020Y236140D01*
X541060D01*
X541140Y236120D01*
X541220D01*
X541360Y236100D01*
X541520D01*
X541740Y236080D01*
X542000Y236060D01*
X542120D01*
X542260Y236040D01*
X542420D01*
X542760Y236000D01*
X542920Y235980D01*
X543060Y235960D01*
X543080D01*
X543120Y235940D01*
X543180D01*
X543240Y235920D01*
X543420Y235860D01*
X543600Y235760D01*
X543620D01*
X543640Y235740D01*
X543740Y235680D01*
X543920Y235600D01*
X544120Y235480D01*
X544140D01*
X544180Y235460D01*
X544240Y235420D01*
X544320Y235400D01*
X544520Y235320D01*
X544760Y235240D01*
X545760Y234840D01*
X545780D01*
X545820Y234820D01*
X545880Y234800D01*
X545960Y234780D01*
X546140Y234720D01*
X546360Y234660D01*
X546380Y234640D01*
X546460Y234600D01*
X546580Y234520D01*
X546740Y234420D01*
X547600Y233880D01*
X547620D01*
X547640Y233840D01*
X547780Y233760D01*
X547940Y233640D01*
X548120Y233520D01*
X548140Y233500D01*
X548180Y233460D01*
X548260Y233420D01*
X548380Y233340D01*
X548420Y233320D01*
X548500Y233280D01*
X548620Y233240D01*
X548760Y233180D01*
X548800D01*
X548880Y233140D01*
X549000Y233080D01*
X549160Y233000D01*
X549180D01*
X549200Y232980D01*
X549300Y232920D01*
X549440Y232820D01*
X549560Y232700D01*
X549580Y232680D01*
X549600Y232660D01*
X549720Y232540D01*
X549880Y232420D01*
X549940Y232360D01*
X550000Y232340D01*
X550020D01*
X550060Y232320D01*
X550120Y232280D01*
X550200Y232240D01*
X550300Y232180D01*
X550420Y232080D01*
X550580Y231960D01*
X550620Y231940D01*
X550720Y231860D01*
X550860Y231740D01*
X551060Y231580D01*
X551300Y231420D01*
X551580Y231220D01*
X551880Y231040D01*
X552200Y230840D01*
X552220D01*
X552240Y230820D01*
X552340Y230760D01*
X552500Y230700D01*
X552660Y230600D01*
X552860Y230520D01*
X553040Y230460D01*
X553200Y230400D01*
X553300D01*
X553320Y230420D01*
X553380Y230480D01*
X553480Y230600D01*
X553620Y230740D01*
X554240Y231460D01*
X554260Y231480D01*
X554280Y231500D01*
X554380Y231620D01*
X554480Y231780D01*
X554580Y231940D01*
Y231960D01*
X554600Y231980D01*
X554640Y232080D01*
X554680Y232260D01*
X554720Y232460D01*
Y232480D01*
Y232500D01*
X554740Y232560D01*
X554760Y232640D01*
X554800Y232820D01*
X554900Y233040D01*
X555020Y233240D01*
X555180Y233440D01*
X555400Y233580D01*
X555540Y233620D01*
X555680Y233640D01*
X555720D01*
X555860Y233620D01*
X556020Y233540D01*
X556120Y233500D01*
X556200Y233420D01*
X556280Y233340D01*
X556360Y233220D01*
X556440Y233080D01*
X556480Y232920D01*
X556520Y232720D01*
Y232480D01*
X556500Y232220D01*
X556440Y231920D01*
Y231900D01*
X556420Y231840D01*
X556400Y231760D01*
X556380Y231640D01*
X556280Y231380D01*
X556160Y231100D01*
Y231080D01*
X556120Y231040D01*
X556060Y230960D01*
X556000Y230840D01*
X555900Y230720D01*
X555760Y230560D01*
X555600Y230360D01*
X555420Y230160D01*
X554760Y229380D01*
X555020Y229340D01*
X555040D01*
X555140Y229300D01*
X555260Y229260D01*
X555420Y229180D01*
X555960Y228960D01*
X555980D01*
X556000Y228940D01*
X556140Y228880D01*
X556320Y228800D01*
X556520Y228720D01*
X556540D01*
X556580Y228700D01*
X556700Y228660D01*
X556840Y228620D01*
X556980Y228600D01*
X557000D01*
X557040Y228580D01*
X557100Y228560D01*
X557200Y228520D01*
X557360Y228440D01*
X557460Y228380D01*
X557520Y228320D01*
X557540Y228300D01*
X557620Y228240D01*
X557740Y228160D01*
X557880Y228100D01*
X558260Y227900D01*
X558280D01*
X558300Y227880D01*
X558360Y227840D01*
X558440Y227800D01*
X558620Y227700D01*
X558840Y227600D01*
X558860D01*
X558900Y227580D01*
X559020Y227540D01*
X559180Y227480D01*
X559320Y227460D01*
X559380D01*
X559460Y227440D01*
X559600Y227400D01*
X559760Y227340D01*
X560000Y227240D01*
X560280Y227120D01*
X560640Y226960D01*
X560660D01*
X560700Y226940D01*
X560760Y226920D01*
X560840Y226900D01*
X561060Y226820D01*
X561320Y226760D01*
X561360D01*
X561440Y226740D01*
X561540Y226760D01*
X561600Y226800D01*
X561660Y226860D01*
X561700Y226900D01*
X561740Y226960D01*
X561800Y227040D01*
X561880Y227160D01*
X562000Y227320D01*
X562140Y227520D01*
X562300Y227780D01*
X562320Y227800D01*
X562340Y227860D01*
X562380Y227940D01*
X562440Y228040D01*
X562520Y228180D01*
X562600Y228340D01*
X562760Y228700D01*
X562940Y229100D01*
X563100Y229520D01*
X563200Y229920D01*
X563240Y230100D01*
X563260Y230280D01*
Y230300D01*
Y230320D01*
X563280Y230400D01*
X563300Y230500D01*
X563360Y230580D01*
X563380Y230600D01*
X563420Y230640D01*
X563440Y230720D01*
X563460Y230820D01*
Y230840D01*
X563480Y230860D01*
X563520Y230960D01*
X563600Y231120D01*
X563740Y231280D01*
X563760Y231300D01*
X563780Y231320D01*
X563920Y231400D01*
X564100Y231460D01*
X564200Y231500D01*
X564360D01*
X564460Y231480D01*
X564600Y231440D01*
X564760Y231380D01*
X564900Y231260D01*
X565040Y231080D01*
X565100Y230960D01*
X565140Y230820D01*
X565180Y230660D01*
Y230480D01*
Y230460D01*
Y230440D01*
Y230340D01*
X565160Y230200D01*
X565140Y230060D01*
Y230040D01*
X565120Y229960D01*
X565080Y229880D01*
X565040Y229820D01*
Y229800D01*
X565000Y229760D01*
Y229700D01*
X564980Y229640D01*
X564960Y229540D01*
Y229420D01*
Y229400D01*
Y229360D01*
X564940Y229240D01*
X564900Y229080D01*
X564880Y229020D01*
X564840Y228980D01*
X564820Y228960D01*
X564800Y228920D01*
X564780Y228860D01*
X564760Y228740D01*
Y228700D01*
X564740Y228600D01*
X564700Y228440D01*
X564600Y228200D01*
Y228180D01*
X564580Y228140D01*
X564540Y228080D01*
X564500Y228000D01*
X564380Y227780D01*
X564240Y227540D01*
X563660Y226600D01*
Y226580D01*
X563620Y226540D01*
X563580Y226460D01*
X563540Y226380D01*
X563440Y226180D01*
X563400Y226100D01*
X563360Y226020D01*
Y226000D01*
Y225940D01*
X563380Y225880D01*
X563420Y225860D01*
X563460Y225840D01*
X563500D01*
X563580Y225800D01*
X563740Y225740D01*
X563960Y225620D01*
X563980D01*
X564020Y225600D01*
X564080Y225560D01*
X564160Y225540D01*
X564340Y225460D01*
X564480Y225440D01*
X564500D01*
X564540Y225420D01*
X564620D01*
X564740Y225380D01*
X564900Y225340D01*
X565100Y225280D01*
X565360Y225180D01*
X565680Y225080D01*
X565700D01*
X565720Y225060D01*
X565840Y225020D01*
X566020Y224980D01*
X566240Y224900D01*
X566480Y224800D01*
X566740Y224700D01*
X567000Y224600D01*
X567260Y224500D01*
X567280D01*
X567300Y224480D01*
X567420Y224400D01*
X567580Y224300D01*
X567760Y224200D01*
X567780D01*
X567800Y224180D01*
X567900Y224120D01*
X568000Y224040D01*
X568080Y223960D01*
X568100D01*
X568120Y223920D01*
X568220Y223860D01*
X568340Y223780D01*
X568480Y223740D01*
X568520D01*
X568580Y223720D01*
X568660Y223680D01*
X568740Y223620D01*
X568760Y223600D01*
X568820Y223580D01*
X568940Y223540D01*
X569020Y223520D01*
X569220D01*
X569320Y223500D01*
X569480Y223460D01*
X569500D01*
X569520Y223440D01*
X569620Y223420D01*
X569780Y223360D01*
X569940Y223300D01*
X569960D01*
X569980Y223280D01*
X570100Y223240D01*
X570260Y223200D01*
X570480Y223140D01*
X570540D01*
X570600Y223120D01*
X570680D01*
X570860Y223100D01*
X571220D01*
X571320Y223080D01*
X571560Y223060D01*
X571660Y223020D01*
X571720Y222980D01*
X571760Y222960D01*
X571800Y222940D01*
X571880Y222900D01*
X571980Y222880D01*
X572120Y222840D01*
X572300Y222800D01*
X572520Y222760D01*
X572560D01*
X572640Y222740D01*
X572760Y222720D01*
X572940D01*
X573140Y222700D01*
X573380Y222680D01*
X573900Y222660D01*
X574120D01*
X574320Y222640D01*
X574560Y222620D01*
X574620D01*
X574760Y222600D01*
X574920Y222560D01*
X575060Y222520D01*
X575100D01*
X575180Y222480D01*
X575340Y222440D01*
X575580Y222400D01*
X575640D01*
X575720Y222380D01*
X575820D01*
X575940Y222360D01*
X576080D01*
X576400Y222340D01*
X577300D01*
Y225660D01*
Y225680D01*
Y225760D01*
Y225860D01*
Y226000D01*
Y226160D01*
Y226360D01*
Y226780D01*
Y227260D01*
Y227720D01*
X577280Y227920D01*
Y228120D01*
Y228300D01*
Y228440D01*
Y228480D01*
Y228560D01*
X577260Y228660D01*
Y228800D01*
X577240Y228920D01*
X577220Y229040D01*
X577180Y229120D01*
X577140Y229140D01*
X577120Y229160D01*
X577080Y229240D01*
X577020Y229360D01*
X576980Y229480D01*
X576960Y229520D01*
X576940Y229580D01*
X576880Y229640D01*
X576800Y229760D01*
X576680Y229900D01*
X576520Y230060D01*
X576320Y230280D01*
X576300Y230300D01*
X576220Y230380D01*
X576100Y230500D01*
X575960Y230640D01*
X575800Y230800D01*
X575620Y230960D01*
X575440Y231120D01*
X575260Y231260D01*
X574820Y231520D01*
X574440Y231880D01*
X574420Y231900D01*
X574380Y231920D01*
X574300Y231980D01*
X574200Y232060D01*
X574060Y232140D01*
X573880Y232240D01*
X573680Y232340D01*
X573440Y232440D01*
X573420Y232460D01*
X573320Y232480D01*
X573200Y232540D01*
X573020Y232600D01*
X572820Y232680D01*
X572580Y232740D01*
X572100Y232860D01*
X571500Y233020D01*
X570840Y233240D01*
X570820D01*
X570780Y233260D01*
X570740Y233280D01*
X570660Y233320D01*
X570460Y233380D01*
X570260Y233440D01*
X570240D01*
X570220Y233460D01*
X570100Y233480D01*
X569980Y233500D01*
X569860Y233520D01*
X569840D01*
X569780Y233540D01*
X569680Y233560D01*
X569540Y233600D01*
X569500Y233620D01*
X569400Y233660D01*
X569260Y233720D01*
X569080Y233800D01*
X569040Y233820D01*
X568980Y233840D01*
X568920Y233880D01*
X568720Y233940D01*
X568440Y234020D01*
X568420D01*
X568380Y234040D01*
X568300Y234060D01*
X568180Y234100D01*
X568060Y234120D01*
X567920Y234160D01*
X567600Y234220D01*
X566620Y234380D01*
X565680Y234580D01*
X565660D01*
X565620Y234600D01*
X565540Y234620D01*
X565420Y234640D01*
X565300Y234680D01*
X565140Y234700D01*
X564800Y234760D01*
X564780D01*
X564720Y234780D01*
X564620D01*
X564520Y234800D01*
X564240Y234820D01*
X563460D01*
X563160Y234840D01*
X563100D01*
X563020Y234860D01*
X562920D01*
X562720Y234900D01*
X562500Y234920D01*
X562460D01*
X562400Y234940D01*
X562320D01*
X562220Y234960D01*
X562100Y234980D01*
X561940D01*
X561780Y235000D01*
X560880Y235120D01*
X560800D01*
X560720Y235140D01*
X560600D01*
X560460Y235160D01*
X560300Y235180D01*
X559940Y235220D01*
X559540Y235260D01*
X559140Y235320D01*
X558760Y235360D01*
X558580Y235400D01*
X558420Y235420D01*
X558380D01*
X558300Y235440D01*
X558160Y235480D01*
X558020Y235500D01*
X557860Y235560D01*
X557700Y235600D01*
X557580Y235640D01*
X557500Y235700D01*
X557480Y235720D01*
X557420Y235780D01*
X557340Y235840D01*
X557240Y235880D01*
X557220D01*
X557180Y235900D01*
X557140Y235920D01*
X557060Y235960D01*
X556980Y236020D01*
X556860Y236100D01*
X556700Y236200D01*
X556680Y236220D01*
X556640Y236260D01*
X556560Y236300D01*
X556460Y236380D01*
X556240Y236560D01*
X556020Y236740D01*
X556000Y236760D01*
X555980Y236780D01*
X555880Y236880D01*
X555740Y236960D01*
X555680Y237000D01*
X555620Y237020D01*
X555600D01*
X555540Y237040D01*
X555440Y237080D01*
X555300Y237120D01*
X554940Y237280D01*
X554280Y237660D01*
X554240Y237680D01*
X554160Y237720D01*
X554020Y237800D01*
X553860Y237900D01*
X553660Y238000D01*
X553440Y238100D01*
X552980Y238320D01*
X552960Y238340D01*
X552880Y238360D01*
X552780Y238420D01*
X552660Y238460D01*
X552420Y238580D01*
X552300Y238620D01*
X552220Y238640D01*
X552200D01*
X552120Y238660D01*
X552000Y238720D01*
X551820Y238820D01*
X551800D01*
X551780Y238860D01*
X551720Y238900D01*
X551640Y238960D01*
X551460Y239100D01*
X551240Y239300D01*
X551220Y239320D01*
X551160Y239380D01*
X551060Y239460D01*
X550960Y239560D01*
X550700Y239740D01*
X550580Y239820D01*
X550480Y239880D01*
X550440Y239900D01*
X550380Y239920D01*
X550320Y239940D01*
X550220Y239980D01*
X550100Y240000D01*
X549940Y240020D01*
X549780Y240040D01*
X549700D01*
X549620Y240060D01*
X549520Y240080D01*
X549260Y240120D01*
X549020Y240200D01*
X549000D01*
X548980Y240220D01*
X548920Y240260D01*
X548840Y240300D01*
X548620Y240400D01*
X548340Y240560D01*
X548300Y240580D01*
X548220Y240620D01*
X548100Y240700D01*
X547940Y240780D01*
X547580Y240960D01*
X547400Y241020D01*
X547240Y241080D01*
X547220D01*
X547180Y241100D01*
X546940D01*
X546840Y241080D01*
X546740Y241020D01*
X546660Y240960D01*
X546620Y240920D01*
X546520Y240860D01*
X546360Y240780D01*
X546240Y240760D01*
X546120Y240740D01*
X546060D01*
X546000Y240760D01*
X545920Y240780D01*
X545720Y240840D01*
X545620Y240900D01*
X545540Y240980D01*
X545260Y241220D01*
Y248240D01*
D02*
G37*
G36*
X553400Y227920D02*
X553360D01*
X553240Y227900D01*
X553120Y227840D01*
X553060Y227800D01*
X553040Y227720D01*
Y227680D01*
X553000Y227580D01*
X552940Y227460D01*
X552840Y227320D01*
X552820Y227300D01*
X552780Y227240D01*
X552720Y227160D01*
X552640Y227040D01*
X552480Y226720D01*
Y226700D01*
X552460Y226660D01*
X552420Y226580D01*
X552380Y226500D01*
X552260Y226300D01*
X552140Y226080D01*
Y226060D01*
X552120Y226040D01*
X552080Y225980D01*
X552020Y225900D01*
X551880Y225700D01*
X551660Y225440D01*
X551280Y224960D01*
X551200Y221380D01*
X551160Y218840D01*
Y218820D01*
Y218800D01*
Y218660D01*
X551140Y218480D01*
Y218280D01*
X551120Y218060D01*
X551100Y217860D01*
X551060Y217700D01*
Y217660D01*
X551040Y217620D01*
Y217600D01*
Y217560D01*
X551060Y217520D01*
X551120Y217500D01*
X551200Y217480D01*
X551300Y217460D01*
X551480D01*
X551660Y217440D01*
X552560D01*
X552800Y217460D01*
X554240D01*
X554480Y217480D01*
X554760D01*
X554820Y217500D01*
X554920D01*
X555080Y217540D01*
X555140Y217580D01*
X555180Y217620D01*
X555200Y217640D01*
X555260Y217680D01*
X555340Y217740D01*
X555440Y217760D01*
X555460D01*
X555520Y217800D01*
X555620Y217880D01*
X555660Y217940D01*
X555720Y218020D01*
X555740Y218040D01*
X555800Y218120D01*
X555920Y218220D01*
X556000Y218300D01*
X556100Y218380D01*
X556120Y218400D01*
X556160Y218420D01*
X556220Y218480D01*
X556300Y218540D01*
X556500Y218720D01*
X556760Y218920D01*
X556780Y218940D01*
X556820Y218980D01*
X556900Y219040D01*
X556980Y219100D01*
X557200Y219300D01*
X557420Y219520D01*
X557440Y219540D01*
X557460Y219560D01*
X557580Y219680D01*
X557700Y219840D01*
X557760Y219900D01*
X557800Y219960D01*
Y219980D01*
X557820Y220020D01*
X557900Y220120D01*
X557960Y220260D01*
X558000Y220300D01*
X558040Y220340D01*
X558060Y220360D01*
X558120Y220420D01*
X558160Y220460D01*
X558200Y220540D01*
X558280Y220620D01*
X558360Y220740D01*
X558380Y220760D01*
X558400Y220800D01*
X558460Y220900D01*
X558560Y221020D01*
X558660Y221180D01*
X558800Y221400D01*
X558940Y221640D01*
X559120Y221920D01*
X560140Y223720D01*
Y223740D01*
X560160Y223760D01*
X560240Y223880D01*
X560320Y224000D01*
X560420Y224100D01*
X560440Y224140D01*
X560500Y224220D01*
X560560Y224320D01*
X560600Y224440D01*
Y224460D01*
X560620Y224520D01*
X560680Y224600D01*
X560760Y224700D01*
X560780D01*
X560800Y224720D01*
X560880Y224800D01*
X560900Y224840D01*
X560880Y224900D01*
X560820Y224960D01*
X560720Y225020D01*
X560700D01*
X560640Y225060D01*
X560520Y225100D01*
X560440Y225140D01*
X560340Y225180D01*
X560220Y225220D01*
X560060Y225280D01*
X559900Y225340D01*
X559700Y225400D01*
X559480Y225480D01*
X559240Y225560D01*
X558960Y225640D01*
X558660Y225740D01*
X558640D01*
X558600Y225760D01*
X558520Y225780D01*
X558400Y225820D01*
X558280Y225880D01*
X558140Y225920D01*
X557820Y226060D01*
X557800D01*
X557760Y226100D01*
X557680Y226140D01*
X557580Y226180D01*
X557360Y226280D01*
X557160Y226400D01*
X557120Y226420D01*
X557020Y226500D01*
X556860Y226600D01*
X556680Y226700D01*
X556640Y226720D01*
X556540Y226780D01*
X556420Y226840D01*
X556300Y226880D01*
X556280D01*
X556200Y226920D01*
X556080Y226940D01*
X555920Y227000D01*
X555460Y227200D01*
X555440Y227220D01*
X555380Y227240D01*
X555260Y227300D01*
X555120Y227360D01*
X554960Y227440D01*
X554760Y227520D01*
X554340Y227680D01*
X554320Y227700D01*
X554240Y227720D01*
X554140Y227760D01*
X554000Y227800D01*
X553700Y227880D01*
X553540Y227900D01*
X553400Y227920D01*
D02*
G37*
%LPD*%
D10*
X514506Y161136D02*
G03*
X514506Y161136I-492J0D01*
G01*
X624709Y275012D02*
G03*
X624709Y275012I-492J0D01*
G01*
X519146Y295228D02*
G03*
X519146Y295228I-492J0D01*
G01*
X610008Y182811D02*
G03*
X610008Y182811I-492J0D01*
G01*
X628406Y320614D02*
G03*
X628406Y320614I-492J0D01*
G01*
X404815Y299413D02*
G03*
X404815Y299413I-492J0D01*
G01*
Y282913D02*
G03*
X404815Y282913I-492J0D01*
G01*
Y266913D02*
G03*
X404815Y266913I-492J0D01*
G01*
Y250913D02*
G03*
X404815Y250913I-492J0D01*
G01*
Y234413D02*
G03*
X404815Y234413I-492J0D01*
G01*
D11*
X711933Y326573D02*
G03*
X709197Y329309I-2736J0D01*
G01*
X691067Y172636D02*
G03*
X688331Y169900I0J-2736D01*
G01*
Y332065D02*
G03*
X691067Y329329I2736J0D01*
G01*
X709197Y172655D02*
G03*
X711933Y175392I0J2736D01*
G01*
X526213Y200122D02*
X527787D01*
X526213Y202878D02*
X527787D01*
X537636Y171963D02*
X541573D01*
X506140D02*
X510077D01*
X506140D02*
Y186136D01*
X541573Y171963D02*
Y186136D01*
X506140D02*
X510077D01*
X537636D02*
X541573D01*
X623213Y267622D02*
X624787D01*
X623213Y270378D02*
X624787D01*
X609665Y267622D02*
X611240D01*
X609665Y270378D02*
X611240D01*
X676500Y146455D02*
Y355510D01*
X691067Y329329D02*
X709177D01*
X691067Y172636D02*
X709177D01*
X711933Y175392D02*
Y326573D01*
X639098Y321849D02*
X676500D01*
X688311Y146455D02*
Y355510D01*
X639098Y180116D02*
X676500D01*
X639098Y146455D02*
Y355510D01*
X688311D01*
X639098Y146455D02*
X688311D01*
X568858Y272858D02*
X601142D01*
X568858Y305142D02*
X601142D01*
Y272858D02*
Y273646D01*
X568858Y272858D02*
Y273646D01*
X601142Y304354D02*
Y305142D01*
X568858Y304354D02*
Y305142D01*
X617228Y276095D02*
X620772D01*
X617228Y287906D02*
X620772D01*
Y276095D02*
Y287906D01*
X617228Y276095D02*
Y287906D01*
X391713Y196122D02*
X393287D01*
X391713Y198878D02*
X393287D01*
X437260Y196122D02*
X438835D01*
X437260Y198878D02*
X438835D01*
X587000Y336500D02*
Y346500D01*
X517000Y336500D02*
X587000D01*
X517000D02*
Y346500D01*
X587000D01*
X495122Y319939D02*
Y321514D01*
X497878Y319939D02*
Y321514D01*
X485122Y319986D02*
Y321561D01*
X487878Y319986D02*
Y321561D01*
X465122Y319939D02*
Y321514D01*
X467878Y319939D02*
Y321514D01*
X455122Y319939D02*
Y321514D01*
X457878Y319939D02*
Y321514D01*
X445122Y319939D02*
Y321514D01*
X447878Y319939D02*
Y321514D01*
X441500Y343226D02*
X501500D01*
X441500Y333226D02*
X501500D01*
Y343226D01*
X441500Y333226D02*
Y343226D01*
X578213Y331622D02*
X579787D01*
X578213Y334378D02*
X579787D01*
X560169Y300051D02*
Y318949D01*
X518831Y300051D02*
Y318949D01*
X560169D01*
X518831Y300051D02*
X560169D01*
X588925Y215500D02*
X590500D01*
X588925Y212744D02*
X590500D01*
X591898Y209189D02*
X604102D01*
X591898Y182811D02*
X604102D01*
X591898D02*
Y209189D01*
X604102Y182811D02*
Y209189D01*
X616791Y299945D02*
X617677D01*
X616791Y318055D02*
X617677D01*
X627323Y299945D02*
X628209D01*
X627323Y318055D02*
X628209D01*
X616791Y299945D02*
Y318055D01*
X628209Y299945D02*
Y318055D01*
X492122Y169213D02*
Y170787D01*
X494878Y169213D02*
Y170787D01*
X450122Y169213D02*
Y170787D01*
X452878Y169213D02*
Y170787D01*
X404122Y169713D02*
Y171287D01*
X406878Y169713D02*
Y171287D01*
X468122Y292213D02*
Y293787D01*
X470878Y292213D02*
Y293787D01*
X445878Y246213D02*
Y247787D01*
X443122Y246213D02*
Y247787D01*
X434378Y251713D02*
Y253287D01*
X431622Y251713D02*
Y253287D01*
X480213Y198878D02*
X481787D01*
X480213Y196122D02*
X481787D01*
X384713Y307878D02*
X386287D01*
X384713Y305122D02*
X386287D01*
X384713Y291378D02*
X386287D01*
X384713Y288622D02*
X386287D01*
X384213Y275378D02*
X385787D01*
X384213Y272622D02*
X385787D01*
X384213Y259378D02*
X385787D01*
X384213Y256622D02*
X385787D01*
X396547Y309256D02*
Y312602D01*
X400878D01*
X396547Y300398D02*
Y303744D01*
Y300398D02*
X400878D01*
X384213Y242878D02*
X385787D01*
X384213Y240122D02*
X385787D01*
X396547Y292756D02*
Y296102D01*
X400878D01*
X396547Y283898D02*
Y287244D01*
Y283898D02*
X400878D01*
X396547Y276756D02*
Y280102D01*
X400878D01*
X396547Y267898D02*
Y271244D01*
Y267898D02*
X400878D01*
X396547Y260756D02*
Y264102D01*
X400878D01*
X396547Y251898D02*
Y255244D01*
Y251898D02*
X400878D01*
X396547Y244256D02*
Y247602D01*
X400878D01*
X396547Y235398D02*
Y238744D01*
Y235398D02*
X400878D01*
D12*
X523949Y303988D02*
G03*
X523949Y303988I-1181J0D01*
G01*
D13*
X449828Y273764D02*
G03*
X449828Y273764I-300J0D01*
G01*
X496700Y275671D02*
Y279200D01*
X493171Y238800D02*
X496700D01*
X456300D02*
Y242329D01*
Y275671D02*
Y279200D01*
X493171D02*
X496700D01*
Y238800D02*
Y242329D01*
X456300Y238800D02*
X459829D01*
X456300Y279200D02*
X459829D01*
X632500Y317000D02*
Y315934D01*
Y316467D01*
X635699D01*
X635166Y317000D01*
X631323Y190403D02*
Y189337D01*
Y189870D01*
X634522D01*
X633989Y190403D01*
Y187738D02*
X634522Y187205D01*
Y186138D01*
X633989Y185605D01*
X633456D01*
X632922Y186138D01*
Y186671D01*
Y186138D01*
X632389Y185605D01*
X631856D01*
X631323Y186138D01*
Y187205D01*
X631856Y187738D01*
X668724Y315409D02*
Y314343D01*
Y314876D01*
X671923D01*
X671390Y315409D01*
X668724Y311144D02*
X671923D01*
X670324Y312744D01*
Y310611D01*
X668724Y194198D02*
Y196331D01*
X670857Y194198D01*
X671390D01*
X671923Y194731D01*
Y195798D01*
X671390Y196331D01*
X671923Y190999D02*
Y193132D01*
X670324D01*
X670857Y192065D01*
Y191532D01*
X670324Y190999D01*
X669258D01*
X668724Y191532D01*
Y192599D01*
X669258Y193132D01*
X355133Y327666D02*
X354599Y328199D01*
X353533D01*
X353000Y327666D01*
Y327133D01*
X353533Y326600D01*
X354599D01*
X355133Y326066D01*
Y325533D01*
X354599Y325000D01*
X353533D01*
X353000Y325533D01*
X356732Y327666D02*
Y327133D01*
X356199D01*
X357265D01*
X356732D01*
Y325533D01*
X357265Y325000D01*
X359398Y327133D02*
X360464D01*
X360997Y326600D01*
Y325000D01*
X359398D01*
X358865Y325533D01*
X359398Y326066D01*
X360997D01*
X362064Y325000D02*
Y327133D01*
X363663D01*
X364196Y326600D01*
Y325000D01*
X367395Y328199D02*
Y325000D01*
X365796D01*
X365263Y325533D01*
Y326600D01*
X365796Y327133D01*
X367395D01*
X368995Y325000D02*
X370061D01*
X370594Y325533D01*
Y326600D01*
X370061Y327133D01*
X368995D01*
X368462Y326600D01*
Y325533D01*
X368995Y325000D01*
X372194D02*
Y327666D01*
Y326600D01*
X371661D01*
X372727D01*
X372194D01*
Y327666D01*
X372727Y328199D01*
X374860Y325000D02*
Y327666D01*
Y326600D01*
X374326D01*
X375393D01*
X374860D01*
Y327666D01*
X375393Y328199D01*
X588133Y148666D02*
X587600Y149199D01*
X586533D01*
X586000Y148666D01*
Y148133D01*
X586533Y147599D01*
X587600D01*
X588133Y147066D01*
Y146533D01*
X587600Y146000D01*
X586533D01*
X586000Y146533D01*
X589732Y148666D02*
Y148133D01*
X589199D01*
X590265D01*
X589732D01*
Y146533D01*
X590265Y146000D01*
X592398Y148133D02*
X593464D01*
X593997Y147599D01*
Y146000D01*
X592398D01*
X591865Y146533D01*
X592398Y147066D01*
X593997D01*
X595064Y146000D02*
Y148133D01*
X596663D01*
X597196Y147599D01*
Y146000D01*
X600395Y149199D02*
Y146000D01*
X598796D01*
X598263Y146533D01*
Y147599D01*
X598796Y148133D01*
X600395D01*
X601995Y146000D02*
X603061D01*
X603594Y146533D01*
Y147599D01*
X603061Y148133D01*
X601995D01*
X601462Y147599D01*
Y146533D01*
X601995Y146000D01*
X605194D02*
Y148666D01*
Y147599D01*
X604661D01*
X605727D01*
X605194D01*
Y148666D01*
X605727Y149199D01*
X607860Y146000D02*
Y148666D01*
Y147599D01*
X607327D01*
X608393D01*
X607860D01*
Y148666D01*
X608393Y149199D01*
X603133Y331666D02*
X602599Y332199D01*
X601533D01*
X601000Y331666D01*
Y331133D01*
X601533Y330599D01*
X602599D01*
X603133Y330066D01*
Y329533D01*
X602599Y329000D01*
X601533D01*
X601000Y329533D01*
X604732Y331666D02*
Y331133D01*
X604199D01*
X605265D01*
X604732D01*
Y329533D01*
X605265Y329000D01*
X607398Y331133D02*
X608464D01*
X608997Y330599D01*
Y329000D01*
X607398D01*
X606865Y329533D01*
X607398Y330066D01*
X608997D01*
X610064Y329000D02*
Y331133D01*
X611663D01*
X612196Y330599D01*
Y329000D01*
X615395Y332199D02*
Y329000D01*
X613796D01*
X613263Y329533D01*
Y330599D01*
X613796Y331133D01*
X615395D01*
X616995Y329000D02*
X618061D01*
X618594Y329533D01*
Y330599D01*
X618061Y331133D01*
X616995D01*
X616462Y330599D01*
Y329533D01*
X616995Y329000D01*
X620194D02*
Y331666D01*
Y330599D01*
X619661D01*
X620727D01*
X620194D01*
Y331666D01*
X620727Y332199D01*
X622860Y329000D02*
Y331666D01*
Y330599D01*
X622327D01*
X623393D01*
X622860D01*
Y331666D01*
X623393Y332199D01*
X436133Y211666D02*
X435600Y212199D01*
X434533D01*
X434000Y211666D01*
Y209533D01*
X434533Y209000D01*
X435600D01*
X436133Y209533D01*
Y210599D01*
X435066D01*
X437199Y209000D02*
Y212199D01*
X439332Y209000D01*
Y212199D01*
X440398D02*
Y209000D01*
X441997D01*
X442531Y209533D01*
Y211666D01*
X441997Y212199D01*
X440398D01*
X390633Y213166D02*
X390100Y213699D01*
X389033D01*
X388500Y213166D01*
Y211033D01*
X389033Y210500D01*
X390100D01*
X390633Y211033D01*
Y212100D01*
X389566D01*
X391699Y210500D02*
Y213699D01*
X393832Y210500D01*
Y213699D01*
X394898D02*
Y210500D01*
X396497D01*
X397031Y211033D01*
Y213166D01*
X396497Y213699D01*
X394898D01*
X366633Y315666D02*
X366100Y316199D01*
X365033D01*
X364500Y315666D01*
Y313533D01*
X365033Y313000D01*
X366100D01*
X366633Y313533D01*
Y314599D01*
X365566D01*
X367699Y313000D02*
Y316199D01*
X369832Y313000D01*
Y316199D01*
X370898D02*
Y313000D01*
X372497D01*
X373031Y313533D01*
Y315666D01*
X372497Y316199D01*
X370898D01*
X440133Y347666D02*
X439600Y348199D01*
X438533D01*
X438000Y347666D01*
Y347133D01*
X438533Y346600D01*
X439600D01*
X440133Y346066D01*
Y345533D01*
X439600Y345000D01*
X438533D01*
X438000Y345533D01*
X441199Y348199D02*
Y345000D01*
X442265Y346066D01*
X443332Y345000D01*
Y348199D01*
X445997D02*
X444931D01*
X444398Y347666D01*
Y345533D01*
X444931Y345000D01*
X445997D01*
X446531Y345533D01*
Y347666D01*
X445997Y348199D01*
X449000Y345000D02*
Y348199D01*
X451133Y345000D01*
Y348199D01*
X452199Y345000D02*
Y348199D01*
X453798D01*
X454332Y347666D01*
Y346600D01*
X453798Y346066D01*
X452199D01*
X453265D02*
X454332Y345000D01*
X457531Y347666D02*
X456997Y348199D01*
X455931D01*
X455398Y347666D01*
Y347133D01*
X455931Y346600D01*
X456997D01*
X457531Y346066D01*
Y345533D01*
X456997Y345000D01*
X455931D01*
X455398Y345533D01*
X458597Y348199D02*
X460730D01*
X459663D01*
Y345000D01*
X462500Y348199D02*
X464633D01*
X463566D01*
Y345000D01*
X465699D02*
Y348199D01*
X466765Y347133D01*
X467832Y348199D01*
Y345000D01*
X471031Y347666D02*
X470497Y348199D01*
X469431D01*
X468898Y347666D01*
Y347133D01*
X469431Y346600D01*
X470497D01*
X471031Y346066D01*
Y345533D01*
X470497Y345000D01*
X469431D01*
X468898Y345533D01*
X475133Y347666D02*
X474600Y348199D01*
X473533D01*
X473000Y347666D01*
Y345533D01*
X473533Y345000D01*
X474600D01*
X475133Y345533D01*
Y346600D01*
X474066D01*
X476199Y345000D02*
Y348199D01*
X478332Y345000D01*
Y348199D01*
X479398D02*
Y345000D01*
X480997D01*
X481531Y345533D01*
Y347666D01*
X480997Y348199D01*
X479398D01*
X483500D02*
X485633D01*
X484566D01*
Y345000D01*
X488832Y347666D02*
X488298Y348199D01*
X487232D01*
X486699Y347666D01*
Y345533D01*
X487232Y345000D01*
X488298D01*
X488832Y345533D01*
X489898Y348199D02*
Y345000D01*
Y346066D01*
X492031Y348199D01*
X490431Y346600D01*
X492031Y345000D01*
X494500Y348199D02*
Y346066D01*
X495566Y345000D01*
X496633Y346066D01*
Y348199D01*
X497699D02*
Y345000D01*
X499298D01*
X499832Y345533D01*
Y347666D01*
X499298Y348199D01*
X497699D01*
X500898D02*
Y345000D01*
X502497D01*
X503031Y345533D01*
Y347666D01*
X502497Y348199D01*
X500898D01*
X579500Y348500D02*
Y351699D01*
X580566Y350633D01*
X581633Y351699D01*
Y348500D01*
X582699Y351699D02*
X583765D01*
X583232D01*
Y348500D01*
X582699D01*
X583765D01*
X587497Y351166D02*
X586964Y351699D01*
X585898D01*
X585365Y351166D01*
Y350633D01*
X585898Y350099D01*
X586964D01*
X587497Y349566D01*
Y349033D01*
X586964Y348500D01*
X585898D01*
X585365Y349033D01*
X590163Y351699D02*
X589097D01*
X588564Y351166D01*
Y349033D01*
X589097Y348500D01*
X590163D01*
X590696Y349033D01*
Y351166D01*
X590163Y351699D01*
X571133Y351166D02*
X570600Y351699D01*
X569533D01*
X569000Y351166D01*
Y350633D01*
X569533Y350099D01*
X570600D01*
X571133Y349566D01*
Y349033D01*
X570600Y348500D01*
X569533D01*
X569000Y349033D01*
X574332Y351166D02*
X573798Y351699D01*
X572732D01*
X572199Y351166D01*
Y349033D01*
X572732Y348500D01*
X573798D01*
X574332Y349033D01*
X575398Y351699D02*
Y348500D01*
Y349566D01*
X577531Y351699D01*
X575931Y350099D01*
X577531Y348500D01*
X562133Y351166D02*
X561599Y351699D01*
X560533D01*
X560000Y351166D01*
Y349033D01*
X560533Y348500D01*
X561599D01*
X562133Y349033D01*
X565332Y351166D02*
X564798Y351699D01*
X563732D01*
X563199Y351166D01*
Y350633D01*
X563732Y350099D01*
X564798D01*
X565332Y349566D01*
Y349033D01*
X564798Y348500D01*
X563732D01*
X563199Y349033D01*
X546500Y348500D02*
Y351699D01*
X547566Y350633D01*
X548633Y351699D01*
Y348500D01*
X551298Y351699D02*
X550232D01*
X549699Y351166D01*
Y349033D01*
X550232Y348500D01*
X551298D01*
X551832Y349033D01*
Y351166D01*
X551298Y351699D01*
X555031Y351166D02*
X554497Y351699D01*
X553431D01*
X552898Y351166D01*
Y350633D01*
X553431Y350099D01*
X554497D01*
X555031Y349566D01*
Y349033D01*
X554497Y348500D01*
X553431D01*
X552898Y349033D01*
X556097Y351699D02*
X557163D01*
X556630D01*
Y348500D01*
X556097D01*
X557163D01*
X538000Y350099D02*
X540133D01*
X539066Y351166D02*
Y349033D01*
X543332Y351699D02*
X541199D01*
Y350099D01*
X542265Y350633D01*
X542798D01*
X543332Y350099D01*
Y349033D01*
X542798Y348500D01*
X541732D01*
X541199Y349033D01*
X529000Y350099D02*
X531133D01*
X530066Y351166D02*
Y349033D01*
X534332Y351699D02*
X532199D01*
Y350099D01*
X533265Y350633D01*
X533798D01*
X534332Y350099D01*
Y349033D01*
X533798Y348500D01*
X532732D01*
X532199Y349033D01*
X519633Y351166D02*
X519100Y351699D01*
X518033D01*
X517500Y351166D01*
Y349033D01*
X518033Y348500D01*
X519100D01*
X519633Y349033D01*
Y350099D01*
X518566D01*
X520699Y348500D02*
Y351699D01*
X522832Y348500D01*
Y351699D01*
X523898D02*
Y348500D01*
X525497D01*
X526031Y349033D01*
Y351166D01*
X525497Y351699D01*
X523898D01*
X567633Y264166D02*
X567100Y264699D01*
X566033D01*
X565500Y264166D01*
Y262033D01*
X566033Y261500D01*
X567100D01*
X567633Y262033D01*
X568699Y261500D02*
X569765D01*
X569232D01*
Y264699D01*
X568699Y264166D01*
X571365Y262033D02*
X571898Y261500D01*
X572964D01*
X573497Y262033D01*
Y264166D01*
X572964Y264699D01*
X571898D01*
X571365Y264166D01*
Y263633D01*
X571898Y263100D01*
X573497D01*
X619000Y262500D02*
Y265699D01*
X620600D01*
X621133Y265166D01*
Y264100D01*
X620600Y263566D01*
X619000D01*
X620066D02*
X621133Y262500D01*
X624332D02*
X622199D01*
X624332Y264633D01*
Y265166D01*
X623798Y265699D01*
X622732D01*
X622199Y265166D01*
X625398D02*
X625931Y265699D01*
X626997D01*
X627531Y265166D01*
Y264633D01*
X626997Y264100D01*
X626464D01*
X626997D01*
X627531Y263566D01*
Y263033D01*
X626997Y262500D01*
X625931D01*
X625398Y263033D01*
X595500Y267500D02*
Y270699D01*
X597099D01*
X597633Y270166D01*
Y269099D01*
X597099Y268566D01*
X595500D01*
X596566D02*
X597633Y267500D01*
X600832D02*
X598699D01*
X600832Y269633D01*
Y270166D01*
X600298Y270699D01*
X599232D01*
X598699Y270166D01*
X604031Y267500D02*
X601898D01*
X604031Y269633D01*
Y270166D01*
X603497Y270699D01*
X602431D01*
X601898Y270166D01*
X561301Y276000D02*
X564500D01*
Y278133D01*
Y281332D02*
Y279199D01*
X562367Y281332D01*
X561834D01*
X561301Y280799D01*
Y279732D01*
X561834Y279199D01*
X582000Y329500D02*
Y326301D01*
X580401D01*
X579867Y326834D01*
Y327901D01*
X580401Y328434D01*
X582000D01*
X580934D02*
X579867Y329500D01*
X576668D02*
X578801D01*
X576668Y327367D01*
Y326834D01*
X577202Y326301D01*
X578268D01*
X578801Y326834D01*
X575602Y329500D02*
X574536D01*
X575069D01*
Y326301D01*
X575602Y326834D01*
X544500Y285199D02*
Y282533D01*
X545033Y282000D01*
X546100D01*
X546633Y282533D01*
Y285199D01*
X549298Y282000D02*
Y285199D01*
X547699Y283599D01*
X549832D01*
X597633Y264666D02*
X597099Y265199D01*
X596033D01*
X595500Y264666D01*
Y262533D01*
X596033Y262000D01*
X597099D01*
X597633Y262533D01*
X600832Y262000D02*
X598699D01*
X600832Y264133D01*
Y264666D01*
X600298Y265199D01*
X599232D01*
X598699Y264666D01*
X601898D02*
X602431Y265199D01*
X603497D01*
X604031Y264666D01*
Y262533D01*
X603497Y262000D01*
X602431D01*
X601898Y262533D01*
Y264666D01*
X512633Y332166D02*
X512100Y332699D01*
X511033D01*
X510500Y332166D01*
Y330033D01*
X511033Y329500D01*
X512100D01*
X512633Y330033D01*
X515832Y329500D02*
X513699D01*
X515832Y331633D01*
Y332166D01*
X515298Y332699D01*
X514232D01*
X513699Y332166D01*
X516898Y329500D02*
X517964D01*
X517431D01*
Y332699D01*
X516898Y332166D01*
X573633Y316166D02*
X573100Y316699D01*
X572033D01*
X571500Y316166D01*
Y314033D01*
X572033Y313500D01*
X573100D01*
X573633Y314033D01*
X574699Y313500D02*
X575765D01*
X575232D01*
Y316699D01*
X574699Y316166D01*
X577365D02*
X577898Y316699D01*
X578964D01*
X579497Y316166D01*
Y315633D01*
X578964Y315100D01*
X579497Y314566D01*
Y314033D01*
X578964Y313500D01*
X577898D01*
X577365Y314033D01*
Y314566D01*
X577898Y315100D01*
X577365Y315633D01*
Y316166D01*
X577898Y315100D02*
X578964D01*
X634633Y300699D02*
X633566D01*
X634099D01*
Y298033D01*
X633566Y297500D01*
X633033D01*
X632500Y298033D01*
X635699Y297500D02*
X636765D01*
X636232D01*
Y300699D01*
X635699Y300166D01*
X503133Y194666D02*
X502599Y195199D01*
X501533D01*
X501000Y194666D01*
Y194133D01*
X501533Y193599D01*
X502599D01*
X503133Y193066D01*
Y192533D01*
X502599Y192000D01*
X501533D01*
X501000Y192533D01*
X504199Y195199D02*
Y192000D01*
X505265Y193066D01*
X506332Y192000D01*
Y195199D01*
X507398Y192000D02*
X508464D01*
X507931D01*
Y195199D01*
X507398Y194666D01*
X523000Y205500D02*
Y208699D01*
X524600D01*
X525133Y208166D01*
Y207100D01*
X524600Y206566D01*
X523000D01*
X524066D02*
X525133Y205500D01*
X528332D02*
X526199D01*
X528332Y207633D01*
Y208166D01*
X527798Y208699D01*
X526732D01*
X526199Y208166D01*
X529398D02*
X529931Y208699D01*
X530997D01*
X531531Y208166D01*
Y206033D01*
X530997Y205500D01*
X529931D01*
X529398Y206033D01*
Y208166D01*
X476700Y202500D02*
Y205699D01*
X478300D01*
X478833Y205166D01*
Y204099D01*
X478300Y203566D01*
X476700D01*
X477766D02*
X478833Y202500D01*
X479899D02*
X480965D01*
X480432D01*
Y205699D01*
X479899Y205166D01*
X482565Y203033D02*
X483098Y202500D01*
X484164D01*
X484697Y203033D01*
Y205166D01*
X484164Y205699D01*
X483098D01*
X482565Y205166D01*
Y204633D01*
X483098Y204099D01*
X484697D01*
X480500Y166000D02*
Y169199D01*
X482099D01*
X482633Y168666D01*
Y167599D01*
X482099Y167066D01*
X480500D01*
X481566D02*
X482633Y166000D01*
X483699D02*
X484765D01*
X484232D01*
Y169199D01*
X483699Y168666D01*
X486365D02*
X486898Y169199D01*
X487964D01*
X488497Y168666D01*
Y168133D01*
X487964Y167599D01*
X488497Y167066D01*
Y166533D01*
X487964Y166000D01*
X486898D01*
X486365Y166533D01*
Y167066D01*
X486898Y167599D01*
X486365Y168133D01*
Y168666D01*
X486898Y167599D02*
X487964D01*
X434500Y191000D02*
Y194199D01*
X436099D01*
X436633Y193666D01*
Y192599D01*
X436099Y192066D01*
X434500D01*
X435566D02*
X436633Y191000D01*
X437699D02*
X438765D01*
X438232D01*
Y194199D01*
X437699Y193666D01*
X440365Y194199D02*
X442497D01*
Y193666D01*
X440365Y191533D01*
Y191000D01*
X388500Y201000D02*
Y204199D01*
X390100D01*
X390633Y203666D01*
Y202600D01*
X390100Y202066D01*
X388500D01*
X389566D02*
X390633Y201000D01*
X391699D02*
X392765D01*
X392232D01*
Y204199D01*
X391699Y203666D01*
X396497Y204199D02*
X395431Y203666D01*
X394365Y202600D01*
Y201533D01*
X394898Y201000D01*
X395964D01*
X396497Y201533D01*
Y202066D01*
X395964Y202600D01*
X394365D01*
X438500Y165500D02*
Y168699D01*
X440099D01*
X440633Y168166D01*
Y167099D01*
X440099Y166566D01*
X438500D01*
X439566D02*
X440633Y165500D01*
X441699D02*
X442765D01*
X442232D01*
Y168699D01*
X441699Y168166D01*
X446497Y168699D02*
X444365D01*
Y167099D01*
X445431Y167633D01*
X445964D01*
X446497Y167099D01*
Y166033D01*
X445964Y165500D01*
X444898D01*
X444365Y166033D01*
X393000Y166000D02*
Y169199D01*
X394600D01*
X395133Y168666D01*
Y167599D01*
X394600Y167066D01*
X393000D01*
X394066D02*
X395133Y166000D01*
X396199D02*
X397265D01*
X396732D01*
Y169199D01*
X396199Y168666D01*
X400464Y166000D02*
Y169199D01*
X398865Y167599D01*
X400997D01*
X539633Y198166D02*
X539100Y198699D01*
X538033D01*
X537500Y198166D01*
Y196033D01*
X538033Y195500D01*
X539100D01*
X539633Y196033D01*
X540699Y195500D02*
X541765D01*
X541232D01*
Y198699D01*
X540699Y198166D01*
X543365Y198699D02*
X545497D01*
Y198166D01*
X543365Y196033D01*
Y195500D01*
X466133Y204166D02*
X465599Y204699D01*
X464533D01*
X464000Y204166D01*
Y202033D01*
X464533Y201500D01*
X465599D01*
X466133Y202033D01*
X467199Y201500D02*
X468265D01*
X467732D01*
Y204699D01*
X467199Y204166D01*
X471997Y204699D02*
X470931Y204166D01*
X469865Y203099D01*
Y202033D01*
X470398Y201500D01*
X471464D01*
X471997Y202033D01*
Y202566D01*
X471464Y203099D01*
X469865D01*
X423133Y204166D02*
X422600Y204699D01*
X421533D01*
X421000Y204166D01*
Y202033D01*
X421533Y201500D01*
X422600D01*
X423133Y202033D01*
X424199Y201500D02*
X425265D01*
X424732D01*
Y204699D01*
X424199Y204166D01*
X428997Y204699D02*
X426865D01*
Y203099D01*
X427931Y203633D01*
X428464D01*
X428997Y203099D01*
Y202033D01*
X428464Y201500D01*
X427398D01*
X426865Y202033D01*
X381133Y193166D02*
X380599Y193699D01*
X379533D01*
X379000Y193166D01*
Y191033D01*
X379533Y190500D01*
X380599D01*
X381133Y191033D01*
X382199Y190500D02*
X383265D01*
X382732D01*
Y193699D01*
X382199Y193166D01*
X386464Y190500D02*
Y193699D01*
X384865Y192099D01*
X386997D01*
X460200Y193699D02*
Y190500D01*
X461799D01*
X462333Y191033D01*
Y191566D01*
X461799Y192099D01*
X460200D01*
X461799D01*
X462333Y192633D01*
Y193166D01*
X461799Y193699D01*
X460200D01*
X464998Y190500D02*
Y193699D01*
X463399Y192099D01*
X465532D01*
X417300Y193699D02*
Y190500D01*
X418899D01*
X419433Y191033D01*
Y191566D01*
X418899Y192099D01*
X417300D01*
X418899D01*
X419433Y192633D01*
Y193166D01*
X418899Y193699D01*
X417300D01*
X420499Y193166D02*
X421032Y193699D01*
X422098D01*
X422632Y193166D01*
Y192633D01*
X422098Y192099D01*
X421565D01*
X422098D01*
X422632Y191566D01*
Y191033D01*
X422098Y190500D01*
X421032D01*
X420499Y191033D01*
X371500Y193199D02*
Y190000D01*
X373099D01*
X373633Y190533D01*
Y191066D01*
X373099Y191600D01*
X371500D01*
X373099D01*
X373633Y192133D01*
Y192666D01*
X373099Y193199D01*
X371500D01*
X376832Y190000D02*
X374699D01*
X376832Y192133D01*
Y192666D01*
X376298Y193199D01*
X375232D01*
X374699Y192666D01*
X577000Y209199D02*
Y206533D01*
X577533Y206000D01*
X578600D01*
X579133Y206533D01*
Y209199D01*
X582332Y206000D02*
X580199D01*
X582332Y208133D01*
Y208666D01*
X581798Y209199D01*
X580732D01*
X580199Y208666D01*
X610000Y316699D02*
Y313500D01*
X611599D01*
X612133Y314033D01*
Y316166D01*
X611599Y316699D01*
X610000D01*
X613199Y313500D02*
X614265D01*
X613732D01*
Y316699D01*
X613199Y316166D01*
X408500Y331199D02*
Y328000D01*
X410100D01*
X410633Y328533D01*
Y329066D01*
X410100Y329599D01*
X408500D01*
X410100D01*
X410633Y330133D01*
Y330666D01*
X410100Y331199D01*
X408500D01*
X411699Y328000D02*
X412765D01*
X412232D01*
Y331199D01*
X411699Y330666D01*
X591500Y339000D02*
Y342199D01*
X593099D01*
X593633Y341666D01*
Y340599D01*
X593099Y340066D01*
X591500D01*
X594699Y339000D02*
X595765D01*
X595232D01*
Y342199D01*
X594699Y341666D01*
X497000Y288699D02*
Y286033D01*
X497533Y285500D01*
X498599D01*
X499133Y286033D01*
Y288699D01*
X500199Y285500D02*
X501265D01*
X500732D01*
Y288699D01*
X500199Y288166D01*
X629500Y287199D02*
Y284533D01*
X630033Y284000D01*
X631100D01*
X631633Y284533D01*
Y287199D01*
X632699Y286666D02*
X633232Y287199D01*
X634298D01*
X634832Y286666D01*
Y286133D01*
X634298Y285599D01*
X633765D01*
X634298D01*
X634832Y285066D01*
Y284533D01*
X634298Y284000D01*
X633232D01*
X632699Y284533D01*
X443500Y310500D02*
Y313699D01*
X445099D01*
X445633Y313166D01*
Y312100D01*
X445099Y311566D01*
X443500D01*
X444566D02*
X445633Y310500D01*
X446699D02*
X447765D01*
X447232D01*
Y313699D01*
X446699Y313166D01*
X449365D02*
X449898Y313699D01*
X450964D01*
X451497Y313166D01*
Y312633D01*
X450964Y312100D01*
X450431D01*
X450964D01*
X451497Y311566D01*
Y311033D01*
X450964Y310500D01*
X449898D01*
X449365Y311033D01*
X454000Y311000D02*
Y314199D01*
X455599D01*
X456133Y313666D01*
Y312599D01*
X455599Y312066D01*
X454000D01*
X455066D02*
X456133Y311000D01*
X457199D02*
X458265D01*
X457732D01*
Y314199D01*
X457199Y313666D01*
X461997Y311000D02*
X459865D01*
X461997Y313133D01*
Y313666D01*
X461464Y314199D01*
X460398D01*
X459865Y313666D01*
X465000Y311000D02*
Y314199D01*
X466600D01*
X467133Y313666D01*
Y312599D01*
X466600Y312066D01*
X465000D01*
X466066D02*
X467133Y311000D01*
X468199D02*
X469265D01*
X468732D01*
Y314199D01*
X468199Y313666D01*
X470865Y311000D02*
X471931D01*
X471398D01*
Y314199D01*
X470865Y313666D01*
X482000Y311500D02*
Y314699D01*
X483600D01*
X484133Y314166D01*
Y313100D01*
X483600Y312566D01*
X482000D01*
X483066D02*
X484133Y311500D01*
X485199D02*
X486265D01*
X485732D01*
Y314699D01*
X485199Y314166D01*
X487865D02*
X488398Y314699D01*
X489464D01*
X489997Y314166D01*
Y312033D01*
X489464Y311500D01*
X488398D01*
X487865Y312033D01*
Y314166D01*
X429500Y259000D02*
Y262199D01*
X431100D01*
X431633Y261666D01*
Y260599D01*
X431100Y260066D01*
X429500D01*
X430566D02*
X431633Y259000D01*
X432699Y259533D02*
X433232Y259000D01*
X434298D01*
X434832Y259533D01*
Y261666D01*
X434298Y262199D01*
X433232D01*
X432699Y261666D01*
Y261133D01*
X433232Y260599D01*
X434832D01*
X493500Y311000D02*
Y314199D01*
X495099D01*
X495633Y313666D01*
Y312599D01*
X495099Y312066D01*
X493500D01*
X494566D02*
X495633Y311000D01*
X496699Y313666D02*
X497232Y314199D01*
X498298D01*
X498832Y313666D01*
Y313133D01*
X498298Y312599D01*
X498832Y312066D01*
Y311533D01*
X498298Y311000D01*
X497232D01*
X496699Y311533D01*
Y312066D01*
X497232Y312599D01*
X496699Y313133D01*
Y313666D01*
X497232Y312599D02*
X498298D01*
X587213Y218244D02*
Y221443D01*
X588812D01*
X589345Y220910D01*
Y219844D01*
X588812Y219310D01*
X587213D01*
X588279D02*
X589345Y218244D01*
X590412Y221443D02*
X592544D01*
Y220910D01*
X590412Y218777D01*
Y218244D01*
X381000Y235000D02*
Y238199D01*
X382599D01*
X383133Y237666D01*
Y236599D01*
X382599Y236066D01*
X381000D01*
X382066D02*
X383133Y235000D01*
X386332Y238199D02*
X385265Y237666D01*
X384199Y236599D01*
Y235533D01*
X384732Y235000D01*
X385799D01*
X386332Y235533D01*
Y236066D01*
X385799Y236599D01*
X384199D01*
X380500Y251500D02*
Y254699D01*
X382100D01*
X382633Y254166D01*
Y253099D01*
X382100Y252566D01*
X380500D01*
X381566D02*
X382633Y251500D01*
X385832Y254699D02*
X383699D01*
Y253099D01*
X384765Y253633D01*
X385298D01*
X385832Y253099D01*
Y252033D01*
X385298Y251500D01*
X384232D01*
X383699Y252033D01*
X380500Y267500D02*
Y270699D01*
X382100D01*
X382633Y270166D01*
Y269099D01*
X382100Y268566D01*
X380500D01*
X381566D02*
X382633Y267500D01*
X385298D02*
Y270699D01*
X383699Y269099D01*
X385832D01*
X381000Y283000D02*
Y286199D01*
X382599D01*
X383133Y285666D01*
Y284599D01*
X382599Y284066D01*
X381000D01*
X382066D02*
X383133Y283000D01*
X384199Y285666D02*
X384732Y286199D01*
X385799D01*
X386332Y285666D01*
Y285133D01*
X385799Y284599D01*
X385265D01*
X385799D01*
X386332Y284066D01*
Y283533D01*
X385799Y283000D01*
X384732D01*
X384199Y283533D01*
X381000Y300000D02*
Y303199D01*
X382599D01*
X383133Y302666D01*
Y301600D01*
X382599Y301066D01*
X381000D01*
X382066D02*
X383133Y300000D01*
X386332D02*
X384199D01*
X386332Y302133D01*
Y302666D01*
X385799Y303199D01*
X384732D01*
X384199Y302666D01*
X472500Y294500D02*
X475699D01*
Y292900D01*
X475166Y292367D01*
X474099D01*
X473566Y292900D01*
Y294500D01*
Y293434D02*
X472500Y292367D01*
Y291301D02*
Y290235D01*
Y290768D01*
X475699D01*
X475166Y291301D01*
X411633Y237033D02*
Y239166D01*
X411099Y239699D01*
X410033D01*
X409500Y239166D01*
Y237033D01*
X410033Y236500D01*
X411099D01*
X410566Y237566D02*
X411633Y236500D01*
X411099D02*
X411633Y237033D01*
X414832Y239699D02*
X412699D01*
Y238100D01*
X413765Y238633D01*
X414298D01*
X414832Y238100D01*
Y237033D01*
X414298Y236500D01*
X413232D01*
X412699Y237033D01*
X412133Y253533D02*
Y255666D01*
X411599Y256199D01*
X410533D01*
X410000Y255666D01*
Y253533D01*
X410533Y253000D01*
X411599D01*
X411066Y254066D02*
X412133Y253000D01*
X411599D02*
X412133Y253533D01*
X414798Y253000D02*
Y256199D01*
X413199Y254599D01*
X415332D01*
X412133Y269033D02*
Y271166D01*
X411599Y271699D01*
X410533D01*
X410000Y271166D01*
Y269033D01*
X410533Y268500D01*
X411599D01*
X411066Y269566D02*
X412133Y268500D01*
X411599D02*
X412133Y269033D01*
X413199Y271166D02*
X413732Y271699D01*
X414798D01*
X415332Y271166D01*
Y270633D01*
X414798Y270099D01*
X414265D01*
X414798D01*
X415332Y269566D01*
Y269033D01*
X414798Y268500D01*
X413732D01*
X413199Y269033D01*
X411633Y285533D02*
Y287666D01*
X411099Y288199D01*
X410033D01*
X409500Y287666D01*
Y285533D01*
X410033Y285000D01*
X411099D01*
X410566Y286066D02*
X411633Y285000D01*
X411099D02*
X411633Y285533D01*
X414832Y285000D02*
X412699D01*
X414832Y287133D01*
Y287666D01*
X414298Y288199D01*
X413232D01*
X412699Y287666D01*
X411633Y301533D02*
Y303666D01*
X411099Y304199D01*
X410033D01*
X409500Y303666D01*
Y301533D01*
X410033Y301000D01*
X411099D01*
X410566Y302066D02*
X411633Y301000D01*
X411099D02*
X411633Y301533D01*
X412699Y301000D02*
X413765D01*
X413232D01*
Y304199D01*
X412699Y303666D01*
X598213Y221821D02*
Y218622D01*
X600345D01*
X601412Y221821D02*
Y218622D01*
X603011D01*
X603544Y219155D01*
Y221288D01*
X603011Y221821D01*
X601412D01*
X604610Y218622D02*
X605677D01*
X605144D01*
Y221821D01*
X604610Y221288D01*
X443000Y256699D02*
Y253500D01*
X445133D01*
X446199D02*
X447265D01*
X446732D01*
Y256699D01*
X446199Y256166D01*
X507133Y338666D02*
X506600Y339199D01*
X505533D01*
X505000Y338666D01*
Y336533D01*
X505533Y336000D01*
X506600D01*
X507133Y336533D01*
X508199Y336000D02*
Y339199D01*
X510332Y336000D01*
Y339199D01*
X511398Y338666D02*
X511931Y339199D01*
X512997D01*
X513531Y338666D01*
Y338133D01*
X512997Y337599D01*
X513531Y337066D01*
Y336533D01*
X512997Y336000D01*
X511931D01*
X511398Y336533D01*
Y337066D01*
X511931Y337599D01*
X511398Y338133D01*
Y338666D01*
X511931Y337599D02*
X512997D01*
X632666Y175867D02*
X633199Y176400D01*
Y177467D01*
X632666Y178000D01*
X630533D01*
X630000Y177467D01*
Y176400D01*
X630533Y175867D01*
X630000Y174801D02*
Y173735D01*
Y174268D01*
X633199D01*
X632666Y174801D01*
Y172135D02*
X633199Y171602D01*
Y170536D01*
X632666Y170003D01*
X632133D01*
X631600Y170536D01*
Y171069D01*
Y170536D01*
X631066Y170003D01*
X630533D01*
X630000Y170536D01*
Y171602D01*
X630533Y172135D01*
X439334Y275633D02*
X438801Y275099D01*
Y274033D01*
X439334Y273500D01*
X441467D01*
X442000Y274033D01*
Y275099D01*
X441467Y275633D01*
X442000Y276699D02*
Y277765D01*
Y277232D01*
X438801D01*
X439334Y276699D01*
X442000Y281497D02*
Y279365D01*
X439867Y281497D01*
X439334D01*
X438801Y280964D01*
Y279898D01*
X439334Y279365D01*
X455334Y292133D02*
X454801Y291599D01*
Y290533D01*
X455334Y290000D01*
X457467D01*
X458000Y290533D01*
Y291599D01*
X457467Y292133D01*
X458000Y293199D02*
Y294265D01*
Y293732D01*
X454801D01*
X455334Y293199D01*
X458000Y295865D02*
Y296931D01*
Y296398D01*
X454801D01*
X455334Y295865D01*
X496834Y224133D02*
X496301Y223600D01*
Y222533D01*
X496834Y222000D01*
X498967D01*
X499500Y222533D01*
Y223600D01*
X498967Y224133D01*
X499500Y225199D02*
Y226265D01*
Y225732D01*
X496301D01*
X496834Y225199D01*
Y227865D02*
X496301Y228398D01*
Y229464D01*
X496834Y229997D01*
X498967D01*
X499500Y229464D01*
Y228398D01*
X498967Y227865D01*
X496834D01*
X579834Y179133D02*
X579301Y178600D01*
Y177533D01*
X579834Y177000D01*
X581967D01*
X582500Y177533D01*
Y178600D01*
X581967Y179133D01*
Y180199D02*
X582500Y180732D01*
Y181799D01*
X581967Y182332D01*
X579834D01*
X579301Y181799D01*
Y180732D01*
X579834Y180199D01*
X580367D01*
X580900Y180732D01*
Y182332D01*
X608666Y287367D02*
X609199Y287900D01*
Y288967D01*
X608666Y289500D01*
X606533D01*
X606000Y288967D01*
Y287900D01*
X606533Y287367D01*
X608666Y286301D02*
X609199Y285768D01*
Y284701D01*
X608666Y284168D01*
X608133D01*
X607599Y284701D01*
X607066Y284168D01*
X606533D01*
X606000Y284701D01*
Y285768D01*
X606533Y286301D01*
X607066D01*
X607599Y285768D01*
X608133Y286301D01*
X608666D01*
X607599Y285768D02*
Y284701D01*
X614633Y298166D02*
X614100Y298699D01*
X613033D01*
X612500Y298166D01*
Y296033D01*
X613033Y295500D01*
X614100D01*
X614633Y296033D01*
X615699Y298699D02*
X617832D01*
Y298166D01*
X615699Y296033D01*
Y295500D01*
X624633Y211166D02*
X624099Y211699D01*
X623033D01*
X622500Y211166D01*
Y209033D01*
X623033Y208500D01*
X624099D01*
X624633Y209033D01*
X627832Y211699D02*
X626765Y211166D01*
X625699Y210100D01*
Y209033D01*
X626232Y208500D01*
X627298D01*
X627832Y209033D01*
Y209566D01*
X627298Y210100D01*
X625699D01*
X439633Y261410D02*
X439100Y261943D01*
X438033D01*
X437500Y261410D01*
Y259277D01*
X438033Y258744D01*
X439100D01*
X439633Y259277D01*
X442832Y261943D02*
X440699D01*
Y260344D01*
X441765Y260877D01*
X442299D01*
X442832Y260344D01*
Y259277D01*
X442299Y258744D01*
X441232D01*
X440699Y259277D01*
X511834Y274633D02*
X511301Y274099D01*
Y273033D01*
X511834Y272500D01*
X513967D01*
X514500Y273033D01*
Y274099D01*
X513967Y274633D01*
X514500Y277298D02*
X511301D01*
X512900Y275699D01*
Y277832D01*
X501334Y294133D02*
X500801Y293600D01*
Y292533D01*
X501334Y292000D01*
X503467D01*
X504000Y292533D01*
Y293600D01*
X503467Y294133D01*
X501334Y295199D02*
X500801Y295732D01*
Y296798D01*
X501334Y297332D01*
X501867D01*
X502400Y296798D01*
Y296265D01*
Y296798D01*
X502934Y297332D01*
X503467D01*
X504000Y296798D01*
Y295732D01*
X503467Y295199D01*
X437633Y313166D02*
X437100Y313699D01*
X436033D01*
X435500Y313166D01*
Y311033D01*
X436033Y310500D01*
X437100D01*
X437633Y311033D01*
X440832Y310500D02*
X438699D01*
X440832Y312633D01*
Y313166D01*
X440298Y313699D01*
X439232D01*
X438699Y313166D01*
X480633Y227666D02*
X480099Y228199D01*
X479033D01*
X478500Y227666D01*
Y225533D01*
X479033Y225000D01*
X480099D01*
X480633Y225533D01*
X481699Y225000D02*
X482765D01*
X482232D01*
Y228199D01*
X481699Y227666D01*
D14*
X607209Y212548D02*
Y215697D01*
M02*
