M48
;Layer_Color=9474304
;FILE_FORMAT=2:5
INCH,TZ
;TYPE=PLATED
T1F00S00C0.01600
T2F00S00C0.02800
T3F00S00C0.03500
T4F00S00C0.03543
T5F00S00C0.04291
T6F00S00C0.12835
T7F00S00C0.17000
%
T01
X475000Y219500
X481000
X483000Y223500
X498000Y223000
X489295Y241795
X494000Y255000
X493500Y259000
X505000
X506000Y255000
X526000Y254250
Y259000
X525500Y263000
X522500Y266500
X536500Y268000
X536387Y263000
X536500Y258500
X536062Y254250
X527000Y285000
X516000Y289000
Y295000
X506500Y282000
X505500Y307500
X552000Y285000
X463705Y276205
X455500Y288000
Y294000
X461500Y301500
X467500Y300697
X445500Y285000
X460000Y244000
X457800Y238800
X438500Y327744
X527000Y327000
X557000
T02
X549000Y154500
X556500Y154000
X563250
X570000
X577500
X630500Y268500
X611500Y285000
X584500Y303000
X558500Y284000
X561000Y262000
X541500Y207500
Y190000
X541376Y168222
X549000Y165000
X556500
X563500
X570000
X577500
X598500Y178500
X609500
X619500Y171500
X624000Y198000
X612213Y214122
X437000Y197500
X442047Y166000
X396500Y166500
X399000Y203500
X411500Y245000
X411000Y261500
Y277500
X412000Y293500
X411000Y310000
X433000Y244000
X411000Y324500
X412000Y338500
X595000Y315000
X604843
T03
X411547Y204953
X411500Y212000
X449303Y205303
X432500Y346500
Y353000
X369000Y314500
X594000Y341000
X601000Y353500
T04
X446500Y341226
X456500
X466500
X476500
X486500
X496500
X522000Y341500
X532000
X542000
X552000
X562000
X572000
X582000
T05
X645319Y185974
Y196844
Y207715
Y218585
Y229455
Y240325
Y251195
Y262065
Y272935
Y283805
Y294675
Y305545
X656500Y300110
Y289240
Y278370
Y267500
Y256630
Y245760
Y234890
Y224020
Y213150
Y202279
Y191409
Y310980
X645319Y316415
T06
X650910Y158573
Y343817
T07
X597000Y160000
X379000Y342000
X613000Y344000
M30
