M48
;Layer_Color=9474304
;FILE_FORMAT=2:5
INCH,LZ
;TYPE=PLATED
T1F00S00C0.01300
T2F00S00C0.02800
T3F00S00C0.03543
T4F00S00C0.03800
T5F00S00C0.04291
T6F00S00C0.06299
T7F00S00C0.12835
T8F00S00C0.17000
%
T01
X04875Y02005
X0485Y0217244
X04775
X04945Y02445
X0503
X0504576Y0194521
X05205Y01945
X05595Y02705
Y02755
X05555Y0287551
X0557Y02925
X0548304Y0294798
X05745Y02925
X0575Y026
Y0255
X05925Y025
X0615Y02375
X04625Y02505
X0455
X04425
X04395Y0238
X0432625
X0452Y023
X0436Y0264
X0431
X04265Y0263941
Y0271
X0431
X0436Y0282
X0430012Y0287205
X0414953Y02925
X0445Y03385
X04475Y04335
X04275Y04325
X04285Y04275
X0465
Y042
X055925Y0416
X0549Y04025
Y03975
X05515Y04
X0575
Y0395
X05925Y039
X0615Y03775
X05515Y03715
X05475Y0352
X05595Y034
X05625Y03425
X0575
Y032
X0566
X0486061Y0312795
X0575Y04315
Y046
X0566
X0634494Y0465506
X06625Y046
Y032
X0634494Y0325506
X06345Y06055
X06625Y06
X05695Y05665
X0559Y05565
X0574Y054
Y0535
X05925Y053
X0615Y05175
X05565
Y05225
X05625Y04825
X0575
T02
X0655Y02975
X06625
X067Y02925
X0613Y02225
Y02125
X0495Y0222
X0414343Y03675
X04045
Y045
X0414343
X0613Y03625
Y03525
X0655Y04375
X06625
X067Y04325
Y05725
X06625Y05775
X0655
X0613Y05025
Y04925
T03
X0632Y0269
Y0279
X0622
Y0269
X05325Y027
X05225
Y028
Y029
Y03
Y031
X05125
Y03
Y029
Y028
Y027
Y026
X05225
X05325
Y028
Y029
Y03
Y031
X0405Y02675
Y02575
Y02475
Y02375
Y02275
Y02175
X05125Y032
Y033
Y034
Y035
Y036
Y037
Y038
Y039
Y04
Y041
Y042
Y043
X05225
Y042
Y041
Y04
Y039
Y038
Y037
Y036
Y035
Y034
Y033
Y032
X05325
Y033
Y034
Y035
Y036
Y037
Y038
Y039
Y04
Y041
Y042
Y043
X0622Y0419
Y0409
X0632
Y0419
Y0549
Y0559
X0622
Y0549
T04
X05665Y0155
X0633
Y01845
X05665
T05
X0415Y0510689
Y0521594
Y05325
Y0543405
X0426181Y0548858
Y0537953
Y0527047
Y0516142
Y0505236
T06
X0693012Y0255807
Y0269193
X0731988
Y0255807
Y0395807
Y0409193
X0693012
Y0395807
Y0535807
Y0549193
X0731988
Y0535807
T07
X042059Y0477854
Y057624
T08
X03975Y0115
X0695Y01275
X07575
Y01675
Y02075
X0695
Y01675
X076Y029
Y043
Y057
X07075Y06125
X03975
M30
