G04*
G04 #@! TF.GenerationSoftware,Altium Limited,Altium Designer,19.1.7 (138)*
G04*
G04 Layer_Color=65535*
%FSLAX25Y25*%
%MOIN*%
G70*
G01*
G75*
%ADD10C,0.01000*%
%ADD11C,0.00787*%
%ADD12C,0.00984*%
%ADD13C,0.02362*%
%ADD14C,0.00600*%
G36*
X197200Y465240D02*
X197340Y465200D01*
X197360Y465180D01*
X197440Y465140D01*
X197560Y465060D01*
X197700Y464960D01*
X197980Y464640D01*
Y455940D01*
X198640Y455780D01*
X198700D01*
X198760Y455760D01*
X198840Y455740D01*
X199020Y455700D01*
X199220Y455640D01*
X199240D01*
X199260Y455620D01*
X199380Y455580D01*
X199500Y455520D01*
X199620Y455460D01*
X199640D01*
X199680Y455440D01*
X199800Y455360D01*
X199960Y455300D01*
X200100Y455260D01*
X200140D01*
X200220Y455220D01*
X200320Y455160D01*
X200460Y455040D01*
X200500Y455000D01*
X200560Y454980D01*
X200640Y454940D01*
X200760Y454880D01*
X200920Y454840D01*
X201120Y454800D01*
X201380Y454760D01*
X201480D01*
X201580Y454740D01*
X201700Y454720D01*
X202000Y454660D01*
X202140Y454620D01*
X202260Y454560D01*
X202280D01*
X202320Y454540D01*
X202400Y454480D01*
X202480Y454420D01*
X202620Y454340D01*
X202760Y454220D01*
X202920Y454060D01*
X203120Y453880D01*
X203140Y453860D01*
X203220Y453800D01*
X203320Y453700D01*
X203460Y453600D01*
X203780Y453400D01*
X203940Y453300D01*
X204100Y453240D01*
X204120D01*
X204180Y453220D01*
X204280Y453180D01*
X204420Y453140D01*
X204580Y453060D01*
X204800Y452980D01*
X205040Y452860D01*
X205300Y452720D01*
X205340Y452700D01*
X205420Y452660D01*
X205560Y452580D01*
X205720Y452500D01*
X206060Y452320D01*
X206220Y452220D01*
X206340Y452140D01*
X206360Y452120D01*
X206400Y452100D01*
X206500Y452040D01*
X206640Y452000D01*
X207080Y451840D01*
X207100D01*
X207140Y451820D01*
X207280Y451780D01*
X207440Y451740D01*
X207500Y451720D01*
X207580D01*
X207640Y451740D01*
X207720Y451780D01*
X207820Y451840D01*
X207840D01*
X207860Y451880D01*
X207980Y451940D01*
X208140Y452040D01*
X208320Y452140D01*
X208340Y452160D01*
X208380Y452200D01*
X208480Y452280D01*
X208620Y452400D01*
X208800Y452580D01*
X208940Y452720D01*
X209080Y452840D01*
X209220Y453000D01*
X209400Y453180D01*
X209600Y453400D01*
X209820Y453620D01*
X209840Y453640D01*
X209880Y453680D01*
X209940Y453740D01*
X210020Y453840D01*
X210140Y453960D01*
X210260Y454080D01*
X210560Y454400D01*
X210880Y454780D01*
X211240Y455180D01*
X211620Y455600D01*
X211960Y456020D01*
Y456040D01*
X212000Y456060D01*
X212100Y456180D01*
X212260Y456360D01*
X212460Y456600D01*
X212720Y456880D01*
X213020Y457200D01*
X213340Y457520D01*
X213680Y457860D01*
X213700Y457880D01*
X213720Y457900D01*
X213840Y458000D01*
X214000Y458160D01*
X214200Y458340D01*
X214420Y458520D01*
X214620Y458680D01*
X214820Y458820D01*
X214980Y458900D01*
X215000D01*
X215020Y458920D01*
X215100Y458940D01*
X215200Y458980D01*
X215340Y459040D01*
X215540Y459120D01*
X215780Y459200D01*
X216080Y459320D01*
X216100D01*
X216120Y459340D01*
X216240Y459380D01*
X216400Y459460D01*
X216640Y459560D01*
X216900Y459680D01*
X217200Y459820D01*
X217520Y459960D01*
X217860Y460120D01*
X217880D01*
X217960Y460140D01*
X218060Y460180D01*
X218220Y460220D01*
X218240D01*
X218260Y460240D01*
X218380Y460260D01*
X218540Y460280D01*
X218700Y460300D01*
X218740D01*
X218840Y460340D01*
X219000Y460380D01*
X219200Y460440D01*
X219220D01*
X219260Y460460D01*
X219380Y460520D01*
X219540Y460600D01*
X219700Y460700D01*
X219720Y460720D01*
X219780Y460740D01*
X219880Y460800D01*
X219980Y460860D01*
X220120Y460940D01*
X220280Y461000D01*
X220620Y461140D01*
X220640D01*
X220700Y461160D01*
X220780Y461200D01*
X220900Y461240D01*
X221140Y461300D01*
X221380Y461320D01*
X221420D01*
X221540Y461340D01*
X221660Y461360D01*
X221700Y461380D01*
X221740Y461400D01*
X221760Y461420D01*
X221780D01*
X221840Y461440D01*
X221900Y461460D01*
X222000Y461480D01*
X222120Y461500D01*
X222480D01*
X222620Y461520D01*
X225280D01*
X226540Y460000D01*
X226620Y453740D01*
X226260Y453360D01*
X226240Y453340D01*
X226160Y453260D01*
X226060Y453160D01*
X225940Y453060D01*
X225920Y453040D01*
X225860Y452980D01*
X225780Y452920D01*
X225720Y452880D01*
X225700D01*
X225680Y452860D01*
X225560Y452800D01*
X225380Y452720D01*
X225160Y452580D01*
X225140D01*
X225120Y452540D01*
X224980Y452460D01*
X224800Y452360D01*
X224620Y452260D01*
X224600D01*
X224560Y452220D01*
X224460Y452160D01*
X224320Y452060D01*
X224280Y452040D01*
X224200Y451960D01*
X224060Y451860D01*
X223880Y451720D01*
X223860Y451700D01*
X223780Y451640D01*
X223660Y451540D01*
X223520Y451420D01*
X223340Y451280D01*
X223140Y451140D01*
X222720Y450840D01*
X222700Y450820D01*
X222620Y450780D01*
X222520Y450720D01*
X222400Y450660D01*
X222080Y450500D01*
X221920Y450440D01*
X221760Y450380D01*
X221740D01*
X221680Y450360D01*
X221600Y450320D01*
X221460Y450260D01*
X221280Y450200D01*
X221060Y450080D01*
X220800Y449940D01*
X220480Y449780D01*
X220440Y449760D01*
X220340Y449700D01*
X220180Y449620D01*
X220000Y449520D01*
X219800Y449400D01*
X219600Y449280D01*
X219440Y449160D01*
X219300Y449060D01*
X219280Y449040D01*
X219220Y448980D01*
X219180Y448920D01*
Y448880D01*
X219240D01*
X219280Y448860D01*
X219580D01*
X219680Y448840D01*
X219820Y448820D01*
X220020Y448760D01*
X220040D01*
X220080Y448740D01*
X220120Y448720D01*
X220200Y448700D01*
X220380Y448620D01*
X220580Y448520D01*
X220600D01*
X220620Y448500D01*
X220760Y448460D01*
X220920Y448380D01*
X221100Y448320D01*
X221120D01*
X221140Y448300D01*
X221240Y448280D01*
X221340Y448240D01*
X221440Y448220D01*
X221460D01*
X221520Y448200D01*
X221640Y448180D01*
X221800Y448120D01*
X223100Y447740D01*
X223120D01*
X223160Y447720D01*
X223220Y447700D01*
X223300Y447680D01*
X223480Y447620D01*
X223680Y447580D01*
X223700D01*
X223760Y447560D01*
X223840Y447540D01*
X223960Y447520D01*
X224100Y447480D01*
X224260Y447440D01*
X224600Y447320D01*
X224620D01*
X224680Y447300D01*
X224780Y447260D01*
X224880Y447220D01*
X225160Y447100D01*
X225440Y447000D01*
X225460D01*
X225480Y446980D01*
X225580Y446920D01*
X225680Y446860D01*
X225760Y446840D01*
X225780D01*
X225840Y446820D01*
X225920Y446780D01*
X226020Y446700D01*
X226040Y446680D01*
X226120Y446600D01*
X226240Y446500D01*
X226380Y446360D01*
X226420Y446320D01*
X226500Y446240D01*
X226620Y446140D01*
X226740Y446020D01*
X226760Y446000D01*
X226840Y445960D01*
X226900Y445920D01*
X226960Y445900D01*
X226980D01*
X227020Y445860D01*
X227120Y445820D01*
X227240Y445740D01*
X227400Y445600D01*
X227620Y445420D01*
X227880Y445200D01*
X228200Y444900D01*
X228220D01*
X228240Y444860D01*
X228360Y444760D01*
X228520Y444600D01*
X228700Y444400D01*
X228920Y444200D01*
X229120Y443980D01*
X229280Y443780D01*
X229420Y443600D01*
Y443580D01*
X229440Y443540D01*
X229480Y443480D01*
X229540Y443420D01*
X229660Y443220D01*
X229820Y443040D01*
X229840Y443020D01*
X229860Y443000D01*
X229880Y442960D01*
X229900Y442860D01*
X229940Y442740D01*
Y442560D01*
X229960Y442320D01*
Y442280D01*
Y442240D01*
Y442160D01*
Y442060D01*
X229980Y441940D01*
Y441780D01*
Y441580D01*
Y441360D01*
Y441100D01*
X230000Y440800D01*
Y440440D01*
Y440060D01*
Y439620D01*
Y439140D01*
Y438600D01*
Y434340D01*
X229300Y433640D01*
X226640D01*
X226420Y433660D01*
X226120D01*
X226020Y433680D01*
X225900Y433700D01*
X225660Y433720D01*
X225520Y433760D01*
X225420Y433780D01*
X225400D01*
X225380Y433800D01*
X225320D01*
X225240Y433820D01*
X225040Y433860D01*
X224780Y433900D01*
X224720D01*
X224640Y433920D01*
X224560D01*
X224340Y433940D01*
X224080Y433960D01*
X224020D01*
X223960Y433980D01*
X223740D01*
X223620Y434000D01*
X223300Y434040D01*
X223280D01*
X223220Y434060D01*
X223140D01*
X223040Y434080D01*
X222780Y434120D01*
X222500Y434180D01*
X222480D01*
X222440Y434200D01*
X222380D01*
X222280Y434220D01*
X222060Y434280D01*
X221800Y434320D01*
X221780D01*
X221740Y434340D01*
X221680D01*
X221600Y434360D01*
X221440Y434380D01*
X221160D01*
X221020Y434400D01*
X220820Y434440D01*
X220800D01*
X220780Y434460D01*
X220660Y434500D01*
X220480Y434540D01*
X220280Y434600D01*
X220260D01*
X220240Y434620D01*
X220100Y434640D01*
X219940Y434700D01*
X219740Y434740D01*
X219700Y434760D01*
X219600Y434780D01*
X219480Y434800D01*
X219300D01*
X219200Y434820D01*
X219080Y434840D01*
X219000Y434900D01*
X218980Y434920D01*
X218940Y434960D01*
X218860Y435000D01*
X218740Y435020D01*
X218700D01*
X218620Y435060D01*
X218480Y435160D01*
X218400Y435220D01*
X218300Y435320D01*
X218280Y435340D01*
X218240Y435380D01*
X218160Y435440D01*
X218020Y435520D01*
X217860Y435620D01*
X217640Y435740D01*
X217380Y435860D01*
X217060Y436000D01*
X217020Y436020D01*
X216900Y436060D01*
X216720Y436140D01*
X216480Y436240D01*
X216180Y436340D01*
X215860Y436460D01*
X215500Y436580D01*
X215120Y436680D01*
X215100D01*
X215080Y436700D01*
X214960Y436740D01*
X214800Y436780D01*
X214600Y436840D01*
X214580D01*
X214560Y436860D01*
X214460Y436900D01*
X214320Y436940D01*
X214180Y437000D01*
X214160D01*
X214140Y437020D01*
X214040Y437080D01*
X213900Y437120D01*
X213760Y437140D01*
X213740D01*
X213700Y437120D01*
X213640Y437080D01*
X213580Y437040D01*
X213500Y436960D01*
X213400Y436840D01*
X213280Y436700D01*
X213260Y436680D01*
X213220Y436620D01*
X213160Y436520D01*
X213080Y436400D01*
X212960Y436220D01*
X212840Y436020D01*
X212700Y435780D01*
X212540Y435500D01*
X212120Y434720D01*
Y434700D01*
X212080Y434660D01*
X212020Y434520D01*
X211920Y434360D01*
X211880Y434300D01*
X211840Y434260D01*
X211800Y434220D01*
X211740Y434120D01*
X211640Y434000D01*
X211580Y433860D01*
Y433840D01*
X211540Y433800D01*
X211480Y433700D01*
X211380Y433560D01*
X210640Y432500D01*
X210320Y432020D01*
X210300Y432000D01*
X210240Y431920D01*
X210120Y431780D01*
X210040Y431680D01*
X209940Y431580D01*
X209920Y431560D01*
X209900Y431520D01*
X209840Y431460D01*
X209760Y431400D01*
X209560Y431200D01*
X209300Y430980D01*
X207360Y429340D01*
X207340Y429320D01*
X207280Y429280D01*
X207180Y429200D01*
X207080Y429140D01*
X206880Y428960D01*
X206780Y428900D01*
X206720Y428860D01*
X206700D01*
X206640Y428840D01*
X206600D01*
X206520Y428820D01*
X206400D01*
X206260Y428800D01*
X206100Y428780D01*
X205880D01*
X205640Y428760D01*
X205000D01*
X204600Y428740D01*
X200800D01*
X200480Y429060D01*
X200440Y429100D01*
X200380Y429180D01*
X200300Y429300D01*
X200240Y429440D01*
Y429460D01*
Y429480D01*
Y429540D01*
X200220Y429620D01*
Y429740D01*
Y429880D01*
Y430060D01*
X200240Y430280D01*
X200320Y431060D01*
X200400Y431800D01*
Y431820D01*
Y431860D01*
X200420Y431940D01*
Y432060D01*
X200440Y432240D01*
X200460Y432480D01*
Y432780D01*
X200480Y433160D01*
Y433180D01*
Y433220D01*
Y433280D01*
Y433360D01*
Y433460D01*
X200500Y433580D01*
Y433880D01*
Y434240D01*
X200520Y434660D01*
Y435120D01*
Y435620D01*
Y438820D01*
X200980Y439220D01*
X201000Y439260D01*
X201080Y439360D01*
X201200Y439500D01*
X201340Y439660D01*
Y439680D01*
X201380Y439700D01*
X201460Y439820D01*
X201540Y439960D01*
X201620Y440120D01*
X201640Y440160D01*
X201680Y440240D01*
X201760Y440360D01*
X201860Y440500D01*
X201880Y440540D01*
X201940Y440620D01*
X202020Y440700D01*
X202080Y440780D01*
X202100Y440800D01*
X202120Y440820D01*
X202200Y440940D01*
X202300Y441100D01*
X202320Y441180D01*
X202340Y441280D01*
Y441300D01*
Y441320D01*
X202380Y441460D01*
X202440Y441620D01*
X202540Y441800D01*
X202780Y442020D01*
X201640Y442700D01*
X201620Y442720D01*
X201540Y442760D01*
X201400Y442860D01*
X201200Y442980D01*
X201180Y443000D01*
X201140Y443020D01*
X201080Y443060D01*
X201000Y443120D01*
X200800Y443280D01*
X200560Y443480D01*
X200540Y443500D01*
X200500Y443540D01*
X200440Y443600D01*
X200340Y443660D01*
X200120Y443860D01*
X199820Y444060D01*
X199800Y444080D01*
X199760Y444100D01*
X199680Y444160D01*
X199580Y444220D01*
X199340Y444360D01*
X199100Y444480D01*
X199080D01*
X199040Y444500D01*
X198980Y444540D01*
X198920Y444580D01*
X198720Y444680D01*
X198500Y444800D01*
X198480D01*
X198460Y444820D01*
X198360Y444900D01*
X198240Y444960D01*
X198140Y445040D01*
X198120Y445060D01*
X198060Y445100D01*
X197960Y445180D01*
X197840Y445260D01*
X197660Y445380D01*
X197440Y445500D01*
X197180Y445640D01*
X196880Y445800D01*
X196840Y445820D01*
X196740Y445880D01*
X196580Y445960D01*
X196360Y446040D01*
X196120Y446160D01*
X195860Y446260D01*
X195580Y446360D01*
X195320Y446440D01*
X195300D01*
X195280Y446460D01*
X195220Y446480D01*
X195140Y446500D01*
X194920Y446580D01*
X194660Y446680D01*
X194640D01*
X194600Y446700D01*
X194540Y446740D01*
X194440Y446780D01*
X194240Y446880D01*
X194000Y447000D01*
X193980Y447020D01*
X193920Y447040D01*
X193820Y447080D01*
X193700Y447140D01*
X193420Y447240D01*
X193140Y447320D01*
X193120D01*
X193080Y447340D01*
X192980D01*
X192860Y447360D01*
X192700D01*
X192480Y447380D01*
X191380D01*
X191180Y447400D01*
X190800D01*
X190680Y447420D01*
X190660D01*
X190640Y447440D01*
X190540Y447460D01*
X190400Y447540D01*
X190260Y447660D01*
Y447680D01*
X190240Y447700D01*
X190160Y447800D01*
X190080Y447940D01*
X190020Y448080D01*
Y448100D01*
Y448120D01*
X190000Y448180D01*
Y448260D01*
Y448360D01*
Y448500D01*
Y448660D01*
Y448860D01*
Y448880D01*
Y448920D01*
X190020Y449000D01*
Y449100D01*
X190040Y449220D01*
Y449360D01*
X190100Y449680D01*
X190160Y450020D01*
X190240Y450380D01*
X190340Y450700D01*
X190480Y450980D01*
X190820Y451720D01*
Y451740D01*
X190860Y451780D01*
X190900Y451860D01*
X190940Y451940D01*
X191040Y452140D01*
X191140Y452340D01*
X191620Y453080D01*
X191640Y453120D01*
X191700Y453220D01*
X191780Y453360D01*
X191880Y453560D01*
X191960Y453780D01*
X192040Y454020D01*
X192100Y454260D01*
X192120Y454520D01*
Y454540D01*
Y454560D01*
X192140Y454680D01*
X192180Y454840D01*
X192240Y455000D01*
Y455020D01*
X192280Y455080D01*
X192300Y455160D01*
X192360Y455320D01*
X192500Y455740D01*
Y455760D01*
X192520Y455780D01*
X192540Y455900D01*
X192620Y456080D01*
X192740Y456320D01*
Y456340D01*
X192780Y456380D01*
X192820Y456460D01*
X192860Y456540D01*
X193000Y456760D01*
X193140Y457000D01*
X193160Y457040D01*
X193240Y457140D01*
X193340Y457300D01*
X193440Y457480D01*
X193580Y457700D01*
X193680Y457920D01*
X193780Y458120D01*
X193860Y458320D01*
Y458340D01*
X193880Y458420D01*
X193900Y458540D01*
X193940Y458720D01*
X193960Y458940D01*
X194000Y459220D01*
X194020Y459560D01*
X194040Y459960D01*
Y459980D01*
Y460000D01*
Y460120D01*
X194060Y460280D01*
Y460480D01*
X194080Y460680D01*
X194100Y460880D01*
Y461080D01*
X194120Y461220D01*
Y461240D01*
X194140Y461280D01*
X194180Y461420D01*
X194240Y461580D01*
X194340Y461720D01*
X194360Y461740D01*
X194380Y461780D01*
X194440Y461840D01*
X194500Y461940D01*
X194560Y462060D01*
X194660Y462220D01*
X194740Y462380D01*
X194840Y462580D01*
X194860Y462600D01*
X194880Y462680D01*
X194940Y462800D01*
X195000Y462960D01*
X195080Y463140D01*
X195160Y463340D01*
X195320Y463820D01*
Y463840D01*
X195340Y463880D01*
X195380Y463960D01*
X195420Y464040D01*
X195540Y464260D01*
X195700Y464540D01*
X195920Y464800D01*
X196180Y465020D01*
X196340Y465100D01*
X196500Y465180D01*
X196680Y465220D01*
X196880Y465240D01*
X196940D01*
X197060Y465260D01*
X197200Y465240D01*
D02*
G37*
%LPC*%
G36*
X224460Y459840D02*
X223440Y459800D01*
X223340D01*
X223220Y459780D01*
X223060Y459760D01*
X222880Y459740D01*
X222660Y459720D01*
X222420Y459680D01*
X222180Y459640D01*
X221640Y459520D01*
X221100Y459380D01*
X220840Y459280D01*
X220600Y459160D01*
X220400Y459040D01*
X220200Y458900D01*
X220180Y458880D01*
X220140Y458860D01*
X220040Y458800D01*
X219900Y458760D01*
X219860D01*
X219760Y458720D01*
X219620Y458680D01*
X219420Y458640D01*
X219380D01*
X219320Y458620D01*
X219240Y458600D01*
X219040Y458560D01*
X218800Y458500D01*
X218780D01*
X218740Y458480D01*
X218680Y458460D01*
X218620Y458440D01*
X218440Y458360D01*
X218260Y458280D01*
X217080Y457820D01*
X216580Y457580D01*
X216560D01*
X216540Y457560D01*
X216420Y457500D01*
X216240Y457440D01*
X216060Y457360D01*
X216020Y457340D01*
X215920Y457320D01*
X215820Y457280D01*
X215720Y457260D01*
X215700D01*
X215680Y457240D01*
X215620Y457220D01*
X215520Y457180D01*
X215420Y457100D01*
X215260Y457000D01*
X215080Y456860D01*
X214880Y456680D01*
X214860Y456660D01*
X214780Y456600D01*
X214680Y456480D01*
X214560Y456360D01*
X214280Y456060D01*
X214160Y455900D01*
X214040Y455740D01*
X214020Y455720D01*
X213980Y455660D01*
X213900Y455560D01*
X213780Y455400D01*
X213580Y455180D01*
X213460Y455040D01*
X213320Y454880D01*
X213160Y454680D01*
X212960Y454480D01*
X212760Y454260D01*
X212520Y454000D01*
X212500Y453980D01*
X212460Y453940D01*
X212400Y453860D01*
X212300Y453760D01*
X212180Y453640D01*
X212040Y453480D01*
X211880Y453320D01*
X211720Y453120D01*
X211320Y452700D01*
X210880Y452240D01*
X210420Y451740D01*
X209940Y451240D01*
X209120Y450340D01*
X209420Y450240D01*
X209440D01*
X209480Y450220D01*
X209540Y450200D01*
X209600Y450180D01*
X209700Y450160D01*
X209820Y450140D01*
X209980Y450120D01*
X210160Y450080D01*
X210360Y450040D01*
X210620Y450000D01*
X210900Y449980D01*
X211240Y449940D01*
X211620Y449880D01*
X212040Y449840D01*
X212500Y449800D01*
X213400Y449720D01*
X213480D01*
X213560Y449700D01*
X213660D01*
X213900Y449660D01*
X214000Y449640D01*
X214100Y449620D01*
X214140D01*
X214200Y449600D01*
X214280Y449580D01*
X214480Y449560D01*
X214740Y449520D01*
X215000D01*
X215240Y449500D01*
X215520D01*
X216260Y449460D01*
X216320D01*
X216380Y449440D01*
X216460D01*
X216620Y449420D01*
X216780D01*
X216820Y449400D01*
X216960Y449360D01*
X217120Y449340D01*
X217260D01*
X217320Y449380D01*
X217380Y449460D01*
X217440Y449560D01*
Y449580D01*
X217460Y449600D01*
X217500Y449720D01*
X217520Y449840D01*
X217540Y449960D01*
Y449980D01*
X217580Y450040D01*
X217640Y450120D01*
X217760Y450260D01*
X217840Y450320D01*
X217940Y450420D01*
X218080Y450520D01*
X218240Y450620D01*
X218420Y450740D01*
X218620Y450860D01*
X218860Y451000D01*
X219140Y451140D01*
X219980Y451560D01*
X220440Y451840D01*
X220460D01*
X220480Y451860D01*
X220620Y451940D01*
X220780Y452000D01*
X220960Y452040D01*
X221000D01*
X221080Y452060D01*
X221160Y452100D01*
X221260Y452140D01*
X221400Y452200D01*
X221560Y452280D01*
X221740Y452380D01*
X221760Y452400D01*
X221840Y452440D01*
X221940Y452500D01*
X222080Y452600D01*
X222240Y452720D01*
X222420Y452860D01*
X222620Y453020D01*
X222820Y453200D01*
X223300Y453600D01*
X223320Y453620D01*
X223400Y453680D01*
X223480Y453720D01*
X223540Y453740D01*
X223560D01*
X223600Y453760D01*
X223680Y453800D01*
X223800Y453860D01*
X224260Y454140D01*
X224940Y454520D01*
X224900Y456880D01*
Y456900D01*
Y456940D01*
Y457020D01*
Y457120D01*
Y457240D01*
X224880Y457380D01*
Y457700D01*
X224860Y458040D01*
Y458380D01*
X224840Y458680D01*
X224820Y458800D01*
Y458900D01*
Y458920D01*
Y458980D01*
X224800Y459080D01*
X224780Y459180D01*
X224740Y459380D01*
X224700Y459460D01*
X224660Y459520D01*
X224460Y459840D01*
D02*
G37*
G36*
X196260Y461240D02*
X196020Y461020D01*
X196000Y461000D01*
X195940Y460920D01*
X195860Y460780D01*
X195820Y460580D01*
Y460560D01*
Y460520D01*
Y460440D01*
X195800Y460320D01*
Y460160D01*
X195780Y459940D01*
Y459700D01*
X195760Y459380D01*
Y459360D01*
Y459340D01*
Y459280D01*
X195740Y459200D01*
X195720Y459020D01*
X195700Y458780D01*
X195680Y458500D01*
X195640Y458240D01*
X195600Y457960D01*
X195540Y457720D01*
Y457700D01*
X195520Y457620D01*
X195480Y457520D01*
X195440Y457380D01*
X195300Y457080D01*
X195220Y456940D01*
X195120Y456800D01*
X195100Y456780D01*
X195040Y456700D01*
X194960Y456580D01*
X194860Y456400D01*
X194720Y456180D01*
X194580Y455920D01*
X194420Y455600D01*
X194260Y455260D01*
Y455240D01*
X194240Y455220D01*
X194200Y455100D01*
X194120Y454920D01*
X194060Y454700D01*
X193980Y454460D01*
X193900Y454200D01*
X193860Y453940D01*
X193840Y453700D01*
Y453680D01*
X193820Y453600D01*
X193780Y453460D01*
X193700Y453260D01*
Y453240D01*
X193680Y453200D01*
X193640Y453140D01*
X193620Y453080D01*
X193520Y452880D01*
X193400Y452660D01*
Y452640D01*
X193380Y452620D01*
X193340Y452560D01*
X193300Y452480D01*
X193200Y452300D01*
X193080Y452060D01*
X192920Y451760D01*
X192760Y451460D01*
X192600Y451140D01*
X192440Y450840D01*
X192420Y450800D01*
X192380Y450720D01*
X192300Y450580D01*
X192240Y450400D01*
X192060Y450040D01*
X192000Y449880D01*
X191960Y449760D01*
X191840Y449300D01*
Y449280D01*
Y449240D01*
X191900Y449180D01*
X191940Y449160D01*
X192020Y449140D01*
X192060D01*
X192140Y449120D01*
X192220D01*
X192360Y449100D01*
X192520D01*
X192740Y449080D01*
X193000Y449060D01*
X193120D01*
X193260Y449040D01*
X193420D01*
X193760Y449000D01*
X193920Y448980D01*
X194060Y448960D01*
X194080D01*
X194120Y448940D01*
X194180D01*
X194240Y448920D01*
X194420Y448860D01*
X194600Y448760D01*
X194620D01*
X194640Y448740D01*
X194740Y448680D01*
X194920Y448600D01*
X195120Y448480D01*
X195140D01*
X195180Y448460D01*
X195240Y448420D01*
X195320Y448400D01*
X195520Y448320D01*
X195760Y448240D01*
X196760Y447840D01*
X196780D01*
X196820Y447820D01*
X196880Y447800D01*
X196960Y447780D01*
X197140Y447720D01*
X197360Y447660D01*
X197380Y447640D01*
X197460Y447600D01*
X197580Y447520D01*
X197740Y447420D01*
X198600Y446880D01*
X198620D01*
X198640Y446840D01*
X198780Y446760D01*
X198940Y446640D01*
X199120Y446520D01*
X199140Y446500D01*
X199180Y446460D01*
X199260Y446420D01*
X199380Y446340D01*
X199420Y446320D01*
X199500Y446280D01*
X199620Y446240D01*
X199760Y446180D01*
X199800D01*
X199880Y446140D01*
X200000Y446080D01*
X200160Y446000D01*
X200180D01*
X200200Y445980D01*
X200300Y445920D01*
X200440Y445820D01*
X200560Y445700D01*
X200580Y445680D01*
X200600Y445660D01*
X200720Y445540D01*
X200880Y445420D01*
X200940Y445360D01*
X201000Y445340D01*
X201020D01*
X201060Y445320D01*
X201120Y445280D01*
X201200Y445240D01*
X201300Y445180D01*
X201420Y445080D01*
X201580Y444960D01*
X201620Y444940D01*
X201720Y444860D01*
X201860Y444740D01*
X202060Y444580D01*
X202300Y444420D01*
X202580Y444220D01*
X202880Y444040D01*
X203200Y443840D01*
X203220D01*
X203240Y443820D01*
X203340Y443760D01*
X203500Y443700D01*
X203660Y443600D01*
X203860Y443520D01*
X204040Y443460D01*
X204200Y443400D01*
X204300D01*
X204320Y443420D01*
X204380Y443480D01*
X204480Y443600D01*
X204620Y443740D01*
X205240Y444460D01*
X205260Y444480D01*
X205280Y444500D01*
X205380Y444620D01*
X205480Y444780D01*
X205580Y444940D01*
Y444960D01*
X205600Y444980D01*
X205640Y445080D01*
X205680Y445260D01*
X205720Y445460D01*
Y445480D01*
Y445500D01*
X205740Y445560D01*
X205760Y445640D01*
X205800Y445820D01*
X205900Y446040D01*
X206020Y446240D01*
X206180Y446440D01*
X206400Y446580D01*
X206540Y446620D01*
X206680Y446640D01*
X206720D01*
X206860Y446620D01*
X207020Y446540D01*
X207120Y446500D01*
X207200Y446420D01*
X207280Y446340D01*
X207360Y446220D01*
X207440Y446080D01*
X207480Y445920D01*
X207520Y445720D01*
Y445480D01*
X207500Y445220D01*
X207440Y444920D01*
Y444900D01*
X207420Y444840D01*
X207400Y444760D01*
X207380Y444640D01*
X207280Y444380D01*
X207160Y444100D01*
Y444080D01*
X207120Y444040D01*
X207060Y443960D01*
X207000Y443840D01*
X206900Y443720D01*
X206760Y443560D01*
X206600Y443360D01*
X206420Y443160D01*
X205760Y442380D01*
X206020Y442340D01*
X206040D01*
X206140Y442300D01*
X206260Y442260D01*
X206420Y442180D01*
X206960Y441960D01*
X206980D01*
X207000Y441940D01*
X207140Y441880D01*
X207320Y441800D01*
X207520Y441720D01*
X207540D01*
X207580Y441700D01*
X207700Y441660D01*
X207840Y441620D01*
X207980Y441600D01*
X208000D01*
X208040Y441580D01*
X208100Y441560D01*
X208200Y441520D01*
X208360Y441440D01*
X208460Y441380D01*
X208520Y441320D01*
X208540Y441300D01*
X208620Y441240D01*
X208740Y441160D01*
X208880Y441100D01*
X209260Y440900D01*
X209280D01*
X209300Y440880D01*
X209360Y440840D01*
X209440Y440800D01*
X209620Y440700D01*
X209840Y440600D01*
X209860D01*
X209900Y440580D01*
X210020Y440540D01*
X210180Y440480D01*
X210320Y440460D01*
X210380D01*
X210460Y440440D01*
X210600Y440400D01*
X210760Y440340D01*
X211000Y440240D01*
X211280Y440120D01*
X211640Y439960D01*
X211660D01*
X211700Y439940D01*
X211760Y439920D01*
X211840Y439900D01*
X212060Y439820D01*
X212320Y439760D01*
X212360D01*
X212440Y439740D01*
X212540Y439760D01*
X212600Y439800D01*
X212660Y439860D01*
X212700Y439900D01*
X212740Y439960D01*
X212800Y440040D01*
X212880Y440160D01*
X213000Y440320D01*
X213140Y440520D01*
X213300Y440780D01*
X213320Y440800D01*
X213340Y440860D01*
X213380Y440940D01*
X213440Y441040D01*
X213520Y441180D01*
X213600Y441340D01*
X213760Y441700D01*
X213940Y442100D01*
X214100Y442520D01*
X214200Y442920D01*
X214240Y443100D01*
X214260Y443280D01*
Y443300D01*
Y443320D01*
X214280Y443400D01*
X214300Y443500D01*
X214360Y443580D01*
X214380Y443600D01*
X214420Y443640D01*
X214440Y443720D01*
X214460Y443820D01*
Y443840D01*
X214480Y443860D01*
X214520Y443960D01*
X214600Y444120D01*
X214740Y444280D01*
X214760Y444300D01*
X214780Y444320D01*
X214920Y444400D01*
X215100Y444460D01*
X215200Y444500D01*
X215360D01*
X215460Y444480D01*
X215600Y444440D01*
X215760Y444380D01*
X215900Y444260D01*
X216040Y444080D01*
X216100Y443960D01*
X216140Y443820D01*
X216180Y443660D01*
Y443480D01*
Y443460D01*
Y443440D01*
Y443340D01*
X216160Y443200D01*
X216140Y443060D01*
Y443040D01*
X216120Y442960D01*
X216080Y442880D01*
X216040Y442820D01*
Y442800D01*
X216000Y442760D01*
Y442700D01*
X215980Y442640D01*
X215960Y442540D01*
Y442420D01*
Y442400D01*
Y442360D01*
X215940Y442240D01*
X215900Y442080D01*
X215880Y442020D01*
X215840Y441980D01*
X215820Y441960D01*
X215800Y441920D01*
X215780Y441860D01*
X215760Y441740D01*
Y441700D01*
X215740Y441600D01*
X215700Y441440D01*
X215600Y441200D01*
Y441180D01*
X215580Y441140D01*
X215540Y441080D01*
X215500Y441000D01*
X215380Y440780D01*
X215240Y440540D01*
X214660Y439600D01*
Y439580D01*
X214620Y439540D01*
X214580Y439460D01*
X214540Y439380D01*
X214440Y439180D01*
X214400Y439100D01*
X214360Y439020D01*
Y439000D01*
Y438940D01*
X214380Y438880D01*
X214420Y438860D01*
X214460Y438840D01*
X214500D01*
X214580Y438800D01*
X214740Y438740D01*
X214960Y438620D01*
X214980D01*
X215020Y438600D01*
X215080Y438560D01*
X215160Y438540D01*
X215340Y438460D01*
X215480Y438440D01*
X215500D01*
X215540Y438420D01*
X215620D01*
X215740Y438380D01*
X215900Y438340D01*
X216100Y438280D01*
X216360Y438180D01*
X216680Y438080D01*
X216700D01*
X216720Y438060D01*
X216840Y438020D01*
X217020Y437980D01*
X217240Y437900D01*
X217480Y437800D01*
X217740Y437700D01*
X218000Y437600D01*
X218260Y437500D01*
X218280D01*
X218300Y437480D01*
X218420Y437400D01*
X218580Y437300D01*
X218760Y437200D01*
X218780D01*
X218800Y437180D01*
X218900Y437120D01*
X219000Y437040D01*
X219080Y436960D01*
X219100D01*
X219120Y436920D01*
X219220Y436860D01*
X219340Y436780D01*
X219480Y436740D01*
X219520D01*
X219580Y436720D01*
X219660Y436680D01*
X219740Y436620D01*
X219760Y436600D01*
X219820Y436580D01*
X219940Y436540D01*
X220020Y436520D01*
X220220D01*
X220320Y436500D01*
X220480Y436460D01*
X220500D01*
X220520Y436440D01*
X220620Y436420D01*
X220780Y436360D01*
X220940Y436300D01*
X220960D01*
X220980Y436280D01*
X221100Y436240D01*
X221260Y436200D01*
X221480Y436140D01*
X221540D01*
X221600Y436120D01*
X221680D01*
X221860Y436100D01*
X222220D01*
X222320Y436080D01*
X222560Y436060D01*
X222660Y436020D01*
X222720Y435980D01*
X222760Y435960D01*
X222800Y435940D01*
X222880Y435900D01*
X222980Y435880D01*
X223120Y435840D01*
X223300Y435800D01*
X223520Y435760D01*
X223560D01*
X223640Y435740D01*
X223760Y435720D01*
X223940D01*
X224140Y435700D01*
X224380Y435680D01*
X224900Y435660D01*
X225120D01*
X225320Y435640D01*
X225560Y435620D01*
X225620D01*
X225760Y435600D01*
X225920Y435560D01*
X226060Y435520D01*
X226100D01*
X226180Y435480D01*
X226340Y435440D01*
X226580Y435400D01*
X226640D01*
X226720Y435380D01*
X226820D01*
X226940Y435360D01*
X227080D01*
X227400Y435340D01*
X228300D01*
Y438660D01*
Y438680D01*
Y438760D01*
Y438860D01*
Y439000D01*
Y439160D01*
Y439360D01*
Y439780D01*
Y440260D01*
Y440720D01*
X228280Y440920D01*
Y441120D01*
Y441300D01*
Y441440D01*
Y441480D01*
Y441560D01*
X228260Y441660D01*
Y441800D01*
X228240Y441920D01*
X228220Y442040D01*
X228180Y442120D01*
X228140Y442140D01*
X228120Y442160D01*
X228080Y442240D01*
X228020Y442360D01*
X227980Y442480D01*
X227960Y442520D01*
X227940Y442580D01*
X227880Y442640D01*
X227800Y442760D01*
X227680Y442900D01*
X227520Y443060D01*
X227320Y443280D01*
X227300Y443300D01*
X227220Y443380D01*
X227100Y443500D01*
X226960Y443640D01*
X226800Y443800D01*
X226620Y443960D01*
X226440Y444120D01*
X226260Y444260D01*
X225820Y444520D01*
X225440Y444880D01*
X225420Y444900D01*
X225380Y444920D01*
X225300Y444980D01*
X225200Y445060D01*
X225060Y445140D01*
X224880Y445240D01*
X224680Y445340D01*
X224440Y445440D01*
X224420Y445460D01*
X224320Y445480D01*
X224200Y445540D01*
X224020Y445600D01*
X223820Y445680D01*
X223580Y445740D01*
X223100Y445860D01*
X222500Y446020D01*
X221840Y446240D01*
X221820D01*
X221780Y446260D01*
X221740Y446280D01*
X221660Y446320D01*
X221460Y446380D01*
X221260Y446440D01*
X221240D01*
X221220Y446460D01*
X221100Y446480D01*
X220980Y446500D01*
X220860Y446520D01*
X220840D01*
X220780Y446540D01*
X220680Y446560D01*
X220540Y446600D01*
X220500Y446620D01*
X220400Y446660D01*
X220260Y446720D01*
X220080Y446800D01*
X220040Y446820D01*
X219980Y446840D01*
X219920Y446880D01*
X219720Y446940D01*
X219440Y447020D01*
X219420D01*
X219380Y447040D01*
X219300Y447060D01*
X219180Y447100D01*
X219060Y447120D01*
X218920Y447160D01*
X218600Y447220D01*
X217620Y447380D01*
X216680Y447580D01*
X216660D01*
X216620Y447600D01*
X216540Y447620D01*
X216420Y447640D01*
X216300Y447680D01*
X216140Y447700D01*
X215800Y447760D01*
X215780D01*
X215720Y447780D01*
X215620D01*
X215520Y447800D01*
X215240Y447820D01*
X214460D01*
X214160Y447840D01*
X214100D01*
X214020Y447860D01*
X213920D01*
X213720Y447900D01*
X213500Y447920D01*
X213460D01*
X213400Y447940D01*
X213320D01*
X213220Y447960D01*
X213100Y447980D01*
X212940D01*
X212780Y448000D01*
X211880Y448120D01*
X211800D01*
X211720Y448140D01*
X211600D01*
X211460Y448160D01*
X211300Y448180D01*
X210940Y448220D01*
X210540Y448260D01*
X210140Y448320D01*
X209760Y448360D01*
X209580Y448400D01*
X209420Y448420D01*
X209380D01*
X209300Y448440D01*
X209160Y448480D01*
X209020Y448500D01*
X208860Y448560D01*
X208700Y448600D01*
X208580Y448640D01*
X208500Y448700D01*
X208480Y448720D01*
X208420Y448780D01*
X208340Y448840D01*
X208240Y448880D01*
X208220D01*
X208180Y448900D01*
X208140Y448920D01*
X208060Y448960D01*
X207980Y449020D01*
X207860Y449100D01*
X207700Y449200D01*
X207680Y449220D01*
X207640Y449260D01*
X207560Y449300D01*
X207460Y449380D01*
X207240Y449560D01*
X207020Y449740D01*
X207000Y449760D01*
X206980Y449780D01*
X206880Y449880D01*
X206740Y449960D01*
X206680Y450000D01*
X206620Y450020D01*
X206600D01*
X206540Y450040D01*
X206440Y450080D01*
X206300Y450120D01*
X205940Y450280D01*
X205280Y450660D01*
X205240Y450680D01*
X205160Y450720D01*
X205020Y450800D01*
X204860Y450900D01*
X204660Y451000D01*
X204440Y451100D01*
X203980Y451320D01*
X203960Y451340D01*
X203880Y451360D01*
X203780Y451420D01*
X203660Y451460D01*
X203420Y451580D01*
X203300Y451620D01*
X203220Y451640D01*
X203200D01*
X203120Y451660D01*
X203000Y451720D01*
X202820Y451820D01*
X202800D01*
X202780Y451860D01*
X202720Y451900D01*
X202640Y451960D01*
X202460Y452100D01*
X202240Y452300D01*
X202220Y452320D01*
X202160Y452380D01*
X202060Y452460D01*
X201960Y452560D01*
X201700Y452740D01*
X201580Y452820D01*
X201480Y452880D01*
X201440Y452900D01*
X201380Y452920D01*
X201320Y452940D01*
X201220Y452980D01*
X201100Y453000D01*
X200940Y453020D01*
X200780Y453040D01*
X200700D01*
X200620Y453060D01*
X200520Y453080D01*
X200260Y453120D01*
X200020Y453200D01*
X200000D01*
X199980Y453220D01*
X199920Y453260D01*
X199840Y453300D01*
X199620Y453400D01*
X199340Y453560D01*
X199300Y453580D01*
X199220Y453620D01*
X199100Y453700D01*
X198940Y453780D01*
X198580Y453960D01*
X198400Y454020D01*
X198240Y454080D01*
X198220D01*
X198180Y454100D01*
X197940D01*
X197840Y454080D01*
X197740Y454020D01*
X197660Y453960D01*
X197620Y453920D01*
X197520Y453860D01*
X197360Y453780D01*
X197240Y453760D01*
X197120Y453740D01*
X197060D01*
X197000Y453760D01*
X196920Y453780D01*
X196720Y453840D01*
X196620Y453900D01*
X196540Y453980D01*
X196260Y454220D01*
Y461240D01*
D02*
G37*
G36*
X204400Y440920D02*
X204360D01*
X204240Y440900D01*
X204120Y440840D01*
X204060Y440800D01*
X204040Y440720D01*
Y440680D01*
X204000Y440580D01*
X203940Y440460D01*
X203840Y440320D01*
X203820Y440300D01*
X203780Y440240D01*
X203720Y440160D01*
X203640Y440040D01*
X203480Y439720D01*
Y439700D01*
X203460Y439660D01*
X203420Y439580D01*
X203380Y439500D01*
X203260Y439300D01*
X203140Y439080D01*
Y439060D01*
X203120Y439040D01*
X203080Y438980D01*
X203020Y438900D01*
X202880Y438700D01*
X202660Y438440D01*
X202280Y437960D01*
X202200Y434380D01*
X202160Y431840D01*
Y431820D01*
Y431800D01*
Y431660D01*
X202140Y431480D01*
Y431280D01*
X202120Y431060D01*
X202100Y430860D01*
X202060Y430700D01*
Y430660D01*
X202040Y430620D01*
Y430600D01*
Y430560D01*
X202060Y430520D01*
X202120Y430500D01*
X202200Y430480D01*
X202300Y430460D01*
X202480D01*
X202660Y430440D01*
X203560D01*
X203800Y430460D01*
X205240D01*
X205480Y430480D01*
X205760D01*
X205820Y430500D01*
X205920D01*
X206080Y430540D01*
X206140Y430580D01*
X206180Y430620D01*
X206200Y430640D01*
X206260Y430680D01*
X206340Y430740D01*
X206440Y430760D01*
X206460D01*
X206520Y430800D01*
X206620Y430880D01*
X206660Y430940D01*
X206720Y431020D01*
X206740Y431040D01*
X206800Y431120D01*
X206920Y431220D01*
X207000Y431300D01*
X207100Y431380D01*
X207120Y431400D01*
X207160Y431420D01*
X207220Y431480D01*
X207300Y431540D01*
X207500Y431720D01*
X207760Y431920D01*
X207780Y431940D01*
X207820Y431980D01*
X207900Y432040D01*
X207980Y432100D01*
X208200Y432300D01*
X208420Y432520D01*
X208440Y432540D01*
X208460Y432560D01*
X208580Y432680D01*
X208700Y432840D01*
X208760Y432900D01*
X208800Y432960D01*
Y432980D01*
X208820Y433020D01*
X208900Y433120D01*
X208960Y433260D01*
X209000Y433300D01*
X209040Y433340D01*
X209060Y433360D01*
X209120Y433420D01*
X209160Y433460D01*
X209200Y433540D01*
X209280Y433620D01*
X209360Y433740D01*
X209380Y433760D01*
X209400Y433800D01*
X209460Y433900D01*
X209560Y434020D01*
X209660Y434180D01*
X209800Y434400D01*
X209940Y434640D01*
X210120Y434920D01*
X211140Y436720D01*
Y436740D01*
X211160Y436760D01*
X211240Y436880D01*
X211320Y437000D01*
X211420Y437100D01*
X211440Y437140D01*
X211500Y437220D01*
X211560Y437320D01*
X211600Y437440D01*
Y437460D01*
X211620Y437520D01*
X211680Y437600D01*
X211760Y437700D01*
X211780D01*
X211800Y437720D01*
X211880Y437800D01*
X211900Y437840D01*
X211880Y437900D01*
X211820Y437960D01*
X211720Y438020D01*
X211700D01*
X211640Y438060D01*
X211520Y438100D01*
X211440Y438140D01*
X211340Y438180D01*
X211220Y438220D01*
X211060Y438280D01*
X210900Y438340D01*
X210700Y438400D01*
X210480Y438480D01*
X210240Y438560D01*
X209960Y438640D01*
X209660Y438740D01*
X209640D01*
X209600Y438760D01*
X209520Y438780D01*
X209400Y438820D01*
X209280Y438880D01*
X209140Y438920D01*
X208820Y439060D01*
X208800D01*
X208760Y439100D01*
X208680Y439140D01*
X208580Y439180D01*
X208360Y439280D01*
X208160Y439400D01*
X208120Y439420D01*
X208020Y439500D01*
X207860Y439600D01*
X207680Y439700D01*
X207640Y439720D01*
X207540Y439780D01*
X207420Y439840D01*
X207300Y439880D01*
X207280D01*
X207200Y439920D01*
X207080Y439940D01*
X206920Y440000D01*
X206460Y440200D01*
X206440Y440220D01*
X206380Y440240D01*
X206260Y440300D01*
X206120Y440360D01*
X205960Y440440D01*
X205760Y440520D01*
X205340Y440680D01*
X205320Y440700D01*
X205240Y440720D01*
X205140Y440760D01*
X205000Y440800D01*
X204700Y440880D01*
X204540Y440900D01*
X204400Y440920D01*
D02*
G37*
%LPD*%
D10*
X474996Y131658D02*
G03*
X474996Y131658I-31496J0D01*
G01*
X414153Y458000D02*
G03*
X414153Y458000I-31496J0D01*
G01*
X411000Y279500D02*
Y299185D01*
X389000Y279500D02*
Y299185D01*
X411000Y248000D02*
Y267685D01*
X389000Y248000D02*
Y267685D01*
Y382000D02*
Y401685D01*
X411000Y382000D02*
Y401685D01*
X389000Y350500D02*
Y370185D01*
X411000Y350500D02*
Y370185D01*
Y145500D02*
Y165185D01*
X389000Y145500D02*
Y165185D01*
X411000Y177000D02*
Y196685D01*
X389000Y177000D02*
Y196685D01*
X319000Y150999D02*
X322999D01*
X320999Y152998D02*
Y149000D01*
X324998Y148000D02*
X326997D01*
X325998D01*
Y153998D01*
X324998Y152998D01*
X333995Y148000D02*
X329996D01*
X333995Y151999D01*
Y152998D01*
X332996Y153998D01*
X330996D01*
X329996Y152998D01*
X277499Y151498D02*
X276499Y152498D01*
X274500D01*
X273500Y151498D01*
Y147500D01*
X274500Y146500D01*
X276499D01*
X277499Y147500D01*
Y149499D01*
X275499D01*
X279498Y146500D02*
Y152498D01*
X283497Y146500D01*
Y152498D01*
X285496D02*
Y146500D01*
X288495D01*
X289495Y147500D01*
Y151498D01*
X288495Y152498D01*
X285496D01*
X322999Y443998D02*
X321999Y444998D01*
X320000D01*
X319000Y443998D01*
Y440000D01*
X320000Y439000D01*
X321999D01*
X322999Y440000D01*
Y441999D01*
X320999D01*
X324998Y439000D02*
Y444998D01*
X328997Y439000D01*
Y444998D01*
X330996D02*
Y439000D01*
X333995D01*
X334995Y440000D01*
Y443998D01*
X333995Y444998D01*
X330996D01*
X482499Y154498D02*
X481499Y155498D01*
X479500D01*
X478500Y154498D01*
Y150500D01*
X479500Y149500D01*
X481499D01*
X482499Y150500D01*
X484498Y155498D02*
X488497D01*
Y154498D01*
X484498Y150500D01*
Y149500D01*
X443499Y139000D02*
Y135001D01*
X445498Y137001D02*
X441500D01*
X347999Y486998D02*
X346999Y487998D01*
X345000D01*
X344000Y486998D01*
Y483000D01*
X345000Y482000D01*
X346999D01*
X347999Y483000D01*
X353997Y487998D02*
X351997Y486998D01*
X349998Y484999D01*
Y483000D01*
X350998Y482000D01*
X352997D01*
X353997Y483000D01*
Y483999D01*
X352997Y484999D01*
X349998D01*
X403500Y449501D02*
X399501D01*
X401501Y447502D02*
Y451500D01*
X278499Y443498D02*
X277499Y444498D01*
X275500D01*
X274500Y443498D01*
Y439500D01*
X275500Y438500D01*
X277499D01*
X278499Y439500D01*
Y441499D01*
X276499D01*
X280498Y438500D02*
Y444498D01*
X284497Y438500D01*
Y444498D01*
X286496D02*
Y438500D01*
X289495D01*
X290495Y439500D01*
Y443498D01*
X289495Y444498D01*
X286496D01*
X475500Y437499D02*
X479499D01*
X477499Y439498D02*
Y435500D01*
X481498Y440498D02*
Y436499D01*
X483497Y434500D01*
X485497Y436499D01*
Y440498D01*
X487496D02*
Y434500D01*
X490495D01*
X491495Y435500D01*
Y436499D01*
X490495Y437499D01*
X487496D01*
X490495D01*
X491495Y438499D01*
Y439498D01*
X490495Y440498D01*
X487496D01*
X494494Y438499D02*
X496493D01*
X497493Y437499D01*
Y434500D01*
X494494D01*
X493494Y435500D01*
X494494Y436499D01*
X497493D01*
X500492Y439498D02*
Y438499D01*
X499492D01*
X501492D01*
X500492D01*
Y435500D01*
X501492Y434500D01*
X505490Y439498D02*
Y438499D01*
X504491D01*
X506490D01*
X505490D01*
Y435500D01*
X506490Y434500D01*
X118999Y133998D02*
X117999Y134998D01*
X116000D01*
X115000Y133998D01*
Y132999D01*
X116000Y131999D01*
X117999D01*
X118999Y130999D01*
Y130000D01*
X117999Y129000D01*
X116000D01*
X115000Y130000D01*
X120998Y134998D02*
Y129000D01*
Y130999D01*
X124997Y134998D01*
X121998Y131999D01*
X124997Y129000D01*
X126996Y134998D02*
Y133998D01*
X128996Y131999D01*
X130995Y133998D01*
Y134998D01*
X128996Y131999D02*
Y129000D01*
X132994Y134998D02*
X136993D01*
X134994D01*
Y129000D01*
X138992D02*
Y132999D01*
X140992Y134998D01*
X142991Y132999D01*
Y129000D01*
Y131999D01*
X138992D01*
X144990Y129000D02*
Y134998D01*
X148989Y129000D01*
Y134998D01*
X150988D02*
X152988D01*
X151988D01*
Y129000D01*
X150988D01*
X152988D01*
X159985Y133998D02*
X158986Y134998D01*
X156986D01*
X155987Y133998D01*
Y130000D01*
X156986Y129000D01*
X158986D01*
X159985Y130000D01*
X115000Y119000D02*
Y124998D01*
X116999Y122999D01*
X118999Y124998D01*
Y119000D01*
X123997Y124998D02*
X121998D01*
X120998Y123998D01*
Y120000D01*
X121998Y119000D01*
X123997D01*
X124997Y120000D01*
Y123998D01*
X123997Y124998D01*
X126996D02*
X130995D01*
X128996D01*
Y119000D01*
X135993Y124998D02*
X133994D01*
X132994Y123998D01*
Y120000D01*
X133994Y119000D01*
X135993D01*
X136993Y120000D01*
Y123998D01*
X135993Y124998D01*
X138992Y119000D02*
Y124998D01*
X141991D01*
X142991Y123998D01*
Y121999D01*
X141991Y120999D01*
X138992D01*
X140992D02*
X142991Y119000D01*
X150988Y124998D02*
Y119000D01*
X153987D01*
X154987Y120000D01*
Y123998D01*
X153987Y124998D01*
X150988D01*
X156986Y119000D02*
Y124998D01*
X159985D01*
X160985Y123998D01*
Y121999D01*
X159985Y120999D01*
X156986D01*
X158986D02*
X160985Y119000D01*
X162985Y124998D02*
X164984D01*
X163984D01*
Y119000D01*
X162985D01*
X164984D01*
X167983Y124998D02*
Y120999D01*
X169982Y119000D01*
X171982Y120999D01*
Y124998D01*
X177980D02*
X173981D01*
Y119000D01*
X177980D01*
X173981Y121999D02*
X175980D01*
X179979Y119000D02*
Y124998D01*
X182978D01*
X183978Y123998D01*
Y121999D01*
X182978Y120999D01*
X179979D01*
X181978D02*
X183978Y119000D01*
X191975D02*
Y124998D01*
X194974D01*
X195974Y123998D01*
Y121999D01*
X194974Y120999D01*
X191975D01*
X193974D02*
X195974Y119000D01*
X201972Y124998D02*
X197973D01*
Y119000D01*
X201972D01*
X197973Y121999D02*
X199972D01*
X203971Y124998D02*
Y120999D01*
X205971Y119000D01*
X207970Y120999D01*
Y124998D01*
X209969Y118000D02*
X213968D01*
X215967Y119000D02*
X217967D01*
X216967D01*
Y124998D01*
X215967Y123998D01*
X527000Y403000D02*
Y408998D01*
X529999D01*
X530999Y407998D01*
Y405999D01*
X529999Y404999D01*
X527000D01*
X532998Y408998D02*
Y403000D01*
Y405999D01*
X536997D01*
Y408998D01*
Y403000D01*
X538996D02*
Y406999D01*
X540996Y408998D01*
X542995Y406999D01*
Y403000D01*
Y405999D01*
X538996D01*
X548993Y407998D02*
X547993Y408998D01*
X545994D01*
X544994Y407998D01*
Y406999D01*
X545994Y405999D01*
X547993D01*
X548993Y404999D01*
Y404000D01*
X547993Y403000D01*
X545994D01*
X544994Y404000D01*
X554991Y408998D02*
X550992D01*
Y403000D01*
X554991D01*
X550992Y405999D02*
X552992D01*
X562988Y408998D02*
Y403000D01*
X564988Y404999D01*
X566987Y403000D01*
Y408998D01*
X527000Y300500D02*
Y306498D01*
X529999D01*
X530999Y305498D01*
Y303499D01*
X529999Y302499D01*
X527000D01*
X532998Y306498D02*
Y300500D01*
Y303499D01*
X536997D01*
Y306498D01*
Y300500D01*
X538996D02*
Y304499D01*
X540996Y306498D01*
X542995Y304499D01*
Y300500D01*
Y303499D01*
X538996D01*
X548993Y305498D02*
X547993Y306498D01*
X545994D01*
X544994Y305498D01*
Y304499D01*
X545994Y303499D01*
X547993D01*
X548993Y302499D01*
Y301500D01*
X547993Y300500D01*
X545994D01*
X544994Y301500D01*
X554991Y306498D02*
X550992D01*
Y300500D01*
X554991D01*
X550992Y303499D02*
X552992D01*
X562988Y306498D02*
Y302499D01*
X564988Y300500D01*
X566987Y302499D01*
Y306498D01*
X527000Y198000D02*
Y203998D01*
X529999D01*
X530999Y202998D01*
Y200999D01*
X529999Y199999D01*
X527000D01*
X532998Y203998D02*
Y198000D01*
Y200999D01*
X536997D01*
Y203998D01*
Y198000D01*
X538996D02*
Y201999D01*
X540996Y203998D01*
X542995Y201999D01*
Y198000D01*
Y200999D01*
X538996D01*
X548993Y202998D02*
X547993Y203998D01*
X545994D01*
X544994Y202998D01*
Y201999D01*
X545994Y200999D01*
X547993D01*
X548993Y199999D01*
Y199000D01*
X547993Y198000D01*
X545994D01*
X544994Y199000D01*
X554991Y203998D02*
X550992D01*
Y198000D01*
X554991D01*
X550992Y200999D02*
X552992D01*
X562988Y203998D02*
Y199000D01*
X563988Y198000D01*
X565987D01*
X566987Y199000D01*
Y203998D01*
D11*
X350226Y276500D02*
G03*
X352726Y276500I1250J0D01*
G01*
X465933Y308636D02*
G03*
X465933Y309915I0J640D01*
G01*
X350226Y379000D02*
G03*
X352726Y379000I1250J0D01*
G01*
X465933Y411136D02*
G03*
X465933Y412415I0J640D01*
G01*
Y206136D02*
G03*
X465933Y207415I0J640D01*
G01*
X350226Y174000D02*
G03*
X352726Y174000I1250J0D01*
G01*
X108000Y400500D02*
X298000D01*
X108000Y420500D02*
X298000D01*
X108000Y400500D02*
Y420500D01*
X298000Y400500D02*
Y420500D01*
X108000Y160500D02*
X298000D01*
X108000Y180500D02*
X298000D01*
X108000Y160500D02*
Y180500D01*
X298000Y160500D02*
Y180500D01*
X381713Y301878D02*
X383287D01*
X381713Y299122D02*
X383287D01*
X381713Y270378D02*
X383287D01*
X381713Y267622D02*
X383287D01*
X329213Y291878D02*
X330787D01*
X329213Y289122D02*
X330787D01*
X345453Y276500D02*
X350226D01*
X352726D02*
X357453D01*
Y256500D02*
Y276500D01*
X345453Y256500D02*
X357453D01*
X345453D02*
Y276500D01*
X357224Y284398D02*
X366870D01*
X357224Y296602D02*
X366870D01*
X337539D02*
X347776D01*
X337539Y284398D02*
X347776D01*
X368642Y286169D02*
Y294831D01*
X366870Y296602D02*
X368642Y294831D01*
X366870Y284398D02*
X368642Y286169D01*
X337539Y284398D02*
Y296602D01*
X374953Y267425D02*
Y270575D01*
X369047Y267425D02*
Y270575D01*
X371929Y241433D02*
X388071D01*
X371929Y220567D02*
X388071D01*
X465933Y304500D02*
Y308636D01*
Y309915D02*
Y314000D01*
X476169D01*
Y304500D02*
Y314000D01*
X465933Y304500D02*
X476169D01*
X433472Y298657D02*
Y318342D01*
X446071Y298657D02*
Y318342D01*
X433472D02*
X446071D01*
X433472Y298657D02*
X446071D01*
X420622Y306713D02*
Y308287D01*
X423378Y306713D02*
Y308287D01*
X420622Y294213D02*
Y295787D01*
X423378Y294213D02*
Y295787D01*
X458122Y303213D02*
Y304787D01*
X460878Y303213D02*
Y304787D01*
X465213Y296378D02*
X466787D01*
X465213Y293622D02*
X466787D01*
X430327Y267158D02*
Y277000D01*
Y267158D02*
X458673D01*
Y286842D01*
X430327D02*
X458673D01*
X430327Y277000D02*
Y286842D01*
X460504Y263752D02*
Y290248D01*
X523496Y263752D02*
Y290248D01*
X460504Y263752D02*
X523496D01*
X460504Y290248D02*
X523496D01*
X371929Y343933D02*
X388071D01*
X371929Y323067D02*
X388071D01*
X381713Y401622D02*
X383287D01*
X381713Y404378D02*
X383287D01*
X381713Y370122D02*
X383287D01*
X381713Y372878D02*
X383287D01*
X329213Y391622D02*
X330787D01*
X329213Y394378D02*
X330787D01*
X345453Y359000D02*
Y379000D01*
Y359000D02*
X357453D01*
Y379000D01*
X352726D02*
X357453D01*
X345453D02*
X350226D01*
X337539Y386898D02*
Y399102D01*
X366870Y386898D02*
X368642Y388669D01*
X366870Y399102D02*
X368642Y397331D01*
Y388669D02*
Y397331D01*
X337539Y386898D02*
X347776D01*
X337539Y399102D02*
X347776D01*
X357224D02*
X366870D01*
X357224Y386898D02*
X366870D01*
X369047Y369925D02*
Y373075D01*
X374953Y369925D02*
Y373075D01*
X465933Y407000D02*
Y411136D01*
Y412415D02*
Y416500D01*
X476169D01*
Y407000D02*
Y416500D01*
X465933Y407000D02*
X476169D01*
X433472Y401158D02*
Y420843D01*
X446071Y401158D02*
Y420843D01*
X433472D02*
X446071D01*
X433472Y401158D02*
X446071D01*
X420622Y409213D02*
Y410787D01*
X423378Y409213D02*
Y410787D01*
X420622Y396713D02*
Y398287D01*
X423378Y396713D02*
Y398287D01*
X458122Y405713D02*
Y407287D01*
X460878Y405713D02*
Y407287D01*
X465213Y398878D02*
X466787D01*
X465213Y396122D02*
X466787D01*
X430327Y369657D02*
Y379500D01*
Y369657D02*
X458673D01*
Y389342D01*
X430327D02*
X458673D01*
X430327Y379500D02*
Y389342D01*
X460504Y366252D02*
Y392748D01*
X523496Y366252D02*
Y392748D01*
X460504Y366252D02*
X523496D01*
X460504Y392748D02*
X523496D01*
X465933Y202000D02*
X476169D01*
Y211500D01*
X465933D02*
X476169D01*
X465933Y207415D02*
Y211500D01*
Y202000D02*
Y206136D01*
X465213Y191122D02*
X466787D01*
X465213Y193878D02*
X466787D01*
X460878Y200713D02*
Y202287D01*
X458122Y200713D02*
Y202287D01*
X460504Y187748D02*
X523496D01*
X460504Y161252D02*
X523496D01*
Y187748D01*
X460504Y161252D02*
Y187748D01*
X433472Y196158D02*
X446071D01*
X433472Y215843D02*
X446071D01*
Y196158D02*
Y215843D01*
X433472Y196158D02*
Y215843D01*
X423378Y204213D02*
Y205787D01*
X420622Y204213D02*
Y205787D01*
X423378Y191713D02*
Y193287D01*
X420622Y191713D02*
Y193287D01*
X430327Y174500D02*
Y184343D01*
X458673D01*
Y164657D02*
Y184343D01*
X430327Y164657D02*
X458673D01*
X430327D02*
Y174500D01*
X371929Y118067D02*
X388071D01*
X371929Y138933D02*
X388071D01*
X381713Y167878D02*
X383287D01*
X381713Y165122D02*
X383287D01*
X374953Y164925D02*
Y168075D01*
X369047Y164925D02*
Y168075D01*
X381713Y199378D02*
X383287D01*
X381713Y196622D02*
X383287D01*
X357224Y181898D02*
X366870D01*
X357224Y194102D02*
X366870D01*
X337539D02*
X347776D01*
X337539Y181898D02*
X347776D01*
X368642Y183669D02*
Y192331D01*
X366870Y194102D02*
X368642Y192331D01*
X366870Y181898D02*
X368642Y183669D01*
X337539Y181898D02*
Y194102D01*
X329213Y189378D02*
X330787D01*
X329213Y186622D02*
X330787D01*
X345453Y174000D02*
X350226D01*
X352726D02*
X357453D01*
Y154000D02*
Y174000D01*
X345453Y154000D02*
X357453D01*
X345453D02*
Y174000D01*
D12*
X429535Y319346D02*
G03*
X429535Y319346I-492J0D01*
G01*
X473004Y292610D02*
G03*
X473004Y292610I-492J0D01*
G01*
X429535Y421846D02*
G03*
X429535Y421846I-492J0D01*
G01*
X473004Y395110D02*
G03*
X473004Y395110I-492J0D01*
G01*
Y190110D02*
G03*
X473004Y190110I-492J0D01*
G01*
X429535Y216846D02*
G03*
X429535Y216846I-492J0D01*
G01*
D13*
X438590Y314405D02*
G03*
X438590Y314405I-1181J0D01*
G01*
Y416905D02*
G03*
X438590Y416905I-1181J0D01*
G01*
Y211906D02*
G03*
X438590Y211906I-1181J0D01*
G01*
D14*
X251501Y459000D02*
X254500D01*
X253000D01*
Y460999D01*
X251501D01*
X254500D01*
Y461999D02*
X252501D01*
X251501Y462999D01*
X252501Y463998D01*
X254500D01*
X253000D01*
Y461999D01*
X251501Y464998D02*
X254500D01*
Y466997D01*
X251501Y467997D02*
X254500D01*
Y469996D01*
X252001Y470996D02*
X251501Y471496D01*
Y472496D01*
X252001Y472996D01*
X252501D01*
X253000Y472496D01*
Y471996D01*
Y472496D01*
X253500Y472996D01*
X254000D01*
X254500Y472496D01*
Y471496D01*
X254000Y470996D01*
X241001Y459000D02*
X244000D01*
X242500D01*
Y460999D01*
X241001D01*
X244000D01*
Y461999D02*
X242001D01*
X241001Y462999D01*
X242001Y463998D01*
X244000D01*
X242500D01*
Y461999D01*
X241001Y464998D02*
X244000D01*
Y466997D01*
X241001Y467997D02*
X244000D01*
Y469996D01*
Y472996D02*
Y470996D01*
X242001Y472996D01*
X241501D01*
X241001Y472496D01*
Y471496D01*
X241501Y470996D01*
X181001Y461000D02*
X184000D01*
X182501D01*
Y462999D01*
X181001D01*
X184000D01*
Y463999D02*
X182001D01*
X181001Y464999D01*
X182001Y465998D01*
X184000D01*
X182501D01*
Y463999D01*
X181001Y466998D02*
X184000D01*
Y468997D01*
X181001Y469997D02*
X184000D01*
Y471996D01*
Y472996D02*
Y473996D01*
Y473496D01*
X181001D01*
X181501Y472996D01*
X166501Y451000D02*
Y452999D01*
Y452000D01*
X169500D01*
X166501Y453999D02*
X169500D01*
X168000D01*
Y455998D01*
X166501D01*
X169500D01*
Y456998D02*
X166501D01*
Y458498D01*
X167001Y458997D01*
X168000D01*
X168500Y458498D01*
Y456998D01*
Y457998D02*
X169500Y458997D01*
X166501Y461497D02*
Y460497D01*
X167001Y459997D01*
X169000D01*
X169500Y460497D01*
Y461497D01*
X169000Y461996D01*
X167001D01*
X166501Y461497D01*
Y462996D02*
Y464995D01*
Y463996D01*
X169500D01*
X166501Y465995D02*
Y467994D01*
Y466995D01*
X169500D01*
X166501Y468994D02*
X169500D01*
Y470994D01*
X166501Y473993D02*
Y471993D01*
X169500D01*
Y473993D01*
X168000Y471993D02*
Y472993D01*
X137001Y467999D02*
X136501Y467499D01*
Y466500D01*
X137001Y466000D01*
X137501D01*
X138001Y466500D01*
Y467499D01*
X138500Y467999D01*
X139000D01*
X139500Y467499D01*
Y466500D01*
X139000Y466000D01*
X136501Y468999D02*
X139500D01*
Y470499D01*
X139000Y470998D01*
X137001D01*
X136501Y470499D01*
Y468999D01*
X139500Y471998D02*
X137501D01*
X136501Y472998D01*
X137501Y473997D01*
X139500D01*
X138001D01*
Y471998D01*
X117001Y467999D02*
X116501Y467499D01*
Y466500D01*
X117001Y466000D01*
X117501D01*
X118000Y466500D01*
Y467499D01*
X118500Y467999D01*
X119000D01*
X119500Y467499D01*
Y466500D01*
X119000Y466000D01*
X117001Y470998D02*
X116501Y470499D01*
Y469499D01*
X117001Y468999D01*
X119000D01*
X119500Y469499D01*
Y470499D01*
X119000Y470998D01*
X116501Y471998D02*
X119500D01*
Y473997D01*
X104999Y413500D02*
X103000D01*
X104999Y415499D01*
Y415999D01*
X104499Y416499D01*
X103500D01*
X103000Y415999D01*
Y403500D02*
X104000D01*
X103500D01*
Y406499D01*
X103000Y405999D01*
X299000D02*
X299500Y406499D01*
X300500D01*
X300999Y405999D01*
Y405499D01*
X300500Y404999D01*
X300000D01*
X300500D01*
X300999Y404500D01*
Y404000D01*
X300500Y403500D01*
X299500D01*
X299000Y404000D01*
X301999Y406499D02*
X303998D01*
Y405999D01*
X301999Y404000D01*
Y403500D01*
X299000Y415999D02*
X299500Y416499D01*
X300500D01*
X300999Y415999D01*
Y415499D01*
X300500Y414999D01*
X300000D01*
X300500D01*
X300999Y414500D01*
Y414000D01*
X300500Y413500D01*
X299500D01*
X299000Y414000D01*
X301999Y415999D02*
X302499Y416499D01*
X303499D01*
X303998Y415999D01*
Y415499D01*
X303499Y414999D01*
X303998Y414500D01*
Y414000D01*
X303499Y413500D01*
X302499D01*
X301999Y414000D01*
Y414500D01*
X302499Y414999D01*
X301999Y415499D01*
Y415999D01*
X302499Y414999D02*
X303499D01*
X104999Y173500D02*
X103000D01*
X104999Y175499D01*
Y175999D01*
X104499Y176499D01*
X103500D01*
X103000Y175999D01*
Y163500D02*
X104000D01*
X103500D01*
Y166499D01*
X103000Y165999D01*
X299000D02*
X299500Y166499D01*
X300500D01*
X300999Y165999D01*
Y165499D01*
X300500Y164999D01*
X300000D01*
X300500D01*
X300999Y164500D01*
Y164000D01*
X300500Y163500D01*
X299500D01*
X299000Y164000D01*
X301999Y166499D02*
X303998D01*
Y165999D01*
X301999Y164000D01*
Y163500D01*
X299000Y175999D02*
X299500Y176499D01*
X300500D01*
X300999Y175999D01*
Y175499D01*
X300500Y174999D01*
X300000D01*
X300500D01*
X300999Y174500D01*
Y174000D01*
X300500Y173500D01*
X299500D01*
X299000Y174000D01*
X301999Y175999D02*
X302499Y176499D01*
X303499D01*
X303998Y175999D01*
Y175499D01*
X303499Y174999D01*
X303998Y174500D01*
Y174000D01*
X303499Y173500D01*
X302499D01*
X301999Y174000D01*
Y174500D01*
X302499Y174999D01*
X301999Y175499D01*
Y175999D01*
X302499Y174999D02*
X303499D01*
X109999Y424999D02*
X109500Y425499D01*
X108500D01*
X108000Y424999D01*
Y423000D01*
X108500Y422500D01*
X109500D01*
X109999Y423000D01*
X110999Y422500D02*
Y425499D01*
X112998Y422500D01*
Y425499D01*
X115997Y422500D02*
X113998D01*
X115997Y424499D01*
Y424999D01*
X115498Y425499D01*
X114498D01*
X113998Y424999D01*
X109999Y184999D02*
X109500Y185499D01*
X108500D01*
X108000Y184999D01*
Y183000D01*
X108500Y182500D01*
X109500D01*
X109999Y183000D01*
X110999Y182500D02*
Y185499D01*
X112998Y182500D01*
Y185499D01*
X113998Y182500D02*
X114998D01*
X114498D01*
Y185499D01*
X113998Y184999D01*
X381000Y278500D02*
X378001D01*
Y279999D01*
X378501Y280499D01*
X379501D01*
X380000Y279999D01*
Y278500D01*
Y279500D02*
X381000Y280499D01*
X381500Y281499D02*
Y283498D01*
X378001Y284498D02*
X381000D01*
Y286497D01*
X378001Y288997D02*
Y287997D01*
X378501Y287497D01*
X380500D01*
X381000Y287997D01*
Y288997D01*
X380500Y289496D01*
X378501D01*
X378001Y288997D01*
X381500Y290496D02*
Y292495D01*
X381000Y293495D02*
X378001D01*
Y294995D01*
X378501Y295495D01*
X379501D01*
X380000Y294995D01*
Y293495D01*
X378501Y296494D02*
X378001Y296994D01*
Y297994D01*
X378501Y298494D01*
X379001D01*
X379501Y297994D01*
Y297494D01*
Y297994D01*
X380000Y298494D01*
X380500D01*
X381000Y297994D01*
Y296994D01*
X380500Y296494D01*
X381000Y246000D02*
X378001D01*
Y247499D01*
X378501Y247999D01*
X379501D01*
X380000Y247499D01*
Y246000D01*
Y247000D02*
X381000Y247999D01*
X381500Y248999D02*
Y250998D01*
X378001Y251998D02*
X381000D01*
X379501D01*
Y253997D01*
X378001D01*
X381000D01*
X378001Y256497D02*
Y255497D01*
X378501Y254997D01*
X380500D01*
X381000Y255497D01*
Y256497D01*
X380500Y256996D01*
X378501D01*
X378001Y256497D01*
X381500Y257996D02*
Y259996D01*
X381000Y260995D02*
X378001D01*
Y262495D01*
X378501Y262995D01*
X379501D01*
X380000Y262495D01*
Y260995D01*
X378501Y263994D02*
X378001Y264494D01*
Y265494D01*
X378501Y265993D01*
X379001D01*
X379501Y265494D01*
Y264994D01*
Y265494D01*
X380000Y265993D01*
X380500D01*
X381000Y265494D01*
Y264494D01*
X380500Y263994D01*
X328000Y261000D02*
X325001D01*
Y262499D01*
X325501Y262999D01*
X326501D01*
X327000Y262499D01*
Y261000D01*
Y262000D02*
X328000Y262999D01*
X328500Y263999D02*
Y265998D01*
X325001Y266998D02*
X328000D01*
Y268498D01*
X327500Y268997D01*
X327000D01*
X326501Y268498D01*
Y266998D01*
Y268498D01*
X326001Y268997D01*
X325501D01*
X325001Y268498D01*
Y266998D01*
Y271497D02*
Y270497D01*
X325501Y269997D01*
X327500D01*
X328000Y270497D01*
Y271497D01*
X327500Y271996D01*
X325501D01*
X325001Y271497D01*
Y274496D02*
Y273496D01*
X325501Y272996D01*
X327500D01*
X328000Y273496D01*
Y274496D01*
X327500Y274995D01*
X325501D01*
X325001Y274496D01*
Y275995D02*
Y277994D01*
Y276995D01*
X328000D01*
X328500Y278994D02*
Y280994D01*
X328000Y281993D02*
X325001D01*
Y283493D01*
X325501Y283993D01*
X326501D01*
X327000Y283493D01*
Y281993D01*
X325501Y284992D02*
X325001Y285492D01*
Y286492D01*
X325501Y286992D01*
X326001D01*
X326501Y286492D01*
Y285992D01*
Y286492D01*
X327000Y286992D01*
X327500D01*
X328000Y286492D01*
Y285492D01*
X327500Y284992D01*
X386500Y280499D02*
X384501D01*
X384001Y279999D01*
Y279000D01*
X384501Y278500D01*
X386500D01*
X387000Y279000D01*
Y279999D01*
X386000Y279500D02*
X387000Y280499D01*
Y279999D02*
X386500Y280499D01*
X387500Y281499D02*
Y283498D01*
X384001Y284498D02*
X387000D01*
Y286497D01*
X384001Y288997D02*
Y287997D01*
X384501Y287497D01*
X386500D01*
X387000Y287997D01*
Y288997D01*
X386500Y289496D01*
X384501D01*
X384001Y288997D01*
X387500Y290496D02*
Y292495D01*
X387000Y293495D02*
X384001D01*
Y294995D01*
X384501Y295495D01*
X385501D01*
X386000Y294995D01*
Y293495D01*
X384501Y296494D02*
X384001Y296994D01*
Y297994D01*
X384501Y298494D01*
X385001D01*
X385501Y297994D01*
Y297494D01*
Y297994D01*
X386000Y298494D01*
X386500D01*
X387000Y297994D01*
Y296994D01*
X386500Y296494D01*
Y247499D02*
X384501D01*
X384001Y247000D01*
Y246000D01*
X384501Y245500D01*
X386500D01*
X387000Y246000D01*
Y247000D01*
X386000Y246500D02*
X387000Y247499D01*
Y247000D02*
X386500Y247499D01*
X387500Y248499D02*
Y250498D01*
X384001Y251498D02*
X387000D01*
X385501D01*
Y253497D01*
X384001D01*
X387000D01*
X384001Y255997D02*
Y254997D01*
X384501Y254497D01*
X386500D01*
X387000Y254997D01*
Y255997D01*
X386500Y256496D01*
X384501D01*
X384001Y255997D01*
X387500Y257496D02*
Y259495D01*
X387000Y260495D02*
X384001D01*
Y261995D01*
X384501Y262494D01*
X385501D01*
X386000Y261995D01*
Y260495D01*
X384501Y263494D02*
X384001Y263994D01*
Y264994D01*
X384501Y265493D01*
X385001D01*
X385501Y264994D01*
Y264494D01*
Y264994D01*
X386000Y265493D01*
X386500D01*
X387000Y264994D01*
Y263994D01*
X386500Y263494D01*
X338999Y278000D02*
Y279999D01*
X338499Y280499D01*
X337500D01*
X337000Y279999D01*
Y278000D01*
X337500Y277500D01*
X338499D01*
X338000Y278500D02*
X338999Y277500D01*
X338499D02*
X338999Y278000D01*
X339999Y277500D02*
X340999D01*
X340499D01*
Y280499D01*
X339999Y279999D01*
X342498Y277000D02*
X344498D01*
X345497Y277500D02*
Y280499D01*
X346997D01*
X347497Y279999D01*
Y278999D01*
X346997Y278500D01*
X345497D01*
X348496Y279999D02*
X348996Y280499D01*
X349996D01*
X350496Y279999D01*
Y279499D01*
X349996Y278999D01*
X349496D01*
X349996D01*
X350496Y278500D01*
Y278000D01*
X349996Y277500D01*
X348996D01*
X348496Y278000D01*
X338000Y302499D02*
Y299500D01*
X339499D01*
X339999Y300000D01*
Y301999D01*
X339499Y302499D01*
X338000D01*
X340999Y299000D02*
X342998D01*
X343998Y302499D02*
Y299500D01*
X345498D01*
X345997Y300000D01*
Y300500D01*
X345498Y300999D01*
X343998D01*
X345498D01*
X345997Y301499D01*
Y301999D01*
X345498Y302499D01*
X343998D01*
X348497D02*
X347497D01*
X346997Y301999D01*
Y300000D01*
X347497Y299500D01*
X348497D01*
X348996Y300000D01*
Y301999D01*
X348497Y302499D01*
X351496D02*
X350496D01*
X349996Y301999D01*
Y300000D01*
X350496Y299500D01*
X351496D01*
X351995Y300000D01*
Y301999D01*
X351496Y302499D01*
X352995D02*
X354995D01*
X353995D01*
Y299500D01*
X355994Y299000D02*
X357994D01*
X358993Y299500D02*
Y302499D01*
X360493D01*
X360993Y301999D01*
Y300999D01*
X360493Y300500D01*
X358993D01*
X361992Y301999D02*
X362492Y302499D01*
X363492D01*
X363992Y301999D01*
Y301499D01*
X363492Y300999D01*
X362992D01*
X363492D01*
X363992Y300500D01*
Y300000D01*
X363492Y299500D01*
X362492D01*
X361992Y300000D01*
X371501Y279999D02*
X371001Y279500D01*
Y278500D01*
X371501Y278000D01*
X373500D01*
X374000Y278500D01*
Y279500D01*
X373500Y279999D01*
X374500Y280999D02*
Y282998D01*
X371001Y283998D02*
X374000D01*
Y285498D01*
X373500Y285997D01*
X373000D01*
X372500Y285498D01*
Y283998D01*
Y285498D01*
X372001Y285997D01*
X371501D01*
X371001Y285498D01*
Y283998D01*
Y288497D02*
Y287497D01*
X371501Y286997D01*
X373500D01*
X374000Y287497D01*
Y288497D01*
X373500Y288996D01*
X371501D01*
X371001Y288497D01*
Y291496D02*
Y290496D01*
X371501Y289996D01*
X373500D01*
X374000Y290496D01*
Y291496D01*
X373500Y291996D01*
X371501D01*
X371001Y291496D01*
Y292995D02*
Y294994D01*
Y293995D01*
X374000D01*
X374500Y295994D02*
Y297993D01*
X374000Y298993D02*
X371001D01*
Y300493D01*
X371501Y300993D01*
X372500D01*
X373000Y300493D01*
Y298993D01*
X371501Y301992D02*
X371001Y302492D01*
Y303492D01*
X371501Y303992D01*
X372001D01*
X372500Y303492D01*
Y302992D01*
Y303492D01*
X373000Y303992D01*
X373500D01*
X374000Y303492D01*
Y302492D01*
X373500Y301992D01*
X353001Y242499D02*
X352501Y242000D01*
Y241000D01*
X353001Y240500D01*
X355000D01*
X355500Y241000D01*
Y242000D01*
X355000Y242499D01*
X355500Y245498D02*
Y243499D01*
X353501Y245498D01*
X353001D01*
X352501Y244999D01*
Y243999D01*
X353001Y243499D01*
X356000Y246498D02*
Y248497D01*
X355500Y249497D02*
X352501D01*
Y250997D01*
X353001Y251496D01*
X354000D01*
X354500Y250997D01*
Y249497D01*
X353001Y252496D02*
X352501Y252996D01*
Y253996D01*
X353001Y254496D01*
X353501D01*
X354000Y253996D01*
Y253496D01*
Y253996D01*
X354500Y254496D01*
X355000D01*
X355500Y253996D01*
Y252996D01*
X355000Y252496D01*
X369001Y245499D02*
X368501Y245000D01*
Y244000D01*
X369001Y243500D01*
X371000D01*
X371500Y244000D01*
Y245000D01*
X371000Y245499D01*
X371500Y246499D02*
Y247499D01*
Y246999D01*
X368501D01*
X369001Y246499D01*
X372000Y248998D02*
Y250998D01*
X371500Y251997D02*
X368501D01*
Y253497D01*
X369001Y253997D01*
X370001D01*
X370500Y253497D01*
Y251997D01*
X369001Y254996D02*
X368501Y255496D01*
Y256496D01*
X369001Y256996D01*
X369501D01*
X370001Y256496D01*
Y255996D01*
Y256496D01*
X370500Y256996D01*
X371000D01*
X371500Y256496D01*
Y255496D01*
X371000Y254996D01*
X397001Y222999D02*
X396501Y222499D01*
Y221500D01*
X397001Y221000D01*
X399000D01*
X399500Y221500D01*
Y222499D01*
X399000Y222999D01*
X397001Y223999D02*
X396501Y224499D01*
Y225499D01*
X397001Y225998D01*
X397501D01*
X398001Y225499D01*
Y224999D01*
Y225499D01*
X398500Y225998D01*
X399000D01*
X399500Y225499D01*
Y224499D01*
X399000Y223999D01*
X400000Y226998D02*
Y228997D01*
X399500Y229997D02*
X396501D01*
Y231497D01*
X397001Y231996D01*
X398001D01*
X398500Y231497D01*
Y229997D01*
X397001Y232996D02*
X396501Y233496D01*
Y234496D01*
X397001Y234996D01*
X397501D01*
X398001Y234496D01*
Y233996D01*
Y234496D01*
X398500Y234996D01*
X399000D01*
X399500Y234496D01*
Y233496D01*
X399000Y232996D01*
X477501Y303000D02*
X480000D01*
X480500Y303500D01*
Y304500D01*
X480000Y304999D01*
X477501D01*
X480500Y307998D02*
Y305999D01*
X478501Y307998D01*
X478001D01*
X477501Y307499D01*
Y306499D01*
X478001Y305999D01*
X481000Y308998D02*
Y310997D01*
X478001Y313996D02*
X477501Y313497D01*
Y312497D01*
X478001Y311997D01*
X478501D01*
X479001Y312497D01*
Y313497D01*
X479500Y313996D01*
X480000D01*
X480500Y313497D01*
Y312497D01*
X480000Y311997D01*
X480500Y316996D02*
Y314996D01*
X478501Y316996D01*
X478001D01*
X477501Y316496D01*
Y315496D01*
X478001Y314996D01*
X433500Y322999D02*
Y320500D01*
X434000Y320000D01*
X435000D01*
X435499Y320500D01*
Y322999D01*
X436499Y320000D02*
X437499D01*
X436999D01*
Y322999D01*
X436499Y322499D01*
X438998Y319500D02*
X440998D01*
X443997Y322499D02*
X443497Y322999D01*
X442497D01*
X441997Y322499D01*
Y321999D01*
X442497Y321499D01*
X443497D01*
X443997Y321000D01*
Y320500D01*
X443497Y320000D01*
X442497D01*
X441997Y320500D01*
X446996Y320000D02*
X444996D01*
X446996Y321999D01*
Y322499D01*
X446496Y322999D01*
X445496D01*
X444996Y322499D01*
X423000Y313000D02*
X420001D01*
Y314499D01*
X420501Y314999D01*
X421500D01*
X422000Y314499D01*
Y313000D01*
Y314000D02*
X423000Y314999D01*
X420001Y317998D02*
Y315999D01*
X421500D01*
X421001Y316999D01*
Y317498D01*
X421500Y317998D01*
X422500D01*
X423000Y317498D01*
Y316499D01*
X422500Y315999D01*
X423500Y318998D02*
Y320997D01*
X420501Y323996D02*
X420001Y323497D01*
Y322497D01*
X420501Y321997D01*
X421001D01*
X421500Y322497D01*
Y323497D01*
X422000Y323996D01*
X422500D01*
X423000Y323497D01*
Y322497D01*
X422500Y321997D01*
X423000Y326995D02*
Y324996D01*
X421001Y326995D01*
X420501D01*
X420001Y326496D01*
Y325496D01*
X420501Y324996D01*
X423500Y276500D02*
X420501D01*
Y277999D01*
X421001Y278499D01*
X422001D01*
X422500Y277999D01*
Y276500D01*
Y277500D02*
X423500Y278499D01*
Y280998D02*
X420501D01*
X422001Y279499D01*
Y281498D01*
X424000Y282498D02*
Y284497D01*
X421001Y287496D02*
X420501Y286997D01*
Y285997D01*
X421001Y285497D01*
X421501D01*
X422001Y285997D01*
Y286997D01*
X422500Y287496D01*
X423000D01*
X423500Y286997D01*
Y285997D01*
X423000Y285497D01*
X423500Y290495D02*
Y288496D01*
X421501Y290495D01*
X421001D01*
X420501Y289996D01*
Y288996D01*
X421001Y288496D01*
X443500Y305000D02*
Y307999D01*
X445000D01*
X445499Y307499D01*
Y306500D01*
X445000Y306000D01*
X443500D01*
X444500D02*
X445499Y305000D01*
X446499Y307499D02*
X446999Y307999D01*
X447999D01*
X448498Y307499D01*
Y306999D01*
X447999Y306500D01*
X447499D01*
X447999D01*
X448498Y306000D01*
Y305500D01*
X447999Y305000D01*
X446999D01*
X446499Y305500D01*
X449498Y304500D02*
X451497D01*
X454496Y307499D02*
X453997Y307999D01*
X452997D01*
X452497Y307499D01*
Y306999D01*
X452997Y306500D01*
X453997D01*
X454496Y306000D01*
Y305500D01*
X453997Y305000D01*
X452997D01*
X452497Y305500D01*
X457495Y305000D02*
X455496D01*
X457495Y306999D01*
Y307499D01*
X456996Y307999D01*
X455996D01*
X455496Y307499D01*
X471728Y294000D02*
Y296999D01*
X473228D01*
X473728Y296499D01*
Y295499D01*
X473228Y295000D01*
X471728D01*
X472728D02*
X473728Y294000D01*
X476727D02*
X474727D01*
X476727Y295999D01*
Y296499D01*
X476227Y296999D01*
X475227D01*
X474727Y296499D01*
X477726Y293500D02*
X479726D01*
X482725Y296499D02*
X482225Y296999D01*
X481225D01*
X480725Y296499D01*
Y295999D01*
X481225Y295499D01*
X482225D01*
X482725Y295000D01*
Y294500D01*
X482225Y294000D01*
X481225D01*
X480725Y294500D01*
X485724Y294000D02*
X483724D01*
X485724Y295999D01*
Y296499D01*
X485224Y296999D01*
X484224D01*
X483724Y296499D01*
X430500Y288500D02*
Y291499D01*
X431999D01*
X432499Y290999D01*
Y290000D01*
X431999Y289500D01*
X430500D01*
X431500D02*
X432499Y288500D01*
X433499D02*
X434499D01*
X433999D01*
Y291499D01*
X433499Y290999D01*
X435998Y288000D02*
X437998D01*
X440997Y290999D02*
X440497Y291499D01*
X439497D01*
X438997Y290999D01*
Y290499D01*
X439497Y290000D01*
X440497D01*
X440997Y289500D01*
Y289000D01*
X440497Y288500D01*
X439497D01*
X438997Y289000D01*
X443996Y288500D02*
X441996D01*
X443996Y290499D01*
Y290999D01*
X443496Y291499D01*
X442496D01*
X441996Y290999D01*
X515011Y294806D02*
X513012D01*
Y293307D01*
X514011D01*
X513012D01*
Y291807D01*
X516011Y291307D02*
X518010D01*
X521009Y294306D02*
X520509Y294806D01*
X519510D01*
X519010Y294306D01*
Y293806D01*
X519510Y293307D01*
X520509D01*
X521009Y292807D01*
Y292307D01*
X520509Y291807D01*
X519510D01*
X519010Y292307D01*
X524008Y291807D02*
X522009D01*
X524008Y293806D01*
Y294306D01*
X523508Y294806D01*
X522509D01*
X522009Y294306D01*
X452001Y333499D02*
X451501Y332999D01*
Y332000D01*
X452001Y331500D01*
X454000D01*
X454500Y332000D01*
Y332999D01*
X454000Y333499D01*
X451501Y336498D02*
Y334499D01*
X453000D01*
X452501Y335499D01*
Y335999D01*
X453000Y336498D01*
X454000D01*
X454500Y335999D01*
Y334999D01*
X454000Y334499D01*
X455000Y337498D02*
Y339497D01*
X452001Y342496D02*
X451501Y341997D01*
Y340997D01*
X452001Y340497D01*
X452501D01*
X453000Y340997D01*
Y341997D01*
X453500Y342496D01*
X454000D01*
X454500Y341997D01*
Y340997D01*
X454000Y340497D01*
X454500Y345496D02*
Y343496D01*
X452501Y345496D01*
X452001D01*
X451501Y344996D01*
Y343996D01*
X452001Y343496D01*
X446501Y333499D02*
X446001Y332999D01*
Y332000D01*
X446501Y331500D01*
X448500D01*
X449000Y332000D01*
Y332999D01*
X448500Y333499D01*
X449000Y335999D02*
X446001D01*
X447501Y334499D01*
Y336498D01*
X449500Y337498D02*
Y339497D01*
X446501Y342496D02*
X446001Y341997D01*
Y340997D01*
X446501Y340497D01*
X447001D01*
X447501Y340997D01*
Y341997D01*
X448000Y342496D01*
X448500D01*
X449000Y341997D01*
Y340997D01*
X448500Y340497D01*
X449000Y345496D02*
Y343496D01*
X447001Y345496D01*
X446501D01*
X446001Y344996D01*
Y343996D01*
X446501Y343496D01*
X397001Y325499D02*
X396501Y324999D01*
Y324000D01*
X397001Y323500D01*
X399000D01*
X399500Y324000D01*
Y324999D01*
X399000Y325499D01*
X397001Y326499D02*
X396501Y326999D01*
Y327998D01*
X397001Y328498D01*
X397501D01*
X398001Y327998D01*
Y327499D01*
Y327998D01*
X398500Y328498D01*
X399000D01*
X399500Y327998D01*
Y326999D01*
X399000Y326499D01*
X400000Y329498D02*
Y331497D01*
X399500Y332497D02*
X396501D01*
Y333997D01*
X397001Y334496D01*
X398001D01*
X398500Y333997D01*
Y332497D01*
X399500Y337495D02*
Y335496D01*
X397501Y337495D01*
X397001D01*
X396501Y336996D01*
Y335996D01*
X397001Y335496D01*
X381000Y381000D02*
X378001D01*
Y382500D01*
X378501Y382999D01*
X379501D01*
X380000Y382500D01*
Y381000D01*
Y382000D02*
X381000Y382999D01*
X381500Y383999D02*
Y385998D01*
X378001Y386998D02*
X381000D01*
Y388997D01*
X378001Y391497D02*
Y390497D01*
X378501Y389997D01*
X380500D01*
X381000Y390497D01*
Y391497D01*
X380500Y391996D01*
X378501D01*
X378001Y391497D01*
X381500Y392996D02*
Y394995D01*
X381000Y395995D02*
X378001D01*
Y397495D01*
X378501Y397994D01*
X379501D01*
X380000Y397495D01*
Y395995D01*
X381000Y400993D02*
Y398994D01*
X379001Y400993D01*
X378501D01*
X378001Y400494D01*
Y399494D01*
X378501Y398994D01*
X381000Y349500D02*
X378001D01*
Y350999D01*
X378501Y351499D01*
X379501D01*
X380000Y350999D01*
Y349500D01*
Y350500D02*
X381000Y351499D01*
X381500Y352499D02*
Y354498D01*
X378001Y355498D02*
X381000D01*
X379501D01*
Y357497D01*
X378001D01*
X381000D01*
X378001Y359997D02*
Y358997D01*
X378501Y358497D01*
X380500D01*
X381000Y358997D01*
Y359997D01*
X380500Y360496D01*
X378501D01*
X378001Y359997D01*
X381500Y361496D02*
Y363495D01*
X381000Y364495D02*
X378001D01*
Y365995D01*
X378501Y366494D01*
X379501D01*
X380000Y365995D01*
Y364495D01*
X381000Y369494D02*
Y367494D01*
X379001Y369494D01*
X378501D01*
X378001Y368994D01*
Y367994D01*
X378501Y367494D01*
X328000Y364500D02*
X325001D01*
Y366000D01*
X325501Y366499D01*
X326501D01*
X327000Y366000D01*
Y364500D01*
Y365500D02*
X328000Y366499D01*
X328500Y367499D02*
Y369498D01*
X325001Y370498D02*
X328000D01*
Y371998D01*
X327500Y372497D01*
X327000D01*
X326501Y371998D01*
Y370498D01*
Y371998D01*
X326001Y372497D01*
X325501D01*
X325001Y371998D01*
Y370498D01*
Y374997D02*
Y373997D01*
X325501Y373497D01*
X327500D01*
X328000Y373997D01*
Y374997D01*
X327500Y375496D01*
X325501D01*
X325001Y374997D01*
Y377996D02*
Y376996D01*
X325501Y376496D01*
X327500D01*
X328000Y376996D01*
Y377996D01*
X327500Y378496D01*
X325501D01*
X325001Y377996D01*
Y379495D02*
Y381494D01*
Y380495D01*
X328000D01*
X328500Y382494D02*
Y384493D01*
X328000Y385493D02*
X325001D01*
Y386993D01*
X325501Y387493D01*
X326501D01*
X327000Y386993D01*
Y385493D01*
X328000Y390492D02*
Y388492D01*
X326001Y390492D01*
X325501D01*
X325001Y389992D01*
Y388992D01*
X325501Y388492D01*
X386500Y382999D02*
X384501D01*
X384001Y382500D01*
Y381500D01*
X384501Y381000D01*
X386500D01*
X387000Y381500D01*
Y382500D01*
X386000Y382000D02*
X387000Y382999D01*
Y382500D02*
X386500Y382999D01*
X387500Y383999D02*
Y385998D01*
X384001Y386998D02*
X387000D01*
Y388997D01*
X384001Y391497D02*
Y390497D01*
X384501Y389997D01*
X386500D01*
X387000Y390497D01*
Y391497D01*
X386500Y391996D01*
X384501D01*
X384001Y391497D01*
X387500Y392996D02*
Y394995D01*
X387000Y395995D02*
X384001D01*
Y397495D01*
X384501Y397994D01*
X385501D01*
X386000Y397495D01*
Y395995D01*
X387000Y400993D02*
Y398994D01*
X385001Y400993D01*
X384501D01*
X384001Y400494D01*
Y399494D01*
X384501Y398994D01*
X386500Y351499D02*
X384501D01*
X384001Y350999D01*
Y350000D01*
X384501Y349500D01*
X386500D01*
X387000Y350000D01*
Y350999D01*
X386000Y350500D02*
X387000Y351499D01*
Y350999D02*
X386500Y351499D01*
X387500Y352499D02*
Y354498D01*
X384001Y355498D02*
X387000D01*
X385501D01*
Y357497D01*
X384001D01*
X387000D01*
X384001Y359997D02*
Y358997D01*
X384501Y358497D01*
X386500D01*
X387000Y358997D01*
Y359997D01*
X386500Y360496D01*
X384501D01*
X384001Y359997D01*
X387500Y361496D02*
Y363495D01*
X387000Y364495D02*
X384001D01*
Y365995D01*
X384501Y366494D01*
X385501D01*
X386000Y365995D01*
Y364495D01*
X387000Y369494D02*
Y367494D01*
X385001Y369494D01*
X384501D01*
X384001Y368994D01*
Y367994D01*
X384501Y367494D01*
X338999Y380500D02*
Y382499D01*
X338499Y382999D01*
X337500D01*
X337000Y382499D01*
Y380500D01*
X337500Y380000D01*
X338499D01*
X338000Y381000D02*
X338999Y380000D01*
X338499D02*
X338999Y380500D01*
X339999Y380000D02*
X340999D01*
X340499D01*
Y382999D01*
X339999Y382499D01*
X342498Y379500D02*
X344498D01*
X345497Y380000D02*
Y382999D01*
X346997D01*
X347497Y382499D01*
Y381500D01*
X346997Y381000D01*
X345497D01*
X350496Y380000D02*
X348496D01*
X350496Y381999D01*
Y382499D01*
X349996Y382999D01*
X348996D01*
X348496Y382499D01*
X338000Y403999D02*
Y401000D01*
X339499D01*
X339999Y401500D01*
Y403499D01*
X339499Y403999D01*
X338000D01*
X340999Y400500D02*
X342998D01*
X343998Y403999D02*
Y401000D01*
X345498D01*
X345997Y401500D01*
Y402000D01*
X345498Y402499D01*
X343998D01*
X345498D01*
X345997Y402999D01*
Y403499D01*
X345498Y403999D01*
X343998D01*
X348497D02*
X347497D01*
X346997Y403499D01*
Y401500D01*
X347497Y401000D01*
X348497D01*
X348996Y401500D01*
Y403499D01*
X348497Y403999D01*
X351496D02*
X350496D01*
X349996Y403499D01*
Y401500D01*
X350496Y401000D01*
X351496D01*
X351995Y401500D01*
Y403499D01*
X351496Y403999D01*
X352995D02*
X354995D01*
X353995D01*
Y401000D01*
X355994Y400500D02*
X357994D01*
X358993Y401000D02*
Y403999D01*
X360493D01*
X360993Y403499D01*
Y402499D01*
X360493Y402000D01*
X358993D01*
X363992Y401000D02*
X361992D01*
X363992Y402999D01*
Y403499D01*
X363492Y403999D01*
X362492D01*
X361992Y403499D01*
X371501Y382499D02*
X371001Y381999D01*
Y381000D01*
X371501Y380500D01*
X373500D01*
X374000Y381000D01*
Y381999D01*
X373500Y382499D01*
X374500Y383499D02*
Y385498D01*
X371001Y386498D02*
X374000D01*
Y387998D01*
X373500Y388497D01*
X373000D01*
X372500Y387998D01*
Y386498D01*
Y387998D01*
X372001Y388497D01*
X371501D01*
X371001Y387998D01*
Y386498D01*
Y390997D02*
Y389997D01*
X371501Y389497D01*
X373500D01*
X374000Y389997D01*
Y390997D01*
X373500Y391496D01*
X371501D01*
X371001Y390997D01*
Y393996D02*
Y392996D01*
X371501Y392496D01*
X373500D01*
X374000Y392996D01*
Y393996D01*
X373500Y394496D01*
X371501D01*
X371001Y393996D01*
Y395495D02*
Y397495D01*
Y396495D01*
X374000D01*
X374500Y398494D02*
Y400493D01*
X374000Y401493D02*
X371001D01*
Y402993D01*
X371501Y403493D01*
X372500D01*
X373000Y402993D01*
Y401493D01*
X374000Y406492D02*
Y404492D01*
X372001Y406492D01*
X371501D01*
X371001Y405992D01*
Y404992D01*
X371501Y404492D01*
X353501Y346499D02*
X353001Y346000D01*
Y345000D01*
X353501Y344500D01*
X355500D01*
X356000Y345000D01*
Y346000D01*
X355500Y346499D01*
X356000Y349498D02*
Y347499D01*
X354001Y349498D01*
X353501D01*
X353001Y348998D01*
Y347999D01*
X353501Y347499D01*
X356500Y350498D02*
Y352497D01*
X356000Y353497D02*
X353001D01*
Y354997D01*
X353501Y355496D01*
X354501D01*
X355000Y354997D01*
Y353497D01*
X356000Y358495D02*
Y356496D01*
X354001Y358495D01*
X353501D01*
X353001Y357996D01*
Y356996D01*
X353501Y356496D01*
X369001Y347999D02*
X368501Y347499D01*
Y346500D01*
X369001Y346000D01*
X371000D01*
X371500Y346500D01*
Y347499D01*
X371000Y347999D01*
X371500Y348999D02*
Y349999D01*
Y349499D01*
X368501D01*
X369001Y348999D01*
X372000Y351498D02*
Y353498D01*
X371500Y354497D02*
X368501D01*
Y355997D01*
X369001Y356497D01*
X370001D01*
X370500Y355997D01*
Y354497D01*
X371500Y359496D02*
Y357496D01*
X369501Y359496D01*
X369001D01*
X368501Y358996D01*
Y357996D01*
X369001Y357496D01*
X477501Y405500D02*
X480000D01*
X480500Y406000D01*
Y406999D01*
X480000Y407499D01*
X477501D01*
X480500Y410498D02*
Y408499D01*
X478501Y410498D01*
X478001D01*
X477501Y409999D01*
Y408999D01*
X478001Y408499D01*
X481000Y411498D02*
Y413497D01*
X478001Y416496D02*
X477501Y415997D01*
Y414997D01*
X478001Y414497D01*
X478501D01*
X479001Y414997D01*
Y415997D01*
X479500Y416496D01*
X480000D01*
X480500Y415997D01*
Y414997D01*
X480000Y414497D01*
X478001Y417496D02*
X477501Y417996D01*
Y418996D01*
X478001Y419495D01*
X478501D01*
X479001Y418996D01*
Y418496D01*
Y418996D01*
X479500Y419495D01*
X480000D01*
X480500Y418996D01*
Y417996D01*
X480000Y417496D01*
X430500Y426499D02*
Y424000D01*
X431000Y423500D01*
X431999D01*
X432499Y424000D01*
Y426499D01*
X433499Y423500D02*
X434499D01*
X433999D01*
Y426499D01*
X433499Y425999D01*
X435998Y423000D02*
X437998D01*
X440997Y425999D02*
X440497Y426499D01*
X439497D01*
X438997Y425999D01*
Y425499D01*
X439497Y425000D01*
X440497D01*
X440997Y424500D01*
Y424000D01*
X440497Y423500D01*
X439497D01*
X438997Y424000D01*
X441996Y425999D02*
X442496Y426499D01*
X443496D01*
X443996Y425999D01*
Y425499D01*
X443496Y425000D01*
X442996D01*
X443496D01*
X443996Y424500D01*
Y424000D01*
X443496Y423500D01*
X442496D01*
X441996Y424000D01*
X423000Y416000D02*
X420001D01*
Y417499D01*
X420501Y417999D01*
X421500D01*
X422000Y417499D01*
Y416000D01*
Y417000D02*
X423000Y417999D01*
X420001Y420998D02*
Y418999D01*
X421500D01*
X421001Y419999D01*
Y420499D01*
X421500Y420998D01*
X422500D01*
X423000Y420499D01*
Y419499D01*
X422500Y418999D01*
X423500Y421998D02*
Y423997D01*
X420501Y426996D02*
X420001Y426497D01*
Y425497D01*
X420501Y424997D01*
X421001D01*
X421500Y425497D01*
Y426497D01*
X422000Y426996D01*
X422500D01*
X423000Y426497D01*
Y425497D01*
X422500Y424997D01*
X420501Y427996D02*
X420001Y428496D01*
Y429496D01*
X420501Y429995D01*
X421001D01*
X421500Y429496D01*
Y428996D01*
Y429496D01*
X422000Y429995D01*
X422500D01*
X423000Y429496D01*
Y428496D01*
X422500Y427996D01*
X423500Y379000D02*
X420501D01*
Y380500D01*
X421001Y380999D01*
X422001D01*
X422500Y380500D01*
Y379000D01*
Y380000D02*
X423500Y380999D01*
Y383499D02*
X420501D01*
X422001Y381999D01*
Y383998D01*
X424000Y384998D02*
Y386997D01*
X421001Y389996D02*
X420501Y389497D01*
Y388497D01*
X421001Y387997D01*
X421501D01*
X422001Y388497D01*
Y389497D01*
X422500Y389996D01*
X423000D01*
X423500Y389497D01*
Y388497D01*
X423000Y387997D01*
X421001Y390996D02*
X420501Y391496D01*
Y392496D01*
X421001Y392996D01*
X421501D01*
X422001Y392496D01*
Y391996D01*
Y392496D01*
X422500Y392996D01*
X423000D01*
X423500Y392496D01*
Y391496D01*
X423000Y390996D01*
X443500Y407500D02*
Y410499D01*
X445000D01*
X445499Y409999D01*
Y408999D01*
X445000Y408500D01*
X443500D01*
X444500D02*
X445499Y407500D01*
X446499Y409999D02*
X446999Y410499D01*
X447999D01*
X448498Y409999D01*
Y409499D01*
X447999Y408999D01*
X447499D01*
X447999D01*
X448498Y408500D01*
Y408000D01*
X447999Y407500D01*
X446999D01*
X446499Y408000D01*
X449498Y407000D02*
X451497D01*
X454496Y409999D02*
X453997Y410499D01*
X452997D01*
X452497Y409999D01*
Y409499D01*
X452997Y408999D01*
X453997D01*
X454496Y408500D01*
Y408000D01*
X453997Y407500D01*
X452997D01*
X452497Y408000D01*
X455496Y409999D02*
X455996Y410499D01*
X456996D01*
X457495Y409999D01*
Y409499D01*
X456996Y408999D01*
X456496D01*
X456996D01*
X457495Y408500D01*
Y408000D01*
X456996Y407500D01*
X455996D01*
X455496Y408000D01*
X471728Y396500D02*
Y399499D01*
X473228D01*
X473728Y398999D01*
Y398000D01*
X473228Y397500D01*
X471728D01*
X472728D02*
X473728Y396500D01*
X476727D02*
X474727D01*
X476727Y398499D01*
Y398999D01*
X476227Y399499D01*
X475227D01*
X474727Y398999D01*
X477726Y396000D02*
X479726D01*
X482725Y398999D02*
X482225Y399499D01*
X481225D01*
X480725Y398999D01*
Y398499D01*
X481225Y398000D01*
X482225D01*
X482725Y397500D01*
Y397000D01*
X482225Y396500D01*
X481225D01*
X480725Y397000D01*
X483724Y398999D02*
X484224Y399499D01*
X485224D01*
X485724Y398999D01*
Y398499D01*
X485224Y398000D01*
X484724D01*
X485224D01*
X485724Y397500D01*
Y397000D01*
X485224Y396500D01*
X484224D01*
X483724Y397000D01*
X430500Y391000D02*
Y393999D01*
X431999D01*
X432499Y393499D01*
Y392499D01*
X431999Y392000D01*
X430500D01*
X431500D02*
X432499Y391000D01*
X433499D02*
X434499D01*
X433999D01*
Y393999D01*
X433499Y393499D01*
X435998Y390500D02*
X437998D01*
X440997Y393499D02*
X440497Y393999D01*
X439497D01*
X438997Y393499D01*
Y392999D01*
X439497Y392499D01*
X440497D01*
X440997Y392000D01*
Y391500D01*
X440497Y391000D01*
X439497D01*
X438997Y391500D01*
X441996Y393499D02*
X442496Y393999D01*
X443496D01*
X443996Y393499D01*
Y392999D01*
X443496Y392499D01*
X442996D01*
X443496D01*
X443996Y392000D01*
Y391500D01*
X443496Y391000D01*
X442496D01*
X441996Y391500D01*
X515011Y397306D02*
X513012D01*
Y395807D01*
X514011D01*
X513012D01*
Y394307D01*
X516011Y393807D02*
X518010D01*
X521009Y396806D02*
X520509Y397306D01*
X519510D01*
X519010Y396806D01*
Y396306D01*
X519510Y395807D01*
X520509D01*
X521009Y395307D01*
Y394807D01*
X520509Y394307D01*
X519510D01*
X519010Y394807D01*
X522009Y396806D02*
X522509Y397306D01*
X523508D01*
X524008Y396806D01*
Y396306D01*
X523508Y395807D01*
X523009D01*
X523508D01*
X524008Y395307D01*
Y394807D01*
X523508Y394307D01*
X522509D01*
X522009Y394807D01*
X452001Y435999D02*
X451501Y435499D01*
Y434500D01*
X452001Y434000D01*
X454000D01*
X454500Y434500D01*
Y435499D01*
X454000Y435999D01*
X451501Y438998D02*
Y436999D01*
X453000D01*
X452501Y437999D01*
Y438498D01*
X453000Y438998D01*
X454000D01*
X454500Y438498D01*
Y437499D01*
X454000Y436999D01*
X455000Y439998D02*
Y441997D01*
X452001Y444996D02*
X451501Y444497D01*
Y443497D01*
X452001Y442997D01*
X452501D01*
X453000Y443497D01*
Y444497D01*
X453500Y444996D01*
X454000D01*
X454500Y444497D01*
Y443497D01*
X454000Y442997D01*
X452001Y445996D02*
X451501Y446496D01*
Y447496D01*
X452001Y447996D01*
X452501D01*
X453000Y447496D01*
Y446996D01*
Y447496D01*
X453500Y447996D01*
X454000D01*
X454500Y447496D01*
Y446496D01*
X454000Y445996D01*
X446501Y435999D02*
X446001Y435499D01*
Y434500D01*
X446501Y434000D01*
X448500D01*
X449000Y434500D01*
Y435499D01*
X448500Y435999D01*
X449000Y438498D02*
X446001D01*
X447501Y436999D01*
Y438998D01*
X449500Y439998D02*
Y441997D01*
X446501Y444996D02*
X446001Y444497D01*
Y443497D01*
X446501Y442997D01*
X447001D01*
X447501Y443497D01*
Y444497D01*
X448000Y444996D01*
X448500D01*
X449000Y444497D01*
Y443497D01*
X448500Y442997D01*
X446501Y445996D02*
X446001Y446496D01*
Y447496D01*
X446501Y447996D01*
X447001D01*
X447501Y447496D01*
Y446996D01*
Y447496D01*
X448000Y447996D01*
X448500D01*
X449000Y447496D01*
Y446496D01*
X448500Y445996D01*
X477501Y200500D02*
X480000D01*
X480500Y201000D01*
Y201999D01*
X480000Y202499D01*
X477501D01*
X480500Y205498D02*
Y203499D01*
X478501Y205498D01*
X478001D01*
X477501Y204998D01*
Y203999D01*
X478001Y203499D01*
X481000Y206498D02*
Y208497D01*
X478001Y211496D02*
X477501Y210997D01*
Y209997D01*
X478001Y209497D01*
X478501D01*
X479001Y209997D01*
Y210997D01*
X479500Y211496D01*
X480000D01*
X480500Y210997D01*
Y209997D01*
X480000Y209497D01*
X480500Y212496D02*
Y213496D01*
Y212996D01*
X477501D01*
X478001Y212496D01*
X433500Y220499D02*
Y218000D01*
X434000Y217500D01*
X435000D01*
X435499Y218000D01*
Y220499D01*
X436499Y217500D02*
X437499D01*
X436999D01*
Y220499D01*
X436499Y219999D01*
X438998Y217000D02*
X440998D01*
X443997Y219999D02*
X443497Y220499D01*
X442497D01*
X441997Y219999D01*
Y219499D01*
X442497Y219000D01*
X443497D01*
X443997Y218500D01*
Y218000D01*
X443497Y217500D01*
X442497D01*
X441997Y218000D01*
X444996Y217500D02*
X445996D01*
X445496D01*
Y220499D01*
X444996Y219999D01*
X423000Y210500D02*
X420001D01*
Y212000D01*
X420501Y212499D01*
X421500D01*
X422000Y212000D01*
Y210500D01*
Y211500D02*
X423000Y212499D01*
X420001Y215498D02*
Y213499D01*
X421500D01*
X421001Y214499D01*
Y214999D01*
X421500Y215498D01*
X422500D01*
X423000Y214999D01*
Y213999D01*
X422500Y213499D01*
X423500Y216498D02*
Y218497D01*
X420501Y221496D02*
X420001Y220997D01*
Y219997D01*
X420501Y219497D01*
X421001D01*
X421500Y219997D01*
Y220997D01*
X422000Y221496D01*
X422500D01*
X423000Y220997D01*
Y219997D01*
X422500Y219497D01*
X423000Y222496D02*
Y223496D01*
Y222996D01*
X420001D01*
X420501Y222496D01*
X423500Y174000D02*
X420501D01*
Y175499D01*
X421001Y175999D01*
X422001D01*
X422500Y175499D01*
Y174000D01*
Y175000D02*
X423500Y175999D01*
Y178499D02*
X420501D01*
X422001Y176999D01*
Y178998D01*
X424000Y179998D02*
Y181997D01*
X421001Y184996D02*
X420501Y184497D01*
Y183497D01*
X421001Y182997D01*
X421501D01*
X422001Y183497D01*
Y184497D01*
X422500Y184996D01*
X423000D01*
X423500Y184497D01*
Y183497D01*
X423000Y182997D01*
X423500Y185996D02*
Y186996D01*
Y186496D01*
X420501D01*
X421001Y185996D01*
X443500Y202500D02*
Y205499D01*
X445000D01*
X445499Y204999D01*
Y203999D01*
X445000Y203500D01*
X443500D01*
X444500D02*
X445499Y202500D01*
X446499Y204999D02*
X446999Y205499D01*
X447999D01*
X448498Y204999D01*
Y204499D01*
X447999Y203999D01*
X447499D01*
X447999D01*
X448498Y203500D01*
Y203000D01*
X447999Y202500D01*
X446999D01*
X446499Y203000D01*
X449498Y202000D02*
X451497D01*
X454496Y204999D02*
X453997Y205499D01*
X452997D01*
X452497Y204999D01*
Y204499D01*
X452997Y203999D01*
X453997D01*
X454496Y203500D01*
Y203000D01*
X453997Y202500D01*
X452997D01*
X452497Y203000D01*
X455496Y202500D02*
X456496D01*
X455996D01*
Y205499D01*
X455496Y204999D01*
X471728Y191500D02*
Y194499D01*
X473228D01*
X473728Y193999D01*
Y192999D01*
X473228Y192500D01*
X471728D01*
X472728D02*
X473728Y191500D01*
X476727D02*
X474727D01*
X476727Y193499D01*
Y193999D01*
X476227Y194499D01*
X475227D01*
X474727Y193999D01*
X477726Y191000D02*
X479726D01*
X482725Y193999D02*
X482225Y194499D01*
X481225D01*
X480725Y193999D01*
Y193499D01*
X481225Y192999D01*
X482225D01*
X482725Y192500D01*
Y192000D01*
X482225Y191500D01*
X481225D01*
X480725Y192000D01*
X483724Y191500D02*
X484724D01*
X484224D01*
Y194499D01*
X483724Y193999D01*
X430500Y186000D02*
Y188999D01*
X431999D01*
X432499Y188499D01*
Y187499D01*
X431999Y187000D01*
X430500D01*
X431500D02*
X432499Y186000D01*
X433499D02*
X434499D01*
X433999D01*
Y188999D01*
X433499Y188499D01*
X435998Y185500D02*
X437998D01*
X440997Y188499D02*
X440497Y188999D01*
X439497D01*
X438997Y188499D01*
Y187999D01*
X439497Y187499D01*
X440497D01*
X440997Y187000D01*
Y186500D01*
X440497Y186000D01*
X439497D01*
X438997Y186500D01*
X441996Y186000D02*
X442996D01*
X442496D01*
Y188999D01*
X441996Y188499D01*
X515011Y192306D02*
X513012D01*
Y190807D01*
X514011D01*
X513012D01*
Y189307D01*
X516011Y188807D02*
X518010D01*
X521009Y191806D02*
X520509Y192306D01*
X519510D01*
X519010Y191806D01*
Y191306D01*
X519510Y190807D01*
X520509D01*
X521009Y190307D01*
Y189807D01*
X520509Y189307D01*
X519510D01*
X519010Y189807D01*
X522009Y189307D02*
X523009D01*
X522509D01*
Y192306D01*
X522009Y191806D01*
X452001Y230999D02*
X451501Y230500D01*
Y229500D01*
X452001Y229000D01*
X454000D01*
X454500Y229500D01*
Y230500D01*
X454000Y230999D01*
X451501Y233998D02*
Y231999D01*
X453000D01*
X452501Y232999D01*
Y233499D01*
X453000Y233998D01*
X454000D01*
X454500Y233499D01*
Y232499D01*
X454000Y231999D01*
X455000Y234998D02*
Y236997D01*
X452001Y239996D02*
X451501Y239497D01*
Y238497D01*
X452001Y237997D01*
X452501D01*
X453000Y238497D01*
Y239497D01*
X453500Y239996D01*
X454000D01*
X454500Y239497D01*
Y238497D01*
X454000Y237997D01*
X454500Y240996D02*
Y241996D01*
Y241496D01*
X451501D01*
X452001Y240996D01*
X446501Y230999D02*
X446001Y230500D01*
Y229500D01*
X446501Y229000D01*
X448500D01*
X449000Y229500D01*
Y230500D01*
X448500Y230999D01*
X449000Y233499D02*
X446001D01*
X447501Y231999D01*
Y233998D01*
X449500Y234998D02*
Y236997D01*
X446501Y239996D02*
X446001Y239497D01*
Y238497D01*
X446501Y237997D01*
X447001D01*
X447501Y238497D01*
Y239497D01*
X448000Y239996D01*
X448500D01*
X449000Y239497D01*
Y238497D01*
X448500Y237997D01*
X449000Y240996D02*
Y241996D01*
Y241496D01*
X446001D01*
X446501Y240996D01*
X381000Y176000D02*
X378001D01*
Y177499D01*
X378501Y177999D01*
X379501D01*
X380000Y177499D01*
Y176000D01*
Y177000D02*
X381000Y177999D01*
X381500Y178999D02*
Y180998D01*
X378001Y181998D02*
X381000D01*
Y183997D01*
X378001Y186497D02*
Y185497D01*
X378501Y184997D01*
X380500D01*
X381000Y185497D01*
Y186497D01*
X380500Y186996D01*
X378501D01*
X378001Y186497D01*
X381500Y187996D02*
Y189996D01*
X381000Y190995D02*
X378001D01*
Y192495D01*
X378501Y192994D01*
X379501D01*
X380000Y192495D01*
Y190995D01*
X381000Y193994D02*
Y194994D01*
Y194494D01*
X378001D01*
X378501Y193994D01*
X381000Y144500D02*
X378001D01*
Y146000D01*
X378501Y146499D01*
X379501D01*
X380000Y146000D01*
Y144500D01*
Y145500D02*
X381000Y146499D01*
X381500Y147499D02*
Y149498D01*
X378001Y150498D02*
X381000D01*
X379501D01*
Y152497D01*
X378001D01*
X381000D01*
X378001Y154997D02*
Y153997D01*
X378501Y153497D01*
X380500D01*
X381000Y153997D01*
Y154997D01*
X380500Y155496D01*
X378501D01*
X378001Y154997D01*
X381500Y156496D02*
Y158495D01*
X381000Y159495D02*
X378001D01*
Y160995D01*
X378501Y161495D01*
X379501D01*
X380000Y160995D01*
Y159495D01*
X381000Y162494D02*
Y163494D01*
Y162994D01*
X378001D01*
X378501Y162494D01*
X328000Y159500D02*
X325001D01*
Y161000D01*
X325501Y161499D01*
X326501D01*
X327000Y161000D01*
Y159500D01*
Y160500D02*
X328000Y161499D01*
X328500Y162499D02*
Y164498D01*
X325001Y165498D02*
X328000D01*
Y166998D01*
X327500Y167497D01*
X327000D01*
X326501Y166998D01*
Y165498D01*
Y166998D01*
X326001Y167497D01*
X325501D01*
X325001Y166998D01*
Y165498D01*
Y169997D02*
Y168997D01*
X325501Y168497D01*
X327500D01*
X328000Y168997D01*
Y169997D01*
X327500Y170496D01*
X325501D01*
X325001Y169997D01*
Y172996D02*
Y171996D01*
X325501Y171496D01*
X327500D01*
X328000Y171996D01*
Y172996D01*
X327500Y173495D01*
X325501D01*
X325001Y172996D01*
Y174495D02*
Y176495D01*
Y175495D01*
X328000D01*
X328500Y177494D02*
Y179493D01*
X328000Y180493D02*
X325001D01*
Y181993D01*
X325501Y182493D01*
X326501D01*
X327000Y181993D01*
Y180493D01*
X328000Y183492D02*
Y184492D01*
Y183992D01*
X325001D01*
X325501Y183492D01*
X386500Y177999D02*
X384501D01*
X384001Y177499D01*
Y176500D01*
X384501Y176000D01*
X386500D01*
X387000Y176500D01*
Y177499D01*
X386000Y177000D02*
X387000Y177999D01*
Y177499D02*
X386500Y177999D01*
X387500Y178999D02*
Y180998D01*
X384001Y181998D02*
X387000D01*
Y183997D01*
X384001Y186497D02*
Y185497D01*
X384501Y184997D01*
X386500D01*
X387000Y185497D01*
Y186497D01*
X386500Y186996D01*
X384501D01*
X384001Y186497D01*
X387500Y187996D02*
Y189996D01*
X387000Y190995D02*
X384001D01*
Y192495D01*
X384501Y192994D01*
X385501D01*
X386000Y192495D01*
Y190995D01*
X387000Y193994D02*
Y194994D01*
Y194494D01*
X384001D01*
X384501Y193994D01*
X386500Y146499D02*
X384501D01*
X384001Y146000D01*
Y145000D01*
X384501Y144500D01*
X386500D01*
X387000Y145000D01*
Y146000D01*
X386000Y145500D02*
X387000Y146499D01*
Y146000D02*
X386500Y146499D01*
X387500Y147499D02*
Y149498D01*
X384001Y150498D02*
X387000D01*
X385501D01*
Y152497D01*
X384001D01*
X387000D01*
X384001Y154997D02*
Y153997D01*
X384501Y153497D01*
X386500D01*
X387000Y153997D01*
Y154997D01*
X386500Y155496D01*
X384501D01*
X384001Y154997D01*
X387500Y156496D02*
Y158495D01*
X387000Y159495D02*
X384001D01*
Y160995D01*
X384501Y161495D01*
X385501D01*
X386000Y160995D01*
Y159495D01*
X387000Y162494D02*
Y163494D01*
Y162994D01*
X384001D01*
X384501Y162494D01*
X338999Y175500D02*
Y177499D01*
X338499Y177999D01*
X337500D01*
X337000Y177499D01*
Y175500D01*
X337500Y175000D01*
X338499D01*
X338000Y176000D02*
X338999Y175000D01*
X338499D02*
X338999Y175500D01*
X339999Y175000D02*
X340999D01*
X340499D01*
Y177999D01*
X339999Y177499D01*
X342498Y174500D02*
X344498D01*
X345497Y175000D02*
Y177999D01*
X346997D01*
X347497Y177499D01*
Y176499D01*
X346997Y176000D01*
X345497D01*
X348496Y175000D02*
X349496D01*
X348996D01*
Y177999D01*
X348496Y177499D01*
X338000Y198999D02*
Y196000D01*
X339499D01*
X339999Y196500D01*
Y198499D01*
X339499Y198999D01*
X338000D01*
X340999Y195500D02*
X342998D01*
X343998Y198999D02*
Y196000D01*
X345498D01*
X345997Y196500D01*
Y197000D01*
X345498Y197500D01*
X343998D01*
X345498D01*
X345997Y197999D01*
Y198499D01*
X345498Y198999D01*
X343998D01*
X348497D02*
X347497D01*
X346997Y198499D01*
Y196500D01*
X347497Y196000D01*
X348497D01*
X348996Y196500D01*
Y198499D01*
X348497Y198999D01*
X351496D02*
X350496D01*
X349996Y198499D01*
Y196500D01*
X350496Y196000D01*
X351496D01*
X351995Y196500D01*
Y198499D01*
X351496Y198999D01*
X352995D02*
X354995D01*
X353995D01*
Y196000D01*
X355994Y195500D02*
X357994D01*
X358993Y196000D02*
Y198999D01*
X360493D01*
X360993Y198499D01*
Y197500D01*
X360493Y197000D01*
X358993D01*
X361992Y196000D02*
X362992D01*
X362492D01*
Y198999D01*
X361992Y198499D01*
X371501Y177499D02*
X371001Y176999D01*
Y176000D01*
X371501Y175500D01*
X373500D01*
X374000Y176000D01*
Y176999D01*
X373500Y177499D01*
X374500Y178499D02*
Y180498D01*
X371001Y181498D02*
X374000D01*
Y182998D01*
X373500Y183497D01*
X373000D01*
X372500Y182998D01*
Y181498D01*
Y182998D01*
X372001Y183497D01*
X371501D01*
X371001Y182998D01*
Y181498D01*
Y185997D02*
Y184997D01*
X371501Y184497D01*
X373500D01*
X374000Y184997D01*
Y185997D01*
X373500Y186496D01*
X371501D01*
X371001Y185997D01*
Y188996D02*
Y187996D01*
X371501Y187496D01*
X373500D01*
X374000Y187996D01*
Y188996D01*
X373500Y189496D01*
X371501D01*
X371001Y188996D01*
Y190495D02*
Y192494D01*
Y191495D01*
X374000D01*
X374500Y193494D02*
Y195493D01*
X374000Y196493D02*
X371001D01*
Y197993D01*
X371501Y198493D01*
X372500D01*
X373000Y197993D01*
Y196493D01*
X374000Y199492D02*
Y200492D01*
Y199992D01*
X371001D01*
X371501Y199492D01*
X397001Y120499D02*
X396501Y120000D01*
Y119000D01*
X397001Y118500D01*
X399000D01*
X399500Y119000D01*
Y120000D01*
X399000Y120499D01*
X397001Y121499D02*
X396501Y121999D01*
Y122999D01*
X397001Y123498D01*
X397501D01*
X398001Y122999D01*
Y122499D01*
Y122999D01*
X398500Y123498D01*
X399000D01*
X399500Y122999D01*
Y121999D01*
X399000Y121499D01*
X400000Y124498D02*
Y126497D01*
X399500Y127497D02*
X396501D01*
Y128997D01*
X397001Y129496D01*
X398001D01*
X398500Y128997D01*
Y127497D01*
X399500Y130496D02*
Y131496D01*
Y130996D01*
X396501D01*
X397001Y130496D01*
X353501Y141499D02*
X353001Y140999D01*
Y140000D01*
X353501Y139500D01*
X355500D01*
X356000Y140000D01*
Y140999D01*
X355500Y141499D01*
X356000Y144498D02*
Y142499D01*
X354001Y144498D01*
X353501D01*
X353001Y143999D01*
Y142999D01*
X353501Y142499D01*
X356500Y145498D02*
Y147497D01*
X356000Y148497D02*
X353001D01*
Y149997D01*
X353501Y150496D01*
X354501D01*
X355000Y149997D01*
Y148497D01*
X356000Y151496D02*
Y152496D01*
Y151996D01*
X353001D01*
X353501Y151496D01*
X369001Y142999D02*
X368501Y142499D01*
Y141500D01*
X369001Y141000D01*
X371000D01*
X371500Y141500D01*
Y142499D01*
X371000Y142999D01*
X371500Y143999D02*
Y144999D01*
Y144499D01*
X368501D01*
X369001Y143999D01*
X372000Y146498D02*
Y148498D01*
X371500Y149497D02*
X368501D01*
Y150997D01*
X369001Y151497D01*
X370001D01*
X370500Y150997D01*
Y149497D01*
X371500Y152496D02*
Y153496D01*
Y152996D01*
X368501D01*
X369001Y152496D01*
M02*
