G04*
G04 #@! TF.GenerationSoftware,Altium Limited,Altium Designer,19.1.7 (138)*
G04*
G04 Layer_Color=16711935*
%FSLAX25Y25*%
%MOIN*%
G70*
G01*
G75*
%ADD10C,0.01000*%
%ADD61C,0.00394*%
D10*
X100000Y100000D02*
X575000D01*
Y492500D01*
X100000D02*
X575000D01*
X100000Y100000D02*
Y492500D01*
D61*
X437409Y314799D02*
G03*
X437409Y314799I-1969J0D01*
G01*
Y417299D02*
G03*
X437409Y417299I-1969J0D01*
G01*
Y212299D02*
G03*
X437409Y212299I-1969J0D01*
G01*
X379153Y298630D02*
Y302370D01*
X385846Y298630D02*
Y302370D01*
X379153D02*
X385846D01*
X379153Y298630D02*
X385846D01*
X379153Y267130D02*
Y270870D01*
X385846Y267130D02*
Y270870D01*
X379153D02*
X385846D01*
X379153Y267130D02*
X385846D01*
X326654Y288630D02*
Y292370D01*
X333347Y288630D02*
Y292370D01*
X326654D02*
X333347D01*
X326654Y288630D02*
X333347D01*
X375543Y262307D02*
Y275693D01*
X368457Y262307D02*
Y275693D01*
X375543D01*
X368457Y262307D02*
X375543D01*
X357630Y252945D02*
X361370D01*
X357630Y246055D02*
X361370D01*
Y252945D01*
X357630Y246055D02*
Y252945D01*
X363630D02*
X367370D01*
X363630Y246055D02*
X367370D01*
Y252945D01*
X363630Y246055D02*
Y252945D01*
X367992Y241630D02*
X392008D01*
X367992Y220370D02*
X392008D01*
X367992D02*
Y241630D01*
X392008Y220370D02*
Y241630D01*
X431898Y298657D02*
Y318342D01*
X447646Y298657D02*
Y318342D01*
X431898D02*
X447646D01*
X431898Y298657D02*
X447646D01*
X420130Y304153D02*
Y310846D01*
X423870Y304153D02*
Y310846D01*
X420130Y304153D02*
X423870D01*
X420130Y310846D02*
X423870D01*
X420130Y291653D02*
Y298346D01*
X423870Y291653D02*
Y298346D01*
X420130Y291653D02*
X423870D01*
X420130Y298346D02*
X423870D01*
X457630Y300654D02*
Y307347D01*
X461370Y300654D02*
Y307347D01*
X457630Y300654D02*
X461370D01*
X457630Y307347D02*
X461370D01*
X462653Y296870D02*
X469347D01*
X462653Y293130D02*
X469347D01*
X462653D02*
Y296870D01*
X469347Y293130D02*
Y296870D01*
X460504Y290248D02*
X523496D01*
X460504Y263752D02*
X523496D01*
Y290248D01*
X460504Y263752D02*
Y290248D01*
X455370Y322555D02*
Y329445D01*
X451630Y322555D02*
Y329445D01*
X455370D01*
X451630Y322555D02*
X455370D01*
X449370D02*
Y329445D01*
X445630Y322555D02*
Y329445D01*
X449370D01*
X445630Y322555D02*
X449370D01*
X367992Y344130D02*
X392008D01*
X367992Y322870D02*
X392008D01*
X367992D02*
Y344130D01*
X392008Y322870D02*
Y344130D01*
X379153Y401130D02*
X385846D01*
X379153Y404870D02*
X385846D01*
Y401130D02*
Y404870D01*
X379153Y401130D02*
Y404870D01*
Y369630D02*
X385846D01*
X379153Y373370D02*
X385846D01*
Y369630D02*
Y373370D01*
X379153Y369630D02*
Y373370D01*
X326654Y391130D02*
X333347D01*
X326654Y394870D02*
X333347D01*
Y391130D02*
Y394870D01*
X326654Y391130D02*
Y394870D01*
X368457Y364807D02*
X375543D01*
X368457Y378193D02*
X375543D01*
X368457Y364807D02*
Y378193D01*
X375543Y364807D02*
Y378193D01*
X357630Y348555D02*
Y355445D01*
X361370Y348555D02*
Y355445D01*
X357630Y348555D02*
X361370D01*
X357630Y355445D02*
X361370D01*
X363630Y348555D02*
Y355445D01*
X367370Y348555D02*
Y355445D01*
X363630Y348555D02*
X367370D01*
X363630Y355445D02*
X367370D01*
X431898Y401158D02*
Y420843D01*
X447646Y401158D02*
Y420843D01*
X431898D02*
X447646D01*
X431898Y401158D02*
X447646D01*
X420130Y406653D02*
Y413346D01*
X423870Y406653D02*
Y413346D01*
X420130Y406653D02*
X423870D01*
X420130Y413346D02*
X423870D01*
X420130Y394153D02*
Y400846D01*
X423870Y394153D02*
Y400846D01*
X420130Y394153D02*
X423870D01*
X420130Y400846D02*
X423870D01*
X457630Y403154D02*
Y409846D01*
X461370Y403154D02*
Y409846D01*
X457630Y403154D02*
X461370D01*
X457630Y409846D02*
X461370D01*
X462653Y399370D02*
X469347D01*
X462653Y395630D02*
X469347D01*
X462653D02*
Y399370D01*
X469347Y395630D02*
Y399370D01*
X460504Y392748D02*
X523496D01*
X460504Y366252D02*
X523496D01*
Y392748D01*
X460504Y366252D02*
Y392748D01*
X455370Y425055D02*
Y431945D01*
X451630Y425055D02*
Y431945D01*
X455370D01*
X451630Y425055D02*
X455370D01*
X449370D02*
Y431945D01*
X445630Y425055D02*
Y431945D01*
X449370D01*
X445630Y425055D02*
X449370D01*
X445630Y220055D02*
X449370D01*
X445630Y226945D02*
X449370D01*
X445630Y220055D02*
Y226945D01*
X449370Y220055D02*
Y226945D01*
X451630Y220055D02*
X455370D01*
X451630Y226945D02*
X455370D01*
X451630Y220055D02*
Y226945D01*
X455370Y220055D02*
Y226945D01*
X469347Y190630D02*
Y194370D01*
X462653Y190630D02*
Y194370D01*
Y190630D02*
X469347D01*
X462653Y194370D02*
X469347D01*
X457630Y204847D02*
X461370D01*
X457630Y198153D02*
X461370D01*
Y204847D01*
X457630Y198153D02*
Y204847D01*
X460504Y161252D02*
Y187748D01*
X523496Y161252D02*
Y187748D01*
X460504Y161252D02*
X523496D01*
X460504Y187748D02*
X523496D01*
X431898Y196158D02*
X447646D01*
X431898Y215843D02*
X447646D01*
Y196158D02*
Y215843D01*
X431898Y196158D02*
Y215843D01*
X420130Y208347D02*
X423870D01*
X420130Y201654D02*
X423870D01*
Y208347D01*
X420130Y201654D02*
Y208347D01*
Y195846D02*
X423870D01*
X420130Y189154D02*
X423870D01*
Y195846D01*
X420130Y189154D02*
Y195846D01*
X392008Y117870D02*
Y139130D01*
X367992Y117870D02*
Y139130D01*
Y117870D02*
X392008D01*
X367992Y139130D02*
X392008D01*
X363630Y150445D02*
X367370D01*
X363630Y143555D02*
X367370D01*
Y150445D01*
X363630Y143555D02*
Y150445D01*
X357630D02*
X361370D01*
X357630Y143555D02*
X361370D01*
Y150445D01*
X357630Y143555D02*
Y150445D01*
X379153Y164630D02*
Y168370D01*
X385846Y164630D02*
Y168370D01*
X379153D02*
X385846D01*
X379153Y164630D02*
X385846D01*
X375543Y159807D02*
Y173193D01*
X368457Y159807D02*
Y173193D01*
X375543D01*
X368457Y159807D02*
X375543D01*
X379153Y196130D02*
Y199870D01*
X385846Y196130D02*
Y199870D01*
X379153D02*
X385846D01*
X379153Y196130D02*
X385846D01*
X326654Y186130D02*
Y189870D01*
X333347Y186130D02*
Y189870D01*
X326654D02*
X333347D01*
X326654Y186130D02*
X333347D01*
M02*
