G04*
G04 #@! TF.GenerationSoftware,Altium Limited,Altium Designer,19.1.7 (138)*
G04*
G04 Layer_Physical_Order=2*
G04 Layer_Color=16711680*
%FSLAX25Y25*%
%MOIN*%
G70*
G01*
G75*
%ADD14C,0.00600*%
%ADD50C,0.02000*%
%ADD51C,0.06000*%
%ADD52R,0.06000X0.06000*%
%ADD53R,0.06000X0.06000*%
%ADD54C,0.05906*%
%ADD55R,0.05906X0.05906*%
%ADD56C,0.08268*%
%ADD57R,0.08268X0.08268*%
%ADD58C,0.35000*%
%ADD59C,0.02400*%
%ADD60C,0.05000*%
G36*
X575000Y100000D02*
X100000D01*
Y492500D01*
X575000D01*
Y100000D01*
D02*
G37*
%LPC*%
G36*
X168000Y485534D02*
X166956Y485397D01*
X165983Y484994D01*
X165147Y484353D01*
X164506Y483517D01*
X164103Y482544D01*
X163965Y481500D01*
X164103Y480456D01*
X164506Y479483D01*
X165147Y478647D01*
X165983Y478006D01*
X166956Y477603D01*
X168000Y477465D01*
X169044Y477603D01*
X170017Y478006D01*
X170853Y478647D01*
X171494Y479483D01*
X171897Y480456D01*
X172035Y481500D01*
X171897Y482544D01*
X171494Y483517D01*
X170853Y484353D01*
X170017Y484994D01*
X169044Y485397D01*
X168000Y485534D01*
D02*
G37*
G36*
X138000D02*
X136956Y485397D01*
X135983Y484994D01*
X135147Y484353D01*
X134506Y483517D01*
X134103Y482544D01*
X133966Y481500D01*
X134103Y480456D01*
X134506Y479483D01*
X135147Y478647D01*
X135983Y478006D01*
X136956Y477603D01*
X138000Y477465D01*
X139044Y477603D01*
X140017Y478006D01*
X140853Y478647D01*
X141494Y479483D01*
X141897Y480456D01*
X142034Y481500D01*
X141897Y482544D01*
X141494Y483517D01*
X140853Y484353D01*
X140017Y484994D01*
X139044Y485397D01*
X138000Y485534D01*
D02*
G37*
G36*
X253000Y485035D02*
X251956Y484897D01*
X250983Y484494D01*
X250147Y483853D01*
X249506Y483017D01*
X249103Y482044D01*
X248966Y481000D01*
X249103Y479956D01*
X249506Y478983D01*
X250147Y478147D01*
X250983Y477506D01*
X251956Y477103D01*
X253000Y476966D01*
X254044Y477103D01*
X255017Y477506D01*
X255853Y478147D01*
X256494Y478983D01*
X256897Y479956D01*
X257034Y481000D01*
X256897Y482044D01*
X256494Y483017D01*
X255853Y483853D01*
X255017Y484494D01*
X254044Y484897D01*
X253000Y485035D01*
D02*
G37*
G36*
X183000D02*
X181956Y484897D01*
X180983Y484494D01*
X180147Y483853D01*
X179506Y483017D01*
X179103Y482044D01*
X178965Y481000D01*
X179103Y479956D01*
X179506Y478983D01*
X180147Y478147D01*
X180983Y477506D01*
X181956Y477103D01*
X183000Y476966D01*
X184044Y477103D01*
X185017Y477506D01*
X185853Y478147D01*
X186494Y478983D01*
X186897Y479956D01*
X187034Y481000D01*
X186897Y482044D01*
X186494Y483017D01*
X185853Y483853D01*
X185017Y484494D01*
X184044Y484897D01*
X183000Y485035D01*
D02*
G37*
G36*
X118000D02*
X116956Y484897D01*
X115983Y484494D01*
X115147Y483853D01*
X114506Y483017D01*
X114103Y482044D01*
X113965Y481000D01*
X114103Y479956D01*
X114506Y478983D01*
X115147Y478147D01*
X115983Y477506D01*
X116956Y477103D01*
X118000Y476966D01*
X119044Y477103D01*
X120017Y477506D01*
X120853Y478147D01*
X121494Y478983D01*
X121897Y479956D01*
X122035Y481000D01*
X121897Y482044D01*
X121494Y483017D01*
X120853Y483853D01*
X120017Y484494D01*
X119044Y484897D01*
X118000Y485035D01*
D02*
G37*
G36*
X243000Y484535D02*
X241956Y484397D01*
X240983Y483994D01*
X240147Y483353D01*
X239506Y482517D01*
X239103Y481544D01*
X238966Y480500D01*
X239103Y479456D01*
X239506Y478483D01*
X240147Y477647D01*
X240983Y477006D01*
X241956Y476603D01*
X243000Y476466D01*
X244044Y476603D01*
X245017Y477006D01*
X245853Y477647D01*
X246494Y478483D01*
X246897Y479456D01*
X247035Y480500D01*
X246897Y481544D01*
X246494Y482517D01*
X245853Y483353D01*
X245017Y483994D01*
X244044Y484397D01*
X243000Y484535D01*
D02*
G37*
G36*
X401500Y462000D02*
X393500D01*
Y454000D01*
X401500D01*
Y462000D01*
D02*
G37*
G36*
X548000Y485042D02*
X545449Y484875D01*
X542942Y484376D01*
X540522Y483554D01*
X538229Y482424D01*
X536104Y481004D01*
X534182Y479318D01*
X532496Y477396D01*
X531076Y475271D01*
X529946Y472978D01*
X529124Y470558D01*
X528625Y468051D01*
X528458Y465500D01*
X528625Y462949D01*
X529124Y460442D01*
X529946Y458022D01*
X531076Y455729D01*
X532496Y453604D01*
X534182Y451682D01*
X536104Y449996D01*
X538229Y448576D01*
X540522Y447446D01*
X542942Y446624D01*
X545449Y446125D01*
X548000Y445958D01*
X550551Y446125D01*
X553058Y446624D01*
X555478Y447446D01*
X557771Y448576D01*
X559896Y449996D01*
X561818Y451682D01*
X563504Y453604D01*
X564924Y455729D01*
X566054Y458022D01*
X566876Y460442D01*
X567375Y462949D01*
X567542Y465500D01*
X567375Y468051D01*
X566876Y470558D01*
X566054Y472978D01*
X564924Y475271D01*
X563504Y477396D01*
X561818Y479318D01*
X559896Y481004D01*
X557771Y482424D01*
X555478Y483554D01*
X553058Y484376D01*
X550551Y484875D01*
X548000Y485042D01*
D02*
G37*
G36*
X438000D02*
X435449Y484875D01*
X432942Y484376D01*
X430522Y483554D01*
X428229Y482424D01*
X426104Y481004D01*
X424182Y479318D01*
X422496Y477396D01*
X421076Y475271D01*
X419946Y472978D01*
X419124Y470558D01*
X418625Y468051D01*
X418458Y465500D01*
X418625Y462949D01*
X419124Y460442D01*
X419946Y458022D01*
X421076Y455729D01*
X422496Y453604D01*
X424182Y451682D01*
X426104Y449996D01*
X428229Y448576D01*
X430522Y447446D01*
X432942Y446624D01*
X435449Y446125D01*
X438000Y445958D01*
X440551Y446125D01*
X443058Y446624D01*
X445478Y447446D01*
X447771Y448576D01*
X449896Y449996D01*
X451818Y451682D01*
X453504Y453604D01*
X454924Y455729D01*
X456054Y458022D01*
X456876Y460442D01*
X457375Y462949D01*
X457542Y465500D01*
X457375Y468051D01*
X456876Y470558D01*
X456054Y472978D01*
X454924Y475271D01*
X453504Y477396D01*
X451818Y479318D01*
X449896Y481004D01*
X447771Y482424D01*
X445478Y483554D01*
X443058Y484376D01*
X440551Y484875D01*
X438000Y485042D01*
D02*
G37*
G36*
X492000Y484042D02*
X489449Y483875D01*
X486942Y483376D01*
X484522Y482554D01*
X482229Y481424D01*
X480104Y480004D01*
X478182Y478318D01*
X476496Y476396D01*
X475076Y474271D01*
X473946Y471978D01*
X473124Y469558D01*
X472625Y467051D01*
X472458Y464500D01*
X472625Y461949D01*
X473124Y459442D01*
X473946Y457022D01*
X475076Y454729D01*
X476496Y452604D01*
X478182Y450682D01*
X480104Y448996D01*
X482229Y447576D01*
X484522Y446446D01*
X486942Y445624D01*
X489449Y445125D01*
X492000Y444958D01*
X494551Y445125D01*
X497058Y445624D01*
X499478Y446446D01*
X501771Y447576D01*
X503896Y448996D01*
X505818Y450682D01*
X507504Y452604D01*
X508924Y454729D01*
X510054Y457022D01*
X510876Y459442D01*
X511375Y461949D01*
X511542Y464500D01*
X511375Y467051D01*
X510876Y469558D01*
X510054Y471978D01*
X508924Y474271D01*
X507504Y476396D01*
X505818Y478318D01*
X503896Y480004D01*
X501771Y481424D01*
X499478Y482554D01*
X497058Y483376D01*
X494551Y483875D01*
X492000Y484042D01*
D02*
G37*
G36*
X325000Y417728D02*
X324165Y417618D01*
X323386Y417295D01*
X322718Y416782D01*
X322205Y416114D01*
X322085Y415826D01*
X319915D01*
X319795Y416114D01*
X319282Y416782D01*
X318614Y417295D01*
X317835Y417618D01*
X317000Y417728D01*
X316165Y417618D01*
X315386Y417295D01*
X314718Y416782D01*
X314205Y416114D01*
X313882Y415335D01*
X313772Y414500D01*
X313882Y413665D01*
X314205Y412886D01*
X314693Y412250D01*
X314205Y411614D01*
X313882Y410835D01*
X313772Y410000D01*
X313882Y409165D01*
X314205Y408386D01*
X314718Y407718D01*
X315386Y407205D01*
X316165Y406882D01*
X317000Y406772D01*
X317835Y406882D01*
X318614Y407205D01*
X319282Y407718D01*
X319795Y408386D01*
X319915Y408674D01*
X322085D01*
X322205Y408386D01*
X322718Y407718D01*
X323386Y407205D01*
X324165Y406882D01*
X325000Y406772D01*
X325835Y406882D01*
X326614Y407205D01*
X327282Y407718D01*
X327795Y408386D01*
X328118Y409165D01*
X328228Y410000D01*
X328118Y410835D01*
X327795Y411614D01*
X327307Y412250D01*
X327795Y412886D01*
X328118Y413665D01*
X328228Y414500D01*
X328118Y415335D01*
X327795Y416114D01*
X327282Y416782D01*
X326614Y417295D01*
X325835Y417618D01*
X325000Y417728D01*
D02*
G37*
G36*
X293000Y419487D02*
X291968Y419351D01*
X291007Y418953D01*
X290181Y418319D01*
X289547Y417493D01*
X289149Y416532D01*
X289013Y415500D01*
X289149Y414468D01*
X289547Y413507D01*
X290181Y412681D01*
X291007Y412047D01*
X291968Y411649D01*
X293000Y411513D01*
X294032Y411649D01*
X294993Y412047D01*
X295819Y412681D01*
X296453Y413507D01*
X296851Y414468D01*
X296987Y415500D01*
X296851Y416532D01*
X296453Y417493D01*
X295819Y418319D01*
X294993Y418953D01*
X294032Y419351D01*
X293000Y419487D01*
D02*
G37*
G36*
X283000D02*
X281968Y419351D01*
X281007Y418953D01*
X280181Y418319D01*
X279547Y417493D01*
X279149Y416532D01*
X279013Y415500D01*
X279149Y414468D01*
X279547Y413507D01*
X280181Y412681D01*
X281007Y412047D01*
X281968Y411649D01*
X283000Y411513D01*
X284032Y411649D01*
X284993Y412047D01*
X285819Y412681D01*
X286453Y413507D01*
X286851Y414468D01*
X286987Y415500D01*
X286851Y416532D01*
X286453Y417493D01*
X285819Y418319D01*
X284993Y418953D01*
X284032Y419351D01*
X283000Y419487D01*
D02*
G37*
G36*
X273000D02*
X271968Y419351D01*
X271007Y418953D01*
X270181Y418319D01*
X269547Y417493D01*
X269149Y416532D01*
X269013Y415500D01*
X269149Y414468D01*
X269547Y413507D01*
X270181Y412681D01*
X271007Y412047D01*
X271968Y411649D01*
X273000Y411513D01*
X274032Y411649D01*
X274993Y412047D01*
X275819Y412681D01*
X276453Y413507D01*
X276851Y414468D01*
X276987Y415500D01*
X276851Y416532D01*
X276453Y417493D01*
X275819Y418319D01*
X274993Y418953D01*
X274032Y419351D01*
X273000Y419487D01*
D02*
G37*
G36*
X263000D02*
X261968Y419351D01*
X261007Y418953D01*
X260181Y418319D01*
X259547Y417493D01*
X259149Y416532D01*
X259013Y415500D01*
X259149Y414468D01*
X259547Y413507D01*
X260181Y412681D01*
X261007Y412047D01*
X261968Y411649D01*
X263000Y411513D01*
X264032Y411649D01*
X264993Y412047D01*
X265819Y412681D01*
X266453Y413507D01*
X266851Y414468D01*
X266987Y415500D01*
X266851Y416532D01*
X266453Y417493D01*
X265819Y418319D01*
X264993Y418953D01*
X264032Y419351D01*
X263000Y419487D01*
D02*
G37*
G36*
X253000D02*
X251968Y419351D01*
X251007Y418953D01*
X250181Y418319D01*
X249547Y417493D01*
X249149Y416532D01*
X249013Y415500D01*
X249149Y414468D01*
X249547Y413507D01*
X250181Y412681D01*
X251007Y412047D01*
X251968Y411649D01*
X253000Y411513D01*
X254032Y411649D01*
X254993Y412047D01*
X255819Y412681D01*
X256453Y413507D01*
X256851Y414468D01*
X256987Y415500D01*
X256851Y416532D01*
X256453Y417493D01*
X255819Y418319D01*
X254993Y418953D01*
X254032Y419351D01*
X253000Y419487D01*
D02*
G37*
G36*
X243000D02*
X241968Y419351D01*
X241007Y418953D01*
X240181Y418319D01*
X239547Y417493D01*
X239149Y416532D01*
X239013Y415500D01*
X239149Y414468D01*
X239547Y413507D01*
X240181Y412681D01*
X241007Y412047D01*
X241968Y411649D01*
X243000Y411513D01*
X244032Y411649D01*
X244993Y412047D01*
X245819Y412681D01*
X246453Y413507D01*
X246851Y414468D01*
X246987Y415500D01*
X246851Y416532D01*
X246453Y417493D01*
X245819Y418319D01*
X244993Y418953D01*
X244032Y419351D01*
X243000Y419487D01*
D02*
G37*
G36*
X233000D02*
X231968Y419351D01*
X231007Y418953D01*
X230181Y418319D01*
X229547Y417493D01*
X229149Y416532D01*
X229013Y415500D01*
X229149Y414468D01*
X229547Y413507D01*
X230181Y412681D01*
X231007Y412047D01*
X231968Y411649D01*
X233000Y411513D01*
X234032Y411649D01*
X234993Y412047D01*
X235819Y412681D01*
X236453Y413507D01*
X236851Y414468D01*
X236987Y415500D01*
X236851Y416532D01*
X236453Y417493D01*
X235819Y418319D01*
X234993Y418953D01*
X234032Y419351D01*
X233000Y419487D01*
D02*
G37*
G36*
X223000D02*
X221968Y419351D01*
X221007Y418953D01*
X220181Y418319D01*
X219547Y417493D01*
X219149Y416532D01*
X219013Y415500D01*
X219149Y414468D01*
X219547Y413507D01*
X220181Y412681D01*
X221007Y412047D01*
X221968Y411649D01*
X223000Y411513D01*
X224032Y411649D01*
X224993Y412047D01*
X225819Y412681D01*
X226453Y413507D01*
X226851Y414468D01*
X226987Y415500D01*
X226851Y416532D01*
X226453Y417493D01*
X225819Y418319D01*
X224993Y418953D01*
X224032Y419351D01*
X223000Y419487D01*
D02*
G37*
G36*
X213000D02*
X211968Y419351D01*
X211007Y418953D01*
X210181Y418319D01*
X209547Y417493D01*
X209149Y416532D01*
X209013Y415500D01*
X209149Y414468D01*
X209547Y413507D01*
X210181Y412681D01*
X211007Y412047D01*
X211968Y411649D01*
X213000Y411513D01*
X214032Y411649D01*
X214993Y412047D01*
X215819Y412681D01*
X216453Y413507D01*
X216851Y414468D01*
X216987Y415500D01*
X216851Y416532D01*
X216453Y417493D01*
X215819Y418319D01*
X214993Y418953D01*
X214032Y419351D01*
X213000Y419487D01*
D02*
G37*
G36*
X193000D02*
X191968Y419351D01*
X191007Y418953D01*
X190181Y418319D01*
X189547Y417493D01*
X189149Y416532D01*
X189013Y415500D01*
X189149Y414468D01*
X189547Y413507D01*
X190181Y412681D01*
X191007Y412047D01*
X191968Y411649D01*
X193000Y411513D01*
X194032Y411649D01*
X194993Y412047D01*
X195819Y412681D01*
X196453Y413507D01*
X196851Y414468D01*
X196987Y415500D01*
X196851Y416532D01*
X196453Y417493D01*
X195819Y418319D01*
X194993Y418953D01*
X194032Y419351D01*
X193000Y419487D01*
D02*
G37*
G36*
X183000D02*
X181968Y419351D01*
X181007Y418953D01*
X180181Y418319D01*
X179547Y417493D01*
X179149Y416532D01*
X179013Y415500D01*
X179149Y414468D01*
X179547Y413507D01*
X180181Y412681D01*
X181007Y412047D01*
X181968Y411649D01*
X183000Y411513D01*
X184032Y411649D01*
X184993Y412047D01*
X185819Y412681D01*
X186453Y413507D01*
X186851Y414468D01*
X186987Y415500D01*
X186851Y416532D01*
X186453Y417493D01*
X185819Y418319D01*
X184993Y418953D01*
X184032Y419351D01*
X183000Y419487D01*
D02*
G37*
G36*
X173000D02*
X171968Y419351D01*
X171007Y418953D01*
X170181Y418319D01*
X169547Y417493D01*
X169149Y416532D01*
X169013Y415500D01*
X169149Y414468D01*
X169547Y413507D01*
X170181Y412681D01*
X171007Y412047D01*
X171968Y411649D01*
X173000Y411513D01*
X174032Y411649D01*
X174993Y412047D01*
X175819Y412681D01*
X176453Y413507D01*
X176851Y414468D01*
X176987Y415500D01*
X176851Y416532D01*
X176453Y417493D01*
X175819Y418319D01*
X174993Y418953D01*
X174032Y419351D01*
X173000Y419487D01*
D02*
G37*
G36*
X163000D02*
X161968Y419351D01*
X161007Y418953D01*
X160181Y418319D01*
X159547Y417493D01*
X159149Y416532D01*
X159013Y415500D01*
X159149Y414468D01*
X159547Y413507D01*
X160181Y412681D01*
X161007Y412047D01*
X161968Y411649D01*
X163000Y411513D01*
X164032Y411649D01*
X164993Y412047D01*
X165819Y412681D01*
X166453Y413507D01*
X166851Y414468D01*
X166987Y415500D01*
X166851Y416532D01*
X166453Y417493D01*
X165819Y418319D01*
X164993Y418953D01*
X164032Y419351D01*
X163000Y419487D01*
D02*
G37*
G36*
X153000D02*
X151968Y419351D01*
X151007Y418953D01*
X150181Y418319D01*
X149547Y417493D01*
X149149Y416532D01*
X149013Y415500D01*
X149149Y414468D01*
X149547Y413507D01*
X150181Y412681D01*
X151007Y412047D01*
X151968Y411649D01*
X153000Y411513D01*
X154032Y411649D01*
X154993Y412047D01*
X155819Y412681D01*
X156453Y413507D01*
X156851Y414468D01*
X156987Y415500D01*
X156851Y416532D01*
X156453Y417493D01*
X155819Y418319D01*
X154993Y418953D01*
X154032Y419351D01*
X153000Y419487D01*
D02*
G37*
G36*
X143000D02*
X141968Y419351D01*
X141007Y418953D01*
X140181Y418319D01*
X139547Y417493D01*
X139149Y416532D01*
X139013Y415500D01*
X139149Y414468D01*
X139547Y413507D01*
X140181Y412681D01*
X141007Y412047D01*
X141968Y411649D01*
X143000Y411513D01*
X144032Y411649D01*
X144993Y412047D01*
X145819Y412681D01*
X146453Y413507D01*
X146851Y414468D01*
X146987Y415500D01*
X146851Y416532D01*
X146453Y417493D01*
X145819Y418319D01*
X144993Y418953D01*
X144032Y419351D01*
X143000Y419487D01*
D02*
G37*
G36*
X133000D02*
X131968Y419351D01*
X131007Y418953D01*
X130181Y418319D01*
X129547Y417493D01*
X129149Y416532D01*
X129013Y415500D01*
X129149Y414468D01*
X129547Y413507D01*
X130181Y412681D01*
X131007Y412047D01*
X131968Y411649D01*
X133000Y411513D01*
X134032Y411649D01*
X134993Y412047D01*
X135819Y412681D01*
X136453Y413507D01*
X136851Y414468D01*
X136987Y415500D01*
X136851Y416532D01*
X136453Y417493D01*
X135819Y418319D01*
X134993Y418953D01*
X134032Y419351D01*
X133000Y419487D01*
D02*
G37*
G36*
X123000D02*
X121968Y419351D01*
X121007Y418953D01*
X120181Y418319D01*
X119547Y417493D01*
X119149Y416532D01*
X119013Y415500D01*
X119149Y414468D01*
X119547Y413507D01*
X120181Y412681D01*
X121007Y412047D01*
X121968Y411649D01*
X123000Y411513D01*
X124032Y411649D01*
X124993Y412047D01*
X125819Y412681D01*
X126453Y413507D01*
X126851Y414468D01*
X126987Y415500D01*
X126851Y416532D01*
X126453Y417493D01*
X125819Y418319D01*
X124993Y418953D01*
X124032Y419351D01*
X123000Y419487D01*
D02*
G37*
G36*
X113000D02*
X111968Y419351D01*
X111007Y418953D01*
X110181Y418319D01*
X109547Y417493D01*
X109149Y416532D01*
X109013Y415500D01*
X109149Y414468D01*
X109547Y413507D01*
X110181Y412681D01*
X111007Y412047D01*
X111968Y411649D01*
X113000Y411513D01*
X114032Y411649D01*
X114993Y412047D01*
X115819Y412681D01*
X116453Y413507D01*
X116851Y414468D01*
X116987Y415500D01*
X116851Y416532D01*
X116453Y417493D01*
X115819Y418319D01*
X114993Y418953D01*
X114032Y419351D01*
X113000Y419487D01*
D02*
G37*
G36*
X116953Y409453D02*
X109047D01*
Y401547D01*
X116953D01*
Y409453D01*
D02*
G37*
G36*
X293000Y409487D02*
X291968Y409351D01*
X291007Y408953D01*
X290181Y408319D01*
X289547Y407493D01*
X289149Y406532D01*
X289013Y405500D01*
X289149Y404468D01*
X289547Y403507D01*
X290181Y402681D01*
X291007Y402047D01*
X291968Y401649D01*
X293000Y401513D01*
X294032Y401649D01*
X294993Y402047D01*
X295819Y402681D01*
X296453Y403507D01*
X296851Y404468D01*
X296987Y405500D01*
X296851Y406532D01*
X296453Y407493D01*
X295819Y408319D01*
X294993Y408953D01*
X294032Y409351D01*
X293000Y409487D01*
D02*
G37*
G36*
X283000D02*
X281968Y409351D01*
X281007Y408953D01*
X280181Y408319D01*
X279547Y407493D01*
X279149Y406532D01*
X279013Y405500D01*
X279149Y404468D01*
X279547Y403507D01*
X280181Y402681D01*
X281007Y402047D01*
X281968Y401649D01*
X283000Y401513D01*
X284032Y401649D01*
X284993Y402047D01*
X285819Y402681D01*
X286453Y403507D01*
X286851Y404468D01*
X286987Y405500D01*
X286851Y406532D01*
X286453Y407493D01*
X285819Y408319D01*
X284993Y408953D01*
X284032Y409351D01*
X283000Y409487D01*
D02*
G37*
G36*
X273000D02*
X271968Y409351D01*
X271007Y408953D01*
X270181Y408319D01*
X269547Y407493D01*
X269149Y406532D01*
X269013Y405500D01*
X269149Y404468D01*
X269547Y403507D01*
X270181Y402681D01*
X271007Y402047D01*
X271968Y401649D01*
X273000Y401513D01*
X274032Y401649D01*
X274993Y402047D01*
X275819Y402681D01*
X276453Y403507D01*
X276851Y404468D01*
X276987Y405500D01*
X276851Y406532D01*
X276453Y407493D01*
X275819Y408319D01*
X274993Y408953D01*
X274032Y409351D01*
X273000Y409487D01*
D02*
G37*
G36*
X263000D02*
X261968Y409351D01*
X261007Y408953D01*
X260181Y408319D01*
X259547Y407493D01*
X259149Y406532D01*
X259013Y405500D01*
X259149Y404468D01*
X259547Y403507D01*
X260181Y402681D01*
X261007Y402047D01*
X261968Y401649D01*
X263000Y401513D01*
X264032Y401649D01*
X264993Y402047D01*
X265819Y402681D01*
X266453Y403507D01*
X266851Y404468D01*
X266987Y405500D01*
X266851Y406532D01*
X266453Y407493D01*
X265819Y408319D01*
X264993Y408953D01*
X264032Y409351D01*
X263000Y409487D01*
D02*
G37*
G36*
X253000D02*
X251968Y409351D01*
X251007Y408953D01*
X250181Y408319D01*
X249547Y407493D01*
X249149Y406532D01*
X249013Y405500D01*
X249149Y404468D01*
X249547Y403507D01*
X250181Y402681D01*
X251007Y402047D01*
X251968Y401649D01*
X253000Y401513D01*
X254032Y401649D01*
X254993Y402047D01*
X255819Y402681D01*
X256453Y403507D01*
X256851Y404468D01*
X256987Y405500D01*
X256851Y406532D01*
X256453Y407493D01*
X255819Y408319D01*
X254993Y408953D01*
X254032Y409351D01*
X253000Y409487D01*
D02*
G37*
G36*
X243000D02*
X241968Y409351D01*
X241007Y408953D01*
X240181Y408319D01*
X239547Y407493D01*
X239149Y406532D01*
X239013Y405500D01*
X239149Y404468D01*
X239547Y403507D01*
X240181Y402681D01*
X241007Y402047D01*
X241968Y401649D01*
X243000Y401513D01*
X244032Y401649D01*
X244993Y402047D01*
X245819Y402681D01*
X246453Y403507D01*
X246851Y404468D01*
X246987Y405500D01*
X246851Y406532D01*
X246453Y407493D01*
X245819Y408319D01*
X244993Y408953D01*
X244032Y409351D01*
X243000Y409487D01*
D02*
G37*
G36*
X233000D02*
X231968Y409351D01*
X231007Y408953D01*
X230181Y408319D01*
X229547Y407493D01*
X229149Y406532D01*
X229013Y405500D01*
X229149Y404468D01*
X229547Y403507D01*
X230181Y402681D01*
X231007Y402047D01*
X231968Y401649D01*
X233000Y401513D01*
X234032Y401649D01*
X234993Y402047D01*
X235819Y402681D01*
X236453Y403507D01*
X236851Y404468D01*
X236987Y405500D01*
X236851Y406532D01*
X236453Y407493D01*
X235819Y408319D01*
X234993Y408953D01*
X234032Y409351D01*
X233000Y409487D01*
D02*
G37*
G36*
X223000D02*
X221968Y409351D01*
X221007Y408953D01*
X220181Y408319D01*
X219547Y407493D01*
X219149Y406532D01*
X219013Y405500D01*
X219149Y404468D01*
X219547Y403507D01*
X220181Y402681D01*
X221007Y402047D01*
X221968Y401649D01*
X223000Y401513D01*
X224032Y401649D01*
X224993Y402047D01*
X225819Y402681D01*
X226453Y403507D01*
X226851Y404468D01*
X226987Y405500D01*
X226851Y406532D01*
X226453Y407493D01*
X225819Y408319D01*
X224993Y408953D01*
X224032Y409351D01*
X223000Y409487D01*
D02*
G37*
G36*
X213000D02*
X211968Y409351D01*
X211007Y408953D01*
X210181Y408319D01*
X209547Y407493D01*
X209149Y406532D01*
X209013Y405500D01*
X209149Y404468D01*
X209547Y403507D01*
X210181Y402681D01*
X211007Y402047D01*
X211968Y401649D01*
X213000Y401513D01*
X214032Y401649D01*
X214993Y402047D01*
X215819Y402681D01*
X216453Y403507D01*
X216851Y404468D01*
X216987Y405500D01*
X216851Y406532D01*
X216453Y407493D01*
X215819Y408319D01*
X214993Y408953D01*
X214032Y409351D01*
X213000Y409487D01*
D02*
G37*
G36*
X203000D02*
X201968Y409351D01*
X201007Y408953D01*
X200181Y408319D01*
X199547Y407493D01*
X199149Y406532D01*
X199013Y405500D01*
X199149Y404468D01*
X199547Y403507D01*
X200181Y402681D01*
X201007Y402047D01*
X201968Y401649D01*
X203000Y401513D01*
X204032Y401649D01*
X204993Y402047D01*
X205819Y402681D01*
X206453Y403507D01*
X206851Y404468D01*
X206987Y405500D01*
X206851Y406532D01*
X206453Y407493D01*
X205819Y408319D01*
X204993Y408953D01*
X204032Y409351D01*
X203000Y409487D01*
D02*
G37*
G36*
X193000D02*
X191968Y409351D01*
X191007Y408953D01*
X190181Y408319D01*
X189547Y407493D01*
X189149Y406532D01*
X189013Y405500D01*
X189149Y404468D01*
X189547Y403507D01*
X190181Y402681D01*
X191007Y402047D01*
X191968Y401649D01*
X193000Y401513D01*
X194032Y401649D01*
X194993Y402047D01*
X195819Y402681D01*
X196453Y403507D01*
X196851Y404468D01*
X196987Y405500D01*
X196851Y406532D01*
X196453Y407493D01*
X195819Y408319D01*
X194993Y408953D01*
X194032Y409351D01*
X193000Y409487D01*
D02*
G37*
G36*
X183000D02*
X181968Y409351D01*
X181007Y408953D01*
X180181Y408319D01*
X179547Y407493D01*
X179149Y406532D01*
X179013Y405500D01*
X179149Y404468D01*
X179547Y403507D01*
X180181Y402681D01*
X181007Y402047D01*
X181968Y401649D01*
X183000Y401513D01*
X184032Y401649D01*
X184993Y402047D01*
X185819Y402681D01*
X186453Y403507D01*
X186851Y404468D01*
X186987Y405500D01*
X186851Y406532D01*
X186453Y407493D01*
X185819Y408319D01*
X184993Y408953D01*
X184032Y409351D01*
X183000Y409487D01*
D02*
G37*
G36*
X173000D02*
X171968Y409351D01*
X171007Y408953D01*
X170181Y408319D01*
X169547Y407493D01*
X169149Y406532D01*
X169013Y405500D01*
X169149Y404468D01*
X169547Y403507D01*
X170181Y402681D01*
X171007Y402047D01*
X171968Y401649D01*
X173000Y401513D01*
X174032Y401649D01*
X174993Y402047D01*
X175819Y402681D01*
X176453Y403507D01*
X176851Y404468D01*
X176987Y405500D01*
X176851Y406532D01*
X176453Y407493D01*
X175819Y408319D01*
X174993Y408953D01*
X174032Y409351D01*
X173000Y409487D01*
D02*
G37*
G36*
X163000D02*
X161968Y409351D01*
X161007Y408953D01*
X160181Y408319D01*
X159547Y407493D01*
X159149Y406532D01*
X159013Y405500D01*
X159149Y404468D01*
X159547Y403507D01*
X160181Y402681D01*
X161007Y402047D01*
X161968Y401649D01*
X163000Y401513D01*
X164032Y401649D01*
X164993Y402047D01*
X165819Y402681D01*
X166453Y403507D01*
X166851Y404468D01*
X166987Y405500D01*
X166851Y406532D01*
X166453Y407493D01*
X165819Y408319D01*
X164993Y408953D01*
X164032Y409351D01*
X163000Y409487D01*
D02*
G37*
G36*
X153000D02*
X151968Y409351D01*
X151007Y408953D01*
X150181Y408319D01*
X149547Y407493D01*
X149149Y406532D01*
X149013Y405500D01*
X149149Y404468D01*
X149547Y403507D01*
X150181Y402681D01*
X151007Y402047D01*
X151968Y401649D01*
X153000Y401513D01*
X154032Y401649D01*
X154993Y402047D01*
X155819Y402681D01*
X156453Y403507D01*
X156851Y404468D01*
X156987Y405500D01*
X156851Y406532D01*
X156453Y407493D01*
X155819Y408319D01*
X154993Y408953D01*
X154032Y409351D01*
X153000Y409487D01*
D02*
G37*
G36*
X143000D02*
X141968Y409351D01*
X141007Y408953D01*
X140181Y408319D01*
X139547Y407493D01*
X139149Y406532D01*
X139013Y405500D01*
X139149Y404468D01*
X139547Y403507D01*
X140181Y402681D01*
X141007Y402047D01*
X141968Y401649D01*
X143000Y401513D01*
X144032Y401649D01*
X144993Y402047D01*
X145819Y402681D01*
X146453Y403507D01*
X146851Y404468D01*
X146987Y405500D01*
X146851Y406532D01*
X146453Y407493D01*
X145819Y408319D01*
X144993Y408953D01*
X144032Y409351D01*
X143000Y409487D01*
D02*
G37*
G36*
X133000D02*
X131968Y409351D01*
X131007Y408953D01*
X130181Y408319D01*
X129547Y407493D01*
X129149Y406532D01*
X129013Y405500D01*
X129149Y404468D01*
X129547Y403507D01*
X130181Y402681D01*
X131007Y402047D01*
X131968Y401649D01*
X133000Y401513D01*
X134032Y401649D01*
X134993Y402047D01*
X135819Y402681D01*
X136453Y403507D01*
X136851Y404468D01*
X136987Y405500D01*
X136851Y406532D01*
X136453Y407493D01*
X135819Y408319D01*
X134993Y408953D01*
X134032Y409351D01*
X133000Y409487D01*
D02*
G37*
G36*
X123000D02*
X121968Y409351D01*
X121007Y408953D01*
X120181Y408319D01*
X119547Y407493D01*
X119149Y406532D01*
X119013Y405500D01*
X119149Y404468D01*
X119547Y403507D01*
X120181Y402681D01*
X121007Y402047D01*
X121968Y401649D01*
X123000Y401513D01*
X124032Y401649D01*
X124993Y402047D01*
X125819Y402681D01*
X126453Y403507D01*
X126851Y404468D01*
X126987Y405500D01*
X126851Y406532D01*
X126453Y407493D01*
X125819Y408319D01*
X124993Y408953D01*
X124032Y409351D01*
X123000Y409487D01*
D02*
G37*
G36*
X477646Y391327D02*
X467378D01*
Y381059D01*
X477646D01*
Y391327D01*
D02*
G37*
G36*
X511488Y391371D02*
X510148Y391195D01*
X508899Y390677D01*
X507827Y389854D01*
X507004Y388782D01*
X506487Y387533D01*
X506310Y386193D01*
X506487Y384853D01*
X507004Y383604D01*
X507827Y382531D01*
X508899Y381709D01*
X510148Y381191D01*
X511488Y381015D01*
X512828Y381191D01*
X514077Y381709D01*
X515150Y382531D01*
X515973Y383604D01*
X516490Y384853D01*
X516666Y386193D01*
X516490Y387533D01*
X515973Y388782D01*
X515150Y389854D01*
X514077Y390677D01*
X512828Y391195D01*
X511488Y391371D01*
D02*
G37*
G36*
X331500Y379728D02*
X330665Y379618D01*
X329886Y379295D01*
X329218Y378782D01*
X328705Y378114D01*
X328585Y377825D01*
X320415D01*
X320295Y378114D01*
X319782Y378782D01*
X319114Y379295D01*
X318335Y379618D01*
X317500Y379728D01*
X316665Y379618D01*
X315886Y379295D01*
X315218Y378782D01*
X314705Y378114D01*
X314382Y377335D01*
X314272Y376500D01*
X314382Y375665D01*
X314705Y374886D01*
X315124Y374340D01*
X315181Y374000D01*
X315124Y373660D01*
X314705Y373114D01*
X314382Y372335D01*
X314272Y371500D01*
X314382Y370665D01*
X314705Y369886D01*
X315218Y369218D01*
X315886Y368705D01*
X316665Y368382D01*
X317500Y368272D01*
X318335Y368382D01*
X319114Y368705D01*
X319782Y369218D01*
X320295Y369886D01*
X320415Y370175D01*
X328585D01*
X328705Y369886D01*
X329218Y369218D01*
X329886Y368705D01*
X330665Y368382D01*
X331500Y368272D01*
X332335Y368382D01*
X333114Y368705D01*
X333782Y369218D01*
X334295Y369886D01*
X334618Y370665D01*
X334728Y371500D01*
X334618Y372335D01*
X334295Y373114D01*
X333876Y373660D01*
X333819Y374000D01*
X333876Y374340D01*
X334295Y374886D01*
X334618Y375665D01*
X334728Y376500D01*
X334618Y377335D01*
X334295Y378114D01*
X333782Y378782D01*
X333114Y379295D01*
X332335Y379618D01*
X331500Y379728D01*
D02*
G37*
G36*
X511488Y377985D02*
X510148Y377809D01*
X508899Y377291D01*
X507827Y376469D01*
X507004Y375396D01*
X506487Y374147D01*
X506310Y372807D01*
X506487Y371467D01*
X507004Y370218D01*
X507827Y369146D01*
X508899Y368323D01*
X510148Y367805D01*
X511488Y367629D01*
X512828Y367805D01*
X514077Y368323D01*
X515150Y369146D01*
X515973Y370218D01*
X516490Y371467D01*
X516666Y372807D01*
X516490Y374147D01*
X515973Y375396D01*
X515150Y376469D01*
X514077Y377291D01*
X512828Y377809D01*
X511488Y377985D01*
D02*
G37*
G36*
X472512D02*
X471172Y377809D01*
X469923Y377291D01*
X468850Y376469D01*
X468027Y375396D01*
X467510Y374147D01*
X467334Y372807D01*
X467510Y371467D01*
X468027Y370218D01*
X468850Y369146D01*
X469923Y368323D01*
X471172Y367805D01*
X472512Y367629D01*
X473852Y367805D01*
X475101Y368323D01*
X476173Y369146D01*
X476996Y370218D01*
X477514Y371467D01*
X477690Y372807D01*
X477514Y374147D01*
X476996Y375396D01*
X476173Y376469D01*
X475101Y377291D01*
X473852Y377809D01*
X472512Y377985D01*
D02*
G37*
G36*
X293000Y382728D02*
X292165Y382618D01*
X291386Y382295D01*
X290718Y381782D01*
X290205Y381114D01*
X289882Y380335D01*
X289772Y379500D01*
X289882Y378665D01*
X290205Y377886D01*
X290718Y377218D01*
X291386Y376705D01*
X291674Y376585D01*
Y371415D01*
X291386Y371295D01*
X290718Y370782D01*
X290205Y370114D01*
X289882Y369335D01*
X289772Y368500D01*
X289882Y367665D01*
X290205Y366886D01*
X290718Y366218D01*
X291386Y365705D01*
X292165Y365382D01*
X293000Y365272D01*
X293835Y365382D01*
X294614Y365705D01*
X295282Y366218D01*
X295795Y366886D01*
X296118Y367665D01*
X296228Y368500D01*
X296118Y369335D01*
X295795Y370114D01*
X295282Y370782D01*
X294614Y371295D01*
X294325Y371415D01*
Y376585D01*
X294614Y376705D01*
X295282Y377218D01*
X295795Y377886D01*
X296118Y378665D01*
X296228Y379500D01*
X296118Y380335D01*
X295795Y381114D01*
X295282Y381782D01*
X294614Y382295D01*
X293835Y382618D01*
X293000Y382728D01*
D02*
G37*
G36*
X273000D02*
X272165Y382618D01*
X271386Y382295D01*
X270718Y381782D01*
X270205Y381114D01*
X269882Y380335D01*
X269772Y379500D01*
X269882Y378665D01*
X270205Y377886D01*
X270718Y377218D01*
X271386Y376705D01*
X271674Y376585D01*
Y371415D01*
X271386Y371295D01*
X270718Y370782D01*
X270205Y370114D01*
X269882Y369335D01*
X269772Y368500D01*
X269882Y367665D01*
X270205Y366886D01*
X270718Y366218D01*
X271386Y365705D01*
X272165Y365382D01*
X273000Y365272D01*
X273835Y365382D01*
X274614Y365705D01*
X275282Y366218D01*
X275795Y366886D01*
X276118Y367665D01*
X276228Y368500D01*
X276118Y369335D01*
X275795Y370114D01*
X275282Y370782D01*
X274614Y371295D01*
X274325Y371415D01*
Y376585D01*
X274614Y376705D01*
X275282Y377218D01*
X275795Y377886D01*
X276118Y378665D01*
X276228Y379500D01*
X276118Y380335D01*
X275795Y381114D01*
X275282Y381782D01*
X274614Y382295D01*
X273835Y382618D01*
X273000Y382728D01*
D02*
G37*
G36*
X248000Y377728D02*
X247165Y377618D01*
X246386Y377295D01*
X245718Y376782D01*
X245205Y376114D01*
X244882Y375335D01*
X244772Y374500D01*
X244882Y373665D01*
X245205Y372886D01*
X245718Y372218D01*
X246275Y371790D01*
X246320Y371590D01*
Y371410D01*
X246275Y371210D01*
X245718Y370782D01*
X245205Y370114D01*
X244882Y369335D01*
X244772Y368500D01*
X244882Y367665D01*
X245205Y366886D01*
X245718Y366218D01*
X246386Y365705D01*
X247165Y365382D01*
X248000Y365272D01*
X248835Y365382D01*
X249614Y365705D01*
X250282Y366218D01*
X250795Y366886D01*
X251118Y367665D01*
X251228Y368500D01*
X251118Y369335D01*
X250795Y370114D01*
X250282Y370782D01*
X249725Y371210D01*
X249680Y371410D01*
Y371590D01*
X249725Y371790D01*
X250282Y372218D01*
X250795Y372886D01*
X251118Y373665D01*
X251228Y374500D01*
X251118Y375335D01*
X250795Y376114D01*
X250282Y376782D01*
X249614Y377295D01*
X248835Y377618D01*
X248000Y377728D01*
D02*
G37*
G36*
X546000Y399542D02*
X543449Y399375D01*
X540942Y398876D01*
X538522Y398054D01*
X536229Y396924D01*
X534104Y395504D01*
X532182Y393818D01*
X530496Y391896D01*
X529076Y389771D01*
X527946Y387478D01*
X527124Y385058D01*
X526625Y382551D01*
X526458Y380000D01*
X526625Y377449D01*
X527124Y374942D01*
X527946Y372522D01*
X529076Y370229D01*
X530496Y368104D01*
X532182Y366182D01*
X534104Y364496D01*
X536229Y363076D01*
X538522Y361946D01*
X540942Y361124D01*
X543449Y360625D01*
X546000Y360458D01*
X548551Y360625D01*
X551058Y361124D01*
X553478Y361946D01*
X555771Y363076D01*
X557896Y364496D01*
X559818Y366182D01*
X561504Y368104D01*
X562924Y370229D01*
X564054Y372522D01*
X564876Y374942D01*
X565375Y377449D01*
X565542Y380000D01*
X565375Y382551D01*
X564876Y385058D01*
X564054Y387478D01*
X562924Y389771D01*
X561504Y391896D01*
X559818Y393818D01*
X557896Y395504D01*
X555771Y396924D01*
X553478Y398054D01*
X551058Y398876D01*
X548551Y399375D01*
X546000Y399542D01*
D02*
G37*
G36*
X333000Y324539D02*
X331825Y324384D01*
X330731Y323931D01*
X329791Y323209D01*
X329069Y322269D01*
X328974Y322039D01*
X325026D01*
X324931Y322269D01*
X324209Y323209D01*
X323269Y323931D01*
X322175Y324384D01*
X321000Y324539D01*
X319825Y324384D01*
X318731Y323931D01*
X317791Y323209D01*
X317069Y322269D01*
X316616Y321175D01*
X316461Y320000D01*
X316616Y318825D01*
X317069Y317731D01*
X317791Y316791D01*
X318731Y316069D01*
X319825Y315616D01*
X321000Y315461D01*
X322175Y315616D01*
X323269Y316069D01*
X324209Y316791D01*
X324931Y317731D01*
X325026Y317961D01*
X328974D01*
X329069Y317731D01*
X329791Y316791D01*
X330731Y316069D01*
X331566Y315723D01*
X331500Y315228D01*
X330665Y315118D01*
X329886Y314795D01*
X329218Y314282D01*
X328705Y313614D01*
X328585Y313326D01*
X319915D01*
X319795Y313614D01*
X319282Y314282D01*
X318614Y314795D01*
X317835Y315118D01*
X317000Y315228D01*
X316165Y315118D01*
X315386Y314795D01*
X314718Y314282D01*
X314205Y313614D01*
X313882Y312835D01*
X313772Y312000D01*
X313882Y311165D01*
X314205Y310386D01*
X314693Y309750D01*
X314205Y309114D01*
X313882Y308335D01*
X313772Y307500D01*
X313882Y306665D01*
X314205Y305886D01*
X314718Y305218D01*
X315386Y304705D01*
X316165Y304382D01*
X317000Y304272D01*
X317835Y304382D01*
X318614Y304705D01*
X319282Y305218D01*
X319795Y305886D01*
X319915Y306174D01*
X328585D01*
X328705Y305886D01*
X329218Y305218D01*
X329886Y304705D01*
X330665Y304382D01*
X331500Y304272D01*
X332335Y304382D01*
X333114Y304705D01*
X333782Y305218D01*
X334295Y305886D01*
X334618Y306665D01*
X334728Y307500D01*
X334618Y308335D01*
X334295Y309114D01*
X333807Y309750D01*
X334295Y310386D01*
X334618Y311165D01*
X334728Y312000D01*
X334618Y312835D01*
X334295Y313614D01*
X333782Y314282D01*
X333114Y314795D01*
X332595Y315010D01*
X332725Y315497D01*
X333000Y315461D01*
X334175Y315616D01*
X335269Y316069D01*
X336209Y316791D01*
X336931Y317731D01*
X337384Y318825D01*
X337539Y320000D01*
X337384Y321175D01*
X336931Y322269D01*
X336209Y323209D01*
X335269Y323931D01*
X334175Y324384D01*
X333000Y324539D01*
D02*
G37*
G36*
X290000Y309228D02*
X289165Y309118D01*
X288386Y308795D01*
X287718Y308282D01*
X287205Y307614D01*
X286882Y306835D01*
X286772Y306000D01*
X286882Y305165D01*
X287075Y304699D01*
X286447Y304071D01*
X286335Y304118D01*
X285500Y304228D01*
X284665Y304118D01*
X283886Y303795D01*
X283218Y303282D01*
X282705Y302614D01*
X282382Y301835D01*
X282272Y301000D01*
X282382Y300165D01*
X282705Y299386D01*
X283218Y298718D01*
X283886Y298205D01*
X284665Y297882D01*
X285500Y297772D01*
X286335Y297882D01*
X287114Y298205D01*
X287782Y298718D01*
X288295Y299386D01*
X288618Y300165D01*
X288728Y301000D01*
X288618Y301835D01*
X288425Y302301D01*
X289053Y302929D01*
X289165Y302882D01*
X290000Y302772D01*
X290835Y302882D01*
X291614Y303205D01*
X292282Y303718D01*
X292795Y304386D01*
X293118Y305165D01*
X293228Y306000D01*
X293118Y306835D01*
X292795Y307614D01*
X292282Y308282D01*
X291614Y308795D01*
X290835Y309118D01*
X290000Y309228D01*
D02*
G37*
G36*
X296000Y298728D02*
X295165Y298618D01*
X294386Y298295D01*
X293718Y297782D01*
X293205Y297114D01*
X292882Y296335D01*
X292772Y295500D01*
X292882Y294665D01*
X293205Y293886D01*
X293718Y293218D01*
X294386Y292705D01*
X295165Y292382D01*
X296000Y292272D01*
X296835Y292382D01*
X297124Y292502D01*
X300002Y289624D01*
X299882Y289335D01*
X299772Y288500D01*
X299882Y287665D01*
X300205Y286886D01*
X300718Y286218D01*
X301386Y285705D01*
X302165Y285382D01*
X303000Y285272D01*
X303835Y285382D01*
X304614Y285705D01*
X305282Y286218D01*
X305795Y286886D01*
X306118Y287665D01*
X306228Y288500D01*
X306118Y289335D01*
X305795Y290114D01*
X305282Y290782D01*
X304614Y291295D01*
X303835Y291618D01*
X303000Y291728D01*
X302165Y291618D01*
X301876Y291498D01*
X298998Y294376D01*
X299118Y294665D01*
X299228Y295500D01*
X299118Y296335D01*
X298795Y297114D01*
X298282Y297782D01*
X297614Y298295D01*
X296835Y298618D01*
X296000Y298728D01*
D02*
G37*
G36*
X477646Y288827D02*
X467378D01*
Y278559D01*
X477646D01*
Y288827D01*
D02*
G37*
G36*
X511488Y288871D02*
X510148Y288695D01*
X508899Y288177D01*
X507827Y287354D01*
X507004Y286282D01*
X506487Y285033D01*
X506310Y283693D01*
X506487Y282353D01*
X507004Y281104D01*
X507827Y280031D01*
X508899Y279208D01*
X510148Y278691D01*
X511488Y278515D01*
X512828Y278691D01*
X514077Y279208D01*
X515150Y280031D01*
X515973Y281104D01*
X516490Y282353D01*
X516666Y283693D01*
X516490Y285033D01*
X515973Y286282D01*
X515150Y287354D01*
X514077Y288177D01*
X512828Y288695D01*
X511488Y288871D01*
D02*
G37*
G36*
X331500Y277228D02*
X330665Y277118D01*
X329886Y276795D01*
X329218Y276282D01*
X328705Y275614D01*
X328585Y275325D01*
X320415D01*
X320295Y275614D01*
X319782Y276282D01*
X319114Y276795D01*
X318335Y277118D01*
X317500Y277228D01*
X316665Y277118D01*
X315886Y276795D01*
X315218Y276282D01*
X314705Y275614D01*
X314382Y274835D01*
X314272Y274000D01*
X314382Y273165D01*
X314705Y272386D01*
X315124Y271840D01*
X315181Y271500D01*
X315124Y271160D01*
X314705Y270614D01*
X314382Y269835D01*
X314272Y269000D01*
X314382Y268165D01*
X314705Y267386D01*
X315218Y266718D01*
X315886Y266205D01*
X316665Y265882D01*
X317500Y265772D01*
X318335Y265882D01*
X319114Y266205D01*
X319782Y266718D01*
X320295Y267386D01*
X320415Y267674D01*
X328585D01*
X328705Y267386D01*
X329218Y266718D01*
X329886Y266205D01*
X330665Y265882D01*
X331500Y265772D01*
X332335Y265882D01*
X333114Y266205D01*
X333782Y266718D01*
X334295Y267386D01*
X334618Y268165D01*
X334728Y269000D01*
X334618Y269835D01*
X334295Y270614D01*
X333876Y271160D01*
X333819Y271500D01*
X333876Y271840D01*
X334295Y272386D01*
X334618Y273165D01*
X334728Y274000D01*
X334618Y274835D01*
X334295Y275614D01*
X333782Y276282D01*
X333114Y276795D01*
X332335Y277118D01*
X331500Y277228D01*
D02*
G37*
G36*
X285500Y288228D02*
X284665Y288118D01*
X283886Y287795D01*
X283218Y287282D01*
X282705Y286614D01*
X282382Y285835D01*
X282272Y285000D01*
X282382Y284165D01*
X282705Y283386D01*
X283218Y282718D01*
X283886Y282205D01*
X284665Y281882D01*
X285500Y281772D01*
X286335Y281882D01*
X286624Y282002D01*
X289502Y279124D01*
X289382Y278835D01*
X289272Y278000D01*
X289382Y277165D01*
X289705Y276386D01*
X290218Y275718D01*
X290886Y275205D01*
X291665Y274882D01*
X292500Y274772D01*
X293335Y274882D01*
X294114Y275205D01*
X294782Y275718D01*
X295295Y276386D01*
X295618Y277165D01*
X295728Y278000D01*
X295618Y278835D01*
X295295Y279614D01*
X294782Y280282D01*
X294114Y280795D01*
X293335Y281118D01*
X292500Y281228D01*
X291665Y281118D01*
X291376Y280998D01*
X288498Y283876D01*
X288618Y284165D01*
X288728Y285000D01*
X288618Y285835D01*
X288295Y286614D01*
X287782Y287282D01*
X287114Y287795D01*
X286335Y288118D01*
X285500Y288228D01*
D02*
G37*
G36*
X511488Y275485D02*
X510148Y275309D01*
X508899Y274792D01*
X507827Y273969D01*
X507004Y272896D01*
X506487Y271647D01*
X506310Y270307D01*
X506487Y268967D01*
X507004Y267718D01*
X507827Y266646D01*
X508899Y265823D01*
X510148Y265305D01*
X511488Y265129D01*
X512828Y265305D01*
X514077Y265823D01*
X515150Y266646D01*
X515973Y267718D01*
X516490Y268967D01*
X516666Y270307D01*
X516490Y271647D01*
X515973Y272896D01*
X515150Y273969D01*
X514077Y274792D01*
X512828Y275309D01*
X511488Y275485D01*
D02*
G37*
G36*
X472512D02*
X471172Y275309D01*
X469923Y274792D01*
X468850Y273969D01*
X468027Y272896D01*
X467510Y271647D01*
X467334Y270307D01*
X467510Y268967D01*
X468027Y267718D01*
X468850Y266646D01*
X469923Y265823D01*
X471172Y265305D01*
X472512Y265129D01*
X473852Y265305D01*
X475101Y265823D01*
X476173Y266646D01*
X476996Y267718D01*
X477514Y268967D01*
X477690Y270307D01*
X477514Y271647D01*
X476996Y272896D01*
X476173Y273969D01*
X475101Y274792D01*
X473852Y275309D01*
X472512Y275485D01*
D02*
G37*
G36*
X272500Y275228D02*
X271665Y275118D01*
X270886Y274795D01*
X270218Y274282D01*
X269705Y273614D01*
X269382Y272835D01*
X269272Y272000D01*
X269382Y271165D01*
X269705Y270386D01*
X270218Y269718D01*
X270886Y269205D01*
X271665Y268882D01*
X272500Y268772D01*
X273335Y268882D01*
X273624Y269002D01*
X276002Y266624D01*
X275882Y266335D01*
X275772Y265500D01*
X275882Y264665D01*
X276205Y263886D01*
X276718Y263218D01*
X277386Y262705D01*
X278165Y262382D01*
X279000Y262272D01*
X279835Y262382D01*
X280614Y262705D01*
X281282Y263218D01*
X281795Y263886D01*
X282118Y264665D01*
X282228Y265500D01*
X282118Y266335D01*
X281795Y267114D01*
X281282Y267782D01*
X280614Y268295D01*
X279835Y268618D01*
X279000Y268728D01*
X278165Y268618D01*
X277876Y268498D01*
X275498Y270876D01*
X275618Y271165D01*
X275728Y272000D01*
X275618Y272835D01*
X275295Y273614D01*
X274782Y274282D01*
X274114Y274795D01*
X273335Y275118D01*
X272500Y275228D01*
D02*
G37*
G36*
X546500Y297542D02*
X543949Y297375D01*
X541442Y296876D01*
X539022Y296054D01*
X536729Y294924D01*
X534604Y293504D01*
X532682Y291818D01*
X530996Y289896D01*
X529576Y287771D01*
X528446Y285478D01*
X527624Y283058D01*
X527125Y280551D01*
X526958Y278000D01*
X527125Y275449D01*
X527624Y272942D01*
X528446Y270522D01*
X529576Y268229D01*
X530996Y266104D01*
X532682Y264182D01*
X534604Y262496D01*
X536729Y261076D01*
X539022Y259946D01*
X541442Y259124D01*
X543949Y258625D01*
X546500Y258458D01*
X549051Y258625D01*
X551558Y259124D01*
X553978Y259946D01*
X556271Y261076D01*
X558396Y262496D01*
X560318Y264182D01*
X562004Y266104D01*
X563424Y268229D01*
X564554Y270522D01*
X565376Y272942D01*
X565875Y275449D01*
X566042Y278000D01*
X565875Y280551D01*
X565376Y283058D01*
X564554Y285478D01*
X563424Y287771D01*
X562004Y289896D01*
X560318Y291818D01*
X558396Y293504D01*
X556271Y294924D01*
X553978Y296054D01*
X551558Y296876D01*
X549051Y297375D01*
X546500Y297542D01*
D02*
G37*
G36*
X307000Y266728D02*
X306165Y266618D01*
X305386Y266295D01*
X304718Y265782D01*
X304205Y265114D01*
X303882Y264335D01*
X303772Y263500D01*
X303882Y262665D01*
X304205Y261886D01*
X304718Y261218D01*
X305386Y260705D01*
X306165Y260382D01*
X307000Y260272D01*
X307835Y260382D01*
X308300Y260575D01*
X308929Y259947D01*
X308882Y259835D01*
X308772Y259000D01*
X308882Y258165D01*
X309205Y257386D01*
X309718Y256718D01*
X310386Y256205D01*
X311165Y255882D01*
X312000Y255772D01*
X312835Y255882D01*
X313614Y256205D01*
X314282Y256718D01*
X314795Y257386D01*
X315118Y258165D01*
X315228Y259000D01*
X315118Y259835D01*
X314795Y260614D01*
X314282Y261282D01*
X313614Y261795D01*
X312835Y262118D01*
X312000Y262228D01*
X311165Y262118D01*
X310700Y261925D01*
X310071Y262553D01*
X310118Y262665D01*
X310228Y263500D01*
X310118Y264335D01*
X309795Y265114D01*
X309282Y265782D01*
X308614Y266295D01*
X307835Y266618D01*
X307000Y266728D01*
D02*
G37*
G36*
X294000Y253228D02*
X293165Y253118D01*
X292386Y252795D01*
X291718Y252282D01*
X291205Y251614D01*
X290882Y250835D01*
X290772Y250000D01*
X290882Y249165D01*
X291205Y248386D01*
X291718Y247718D01*
X292386Y247205D01*
X293165Y246882D01*
X294000Y246772D01*
X294835Y246882D01*
X295124Y247002D01*
X295502Y246624D01*
X295382Y246335D01*
X295272Y245500D01*
X295382Y244665D01*
X295705Y243886D01*
X296218Y243218D01*
X296886Y242705D01*
X297665Y242382D01*
X298500Y242272D01*
X299335Y242382D01*
X300114Y242705D01*
X300782Y243218D01*
X301295Y243886D01*
X301618Y244665D01*
X301728Y245500D01*
X301618Y246335D01*
X301295Y247114D01*
X300782Y247782D01*
X300114Y248295D01*
X299335Y248618D01*
X298500Y248728D01*
X297665Y248618D01*
X297376Y248498D01*
X296998Y248876D01*
X297118Y249165D01*
X297228Y250000D01*
X297118Y250835D01*
X296795Y251614D01*
X296282Y252282D01*
X295614Y252795D01*
X294835Y253118D01*
X294000Y253228D01*
D02*
G37*
G36*
X333000Y222039D02*
X331825Y221884D01*
X330731Y221431D01*
X329791Y220709D01*
X329069Y219769D01*
X328974Y219539D01*
X325026D01*
X324931Y219769D01*
X324209Y220709D01*
X323269Y221431D01*
X322175Y221884D01*
X321000Y222039D01*
X319825Y221884D01*
X318731Y221431D01*
X317791Y220709D01*
X317069Y219769D01*
X316616Y218675D01*
X316461Y217500D01*
X316616Y216325D01*
X317069Y215231D01*
X317791Y214291D01*
X318731Y213569D01*
X319825Y213116D01*
X321000Y212961D01*
X322175Y213116D01*
X323269Y213569D01*
X324209Y214291D01*
X324931Y215231D01*
X325026Y215461D01*
X328974D01*
X329069Y215231D01*
X329791Y214291D01*
X330731Y213569D01*
X331566Y213223D01*
X331500Y212728D01*
X330665Y212618D01*
X329886Y212295D01*
X329218Y211782D01*
X328705Y211114D01*
X328585Y210825D01*
X319915D01*
X319795Y211114D01*
X319282Y211782D01*
X318614Y212295D01*
X317835Y212618D01*
X317000Y212728D01*
X316165Y212618D01*
X315386Y212295D01*
X314718Y211782D01*
X314205Y211114D01*
X313882Y210335D01*
X313772Y209500D01*
X313882Y208665D01*
X314205Y207886D01*
X314693Y207250D01*
X314205Y206614D01*
X313882Y205835D01*
X313772Y205000D01*
X313882Y204165D01*
X314205Y203386D01*
X314718Y202718D01*
X315386Y202205D01*
X316165Y201882D01*
X317000Y201772D01*
X317835Y201882D01*
X318614Y202205D01*
X319282Y202718D01*
X319795Y203386D01*
X319915Y203675D01*
X328585D01*
X328705Y203386D01*
X329218Y202718D01*
X329886Y202205D01*
X330665Y201882D01*
X331500Y201772D01*
X332335Y201882D01*
X333114Y202205D01*
X333782Y202718D01*
X334295Y203386D01*
X334618Y204165D01*
X334728Y205000D01*
X334618Y205835D01*
X334295Y206614D01*
X333807Y207250D01*
X334295Y207886D01*
X334618Y208665D01*
X334728Y209500D01*
X334618Y210335D01*
X334295Y211114D01*
X333782Y211782D01*
X333114Y212295D01*
X332595Y212510D01*
X332725Y212997D01*
X333000Y212961D01*
X334175Y213116D01*
X335269Y213569D01*
X336209Y214291D01*
X336931Y215231D01*
X337384Y216325D01*
X337539Y217500D01*
X337384Y218675D01*
X336931Y219769D01*
X336209Y220709D01*
X335269Y221431D01*
X334175Y221884D01*
X333000Y222039D01*
D02*
G37*
G36*
X276500Y218728D02*
X275665Y218618D01*
X274886Y218295D01*
X274218Y217782D01*
X273705Y217114D01*
X273585Y216826D01*
X262415D01*
X262295Y217114D01*
X261782Y217782D01*
X261114Y218295D01*
X260335Y218618D01*
X259500Y218728D01*
X258665Y218618D01*
X257886Y218295D01*
X257218Y217782D01*
X256705Y217114D01*
X256382Y216335D01*
X256272Y215500D01*
X256382Y214665D01*
X256705Y213886D01*
X257218Y213218D01*
X257886Y212705D01*
X258665Y212382D01*
X259500Y212272D01*
X260335Y212382D01*
X261114Y212705D01*
X261782Y213218D01*
X262295Y213886D01*
X262415Y214175D01*
X273585D01*
X273705Y213886D01*
X274218Y213218D01*
X274886Y212705D01*
X275665Y212382D01*
X276500Y212272D01*
X277335Y212382D01*
X278114Y212705D01*
X278782Y213218D01*
X279295Y213886D01*
X279618Y214665D01*
X279728Y215500D01*
X279618Y216335D01*
X279295Y217114D01*
X278782Y217782D01*
X278114Y218295D01*
X277335Y218618D01*
X276500Y218728D01*
D02*
G37*
G36*
X308000Y211228D02*
X307165Y211118D01*
X306386Y210795D01*
X305718Y210282D01*
X305205Y209614D01*
X304882Y208835D01*
X304772Y208000D01*
X304882Y207165D01*
X305205Y206386D01*
X305718Y205718D01*
X306275Y205290D01*
X306320Y205090D01*
Y204910D01*
X306275Y204710D01*
X305718Y204282D01*
X305205Y203614D01*
X304882Y202835D01*
X304772Y202000D01*
X304882Y201165D01*
X305205Y200386D01*
X305718Y199718D01*
X306386Y199205D01*
X307165Y198882D01*
X308000Y198772D01*
X308835Y198882D01*
X309614Y199205D01*
X310282Y199718D01*
X310795Y200386D01*
X311118Y201165D01*
X311228Y202000D01*
X311118Y202835D01*
X310795Y203614D01*
X310282Y204282D01*
X309725Y204710D01*
X309680Y204910D01*
Y205090D01*
X309725Y205290D01*
X310282Y205718D01*
X310795Y206386D01*
X311118Y207165D01*
X311228Y208000D01*
X311118Y208835D01*
X310795Y209614D01*
X310282Y210282D01*
X309614Y210795D01*
X308835Y211118D01*
X308000Y211228D01*
D02*
G37*
G36*
X291000Y204728D02*
X290165Y204618D01*
X289386Y204295D01*
X288718Y203782D01*
X288205Y203114D01*
X287882Y202335D01*
X287772Y201500D01*
X287882Y200665D01*
X288205Y199886D01*
X288718Y199218D01*
X289386Y198705D01*
X290165Y198382D01*
X291000Y198272D01*
X291835Y198382D01*
X292301Y198575D01*
X292929Y197947D01*
X292882Y197835D01*
X292772Y197000D01*
X292882Y196165D01*
X293205Y195386D01*
X293718Y194718D01*
X294386Y194205D01*
X295165Y193882D01*
X296000Y193772D01*
X296835Y193882D01*
X297614Y194205D01*
X298282Y194718D01*
X298795Y195386D01*
X299118Y196165D01*
X299228Y197000D01*
X299118Y197835D01*
X298795Y198614D01*
X298282Y199282D01*
X297614Y199795D01*
X296835Y200118D01*
X296000Y200228D01*
X295165Y200118D01*
X294700Y199925D01*
X294071Y200553D01*
X294118Y200665D01*
X294228Y201500D01*
X294118Y202335D01*
X293795Y203114D01*
X293282Y203782D01*
X292614Y204295D01*
X291835Y204618D01*
X291000Y204728D01*
D02*
G37*
G36*
X477646Y186327D02*
X467378D01*
Y176059D01*
X477646D01*
Y186327D01*
D02*
G37*
G36*
X511488Y186371D02*
X510148Y186195D01*
X508899Y185677D01*
X507827Y184854D01*
X507004Y183782D01*
X506487Y182533D01*
X506310Y181193D01*
X506487Y179853D01*
X507004Y178604D01*
X507827Y177531D01*
X508899Y176708D01*
X510148Y176191D01*
X511488Y176015D01*
X512828Y176191D01*
X514077Y176708D01*
X515150Y177531D01*
X515973Y178604D01*
X516490Y179853D01*
X516666Y181193D01*
X516490Y182533D01*
X515973Y183782D01*
X515150Y184854D01*
X514077Y185677D01*
X512828Y186195D01*
X511488Y186371D01*
D02*
G37*
G36*
X331500Y174728D02*
X330665Y174618D01*
X329886Y174295D01*
X329218Y173782D01*
X328705Y173114D01*
X328585Y172826D01*
X320415D01*
X320295Y173114D01*
X319782Y173782D01*
X319114Y174295D01*
X318335Y174618D01*
X317500Y174728D01*
X316665Y174618D01*
X315886Y174295D01*
X315218Y173782D01*
X314705Y173114D01*
X314382Y172335D01*
X314272Y171500D01*
X314382Y170665D01*
X314705Y169886D01*
X315124Y169340D01*
X315181Y169000D01*
X315124Y168660D01*
X314705Y168114D01*
X314382Y167335D01*
X314272Y166500D01*
X314382Y165665D01*
X314705Y164886D01*
X315218Y164218D01*
X315886Y163705D01*
X316665Y163382D01*
X317500Y163272D01*
X318335Y163382D01*
X319114Y163705D01*
X319782Y164218D01*
X320295Y164886D01*
X320415Y165174D01*
X328585D01*
X328705Y164886D01*
X329218Y164218D01*
X329886Y163705D01*
X330665Y163382D01*
X331500Y163272D01*
X332335Y163382D01*
X333114Y163705D01*
X333782Y164218D01*
X334295Y164886D01*
X334618Y165665D01*
X334728Y166500D01*
X334618Y167335D01*
X334295Y168114D01*
X333876Y168660D01*
X333819Y169000D01*
X333876Y169340D01*
X334295Y169886D01*
X334618Y170665D01*
X334728Y171500D01*
X334618Y172335D01*
X334295Y173114D01*
X333782Y173782D01*
X333114Y174295D01*
X332335Y174618D01*
X331500Y174728D01*
D02*
G37*
G36*
X293000Y179487D02*
X291968Y179351D01*
X291007Y178953D01*
X290181Y178319D01*
X289547Y177493D01*
X289149Y176532D01*
X289013Y175500D01*
X289149Y174468D01*
X289547Y173507D01*
X290181Y172681D01*
X291007Y172047D01*
X291968Y171649D01*
X293000Y171513D01*
X294032Y171649D01*
X294993Y172047D01*
X295819Y172681D01*
X296453Y173507D01*
X296851Y174468D01*
X296987Y175500D01*
X296851Y176532D01*
X296453Y177493D01*
X295819Y178319D01*
X294993Y178953D01*
X294032Y179351D01*
X293000Y179487D01*
D02*
G37*
G36*
X283000D02*
X281968Y179351D01*
X281007Y178953D01*
X280181Y178319D01*
X279547Y177493D01*
X279149Y176532D01*
X279013Y175500D01*
X279149Y174468D01*
X279547Y173507D01*
X280181Y172681D01*
X281007Y172047D01*
X281968Y171649D01*
X283000Y171513D01*
X284032Y171649D01*
X284993Y172047D01*
X285819Y172681D01*
X286453Y173507D01*
X286851Y174468D01*
X286987Y175500D01*
X286851Y176532D01*
X286453Y177493D01*
X285819Y178319D01*
X284993Y178953D01*
X284032Y179351D01*
X283000Y179487D01*
D02*
G37*
G36*
X273000D02*
X271968Y179351D01*
X271007Y178953D01*
X270181Y178319D01*
X269547Y177493D01*
X269149Y176532D01*
X269013Y175500D01*
X269149Y174468D01*
X269547Y173507D01*
X270181Y172681D01*
X271007Y172047D01*
X271968Y171649D01*
X273000Y171513D01*
X274032Y171649D01*
X274993Y172047D01*
X275819Y172681D01*
X276453Y173507D01*
X276851Y174468D01*
X276987Y175500D01*
X276851Y176532D01*
X276453Y177493D01*
X275819Y178319D01*
X274993Y178953D01*
X274032Y179351D01*
X273000Y179487D01*
D02*
G37*
G36*
X263000D02*
X261968Y179351D01*
X261007Y178953D01*
X260181Y178319D01*
X259547Y177493D01*
X259149Y176532D01*
X259013Y175500D01*
X259149Y174468D01*
X259547Y173507D01*
X260181Y172681D01*
X261007Y172047D01*
X261968Y171649D01*
X263000Y171513D01*
X264032Y171649D01*
X264993Y172047D01*
X265819Y172681D01*
X266453Y173507D01*
X266851Y174468D01*
X266987Y175500D01*
X266851Y176532D01*
X266453Y177493D01*
X265819Y178319D01*
X264993Y178953D01*
X264032Y179351D01*
X263000Y179487D01*
D02*
G37*
G36*
X253000D02*
X251968Y179351D01*
X251007Y178953D01*
X250181Y178319D01*
X249547Y177493D01*
X249149Y176532D01*
X249013Y175500D01*
X249149Y174468D01*
X249547Y173507D01*
X250181Y172681D01*
X251007Y172047D01*
X251968Y171649D01*
X253000Y171513D01*
X254032Y171649D01*
X254993Y172047D01*
X255819Y172681D01*
X256453Y173507D01*
X256851Y174468D01*
X256987Y175500D01*
X256851Y176532D01*
X256453Y177493D01*
X255819Y178319D01*
X254993Y178953D01*
X254032Y179351D01*
X253000Y179487D01*
D02*
G37*
G36*
X243000D02*
X241968Y179351D01*
X241007Y178953D01*
X240181Y178319D01*
X239547Y177493D01*
X239149Y176532D01*
X239013Y175500D01*
X239149Y174468D01*
X239547Y173507D01*
X240181Y172681D01*
X241007Y172047D01*
X241968Y171649D01*
X243000Y171513D01*
X244032Y171649D01*
X244993Y172047D01*
X245819Y172681D01*
X246453Y173507D01*
X246851Y174468D01*
X246987Y175500D01*
X246851Y176532D01*
X246453Y177493D01*
X245819Y178319D01*
X244993Y178953D01*
X244032Y179351D01*
X243000Y179487D01*
D02*
G37*
G36*
X233000D02*
X231968Y179351D01*
X231007Y178953D01*
X230181Y178319D01*
X229547Y177493D01*
X229149Y176532D01*
X229013Y175500D01*
X229149Y174468D01*
X229547Y173507D01*
X230181Y172681D01*
X231007Y172047D01*
X231968Y171649D01*
X233000Y171513D01*
X234032Y171649D01*
X234993Y172047D01*
X235819Y172681D01*
X236453Y173507D01*
X236851Y174468D01*
X236987Y175500D01*
X236851Y176532D01*
X236453Y177493D01*
X235819Y178319D01*
X234993Y178953D01*
X234032Y179351D01*
X233000Y179487D01*
D02*
G37*
G36*
X223000D02*
X221968Y179351D01*
X221007Y178953D01*
X220181Y178319D01*
X219547Y177493D01*
X219149Y176532D01*
X219013Y175500D01*
X219149Y174468D01*
X219547Y173507D01*
X220181Y172681D01*
X221007Y172047D01*
X221968Y171649D01*
X223000Y171513D01*
X224032Y171649D01*
X224993Y172047D01*
X225819Y172681D01*
X226453Y173507D01*
X226851Y174468D01*
X226987Y175500D01*
X226851Y176532D01*
X226453Y177493D01*
X225819Y178319D01*
X224993Y178953D01*
X224032Y179351D01*
X223000Y179487D01*
D02*
G37*
G36*
X193000D02*
X191968Y179351D01*
X191007Y178953D01*
X190181Y178319D01*
X189547Y177493D01*
X189149Y176532D01*
X189013Y175500D01*
X189149Y174468D01*
X189547Y173507D01*
X190181Y172681D01*
X191007Y172047D01*
X191968Y171649D01*
X193000Y171513D01*
X194032Y171649D01*
X194993Y172047D01*
X195819Y172681D01*
X196453Y173507D01*
X196851Y174468D01*
X196987Y175500D01*
X196851Y176532D01*
X196453Y177493D01*
X195819Y178319D01*
X194993Y178953D01*
X194032Y179351D01*
X193000Y179487D01*
D02*
G37*
G36*
X183000D02*
X181968Y179351D01*
X181007Y178953D01*
X180181Y178319D01*
X179547Y177493D01*
X179149Y176532D01*
X179013Y175500D01*
X179149Y174468D01*
X179547Y173507D01*
X180181Y172681D01*
X181007Y172047D01*
X181968Y171649D01*
X183000Y171513D01*
X184032Y171649D01*
X184993Y172047D01*
X185819Y172681D01*
X186453Y173507D01*
X186851Y174468D01*
X186987Y175500D01*
X186851Y176532D01*
X186453Y177493D01*
X185819Y178319D01*
X184993Y178953D01*
X184032Y179351D01*
X183000Y179487D01*
D02*
G37*
G36*
X173000D02*
X171968Y179351D01*
X171007Y178953D01*
X170181Y178319D01*
X169547Y177493D01*
X169149Y176532D01*
X169013Y175500D01*
X169149Y174468D01*
X169547Y173507D01*
X170181Y172681D01*
X171007Y172047D01*
X171968Y171649D01*
X173000Y171513D01*
X174032Y171649D01*
X174993Y172047D01*
X175819Y172681D01*
X176453Y173507D01*
X176851Y174468D01*
X176987Y175500D01*
X176851Y176532D01*
X176453Y177493D01*
X175819Y178319D01*
X174993Y178953D01*
X174032Y179351D01*
X173000Y179487D01*
D02*
G37*
G36*
X163000D02*
X161968Y179351D01*
X161007Y178953D01*
X160181Y178319D01*
X159547Y177493D01*
X159149Y176532D01*
X159013Y175500D01*
X159149Y174468D01*
X159547Y173507D01*
X160181Y172681D01*
X161007Y172047D01*
X161968Y171649D01*
X163000Y171513D01*
X164032Y171649D01*
X164993Y172047D01*
X165819Y172681D01*
X166453Y173507D01*
X166851Y174468D01*
X166987Y175500D01*
X166851Y176532D01*
X166453Y177493D01*
X165819Y178319D01*
X164993Y178953D01*
X164032Y179351D01*
X163000Y179487D01*
D02*
G37*
G36*
X153000D02*
X151968Y179351D01*
X151007Y178953D01*
X150181Y178319D01*
X149547Y177493D01*
X149149Y176532D01*
X149013Y175500D01*
X149149Y174468D01*
X149547Y173507D01*
X150181Y172681D01*
X151007Y172047D01*
X151968Y171649D01*
X153000Y171513D01*
X154032Y171649D01*
X154993Y172047D01*
X155819Y172681D01*
X156453Y173507D01*
X156851Y174468D01*
X156987Y175500D01*
X156851Y176532D01*
X156453Y177493D01*
X155819Y178319D01*
X154993Y178953D01*
X154032Y179351D01*
X153000Y179487D01*
D02*
G37*
G36*
X143000D02*
X141968Y179351D01*
X141007Y178953D01*
X140181Y178319D01*
X139547Y177493D01*
X139149Y176532D01*
X139013Y175500D01*
X139149Y174468D01*
X139547Y173507D01*
X140181Y172681D01*
X141007Y172047D01*
X141968Y171649D01*
X143000Y171513D01*
X144032Y171649D01*
X144993Y172047D01*
X145819Y172681D01*
X146453Y173507D01*
X146851Y174468D01*
X146987Y175500D01*
X146851Y176532D01*
X146453Y177493D01*
X145819Y178319D01*
X144993Y178953D01*
X144032Y179351D01*
X143000Y179487D01*
D02*
G37*
G36*
X133000D02*
X131968Y179351D01*
X131007Y178953D01*
X130181Y178319D01*
X129547Y177493D01*
X129149Y176532D01*
X129013Y175500D01*
X129149Y174468D01*
X129547Y173507D01*
X130181Y172681D01*
X131007Y172047D01*
X131968Y171649D01*
X133000Y171513D01*
X134032Y171649D01*
X134993Y172047D01*
X135819Y172681D01*
X136453Y173507D01*
X136851Y174468D01*
X136987Y175500D01*
X136851Y176532D01*
X136453Y177493D01*
X135819Y178319D01*
X134993Y178953D01*
X134032Y179351D01*
X133000Y179487D01*
D02*
G37*
G36*
X123000D02*
X121968Y179351D01*
X121007Y178953D01*
X120181Y178319D01*
X119547Y177493D01*
X119149Y176532D01*
X119013Y175500D01*
X119149Y174468D01*
X119547Y173507D01*
X120181Y172681D01*
X121007Y172047D01*
X121968Y171649D01*
X123000Y171513D01*
X124032Y171649D01*
X124993Y172047D01*
X125819Y172681D01*
X126453Y173507D01*
X126851Y174468D01*
X126987Y175500D01*
X126851Y176532D01*
X126453Y177493D01*
X125819Y178319D01*
X124993Y178953D01*
X124032Y179351D01*
X123000Y179487D01*
D02*
G37*
G36*
X113000D02*
X111968Y179351D01*
X111007Y178953D01*
X110181Y178319D01*
X109547Y177493D01*
X109149Y176532D01*
X109013Y175500D01*
X109149Y174468D01*
X109547Y173507D01*
X110181Y172681D01*
X111007Y172047D01*
X111968Y171649D01*
X113000Y171513D01*
X114032Y171649D01*
X114993Y172047D01*
X115819Y172681D01*
X116453Y173507D01*
X116851Y174468D01*
X116987Y175500D01*
X116851Y176532D01*
X116453Y177493D01*
X115819Y178319D01*
X114993Y178953D01*
X114032Y179351D01*
X113000Y179487D01*
D02*
G37*
G36*
X511488Y172985D02*
X510148Y172809D01*
X508899Y172292D01*
X507827Y171469D01*
X507004Y170396D01*
X506487Y169147D01*
X506310Y167807D01*
X506487Y166467D01*
X507004Y165218D01*
X507827Y164146D01*
X508899Y163323D01*
X510148Y162805D01*
X511488Y162629D01*
X512828Y162805D01*
X514077Y163323D01*
X515150Y164146D01*
X515973Y165218D01*
X516490Y166467D01*
X516666Y167807D01*
X516490Y169147D01*
X515973Y170396D01*
X515150Y171469D01*
X514077Y172292D01*
X512828Y172809D01*
X511488Y172985D01*
D02*
G37*
G36*
X472512D02*
X471172Y172809D01*
X469923Y172292D01*
X468850Y171469D01*
X468027Y170396D01*
X467510Y169147D01*
X467334Y167807D01*
X467510Y166467D01*
X468027Y165218D01*
X468850Y164146D01*
X469923Y163323D01*
X471172Y162805D01*
X472512Y162629D01*
X473852Y162805D01*
X475101Y163323D01*
X476173Y164146D01*
X476996Y165218D01*
X477514Y166467D01*
X477690Y167807D01*
X477514Y169147D01*
X476996Y170396D01*
X476173Y171469D01*
X475101Y172292D01*
X473852Y172809D01*
X472512Y172985D01*
D02*
G37*
G36*
X116953Y169453D02*
X109047D01*
Y161547D01*
X116953D01*
Y169453D01*
D02*
G37*
G36*
X293000Y169487D02*
X291968Y169351D01*
X291007Y168953D01*
X290181Y168319D01*
X289547Y167493D01*
X289149Y166532D01*
X289013Y165500D01*
X289149Y164468D01*
X289547Y163507D01*
X290181Y162681D01*
X291007Y162047D01*
X291968Y161649D01*
X293000Y161513D01*
X294032Y161649D01*
X294993Y162047D01*
X295819Y162681D01*
X296453Y163507D01*
X296851Y164468D01*
X296987Y165500D01*
X296851Y166532D01*
X296453Y167493D01*
X295819Y168319D01*
X294993Y168953D01*
X294032Y169351D01*
X293000Y169487D01*
D02*
G37*
G36*
X283000D02*
X281968Y169351D01*
X281007Y168953D01*
X280181Y168319D01*
X279547Y167493D01*
X279149Y166532D01*
X279013Y165500D01*
X279149Y164468D01*
X279547Y163507D01*
X280181Y162681D01*
X281007Y162047D01*
X281968Y161649D01*
X283000Y161513D01*
X284032Y161649D01*
X284993Y162047D01*
X285819Y162681D01*
X286453Y163507D01*
X286851Y164468D01*
X286987Y165500D01*
X286851Y166532D01*
X286453Y167493D01*
X285819Y168319D01*
X284993Y168953D01*
X284032Y169351D01*
X283000Y169487D01*
D02*
G37*
G36*
X273000D02*
X271968Y169351D01*
X271007Y168953D01*
X270181Y168319D01*
X269547Y167493D01*
X269149Y166532D01*
X269013Y165500D01*
X269149Y164468D01*
X269547Y163507D01*
X270181Y162681D01*
X271007Y162047D01*
X271968Y161649D01*
X273000Y161513D01*
X274032Y161649D01*
X274993Y162047D01*
X275819Y162681D01*
X276453Y163507D01*
X276851Y164468D01*
X276987Y165500D01*
X276851Y166532D01*
X276453Y167493D01*
X275819Y168319D01*
X274993Y168953D01*
X274032Y169351D01*
X273000Y169487D01*
D02*
G37*
G36*
X263000D02*
X261968Y169351D01*
X261007Y168953D01*
X260181Y168319D01*
X259547Y167493D01*
X259149Y166532D01*
X259013Y165500D01*
X259149Y164468D01*
X259547Y163507D01*
X260181Y162681D01*
X261007Y162047D01*
X261968Y161649D01*
X263000Y161513D01*
X264032Y161649D01*
X264993Y162047D01*
X265819Y162681D01*
X266453Y163507D01*
X266851Y164468D01*
X266987Y165500D01*
X266851Y166532D01*
X266453Y167493D01*
X265819Y168319D01*
X264993Y168953D01*
X264032Y169351D01*
X263000Y169487D01*
D02*
G37*
G36*
X253000D02*
X251968Y169351D01*
X251007Y168953D01*
X250181Y168319D01*
X249547Y167493D01*
X249149Y166532D01*
X249013Y165500D01*
X249149Y164468D01*
X249547Y163507D01*
X250181Y162681D01*
X251007Y162047D01*
X251968Y161649D01*
X253000Y161513D01*
X254032Y161649D01*
X254993Y162047D01*
X255819Y162681D01*
X256453Y163507D01*
X256851Y164468D01*
X256987Y165500D01*
X256851Y166532D01*
X256453Y167493D01*
X255819Y168319D01*
X254993Y168953D01*
X254032Y169351D01*
X253000Y169487D01*
D02*
G37*
G36*
X243000D02*
X241968Y169351D01*
X241007Y168953D01*
X240181Y168319D01*
X239547Y167493D01*
X239149Y166532D01*
X239013Y165500D01*
X239149Y164468D01*
X239547Y163507D01*
X240181Y162681D01*
X241007Y162047D01*
X241968Y161649D01*
X243000Y161513D01*
X244032Y161649D01*
X244993Y162047D01*
X245819Y162681D01*
X246453Y163507D01*
X246851Y164468D01*
X246987Y165500D01*
X246851Y166532D01*
X246453Y167493D01*
X245819Y168319D01*
X244993Y168953D01*
X244032Y169351D01*
X243000Y169487D01*
D02*
G37*
G36*
X233000D02*
X231968Y169351D01*
X231007Y168953D01*
X230181Y168319D01*
X229547Y167493D01*
X229149Y166532D01*
X229013Y165500D01*
X229149Y164468D01*
X229547Y163507D01*
X230181Y162681D01*
X231007Y162047D01*
X231968Y161649D01*
X233000Y161513D01*
X234032Y161649D01*
X234993Y162047D01*
X235819Y162681D01*
X236453Y163507D01*
X236851Y164468D01*
X236987Y165500D01*
X236851Y166532D01*
X236453Y167493D01*
X235819Y168319D01*
X234993Y168953D01*
X234032Y169351D01*
X233000Y169487D01*
D02*
G37*
G36*
X223000D02*
X221968Y169351D01*
X221007Y168953D01*
X220181Y168319D01*
X219547Y167493D01*
X219149Y166532D01*
X219013Y165500D01*
X219149Y164468D01*
X219547Y163507D01*
X220181Y162681D01*
X221007Y162047D01*
X221968Y161649D01*
X223000Y161513D01*
X224032Y161649D01*
X224993Y162047D01*
X225819Y162681D01*
X226453Y163507D01*
X226851Y164468D01*
X226987Y165500D01*
X226851Y166532D01*
X226453Y167493D01*
X225819Y168319D01*
X224993Y168953D01*
X224032Y169351D01*
X223000Y169487D01*
D02*
G37*
G36*
X213000D02*
X211968Y169351D01*
X211007Y168953D01*
X210181Y168319D01*
X209547Y167493D01*
X209149Y166532D01*
X209013Y165500D01*
X209149Y164468D01*
X209547Y163507D01*
X210181Y162681D01*
X211007Y162047D01*
X211968Y161649D01*
X213000Y161513D01*
X214032Y161649D01*
X214993Y162047D01*
X215819Y162681D01*
X216453Y163507D01*
X216851Y164468D01*
X216987Y165500D01*
X216851Y166532D01*
X216453Y167493D01*
X215819Y168319D01*
X214993Y168953D01*
X214032Y169351D01*
X213000Y169487D01*
D02*
G37*
G36*
X193000D02*
X191968Y169351D01*
X191007Y168953D01*
X190181Y168319D01*
X189547Y167493D01*
X189149Y166532D01*
X189013Y165500D01*
X189149Y164468D01*
X189547Y163507D01*
X190181Y162681D01*
X191007Y162047D01*
X191968Y161649D01*
X193000Y161513D01*
X194032Y161649D01*
X194993Y162047D01*
X195819Y162681D01*
X196453Y163507D01*
X196851Y164468D01*
X196987Y165500D01*
X196851Y166532D01*
X196453Y167493D01*
X195819Y168319D01*
X194993Y168953D01*
X194032Y169351D01*
X193000Y169487D01*
D02*
G37*
G36*
X183000D02*
X181968Y169351D01*
X181007Y168953D01*
X180181Y168319D01*
X179547Y167493D01*
X179149Y166532D01*
X179013Y165500D01*
X179149Y164468D01*
X179547Y163507D01*
X180181Y162681D01*
X181007Y162047D01*
X181968Y161649D01*
X183000Y161513D01*
X184032Y161649D01*
X184993Y162047D01*
X185819Y162681D01*
X186453Y163507D01*
X186851Y164468D01*
X186987Y165500D01*
X186851Y166532D01*
X186453Y167493D01*
X185819Y168319D01*
X184993Y168953D01*
X184032Y169351D01*
X183000Y169487D01*
D02*
G37*
G36*
X173000D02*
X171968Y169351D01*
X171007Y168953D01*
X170181Y168319D01*
X169547Y167493D01*
X169149Y166532D01*
X169013Y165500D01*
X169149Y164468D01*
X169547Y163507D01*
X170181Y162681D01*
X171007Y162047D01*
X171968Y161649D01*
X173000Y161513D01*
X174032Y161649D01*
X174993Y162047D01*
X175819Y162681D01*
X176453Y163507D01*
X176851Y164468D01*
X176987Y165500D01*
X176851Y166532D01*
X176453Y167493D01*
X175819Y168319D01*
X174993Y168953D01*
X174032Y169351D01*
X173000Y169487D01*
D02*
G37*
G36*
X163000D02*
X161968Y169351D01*
X161007Y168953D01*
X160181Y168319D01*
X159547Y167493D01*
X159149Y166532D01*
X159013Y165500D01*
X159149Y164468D01*
X159547Y163507D01*
X160181Y162681D01*
X161007Y162047D01*
X161968Y161649D01*
X163000Y161513D01*
X164032Y161649D01*
X164993Y162047D01*
X165819Y162681D01*
X166453Y163507D01*
X166851Y164468D01*
X166987Y165500D01*
X166851Y166532D01*
X166453Y167493D01*
X165819Y168319D01*
X164993Y168953D01*
X164032Y169351D01*
X163000Y169487D01*
D02*
G37*
G36*
X153000D02*
X151968Y169351D01*
X151007Y168953D01*
X150181Y168319D01*
X149547Y167493D01*
X149149Y166532D01*
X149013Y165500D01*
X149149Y164468D01*
X149547Y163507D01*
X150181Y162681D01*
X151007Y162047D01*
X151968Y161649D01*
X153000Y161513D01*
X154032Y161649D01*
X154993Y162047D01*
X155819Y162681D01*
X156453Y163507D01*
X156851Y164468D01*
X156987Y165500D01*
X156851Y166532D01*
X156453Y167493D01*
X155819Y168319D01*
X154993Y168953D01*
X154032Y169351D01*
X153000Y169487D01*
D02*
G37*
G36*
X143000D02*
X141968Y169351D01*
X141007Y168953D01*
X140181Y168319D01*
X139547Y167493D01*
X139149Y166532D01*
X139013Y165500D01*
X139149Y164468D01*
X139547Y163507D01*
X140181Y162681D01*
X141007Y162047D01*
X141968Y161649D01*
X143000Y161513D01*
X144032Y161649D01*
X144993Y162047D01*
X145819Y162681D01*
X146453Y163507D01*
X146851Y164468D01*
X146987Y165500D01*
X146851Y166532D01*
X146453Y167493D01*
X145819Y168319D01*
X144993Y168953D01*
X144032Y169351D01*
X143000Y169487D01*
D02*
G37*
G36*
X133000D02*
X131968Y169351D01*
X131007Y168953D01*
X130181Y168319D01*
X129547Y167493D01*
X129149Y166532D01*
X129013Y165500D01*
X129149Y164468D01*
X129547Y163507D01*
X130181Y162681D01*
X131007Y162047D01*
X131968Y161649D01*
X133000Y161513D01*
X134032Y161649D01*
X134993Y162047D01*
X135819Y162681D01*
X136453Y163507D01*
X136851Y164468D01*
X136987Y165500D01*
X136851Y166532D01*
X136453Y167493D01*
X135819Y168319D01*
X134993Y168953D01*
X134032Y169351D01*
X133000Y169487D01*
D02*
G37*
G36*
X123000D02*
X121968Y169351D01*
X121007Y168953D01*
X120181Y168319D01*
X119547Y167493D01*
X119149Y166532D01*
X119013Y165500D01*
X119149Y164468D01*
X119547Y163507D01*
X120181Y162681D01*
X121007Y162047D01*
X121968Y161649D01*
X123000Y161513D01*
X124032Y161649D01*
X124993Y162047D01*
X125819Y162681D01*
X126453Y163507D01*
X126851Y164468D01*
X126987Y165500D01*
X126851Y166532D01*
X126453Y167493D01*
X125819Y168319D01*
X124993Y168953D01*
X124032Y169351D01*
X123000Y169487D01*
D02*
G37*
G36*
X546000Y194542D02*
X543449Y194375D01*
X540942Y193876D01*
X538522Y193054D01*
X536229Y191924D01*
X534104Y190504D01*
X532182Y188818D01*
X530496Y186896D01*
X529076Y184771D01*
X527946Y182478D01*
X527124Y180058D01*
X526625Y177551D01*
X526458Y175000D01*
X526625Y172449D01*
X527124Y169942D01*
X527946Y167522D01*
X529076Y165229D01*
X530496Y163104D01*
X532182Y161182D01*
X534104Y159496D01*
X536229Y158076D01*
X538522Y156946D01*
X540942Y156124D01*
X543449Y155625D01*
X546000Y155458D01*
X548551Y155625D01*
X551058Y156124D01*
X553478Y156946D01*
X555771Y158076D01*
X557896Y159496D01*
X559818Y161182D01*
X561504Y163104D01*
X562924Y165229D01*
X564054Y167522D01*
X564876Y169942D01*
X565375Y172449D01*
X565542Y175000D01*
X565375Y177551D01*
X564876Y180058D01*
X564054Y182478D01*
X562924Y184771D01*
X561504Y186896D01*
X559818Y188818D01*
X557896Y190504D01*
X555771Y191924D01*
X553478Y193054D01*
X551058Y193876D01*
X548551Y194375D01*
X546000Y194542D01*
D02*
G37*
G36*
X447500Y150500D02*
X439500D01*
Y142500D01*
X447500D01*
Y150500D01*
D02*
G37*
G36*
X327000Y145042D02*
X324449Y144875D01*
X321942Y144376D01*
X319522Y143554D01*
X317229Y142424D01*
X315104Y141004D01*
X313182Y139318D01*
X311496Y137396D01*
X310076Y135271D01*
X308946Y132978D01*
X308124Y130558D01*
X307625Y128051D01*
X307458Y125500D01*
X307625Y122949D01*
X308124Y120442D01*
X308946Y118022D01*
X310076Y115729D01*
X311496Y113604D01*
X313182Y111682D01*
X315104Y109996D01*
X317229Y108576D01*
X319522Y107446D01*
X321942Y106624D01*
X324449Y106125D01*
X327000Y105958D01*
X329551Y106125D01*
X332058Y106624D01*
X334478Y107446D01*
X336771Y108576D01*
X338896Y109996D01*
X340818Y111682D01*
X342504Y113604D01*
X343924Y115729D01*
X345054Y118022D01*
X345876Y120442D01*
X346375Y122949D01*
X346542Y125500D01*
X346375Y128051D01*
X345876Y130558D01*
X345054Y132978D01*
X343924Y135271D01*
X342504Y137396D01*
X340818Y139318D01*
X338896Y141004D01*
X336771Y142424D01*
X334478Y143554D01*
X332058Y144376D01*
X329551Y144875D01*
X327000Y145042D01*
D02*
G37*
%LPD*%
D14*
X317000Y410000D02*
X325000D01*
X317000Y414500D02*
X325000D01*
X293000Y368500D02*
Y379500D01*
X290000Y305750D02*
Y306000D01*
X285500Y301250D02*
X290000Y305750D01*
X285500Y301000D02*
Y301250D01*
Y285000D02*
X292500Y278000D01*
X307000Y263500D02*
X307250D01*
X311750Y259000D01*
X312000D01*
X259500Y215500D02*
X276500D01*
X294000Y250000D02*
X298500Y245500D01*
X291000Y201500D02*
X291250D01*
X295750Y197000D01*
X296000D01*
X308000Y202000D02*
Y208000D01*
X317000Y205000D02*
X331500D01*
X317000Y209500D02*
X331500D01*
X272500Y272000D02*
X279000Y265500D01*
X248000Y368500D02*
Y374500D01*
X296000Y295500D02*
X303000Y288500D01*
X273000Y368500D02*
Y379500D01*
X317500Y171500D02*
X331500D01*
X317500Y166500D02*
X331500D01*
X317000Y307500D02*
X331500D01*
X317000Y312000D02*
X331500D01*
X317500Y376500D02*
X331500D01*
X317500Y371500D02*
X331500D01*
X317500Y274000D02*
X331500D01*
X317500Y269000D02*
X331500D01*
D50*
X321000Y217500D02*
X333000D01*
X321000Y320000D02*
X333000D01*
D51*
X443500Y117000D02*
D03*
X368000Y458000D02*
D03*
X225000Y480500D02*
D03*
X233500D02*
D03*
X192500Y481000D02*
D03*
X157500Y481500D02*
D03*
X147500D02*
D03*
X127500D02*
D03*
X253000Y481000D02*
D03*
X243000Y480500D02*
D03*
X183000Y481000D02*
D03*
X168000Y481500D02*
D03*
X138000D02*
D03*
X118000Y481000D02*
D03*
D52*
X443500Y146500D02*
D03*
D53*
X397500Y458000D02*
D03*
D54*
X293000Y415500D02*
D03*
Y405500D02*
D03*
X283000Y415500D02*
D03*
Y405500D02*
D03*
X273000Y415500D02*
D03*
Y405500D02*
D03*
X263000Y415500D02*
D03*
Y405500D02*
D03*
X253000Y415500D02*
D03*
Y405500D02*
D03*
X243000Y415500D02*
D03*
Y405500D02*
D03*
X233000Y415500D02*
D03*
Y405500D02*
D03*
X223000Y415500D02*
D03*
Y405500D02*
D03*
X213000Y415500D02*
D03*
Y405500D02*
D03*
X203000Y415500D02*
D03*
Y405500D02*
D03*
X193000Y415500D02*
D03*
Y405500D02*
D03*
X183000Y415500D02*
D03*
Y405500D02*
D03*
X173000Y415500D02*
D03*
Y405500D02*
D03*
X163000Y415500D02*
D03*
Y405500D02*
D03*
X153000Y415500D02*
D03*
Y405500D02*
D03*
X143000Y415500D02*
D03*
Y405500D02*
D03*
X133000Y415500D02*
D03*
Y405500D02*
D03*
X123000Y415500D02*
D03*
Y405500D02*
D03*
X113000Y415500D02*
D03*
X293000Y175500D02*
D03*
Y165500D02*
D03*
X283000Y175500D02*
D03*
Y165500D02*
D03*
X273000Y175500D02*
D03*
Y165500D02*
D03*
X263000Y175500D02*
D03*
Y165500D02*
D03*
X253000Y175500D02*
D03*
Y165500D02*
D03*
X243000Y175500D02*
D03*
Y165500D02*
D03*
X233000Y175500D02*
D03*
Y165500D02*
D03*
X223000Y175500D02*
D03*
Y165500D02*
D03*
X213000Y175500D02*
D03*
Y165500D02*
D03*
X203000Y175500D02*
D03*
Y165500D02*
D03*
X193000Y175500D02*
D03*
Y165500D02*
D03*
X183000Y175500D02*
D03*
Y165500D02*
D03*
X173000Y175500D02*
D03*
Y165500D02*
D03*
X163000Y175500D02*
D03*
Y165500D02*
D03*
X153000Y175500D02*
D03*
Y165500D02*
D03*
X143000Y175500D02*
D03*
Y165500D02*
D03*
X133000Y175500D02*
D03*
Y165500D02*
D03*
X123000Y175500D02*
D03*
Y165500D02*
D03*
X113000Y175500D02*
D03*
D55*
Y405500D02*
D03*
Y165500D02*
D03*
D56*
X472512Y270307D02*
D03*
X511488D02*
D03*
Y283693D02*
D03*
X472512Y372807D02*
D03*
X511488D02*
D03*
Y386193D02*
D03*
Y181193D02*
D03*
Y167807D02*
D03*
X472512D02*
D03*
D57*
Y283693D02*
D03*
Y386193D02*
D03*
Y181193D02*
D03*
D58*
X438000Y465500D02*
D03*
X282500Y125500D02*
D03*
X327000Y466000D02*
D03*
Y125500D02*
D03*
X282500Y465500D02*
D03*
X546000Y380000D02*
D03*
X492000Y464500D02*
D03*
X548000Y465500D02*
D03*
X546000Y175000D02*
D03*
X546500Y278000D02*
D03*
D59*
X325000Y410000D02*
D03*
Y414500D02*
D03*
X293000Y379500D02*
D03*
Y368500D02*
D03*
X290000Y306000D02*
D03*
X285500Y301000D02*
D03*
Y285000D02*
D03*
X292500Y278000D02*
D03*
X307000Y263500D02*
D03*
X312000Y259000D02*
D03*
X259500Y215500D02*
D03*
X276500D02*
D03*
X294000Y250000D02*
D03*
X291000Y201500D02*
D03*
X296000Y197000D02*
D03*
X308000Y202000D02*
D03*
Y208000D02*
D03*
X298500Y245500D02*
D03*
X317000Y205000D02*
D03*
Y209500D02*
D03*
X279000Y265500D02*
D03*
X272500Y272000D02*
D03*
X248000Y368500D02*
D03*
Y374500D02*
D03*
X296000Y295500D02*
D03*
X303000Y288500D02*
D03*
X273000Y368500D02*
D03*
Y379500D02*
D03*
X317500Y171500D02*
D03*
Y166500D02*
D03*
X331500Y171500D02*
D03*
Y166500D02*
D03*
Y205000D02*
D03*
Y209500D02*
D03*
X317000Y307500D02*
D03*
X331500D02*
D03*
Y312000D02*
D03*
X317000D02*
D03*
Y414500D02*
D03*
Y410000D02*
D03*
X317500Y269000D02*
D03*
Y274000D02*
D03*
X331500Y376500D02*
D03*
Y371500D02*
D03*
X317500Y376500D02*
D03*
Y371500D02*
D03*
X331500Y274000D02*
D03*
Y269000D02*
D03*
X442500Y431000D02*
D03*
X459500Y414000D02*
D03*
X434772Y403500D02*
D03*
X463000Y419500D02*
D03*
X442500Y328500D02*
D03*
X459500Y311500D02*
D03*
X434772Y301000D02*
D03*
X463000Y317000D02*
D03*
X347500Y366500D02*
D03*
X333500D02*
D03*
X347500Y264000D02*
D03*
X333500D02*
D03*
X442500Y226000D02*
D03*
X459500Y209000D02*
D03*
X434772Y198500D02*
D03*
X463000Y214500D02*
D03*
X333500Y161500D02*
D03*
X347500D02*
D03*
D60*
X333000Y217500D02*
D03*
X321000D02*
D03*
X333000Y320000D02*
D03*
X321000D02*
D03*
X406500Y411000D02*
D03*
X398500D02*
D03*
X414000D02*
D03*
Y403000D02*
D03*
X362500Y341500D02*
D03*
Y326000D02*
D03*
Y333500D02*
D03*
X414000Y308500D02*
D03*
Y300500D02*
D03*
X406500Y308500D02*
D03*
X398500D02*
D03*
X362500Y239000D02*
D03*
Y223500D02*
D03*
Y231000D02*
D03*
Y121000D02*
D03*
Y136500D02*
D03*
X414000Y198000D02*
D03*
X398500Y206000D02*
D03*
X414000D02*
D03*
X406500D02*
D03*
X362500Y128500D02*
D03*
M02*
