M48
;Layer_Color=9474304
;FILE_FORMAT=2:5
INCH,TZ
;TYPE=PLATED
T1F00S00C0.01300
T2F00S00C0.02800
T3F00S00C0.03000
T4F00S00C0.03500
T5F00S00C0.03543
T6F00S00C0.06299
T7F00S00C0.18000
%
T01
X317500Y166500
Y171500
X331500
Y166500
X333500Y161500
X347500
X331500Y205000
Y209500
X317000
Y205000
X317500Y269000
Y274000
X331500
Y269000
X333500Y264000
X347500
X331500Y307500
Y312000
X317000
Y307500
X434772Y301000
X459500Y311500
X463000Y214500
X459500Y209000
X442500Y226000
X434772Y198500
X308000Y202000
Y208000
X296000Y197000
X291000Y201500
X276500Y215500
X259500
X294000Y250000
X298500Y245500
X307000Y263500
X312000Y259000
X292500Y278000
X285500Y285000
Y301000
X290000Y306000
X296000Y295500
X303000Y288500
X279000Y265500
X272500Y272000
X273000Y368500
Y379500
X293000
Y368500
X248000
Y374500
X317500Y376500
Y371500
X331500
Y376500
X333500Y366500
X347500
X325000Y410000
Y414500
X317000
Y410000
X434772Y403500
X442500Y431000
X463000Y419500
X459500Y414000
X463000Y317000
X442500Y328500
T02
X362500Y121000
Y128500
Y136500
Y223500
Y231000
Y239000
X333000Y217500
X321000
X398500Y206000
X406500
X414000
Y198000
Y300500
Y308500
X406500
X398500
X362500Y326000
Y333500
Y341500
X333000Y320000
X321000
X398500Y411000
X406500
X414000
Y403000
T03
X157500Y481500
X168000
X183000Y481000
X192500
X225000Y480500
X233500
X243000
X253000Y481000
X147500Y481500
X138000
X127500
X118000Y481000
T04
X443500Y117000
Y146500
X397500Y458000
X368000
T05
X163000Y165500
X173000
X183000
X193000
X203000
X213000
X223000
X233000
X243000
X253000
X263000
X273000
X283000
X293000
Y175500
X283000
X273000
X263000
X253000
X243000
X233000
X223000
X213000
X203000
X193000
X183000
X173000
X163000
X153000
Y165500
X143000
Y175500
X133000
Y165500
X123000
Y175500
X113000
Y165500
Y405500
X123000
X133000
X143000
X153000
Y415500
X143000
X133000
X123000
X113000
X163000
X173000
X183000
X193000
X203000
X213000
X223000
X233000
X243000
X253000
X263000
X273000
X283000
X293000
Y405500
X283000
X273000
X263000
X253000
X243000
X233000
X223000
X213000
X203000
X193000
X183000
X173000
X163000
T06
X472512Y167807
Y181193
X511488
Y167807
Y270307
Y283693
X472512
Y270307
Y372807
Y386193
X511488
Y372807
T07
X282500Y125500
X327000
X546000Y175000
X546500Y278000
X282500Y465500
X327000Y466000
X438000Y465500
X492000Y464500
X548000Y465500
X546000Y380000
M30
