G04*
G04 #@! TF.GenerationSoftware,Altium Limited,Altium Designer,19.1.8 (144)*
G04*
G04 Layer_Color=65535*
%FSLAX25Y25*%
%MOIN*%
G70*
G01*
G75*
%ADD10C,0.00984*%
%ADD11C,0.00787*%
%ADD12C,0.01000*%
%ADD13C,0.00600*%
%ADD14C,0.01575*%
G36*
X419012Y308860D02*
Y307360D01*
X418012D01*
Y308860D01*
X419012D01*
D02*
G37*
G36*
Y328545D02*
Y327045D01*
X418012D01*
Y328545D01*
X419012D01*
D02*
G37*
G36*
X445234Y340988D02*
Y341988D01*
X446734D01*
Y340988D01*
X445234D01*
D02*
G37*
G36*
X447203Y289012D02*
Y288012D01*
X448703D01*
Y289012D01*
X447203D01*
D02*
G37*
G36*
X470988Y306892D02*
Y305392D01*
X471988D01*
Y306892D01*
X470988D01*
D02*
G37*
G36*
Y326577D02*
Y325077D01*
X471988D01*
Y326577D01*
X470988D01*
D02*
G37*
G36*
X495639Y545387D02*
X495882Y545339D01*
X495930Y545290D01*
X496076Y545241D01*
X496271Y545096D01*
X496514Y544901D01*
X497000Y544367D01*
Y529152D01*
X498166Y528860D01*
X498264D01*
X498507Y528811D01*
X498847Y528763D01*
X499187Y528617D01*
X499284Y528568D01*
X499479Y528520D01*
X499673Y528422D01*
X499868Y528325D01*
X499916D01*
X499965Y528277D01*
X500159Y528131D01*
X500451Y528034D01*
X500694Y527936D01*
X500743D01*
X500888Y527888D01*
X501083Y527742D01*
X501326Y527548D01*
X501375Y527499D01*
X501472Y527450D01*
X501618Y527353D01*
X501861Y527304D01*
X502104Y527207D01*
X502493Y527110D01*
X502930Y527061D01*
X503076D01*
X503270Y527013D01*
X503513D01*
X504000Y526916D01*
X504486Y526721D01*
X504534D01*
X504583Y526673D01*
X504729Y526575D01*
X504875Y526478D01*
X505118Y526332D01*
X505361Y526138D01*
X505652Y525895D01*
X505993Y525555D01*
X506041Y525506D01*
X506138Y525409D01*
X506333Y525263D01*
X506576Y525068D01*
X507111Y524680D01*
X507402Y524485D01*
X507694Y524388D01*
X507743D01*
X507840Y524339D01*
X508034Y524291D01*
X508229Y524193D01*
X508569Y524096D01*
X508909Y523950D01*
X509298Y523756D01*
X509784Y523513D01*
X509833Y523464D01*
X510027Y523416D01*
X510222Y523270D01*
X510513Y523124D01*
X511145Y522784D01*
X511437Y522638D01*
X511631Y522492D01*
X511680D01*
X511777Y522395D01*
X511923Y522346D01*
X512166Y522249D01*
X512895Y521957D01*
X512944D01*
X512992Y521909D01*
X513235Y521860D01*
X513527Y521811D01*
X513770Y521763D01*
X513819D01*
X513916Y521811D01*
X514062Y521860D01*
X514208Y521957D01*
X514305Y522006D01*
X514499Y522152D01*
X514742Y522346D01*
X515083Y522492D01*
X515131D01*
X515180Y522589D01*
X515374Y522735D01*
X515617Y522929D01*
X515958Y523270D01*
X516395Y523707D01*
X516978Y524339D01*
X517707Y525068D01*
X517756Y525117D01*
X517805Y525166D01*
X518096Y525457D01*
X518485Y525895D01*
X519020Y526430D01*
X519603Y527110D01*
X520235Y527790D01*
X520867Y528520D01*
X521451Y529249D01*
X521499Y529346D01*
X521694Y529540D01*
X521985Y529881D01*
X522326Y530270D01*
X522763Y530756D01*
X523298Y531339D01*
X523881Y531922D01*
X524464Y532506D01*
X524562Y532554D01*
X524756Y532749D01*
X524999Y533040D01*
X525388Y533332D01*
X525728Y533672D01*
X526117Y533964D01*
X526457Y534158D01*
X526749Y534304D01*
X526846Y534353D01*
X526943Y534402D01*
X527138Y534450D01*
X527381Y534547D01*
X527721Y534693D01*
X528110Y534888D01*
X528645Y535082D01*
X528693Y535131D01*
X528936Y535179D01*
X529228Y535325D01*
X529617Y535471D01*
X530103Y535714D01*
X530638Y535908D01*
X531804Y536443D01*
X531853D01*
X531950Y536492D01*
X532145Y536540D01*
X532436Y536589D01*
X532534Y536638D01*
X532728Y536686D01*
X532971Y536735D01*
X533263Y536783D01*
X533311D01*
X533506Y536832D01*
X533798Y536881D01*
X534138Y536978D01*
X534186D01*
X534235Y537026D01*
X534429Y537124D01*
X534721Y537269D01*
X535013Y537464D01*
X535061D01*
X535158Y537561D01*
X535304Y537658D01*
X535547Y537756D01*
X536033Y537999D01*
X536617Y538242D01*
X536665D01*
X536763Y538290D01*
X536908Y538339D01*
X537103Y538436D01*
X537540Y538533D01*
X537929Y538582D01*
X538221D01*
X538415Y538631D01*
X538561Y538679D01*
X538610Y538728D01*
X538756Y538776D01*
X538853D01*
X539047Y538825D01*
X539242Y538874D01*
X539874D01*
X540165Y538922D01*
X544783D01*
X546971Y536249D01*
X547117Y525311D01*
X546485Y524631D01*
X546436Y524582D01*
X546290Y524436D01*
X546096Y524291D01*
X545901Y524096D01*
X545853Y524048D01*
X545755Y523950D01*
X545658Y523853D01*
X545512Y523805D01*
X545464Y523756D01*
X545269Y523659D01*
X544929Y523513D01*
X544540Y523270D01*
X544443Y523221D01*
X544249Y523075D01*
X543908Y522881D01*
X543617Y522686D01*
X543568D01*
X543519Y522638D01*
X543325Y522541D01*
X543082Y522346D01*
X543033Y522298D01*
X542839Y522200D01*
X542596Y522006D01*
X542304Y521763D01*
X542256Y521714D01*
X542110Y521617D01*
X541915Y521423D01*
X541672Y521228D01*
X540992Y520742D01*
X540263Y520207D01*
X540214D01*
X540117Y520110D01*
X539922Y520013D01*
X539679Y519916D01*
X539145Y519624D01*
X538610Y519430D01*
X538561D01*
X538464Y519381D01*
X538318Y519332D01*
X538075Y519235D01*
X537735Y519089D01*
X537346Y518895D01*
X536908Y518652D01*
X536325Y518360D01*
X536277Y518312D01*
X536082Y518214D01*
X535790Y518069D01*
X535499Y517874D01*
X534818Y517437D01*
X534527Y517242D01*
X534332Y517096D01*
X534284Y517048D01*
X534186Y516951D01*
X534089Y516853D01*
Y516756D01*
X534964D01*
X535207Y516659D01*
X535547Y516562D01*
X535596D01*
X535645Y516513D01*
X535888Y516464D01*
X536228Y516319D01*
X536568Y516173D01*
X536665Y516124D01*
X536860Y516027D01*
X537151Y515930D01*
X537443Y515784D01*
X537492D01*
X537686Y515735D01*
X537881Y515687D01*
X538027Y515638D01*
X538075D01*
X538172Y515589D01*
X538415Y515541D01*
X538707Y515444D01*
X540943Y514763D01*
X540992D01*
X541040Y514714D01*
X541332Y514666D01*
X541624Y514569D01*
X541964Y514520D01*
X542013D01*
X542110Y514471D01*
X542256D01*
X542450Y514423D01*
X542985Y514277D01*
X543568Y514034D01*
X543617D01*
X543714Y513985D01*
X543860Y513937D01*
X544103Y513839D01*
X544540Y513694D01*
X545026Y513499D01*
X545075Y513451D01*
X545269Y513353D01*
X545464Y513256D01*
X545610Y513207D01*
X545658D01*
X545755Y513159D01*
X545901Y513110D01*
X546047Y512964D01*
X546096Y512916D01*
X546242Y512819D01*
X546436Y512624D01*
X546679Y512381D01*
X546728Y512333D01*
X546874Y512187D01*
X547068Y511992D01*
X547311Y511798D01*
X547360Y511749D01*
X547506Y511701D01*
X547603Y511603D01*
X547700Y511555D01*
X547749D01*
X547797Y511506D01*
X547943Y511409D01*
X548186Y511263D01*
X548478Y511020D01*
X548867Y510728D01*
X549304Y510339D01*
X549887Y509805D01*
X549985Y509756D01*
X550179Y509562D01*
X550422Y509270D01*
X550762Y508979D01*
X551491Y508201D01*
X551783Y507860D01*
X552026Y507520D01*
X552075Y507423D01*
X552221Y507180D01*
X552415Y506888D01*
X552707Y506548D01*
X552755D01*
Y506499D01*
X552804Y506402D01*
X552853Y506256D01*
X552901Y506013D01*
X552950Y505722D01*
Y505284D01*
Y505235D01*
Y504992D01*
Y504847D01*
X552998Y504604D01*
Y504312D01*
Y504020D01*
Y503583D01*
Y503145D01*
X553047Y502611D01*
Y502027D01*
Y501347D01*
Y500569D01*
Y499694D01*
Y498770D01*
Y491333D01*
X551832Y490118D01*
X547165D01*
X546776Y490166D01*
X546242D01*
X546096Y490215D01*
X545853D01*
X545415Y490264D01*
X545026Y490361D01*
X544929Y490410D01*
X544735Y490458D01*
X544394Y490507D01*
X543908Y490555D01*
X543811D01*
X543519Y490604D01*
X543131Y490653D01*
X542596D01*
X542304Y490701D01*
X541867Y490750D01*
X541332Y490798D01*
X541186D01*
X541040Y490847D01*
X540846D01*
X540408Y490944D01*
X539922Y491041D01*
X539874D01*
X539825Y491090D01*
X539533Y491139D01*
X539145Y491187D01*
X538658Y491284D01*
X538561D01*
X538318Y491333D01*
X538027Y491382D01*
X537540D01*
X537297Y491430D01*
X536957Y491528D01*
X536860Y491576D01*
X536665Y491625D01*
X536374Y491722D01*
X536033Y491819D01*
X535936Y491868D01*
X535742Y491916D01*
X535450Y491965D01*
X535110Y492062D01*
X535061D01*
X534867Y492111D01*
X534624Y492159D01*
X534138D01*
X533895Y492208D01*
X533749Y492305D01*
Y492354D01*
X533652Y492403D01*
X533506Y492451D01*
X533311Y492500D01*
X533263D01*
X533117Y492597D01*
X532874Y492743D01*
X532534Y493034D01*
X532485Y493083D01*
X532436Y493132D01*
X532291Y493229D01*
X532048Y493375D01*
X531756Y493569D01*
X531416Y493763D01*
X530930Y494007D01*
X530395Y494250D01*
X530346Y494298D01*
X530103Y494347D01*
X529811Y494493D01*
X529374Y494638D01*
X528839Y494833D01*
X528304Y495027D01*
X527673Y495222D01*
X526992Y495416D01*
X526895Y495465D01*
X526700Y495513D01*
X526409Y495611D01*
X526068Y495708D01*
X526020Y495756D01*
X525825Y495805D01*
X525582Y495902D01*
X525339Y496000D01*
X525291Y496048D01*
X525096Y496145D01*
X524853Y496194D01*
X524610Y496243D01*
X524562D01*
X524416Y496145D01*
X524270Y496048D01*
X524124Y495902D01*
X523978Y495708D01*
X523784Y495465D01*
Y495416D01*
X523687Y495319D01*
X523589Y495173D01*
X523444Y494930D01*
X523249Y494638D01*
X523006Y494298D01*
X522763Y493861D01*
X522471Y493375D01*
X521742Y492014D01*
Y491965D01*
X521694Y491916D01*
X521548Y491673D01*
X521402Y491382D01*
X521305Y491284D01*
X521256Y491187D01*
X521208Y491139D01*
X521062Y490944D01*
X520916Y490750D01*
X520770Y490507D01*
Y490458D01*
X520721Y490410D01*
X520624Y490215D01*
X520430Y489972D01*
X519117Y488125D01*
X518582Y487298D01*
X518534Y487250D01*
X518437Y487104D01*
X518242Y486812D01*
X517902Y486472D01*
X517805Y486375D01*
X517610Y486180D01*
X517270Y485840D01*
X516833Y485451D01*
X513381Y482583D01*
X513333Y482535D01*
X513235Y482486D01*
X512944Y482243D01*
X512555Y481951D01*
X512409Y481854D01*
X512312Y481757D01*
X512166Y481708D01*
X511923D01*
X511728Y481660D01*
X511194D01*
X510853Y481611D01*
X509881D01*
X509298Y481562D01*
X501909D01*
X501375Y482097D01*
X501326Y482146D01*
X501180Y482292D01*
X501034Y482535D01*
X500937Y482778D01*
Y482826D01*
Y482924D01*
Y483069D01*
Y483264D01*
Y483555D01*
Y483847D01*
Y484236D01*
X501083Y485597D01*
X501229Y486861D01*
Y486909D01*
Y486958D01*
Y487104D01*
X501277Y487347D01*
Y487639D01*
Y488076D01*
X501326Y488611D01*
Y489243D01*
Y489340D01*
Y489583D01*
X501375Y489972D01*
Y490507D01*
Y491139D01*
X501423Y491868D01*
Y492694D01*
Y493569D01*
Y499208D01*
X502250Y499888D01*
X502298Y499937D01*
X502444Y500132D01*
X502638Y500375D01*
X502881Y500666D01*
X502930Y500763D01*
X503076Y500909D01*
X503222Y501201D01*
X503368Y501444D01*
X503416Y501493D01*
X503513Y501638D01*
X503659Y501881D01*
X503805Y502125D01*
X503854Y502173D01*
X503951Y502319D01*
X504048Y502465D01*
X504145Y502611D01*
X504194Y502659D01*
X504388Y502854D01*
X504534Y503145D01*
X504583Y503485D01*
Y503583D01*
X504632Y503777D01*
X504777Y504069D01*
X504972Y504360D01*
X505409Y504798D01*
X503416Y505965D01*
X503368Y506013D01*
X503222Y506062D01*
X502930Y506256D01*
X502590Y506451D01*
X502493Y506499D01*
X502298Y506694D01*
X501958Y506986D01*
X501520Y507326D01*
X501472Y507374D01*
X501423Y507423D01*
X501131Y507666D01*
X500743Y508006D01*
X500208Y508347D01*
X500159D01*
X500111Y508444D01*
X499819Y508638D01*
X499382Y508881D01*
X498944Y509076D01*
X498847Y509124D01*
X498604Y509270D01*
X498264Y509416D01*
X497875Y509610D01*
X497777Y509659D01*
X497632Y509756D01*
X497389Y509902D01*
X497243Y510048D01*
X497194Y510097D01*
X497097Y510145D01*
X496951Y510291D01*
X496708Y510437D01*
X496416Y510680D01*
X496028Y510874D01*
X495590Y511166D01*
X495055Y511409D01*
X495007Y511458D01*
X494812Y511555D01*
X494521Y511652D01*
X494132Y511846D01*
X493743Y512041D01*
X493257Y512187D01*
X492333Y512527D01*
X492236Y512576D01*
X491993Y512624D01*
X491653Y512770D01*
X491215Y512916D01*
X491166D01*
X491118Y512964D01*
X490826Y513110D01*
X490437Y513305D01*
X490000Y513499D01*
X489951D01*
X489854Y513548D01*
X489708Y513645D01*
X489514Y513742D01*
X489028Y513888D01*
X488542Y514034D01*
X488493D01*
X488444Y514082D01*
X488250D01*
X488055Y514131D01*
X487764D01*
X487375Y514180D01*
X484750D01*
X484458Y514228D01*
X484167D01*
X483972Y514326D01*
X483729Y514423D01*
X483486Y514666D01*
X483437Y514714D01*
X483340Y514909D01*
X483194Y515152D01*
X483097Y515395D01*
Y515444D01*
X483049Y515687D01*
Y515881D01*
Y516124D01*
Y516416D01*
Y516756D01*
Y516805D01*
Y516853D01*
X483097Y517194D01*
X483146Y517631D01*
X483194Y518166D01*
X483340Y518749D01*
X483437Y519381D01*
X483632Y519964D01*
X483875Y520450D01*
X484458Y521763D01*
Y521811D01*
X484507Y521860D01*
X484653Y522152D01*
X484847Y522492D01*
X485042Y522832D01*
X485868Y524145D01*
X485917Y524193D01*
X486014Y524388D01*
X486160Y524631D01*
X486306Y524971D01*
X486451Y525360D01*
X486597Y525798D01*
X486694Y526235D01*
X486743Y526673D01*
Y526770D01*
X486792Y526964D01*
X486840Y527207D01*
X486937Y527499D01*
Y527548D01*
X486986Y527645D01*
X487035Y527790D01*
X487132Y528034D01*
X487424Y528811D01*
Y528860D01*
X487472Y529103D01*
X487618Y529395D01*
X487812Y529784D01*
Y529832D01*
X487861Y529881D01*
X488007Y530172D01*
X488250Y530561D01*
X488493Y530999D01*
X488542Y531047D01*
X488687Y531242D01*
X488833Y531485D01*
X489076Y531825D01*
X489465Y532603D01*
X489660Y532992D01*
X489757Y533332D01*
Y533381D01*
X489805Y533478D01*
X489854Y533721D01*
X489903Y534013D01*
X489951Y534402D01*
X490000Y534888D01*
X490048Y535471D01*
X490097Y536152D01*
Y536249D01*
Y536443D01*
Y536686D01*
X490146Y537075D01*
X490194Y537804D01*
Y538144D01*
X490243Y538387D01*
Y538436D01*
Y538485D01*
X490340Y538728D01*
X490437Y539019D01*
X490632Y539262D01*
Y539311D01*
X490680Y539360D01*
X490875Y539651D01*
X491166Y540137D01*
X491507Y540769D01*
Y540818D01*
X491604Y540964D01*
X491701Y541158D01*
X491798Y541450D01*
X491944Y541742D01*
X492041Y542131D01*
X492333Y542957D01*
Y543006D01*
X492382Y543054D01*
X492479Y543346D01*
X492722Y543735D01*
X493014Y544172D01*
X493402Y544610D01*
X493840Y544999D01*
X494423Y545290D01*
X494715Y545339D01*
X495055Y545387D01*
X495153D01*
X495396Y545436D01*
X495639Y545387D01*
D02*
G37*
%LPC*%
G36*
X543325Y535957D02*
X541575Y535908D01*
X541381D01*
X541186Y535860D01*
X540943D01*
X540603Y535811D01*
X540214Y535763D01*
X539339Y535617D01*
X538415Y535422D01*
X537492Y535131D01*
X536617Y534790D01*
X536228Y534547D01*
X535888Y534304D01*
X535839D01*
X535790Y534256D01*
X535596Y534158D01*
X535353Y534061D01*
X535304D01*
X535110Y534013D01*
X534867Y533964D01*
X534527Y533867D01*
X534429D01*
X534235Y533818D01*
X533895Y533721D01*
X533457Y533575D01*
X533360D01*
X533117Y533478D01*
X532825Y533381D01*
X532485Y533235D01*
X530395Y532409D01*
X529520Y532020D01*
X529423Y531971D01*
X529228Y531874D01*
X528936Y531728D01*
X528596Y531582D01*
X528548D01*
X528402Y531533D01*
X528207Y531485D01*
X528013Y531436D01*
X527916D01*
X527673Y531290D01*
X527478Y531145D01*
X527235Y530999D01*
X526943Y530756D01*
X526603Y530415D01*
X526555Y530367D01*
X526457Y530270D01*
X526263Y530075D01*
X526020Y529881D01*
X525534Y529346D01*
X525291Y529054D01*
X525096Y528811D01*
Y528763D01*
X524999Y528665D01*
X524853Y528520D01*
X524659Y528228D01*
X524319Y527790D01*
X523832Y527256D01*
X523249Y526575D01*
X522471Y525749D01*
X522423Y525700D01*
X522374Y525652D01*
X522228Y525506D01*
X522082Y525311D01*
X521645Y524825D01*
X521062Y524242D01*
X520332Y523464D01*
X519603Y522686D01*
X518777Y521811D01*
X517902Y520936D01*
X516492Y519332D01*
X517027Y519138D01*
X517076D01*
X517221Y519089D01*
X517513Y518992D01*
X517707D01*
X517999Y518944D01*
X518291Y518846D01*
X518680Y518798D01*
X519117Y518749D01*
X519603Y518701D01*
X520187Y518603D01*
X520867Y518555D01*
X521596Y518506D01*
X522423Y518409D01*
X523978Y518263D01*
X524124D01*
X524464Y518214D01*
X524853Y518166D01*
X525194Y518069D01*
X525291D01*
X525485Y518020D01*
X525874Y517971D01*
X526360Y517923D01*
X526798D01*
X527235Y517874D01*
X527673D01*
X528985Y517777D01*
X529325D01*
X529617Y517728D01*
X529909D01*
X529957Y517680D01*
X530200Y517631D01*
X530492Y517534D01*
X530735D01*
X530784Y517631D01*
X530930Y517777D01*
X531027Y517971D01*
X531075Y518069D01*
X531124Y518263D01*
X531173Y518457D01*
X531221Y518652D01*
Y518701D01*
X531270Y518798D01*
X531416Y518944D01*
X531610Y519187D01*
X531950Y519478D01*
X532436Y519818D01*
X532777Y520013D01*
X533117Y520256D01*
X533554Y520499D01*
X534040Y520742D01*
X535499Y521471D01*
X536277Y521957D01*
X536374Y522006D01*
X536568Y522152D01*
X536860Y522249D01*
X537200Y522298D01*
X537297D01*
X537540Y522395D01*
X537978Y522589D01*
X538561Y522881D01*
X538610Y522929D01*
X538707Y522978D01*
X538902Y523124D01*
X539145Y523270D01*
X539777Y523756D01*
X540457Y524339D01*
X541283Y525020D01*
X541332Y525068D01*
X541478Y525166D01*
X541624Y525263D01*
X541721Y525311D01*
X541818Y525360D01*
X541964Y525409D01*
X542158Y525506D01*
X542985Y525992D01*
X544151Y526673D01*
X544103Y530756D01*
Y530804D01*
Y530853D01*
Y530999D01*
Y531193D01*
X544054Y531631D01*
Y532214D01*
X544006Y532797D01*
Y533381D01*
X543957Y533915D01*
X543908Y534304D01*
Y534353D01*
Y534450D01*
X543860Y534790D01*
X543811Y535179D01*
X543714Y535325D01*
X543665Y535422D01*
X543325Y535957D01*
D02*
G37*
G36*
X493986Y538436D02*
X493548Y537999D01*
X493500Y537950D01*
X493402Y537853D01*
X493305Y537610D01*
X493208Y537269D01*
Y537221D01*
Y537172D01*
Y537026D01*
X493159Y536783D01*
Y536492D01*
Y536152D01*
X493111Y535665D01*
Y535131D01*
Y535033D01*
X493062Y534839D01*
Y534499D01*
X493014Y534061D01*
X492868Y533138D01*
X492819Y532700D01*
X492722Y532263D01*
Y532214D01*
X492673Y532117D01*
X492625Y531922D01*
X492528Y531679D01*
X492333Y531145D01*
X491993Y530610D01*
X491944Y530561D01*
X491847Y530464D01*
X491701Y530221D01*
X491555Y529929D01*
X491312Y529540D01*
X491069Y529103D01*
X490778Y528568D01*
X490486Y527936D01*
X490437Y527839D01*
X490389Y527645D01*
X490243Y527353D01*
X490146Y526964D01*
X489854Y526089D01*
X489805Y525603D01*
X489757Y525214D01*
Y525166D01*
X489708Y525020D01*
X489660Y524777D01*
X489514Y524436D01*
X489465Y524339D01*
X489368Y524145D01*
X489174Y523805D01*
X488979Y523367D01*
X488930Y523270D01*
X488833Y523075D01*
X488639Y522735D01*
X488444Y522298D01*
X488153Y521811D01*
X487910Y521277D01*
X487326Y520207D01*
X487278Y520159D01*
X487229Y519964D01*
X487083Y519721D01*
X486937Y519430D01*
X486646Y518798D01*
X486549Y518555D01*
X486451Y518312D01*
X486257Y517485D01*
Y517437D01*
Y517388D01*
X486354Y517291D01*
X486549Y517194D01*
X486743D01*
X486889Y517145D01*
X487424D01*
X487812Y517096D01*
X488687D01*
X488979Y517048D01*
X489611Y516999D01*
X489903Y516951D01*
X490146Y516902D01*
X490243D01*
X490486Y516805D01*
X490778Y516708D01*
X491069Y516562D01*
X491118Y516513D01*
X491312Y516416D01*
X491604Y516270D01*
X491993Y516076D01*
X492041D01*
X492090Y516027D01*
X492333Y515930D01*
X492673Y515784D01*
X493111Y515687D01*
X494861Y514958D01*
X494909D01*
X494958Y514909D01*
X495201Y514860D01*
X495541Y514714D01*
X495882Y514617D01*
X495930D01*
X496076Y514520D01*
X496271Y514423D01*
X496562Y514228D01*
X498069Y513256D01*
X498166Y513207D01*
X498361Y513062D01*
X498652Y512867D01*
X498993Y512673D01*
X499090Y512576D01*
X499236Y512478D01*
X499430Y512333D01*
X499479D01*
X499625Y512235D01*
X499819Y512187D01*
X500062Y512089D01*
X500111D01*
X500305Y511992D01*
X500500Y511895D01*
X500791Y511749D01*
X500888Y511701D01*
X501034Y511603D01*
X501277Y511409D01*
X501520Y511214D01*
X501569D01*
X501618Y511117D01*
X501812Y510923D01*
X502055Y510728D01*
X502298Y510583D01*
X502347D01*
X502493Y510485D01*
X502833Y510291D01*
X503027Y510097D01*
X503270Y509902D01*
X503319Y509853D01*
X503513Y509708D01*
X503757Y509513D01*
X504097Y509270D01*
X504534Y508979D01*
X505020Y508638D01*
X506090Y507958D01*
X506138Y507909D01*
X506333Y507812D01*
X506625Y507715D01*
X506916Y507569D01*
X507597Y507277D01*
X507888Y507180D01*
X508083D01*
X508131Y507229D01*
X508229Y507326D01*
X508374Y507520D01*
X508617Y507812D01*
X509687Y509027D01*
X509735Y509124D01*
X509930Y509319D01*
X510124Y509562D01*
X510270Y509853D01*
X510319Y509902D01*
X510367Y510145D01*
X510465Y510437D01*
X510513Y510826D01*
Y510923D01*
X510562Y511117D01*
X510659Y511458D01*
X510853Y511798D01*
X511048Y512187D01*
X511340Y512527D01*
X511728Y512770D01*
X512215Y512867D01*
X512312D01*
X512506Y512819D01*
X512798Y512721D01*
X513138Y512478D01*
X513430Y512138D01*
X513527Y511895D01*
X513624Y511603D01*
X513673Y511263D01*
Y510826D01*
X513624Y510388D01*
X513527Y509853D01*
Y509805D01*
X513479Y509708D01*
Y509562D01*
X513430Y509367D01*
X513284Y508881D01*
X513041Y508395D01*
Y508347D01*
X512992Y508298D01*
X512895Y508152D01*
X512749Y507958D01*
X512604Y507763D01*
X512360Y507472D01*
X512117Y507131D01*
X511777Y506791D01*
X510610Y505430D01*
X511048Y505333D01*
X511097D01*
X511242Y505284D01*
X511485Y505235D01*
X511777Y505090D01*
X512701Y504652D01*
X512798Y504604D01*
X512992Y504506D01*
X513333Y504409D01*
X513673Y504215D01*
X513722D01*
X513770Y504166D01*
X513965Y504117D01*
X514256Y504069D01*
X514499Y504020D01*
X514548D01*
X514597Y503972D01*
X514888Y503874D01*
X515180Y503729D01*
X515423Y503534D01*
X515472Y503485D01*
X515617Y503388D01*
X515812Y503291D01*
X516055Y503145D01*
X516735Y502805D01*
X516833Y502756D01*
X517027Y502659D01*
X517367Y502513D01*
X517756Y502319D01*
X517805D01*
X517853Y502270D01*
X518096Y502222D01*
X518339Y502125D01*
X518582Y502076D01*
X518680D01*
X518826Y502027D01*
X519069Y501979D01*
X519360Y501833D01*
X519798Y501687D01*
X520284Y501444D01*
X520916Y501152D01*
X520964D01*
X521013Y501104D01*
X521256Y501055D01*
X521645Y500909D01*
X522082Y500812D01*
X522277D01*
X522471Y500861D01*
X522666Y501006D01*
X522714Y501055D01*
X522812Y501152D01*
X522909Y501298D01*
X523055Y501541D01*
X523249Y501784D01*
X523492Y502173D01*
X523784Y502611D01*
Y502659D01*
X523832Y502756D01*
X523930Y502902D01*
X524027Y503097D01*
X524319Y503583D01*
X524610Y504215D01*
X524950Y504895D01*
X525194Y505624D01*
X525388Y506354D01*
X525485Y506986D01*
Y507034D01*
Y507180D01*
X525534Y507374D01*
X525631Y507520D01*
X525680Y507569D01*
X525728Y507617D01*
X525777Y507763D01*
X525825Y507958D01*
Y508006D01*
X525923Y508201D01*
X526117Y508444D01*
X526360Y508735D01*
X526457Y508784D01*
X526652Y508930D01*
X526943Y509076D01*
X527332Y509124D01*
X527381D01*
X527575Y509076D01*
X527818Y509027D01*
X528110Y508881D01*
X528353Y508687D01*
X528596Y508347D01*
X528791Y507909D01*
X528839Y507326D01*
Y507277D01*
Y507083D01*
X528791Y506840D01*
X528742Y506597D01*
Y506548D01*
X528693Y506451D01*
X528645Y506305D01*
X528596Y506208D01*
X528548Y506062D01*
X528499Y505867D01*
X528450Y505673D01*
Y505478D01*
Y505430D01*
Y505381D01*
Y505138D01*
X528353Y504895D01*
X528256Y504701D01*
X528207Y504604D01*
X528159Y504458D01*
X528110Y504263D01*
Y504215D01*
X528061Y504020D01*
X528013Y503729D01*
X527818Y503340D01*
Y503291D01*
X527770Y503242D01*
X527624Y502999D01*
X527429Y502611D01*
X527186Y502173D01*
X526166Y500569D01*
Y500520D01*
X526117Y500423D01*
X525971Y500132D01*
X525777Y499791D01*
X525680Y499500D01*
Y499451D01*
Y499354D01*
Y499257D01*
X525825Y499208D01*
X525874D01*
X526068Y499159D01*
X526311Y499062D01*
X526700Y498868D01*
X526749D01*
X526798Y498819D01*
X527041Y498722D01*
X527381Y498576D01*
X527624Y498527D01*
X527721D01*
X527867Y498479D01*
X528061Y498430D01*
X528353Y498333D01*
X528693Y498236D01*
X529179Y498090D01*
X529714Y497895D01*
X529811D01*
X530006Y497798D01*
X530298Y497701D01*
X530686Y497555D01*
X531124Y497409D01*
X531561Y497263D01*
X532048Y497069D01*
X532485Y496875D01*
X532582Y496826D01*
X532777Y496680D01*
X533020Y496534D01*
X533311Y496340D01*
X533360Y496291D01*
X533554Y496194D01*
X533749Y496048D01*
X533895Y495902D01*
X533992Y495854D01*
X534138Y495708D01*
X534381Y495611D01*
X534624Y495513D01*
X534770D01*
X534915Y495416D01*
X535061Y495319D01*
X535110D01*
X535207Y495270D01*
X535402Y495222D01*
X535742Y495173D01*
X535888D01*
X536082Y495125D01*
X536325Y495027D01*
X536422D01*
X536617Y494979D01*
X536860Y494882D01*
X537151Y494736D01*
X537249D01*
X537443Y494638D01*
X537735Y494590D01*
X538124Y494493D01*
X538221D01*
X538464Y494444D01*
X538804Y494395D01*
X539631D01*
X540020Y494298D01*
X540214Y494250D01*
X540311Y494201D01*
X540360Y494152D01*
X540457D01*
X540554Y494104D01*
X540749Y494007D01*
X540992Y493958D01*
X541283Y493909D01*
X541672Y493812D01*
X541867D01*
X542110Y493763D01*
X542401D01*
X542790Y493715D01*
X543179D01*
X544103Y493666D01*
X544492D01*
X544832Y493618D01*
X545269Y493569D01*
X545367D01*
X545610Y493520D01*
X545901Y493472D01*
X546144Y493423D01*
X546193D01*
X546387Y493375D01*
X546679Y493277D01*
X547068Y493180D01*
X547165D01*
X547506Y493132D01*
X547943Y493083D01*
X550033D01*
Y498916D01*
Y498965D01*
Y499062D01*
Y499257D01*
Y499500D01*
Y499791D01*
Y500132D01*
Y500909D01*
Y501687D01*
Y502513D01*
X549985Y503242D01*
Y503534D01*
Y503777D01*
Y503826D01*
Y503972D01*
Y504166D01*
X549936Y504409D01*
Y504604D01*
X549887Y504798D01*
X549839Y504944D01*
X549742Y504992D01*
X549693Y505041D01*
X549644Y505187D01*
X549547Y505381D01*
X549450Y505576D01*
Y505624D01*
X549401Y505722D01*
X549304Y505867D01*
X549158Y506062D01*
X548964Y506256D01*
X548672Y506597D01*
X548332Y506937D01*
X548283Y506986D01*
X548137Y507131D01*
X547943Y507326D01*
X547700Y507569D01*
X547117Y508152D01*
X546485Y508687D01*
X545707Y509173D01*
X545026Y509805D01*
X544929Y509902D01*
X544783Y509951D01*
X544589Y510097D01*
X544346Y510242D01*
X544054Y510388D01*
X543714Y510583D01*
X543276Y510777D01*
X543228Y510826D01*
X543082Y510874D01*
X542839Y510971D01*
X542547Y511069D01*
X542207Y511214D01*
X541818Y511312D01*
X540943Y511506D01*
X539922Y511749D01*
X538756Y512187D01*
X538658Y512235D01*
X538415Y512284D01*
X538124Y512430D01*
X537735Y512527D01*
X537638Y512576D01*
X537492Y512624D01*
X537249Y512673D01*
X536908D01*
X536714Y512721D01*
X536471Y512770D01*
X536422Y512819D01*
X536228Y512867D01*
X535936Y512964D01*
X535645Y513110D01*
X535596Y513159D01*
X535353Y513256D01*
X535013Y513402D01*
X534527Y513548D01*
X534478D01*
X534429Y513596D01*
X534284D01*
X534089Y513645D01*
X533603Y513791D01*
X533068Y513888D01*
X531367Y514180D01*
X529714Y514520D01*
X529666D01*
X529617Y514569D01*
X529471D01*
X529277Y514617D01*
X528791Y514714D01*
X528159Y514812D01*
X528013D01*
X527867Y514860D01*
X527673D01*
X527186Y514909D01*
X525825D01*
X525291Y514958D01*
X525194D01*
X524902Y515006D01*
X524513Y515055D01*
X524173Y515103D01*
X524076D01*
X523832Y515152D01*
X523444Y515201D01*
X522909Y515249D01*
X521305Y515444D01*
X521159D01*
X521013Y515492D01*
X520819D01*
X520332Y515541D01*
X519701Y515638D01*
X518971Y515687D01*
X518291Y515784D01*
X517610Y515881D01*
X517027Y515978D01*
X516978D01*
X516833Y516027D01*
X516589Y516076D01*
X516298Y516124D01*
X515763Y516270D01*
X515569Y516367D01*
X515423Y516464D01*
X515374Y516513D01*
X515277Y516610D01*
X515131Y516708D01*
X514937Y516756D01*
X514888D01*
X514742Y516853D01*
X514451Y517048D01*
X514208Y517145D01*
X513965Y517339D01*
X513916Y517388D01*
X513867Y517437D01*
X513527Y517680D01*
X513187Y517971D01*
X512798Y518312D01*
X512749Y518360D01*
X512555Y518555D01*
X512312Y518701D01*
X512117Y518749D01*
X512069D01*
X511972Y518798D01*
X511777Y518846D01*
X511534Y518944D01*
X510951Y519235D01*
X509784Y519916D01*
X509735Y519964D01*
X509590Y520013D01*
X509347Y520159D01*
X509006Y520305D01*
X508277Y520693D01*
X507499Y521034D01*
X507451D01*
X507354Y521131D01*
X507159Y521180D01*
X506965Y521277D01*
X506479Y521471D01*
X506284Y521568D01*
X506138Y521617D01*
X506090D01*
X505993Y521666D01*
X505750Y521763D01*
X505458Y521957D01*
X505361Y522006D01*
X505166Y522200D01*
X504826Y522443D01*
X504437Y522784D01*
X504388Y522832D01*
X504291Y522929D01*
X504145Y523075D01*
X503951Y523221D01*
X503513Y523561D01*
X503319Y523707D01*
X503125Y523805D01*
X503076Y523853D01*
X502833Y523902D01*
X502444Y523999D01*
X501909Y524048D01*
X501763D01*
X501618Y524096D01*
X501423Y524145D01*
X500986Y524193D01*
X500548Y524339D01*
X500451Y524388D01*
X500208Y524485D01*
X499868Y524680D01*
X499382Y524971D01*
X499333Y525020D01*
X499187Y525068D01*
X498944Y525214D01*
X498701Y525360D01*
X498069Y525652D01*
X497777Y525749D01*
X497486Y525846D01*
X497437D01*
X497389Y525895D01*
X497097D01*
X496757Y525846D01*
X496611Y525798D01*
X496465Y525652D01*
X496416Y525603D01*
X496222Y525506D01*
X495930Y525360D01*
X495493Y525311D01*
X495396D01*
X495153Y525360D01*
X494812Y525457D01*
X494472Y525700D01*
X493986Y526138D01*
Y538436D01*
D02*
G37*
G36*
X508229Y502854D02*
X507937D01*
X507694Y502756D01*
X507548Y502513D01*
Y502465D01*
X507499Y502270D01*
X507402Y502027D01*
X507256Y501784D01*
Y501736D01*
X507159Y501638D01*
X507062Y501493D01*
X506916Y501298D01*
X506625Y500763D01*
Y500715D01*
X506576Y500666D01*
X506430Y500375D01*
X506236Y499986D01*
X505993Y499645D01*
X505944Y499548D01*
X505798Y499354D01*
X505555Y499013D01*
X505215Y498527D01*
X504486Y497701D01*
X504388Y491382D01*
X504291Y486958D01*
Y486861D01*
Y486666D01*
Y486326D01*
X504243Y485986D01*
Y485597D01*
X504194Y485257D01*
X504145Y484965D01*
X504097Y484819D01*
Y484771D01*
Y484722D01*
X504145Y484674D01*
X504243Y484625D01*
X504388Y484576D01*
X504583Y484528D01*
X506770D01*
X507597Y484576D01*
X510610D01*
X510902Y484625D01*
X511194Y484722D01*
X511291Y484771D01*
X511340Y484819D01*
X511388Y484868D01*
X511485Y484965D01*
X511631Y485014D01*
X511777Y485062D01*
X511826D01*
X511923Y485160D01*
X512117Y485257D01*
X512312Y485500D01*
X512360Y485548D01*
X512458Y485694D01*
X512652Y485889D01*
X512944Y486180D01*
X512992D01*
X513041Y486278D01*
X513284Y486472D01*
X513673Y486764D01*
X514110Y487104D01*
X514159Y487153D01*
X514208Y487201D01*
X514499Y487444D01*
X514888Y487784D01*
X515277Y488125D01*
X515326Y488173D01*
X515374Y488222D01*
X515569Y488416D01*
X515763Y488708D01*
X515909Y488951D01*
Y489000D01*
X515958Y489048D01*
X516055Y489243D01*
X516201Y489437D01*
X516347Y489583D01*
X516395Y489632D01*
X516492Y489729D01*
X516638Y489923D01*
X516930Y490264D01*
Y490312D01*
X517027Y490410D01*
X517124Y490555D01*
X517270Y490750D01*
X517464Y491041D01*
X517659Y491430D01*
X517951Y491868D01*
X518242Y492354D01*
X520041Y495513D01*
X520089Y495611D01*
X520187Y495805D01*
X520332Y496000D01*
X520527Y496194D01*
X520576Y496243D01*
X520673Y496388D01*
X520770Y496583D01*
X520819Y496777D01*
Y496826D01*
X520867Y496923D01*
X520964Y497069D01*
X521110Y497215D01*
X521208Y497263D01*
X521305Y497361D01*
Y497458D01*
Y497555D01*
X521208Y497652D01*
X521013Y497750D01*
X520964D01*
X520867Y497798D01*
X520673Y497895D01*
X520332Y498041D01*
X519895Y498236D01*
X519263Y498430D01*
X518874Y498576D01*
X518437Y498722D01*
X517951Y498868D01*
X517416Y499062D01*
X517367D01*
X517319Y499111D01*
X517173Y499159D01*
X516978Y499208D01*
X516492Y499354D01*
X515958Y499597D01*
X515909D01*
X515860Y499645D01*
X515520Y499791D01*
X515180Y499986D01*
X514791Y500180D01*
X514742Y500229D01*
X514548Y500375D01*
X514256Y500520D01*
X513965Y500715D01*
X513916Y500763D01*
X513722Y500861D01*
X513479Y500958D01*
X513284Y501006D01*
X513235D01*
X513138Y501055D01*
X512895Y501152D01*
X512652Y501250D01*
X511826Y501590D01*
X511777D01*
X511680Y501687D01*
X511485Y501784D01*
X511242Y501881D01*
X510951Y502027D01*
X510659Y502125D01*
X509881Y502416D01*
X509833D01*
X509687Y502465D01*
X509492Y502562D01*
X509298Y502611D01*
X508715Y502756D01*
X508229Y502854D01*
D02*
G37*
%LPD*%
D10*
X418405Y184114D02*
G03*
X418405Y184114I-492J0D01*
G01*
X403406D02*
G03*
X403406Y184114I-492J0D01*
G01*
X408405Y563535D02*
G03*
X408405Y563535I-492J0D01*
G01*
X419508Y389311D02*
G03*
X419508Y389311I-492J0D01*
G01*
X693504Y278110D02*
G03*
X693504Y278110I-492J0D01*
G01*
Y418110D02*
G03*
X693504Y418110I-492J0D01*
G01*
Y558110D02*
G03*
X693504Y558110I-492J0D01*
G01*
D11*
X516732Y188500D02*
G03*
X516732Y191500I0J1500D01*
G01*
X481732Y188500D02*
G03*
X481732Y191500I0J1500D01*
G01*
X446732Y188500D02*
G03*
X446732Y191500I0J1500D01*
G01*
X517638Y99488D02*
G03*
X514902Y96752I0J-2736D01*
G01*
X512146Y75886D02*
G03*
X514882Y78622I0J2736D01*
G01*
X445098Y96752D02*
G03*
X442362Y99488I-2736J0D01*
G01*
X445118Y78622D02*
G03*
X447854Y75886I2736J0D01*
G01*
X448500Y463232D02*
G03*
X446500Y463232I-1000J0D01*
G01*
X514882Y648287D02*
G03*
X512146Y651024I-2736J0D01*
G01*
X514902Y630158D02*
G03*
X517638Y627421I2736J0D01*
G01*
X447854Y651024D02*
G03*
X445118Y648287I0J-2736D01*
G01*
X442362Y627421D02*
G03*
X445098Y630158I0J2736D01*
G01*
X431500Y542921D02*
G03*
X433500Y542921I1000J0D01*
G01*
X595226Y263000D02*
G03*
X597726Y263000I1250J0D01*
G01*
X644658Y323750D02*
G03*
X644658Y326250I0J1250D01*
G01*
X595226Y403000D02*
G03*
X597726Y403000I1250J0D01*
G01*
X644658Y463750D02*
G03*
X644658Y466250I0J1250D01*
G01*
Y603750D02*
G03*
X644658Y606250I0J1250D01*
G01*
X595226Y543000D02*
G03*
X597726Y543000I1250J0D01*
G01*
X453929Y381858D02*
X475142Y403071D01*
X468071Y410142D02*
X475142Y403071D01*
X446858Y388929D02*
X468071Y410142D01*
X446858Y388929D02*
X453929Y381858D01*
X392500Y257500D02*
X402500D01*
X392500Y267500D02*
X402500D01*
X399213Y323622D02*
X400787D01*
X399213Y326378D02*
X400787D01*
X399213Y316122D02*
X400787D01*
X399213Y318878D02*
X400787D01*
X486500Y269000D02*
X488500Y271000D01*
X486500Y268000D02*
X488500D01*
X486500Y272000D02*
X488500D01*
X486500Y279000D02*
X488500Y281000D01*
X486500Y278000D02*
X488500D01*
X486500Y282000D02*
X488500D01*
X486500Y289000D02*
X488500Y291000D01*
X486500Y288000D02*
X488500D01*
X486500Y292000D02*
X488500D01*
X486500Y298500D02*
X488500Y300500D01*
X486500Y297500D02*
X488500D01*
X486500Y301500D02*
X488500D01*
X486500Y309000D02*
X488500Y311000D01*
X486500Y308000D02*
X488500D01*
X486500Y312000D02*
X488500D01*
X486500Y319000D02*
X488500Y321000D01*
X486500Y318000D02*
X488500D01*
X486500Y322000D02*
X488500D01*
X486500Y329000D02*
X488500Y331000D01*
X486500Y328000D02*
X488500D01*
X486500Y332000D02*
X488500D01*
X486500Y339000D02*
X488500Y341000D01*
X486500Y338000D02*
X488500D01*
X486500Y342000D02*
X488500D01*
X486500Y349000D02*
X488500Y351000D01*
X486500Y348000D02*
X488500D01*
X486500Y352000D02*
X488500D01*
X486500Y359000D02*
X488500Y361000D01*
X486500Y358000D02*
X488500D01*
X486500Y362000D02*
X488500D01*
X486500Y369000D02*
X488500Y371000D01*
X486500Y368000D02*
X488500D01*
X486500Y372000D02*
X488500D01*
X486500Y379000D02*
X488500Y381000D01*
X486500Y378000D02*
X488500D01*
X486500Y382000D02*
X488500D01*
X486500Y389000D02*
X488500Y391000D01*
X486500Y388000D02*
X488500D01*
X486500Y392000D02*
X488500D01*
X486500Y399000D02*
X488500Y401000D01*
X486500Y398000D02*
X488500D01*
X486500Y402000D02*
X488500D01*
X486500Y409000D02*
X488500Y411000D01*
X486500Y408000D02*
X488500D01*
X486500Y412000D02*
X488500D01*
X486500Y419000D02*
X488500Y421000D01*
X486500Y418000D02*
X488500D01*
X486500Y422000D02*
X488500D01*
X486500Y429000D02*
X488500Y431000D01*
X486500Y428000D02*
X488500D01*
X486500Y432000D02*
X488500D01*
X486500Y439000D02*
X488500Y441000D01*
X486500Y438000D02*
X488500D01*
X486500Y442000D02*
X488500D01*
X426378Y351713D02*
Y353287D01*
X423622Y351713D02*
Y353287D01*
X495000Y457500D02*
X505000D01*
X495000D02*
Y477500D01*
X505000D01*
Y457500D02*
Y477500D01*
X392500Y500000D02*
Y510000D01*
Y337500D02*
Y347500D01*
Y420000D02*
Y430000D01*
X382500Y337500D02*
Y347500D01*
X402500D01*
Y337500D02*
Y347500D01*
X382500Y337500D02*
X402500D01*
X382500Y420000D02*
Y430000D01*
X402500D01*
Y420000D02*
Y430000D01*
X382500Y420000D02*
X402500D01*
X382500Y500000D02*
Y510000D01*
X402500D01*
Y500000D02*
Y510000D01*
X382500Y500000D02*
X402500D01*
X406791Y163445D02*
X407677D01*
X406791Y181555D02*
X407677D01*
X417323Y163445D02*
X418209D01*
X417323Y181555D02*
X418209D01*
X406791Y163445D02*
Y181555D01*
X418209Y163445D02*
Y181555D01*
X391791Y163445D02*
X392677D01*
X391791Y181555D02*
X392677D01*
X402323Y163445D02*
X403209D01*
X402323Y181555D02*
X403209D01*
X391791Y163445D02*
Y181555D01*
X403209Y163445D02*
Y181555D01*
X421713Y273878D02*
X423287D01*
X421713Y271122D02*
X423287D01*
X502500Y195000D02*
X512500D01*
X467500D02*
X477500D01*
X432500D02*
X442500D01*
X516732Y199449D02*
X516949D01*
X516732Y191484D02*
Y199449D01*
Y180551D02*
Y188516D01*
X528051Y199449D02*
X528268D01*
Y180551D02*
Y199449D01*
X516732Y180551D02*
X516949D01*
X528051D02*
X528268D01*
X481732Y199449D02*
X481949D01*
X481732Y191484D02*
Y199449D01*
Y180551D02*
Y188516D01*
X493051Y199449D02*
X493268D01*
Y180551D02*
Y199449D01*
X481732Y180551D02*
X481949D01*
X493051D02*
X493268D01*
X512500Y175000D02*
Y205000D01*
X502500D02*
X512500D01*
X502500Y175000D02*
Y205000D01*
Y175000D02*
X512500D01*
X477500D02*
Y205000D01*
X467500D02*
X477500D01*
X467500Y175000D02*
Y205000D01*
Y175000D02*
X477500D01*
X442500D02*
Y205000D01*
X432500D02*
X442500D01*
X432500Y175000D02*
Y205000D01*
Y175000D02*
X442500D01*
X446732Y199449D02*
X446949D01*
X446732Y191484D02*
Y199449D01*
Y180551D02*
Y188516D01*
X458051Y199449D02*
X458268D01*
Y180551D02*
Y199449D01*
X446732Y180551D02*
X446949D01*
X458051D02*
X458268D01*
X495000Y450000D02*
X515000D01*
X495000Y270000D02*
X515000D01*
X495000D02*
Y450000D01*
X515000Y270000D02*
Y450000D01*
X419370Y111319D02*
X540630D01*
X419370Y99508D02*
Y148327D01*
X540630Y99508D02*
Y148327D01*
X447854Y75886D02*
X512146D01*
X419370Y148327D02*
X540630D01*
X452441Y111319D02*
Y148327D01*
X419370Y99508D02*
X540630D01*
X507559Y111319D02*
Y148327D01*
X514902Y78642D02*
Y96752D01*
X445098Y78642D02*
Y96752D01*
X436122Y211713D02*
Y213287D01*
X438878Y211713D02*
Y213287D01*
X516378Y166713D02*
Y168287D01*
X513622Y166713D02*
Y168287D01*
X501378Y166713D02*
Y168287D01*
X498622Y166713D02*
Y168287D01*
X481378Y166713D02*
Y168287D01*
X478622Y166713D02*
Y168287D01*
X466378Y166713D02*
Y168287D01*
X463622Y166713D02*
Y168287D01*
X446378Y166713D02*
Y168287D01*
X443622Y166713D02*
Y168287D01*
X431378Y166713D02*
Y168287D01*
X428622Y166713D02*
Y168287D01*
X518898Y163622D02*
Y167953D01*
X522244D01*
X531102Y163622D02*
Y167953D01*
X527756D02*
X531102D01*
X524000Y162000D02*
X526000D01*
X483898Y163622D02*
Y167953D01*
X487244D01*
X496102Y163622D02*
Y167953D01*
X492756D02*
X496102D01*
X489000Y162000D02*
X491000D01*
X448898Y163622D02*
Y167953D01*
X452244D01*
X461102Y163622D02*
Y167953D01*
X457756D02*
X461102D01*
X454000Y162000D02*
X456000D01*
X454173Y445378D02*
X455748D01*
X454173Y442622D02*
X455748D01*
X454173Y457854D02*
X455748D01*
X454173Y460610D02*
X455748D01*
X444000Y463232D02*
X446500D01*
X448500D02*
X451000D01*
X444000Y475232D02*
X451000D01*
X400858Y494354D02*
Y495142D01*
X433142Y494354D02*
Y495142D01*
X400858Y462858D02*
Y463646D01*
X433142Y462858D02*
Y463646D01*
X400858Y495142D02*
X433142D01*
X400858Y462858D02*
X433142D01*
X513622Y211713D02*
Y213287D01*
X516378Y211713D02*
Y213287D01*
X506122Y211713D02*
Y213287D01*
X508878Y211713D02*
Y213287D01*
X478622Y211713D02*
Y213287D01*
X481378Y211713D02*
Y213287D01*
X471122Y211713D02*
Y213287D01*
X473878Y211713D02*
Y213287D01*
X443622Y211713D02*
Y213287D01*
X446378Y211713D02*
Y213287D01*
X627000Y264000D02*
Y284000D01*
Y404000D02*
Y424000D01*
Y544000D02*
Y564000D01*
X574213Y251122D02*
X575787D01*
X574213Y253878D02*
X575787D01*
X574213Y261122D02*
X575787D01*
X574213Y263878D02*
X575787D01*
X574213Y391122D02*
X575787D01*
X574213Y393878D02*
X575787D01*
X574213Y401122D02*
X575787D01*
X574213Y403878D02*
X575787D01*
X574213Y531122D02*
X575787D01*
X574213Y533878D02*
X575787D01*
X574213Y541122D02*
X575787D01*
X574213Y543878D02*
X575787D01*
X637000Y544000D02*
Y564000D01*
X617000D02*
X637000D01*
X617000Y544000D02*
X637000D01*
X617000D02*
Y564000D01*
X637000Y404000D02*
Y424000D01*
X617000D02*
X637000D01*
X617000Y404000D02*
X637000D01*
X617000D02*
Y424000D01*
X637000Y264000D02*
Y284000D01*
X617000D02*
X637000D01*
X617000Y264000D02*
X637000D01*
X617000D02*
Y284000D01*
X515000Y270000D02*
Y277500D01*
Y270000D02*
X525000D01*
Y450000D01*
X515000D02*
X525000D01*
X515000Y277500D02*
Y450000D01*
X514902Y630158D02*
Y648268D01*
X445098Y630158D02*
Y648268D01*
X452441Y578583D02*
Y615590D01*
X419370Y627402D02*
X540630D01*
X507559Y578583D02*
Y615590D01*
X419370Y578583D02*
X540630D01*
X447854Y651024D02*
X512146D01*
X419370Y578583D02*
Y627402D01*
X540630Y578583D02*
Y627402D01*
X419370Y615590D02*
X540630D01*
X408209Y542866D02*
Y560976D01*
X396791Y542866D02*
Y560976D01*
X407323D02*
X408209D01*
X407323Y542866D02*
X408209D01*
X396791Y560976D02*
X397677D01*
X396791Y542866D02*
X397677D01*
X478642Y510780D02*
Y511567D01*
X446358Y510780D02*
Y511567D01*
X478642Y542276D02*
Y543063D01*
X446358Y542276D02*
Y543063D01*
Y510780D02*
X478642D01*
X446358Y543063D02*
X478642D01*
X424213Y560543D02*
X425787D01*
X424213Y563299D02*
X425787D01*
X424213Y548299D02*
X425787D01*
X424213Y545543D02*
X425787D01*
X429000Y530921D02*
X436000D01*
X429000Y542921D02*
X431500D01*
X433500D02*
X436000D01*
X446000Y256500D02*
X458000D01*
X446000Y241000D02*
X458000D01*
X444000Y246000D02*
Y251500D01*
X460000Y246000D02*
Y251500D01*
X401398Y415689D02*
X413602D01*
X401398Y389311D02*
X413602D01*
X401398D02*
Y415689D01*
X413602Y389311D02*
Y415689D01*
X468878Y274213D02*
Y275787D01*
X466122Y274213D02*
Y275787D01*
X453878Y269213D02*
Y270787D01*
X451122Y269213D02*
Y270787D01*
X409213Y306622D02*
X410787D01*
X409213Y309378D02*
X410787D01*
X421713Y256122D02*
X423287D01*
X421713Y258878D02*
X423287D01*
X421713Y241122D02*
X423287D01*
X421713Y243878D02*
X423287D01*
X409213Y236122D02*
X410787D01*
X409213Y238878D02*
X410787D01*
X426122Y404213D02*
Y405787D01*
X428878Y404213D02*
Y405787D01*
X623429Y227933D02*
X636571D01*
X623429Y207067D02*
X636571D01*
X619547Y253425D02*
Y256575D01*
X625453Y253425D02*
Y256575D01*
X581398Y271398D02*
Y283602D01*
X610728Y271398D02*
X612500Y273169D01*
X610728Y283602D02*
X612500Y281831D01*
Y273169D02*
Y281831D01*
X581398Y271398D02*
X591634D01*
X581398Y283602D02*
X591634D01*
X601083D02*
X610728D01*
X601083Y271398D02*
X610728D01*
X681004Y249252D02*
Y275748D01*
X743996Y249252D02*
Y275748D01*
X681004Y249252D02*
X743996D01*
X681004Y275748D02*
X743996D01*
X588953Y242000D02*
X603953D01*
X597726Y263000D02*
X603953D01*
X588953D02*
X595226D01*
X683622Y289213D02*
Y290787D01*
X686378Y289213D02*
Y290787D01*
X673622Y309665D02*
Y311240D01*
X676378Y309665D02*
Y311240D01*
X572713Y276122D02*
X574287D01*
X572713Y278878D02*
X574287D01*
X634213Y253622D02*
X635787D01*
X634213Y256378D02*
X635787D01*
X634213Y286122D02*
X635787D01*
X634213Y288878D02*
X635787D01*
X665500Y317000D02*
Y333000D01*
X644657Y317000D02*
Y323750D01*
Y326250D02*
Y333000D01*
X623429Y367933D02*
X636571D01*
X623429Y347067D02*
X636571D01*
X619547Y393425D02*
Y396575D01*
X625453Y393425D02*
Y396575D01*
X581398Y411398D02*
Y423602D01*
X610728Y411398D02*
X612500Y413169D01*
X610728Y423602D02*
X612500Y421831D01*
Y413169D02*
Y421831D01*
X581398Y411398D02*
X591634D01*
X581398Y423602D02*
X591634D01*
X601083D02*
X610728D01*
X601083Y411398D02*
X610728D01*
X681004Y389252D02*
Y415748D01*
X743996Y389252D02*
Y415748D01*
X681004Y389252D02*
X743996D01*
X681004Y415748D02*
X743996D01*
X588953Y382000D02*
X603953D01*
X597726Y403000D02*
X603953D01*
X588953D02*
X595226D01*
X683622Y429213D02*
Y430787D01*
X686378Y429213D02*
Y430787D01*
X673622Y449665D02*
Y451240D01*
X676378Y449665D02*
Y451240D01*
X572713Y416122D02*
X574287D01*
X572713Y418878D02*
X574287D01*
X634213Y393622D02*
X635787D01*
X634213Y396378D02*
X635787D01*
X634213Y426122D02*
X635787D01*
X634213Y428878D02*
X635787D01*
X665500Y457000D02*
Y473000D01*
X644657Y457000D02*
Y463750D01*
Y466250D02*
Y473000D01*
X581398Y551398D02*
Y563602D01*
X610728Y551398D02*
X612500Y553169D01*
X610728Y563602D02*
X612500Y561831D01*
Y553169D02*
Y561831D01*
X581398Y551398D02*
X591634D01*
X581398Y563602D02*
X591634D01*
X601083D02*
X610728D01*
X601083Y551398D02*
X610728D01*
X392500Y227500D02*
X402500D01*
X392500Y287500D02*
X402500D01*
Y227500D02*
Y287500D01*
X392500Y227500D02*
Y287500D01*
X644657Y606250D02*
Y613000D01*
Y597000D02*
Y603750D01*
X665500Y597000D02*
Y613000D01*
X676378Y589665D02*
Y591240D01*
X673622Y589665D02*
Y591240D01*
X686378Y569213D02*
Y570787D01*
X683622Y569213D02*
Y570787D01*
X681004Y555748D02*
X743996D01*
X681004Y529252D02*
X743996D01*
Y555748D01*
X681004Y529252D02*
Y555748D01*
X588953Y543000D02*
X595226D01*
X597726D02*
X603953D01*
X588953Y522000D02*
X603953D01*
X572713Y558878D02*
X574287D01*
X572713Y556122D02*
X574287D01*
X625453Y533425D02*
Y536575D01*
X619547Y533425D02*
Y536575D01*
X623429Y487067D02*
X636571D01*
X623429Y507933D02*
X636571D01*
X634213Y536378D02*
X635787D01*
X634213Y533622D02*
X635787D01*
X634213Y568878D02*
X635787D01*
X634213Y566122D02*
X635787D01*
D12*
X417362Y445921D02*
G03*
X417362Y445921I-12402J0D01*
G01*
X487402Y560000D02*
G03*
X487402Y560000I-12402J0D01*
G01*
X417402Y524921D02*
G03*
X417402Y524921I-12402J0D01*
G01*
X606496Y167342D02*
G03*
X606496Y167342I-31496J0D01*
G01*
X671496Y167842D02*
G03*
X671496Y167842I-31496J0D01*
G01*
X695000Y105000D02*
X717500D01*
X735000Y190000D02*
X780000D01*
Y105000D02*
Y190000D01*
X735000Y105000D02*
X780000D01*
X735000D02*
Y190000D01*
X745000Y392500D02*
X780000D01*
X745000Y252500D02*
X780000D01*
Y310000D01*
X750000D02*
X780000D01*
X727500Y287500D02*
X750000Y310000D01*
X727500Y277500D02*
Y287500D01*
X780000Y392500D02*
Y450000D01*
X750000D02*
X780000D01*
X727500Y427500D02*
X750000Y450000D01*
X727500Y417500D02*
Y427500D01*
X745000Y532500D02*
X762500D01*
X780000D01*
X727500Y557500D02*
Y567500D01*
X750000Y590000D01*
X780000D01*
Y532500D02*
Y590000D01*
X672500Y105000D02*
X695000D01*
X672500D02*
Y190000D01*
X717500D01*
Y105000D02*
Y190000D01*
X666000Y234500D02*
Y254185D01*
X644000Y234500D02*
Y254185D01*
X666000Y267000D02*
Y286685D01*
X644000Y267000D02*
Y286685D01*
X666000Y374500D02*
Y394185D01*
X644000Y374500D02*
Y394185D01*
X666000Y407000D02*
Y426685D01*
X644000Y407000D02*
Y426685D01*
Y514500D02*
Y534185D01*
X666000Y514500D02*
Y534185D01*
X644000Y547000D02*
Y566685D01*
X666000Y547000D02*
Y566685D01*
D13*
X430536Y288028D02*
G03*
X430536Y288028I-300J0D01*
G01*
X424800Y335200D02*
X428329D01*
X465200Y331671D02*
Y335200D01*
X461671Y294800D02*
X465200D01*
X424800D02*
X428329D01*
X424800Y331671D02*
Y335200D01*
X461671D02*
X465200D01*
Y294800D02*
Y298329D01*
X424800Y294800D02*
Y298329D01*
X456621Y417221D02*
X458034Y415807D01*
X457328Y416514D01*
X455207Y414393D01*
X456621Y412979D02*
X458741Y415100D01*
X459802Y414040D01*
X459802Y413333D01*
X459095Y412626D01*
X458388D01*
X457328Y413686D01*
X458034Y412979D02*
X458034Y411566D01*
X460862Y412979D02*
X461569Y412273D01*
X461215Y412626D01*
X459095Y410505D01*
X458741Y410859D01*
X459448Y410152D01*
X463689Y409445D02*
X463689Y410152D01*
X462983Y410859D01*
X462276D01*
X460862Y409445D01*
Y408738D01*
X461569Y408031D01*
X462276D01*
X462983Y408738D01*
X462276Y409445D01*
X446121Y398621D02*
X444000Y396500D01*
X445060Y397560D01*
X446474Y396147D01*
X447534Y397207D01*
X445414Y395086D01*
X448241Y396500D02*
X446121Y394379D01*
X447181Y393319D01*
X447888Y393319D01*
X448241Y393672D01*
X448241Y394379D01*
X447181Y395440D01*
X448241Y394379D01*
X448948D01*
X449302Y394733D01*
X449302Y395440D01*
X448241Y396500D01*
X699499Y599999D02*
X699000Y600499D01*
X698000D01*
X697500Y599999D01*
Y599499D01*
X698000Y599000D01*
X699000D01*
X699499Y598500D01*
Y598000D01*
X699000Y597500D01*
X698000D01*
X697500Y598000D01*
X700499Y600499D02*
X702498D01*
X701499D01*
Y597500D01*
X703498D02*
Y599499D01*
X704498Y600499D01*
X705497Y599499D01*
Y597500D01*
Y599000D01*
X703498D01*
X706497Y597500D02*
Y600499D01*
X708496Y597500D01*
Y600499D01*
X709496D02*
Y597500D01*
X710996D01*
X711495Y598000D01*
Y599999D01*
X710996Y600499D01*
X709496D01*
X713995D02*
X712995D01*
X712495Y599999D01*
Y598000D01*
X712995Y597500D01*
X713995D01*
X714495Y598000D01*
Y599999D01*
X713995Y600499D01*
X717493D02*
X715494D01*
Y599000D01*
X716494D01*
X715494D01*
Y597500D01*
X720493Y600499D02*
X718493D01*
Y599000D01*
X719493D01*
X718493D01*
Y597500D01*
X389499Y599999D02*
X389000Y600499D01*
X388000D01*
X387500Y599999D01*
Y599499D01*
X388000Y599000D01*
X389000D01*
X389499Y598500D01*
Y598000D01*
X389000Y597500D01*
X388000D01*
X387500Y598000D01*
X390499Y600499D02*
X392498D01*
X391499D01*
Y597500D01*
X393498D02*
Y599499D01*
X394498Y600499D01*
X395497Y599499D01*
Y597500D01*
Y599000D01*
X393498D01*
X396497Y597500D02*
Y600499D01*
X398496Y597500D01*
Y600499D01*
X399496D02*
Y597500D01*
X400996D01*
X401496Y598000D01*
Y599999D01*
X400996Y600499D01*
X399496D01*
X403995D02*
X402995D01*
X402495Y599999D01*
Y598000D01*
X402995Y597500D01*
X403995D01*
X404494Y598000D01*
Y599999D01*
X403995Y600499D01*
X407493D02*
X405494D01*
Y599000D01*
X406494D01*
X405494D01*
Y597500D01*
X410493Y600499D02*
X408493D01*
Y599000D01*
X409493D01*
X408493D01*
Y597500D01*
X389499Y129999D02*
X389000Y130499D01*
X388000D01*
X387500Y129999D01*
Y129499D01*
X388000Y128999D01*
X389000D01*
X389499Y128500D01*
Y128000D01*
X389000Y127500D01*
X388000D01*
X387500Y128000D01*
X390499Y130499D02*
X392498D01*
X391499D01*
Y127500D01*
X393498D02*
Y129499D01*
X394498Y130499D01*
X395497Y129499D01*
Y127500D01*
Y128999D01*
X393498D01*
X396497Y127500D02*
Y130499D01*
X398496Y127500D01*
Y130499D01*
X399496D02*
Y127500D01*
X400996D01*
X401496Y128000D01*
Y129999D01*
X400996Y130499D01*
X399496D01*
X403995D02*
X402995D01*
X402495Y129999D01*
Y128000D01*
X402995Y127500D01*
X403995D01*
X404494Y128000D01*
Y129999D01*
X403995Y130499D01*
X407493D02*
X405494D01*
Y128999D01*
X406494D01*
X405494D01*
Y127500D01*
X410493Y130499D02*
X408493D01*
Y128999D01*
X409493D01*
X408493D01*
Y127500D01*
X410460Y453000D02*
Y451001D01*
X411460Y452000D02*
X409460D01*
X639001Y278000D02*
X642000D01*
Y279999D01*
X639001Y280999D02*
X641500D01*
X642000Y281499D01*
Y282499D01*
X641500Y282998D01*
X639001D01*
Y267000D02*
X642000D01*
X640500D01*
Y268999D01*
X639001D01*
X642000D01*
X639001Y269999D02*
X641500D01*
X642000Y270499D01*
Y271498D01*
X641500Y271998D01*
X639001D01*
Y417000D02*
X642000D01*
Y418999D01*
X639001Y419999D02*
X641000D01*
X642000Y420999D01*
X641000Y421998D01*
X639001D01*
Y406000D02*
X642000D01*
X640500D01*
Y407999D01*
X639001D01*
X642000D01*
X639001Y408999D02*
X641000D01*
X642000Y409999D01*
X641000Y410998D01*
X639001D01*
Y546000D02*
X642000D01*
X640500D01*
Y547999D01*
X639001D01*
X642000D01*
X639001Y548999D02*
X642000D01*
X641000Y549999D01*
X642000Y550998D01*
X639001D01*
Y557000D02*
X642000D01*
Y558999D01*
X639001Y559999D02*
X642000D01*
X641000Y560999D01*
X642000Y561998D01*
X639001D01*
X527500Y276499D02*
Y274000D01*
X528000Y273500D01*
X529000D01*
X529499Y274000D01*
Y276499D01*
X530499Y273000D02*
X532498D01*
X533498Y276499D02*
Y274500D01*
X534498Y273500D01*
X535497Y274500D01*
Y276499D01*
X537997D02*
X536997D01*
X536497Y275999D01*
Y274000D01*
X536997Y273500D01*
X537997D01*
X538496Y274000D01*
Y275999D01*
X537997Y276499D01*
X539496D02*
Y273500D01*
X541496D01*
X542495Y276499D02*
X544494D01*
X543495D01*
Y273500D01*
X527500Y286499D02*
Y284500D01*
X528500Y283500D01*
X529499Y284500D01*
Y286499D01*
X530499Y283000D02*
X532498D01*
X533498Y286499D02*
Y284500D01*
X534498Y283500D01*
X535497Y284500D01*
Y286499D01*
X537997D02*
X536997D01*
X536497Y285999D01*
Y284000D01*
X536997Y283500D01*
X537997D01*
X538496Y284000D01*
Y285999D01*
X537997Y286499D01*
X539496D02*
Y283500D01*
X541496D01*
X542495Y286499D02*
X544494D01*
X543495D01*
Y283500D01*
X527500Y436499D02*
Y434000D01*
X528000Y433500D01*
X529000D01*
X529499Y434000D01*
Y436499D01*
X532498Y435999D02*
X531998Y436499D01*
X530999D01*
X530499Y435999D01*
Y435499D01*
X530999Y435000D01*
X531998D01*
X532498Y434500D01*
Y434000D01*
X531998Y433500D01*
X530999D01*
X530499Y434000D01*
X533498Y433500D02*
Y435499D01*
X534498Y436499D01*
X535497Y435499D01*
Y433500D01*
Y435000D01*
X533498D01*
X536497Y433500D02*
Y436499D01*
X537997D01*
X538496Y435999D01*
Y435000D01*
X537997Y434500D01*
X536497D01*
X537497D02*
X538496Y433500D01*
X539496Y436499D02*
X541496D01*
X540496D01*
Y433500D01*
X542495Y433000D02*
X544494D01*
X545494Y436499D02*
X547494D01*
X546494D01*
Y433500D01*
X548493Y436499D02*
X550493Y433500D01*
Y436499D02*
X548493Y433500D01*
X754499Y194999D02*
X754000Y195499D01*
X753000D01*
X752500Y194999D01*
Y193000D01*
X753000Y192500D01*
X754000D01*
X754499Y193000D01*
Y194000D01*
X753500D01*
X755499Y192500D02*
Y195499D01*
X757498Y192500D01*
Y195499D01*
X758498D02*
Y192500D01*
X759998D01*
X760497Y193000D01*
Y194999D01*
X759998Y195499D01*
X758498D01*
X527500Y296499D02*
Y293500D01*
X528500Y294500D01*
X529499Y293500D01*
Y296499D01*
X530499Y293000D02*
X532498D01*
X533498Y296499D02*
Y294500D01*
X534498Y293500D01*
X535497Y294500D01*
Y296499D01*
X537997D02*
X536997D01*
X536497Y295999D01*
Y294000D01*
X536997Y293500D01*
X537997D01*
X538496Y294000D01*
Y295999D01*
X537997Y296499D01*
X539496D02*
Y293500D01*
X541496D01*
X542495Y296499D02*
X544494D01*
X543495D01*
Y293500D01*
X527500Y306499D02*
X529499D01*
X528500D01*
Y303500D01*
X530499Y306499D02*
Y303500D01*
Y304999D01*
X532498D01*
Y306499D01*
Y303500D01*
X533498D02*
Y306499D01*
X534998D01*
X535497Y305999D01*
Y304999D01*
X534998Y304500D01*
X533498D01*
X534498D02*
X535497Y303500D01*
X537997Y306499D02*
X536997D01*
X536497Y305999D01*
Y304000D01*
X536997Y303500D01*
X537997D01*
X538496Y304000D01*
Y305999D01*
X537997Y306499D01*
X539496D02*
X541496D01*
X540496D01*
Y303500D01*
X527500Y316499D02*
Y314000D01*
X528000Y313500D01*
X529000D01*
X529499Y314000D01*
Y316499D01*
X530499Y313000D02*
X532498D01*
X533498Y316499D02*
Y314500D01*
X534498Y313500D01*
X535497Y314500D01*
Y316499D01*
X537997D02*
X536997D01*
X536497Y315999D01*
Y314000D01*
X536997Y313500D01*
X537997D01*
X538496Y314000D01*
Y315999D01*
X537997Y316499D01*
X539496D02*
Y313500D01*
X541496D01*
X542495Y316499D02*
X544494D01*
X543495D01*
Y313500D01*
X527500Y326499D02*
Y323500D01*
X528500Y324500D01*
X529499Y323500D01*
Y326499D01*
X530499Y323000D02*
X532498D01*
X533498Y326499D02*
Y323500D01*
X535497D01*
X537997Y326499D02*
X536997D01*
X536497Y325999D01*
Y324000D01*
X536997Y323500D01*
X537997D01*
X538496Y324000D01*
Y325999D01*
X537997Y326499D01*
X539496D02*
Y323500D01*
X540496Y324500D01*
X541496Y323500D01*
Y326499D01*
X527500Y336499D02*
Y334500D01*
X528500Y333500D01*
X529499Y334500D01*
Y336499D01*
X530499Y333000D02*
X532498D01*
X533498Y336499D02*
Y333500D01*
X535497D01*
X537997Y336499D02*
X536997D01*
X536497Y335999D01*
Y334000D01*
X536997Y333500D01*
X537997D01*
X538496Y334000D01*
Y335999D01*
X537997Y336499D01*
X539496D02*
Y333500D01*
X540496Y334500D01*
X541496Y333500D01*
Y336499D01*
X527500Y346499D02*
Y344000D01*
X528000Y343500D01*
X529000D01*
X529499Y344000D01*
Y346499D01*
X530499Y343000D02*
X532498D01*
X533498Y346499D02*
Y343500D01*
Y345000D01*
X535497D01*
Y346499D01*
Y343500D01*
X536497D02*
Y345499D01*
X537497Y346499D01*
X538496Y345499D01*
Y343500D01*
Y345000D01*
X536497D01*
X539496Y346499D02*
Y343500D01*
X541496D01*
X542495Y346499D02*
Y343500D01*
X544494D01*
X527500Y356499D02*
Y354500D01*
X528500Y353500D01*
X529499Y354500D01*
Y356499D01*
X530499Y353000D02*
X532498D01*
X533498Y356499D02*
Y353500D01*
Y354999D01*
X535497D01*
Y356499D01*
Y353500D01*
X536497D02*
Y355499D01*
X537497Y356499D01*
X538496Y355499D01*
Y353500D01*
Y354999D01*
X536497D01*
X539496Y356499D02*
Y353500D01*
X541496D01*
X542495Y356499D02*
Y353500D01*
X544494D01*
X527500Y366499D02*
Y363500D01*
X528500Y364500D01*
X529499Y363500D01*
Y366499D01*
X530499Y363000D02*
X532498D01*
X533498Y366499D02*
Y363500D01*
Y365000D01*
X535497D01*
Y366499D01*
Y363500D01*
X536497D02*
Y365499D01*
X537497Y366499D01*
X538496Y365499D01*
Y363500D01*
Y365000D01*
X536497D01*
X539496Y366499D02*
Y363500D01*
X541496D01*
X542495Y366499D02*
Y363500D01*
X544494D01*
X527500Y376499D02*
Y374000D01*
X528000Y373500D01*
X529000D01*
X529499Y374000D01*
Y376499D01*
X530499Y373000D02*
X532498D01*
X533498Y376499D02*
Y373500D01*
Y374999D01*
X535497D01*
Y376499D01*
Y373500D01*
X536497Y376499D02*
X537497D01*
X536997D01*
Y373500D01*
X536497D01*
X537497D01*
X540996Y375999D02*
X540496Y376499D01*
X539496D01*
X538996Y375999D01*
Y374000D01*
X539496Y373500D01*
X540496D01*
X540996Y374000D01*
Y374999D01*
X539996D01*
X541995Y376499D02*
Y373500D01*
Y374999D01*
X543995D01*
Y376499D01*
Y373500D01*
X527500Y386499D02*
Y383500D01*
X528500Y384500D01*
X529499Y383500D01*
Y386499D01*
X530499Y383000D02*
X532498D01*
X533498Y386499D02*
Y383500D01*
Y384999D01*
X535497D01*
Y386499D01*
Y383500D01*
X536497Y386499D02*
X537497D01*
X536997D01*
Y383500D01*
X536497D01*
X537497D01*
X540996Y385999D02*
X540496Y386499D01*
X539496D01*
X538996Y385999D01*
Y384000D01*
X539496Y383500D01*
X540496D01*
X540996Y384000D01*
Y384999D01*
X539996D01*
X541995Y386499D02*
Y383500D01*
Y384999D01*
X543995D01*
Y386499D01*
Y383500D01*
X527500Y396499D02*
Y394500D01*
X528500Y393500D01*
X529499Y394500D01*
Y396499D01*
X530499Y393000D02*
X532498D01*
X533498Y396499D02*
Y393500D01*
Y395000D01*
X535497D01*
Y396499D01*
Y393500D01*
X536497Y396499D02*
X537497D01*
X536997D01*
Y393500D01*
X536497D01*
X537497D01*
X540996Y395999D02*
X540496Y396499D01*
X539496D01*
X538996Y395999D01*
Y394000D01*
X539496Y393500D01*
X540496D01*
X540996Y394000D01*
Y395000D01*
X539996D01*
X541995Y396499D02*
Y393500D01*
Y395000D01*
X543995D01*
Y396499D01*
Y393500D01*
X527500Y403500D02*
Y406499D01*
X528500Y405499D01*
X529499Y406499D01*
Y403500D01*
X530499Y403000D02*
X532498D01*
X533498Y406499D02*
Y403500D01*
Y404999D01*
X535497D01*
Y406499D01*
Y403500D01*
X536497Y406499D02*
Y403500D01*
X537997D01*
X538496Y404000D01*
Y404500D01*
X537997Y404999D01*
X536497D01*
X537997D01*
X538496Y405499D01*
Y405999D01*
X537997Y406499D01*
X536497D01*
X529499Y416499D02*
X527500D01*
Y413500D01*
X529499D01*
X527500Y414999D02*
X528500D01*
X530499Y416499D02*
X532498Y413500D01*
Y416499D02*
X530499Y413500D01*
X533498Y413000D02*
X535497D01*
X536497Y416499D02*
X538496D01*
X537497D01*
Y413500D01*
X539496D02*
Y416499D01*
X540996D01*
X541496Y415999D01*
Y414999D01*
X540996Y414500D01*
X539496D01*
X540496D02*
X541496Y413500D01*
X542495Y416499D02*
X543495D01*
X542995D01*
Y413500D01*
X542495D01*
X543495D01*
X546994Y415999D02*
X546494Y416499D01*
X545494D01*
X544994Y415999D01*
Y414000D01*
X545494Y413500D01*
X546494D01*
X546994Y414000D01*
Y414999D01*
X545994D01*
X527500Y446499D02*
Y444000D01*
X528000Y443500D01*
X529000D01*
X529499Y444000D01*
Y446499D01*
X532498Y445999D02*
X531998Y446499D01*
X530999D01*
X530499Y445999D01*
Y445499D01*
X530999Y445000D01*
X531998D01*
X532498Y444500D01*
Y444000D01*
X531998Y443500D01*
X530999D01*
X530499Y444000D01*
X533498Y443500D02*
Y445499D01*
X534498Y446499D01*
X535497Y445499D01*
Y443500D01*
Y445000D01*
X533498D01*
X536497Y443500D02*
Y446499D01*
X537997D01*
X538496Y445999D01*
Y445000D01*
X537997Y444500D01*
X536497D01*
X537497D02*
X538496Y443500D01*
X539496Y446499D02*
X541496D01*
X540496D01*
Y443500D01*
X542495Y443000D02*
X544494D01*
X545494Y443500D02*
Y446499D01*
X546994D01*
X547494Y445999D01*
Y445000D01*
X546994Y444500D01*
X545494D01*
X546494D02*
X547494Y443500D01*
X548493Y446499D02*
X550493Y443500D01*
Y446499D02*
X548493Y443500D01*
X405000Y231000D02*
Y233999D01*
X406499D01*
X406999Y233499D01*
Y232500D01*
X406499Y232000D01*
X405000D01*
X407999Y233999D02*
Y231000D01*
X409499D01*
X409998Y231500D01*
Y232000D01*
X409499Y232500D01*
X407999D01*
X409499D01*
X409998Y232999D01*
Y233499D01*
X409499Y233999D01*
X407999D01*
X410998Y233499D02*
X411498Y233999D01*
X412498D01*
X412997Y233499D01*
Y232999D01*
X412498Y232500D01*
X411998D01*
X412498D01*
X412997Y232000D01*
Y231500D01*
X412498Y231000D01*
X411498D01*
X410998Y231500D01*
X405000Y241000D02*
Y243999D01*
X406999Y241000D01*
Y243999D01*
X407999Y241000D02*
Y243999D01*
X409499D01*
X409998Y243499D01*
Y242499D01*
X409499Y242000D01*
X407999D01*
X408999D02*
X409998Y241000D01*
X412997Y243499D02*
X412498Y243999D01*
X411498D01*
X410998Y243499D01*
Y242999D01*
X411498Y242499D01*
X412498D01*
X412997Y242000D01*
Y241500D01*
X412498Y241000D01*
X411498D01*
X410998Y241500D01*
X413997Y243999D02*
X415996D01*
X414997D01*
Y241000D01*
X405000Y253999D02*
X406999D01*
X406000D01*
Y251000D01*
X407999D02*
Y253999D01*
X408999Y252999D01*
X409998Y253999D01*
Y251000D01*
X412997Y253499D02*
X412498Y253999D01*
X411498D01*
X410998Y253499D01*
Y252999D01*
X411498Y252500D01*
X412498D01*
X412997Y252000D01*
Y251500D01*
X412498Y251000D01*
X411498D01*
X410998Y251500D01*
X406999Y263499D02*
X406499Y263999D01*
X405500D01*
X405000Y263499D01*
Y261500D01*
X405500Y261000D01*
X406499D01*
X406999Y261500D01*
Y262499D01*
X406000D01*
X407999Y261000D02*
Y263999D01*
X409998Y261000D01*
Y263999D01*
X410998D02*
Y261000D01*
X412498D01*
X412997Y261500D01*
Y263499D01*
X412498Y263999D01*
X410998D01*
X405000Y273999D02*
X406999D01*
X406000D01*
Y271000D01*
X409998Y273499D02*
X409499Y273999D01*
X408499D01*
X407999Y273499D01*
Y271500D01*
X408499Y271000D01*
X409499D01*
X409998Y271500D01*
X410998Y273999D02*
Y271000D01*
Y272000D01*
X412997Y273999D01*
X411498Y272499D01*
X412997Y271000D01*
X405000Y283999D02*
Y282000D01*
X406000Y281000D01*
X406999Y282000D01*
Y283999D01*
X407999D02*
Y281000D01*
X409499D01*
X409998Y281500D01*
Y283499D01*
X409499Y283999D01*
X407999D01*
X410998D02*
Y281000D01*
X412498D01*
X412997Y281500D01*
Y283499D01*
X412498Y283999D01*
X410998D01*
X529000Y426499D02*
X528000D01*
X527500Y425999D01*
Y424000D01*
X528000Y423500D01*
X529000D01*
X529499Y424000D01*
Y425999D01*
X529000Y426499D01*
X530499Y423500D02*
Y426499D01*
X532498Y423500D01*
Y426499D01*
X533498Y423000D02*
X535497D01*
X538496Y425999D02*
X537997Y426499D01*
X536997D01*
X536497Y425999D01*
Y425499D01*
X536997Y425000D01*
X537997D01*
X538496Y424500D01*
Y424000D01*
X537997Y423500D01*
X536997D01*
X536497Y424000D01*
X539496Y426499D02*
Y423500D01*
X540496Y424500D01*
X541496Y423500D01*
Y426499D01*
X469500Y552921D02*
Y554921D01*
X468501Y553921D02*
X470500D01*
X410499Y532000D02*
Y530001D01*
X411499Y531000D02*
X409500D01*
X685000Y194000D02*
X686999D01*
X686000Y194999D02*
Y193000D01*
X687999Y195499D02*
Y193500D01*
X688999Y192500D01*
X689998Y193500D01*
Y195499D01*
X690998D02*
Y192500D01*
X692498D01*
X692997Y193000D01*
Y193500D01*
X692498Y194000D01*
X690998D01*
X692498D01*
X692997Y194499D01*
Y194999D01*
X692498Y195499D01*
X690998D01*
X694497Y194499D02*
X695497D01*
X695996Y194000D01*
Y192500D01*
X694497D01*
X693997Y193000D01*
X694497Y193500D01*
X695996D01*
X697496Y194999D02*
Y194499D01*
X696996D01*
X697996D01*
X697496D01*
Y193000D01*
X697996Y192500D01*
X699995Y194999D02*
Y194499D01*
X699495D01*
X700495D01*
X699995D01*
Y193000D01*
X700495Y192500D01*
X576501Y140500D02*
Y142499D01*
X575501Y141500D02*
X577500D01*
X641501Y141000D02*
Y142999D01*
X640501Y142000D02*
X642500D01*
X755000Y312500D02*
Y315499D01*
X756499D01*
X756999Y314999D01*
Y314000D01*
X756499Y313500D01*
X755000D01*
X757999Y315499D02*
Y312500D01*
Y314000D01*
X759998D01*
Y315499D01*
Y312500D01*
X760998D02*
Y314499D01*
X761998Y315499D01*
X762997Y314499D01*
Y312500D01*
Y314000D01*
X760998D01*
X765996Y314999D02*
X765497Y315499D01*
X764497D01*
X763997Y314999D01*
Y314499D01*
X764497Y314000D01*
X765497D01*
X765996Y313500D01*
Y313000D01*
X765497Y312500D01*
X764497D01*
X763997Y313000D01*
X768996Y315499D02*
X766996D01*
Y312500D01*
X768996D01*
X766996Y314000D02*
X767996D01*
X772994Y315499D02*
Y313000D01*
X773494Y312500D01*
X774494D01*
X774994Y313000D01*
Y315499D01*
X755000Y452500D02*
Y455499D01*
X756499D01*
X756999Y454999D01*
Y454000D01*
X756499Y453500D01*
X755000D01*
X757999Y455499D02*
Y452500D01*
Y454000D01*
X759998D01*
Y455499D01*
Y452500D01*
X760998D02*
Y454499D01*
X761998Y455499D01*
X762997Y454499D01*
Y452500D01*
Y454000D01*
X760998D01*
X765996Y454999D02*
X765497Y455499D01*
X764497D01*
X763997Y454999D01*
Y454499D01*
X764497Y454000D01*
X765497D01*
X765996Y453500D01*
Y453000D01*
X765497Y452500D01*
X764497D01*
X763997Y453000D01*
X768996Y455499D02*
X766996D01*
Y452500D01*
X768996D01*
X766996Y454000D02*
X767996D01*
X772994Y455499D02*
Y453500D01*
X773994Y452500D01*
X774994Y453500D01*
Y455499D01*
X755000Y592500D02*
Y595499D01*
X756499D01*
X756999Y594999D01*
Y593999D01*
X756499Y593500D01*
X755000D01*
X757999Y595499D02*
Y592500D01*
Y593999D01*
X759998D01*
Y595499D01*
Y592500D01*
X760998D02*
Y594499D01*
X761998Y595499D01*
X762997Y594499D01*
Y592500D01*
Y593999D01*
X760998D01*
X765996Y594999D02*
X765497Y595499D01*
X764497D01*
X763997Y594999D01*
Y594499D01*
X764497Y593999D01*
X765497D01*
X765996Y593500D01*
Y593000D01*
X765497Y592500D01*
X764497D01*
X763997Y593000D01*
X768996Y595499D02*
X766996D01*
Y592500D01*
X768996D01*
X766996Y593999D02*
X767996D01*
X772994Y595499D02*
Y592500D01*
X773994Y593500D01*
X774994Y592500D01*
Y595499D01*
X453379Y379121D02*
X455500Y377000D01*
X454440Y378060D01*
X455853Y379474D01*
X454793Y380534D01*
X456914Y378414D01*
X455500Y381241D02*
X457621Y379121D01*
X458681Y380181D01*
X458681Y380888D01*
X458327Y381241D01*
X457621Y381241D01*
X456560Y380181D01*
X457621Y381241D01*
Y381948D01*
X457267Y382302D01*
X456560Y382302D01*
X455500Y381241D01*
X460095Y380888D02*
X461509Y382302D01*
X459741Y385483D02*
X461155Y386896D01*
X460448Y386189D01*
X462569Y384069D01*
X463982Y385483D02*
X461862Y387603D01*
X462922Y388664D01*
X463629D01*
X464336Y387957D01*
X464336Y387250D01*
X463276Y386189D01*
X463982Y386896D02*
X465396Y386896D01*
X463982Y389724D02*
X464689Y390431D01*
X464336Y390077D01*
X466457Y387957D01*
X466103Y387603D01*
X466810Y388310D01*
X467517Y392551D02*
X466810Y392551D01*
X466103Y391844D01*
Y391138D01*
X467517Y389724D01*
X468224D01*
X468931Y390431D01*
X468931Y391138D01*
X468224Y391844D01*
X467517Y391138D01*
X470344Y391138D02*
X471758Y392551D01*
Y396793D02*
X471051Y396793D01*
X470344Y396086D01*
Y395379D01*
X470698Y395025D01*
X471405Y395025D01*
X472112Y395732D01*
X472819Y395732D01*
X473172Y395379D01*
X473172Y394672D01*
X472465Y393965D01*
X471758D01*
X473525Y399267D02*
X472112Y397853D01*
X474232Y395732D01*
X475646Y397146D01*
X473172Y396793D02*
X473879Y397499D01*
X474232Y399974D02*
X476353Y397853D01*
X477767Y399267D01*
X406000Y316000D02*
Y318999D01*
X407500D01*
X407999Y318499D01*
Y317499D01*
X407500Y317000D01*
X406000D01*
X407000D02*
X407999Y316000D01*
X410998D02*
X408999D01*
X410998Y317999D01*
Y318499D01*
X410499Y318999D01*
X409499D01*
X408999Y318499D01*
X413997Y318999D02*
X412998Y318499D01*
X411998Y317499D01*
Y316500D01*
X412498Y316000D01*
X413498D01*
X413997Y316500D01*
Y317000D01*
X413498Y317499D01*
X411998D01*
X396000Y328500D02*
Y331499D01*
X397499D01*
X397999Y330999D01*
Y329999D01*
X397499Y329500D01*
X396000D01*
X397000D02*
X397999Y328500D01*
X400998D02*
X398999D01*
X400998Y330499D01*
Y330999D01*
X400498Y331499D01*
X399499D01*
X398999Y330999D01*
X403997Y331499D02*
X401998D01*
Y329999D01*
X402998Y330499D01*
X403498D01*
X403997Y329999D01*
Y329000D01*
X403498Y328500D01*
X402498D01*
X401998Y329000D01*
X483500Y446499D02*
Y443500D01*
X485000D01*
X485499Y444000D01*
Y445999D01*
X485000Y446499D01*
X483500D01*
X486499Y443500D02*
X487499D01*
X486999D01*
Y446499D01*
X486499Y445999D01*
X488998Y444000D02*
X489498Y443500D01*
X490498D01*
X490998Y444000D01*
Y445999D01*
X490498Y446499D01*
X489498D01*
X488998Y445999D01*
Y445499D01*
X489498Y445000D01*
X490998D01*
X484000Y356499D02*
Y353500D01*
X485499D01*
X485999Y354000D01*
Y355999D01*
X485499Y356499D01*
X484000D01*
X486999Y353500D02*
X487999D01*
X487499D01*
Y356499D01*
X486999Y355999D01*
X489498D02*
X489998Y356499D01*
X490998D01*
X491498Y355999D01*
Y355499D01*
X490998Y354999D01*
X491498Y354500D01*
Y354000D01*
X490998Y353500D01*
X489998D01*
X489498Y354000D01*
Y354500D01*
X489998Y354999D01*
X489498Y355499D01*
Y355999D01*
X489998Y354999D02*
X490998D01*
X484000Y436499D02*
Y433500D01*
X485499D01*
X485999Y434000D01*
Y435999D01*
X485499Y436499D01*
X484000D01*
X486999Y433500D02*
X487999D01*
X487499D01*
Y436499D01*
X486999Y435999D01*
X489498Y436499D02*
X491498D01*
Y435999D01*
X489498Y434000D01*
Y433500D01*
X484000Y346499D02*
Y343500D01*
X485499D01*
X485999Y344000D01*
Y345999D01*
X485499Y346499D01*
X484000D01*
X486999Y343500D02*
X487999D01*
X487499D01*
Y346499D01*
X486999Y345999D01*
X491498Y346499D02*
X490498Y345999D01*
X489498Y345000D01*
Y344000D01*
X489998Y343500D01*
X490998D01*
X491498Y344000D01*
Y344500D01*
X490998Y345000D01*
X489498D01*
X484000Y426499D02*
Y423500D01*
X485499D01*
X485999Y424000D01*
Y425999D01*
X485499Y426499D01*
X484000D01*
X486999Y423500D02*
X487999D01*
X487499D01*
Y426499D01*
X486999Y425999D01*
X491498Y426499D02*
X489498D01*
Y425000D01*
X490498Y425499D01*
X490998D01*
X491498Y425000D01*
Y424000D01*
X490998Y423500D01*
X489998D01*
X489498Y424000D01*
X484000Y336499D02*
Y333500D01*
X485499D01*
X485999Y334000D01*
Y335999D01*
X485499Y336499D01*
X484000D01*
X486999Y333500D02*
X487999D01*
X487499D01*
Y336499D01*
X486999Y335999D01*
X490998Y333500D02*
Y336499D01*
X489498Y334999D01*
X491498D01*
X484000Y416499D02*
Y413500D01*
X485499D01*
X485999Y414000D01*
Y415999D01*
X485499Y416499D01*
X484000D01*
X486999Y413500D02*
X487999D01*
X487499D01*
Y416499D01*
X486999Y415999D01*
X489498D02*
X489998Y416499D01*
X490998D01*
X491498Y415999D01*
Y415499D01*
X490998Y414999D01*
X490498D01*
X490998D01*
X491498Y414500D01*
Y414000D01*
X490998Y413500D01*
X489998D01*
X489498Y414000D01*
X484000Y326499D02*
Y323500D01*
X485499D01*
X485999Y324000D01*
Y325999D01*
X485499Y326499D01*
X484000D01*
X486999Y323500D02*
X487999D01*
X487499D01*
Y326499D01*
X486999Y325999D01*
X491498Y323500D02*
X489498D01*
X491498Y325499D01*
Y325999D01*
X490998Y326499D01*
X489998D01*
X489498Y325999D01*
X485000Y406499D02*
Y403500D01*
X486500D01*
X486999Y404000D01*
Y405999D01*
X486500Y406499D01*
X485000D01*
X487999Y403500D02*
X488999D01*
X488499D01*
Y406499D01*
X487999Y405999D01*
X490498Y403500D02*
X491498D01*
X490998D01*
Y406499D01*
X490498Y405999D01*
X484000Y316499D02*
Y313500D01*
X485499D01*
X485999Y314000D01*
Y315999D01*
X485499Y316499D01*
X484000D01*
X486999Y313500D02*
X487999D01*
X487499D01*
Y316499D01*
X486999Y315999D01*
X489498D02*
X489998Y316499D01*
X490998D01*
X491498Y315999D01*
Y314000D01*
X490998Y313500D01*
X489998D01*
X489498Y314000D01*
Y315999D01*
X485000Y396499D02*
Y393500D01*
X486500D01*
X486999Y394000D01*
Y395999D01*
X486500Y396499D01*
X485000D01*
X487999Y394000D02*
X488499Y393500D01*
X489499D01*
X489998Y394000D01*
Y395999D01*
X489499Y396499D01*
X488499D01*
X487999Y395999D01*
Y395499D01*
X488499Y395000D01*
X489998D01*
X485000Y306499D02*
Y303500D01*
X486500D01*
X486999Y304000D01*
Y305999D01*
X486500Y306499D01*
X485000D01*
X487999Y305999D02*
X488499Y306499D01*
X489499D01*
X489998Y305999D01*
Y305499D01*
X489499Y304999D01*
X489998Y304500D01*
Y304000D01*
X489499Y303500D01*
X488499D01*
X487999Y304000D01*
Y304500D01*
X488499Y304999D01*
X487999Y305499D01*
Y305999D01*
X488499Y304999D02*
X489499D01*
X485000Y386499D02*
Y383500D01*
X486500D01*
X486999Y384000D01*
Y385999D01*
X486500Y386499D01*
X485000D01*
X487999D02*
X489998D01*
Y385999D01*
X487999Y384000D01*
Y383500D01*
X485000Y295999D02*
Y293000D01*
X486500D01*
X486999Y293500D01*
Y295499D01*
X486500Y295999D01*
X485000D01*
X489998D02*
X488999Y295499D01*
X487999Y294499D01*
Y293500D01*
X488499Y293000D01*
X489499D01*
X489998Y293500D01*
Y294000D01*
X489499Y294499D01*
X487999D01*
X485000Y376499D02*
Y373500D01*
X486500D01*
X486999Y374000D01*
Y375999D01*
X486500Y376499D01*
X485000D01*
X489998D02*
X487999D01*
Y374999D01*
X488999Y375499D01*
X489499D01*
X489998Y374999D01*
Y374000D01*
X489499Y373500D01*
X488499D01*
X487999Y374000D01*
X485000Y286499D02*
Y283500D01*
X486500D01*
X486999Y284000D01*
Y285999D01*
X486500Y286499D01*
X485000D01*
X489499Y283500D02*
Y286499D01*
X487999Y284999D01*
X489998D01*
X485000Y366499D02*
Y363500D01*
X486500D01*
X486999Y364000D01*
Y365999D01*
X486500Y366499D01*
X485000D01*
X487999Y365999D02*
X488499Y366499D01*
X489499D01*
X489998Y365999D01*
Y365499D01*
X489499Y365000D01*
X488999D01*
X489499D01*
X489998Y364500D01*
Y364000D01*
X489499Y363500D01*
X488499D01*
X487999Y364000D01*
X485000Y276499D02*
Y273500D01*
X486500D01*
X486999Y274000D01*
Y275999D01*
X486500Y276499D01*
X485000D01*
X489998Y273500D02*
X487999D01*
X489998Y275499D01*
Y275999D01*
X489499Y276499D01*
X488499D01*
X487999Y275999D01*
X426500Y358500D02*
X423501D01*
Y359999D01*
X424001Y360499D01*
X425000D01*
X425500Y359999D01*
Y358500D01*
Y359500D02*
X426500Y360499D01*
X423501Y363498D02*
X424001Y362499D01*
X425000Y361499D01*
X426000D01*
X426500Y361999D01*
Y362999D01*
X426000Y363498D01*
X425500D01*
X425000Y362999D01*
Y361499D01*
X489501Y456499D02*
Y455500D01*
X490001Y455000D01*
X492000D01*
X492500Y455500D01*
Y456499D01*
X492000Y456999D01*
X490001D01*
X489501Y456499D01*
X492500Y457999D02*
X489501D01*
X492500Y459998D01*
X489501D01*
X493000Y460998D02*
Y462997D01*
X490001Y465996D02*
X489501Y465497D01*
Y464497D01*
X490001Y463997D01*
X490501D01*
X491001Y464497D01*
Y465497D01*
X491500Y465996D01*
X492000D01*
X492500Y465497D01*
Y464497D01*
X492000Y463997D01*
X489501Y466996D02*
X492500D01*
X491500Y467996D01*
X492500Y468996D01*
X489501D01*
X493000Y469995D02*
Y471994D01*
X489501Y472994D02*
Y473994D01*
Y473494D01*
X492500D01*
Y472994D01*
Y473994D01*
X490001Y477493D02*
X489501Y476993D01*
Y475993D01*
X490001Y475493D01*
X490501D01*
X491001Y475993D01*
Y476993D01*
X491500Y477493D01*
X492000D01*
X492500Y476993D01*
Y475993D01*
X492000Y475493D01*
X489501Y479992D02*
Y478992D01*
X490001Y478492D01*
X492000D01*
X492500Y478992D01*
Y479992D01*
X492000Y480492D01*
X490001D01*
X489501Y479992D01*
X385000Y497500D02*
X387999D01*
Y496000D01*
X387499Y495501D01*
X386500D01*
X386000Y496000D01*
Y497500D01*
X387999Y494501D02*
Y492502D01*
Y493501D01*
X385000D01*
X384500Y491502D02*
Y489503D01*
X385000Y488503D02*
Y487503D01*
Y488003D01*
X387999D01*
X387499Y488503D01*
X385000Y484004D02*
Y486004D01*
X386999Y484004D01*
X387499D01*
X387999Y484504D01*
Y485504D01*
X387499Y486004D01*
X387999Y483005D02*
X386000D01*
X385000Y482005D01*
X386000Y481005D01*
X387999D01*
X385000Y417500D02*
X387999D01*
Y416001D01*
X387499Y415501D01*
X386500D01*
X386000Y416001D01*
Y417500D01*
X387999Y414501D02*
Y412502D01*
Y413501D01*
X385000D01*
X384500Y411502D02*
Y409503D01*
X387999Y406504D02*
Y408503D01*
X386500D01*
X386999Y407503D01*
Y407003D01*
X386500Y406504D01*
X385500D01*
X385000Y407003D01*
Y408003D01*
X385500Y408503D01*
X387999Y405504D02*
X386000D01*
X385000Y404504D01*
X386000Y403505D01*
X387999D01*
X387499Y402505D02*
X387999Y402005D01*
Y401005D01*
X387499Y400505D01*
X386999D01*
X386500Y401005D01*
Y401505D01*
Y401005D01*
X386000Y400505D01*
X385500D01*
X385000Y401005D01*
Y402005D01*
X385500Y402505D01*
X385000Y335000D02*
X387999D01*
Y333501D01*
X387499Y333001D01*
X386500D01*
X386000Y333501D01*
Y335000D01*
X387999Y332001D02*
Y330002D01*
Y331001D01*
X385000D01*
X384500Y329002D02*
Y327003D01*
X387499Y326003D02*
X387999Y325503D01*
Y324503D01*
X387499Y324004D01*
X386999D01*
X386500Y324503D01*
Y325003D01*
Y324503D01*
X386000Y324004D01*
X385500D01*
X385000Y324503D01*
Y325503D01*
X385500Y326003D01*
X387999Y323004D02*
X386000D01*
X385000Y322004D01*
X386000Y321005D01*
X387999D01*
X387499Y320005D02*
X387999Y319505D01*
Y318505D01*
X387499Y318005D01*
X386999D01*
X386500Y318505D01*
Y319005D01*
Y318505D01*
X386000Y318005D01*
X385500D01*
X385000Y318505D01*
Y319505D01*
X385500Y320005D01*
X428500Y271000D02*
Y273999D01*
X429999D01*
X430499Y273499D01*
Y272499D01*
X429999Y272000D01*
X428500D01*
X429500D02*
X430499Y271000D01*
X431499Y271500D02*
X431999Y271000D01*
X432999D01*
X433498Y271500D01*
Y273499D01*
X432999Y273999D01*
X431999D01*
X431499Y273499D01*
Y272999D01*
X431999Y272499D01*
X433498D01*
X464001Y220499D02*
X463501Y220000D01*
Y219000D01*
X464001Y218500D01*
X466000D01*
X466500Y219000D01*
Y220000D01*
X466000Y220499D01*
X466500Y223498D02*
Y221499D01*
X464501Y223498D01*
X464001D01*
X463501Y222998D01*
Y221999D01*
X464001Y221499D01*
X463501Y224498D02*
Y226497D01*
X464001D01*
X466000Y224498D01*
X466500D01*
X471501Y155499D02*
X471001Y154999D01*
Y154000D01*
X471501Y153500D01*
X473500D01*
X474000Y154000D01*
Y154999D01*
X473500Y155499D01*
X474000Y158498D02*
Y156499D01*
X472001Y158498D01*
X471501D01*
X471001Y157999D01*
Y156999D01*
X471501Y156499D01*
X471001Y161497D02*
X471501Y160498D01*
X472501Y159498D01*
X473500D01*
X474000Y159998D01*
Y160998D01*
X473500Y161497D01*
X473000D01*
X472501Y160998D01*
Y159498D01*
X436501Y155499D02*
X436001Y154999D01*
Y154000D01*
X436501Y153500D01*
X438500D01*
X439000Y154000D01*
Y154999D01*
X438500Y155499D01*
X439000Y158498D02*
Y156499D01*
X437001Y158498D01*
X436501D01*
X436001Y157999D01*
Y156999D01*
X436501Y156499D01*
X439000Y160998D02*
X436001D01*
X437500Y159498D01*
Y161497D01*
X429001Y220499D02*
X428501Y220000D01*
Y219000D01*
X429001Y218500D01*
X431000D01*
X431500Y219000D01*
Y220000D01*
X431000Y220499D01*
X431500Y223498D02*
Y221499D01*
X429501Y223498D01*
X429001D01*
X428501Y222998D01*
Y221999D01*
X429001Y221499D01*
X428501Y226497D02*
Y224498D01*
X430000D01*
X429501Y225498D01*
Y225998D01*
X430000Y226497D01*
X431000D01*
X431500Y225998D01*
Y224998D01*
X431000Y224498D01*
X506501Y155499D02*
X506001Y154999D01*
Y154000D01*
X506501Y153500D01*
X508500D01*
X509000Y154000D01*
Y154999D01*
X508500Y155499D01*
X509000Y158498D02*
Y156499D01*
X507001Y158498D01*
X506501D01*
X506001Y157999D01*
Y156999D01*
X506501Y156499D01*
Y159498D02*
X506001Y159998D01*
Y160998D01*
X506501Y161497D01*
X507001D01*
X507501Y160998D01*
X508000Y161497D01*
X508500D01*
X509000Y160998D01*
Y159998D01*
X508500Y159498D01*
X508000D01*
X507501Y159998D01*
X507001Y159498D01*
X506501D01*
X507501Y159998D02*
Y160998D01*
X499001Y220499D02*
X498501Y220000D01*
Y219000D01*
X499001Y218500D01*
X501000D01*
X501500Y219000D01*
Y220000D01*
X501000Y220499D01*
X501500Y223498D02*
Y221499D01*
X499501Y223498D01*
X499001D01*
X498501Y222998D01*
Y221999D01*
X499001Y221499D01*
X501000Y224498D02*
X501500Y224998D01*
Y225998D01*
X501000Y226497D01*
X499001D01*
X498501Y225998D01*
Y224998D01*
X499001Y224498D01*
X499501D01*
X500000Y224998D01*
Y226497D01*
X514001Y174000D02*
X516500D01*
X517000Y174500D01*
Y175499D01*
X516500Y175999D01*
X514001D01*
X514501Y176999D02*
X514001Y177499D01*
Y178499D01*
X514501Y178998D01*
X515001D01*
X515500Y178499D01*
X516000Y178998D01*
X516500D01*
X517000Y178499D01*
Y177499D01*
X516500Y176999D01*
X516000D01*
X515500Y177499D01*
X515001Y176999D01*
X514501D01*
X515500Y177499D02*
Y178499D01*
X479001Y174000D02*
X481500D01*
X482000Y174500D01*
Y175499D01*
X481500Y175999D01*
X479001D01*
Y176999D02*
Y178998D01*
X479501D01*
X481500Y176999D01*
X482000D01*
X497501Y177500D02*
X500500D01*
X499001D01*
Y179499D01*
X497501D01*
X500500D01*
Y180499D02*
X498501D01*
X497501Y181499D01*
X498501Y182498D01*
X500500D01*
X499001D01*
Y180499D01*
X497501Y183498D02*
X500500D01*
Y185497D01*
X497501Y186497D02*
X500500D01*
Y188496D01*
X498001Y191496D02*
X497501Y190996D01*
Y189996D01*
X498001Y189496D01*
X500000D01*
X500500Y189996D01*
Y190996D01*
X500000Y191496D01*
X501000Y192495D02*
Y194494D01*
X497501Y195494D02*
Y196494D01*
Y195994D01*
X500500D01*
Y195494D01*
Y196494D01*
X498001Y199993D02*
X497501Y199493D01*
Y198493D01*
X498001Y197993D01*
X498501D01*
X499001Y198493D01*
Y199493D01*
X499500Y199993D01*
X500000D01*
X500500Y199493D01*
Y198493D01*
X500000Y197993D01*
X497501Y202492D02*
Y201492D01*
X498001Y200992D01*
X500000D01*
X500500Y201492D01*
Y202492D01*
X500000Y202992D01*
X498001D01*
X497501Y202492D01*
X462501Y177500D02*
X465500D01*
X464001D01*
Y179499D01*
X462501D01*
X465500D01*
Y180499D02*
X463501D01*
X462501Y181499D01*
X463501Y182498D01*
X465500D01*
X464001D01*
Y180499D01*
X462501Y183498D02*
X465500D01*
Y185497D01*
X462501Y186497D02*
X465500D01*
Y188496D01*
X462501Y189496D02*
X465500D01*
Y190996D01*
X465000Y191496D01*
X464500D01*
X464001Y190996D01*
Y189496D01*
Y190996D01*
X463501Y191496D01*
X463001D01*
X462501Y190996D01*
Y189496D01*
X466000Y192495D02*
Y194494D01*
X462501Y195494D02*
Y196494D01*
Y195994D01*
X465500D01*
Y195494D01*
Y196494D01*
X463001Y199993D02*
X462501Y199493D01*
Y198493D01*
X463001Y197993D01*
X463501D01*
X464001Y198493D01*
Y199493D01*
X464500Y199993D01*
X465000D01*
X465500Y199493D01*
Y198493D01*
X465000Y197993D01*
X462501Y202492D02*
Y201492D01*
X463001Y200992D01*
X465000D01*
X465500Y201492D01*
Y202492D01*
X465000Y202992D01*
X463001D01*
X462501Y202492D01*
X427501Y177000D02*
X430500D01*
X429001D01*
Y178999D01*
X427501D01*
X430500D01*
Y179999D02*
X428501D01*
X427501Y180999D01*
X428501Y181998D01*
X430500D01*
X429001D01*
Y179999D01*
X427501Y182998D02*
X430500D01*
Y184997D01*
X427501Y185997D02*
X430500D01*
Y187996D01*
Y188996D02*
X428501D01*
X427501Y189996D01*
X428501Y190996D01*
X430500D01*
X429001D01*
Y188996D01*
X431000Y191995D02*
Y193994D01*
X427501Y194994D02*
Y195994D01*
Y195494D01*
X430500D01*
Y194994D01*
Y195994D01*
X428001Y199493D02*
X427501Y198993D01*
Y197993D01*
X428001Y197493D01*
X428501D01*
X429001Y197993D01*
Y198993D01*
X429500Y199493D01*
X430000D01*
X430500Y198993D01*
Y197993D01*
X430000Y197493D01*
X427501Y201992D02*
Y200992D01*
X428001Y200492D01*
X430000D01*
X430500Y200992D01*
Y201992D01*
X430000Y202492D01*
X428001D01*
X427501Y201992D01*
X444001Y174000D02*
X446500D01*
X447000Y174500D01*
Y175499D01*
X446500Y175999D01*
X444001D01*
Y178998D02*
X444501Y177999D01*
X445501Y176999D01*
X446500D01*
X447000Y177499D01*
Y178499D01*
X446500Y178998D01*
X446000D01*
X445501Y178499D01*
Y176999D01*
X456500Y465999D02*
Y463500D01*
X457000Y463000D01*
X458000D01*
X458499Y463500D01*
Y465999D01*
X461498D02*
X459499D01*
Y464500D01*
X460499Y464999D01*
X460998D01*
X461498Y464500D01*
Y463500D01*
X460998Y463000D01*
X459999D01*
X459499Y463500D01*
X560000Y526500D02*
Y529499D01*
X561499D01*
X561999Y528999D01*
Y527999D01*
X561499Y527500D01*
X560000D01*
X561000D02*
X561999Y526500D01*
X562999Y529499D02*
Y527000D01*
X563499Y526500D01*
X564499D01*
X564998Y527000D01*
Y529499D01*
X565998Y526500D02*
X566998D01*
X566498D01*
Y529499D01*
X565998Y528999D01*
X568497Y529499D02*
Y526500D01*
X570497D01*
X571496Y526000D02*
X573496D01*
X574495Y526500D02*
Y529499D01*
X575995D01*
X576495Y528999D01*
Y527999D01*
X575995Y527500D01*
X574495D01*
X577494Y528999D02*
X577994Y529499D01*
X578994D01*
X579494Y528999D01*
Y528499D01*
X578994Y527999D01*
X578494D01*
X578994D01*
X579494Y527500D01*
Y527000D01*
X578994Y526500D01*
X577994D01*
X577494Y527000D01*
X560500Y386500D02*
Y389499D01*
X562000D01*
X562499Y388999D01*
Y388000D01*
X562000Y387500D01*
X560500D01*
X561500D02*
X562499Y386500D01*
X563499Y389499D02*
Y387000D01*
X563999Y386500D01*
X564998D01*
X565498Y387000D01*
Y389499D01*
X566498Y386500D02*
X567498D01*
X566998D01*
Y389499D01*
X566498Y388999D01*
X568997Y389499D02*
Y386500D01*
X570997D01*
X571996Y386000D02*
X573996D01*
X574995Y386500D02*
Y389499D01*
X576495D01*
X576995Y388999D01*
Y388000D01*
X576495Y387500D01*
X574995D01*
X579994Y386500D02*
X577994D01*
X579994Y388499D01*
Y388999D01*
X579494Y389499D01*
X578494D01*
X577994Y388999D01*
X560500Y246500D02*
Y249499D01*
X562000D01*
X562499Y248999D01*
Y248000D01*
X562000Y247500D01*
X560500D01*
X561500D02*
X562499Y246500D01*
X563499Y249499D02*
Y247000D01*
X563999Y246500D01*
X564998D01*
X565498Y247000D01*
Y249499D01*
X566498Y246500D02*
X567498D01*
X566998D01*
Y249499D01*
X566498Y248999D01*
X568997Y249499D02*
Y246500D01*
X570997D01*
X571996Y246000D02*
X573996D01*
X574995Y246500D02*
Y249499D01*
X576495D01*
X576995Y248999D01*
Y248000D01*
X576495Y247500D01*
X574995D01*
X577994Y246500D02*
X578994D01*
X578494D01*
Y249499D01*
X577994Y248999D01*
X560000Y546500D02*
Y549499D01*
X561500D01*
X561999Y548999D01*
Y547999D01*
X561500Y547500D01*
X560000D01*
X561000D02*
X561999Y546500D01*
X562999Y549499D02*
Y547000D01*
X563499Y546500D01*
X564499D01*
X564998Y547000D01*
Y549499D01*
X565998Y546500D02*
X566998D01*
X566498D01*
Y549499D01*
X565998Y548999D01*
X568497Y549499D02*
Y546500D01*
Y547999D01*
X570497D01*
Y549499D01*
Y546500D01*
X571496Y546000D02*
X573496D01*
X574495Y546500D02*
Y549499D01*
X575995D01*
X576495Y548999D01*
Y547999D01*
X575995Y547500D01*
X574495D01*
X577494Y548999D02*
X577994Y549499D01*
X578994D01*
X579494Y548999D01*
Y548499D01*
X578994Y547999D01*
X578494D01*
X578994D01*
X579494Y547500D01*
Y547000D01*
X578994Y546500D01*
X577994D01*
X577494Y547000D01*
X560500Y406000D02*
Y408999D01*
X562000D01*
X562499Y408499D01*
Y407500D01*
X562000Y407000D01*
X560500D01*
X561500D02*
X562499Y406000D01*
X563499Y408999D02*
Y406500D01*
X563999Y406000D01*
X564998D01*
X565498Y406500D01*
Y408999D01*
X566498Y406000D02*
X567498D01*
X566998D01*
Y408999D01*
X566498Y408499D01*
X568997Y408999D02*
Y406000D01*
Y407500D01*
X570997D01*
Y408999D01*
Y406000D01*
X571996Y405500D02*
X573996D01*
X574995Y406000D02*
Y408999D01*
X576495D01*
X576995Y408499D01*
Y407500D01*
X576495Y407000D01*
X574995D01*
X579994Y406000D02*
X577994D01*
X579994Y407999D01*
Y408499D01*
X579494Y408999D01*
X578494D01*
X577994Y408499D01*
X560500Y266000D02*
Y268999D01*
X562000D01*
X562499Y268499D01*
Y267499D01*
X562000Y267000D01*
X560500D01*
X561500D02*
X562499Y266000D01*
X563499Y268999D02*
Y266500D01*
X563999Y266000D01*
X564998D01*
X565498Y266500D01*
Y268999D01*
X566498Y266000D02*
X567498D01*
X566998D01*
Y268999D01*
X566498Y268499D01*
X568997Y268999D02*
Y266000D01*
Y267499D01*
X570997D01*
Y268999D01*
Y266000D01*
X571996Y265500D02*
X573996D01*
X574995Y266000D02*
Y268999D01*
X576495D01*
X576995Y268499D01*
Y267499D01*
X576495Y267000D01*
X574995D01*
X577994Y266000D02*
X578994D01*
X578494D01*
Y268999D01*
X577994Y268499D01*
X501500Y153500D02*
X498501D01*
Y154999D01*
X499001Y155499D01*
X500000D01*
X500500Y154999D01*
Y153500D01*
Y154500D02*
X501500Y155499D01*
Y158498D02*
Y156499D01*
X499501Y158498D01*
X499001D01*
X498501Y157999D01*
Y156999D01*
X499001Y156499D01*
X501500Y160998D02*
X498501D01*
X500000Y159498D01*
Y161497D01*
X466500Y153500D02*
X463501D01*
Y154999D01*
X464001Y155499D01*
X465000D01*
X465500Y154999D01*
Y153500D01*
Y154500D02*
X466500Y155499D01*
Y158498D02*
Y156499D01*
X464501Y158498D01*
X464001D01*
X463501Y157999D01*
Y156999D01*
X464001Y156499D01*
Y159498D02*
X463501Y159998D01*
Y160998D01*
X464001Y161497D01*
X464501D01*
X465000Y160998D01*
Y160498D01*
Y160998D01*
X465500Y161497D01*
X466000D01*
X466500Y160998D01*
Y159998D01*
X466000Y159498D01*
X431500Y153500D02*
X428501D01*
Y154999D01*
X429001Y155499D01*
X430000D01*
X430500Y154999D01*
Y153500D01*
Y154500D02*
X431500Y155499D01*
Y158498D02*
Y156499D01*
X429501Y158498D01*
X429001D01*
X428501Y157999D01*
Y156999D01*
X429001Y156499D01*
X431500Y161497D02*
Y159498D01*
X429501Y161497D01*
X429001D01*
X428501Y160998D01*
Y159998D01*
X429001Y159498D01*
X509000Y218500D02*
X506001D01*
Y220000D01*
X506501Y220499D01*
X507501D01*
X508000Y220000D01*
Y218500D01*
Y219500D02*
X509000Y220499D01*
Y223498D02*
Y221499D01*
X507001Y223498D01*
X506501D01*
X506001Y222998D01*
Y221999D01*
X506501Y221499D01*
X509000Y224498D02*
Y225498D01*
Y224998D01*
X506001D01*
X506501Y224498D01*
X474000Y218500D02*
X471001D01*
Y220000D01*
X471501Y220499D01*
X472501D01*
X473000Y220000D01*
Y218500D01*
Y219500D02*
X474000Y220499D01*
Y223498D02*
Y221499D01*
X472001Y223498D01*
X471501D01*
X471001Y222998D01*
Y221999D01*
X471501Y221499D01*
Y224498D02*
X471001Y224998D01*
Y225998D01*
X471501Y226497D01*
X473500D01*
X474000Y225998D01*
Y224998D01*
X473500Y224498D01*
X471501D01*
X439000Y218500D02*
X436001D01*
Y220000D01*
X436501Y220499D01*
X437500D01*
X438000Y220000D01*
Y218500D01*
Y219500D02*
X439000Y220499D01*
Y221499D02*
Y222499D01*
Y221999D01*
X436001D01*
X436501Y221499D01*
X438500Y223998D02*
X439000Y224498D01*
Y225498D01*
X438500Y225998D01*
X436501D01*
X436001Y225498D01*
Y224498D01*
X436501Y223998D01*
X437001D01*
X437500Y224498D01*
Y225998D01*
X516500Y153500D02*
X513501D01*
Y154999D01*
X514001Y155499D01*
X515000D01*
X515500Y154999D01*
Y153500D01*
Y154500D02*
X516500Y155499D01*
Y156499D02*
Y157499D01*
Y156999D01*
X513501D01*
X514001Y156499D01*
Y158998D02*
X513501Y159498D01*
Y160498D01*
X514001Y160998D01*
X514501D01*
X515000Y160498D01*
X515500Y160998D01*
X516000D01*
X516500Y160498D01*
Y159498D01*
X516000Y158998D01*
X515500D01*
X515000Y159498D01*
X514501Y158998D01*
X514001D01*
X515000Y159498D02*
Y160498D01*
X481500Y153500D02*
X478501D01*
Y154999D01*
X479001Y155499D01*
X480000D01*
X480500Y154999D01*
Y153500D01*
Y154500D02*
X481500Y155499D01*
Y156499D02*
Y157499D01*
Y156999D01*
X478501D01*
X479001Y156499D01*
X478501Y158998D02*
Y160998D01*
X479001D01*
X481000Y158998D01*
X481500D01*
X446500Y154000D02*
X443501D01*
Y155499D01*
X444001Y155999D01*
X445001D01*
X445500Y155499D01*
Y154000D01*
Y155000D02*
X446500Y155999D01*
Y156999D02*
Y157999D01*
Y157499D01*
X443501D01*
X444001Y156999D01*
X443501Y161498D02*
X444001Y160498D01*
X445001Y159498D01*
X446000D01*
X446500Y159998D01*
Y160998D01*
X446000Y161498D01*
X445500D01*
X445001Y160998D01*
Y159498D01*
X516500Y218500D02*
X513501D01*
Y220000D01*
X514001Y220499D01*
X515000D01*
X515500Y220000D01*
Y218500D01*
Y219500D02*
X516500Y220499D01*
Y221499D02*
Y222499D01*
Y221999D01*
X513501D01*
X514001Y221499D01*
X513501Y225998D02*
Y223998D01*
X515000D01*
X514501Y224998D01*
Y225498D01*
X515000Y225998D01*
X516000D01*
X516500Y225498D01*
Y224498D01*
X516000Y223998D01*
X481500Y218500D02*
X478501D01*
Y220000D01*
X479001Y220499D01*
X480000D01*
X480500Y220000D01*
Y218500D01*
Y219500D02*
X481500Y220499D01*
Y221499D02*
Y222499D01*
Y221999D01*
X478501D01*
X479001Y221499D01*
X481500Y225498D02*
X478501D01*
X480000Y223998D01*
Y225998D01*
X446500Y218500D02*
X443501D01*
Y220000D01*
X444001Y220499D01*
X445001D01*
X445500Y220000D01*
Y218500D01*
Y219500D02*
X446500Y220499D01*
X444001Y221499D02*
X443501Y221999D01*
Y222998D01*
X444001Y223498D01*
X444501D01*
X445001Y222998D01*
X445500Y223498D01*
X446000D01*
X446500Y222998D01*
Y221999D01*
X446000Y221499D01*
X445500D01*
X445001Y221999D01*
X444501Y221499D01*
X444001D01*
X445001Y221999D02*
Y222998D01*
X461000Y457500D02*
Y460499D01*
X462500D01*
X462999Y459999D01*
Y458999D01*
X462500Y458500D01*
X461000D01*
X462000D02*
X462999Y457500D01*
X465998Y460499D02*
X463999D01*
Y458999D01*
X464999Y459499D01*
X465498D01*
X465998Y458999D01*
Y458000D01*
X465498Y457500D01*
X464499D01*
X463999Y458000D01*
X461000Y442500D02*
Y445499D01*
X462500D01*
X462999Y444999D01*
Y443999D01*
X462500Y443500D01*
X461000D01*
X462000D02*
X462999Y442500D01*
X463999D02*
X464999D01*
X464499D01*
Y445499D01*
X463999Y444999D01*
X530500Y171999D02*
X528501D01*
X528001Y171500D01*
Y170500D01*
X528501Y170000D01*
X530500D01*
X531000Y170500D01*
Y171500D01*
X530000Y171000D02*
X531000Y171999D01*
Y171500D02*
X530500Y171999D01*
X528501Y172999D02*
X528001Y173499D01*
Y174499D01*
X528501Y174998D01*
X529001D01*
X529500Y174499D01*
Y173999D01*
Y174499D01*
X530000Y174998D01*
X530500D01*
X531000Y174499D01*
Y173499D01*
X530500Y172999D01*
X495500Y171999D02*
X493501D01*
X493001Y171500D01*
Y170500D01*
X493501Y170000D01*
X495500D01*
X496000Y170500D01*
Y171500D01*
X495000Y171000D02*
X496000Y171999D01*
Y171500D02*
X495500Y171999D01*
X496000Y174998D02*
Y172999D01*
X494001Y174998D01*
X493501D01*
X493001Y174499D01*
Y173499D01*
X493501Y172999D01*
X460500Y171999D02*
X458501D01*
X458001Y171500D01*
Y170500D01*
X458501Y170000D01*
X460500D01*
X461000Y170500D01*
Y171500D01*
X460000Y171000D02*
X461000Y171999D01*
Y171500D02*
X460500Y171999D01*
X461000Y172999D02*
Y173999D01*
Y173499D01*
X458001D01*
X458501Y172999D01*
X437500Y494999D02*
Y492000D01*
X439499D01*
X440499Y494499D02*
X440999Y494999D01*
X441998D01*
X442498Y494499D01*
Y493999D01*
X441998Y493500D01*
X441499D01*
X441998D01*
X442498Y493000D01*
Y492500D01*
X441998Y492000D01*
X440999D01*
X440499Y492500D01*
X521001Y218500D02*
X524000D01*
X522501D01*
Y220499D01*
X521001D01*
X524000D01*
Y221499D02*
X522001D01*
X521001Y222499D01*
X522001Y223498D01*
X524000D01*
X522501D01*
Y221499D01*
X521001Y224498D02*
X524000D01*
Y226497D01*
X521001Y227497D02*
X524000D01*
Y229496D01*
X521501Y232495D02*
X521001Y231996D01*
Y230996D01*
X521501Y230496D01*
X523500D01*
X524000Y230996D01*
Y231996D01*
X523500Y232495D01*
X486001Y218500D02*
X489000D01*
X487500D01*
Y220499D01*
X486001D01*
X489000D01*
Y221499D02*
X487001D01*
X486001Y222499D01*
X487001Y223498D01*
X489000D01*
X487500D01*
Y221499D01*
X486001Y224498D02*
X489000D01*
Y226497D01*
X486001Y227497D02*
X489000D01*
Y229496D01*
X486001Y230496D02*
X489000D01*
Y231996D01*
X488500Y232495D01*
X488000D01*
X487500Y231996D01*
Y230496D01*
Y231996D01*
X487001Y232495D01*
X486501D01*
X486001Y231996D01*
Y230496D01*
X451001Y218500D02*
X454000D01*
X452500D01*
Y220499D01*
X451001D01*
X454000D01*
Y221499D02*
X452001D01*
X451001Y222499D01*
X452001Y223498D01*
X454000D01*
X452500D01*
Y221499D01*
X451001Y224498D02*
X454000D01*
Y226497D01*
X451001Y227497D02*
X454000D01*
Y229496D01*
Y230496D02*
X452001D01*
X451001Y231496D01*
X452001Y232495D01*
X454000D01*
X452500D01*
Y230496D01*
X407001Y150000D02*
X410000D01*
Y151499D01*
X409500Y151999D01*
X407501D01*
X407001Y151499D01*
Y150000D01*
X410000Y154998D02*
Y152999D01*
X408001Y154998D01*
X407501D01*
X407001Y154499D01*
Y153499D01*
X407501Y152999D01*
X410000Y155998D02*
Y156998D01*
Y156498D01*
X407001D01*
X407501Y155998D01*
X392001Y150000D02*
X395000D01*
Y151499D01*
X394500Y151999D01*
X392501D01*
X392001Y151499D01*
Y150000D01*
X395000Y154998D02*
Y152999D01*
X393001Y154998D01*
X392501D01*
X392001Y154499D01*
Y153499D01*
X392501Y152999D01*
Y155998D02*
X392001Y156498D01*
Y157498D01*
X392501Y157997D01*
X394500D01*
X395000Y157498D01*
Y156498D01*
X394500Y155998D01*
X392501D01*
X452699Y486699D02*
X452200Y487199D01*
X451200D01*
X450700Y486699D01*
Y484700D01*
X451200Y484200D01*
X452200D01*
X452699Y484700D01*
X455698Y484200D02*
X453699D01*
X455698Y486199D01*
Y486699D01*
X455198Y487199D01*
X454199D01*
X453699Y486699D01*
X456698D02*
X457198Y487199D01*
X458198D01*
X458697Y486699D01*
Y486199D01*
X458198Y485700D01*
X457698D01*
X458198D01*
X458697Y485200D01*
Y484700D01*
X458198Y484200D01*
X457198D01*
X456698Y484700D01*
X416999Y434999D02*
X416500Y435499D01*
X415500D01*
X415000Y434999D01*
Y433000D01*
X415500Y432500D01*
X416500D01*
X416999Y433000D01*
X419998Y432500D02*
X417999D01*
X419998Y434499D01*
Y434999D01*
X419498Y435499D01*
X418499D01*
X417999Y434999D01*
X422997Y432500D02*
X420998D01*
X422997Y434499D01*
Y434999D01*
X422498Y435499D01*
X421498D01*
X420998Y434999D01*
X462999Y452499D02*
X462500Y452999D01*
X461500D01*
X461000Y452499D01*
Y450500D01*
X461500Y450000D01*
X462500D01*
X462999Y450500D01*
X465998Y450000D02*
X463999D01*
X465998Y451999D01*
Y452499D01*
X465498Y452999D01*
X464499D01*
X463999Y452499D01*
X466998Y450000D02*
X467998D01*
X467498D01*
Y452999D01*
X466998Y452499D01*
X442603Y432743D02*
X442103Y432244D01*
Y431244D01*
X442603Y430744D01*
X444602D01*
X445102Y431244D01*
Y432244D01*
X444602Y432743D01*
X445102Y435743D02*
Y433743D01*
X443103Y435743D01*
X442603D01*
X442103Y435243D01*
Y434243D01*
X442603Y433743D01*
Y436742D02*
X442103Y437242D01*
Y438242D01*
X442603Y438741D01*
X444602D01*
X445102Y438242D01*
Y437242D01*
X444602Y436742D01*
X442603D01*
X435001Y432999D02*
X434501Y432500D01*
Y431500D01*
X435001Y431000D01*
X437000D01*
X437500Y431500D01*
Y432500D01*
X437000Y432999D01*
X437500Y433999D02*
Y434999D01*
Y434499D01*
X434501D01*
X435001Y433999D01*
X437000Y436498D02*
X437500Y436998D01*
Y437998D01*
X437000Y438498D01*
X435001D01*
X434501Y437998D01*
Y436998D01*
X435001Y436498D01*
X435501D01*
X436000Y436998D01*
Y438498D01*
X427499Y460499D02*
X427000Y460999D01*
X426000D01*
X425500Y460499D01*
Y458500D01*
X426000Y458000D01*
X427000D01*
X427499Y458500D01*
X428499Y458000D02*
X429499D01*
X428999D01*
Y460999D01*
X428499Y460499D01*
X430998D02*
X431498Y460999D01*
X432498D01*
X432998Y460499D01*
Y459999D01*
X432498Y459500D01*
X432998Y459000D01*
Y458500D01*
X432498Y458000D01*
X431498D01*
X430998Y458500D01*
Y459000D01*
X431498Y459500D01*
X430998Y459999D01*
Y460499D01*
X431498Y459500D02*
X432498D01*
X431001Y413500D02*
X430501Y414000D01*
Y414999D01*
X431001Y415499D01*
X431501D01*
X432000Y414999D01*
Y414500D01*
Y414999D01*
X432500Y415499D01*
X433000D01*
X433500Y414999D01*
Y414000D01*
X433000Y413500D01*
X430501Y416499D02*
X432500D01*
X433500Y417499D01*
X432500Y418498D01*
X430501D01*
X431001Y419498D02*
X430501Y419998D01*
Y420998D01*
X431001Y421497D01*
X431501D01*
X432000Y420998D01*
Y420498D01*
Y420998D01*
X432500Y421497D01*
X433000D01*
X433500Y420998D01*
Y419998D01*
X433000Y419498D01*
X436500Y513499D02*
Y510500D01*
X438499D01*
X441498D02*
X439499D01*
X441498Y512499D01*
Y512999D01*
X440999Y513499D01*
X439999D01*
X439499Y512999D01*
X414000Y545500D02*
Y548499D01*
X415499D01*
X415999Y547999D01*
Y547000D01*
X415499Y546500D01*
X414000D01*
X415000D02*
X415999Y545500D01*
X418499D02*
Y548499D01*
X416999Y547000D01*
X418998D01*
X413500Y560500D02*
Y563499D01*
X414999D01*
X415499Y562999D01*
Y562000D01*
X414999Y561500D01*
X413500D01*
X414500D02*
X415499Y560500D01*
X418498D02*
X416499D01*
X418498Y562499D01*
Y562999D01*
X417999Y563499D01*
X416999D01*
X416499Y562999D01*
X423499Y522499D02*
X422999Y522999D01*
X422000D01*
X421500Y522499D01*
Y520500D01*
X422000Y520000D01*
X422999D01*
X423499Y520500D01*
X424499Y520000D02*
X425499D01*
X424999D01*
Y522999D01*
X424499Y522499D01*
X426998Y522999D02*
X428998D01*
Y522499D01*
X426998Y520500D01*
Y520000D01*
X412999Y554999D02*
X412500Y555499D01*
X411500D01*
X411000Y554999D01*
Y553000D01*
X411500Y552500D01*
X412500D01*
X412999Y553000D01*
X413999Y552500D02*
X414999D01*
X414499D01*
Y555499D01*
X413999Y554999D01*
X418498Y555499D02*
X417498Y554999D01*
X416498Y554000D01*
Y553000D01*
X416998Y552500D01*
X417998D01*
X418498Y553000D01*
Y553500D01*
X417998Y554000D01*
X416498D01*
X436501Y569421D02*
X436001Y568921D01*
Y567921D01*
X436501Y567421D01*
X438500D01*
X439000Y567921D01*
Y568921D01*
X438500Y569421D01*
X439000Y570420D02*
Y571420D01*
Y570920D01*
X436001D01*
X436501Y570420D01*
Y572920D02*
X436001Y573419D01*
Y574419D01*
X436501Y574919D01*
X438500D01*
X439000Y574419D01*
Y573419D01*
X438500Y572920D01*
X436501D01*
X397001Y565421D02*
X400000D01*
Y566921D01*
X399500Y567421D01*
X397501D01*
X397001Y566921D01*
Y565421D01*
X400000Y568420D02*
Y569420D01*
Y568920D01*
X397001D01*
X397501Y568420D01*
X639499Y132999D02*
X639000Y133499D01*
X638000D01*
X637500Y132999D01*
Y131000D01*
X638000Y130500D01*
X639000D01*
X639499Y131000D01*
X642498Y133499D02*
X641499Y132999D01*
X640499Y132000D01*
Y131000D01*
X640999Y130500D01*
X641998D01*
X642498Y131000D01*
Y131500D01*
X641998Y132000D01*
X640499D01*
X574499Y132499D02*
X574000Y132999D01*
X573000D01*
X572500Y132499D01*
Y130500D01*
X573000Y130000D01*
X574000D01*
X574499Y130500D01*
X577498Y132999D02*
X575499D01*
Y131500D01*
X576499Y131999D01*
X576999D01*
X577498Y131500D01*
Y130500D01*
X576999Y130000D01*
X575999D01*
X575499Y130500D01*
X419000Y541999D02*
Y539500D01*
X419500Y539000D01*
X420500D01*
X420999Y539500D01*
Y541999D01*
X423498Y539000D02*
Y541999D01*
X421999Y540499D01*
X423998D01*
X393244Y393999D02*
Y391500D01*
X393744Y391000D01*
X394744D01*
X395243Y391500D01*
Y393999D01*
X396243Y393499D02*
X396743Y393999D01*
X397743D01*
X398242Y393499D01*
Y392999D01*
X397743Y392499D01*
X397243D01*
X397743D01*
X398242Y392000D01*
Y391500D01*
X397743Y391000D01*
X396743D01*
X396243Y391500D01*
X421500Y289999D02*
Y287500D01*
X422000Y287000D01*
X422999D01*
X423499Y287500D01*
Y289999D01*
X426498Y287000D02*
X424499D01*
X426498Y288999D01*
Y289499D01*
X425998Y289999D01*
X424999D01*
X424499Y289499D01*
X416000Y236000D02*
Y238999D01*
X417499D01*
X417999Y238499D01*
Y237499D01*
X417499Y237000D01*
X416000D01*
X417000D02*
X417999Y236000D01*
X418999D02*
X419999D01*
X419499D01*
Y238999D01*
X418999Y238499D01*
X421498D02*
X421998Y238999D01*
X422998D01*
X423498Y238499D01*
Y237999D01*
X422998Y237499D01*
X422498D01*
X422998D01*
X423498Y237000D01*
Y236500D01*
X422998Y236000D01*
X421998D01*
X421498Y236500D01*
X428500Y241000D02*
Y243999D01*
X429999D01*
X430499Y243499D01*
Y242499D01*
X429999Y242000D01*
X428500D01*
X429500D02*
X430499Y241000D01*
X431499D02*
X432499D01*
X431999D01*
Y243999D01*
X431499Y243499D01*
X435998Y241000D02*
X433998D01*
X435998Y242999D01*
Y243499D01*
X435498Y243999D01*
X434498D01*
X433998Y243499D01*
X428500Y256000D02*
Y258999D01*
X429999D01*
X430499Y258499D01*
Y257500D01*
X429999Y257000D01*
X428500D01*
X429500D02*
X430499Y256000D01*
X431499D02*
X432499D01*
X431999D01*
Y258999D01*
X431499Y258499D01*
X433998Y256000D02*
X434998D01*
X434498D01*
Y258999D01*
X433998Y258499D01*
X454000Y276000D02*
X451001D01*
Y277500D01*
X451501Y277999D01*
X452500D01*
X453000Y277500D01*
Y276000D01*
Y277000D02*
X454000Y277999D01*
Y278999D02*
Y279999D01*
Y279499D01*
X451001D01*
X451501Y278999D01*
Y281498D02*
X451001Y281998D01*
Y282998D01*
X451501Y283498D01*
X453500D01*
X454000Y282998D01*
Y281998D01*
X453500Y281498D01*
X451501D01*
X434000Y400500D02*
X431001D01*
Y402000D01*
X431501Y402499D01*
X432501D01*
X433000Y402000D01*
Y400500D01*
Y401500D02*
X434000Y402499D01*
X431001Y403499D02*
Y405498D01*
X431501D01*
X433500Y403499D01*
X434000D01*
X395000Y306500D02*
Y309499D01*
X396499D01*
X396999Y308999D01*
Y307999D01*
X396499Y307500D01*
X395000D01*
X396000D02*
X396999Y306500D01*
X397999Y308999D02*
X398499Y309499D01*
X399499D01*
X399998Y308999D01*
Y308499D01*
X399499Y307999D01*
X398999D01*
X399499D01*
X399998Y307500D01*
Y307000D01*
X399499Y306500D01*
X398499D01*
X397999Y307000D01*
X466001Y265000D02*
X469000D01*
Y266999D01*
Y267999D02*
Y268999D01*
Y268499D01*
X466001D01*
X466501Y267999D01*
X388499Y385999D02*
X388000Y386499D01*
X387000D01*
X386500Y385999D01*
Y384000D01*
X387000Y383500D01*
X388000D01*
X388499Y384000D01*
X389499Y383500D02*
X390499D01*
X389999D01*
Y386499D01*
X389499Y385999D01*
X393998Y386499D02*
X391998D01*
Y384999D01*
X392998Y385499D01*
X393498D01*
X393998Y384999D01*
Y384000D01*
X393498Y383500D01*
X392498D01*
X391998Y384000D01*
X388499Y378499D02*
X388000Y378999D01*
X387000D01*
X386500Y378499D01*
Y376500D01*
X387000Y376000D01*
X388000D01*
X388499Y376500D01*
X389499Y376000D02*
X390499D01*
X389999D01*
Y378999D01*
X389499Y378499D01*
X393498Y376000D02*
Y378999D01*
X391998Y377500D01*
X393998D01*
X388499Y370999D02*
X388000Y371499D01*
X387000D01*
X386500Y370999D01*
Y369000D01*
X387000Y368500D01*
X388000D01*
X388499Y369000D01*
X389499Y368500D02*
X390499D01*
X389999D01*
Y371499D01*
X389499Y370999D01*
X391998D02*
X392498Y371499D01*
X393498D01*
X393998Y370999D01*
Y370499D01*
X393498Y370000D01*
X392998D01*
X393498D01*
X393998Y369500D01*
Y369000D01*
X393498Y368500D01*
X392498D01*
X391998Y369000D01*
X408499Y425999D02*
X408000Y426499D01*
X407000D01*
X406500Y425999D01*
Y424000D01*
X407000Y423500D01*
X408000D01*
X408499Y424000D01*
X409499Y423500D02*
X410499D01*
X409999D01*
Y426499D01*
X409499Y425999D01*
X413998Y423500D02*
X411998D01*
X413998Y425499D01*
Y425999D01*
X413498Y426499D01*
X412498D01*
X411998Y425999D01*
X459001Y264499D02*
X458501Y264000D01*
Y263000D01*
X459001Y262500D01*
X461000D01*
X461500Y263000D01*
Y264000D01*
X461000Y264499D01*
X461500Y265499D02*
Y266499D01*
Y265999D01*
X458501D01*
X459001Y265499D01*
X461500Y267998D02*
Y268998D01*
Y268498D01*
X458501D01*
X459001Y267998D01*
X431501Y363999D02*
X431001Y363499D01*
Y362500D01*
X431501Y362000D01*
X433500D01*
X434000Y362500D01*
Y363499D01*
X433500Y363999D01*
Y364999D02*
X434000Y365499D01*
Y366498D01*
X433500Y366998D01*
X431501D01*
X431001Y366498D01*
Y365499D01*
X431501Y364999D01*
X432001D01*
X432501Y365499D01*
Y366998D01*
X406501Y294999D02*
X406001Y294499D01*
Y293500D01*
X406501Y293000D01*
X408500D01*
X409000Y293500D01*
Y294499D01*
X408500Y294999D01*
X406501Y295999D02*
X406001Y296499D01*
Y297498D01*
X406501Y297998D01*
X407001D01*
X407501Y297498D01*
X408000Y297998D01*
X408500D01*
X409000Y297498D01*
Y296499D01*
X408500Y295999D01*
X408000D01*
X407501Y296499D01*
X407001Y295999D01*
X406501D01*
X407501Y296499D02*
Y297498D01*
X430499Y250999D02*
X429999Y251499D01*
X429000D01*
X428500Y250999D01*
Y249000D01*
X429000Y248500D01*
X429999D01*
X430499Y249000D01*
X431499Y251499D02*
X433498D01*
Y250999D01*
X431499Y249000D01*
Y248500D01*
X486999Y549999D02*
X486500Y550499D01*
X485500D01*
X485000Y549999D01*
Y548000D01*
X485500Y547500D01*
X486500D01*
X486999Y548000D01*
X489499Y547500D02*
Y550499D01*
X487999Y549000D01*
X489998D01*
X444001Y569421D02*
X443501Y568921D01*
Y567921D01*
X444001Y567421D01*
X446000D01*
X446500Y567921D01*
Y568921D01*
X446000Y569421D01*
X444001Y570420D02*
X443501Y570920D01*
Y571920D01*
X444001Y572420D01*
X444501D01*
X445001Y571920D01*
Y571420D01*
Y571920D01*
X445500Y572420D01*
X446000D01*
X446500Y571920D01*
Y570920D01*
X446000Y570420D01*
X448999Y547999D02*
X448499Y548499D01*
X447500D01*
X447000Y547999D01*
Y546000D01*
X447500Y545500D01*
X448499D01*
X448999Y546000D01*
X451998Y545500D02*
X449999D01*
X451998Y547499D01*
Y547999D01*
X451499Y548499D01*
X450499D01*
X449999Y547999D01*
X416999Y514999D02*
X416500Y515499D01*
X415500D01*
X415000Y514999D01*
Y513000D01*
X415500Y512500D01*
X416500D01*
X416999Y513000D01*
X417999Y512500D02*
X418999D01*
X418499D01*
Y515499D01*
X417999Y514999D01*
X466501Y243500D02*
X469500D01*
Y245000D01*
X469000Y245499D01*
X468500D01*
X468001Y245000D01*
Y243500D01*
Y245000D01*
X467501Y245499D01*
X467001D01*
X466501Y245000D01*
Y243500D01*
X469500Y246499D02*
Y247499D01*
Y246999D01*
X466501D01*
X467001Y246499D01*
X639501Y590000D02*
X642000D01*
X642500Y590500D01*
Y591500D01*
X642000Y591999D01*
X639501D01*
X642500Y594998D02*
Y592999D01*
X640501Y594998D01*
X640001D01*
X639501Y594498D01*
Y593499D01*
X640001Y592999D01*
X643000Y595998D02*
Y597997D01*
X642500Y598997D02*
X639501D01*
Y600497D01*
X640001Y600996D01*
X641001D01*
X641500Y600497D01*
Y598997D01*
X640001Y601996D02*
X639501Y602496D01*
Y603496D01*
X640001Y603996D01*
X640501D01*
X641001Y603496D01*
Y602996D01*
Y603496D01*
X641500Y603996D01*
X642000D01*
X642500Y603496D01*
Y602496D01*
X642000Y601996D01*
X639501Y450000D02*
X642000D01*
X642500Y450500D01*
Y451500D01*
X642000Y451999D01*
X639501D01*
X642500Y454998D02*
Y452999D01*
X640501Y454998D01*
X640001D01*
X639501Y454498D01*
Y453499D01*
X640001Y452999D01*
X643000Y455998D02*
Y457997D01*
X642500Y458997D02*
X639501D01*
Y460497D01*
X640001Y460996D01*
X641001D01*
X641500Y460497D01*
Y458997D01*
X642500Y463996D02*
Y461996D01*
X640501Y463996D01*
X640001D01*
X639501Y463496D01*
Y462496D01*
X640001Y461996D01*
X639501Y310000D02*
X642000D01*
X642500Y310500D01*
Y311500D01*
X642000Y311999D01*
X639501D01*
X642500Y314998D02*
Y312999D01*
X640501Y314998D01*
X640001D01*
X639501Y314498D01*
Y313499D01*
X640001Y312999D01*
X643000Y315998D02*
Y317997D01*
X642500Y318997D02*
X639501D01*
Y320497D01*
X640001Y320996D01*
X641001D01*
X641500Y320497D01*
Y318997D01*
X642500Y321996D02*
Y322996D01*
Y322496D01*
X639501D01*
X640001Y321996D01*
X627500Y571000D02*
Y573999D01*
X629000D01*
X629499Y573499D01*
Y572500D01*
X629000Y572000D01*
X627500D01*
X628500D02*
X629499Y571000D01*
X632498Y571500D02*
Y573499D01*
X631998Y573999D01*
X630999D01*
X630499Y573499D01*
Y571500D01*
X630999Y571000D01*
X631998D01*
X631499Y572000D02*
X632498Y571000D01*
X631998D02*
X632498Y571500D01*
X633498Y573999D02*
Y571000D01*
X635497D01*
X636497Y570500D02*
X638496D01*
X639496Y571000D02*
Y573999D01*
X640996D01*
X641496Y573499D01*
Y572500D01*
X640996Y572000D01*
X639496D01*
X642495Y573499D02*
X642995Y573999D01*
X643995D01*
X644494Y573499D01*
Y572999D01*
X643995Y572500D01*
X643495D01*
X643995D01*
X644494Y572000D01*
Y571500D01*
X643995Y571000D01*
X642995D01*
X642495Y571500D01*
X627500Y431000D02*
Y433999D01*
X629000D01*
X629499Y433499D01*
Y432500D01*
X629000Y432000D01*
X627500D01*
X628500D02*
X629499Y431000D01*
X632498Y431500D02*
Y433499D01*
X631998Y433999D01*
X630999D01*
X630499Y433499D01*
Y431500D01*
X630999Y431000D01*
X631998D01*
X631499Y432000D02*
X632498Y431000D01*
X631998D02*
X632498Y431500D01*
X633498Y433999D02*
Y431000D01*
X635497D01*
X636497Y430500D02*
X638496D01*
X639496Y431000D02*
Y433999D01*
X640996D01*
X641496Y433499D01*
Y432500D01*
X640996Y432000D01*
X639496D01*
X644494Y431000D02*
X642495D01*
X644494Y432999D01*
Y433499D01*
X643995Y433999D01*
X642995D01*
X642495Y433499D01*
X627500Y291000D02*
Y293999D01*
X629000D01*
X629499Y293499D01*
Y292499D01*
X629000Y292000D01*
X627500D01*
X628500D02*
X629499Y291000D01*
X632498Y291500D02*
Y293499D01*
X631998Y293999D01*
X630999D01*
X630499Y293499D01*
Y291500D01*
X630999Y291000D01*
X631998D01*
X631499Y292000D02*
X632498Y291000D01*
X631998D02*
X632498Y291500D01*
X633498Y293999D02*
Y291000D01*
X635497D01*
X636497Y290500D02*
X638496D01*
X639496Y291000D02*
Y293999D01*
X640996D01*
X641496Y293499D01*
Y292499D01*
X640996Y292000D01*
X639496D01*
X642495Y291000D02*
X643495D01*
X642995D01*
Y293999D01*
X642495Y293499D01*
X628500Y539000D02*
Y541999D01*
X629999D01*
X630499Y541499D01*
Y540499D01*
X629999Y540000D01*
X628500D01*
X629500D02*
X630499Y539000D01*
X633498Y539500D02*
Y541499D01*
X632999Y541999D01*
X631999D01*
X631499Y541499D01*
Y539500D01*
X631999Y539000D01*
X632999D01*
X632499Y540000D02*
X633498Y539000D01*
X632999D02*
X633498Y539500D01*
X634498Y541999D02*
Y539000D01*
Y540499D01*
X636497D01*
Y541999D01*
Y539000D01*
X637497Y538500D02*
X639496D01*
X640496Y539000D02*
Y541999D01*
X641996D01*
X642495Y541499D01*
Y540499D01*
X641996Y540000D01*
X640496D01*
X643495Y541499D02*
X643995Y541999D01*
X644995D01*
X645495Y541499D01*
Y540999D01*
X644995Y540499D01*
X644495D01*
X644995D01*
X645495Y540000D01*
Y539500D01*
X644995Y539000D01*
X643995D01*
X643495Y539500D01*
X628500Y399000D02*
Y401999D01*
X629999D01*
X630499Y401499D01*
Y400499D01*
X629999Y400000D01*
X628500D01*
X629500D02*
X630499Y399000D01*
X633498Y399500D02*
Y401499D01*
X632999Y401999D01*
X631999D01*
X631499Y401499D01*
Y399500D01*
X631999Y399000D01*
X632999D01*
X632499Y400000D02*
X633498Y399000D01*
X632999D02*
X633498Y399500D01*
X634498Y401999D02*
Y399000D01*
Y400499D01*
X636497D01*
Y401999D01*
Y399000D01*
X637497Y398500D02*
X639496D01*
X640496Y399000D02*
Y401999D01*
X641996D01*
X642495Y401499D01*
Y400499D01*
X641996Y400000D01*
X640496D01*
X645495Y399000D02*
X643495D01*
X645495Y400999D01*
Y401499D01*
X644995Y401999D01*
X643995D01*
X643495Y401499D01*
X628500Y259000D02*
Y261999D01*
X629999D01*
X630499Y261499D01*
Y260500D01*
X629999Y260000D01*
X628500D01*
X629500D02*
X630499Y259000D01*
X633498Y259500D02*
Y261499D01*
X632999Y261999D01*
X631999D01*
X631499Y261499D01*
Y259500D01*
X631999Y259000D01*
X632999D01*
X632499Y260000D02*
X633498Y259000D01*
X632999D02*
X633498Y259500D01*
X634498Y261999D02*
Y259000D01*
Y260500D01*
X636497D01*
Y261999D01*
Y259000D01*
X637497Y258500D02*
X639496D01*
X640496Y259000D02*
Y261999D01*
X641996D01*
X642495Y261499D01*
Y260500D01*
X641996Y260000D01*
X640496D01*
X643495Y259000D02*
X644495D01*
X643995D01*
Y261999D01*
X643495Y261499D01*
X566000Y561500D02*
Y564499D01*
X567499D01*
X567999Y563999D01*
Y562999D01*
X567499Y562500D01*
X566000D01*
X567000D02*
X567999Y561500D01*
X568999Y564499D02*
Y561500D01*
X570499D01*
X570998Y562000D01*
Y562500D01*
X570499Y562999D01*
X568999D01*
X570499D01*
X570998Y563499D01*
Y563999D01*
X570499Y564499D01*
X568999D01*
X571998Y561000D02*
X573997D01*
X574997Y561500D02*
Y564499D01*
X576497D01*
X576996Y563999D01*
Y562999D01*
X576497Y562500D01*
X574997D01*
X577996Y563999D02*
X578496Y564499D01*
X579496D01*
X579995Y563999D01*
Y563499D01*
X579496Y562999D01*
X578996D01*
X579496D01*
X579995Y562500D01*
Y562000D01*
X579496Y561500D01*
X578496D01*
X577996Y562000D01*
X566000Y421500D02*
Y424499D01*
X567499D01*
X567999Y423999D01*
Y422999D01*
X567499Y422500D01*
X566000D01*
X567000D02*
X567999Y421500D01*
X568999Y424499D02*
Y421500D01*
X570499D01*
X570998Y422000D01*
Y422500D01*
X570499Y422999D01*
X568999D01*
X570499D01*
X570998Y423499D01*
Y423999D01*
X570499Y424499D01*
X568999D01*
X571998Y421000D02*
X573997D01*
X574997Y421500D02*
Y424499D01*
X576497D01*
X576996Y423999D01*
Y422999D01*
X576497Y422500D01*
X574997D01*
X579995Y421500D02*
X577996D01*
X579995Y423499D01*
Y423999D01*
X579496Y424499D01*
X578496D01*
X577996Y423999D01*
X566000Y281500D02*
Y284499D01*
X567499D01*
X567999Y283999D01*
Y282999D01*
X567499Y282500D01*
X566000D01*
X567000D02*
X567999Y281500D01*
X568999Y284499D02*
Y281500D01*
X570499D01*
X570998Y282000D01*
Y282500D01*
X570499Y282999D01*
X568999D01*
X570499D01*
X570998Y283499D01*
Y283999D01*
X570499Y284499D01*
X568999D01*
X571998Y281000D02*
X573997D01*
X574997Y281500D02*
Y284499D01*
X576497D01*
X576996Y283999D01*
Y282999D01*
X576497Y282500D01*
X574997D01*
X577996Y281500D02*
X578996D01*
X578496D01*
Y284499D01*
X577996Y283999D01*
X671500Y582453D02*
X668501D01*
Y583952D01*
X669001Y584452D01*
X670001D01*
X670500Y583952D01*
Y582453D01*
Y583453D02*
X671500Y584452D01*
X668501Y585452D02*
X670500D01*
X671500Y586451D01*
X670500Y587451D01*
X668501D01*
X671500Y590450D02*
Y588451D01*
X669501Y590450D01*
X669001D01*
X668501Y589950D01*
Y588951D01*
X669001Y588451D01*
X672000Y591450D02*
Y593449D01*
X671500Y594449D02*
X668501D01*
Y595948D01*
X669001Y596448D01*
X670001D01*
X670500Y595948D01*
Y594449D01*
X669001Y597448D02*
X668501Y597948D01*
Y598947D01*
X669001Y599447D01*
X669501D01*
X670001Y598947D01*
Y598448D01*
Y598947D01*
X670500Y599447D01*
X671000D01*
X671500Y598947D01*
Y597948D01*
X671000Y597448D01*
X671500Y442453D02*
X668501D01*
Y443952D01*
X669001Y444452D01*
X670001D01*
X670500Y443952D01*
Y442453D01*
Y443453D02*
X671500Y444452D01*
X668501Y445452D02*
X670500D01*
X671500Y446452D01*
X670500Y447451D01*
X668501D01*
X671500Y450450D02*
Y448451D01*
X669501Y450450D01*
X669001D01*
X668501Y449950D01*
Y448951D01*
X669001Y448451D01*
X672000Y451450D02*
Y453449D01*
X671500Y454449D02*
X668501D01*
Y455948D01*
X669001Y456448D01*
X670001D01*
X670500Y455948D01*
Y454449D01*
X671500Y459447D02*
Y457448D01*
X669501Y459447D01*
X669001D01*
X668501Y458948D01*
Y457948D01*
X669001Y457448D01*
X671500Y302453D02*
X668501D01*
Y303952D01*
X669001Y304452D01*
X670001D01*
X670500Y303952D01*
Y302453D01*
Y303452D02*
X671500Y304452D01*
X668501Y305452D02*
X670500D01*
X671500Y306452D01*
X670500Y307451D01*
X668501D01*
X671500Y310450D02*
Y308451D01*
X669501Y310450D01*
X669001D01*
X668501Y309950D01*
Y308951D01*
X669001Y308451D01*
X672000Y311450D02*
Y313449D01*
X671500Y314449D02*
X668501D01*
Y315948D01*
X669001Y316448D01*
X670001D01*
X670500Y315948D01*
Y314449D01*
X671500Y317448D02*
Y318448D01*
Y317948D01*
X668501D01*
X669001Y317448D01*
X681500Y562000D02*
X678501D01*
Y563499D01*
X679001Y563999D01*
X680000D01*
X680500Y563499D01*
Y562000D01*
Y563000D02*
X681500Y563999D01*
X678501Y564999D02*
X680500D01*
X681500Y565999D01*
X680500Y566998D01*
X678501D01*
X681500Y567998D02*
Y568998D01*
Y568498D01*
X678501D01*
X679001Y567998D01*
X682000Y570497D02*
Y572497D01*
X681500Y573496D02*
X678501D01*
Y574996D01*
X679001Y575496D01*
X680000D01*
X680500Y574996D01*
Y573496D01*
X679001Y576495D02*
X678501Y576995D01*
Y577995D01*
X679001Y578495D01*
X679501D01*
X680000Y577995D01*
Y577495D01*
Y577995D01*
X680500Y578495D01*
X681000D01*
X681500Y577995D01*
Y576995D01*
X681000Y576495D01*
X681500Y422000D02*
X678501D01*
Y423499D01*
X679001Y423999D01*
X680000D01*
X680500Y423499D01*
Y422000D01*
Y423000D02*
X681500Y423999D01*
X678501Y424999D02*
X680500D01*
X681500Y425999D01*
X680500Y426998D01*
X678501D01*
X681500Y427998D02*
Y428998D01*
Y428498D01*
X678501D01*
X679001Y427998D01*
X682000Y430497D02*
Y432497D01*
X681500Y433496D02*
X678501D01*
Y434996D01*
X679001Y435496D01*
X680000D01*
X680500Y434996D01*
Y433496D01*
X681500Y438495D02*
Y436495D01*
X679501Y438495D01*
X679001D01*
X678501Y437995D01*
Y436995D01*
X679001Y436495D01*
X681500Y282000D02*
X678501D01*
Y283500D01*
X679001Y283999D01*
X680000D01*
X680500Y283500D01*
Y282000D01*
Y283000D02*
X681500Y283999D01*
X678501Y284999D02*
X680500D01*
X681500Y285999D01*
X680500Y286998D01*
X678501D01*
X681500Y287998D02*
Y288998D01*
Y288498D01*
X678501D01*
X679001Y287998D01*
X682000Y290497D02*
Y292497D01*
X681500Y293496D02*
X678501D01*
Y294996D01*
X679001Y295496D01*
X680000D01*
X680500Y294996D01*
Y293496D01*
X681500Y296495D02*
Y297495D01*
Y296995D01*
X678501D01*
X679001Y296495D01*
X670500Y551999D02*
X668501D01*
X668001Y551500D01*
Y550500D01*
X668501Y550000D01*
X670500D01*
X671000Y550500D01*
Y551500D01*
X670000Y551000D02*
X671000Y551999D01*
Y551500D02*
X670500Y551999D01*
X668001Y552999D02*
X671000D01*
Y554998D01*
X671500Y555998D02*
Y557997D01*
X671000Y558997D02*
X668001D01*
Y560497D01*
X668501Y560996D01*
X669500D01*
X670000Y560497D01*
Y558997D01*
X668501Y561996D02*
X668001Y562496D01*
Y563496D01*
X668501Y563996D01*
X669001D01*
X669500Y563496D01*
Y562996D01*
Y563496D01*
X670000Y563996D01*
X670500D01*
X671000Y563496D01*
Y562496D01*
X670500Y561996D01*
Y411999D02*
X668501D01*
X668001Y411500D01*
Y410500D01*
X668501Y410000D01*
X670500D01*
X671000Y410500D01*
Y411500D01*
X670000Y411000D02*
X671000Y411999D01*
Y411500D02*
X670500Y411999D01*
X668001Y412999D02*
X671000D01*
Y414998D01*
X671500Y415998D02*
Y417997D01*
X671000Y418997D02*
X668001D01*
Y420497D01*
X668501Y420996D01*
X669500D01*
X670000Y420497D01*
Y418997D01*
X671000Y423995D02*
Y421996D01*
X669001Y423995D01*
X668501D01*
X668001Y423496D01*
Y422496D01*
X668501Y421996D01*
X670500Y271999D02*
X668501D01*
X668001Y271499D01*
Y270500D01*
X668501Y270000D01*
X670500D01*
X671000Y270500D01*
Y271499D01*
X670000Y271000D02*
X671000Y271999D01*
Y271499D02*
X670500Y271999D01*
X668001Y272999D02*
X671000D01*
Y274998D01*
X671500Y275998D02*
Y277997D01*
X671000Y278997D02*
X668001D01*
Y280497D01*
X668501Y280996D01*
X669500D01*
X670000Y280497D01*
Y278997D01*
X671000Y281996D02*
Y282996D01*
Y282496D01*
X668001D01*
X668501Y281996D01*
X670500Y518999D02*
X668501D01*
X668001Y518500D01*
Y517500D01*
X668501Y517000D01*
X670500D01*
X671000Y517500D01*
Y518500D01*
X670000Y518000D02*
X671000Y518999D01*
Y518500D02*
X670500Y518999D01*
X668001Y519999D02*
X671000D01*
X669500D01*
Y521998D01*
X668001D01*
X671000D01*
X671500Y522998D02*
Y524997D01*
X671000Y525997D02*
X668001D01*
Y527497D01*
X668501Y527996D01*
X669500D01*
X670000Y527497D01*
Y525997D01*
X668501Y528996D02*
X668001Y529496D01*
Y530496D01*
X668501Y530996D01*
X669001D01*
X669500Y530496D01*
Y529996D01*
Y530496D01*
X670000Y530996D01*
X670500D01*
X671000Y530496D01*
Y529496D01*
X670500Y528996D01*
Y378999D02*
X668501D01*
X668001Y378500D01*
Y377500D01*
X668501Y377000D01*
X670500D01*
X671000Y377500D01*
Y378500D01*
X670000Y378000D02*
X671000Y378999D01*
Y378500D02*
X670500Y378999D01*
X668001Y379999D02*
X671000D01*
X669500D01*
Y381998D01*
X668001D01*
X671000D01*
X671500Y382998D02*
Y384997D01*
X671000Y385997D02*
X668001D01*
Y387497D01*
X668501Y387996D01*
X669500D01*
X670000Y387497D01*
Y385997D01*
X671000Y390996D02*
Y388996D01*
X669001Y390996D01*
X668501D01*
X668001Y390496D01*
Y389496D01*
X668501Y388996D01*
X670500Y238999D02*
X668501D01*
X668001Y238499D01*
Y237500D01*
X668501Y237000D01*
X670500D01*
X671000Y237500D01*
Y238499D01*
X670000Y238000D02*
X671000Y238999D01*
Y238499D02*
X670500Y238999D01*
X668001Y239999D02*
X671000D01*
X669500D01*
Y241998D01*
X668001D01*
X671000D01*
X671500Y242998D02*
Y244997D01*
X671000Y245997D02*
X668001D01*
Y247497D01*
X668501Y247996D01*
X669500D01*
X670000Y247497D01*
Y245997D01*
X671000Y248996D02*
Y249996D01*
Y249496D01*
X668001D01*
X668501Y248996D01*
X582500Y547999D02*
Y545500D01*
X583000Y545000D01*
X583999D01*
X584499Y545500D01*
Y547999D01*
X585499Y545000D02*
X586499D01*
X585999D01*
Y547999D01*
X585499Y547499D01*
X587998Y544500D02*
X589998D01*
X590997Y545000D02*
Y547999D01*
X592497D01*
X592997Y547499D01*
Y546499D01*
X592497Y546000D01*
X590997D01*
X593996Y547499D02*
X594496Y547999D01*
X595496D01*
X595996Y547499D01*
Y546999D01*
X595496Y546499D01*
X594996D01*
X595496D01*
X595996Y546000D01*
Y545500D01*
X595496Y545000D01*
X594496D01*
X593996Y545500D01*
X582500Y407999D02*
Y405500D01*
X583000Y405000D01*
X583999D01*
X584499Y405500D01*
Y407999D01*
X585499Y405000D02*
X586499D01*
X585999D01*
Y407999D01*
X585499Y407499D01*
X587998Y404500D02*
X589998D01*
X590997Y405000D02*
Y407999D01*
X592497D01*
X592997Y407499D01*
Y406499D01*
X592497Y406000D01*
X590997D01*
X595996Y405000D02*
X593996D01*
X595996Y406999D01*
Y407499D01*
X595496Y407999D01*
X594496D01*
X593996Y407499D01*
X582500Y267999D02*
Y265500D01*
X583000Y265000D01*
X583999D01*
X584499Y265500D01*
Y267999D01*
X585499Y265000D02*
X586499D01*
X585999D01*
Y267999D01*
X585499Y267499D01*
X587998Y264500D02*
X589998D01*
X590997Y265000D02*
Y267999D01*
X592497D01*
X592997Y267499D01*
Y266499D01*
X592497Y266000D01*
X590997D01*
X593996Y265000D02*
X594996D01*
X594496D01*
Y267999D01*
X593996Y267499D01*
X731999Y526999D02*
X730000D01*
Y525499D01*
X731000D01*
X730000D01*
Y524000D01*
X732999D02*
X733999D01*
X733499D01*
Y526999D01*
X732999Y526499D01*
X735498Y523500D02*
X737498D01*
X738497Y524000D02*
Y526999D01*
X739997D01*
X740497Y526499D01*
Y525499D01*
X739997Y525000D01*
X738497D01*
X741496Y526499D02*
X741996Y526999D01*
X742996D01*
X743496Y526499D01*
Y525999D01*
X742996Y525499D01*
X742496D01*
X742996D01*
X743496Y525000D01*
Y524500D01*
X742996Y524000D01*
X741996D01*
X741496Y524500D01*
X731999Y386999D02*
X730000D01*
Y385500D01*
X731000D01*
X730000D01*
Y384000D01*
X732999D02*
X733999D01*
X733499D01*
Y386999D01*
X732999Y386499D01*
X735498Y383500D02*
X737498D01*
X738497Y384000D02*
Y386999D01*
X739997D01*
X740497Y386499D01*
Y385500D01*
X739997Y385000D01*
X738497D01*
X743496Y384000D02*
X741496D01*
X743496Y385999D01*
Y386499D01*
X742996Y386999D01*
X741996D01*
X741496Y386499D01*
X731999Y246999D02*
X730000D01*
Y245499D01*
X731000D01*
X730000D01*
Y244000D01*
X732999D02*
X733999D01*
X733499D01*
Y246999D01*
X732999Y246499D01*
X735498Y243500D02*
X737498D01*
X738497Y244000D02*
Y246999D01*
X739997D01*
X740497Y246499D01*
Y245499D01*
X739997Y245000D01*
X738497D01*
X741496Y244000D02*
X742496D01*
X741996D01*
Y246999D01*
X741496Y246499D01*
X581500Y568999D02*
Y566000D01*
X583000D01*
X583499Y566500D01*
Y568499D01*
X583000Y568999D01*
X581500D01*
X584499D02*
Y566000D01*
X585998D01*
X586498Y566500D01*
Y567000D01*
X585998Y567499D01*
X584499D01*
X585998D01*
X586498Y567999D01*
Y568499D01*
X585998Y568999D01*
X584499D01*
X587498Y565500D02*
X589497D01*
X590497Y566000D02*
Y568999D01*
X591997D01*
X592496Y568499D01*
Y567499D01*
X591997Y567000D01*
X590497D01*
X593496Y568499D02*
X593996Y568999D01*
X594996D01*
X595496Y568499D01*
Y567999D01*
X594996Y567499D01*
X594496D01*
X594996D01*
X595496Y567000D01*
Y566500D01*
X594996Y566000D01*
X593996D01*
X593496Y566500D01*
X581500Y428999D02*
Y426000D01*
X583000D01*
X583499Y426500D01*
Y428499D01*
X583000Y428999D01*
X581500D01*
X584499D02*
Y426000D01*
X585998D01*
X586498Y426500D01*
Y427000D01*
X585998Y427499D01*
X584499D01*
X585998D01*
X586498Y427999D01*
Y428499D01*
X585998Y428999D01*
X584499D01*
X587498Y425500D02*
X589497D01*
X590497Y426000D02*
Y428999D01*
X591997D01*
X592496Y428499D01*
Y427499D01*
X591997Y427000D01*
X590497D01*
X595496Y426000D02*
X593496D01*
X595496Y427999D01*
Y428499D01*
X594996Y428999D01*
X593996D01*
X593496Y428499D01*
X581500Y288999D02*
Y286000D01*
X583000D01*
X583499Y286500D01*
Y288499D01*
X583000Y288999D01*
X581500D01*
X584499D02*
Y286000D01*
X585998D01*
X586498Y286500D01*
Y287000D01*
X585998Y287499D01*
X584499D01*
X585998D01*
X586498Y287999D01*
Y288499D01*
X585998Y288999D01*
X584499D01*
X587498Y285500D02*
X589497D01*
X590497Y286000D02*
Y288999D01*
X591997D01*
X592496Y288499D01*
Y287499D01*
X591997Y287000D01*
X590497D01*
X593496Y286000D02*
X594496D01*
X593996D01*
Y288999D01*
X593496Y288499D01*
X615001Y529999D02*
X614501Y529499D01*
Y528500D01*
X615001Y528000D01*
X617000D01*
X617500Y528500D01*
Y529499D01*
X617000Y529999D01*
X614501Y530999D02*
X617500D01*
Y532499D01*
X617000Y532998D01*
X616500D01*
X616001Y532499D01*
Y530999D01*
Y532499D01*
X615501Y532998D01*
X615001D01*
X614501Y532499D01*
Y530999D01*
X618000Y533998D02*
Y535997D01*
X617500Y536997D02*
X614501D01*
Y538497D01*
X615001Y538996D01*
X616001D01*
X616500Y538497D01*
Y536997D01*
X615001Y539996D02*
X614501Y540496D01*
Y541496D01*
X615001Y541995D01*
X615501D01*
X616001Y541496D01*
Y540996D01*
Y541496D01*
X616500Y541995D01*
X617000D01*
X617500Y541496D01*
Y540496D01*
X617000Y539996D01*
X615001Y389999D02*
X614501Y389499D01*
Y388500D01*
X615001Y388000D01*
X617000D01*
X617500Y388500D01*
Y389499D01*
X617000Y389999D01*
X614501Y390999D02*
X617500D01*
Y392498D01*
X617000Y392998D01*
X616500D01*
X616001Y392498D01*
Y390999D01*
Y392498D01*
X615501Y392998D01*
X615001D01*
X614501Y392498D01*
Y390999D01*
X618000Y393998D02*
Y395997D01*
X617500Y396997D02*
X614501D01*
Y398497D01*
X615001Y398996D01*
X616001D01*
X616500Y398497D01*
Y396997D01*
X617500Y401996D02*
Y399996D01*
X615501Y401996D01*
X615001D01*
X614501Y401496D01*
Y400496D01*
X615001Y399996D01*
Y249999D02*
X614501Y249500D01*
Y248500D01*
X615001Y248000D01*
X617000D01*
X617500Y248500D01*
Y249500D01*
X617000Y249999D01*
X614501Y250999D02*
X617500D01*
Y252499D01*
X617000Y252998D01*
X616500D01*
X616001Y252499D01*
Y250999D01*
Y252499D01*
X615501Y252998D01*
X615001D01*
X614501Y252499D01*
Y250999D01*
X618000Y253998D02*
Y255997D01*
X617500Y256997D02*
X614501D01*
Y258497D01*
X615001Y258996D01*
X616001D01*
X616500Y258497D01*
Y256997D01*
X617500Y259996D02*
Y260996D01*
Y260496D01*
X614501D01*
X615001Y259996D01*
X609988Y618499D02*
X609488Y618999D01*
X608488D01*
X607988Y618499D01*
Y616500D01*
X608488Y616000D01*
X609488D01*
X609988Y616500D01*
X610987Y618999D02*
Y616500D01*
X611487Y616000D01*
X612487D01*
X612987Y616500D01*
Y618999D01*
X615986Y616000D02*
X613986D01*
X615986Y617999D01*
Y618499D01*
X615486Y618999D01*
X614486D01*
X613986Y618499D01*
X616985Y615500D02*
X618985D01*
X621984Y616000D02*
X619984D01*
X621984Y617999D01*
Y618499D01*
X621484Y618999D01*
X620484D01*
X619984Y618499D01*
X622983Y615500D02*
X624983D01*
X625982Y616000D02*
Y618999D01*
X627482D01*
X627982Y618499D01*
Y617499D01*
X627482Y617000D01*
X625982D01*
X628981Y618499D02*
X629481Y618999D01*
X630481D01*
X630981Y618499D01*
Y617999D01*
X630481Y617499D01*
X629981D01*
X630481D01*
X630981Y617000D01*
Y616500D01*
X630481Y616000D01*
X629481D01*
X628981Y616500D01*
X609988Y478499D02*
X609488Y478999D01*
X608488D01*
X607988Y478499D01*
Y476500D01*
X608488Y476000D01*
X609488D01*
X609988Y476500D01*
X610987Y478999D02*
Y476500D01*
X611487Y476000D01*
X612487D01*
X612987Y476500D01*
Y478999D01*
X615986Y476000D02*
X613986D01*
X615986Y477999D01*
Y478499D01*
X615486Y478999D01*
X614486D01*
X613986Y478499D01*
X616985Y475500D02*
X618985D01*
X621984Y476000D02*
X619984D01*
X621984Y477999D01*
Y478499D01*
X621484Y478999D01*
X620484D01*
X619984Y478499D01*
X622983Y475500D02*
X624983D01*
X625982Y476000D02*
Y478999D01*
X627482D01*
X627982Y478499D01*
Y477499D01*
X627482Y477000D01*
X625982D01*
X630981Y476000D02*
X628981D01*
X630981Y477999D01*
Y478499D01*
X630481Y478999D01*
X629481D01*
X628981Y478499D01*
X609988Y338499D02*
X609488Y338999D01*
X608488D01*
X607988Y338499D01*
Y336500D01*
X608488Y336000D01*
X609488D01*
X609988Y336500D01*
X610987Y338999D02*
Y336500D01*
X611487Y336000D01*
X612487D01*
X612987Y336500D01*
Y338999D01*
X615986Y336000D02*
X613986D01*
X615986Y337999D01*
Y338499D01*
X615486Y338999D01*
X614486D01*
X613986Y338499D01*
X616985Y335500D02*
X618985D01*
X621984Y336000D02*
X619984D01*
X621984Y337999D01*
Y338499D01*
X621484Y338999D01*
X620484D01*
X619984Y338499D01*
X622983Y335500D02*
X624983D01*
X625982Y336000D02*
Y338999D01*
X627482D01*
X627982Y338499D01*
Y337499D01*
X627482Y337000D01*
X625982D01*
X628981Y336000D02*
X629981D01*
X629481D01*
Y338999D01*
X628981Y338499D01*
X609988Y610999D02*
X609488Y611499D01*
X608488D01*
X607988Y610999D01*
Y609000D01*
X608488Y608500D01*
X609488D01*
X609988Y609000D01*
X610987Y611499D02*
Y609000D01*
X611487Y608500D01*
X612487D01*
X612987Y609000D01*
Y611499D01*
X615986Y608500D02*
X613986D01*
X615986Y610499D01*
Y610999D01*
X615486Y611499D01*
X614486D01*
X613986Y610999D01*
X616985Y608000D02*
X618985D01*
X619984Y608500D02*
X620984D01*
X620484D01*
Y611499D01*
X619984Y610999D01*
X622483Y608000D02*
X624483D01*
X625483Y608500D02*
Y611499D01*
X626982D01*
X627482Y610999D01*
Y610000D01*
X626982Y609500D01*
X625483D01*
X628482Y610999D02*
X628981Y611499D01*
X629981D01*
X630481Y610999D01*
Y610499D01*
X629981Y610000D01*
X629481D01*
X629981D01*
X630481Y609500D01*
Y609000D01*
X629981Y608500D01*
X628981D01*
X628482Y609000D01*
X609988Y470999D02*
X609488Y471499D01*
X608488D01*
X607988Y470999D01*
Y469000D01*
X608488Y468500D01*
X609488D01*
X609988Y469000D01*
X610987Y471499D02*
Y469000D01*
X611487Y468500D01*
X612487D01*
X612987Y469000D01*
Y471499D01*
X615986Y468500D02*
X613986D01*
X615986Y470499D01*
Y470999D01*
X615486Y471499D01*
X614486D01*
X613986Y470999D01*
X616985Y468000D02*
X618985D01*
X619984Y468500D02*
X620984D01*
X620484D01*
Y471499D01*
X619984Y470999D01*
X622483Y468000D02*
X624483D01*
X625483Y468500D02*
Y471499D01*
X626982D01*
X627482Y470999D01*
Y470000D01*
X626982Y469500D01*
X625483D01*
X630481Y468500D02*
X628482D01*
X630481Y470499D01*
Y470999D01*
X629981Y471499D01*
X628981D01*
X628482Y470999D01*
X609988Y330999D02*
X609488Y331499D01*
X608488D01*
X607988Y330999D01*
Y329000D01*
X608488Y328500D01*
X609488D01*
X609988Y329000D01*
X610987Y331499D02*
Y329000D01*
X611487Y328500D01*
X612487D01*
X612987Y329000D01*
Y331499D01*
X615986Y328500D02*
X613986D01*
X615986Y330499D01*
Y330999D01*
X615486Y331499D01*
X614486D01*
X613986Y330999D01*
X616985Y328000D02*
X618985D01*
X619984Y328500D02*
X620984D01*
X620484D01*
Y331499D01*
X619984Y330999D01*
X622483Y328000D02*
X624483D01*
X625483Y328500D02*
Y331499D01*
X626982D01*
X627482Y330999D01*
Y329999D01*
X626982Y329500D01*
X625483D01*
X628482Y328500D02*
X629481D01*
X628981D01*
Y331499D01*
X628482Y330999D01*
X621999Y512499D02*
X621499Y512999D01*
X620500D01*
X620000Y512499D01*
Y510500D01*
X620500Y510000D01*
X621499D01*
X621999Y510500D01*
X624998D02*
Y512499D01*
X624499Y512999D01*
X623499D01*
X622999Y512499D01*
Y510500D01*
X623499Y510000D01*
X624499D01*
X623999Y511000D02*
X624998Y510000D01*
X624499D02*
X624998Y510500D01*
X627997Y510000D02*
X625998D01*
X627997Y511999D01*
Y512499D01*
X627498Y512999D01*
X626498D01*
X625998Y512499D01*
X628997Y509500D02*
X630996D01*
X631996Y510000D02*
Y512999D01*
X633496D01*
X633995Y512499D01*
Y511500D01*
X633496Y511000D01*
X631996D01*
X634995Y512499D02*
X635495Y512999D01*
X636495D01*
X636995Y512499D01*
Y511999D01*
X636495Y511500D01*
X635995D01*
X636495D01*
X636995Y511000D01*
Y510500D01*
X636495Y510000D01*
X635495D01*
X634995Y510500D01*
X621999Y372499D02*
X621499Y372999D01*
X620500D01*
X620000Y372499D01*
Y370500D01*
X620500Y370000D01*
X621499D01*
X621999Y370500D01*
X624998D02*
Y372499D01*
X624499Y372999D01*
X623499D01*
X622999Y372499D01*
Y370500D01*
X623499Y370000D01*
X624499D01*
X623999Y371000D02*
X624998Y370000D01*
X624499D02*
X624998Y370500D01*
X627997Y370000D02*
X625998D01*
X627997Y371999D01*
Y372499D01*
X627498Y372999D01*
X626498D01*
X625998Y372499D01*
X628997Y369500D02*
X630996D01*
X631996Y370000D02*
Y372999D01*
X633496D01*
X633995Y372499D01*
Y371499D01*
X633496Y371000D01*
X631996D01*
X636995Y370000D02*
X634995D01*
X636995Y371999D01*
Y372499D01*
X636495Y372999D01*
X635495D01*
X634995Y372499D01*
X621999Y232499D02*
X621499Y232999D01*
X620500D01*
X620000Y232499D01*
Y230500D01*
X620500Y230000D01*
X621499D01*
X621999Y230500D01*
X624998D02*
Y232499D01*
X624499Y232999D01*
X623499D01*
X622999Y232499D01*
Y230500D01*
X623499Y230000D01*
X624499D01*
X623999Y231000D02*
X624998Y230000D01*
X624499D02*
X624998Y230500D01*
X627997Y230000D02*
X625998D01*
X627997Y231999D01*
Y232499D01*
X627498Y232999D01*
X626498D01*
X625998Y232499D01*
X628997Y229500D02*
X630996D01*
X631996Y230000D02*
Y232999D01*
X633496D01*
X633995Y232499D01*
Y231500D01*
X633496Y231000D01*
X631996D01*
X634995Y230000D02*
X635995D01*
X635495D01*
Y232999D01*
X634995Y232499D01*
X580499Y510999D02*
X579999Y511499D01*
X579000D01*
X578500Y510999D01*
Y509000D01*
X579000Y508500D01*
X579999D01*
X580499Y509000D01*
X581499Y511499D02*
Y509000D01*
X581999Y508500D01*
X582999D01*
X583498Y509000D01*
Y511499D01*
X584498Y508500D02*
X585498D01*
X584998D01*
Y511499D01*
X584498Y510999D01*
X586997Y508000D02*
X588997D01*
X591996Y508500D02*
X589996D01*
X591996Y510499D01*
Y510999D01*
X591496Y511499D01*
X590496D01*
X589996Y510999D01*
X592995Y508000D02*
X594995D01*
X595994Y508500D02*
Y511499D01*
X597494D01*
X597994Y510999D01*
Y510000D01*
X597494Y509500D01*
X595994D01*
X598993Y510999D02*
X599493Y511499D01*
X600493D01*
X600993Y510999D01*
Y510499D01*
X600493Y510000D01*
X599993D01*
X600493D01*
X600993Y509500D01*
Y509000D01*
X600493Y508500D01*
X599493D01*
X598993Y509000D01*
X580499Y370999D02*
X579999Y371499D01*
X579000D01*
X578500Y370999D01*
Y369000D01*
X579000Y368500D01*
X579999D01*
X580499Y369000D01*
X581499Y371499D02*
Y369000D01*
X581999Y368500D01*
X582999D01*
X583498Y369000D01*
Y371499D01*
X584498Y368500D02*
X585498D01*
X584998D01*
Y371499D01*
X584498Y370999D01*
X586997Y368000D02*
X588997D01*
X591996Y368500D02*
X589996D01*
X591996Y370499D01*
Y370999D01*
X591496Y371499D01*
X590496D01*
X589996Y370999D01*
X592995Y368000D02*
X594995D01*
X595994Y368500D02*
Y371499D01*
X597494D01*
X597994Y370999D01*
Y370000D01*
X597494Y369500D01*
X595994D01*
X600993Y368500D02*
X598993D01*
X600993Y370499D01*
Y370999D01*
X600493Y371499D01*
X599493D01*
X598993Y370999D01*
X580499Y230999D02*
X579999Y231499D01*
X579000D01*
X578500Y230999D01*
Y229000D01*
X579000Y228500D01*
X579999D01*
X580499Y229000D01*
X581499Y231499D02*
Y229000D01*
X581999Y228500D01*
X582999D01*
X583498Y229000D01*
Y231499D01*
X584498Y228500D02*
X585498D01*
X584998D01*
Y231499D01*
X584498Y230999D01*
X586997Y228000D02*
X588997D01*
X591996Y228500D02*
X589996D01*
X591996Y230499D01*
Y230999D01*
X591496Y231499D01*
X590496D01*
X589996Y230999D01*
X592995Y228000D02*
X594995D01*
X595994Y228500D02*
Y231499D01*
X597494D01*
X597994Y230999D01*
Y229999D01*
X597494Y229500D01*
X595994D01*
X598993Y228500D02*
X599993D01*
X599493D01*
Y231499D01*
X598993Y230999D01*
X580499Y518499D02*
X579999Y518999D01*
X579000D01*
X578500Y518499D01*
Y516500D01*
X579000Y516000D01*
X579999D01*
X580499Y516500D01*
X581499Y518999D02*
Y516500D01*
X581999Y516000D01*
X582999D01*
X583498Y516500D01*
Y518999D01*
X584498Y516000D02*
X585498D01*
X584998D01*
Y518999D01*
X584498Y518499D01*
X586997Y515500D02*
X588997D01*
X589996Y516000D02*
X590996D01*
X590496D01*
Y518999D01*
X589996Y518499D01*
X592495Y515500D02*
X594495D01*
X595495Y516000D02*
Y518999D01*
X596994D01*
X597494Y518499D01*
Y517499D01*
X596994Y517000D01*
X595495D01*
X598493Y518499D02*
X598993Y518999D01*
X599993D01*
X600493Y518499D01*
Y517999D01*
X599993Y517499D01*
X599493D01*
X599993D01*
X600493Y517000D01*
Y516500D01*
X599993Y516000D01*
X598993D01*
X598493Y516500D01*
X580499Y378499D02*
X579999Y378999D01*
X579000D01*
X578500Y378499D01*
Y376500D01*
X579000Y376000D01*
X579999D01*
X580499Y376500D01*
X581499Y378999D02*
Y376500D01*
X581999Y376000D01*
X582999D01*
X583498Y376500D01*
Y378999D01*
X584498Y376000D02*
X585498D01*
X584998D01*
Y378999D01*
X584498Y378499D01*
X586997Y375500D02*
X588997D01*
X589996Y376000D02*
X590996D01*
X590496D01*
Y378999D01*
X589996Y378499D01*
X592495Y375500D02*
X594495D01*
X595495Y376000D02*
Y378999D01*
X596994D01*
X597494Y378499D01*
Y377500D01*
X596994Y377000D01*
X595495D01*
X600493Y376000D02*
X598493D01*
X600493Y377999D01*
Y378499D01*
X599993Y378999D01*
X598993D01*
X598493Y378499D01*
X580499Y238499D02*
X579999Y238999D01*
X579000D01*
X578500Y238499D01*
Y236500D01*
X579000Y236000D01*
X579999D01*
X580499Y236500D01*
X581499Y238999D02*
Y236500D01*
X581999Y236000D01*
X582999D01*
X583498Y236500D01*
Y238999D01*
X584498Y236000D02*
X585498D01*
X584998D01*
Y238999D01*
X584498Y238499D01*
X586997Y235500D02*
X588997D01*
X589996Y236000D02*
X590996D01*
X590496D01*
Y238999D01*
X589996Y238499D01*
X592495Y235500D02*
X594495D01*
X595495Y236000D02*
Y238999D01*
X596994D01*
X597494Y238499D01*
Y237499D01*
X596994Y237000D01*
X595495D01*
X598493Y236000D02*
X599493D01*
X598993D01*
Y238999D01*
X598493Y238499D01*
D14*
X425925Y423996D02*
X429074D01*
X450925Y206004D02*
X454075D01*
X485925D02*
X489075D01*
X520926D02*
X524075D01*
M02*
