G04*
G04 #@! TF.GenerationSoftware,Altium Limited,Altium Designer,19.1.7 (138)*
G04*
G04 Layer_Color=65535*
%FSLAX25Y25*%
%MOIN*%
G70*
G01*
G75*
%ADD10C,0.00984*%
%ADD11C,0.00787*%
%ADD12C,0.01000*%
%ADD13C,0.00600*%
%ADD14C,0.01575*%
G36*
X419012Y308860D02*
Y307360D01*
X418012D01*
Y308860D01*
X419012D01*
D02*
G37*
G36*
Y328545D02*
Y327045D01*
X418012D01*
Y328545D01*
X419012D01*
D02*
G37*
G36*
X445234Y340988D02*
Y341988D01*
X446734D01*
Y340988D01*
X445234D01*
D02*
G37*
G36*
X447203Y289012D02*
Y288012D01*
X448703D01*
Y289012D01*
X447203D01*
D02*
G37*
G36*
X470988Y306892D02*
Y305392D01*
X471988D01*
Y306892D01*
X470988D01*
D02*
G37*
G36*
Y326577D02*
Y325077D01*
X471988D01*
Y326577D01*
X470988D01*
D02*
G37*
G36*
X495635Y545420D02*
X495880Y545350D01*
X495915Y545315D01*
X496055Y545245D01*
X496265Y545105D01*
X496510Y544930D01*
X497000Y544370D01*
Y529145D01*
X498155Y528865D01*
X498260D01*
X498365Y528830D01*
X498505Y528795D01*
X498820Y528725D01*
X499170Y528620D01*
X499205D01*
X499240Y528585D01*
X499450Y528515D01*
X499660Y528410D01*
X499870Y528305D01*
X499905D01*
X499975Y528270D01*
X500185Y528130D01*
X500465Y528025D01*
X500710Y527955D01*
X500780D01*
X500920Y527885D01*
X501095Y527780D01*
X501340Y527570D01*
X501410Y527500D01*
X501515Y527465D01*
X501655Y527395D01*
X501865Y527290D01*
X502145Y527220D01*
X502495Y527150D01*
X502950Y527080D01*
X503125D01*
X503300Y527045D01*
X503510Y527010D01*
X504035Y526905D01*
X504280Y526835D01*
X504490Y526730D01*
X504525D01*
X504595Y526695D01*
X504735Y526590D01*
X504875Y526485D01*
X505120Y526345D01*
X505365Y526135D01*
X505645Y525855D01*
X505995Y525540D01*
X506030Y525505D01*
X506170Y525400D01*
X506345Y525225D01*
X506590Y525050D01*
X507150Y524700D01*
X507430Y524525D01*
X507710Y524420D01*
X507745D01*
X507850Y524385D01*
X508025Y524315D01*
X508270Y524245D01*
X508550Y524105D01*
X508935Y523965D01*
X509355Y523755D01*
X509810Y523510D01*
X509880Y523475D01*
X510020Y523405D01*
X510265Y523265D01*
X510545Y523125D01*
X511140Y522810D01*
X511420Y522635D01*
X511630Y522495D01*
X511665Y522460D01*
X511735Y522425D01*
X511910Y522320D01*
X512155Y522250D01*
X512925Y521970D01*
X512960D01*
X513030Y521935D01*
X513275Y521865D01*
X513555Y521795D01*
X513660Y521760D01*
X513800D01*
X513905Y521795D01*
X514045Y521865D01*
X514220Y521970D01*
X514255D01*
X514290Y522040D01*
X514500Y522145D01*
X514780Y522320D01*
X515095Y522495D01*
X515130Y522530D01*
X515200Y522600D01*
X515375Y522740D01*
X515620Y522950D01*
X515935Y523265D01*
X516180Y523510D01*
X516425Y523720D01*
X516670Y524000D01*
X516985Y524315D01*
X517335Y524700D01*
X517720Y525085D01*
X517755Y525120D01*
X517825Y525190D01*
X517930Y525295D01*
X518070Y525470D01*
X518280Y525680D01*
X518490Y525890D01*
X519015Y526450D01*
X519575Y527115D01*
X520205Y527815D01*
X520870Y528550D01*
X521465Y529285D01*
Y529320D01*
X521535Y529355D01*
X521710Y529565D01*
X521990Y529880D01*
X522340Y530300D01*
X522795Y530790D01*
X523320Y531350D01*
X523880Y531910D01*
X524475Y532505D01*
X524510Y532540D01*
X524545Y532575D01*
X524755Y532750D01*
X525035Y533030D01*
X525385Y533345D01*
X525770Y533660D01*
X526120Y533940D01*
X526470Y534185D01*
X526750Y534325D01*
X526785D01*
X526820Y534360D01*
X526960Y534395D01*
X527135Y534465D01*
X527380Y534570D01*
X527730Y534710D01*
X528150Y534850D01*
X528675Y535060D01*
X528710D01*
X528745Y535095D01*
X528955Y535165D01*
X529235Y535305D01*
X529655Y535480D01*
X530110Y535690D01*
X530635Y535935D01*
X531195Y536180D01*
X531790Y536460D01*
X531825D01*
X531965Y536495D01*
X532140Y536565D01*
X532420Y536635D01*
X532455D01*
X532490Y536670D01*
X532700Y536705D01*
X532980Y536740D01*
X533260Y536775D01*
X533330D01*
X533505Y536845D01*
X533785Y536915D01*
X534135Y537020D01*
X534170D01*
X534240Y537055D01*
X534450Y537160D01*
X534730Y537300D01*
X535010Y537475D01*
X535045Y537510D01*
X535150Y537545D01*
X535325Y537650D01*
X535500Y537755D01*
X535745Y537895D01*
X536025Y538000D01*
X536620Y538245D01*
X536655D01*
X536760Y538280D01*
X536900Y538350D01*
X537110Y538420D01*
X537530Y538525D01*
X537950Y538560D01*
X538020D01*
X538230Y538595D01*
X538440Y538630D01*
X538510Y538665D01*
X538580Y538700D01*
X538615Y538735D01*
X538650D01*
X538755Y538770D01*
X538860Y538805D01*
X539035Y538840D01*
X539245Y538875D01*
X539875D01*
X540120Y538910D01*
X544775D01*
X546980Y536250D01*
X547120Y525295D01*
X546490Y524630D01*
X546455Y524595D01*
X546315Y524455D01*
X546140Y524280D01*
X545930Y524105D01*
X545895Y524070D01*
X545790Y523965D01*
X545650Y523860D01*
X545545Y523790D01*
X545510D01*
X545475Y523755D01*
X545265Y523650D01*
X544950Y523510D01*
X544565Y523265D01*
X544530D01*
X544495Y523195D01*
X544250Y523055D01*
X543935Y522880D01*
X543620Y522705D01*
X543585D01*
X543515Y522635D01*
X543340Y522530D01*
X543095Y522355D01*
X543025Y522320D01*
X542885Y522180D01*
X542640Y522005D01*
X542325Y521760D01*
X542290Y521725D01*
X542150Y521620D01*
X541940Y521445D01*
X541695Y521235D01*
X541380Y520990D01*
X541030Y520745D01*
X540295Y520220D01*
X540260Y520185D01*
X540120Y520115D01*
X539945Y520010D01*
X539735Y519905D01*
X539175Y519625D01*
X538895Y519520D01*
X538615Y519415D01*
X538580D01*
X538475Y519380D01*
X538335Y519310D01*
X538090Y519205D01*
X537775Y519100D01*
X537390Y518890D01*
X536935Y518645D01*
X536375Y518365D01*
X536305Y518330D01*
X536130Y518225D01*
X535850Y518085D01*
X535535Y517910D01*
X535185Y517700D01*
X534835Y517490D01*
X534555Y517280D01*
X534310Y517105D01*
X534275Y517070D01*
X534170Y516965D01*
X534100Y516860D01*
Y516790D01*
X534205D01*
X534275Y516755D01*
X534800D01*
X534975Y516720D01*
X535220Y516685D01*
X535570Y516580D01*
X535605D01*
X535675Y516545D01*
X535745Y516510D01*
X535885Y516475D01*
X536200Y516335D01*
X536550Y516160D01*
X536585D01*
X536620Y516125D01*
X536865Y516055D01*
X537145Y515915D01*
X537460Y515810D01*
X537495D01*
X537530Y515775D01*
X537705Y515740D01*
X537880Y515670D01*
X538055Y515635D01*
X538090D01*
X538195Y515600D01*
X538405Y515565D01*
X538685Y515460D01*
X540960Y514795D01*
X540995D01*
X541065Y514760D01*
X541170Y514725D01*
X541310Y514690D01*
X541625Y514585D01*
X541975Y514515D01*
X542010D01*
X542115Y514480D01*
X542255Y514445D01*
X542465Y514410D01*
X542710Y514340D01*
X542990Y514270D01*
X543585Y514060D01*
X543620D01*
X543725Y514025D01*
X543900Y513955D01*
X544075Y513885D01*
X544565Y513675D01*
X545055Y513500D01*
X545090D01*
X545125Y513465D01*
X545300Y513360D01*
X545475Y513255D01*
X545615Y513220D01*
X545650D01*
X545755Y513185D01*
X545895Y513115D01*
X546070Y512975D01*
X546105Y512940D01*
X546245Y512800D01*
X546455Y512625D01*
X546700Y512380D01*
X546770Y512310D01*
X546910Y512170D01*
X547120Y511995D01*
X547330Y511785D01*
X547365Y511750D01*
X547505Y511680D01*
X547610Y511610D01*
X547715Y511575D01*
X547750D01*
X547820Y511505D01*
X547995Y511435D01*
X548205Y511295D01*
X548485Y511050D01*
X548870Y510735D01*
X549325Y510350D01*
X549885Y509825D01*
X549920D01*
X549955Y509755D01*
X550165Y509580D01*
X550445Y509300D01*
X550760Y508950D01*
X551145Y508600D01*
X551495Y508215D01*
X551775Y507865D01*
X552020Y507550D01*
Y507515D01*
X552055Y507445D01*
X552125Y507340D01*
X552230Y507235D01*
X552440Y506885D01*
X552720Y506570D01*
X552755Y506535D01*
X552790Y506500D01*
X552825Y506430D01*
X552860Y506255D01*
X552930Y506045D01*
Y505730D01*
X552965Y505310D01*
Y505240D01*
Y505170D01*
Y505030D01*
Y504855D01*
X553000Y504645D01*
Y504365D01*
Y504015D01*
Y503630D01*
Y503175D01*
X553035Y502650D01*
Y502020D01*
Y501355D01*
Y500585D01*
Y499745D01*
Y498800D01*
Y491345D01*
X551810Y490120D01*
X547155D01*
X546770Y490155D01*
X546245D01*
X546070Y490190D01*
X545860Y490225D01*
X545440Y490260D01*
X545195Y490330D01*
X545020Y490365D01*
X544985D01*
X544950Y490400D01*
X544845D01*
X544705Y490435D01*
X544355Y490505D01*
X543900Y490575D01*
X543795D01*
X543655Y490610D01*
X543515D01*
X543130Y490645D01*
X542675Y490680D01*
X542570D01*
X542465Y490715D01*
X542080D01*
X541870Y490750D01*
X541310Y490820D01*
X541275D01*
X541170Y490855D01*
X541030D01*
X540855Y490890D01*
X540400Y490960D01*
X539910Y491065D01*
X539875D01*
X539805Y491100D01*
X539700D01*
X539525Y491135D01*
X539140Y491240D01*
X538685Y491310D01*
X538650D01*
X538580Y491345D01*
X538475D01*
X538335Y491380D01*
X538055Y491415D01*
X537565D01*
X537320Y491450D01*
X536970Y491520D01*
X536935D01*
X536900Y491555D01*
X536690Y491625D01*
X536375Y491695D01*
X536025Y491800D01*
X535990D01*
X535955Y491835D01*
X535710Y491870D01*
X535430Y491975D01*
X535080Y492045D01*
X535010Y492080D01*
X534835Y492115D01*
X534625Y492150D01*
X534310D01*
X534135Y492185D01*
X533925Y492220D01*
X533785Y492325D01*
X533750Y492360D01*
X533680Y492430D01*
X533540Y492500D01*
X533330Y492535D01*
X533260D01*
X533120Y492605D01*
X532875Y492780D01*
X532735Y492885D01*
X532560Y493060D01*
X532525Y493095D01*
X532455Y493165D01*
X532315Y493270D01*
X532070Y493410D01*
X531790Y493585D01*
X531405Y493795D01*
X530950Y494005D01*
X530390Y494250D01*
X530320Y494285D01*
X530110Y494355D01*
X529795Y494495D01*
X529375Y494670D01*
X528850Y494845D01*
X528290Y495055D01*
X527660Y495265D01*
X526995Y495440D01*
X526960D01*
X526925Y495475D01*
X526715Y495545D01*
X526435Y495615D01*
X526085Y495720D01*
X526050D01*
X526015Y495755D01*
X525840Y495825D01*
X525595Y495895D01*
X525350Y496000D01*
X525315D01*
X525280Y496035D01*
X525105Y496140D01*
X524860Y496210D01*
X524615Y496245D01*
X524580D01*
X524510Y496210D01*
X524405Y496140D01*
X524300Y496070D01*
X524160Y495930D01*
X523985Y495720D01*
X523775Y495475D01*
X523740Y495440D01*
X523670Y495335D01*
X523565Y495160D01*
X523425Y494950D01*
X523215Y494635D01*
X523005Y494285D01*
X522760Y493865D01*
X522480Y493375D01*
X521745Y492010D01*
Y491975D01*
X521675Y491905D01*
X521570Y491660D01*
X521395Y491380D01*
X521325Y491275D01*
X521255Y491205D01*
X521185Y491135D01*
X521080Y490960D01*
X520905Y490750D01*
X520800Y490505D01*
Y490470D01*
X520730Y490400D01*
X520625Y490225D01*
X520450Y489980D01*
X519155Y488125D01*
X518595Y487285D01*
X518560Y487250D01*
X518455Y487110D01*
X518245Y486865D01*
X518105Y486690D01*
X517930Y486515D01*
X517895Y486480D01*
X517860Y486410D01*
X517755Y486305D01*
X517615Y486200D01*
X517265Y485850D01*
X516810Y485465D01*
X513415Y482595D01*
X513380Y482560D01*
X513275Y482490D01*
X513100Y482350D01*
X512925Y482245D01*
X512575Y481930D01*
X512400Y481825D01*
X512295Y481755D01*
X512260D01*
X512155Y481720D01*
X512085D01*
X511945Y481685D01*
X511735D01*
X511490Y481650D01*
X511210Y481615D01*
X510825D01*
X510405Y481580D01*
X509285D01*
X508585Y481545D01*
X501935D01*
X501375Y482105D01*
X501305Y482175D01*
X501200Y482315D01*
X501060Y482525D01*
X500955Y482770D01*
Y482805D01*
Y482840D01*
Y482945D01*
X500920Y483085D01*
Y483295D01*
Y483540D01*
Y483855D01*
X500955Y484240D01*
X501095Y485605D01*
X501235Y486900D01*
Y486935D01*
Y487005D01*
X501270Y487145D01*
Y487355D01*
X501305Y487670D01*
X501340Y488090D01*
Y488615D01*
X501375Y489280D01*
Y489315D01*
Y489385D01*
Y489490D01*
Y489630D01*
Y489805D01*
X501410Y490015D01*
Y490540D01*
Y491170D01*
X501445Y491905D01*
Y492710D01*
Y493585D01*
Y499185D01*
X502250Y499885D01*
X502285Y499955D01*
X502425Y500130D01*
X502635Y500375D01*
X502880Y500655D01*
Y500690D01*
X502950Y500725D01*
X503090Y500935D01*
X503230Y501180D01*
X503370Y501460D01*
X503405Y501530D01*
X503475Y501670D01*
X503615Y501880D01*
X503790Y502125D01*
X503825Y502195D01*
X503930Y502335D01*
X504070Y502475D01*
X504175Y502615D01*
X504210Y502650D01*
X504245Y502685D01*
X504385Y502895D01*
X504560Y503175D01*
X504595Y503315D01*
X504630Y503490D01*
Y503525D01*
Y503560D01*
X504700Y503805D01*
X504805Y504085D01*
X504980Y504400D01*
X505400Y504785D01*
X503405Y505975D01*
X503370Y506010D01*
X503230Y506080D01*
X502985Y506255D01*
X502635Y506465D01*
X502600Y506500D01*
X502530Y506535D01*
X502425Y506605D01*
X502285Y506710D01*
X501935Y506990D01*
X501515Y507340D01*
X501480Y507375D01*
X501410Y507445D01*
X501305Y507550D01*
X501130Y507655D01*
X500745Y508005D01*
X500220Y508355D01*
X500185Y508390D01*
X500115Y508425D01*
X499975Y508530D01*
X499800Y508635D01*
X499380Y508880D01*
X498960Y509090D01*
X498925D01*
X498855Y509125D01*
X498750Y509195D01*
X498645Y509265D01*
X498295Y509440D01*
X497910Y509650D01*
X497875D01*
X497840Y509685D01*
X497665Y509825D01*
X497455Y509930D01*
X497280Y510070D01*
X497245Y510105D01*
X497140Y510175D01*
X496965Y510315D01*
X496755Y510455D01*
X496440Y510665D01*
X496055Y510875D01*
X495600Y511120D01*
X495075Y511400D01*
X495005Y511435D01*
X494830Y511540D01*
X494550Y511680D01*
X494165Y511820D01*
X493745Y512030D01*
X493290Y512205D01*
X492800Y512380D01*
X492345Y512520D01*
X492310D01*
X492275Y512555D01*
X492170Y512590D01*
X492030Y512625D01*
X491645Y512765D01*
X491190Y512940D01*
X491155D01*
X491085Y512975D01*
X490980Y513045D01*
X490805Y513115D01*
X490455Y513290D01*
X490035Y513500D01*
X490000Y513535D01*
X489895Y513570D01*
X489720Y513640D01*
X489510Y513745D01*
X489020Y513920D01*
X488530Y514060D01*
X488495D01*
X488425Y514095D01*
X488250D01*
X488040Y514130D01*
X487760D01*
X487375Y514165D01*
X485450D01*
X485100Y514200D01*
X484435D01*
X484225Y514235D01*
X484190D01*
X484155Y514270D01*
X483980Y514305D01*
X483735Y514445D01*
X483490Y514655D01*
Y514690D01*
X483455Y514725D01*
X483315Y514900D01*
X483175Y515145D01*
X483070Y515390D01*
Y515425D01*
Y515460D01*
X483035Y515565D01*
Y515705D01*
Y515880D01*
Y516125D01*
Y516405D01*
Y516755D01*
Y516790D01*
Y516860D01*
X483070Y517000D01*
Y517175D01*
X483105Y517385D01*
Y517630D01*
X483210Y518190D01*
X483315Y518785D01*
X483455Y519415D01*
X483630Y519975D01*
X483875Y520465D01*
X484470Y521760D01*
Y521795D01*
X484540Y521865D01*
X484610Y522005D01*
X484680Y522145D01*
X484855Y522495D01*
X485030Y522845D01*
X485870Y524140D01*
X485905Y524210D01*
X486010Y524385D01*
X486150Y524630D01*
X486325Y524980D01*
X486465Y525365D01*
X486605Y525785D01*
X486710Y526205D01*
X486745Y526660D01*
Y526695D01*
Y526730D01*
X486780Y526940D01*
X486850Y527220D01*
X486955Y527500D01*
Y527535D01*
X487025Y527640D01*
X487060Y527780D01*
X487165Y528060D01*
X487410Y528795D01*
Y528830D01*
X487445Y528865D01*
X487480Y529075D01*
X487620Y529390D01*
X487830Y529810D01*
Y529845D01*
X487900Y529915D01*
X487970Y530055D01*
X488040Y530195D01*
X488285Y530580D01*
X488530Y531000D01*
X488565Y531070D01*
X488705Y531245D01*
X488880Y531525D01*
X489055Y531840D01*
X489300Y532225D01*
X489475Y532610D01*
X489650Y532960D01*
X489790Y533310D01*
Y533345D01*
X489825Y533485D01*
X489860Y533695D01*
X489930Y534010D01*
X489965Y534395D01*
X490035Y534885D01*
X490070Y535480D01*
X490105Y536180D01*
Y536215D01*
Y536250D01*
Y536460D01*
X490140Y536740D01*
Y537090D01*
X490175Y537440D01*
X490210Y537790D01*
Y538140D01*
X490245Y538385D01*
Y538420D01*
X490280Y538490D01*
X490350Y538735D01*
X490455Y539015D01*
X490630Y539260D01*
X490665Y539295D01*
X490700Y539365D01*
X490805Y539470D01*
X490910Y539645D01*
X491015Y539855D01*
X491190Y540135D01*
X491330Y540415D01*
X491505Y540765D01*
X491540Y540800D01*
X491575Y540940D01*
X491680Y541150D01*
X491785Y541430D01*
X491925Y541745D01*
X492065Y542095D01*
X492345Y542935D01*
Y542970D01*
X492380Y543040D01*
X492450Y543180D01*
X492520Y543320D01*
X492730Y543705D01*
X493010Y544195D01*
X493395Y544650D01*
X493850Y545035D01*
X494130Y545175D01*
X494410Y545315D01*
X494725Y545385D01*
X495075Y545420D01*
X495180D01*
X495390Y545455D01*
X495635Y545420D01*
D02*
G37*
%LPC*%
G36*
X543340Y535970D02*
X541555Y535900D01*
X541380D01*
X541170Y535865D01*
X540890Y535830D01*
X540575Y535795D01*
X540190Y535760D01*
X539770Y535690D01*
X539350Y535620D01*
X538405Y535410D01*
X537460Y535165D01*
X537005Y534990D01*
X536585Y534780D01*
X536235Y534570D01*
X535885Y534325D01*
X535850Y534290D01*
X535780Y534255D01*
X535605Y534150D01*
X535360Y534080D01*
X535290D01*
X535115Y534010D01*
X534870Y533940D01*
X534520Y533870D01*
X534450D01*
X534345Y533835D01*
X534205Y533800D01*
X533855Y533730D01*
X533435Y533625D01*
X533400D01*
X533330Y533590D01*
X533225Y533555D01*
X533120Y533520D01*
X532805Y533380D01*
X532490Y533240D01*
X530425Y532435D01*
X529550Y532015D01*
X529515D01*
X529480Y531980D01*
X529270Y531875D01*
X528955Y531770D01*
X528640Y531630D01*
X528570Y531595D01*
X528395Y531560D01*
X528220Y531490D01*
X528045Y531455D01*
X528010D01*
X527975Y531420D01*
X527870Y531385D01*
X527695Y531315D01*
X527520Y531175D01*
X527240Y531000D01*
X526925Y530755D01*
X526575Y530440D01*
X526540Y530405D01*
X526400Y530300D01*
X526225Y530090D01*
X526015Y529880D01*
X525525Y529355D01*
X525315Y529075D01*
X525105Y528795D01*
X525070Y528760D01*
X525000Y528655D01*
X524860Y528480D01*
X524650Y528200D01*
X524300Y527815D01*
X524090Y527570D01*
X523845Y527290D01*
X523565Y526940D01*
X523215Y526590D01*
X522865Y526205D01*
X522445Y525750D01*
X522410Y525715D01*
X522340Y525645D01*
X522235Y525505D01*
X522060Y525330D01*
X521850Y525120D01*
X521605Y524840D01*
X521325Y524560D01*
X521045Y524210D01*
X520345Y523475D01*
X519575Y522670D01*
X518770Y521795D01*
X517930Y520920D01*
X516495Y519345D01*
X517020Y519170D01*
X517055D01*
X517125Y519135D01*
X517230Y519100D01*
X517335Y519065D01*
X517510Y519030D01*
X517720Y518995D01*
X518000Y518960D01*
X518315Y518890D01*
X518665Y518820D01*
X519120Y518750D01*
X519610Y518715D01*
X520205Y518645D01*
X520870Y518540D01*
X521605Y518470D01*
X522410Y518400D01*
X523985Y518260D01*
X524125D01*
X524265Y518225D01*
X524440D01*
X524860Y518155D01*
X525035Y518120D01*
X525210Y518085D01*
X525280D01*
X525385Y518050D01*
X525525Y518015D01*
X525875Y517980D01*
X526330Y517910D01*
X526785D01*
X527205Y517875D01*
X527695D01*
X528990Y517805D01*
X529095D01*
X529200Y517770D01*
X529340D01*
X529620Y517735D01*
X529900D01*
X529970Y517700D01*
X530215Y517630D01*
X530495Y517595D01*
X530740D01*
X530845Y517665D01*
X530950Y517805D01*
X531055Y517980D01*
Y518015D01*
X531090Y518050D01*
X531160Y518260D01*
X531195Y518470D01*
X531230Y518680D01*
Y518715D01*
X531300Y518820D01*
X531405Y518960D01*
X531615Y519205D01*
X531755Y519310D01*
X531930Y519485D01*
X532175Y519660D01*
X532455Y519835D01*
X532770Y520045D01*
X533120Y520255D01*
X533540Y520500D01*
X534030Y520745D01*
X535500Y521480D01*
X536305Y521970D01*
X536340D01*
X536375Y522005D01*
X536620Y522145D01*
X536900Y522250D01*
X537215Y522320D01*
X537285D01*
X537425Y522355D01*
X537565Y522425D01*
X537740Y522495D01*
X537985Y522600D01*
X538265Y522740D01*
X538580Y522915D01*
X538615Y522950D01*
X538755Y523020D01*
X538930Y523125D01*
X539175Y523300D01*
X539455Y523510D01*
X539770Y523755D01*
X540120Y524035D01*
X540470Y524350D01*
X541310Y525050D01*
X541345Y525085D01*
X541485Y525190D01*
X541625Y525260D01*
X541730Y525295D01*
X541765D01*
X541835Y525330D01*
X541975Y525400D01*
X542185Y525505D01*
X542990Y525995D01*
X544180Y526660D01*
X544110Y530790D01*
Y530825D01*
Y530895D01*
Y531035D01*
Y531210D01*
Y531420D01*
X544075Y531665D01*
Y532225D01*
X544040Y532820D01*
Y533415D01*
X544005Y533940D01*
X543970Y534150D01*
Y534325D01*
Y534360D01*
Y534465D01*
X543935Y534640D01*
X543900Y534815D01*
X543830Y535165D01*
X543760Y535305D01*
X543690Y535410D01*
X543340Y535970D01*
D02*
G37*
G36*
X493990Y538420D02*
X493570Y538035D01*
X493535Y538000D01*
X493430Y537860D01*
X493290Y537615D01*
X493220Y537265D01*
Y537230D01*
Y537160D01*
Y537020D01*
X493185Y536810D01*
Y536530D01*
X493150Y536145D01*
Y535725D01*
X493115Y535165D01*
Y535130D01*
Y535095D01*
Y534990D01*
X493080Y534850D01*
X493045Y534535D01*
X493010Y534115D01*
X492975Y533625D01*
X492905Y533170D01*
X492835Y532680D01*
X492730Y532260D01*
Y532225D01*
X492695Y532085D01*
X492625Y531910D01*
X492555Y531665D01*
X492310Y531140D01*
X492170Y530895D01*
X491995Y530650D01*
X491960Y530615D01*
X491855Y530475D01*
X491715Y530265D01*
X491540Y529950D01*
X491295Y529565D01*
X491050Y529110D01*
X490770Y528550D01*
X490490Y527955D01*
Y527920D01*
X490455Y527885D01*
X490385Y527675D01*
X490245Y527360D01*
X490140Y526975D01*
X490000Y526555D01*
X489860Y526100D01*
X489790Y525645D01*
X489755Y525225D01*
Y525190D01*
X489720Y525050D01*
X489650Y524805D01*
X489510Y524455D01*
Y524420D01*
X489475Y524350D01*
X489405Y524245D01*
X489370Y524140D01*
X489195Y523790D01*
X488985Y523405D01*
Y523370D01*
X488950Y523335D01*
X488880Y523230D01*
X488810Y523090D01*
X488635Y522775D01*
X488425Y522355D01*
X488145Y521830D01*
X487865Y521305D01*
X487585Y520745D01*
X487305Y520220D01*
X487270Y520150D01*
X487200Y520010D01*
X487060Y519765D01*
X486955Y519450D01*
X486640Y518820D01*
X486535Y518540D01*
X486465Y518330D01*
X486255Y517525D01*
Y517490D01*
Y517420D01*
X486360Y517315D01*
X486430Y517280D01*
X486570Y517245D01*
X486640D01*
X486780Y517210D01*
X486920D01*
X487165Y517175D01*
X487445D01*
X487830Y517140D01*
X488285Y517105D01*
X488495D01*
X488740Y517070D01*
X489020D01*
X489615Y517000D01*
X489895Y516965D01*
X490140Y516930D01*
X490175D01*
X490245Y516895D01*
X490350D01*
X490455Y516860D01*
X490770Y516755D01*
X491085Y516580D01*
X491120D01*
X491155Y516545D01*
X491330Y516440D01*
X491645Y516300D01*
X491995Y516090D01*
X492030D01*
X492100Y516055D01*
X492205Y515985D01*
X492345Y515950D01*
X492695Y515810D01*
X493115Y515670D01*
X494865Y514970D01*
X494900D01*
X494970Y514935D01*
X495075Y514900D01*
X495215Y514865D01*
X495530Y514760D01*
X495915Y514655D01*
X495950Y514620D01*
X496090Y514550D01*
X496300Y514410D01*
X496580Y514235D01*
X498085Y513290D01*
X498120D01*
X498155Y513220D01*
X498400Y513080D01*
X498680Y512870D01*
X498995Y512660D01*
X499030Y512625D01*
X499100Y512555D01*
X499240Y512485D01*
X499450Y512345D01*
X499520Y512310D01*
X499660Y512240D01*
X499870Y512170D01*
X500115Y512065D01*
X500185D01*
X500325Y511995D01*
X500535Y511890D01*
X500815Y511750D01*
X500850D01*
X500885Y511715D01*
X501060Y511610D01*
X501305Y511435D01*
X501515Y511225D01*
X501550Y511190D01*
X501585Y511155D01*
X501795Y510945D01*
X502075Y510735D01*
X502180Y510630D01*
X502285Y510595D01*
X502320D01*
X502390Y510560D01*
X502495Y510490D01*
X502635Y510420D01*
X502810Y510315D01*
X503020Y510140D01*
X503300Y509930D01*
X503370Y509895D01*
X503545Y509755D01*
X503790Y509545D01*
X504140Y509265D01*
X504560Y508985D01*
X505050Y508635D01*
X505575Y508320D01*
X506135Y507970D01*
X506170D01*
X506205Y507935D01*
X506380Y507830D01*
X506660Y507725D01*
X506940Y507550D01*
X507290Y507410D01*
X507605Y507305D01*
X507885Y507200D01*
X508060D01*
X508095Y507235D01*
X508200Y507340D01*
X508375Y507550D01*
X508620Y507795D01*
X509705Y509055D01*
X509740Y509090D01*
X509775Y509125D01*
X509950Y509335D01*
X510125Y509615D01*
X510300Y509895D01*
Y509930D01*
X510335Y509965D01*
X510405Y510140D01*
X510475Y510455D01*
X510545Y510805D01*
Y510840D01*
Y510875D01*
X510580Y510980D01*
X510615Y511120D01*
X510685Y511435D01*
X510860Y511820D01*
X511070Y512170D01*
X511350Y512520D01*
X511735Y512765D01*
X511980Y512835D01*
X512225Y512870D01*
X512295D01*
X512540Y512835D01*
X512820Y512695D01*
X512995Y512625D01*
X513135Y512485D01*
X513275Y512345D01*
X513415Y512135D01*
X513555Y511890D01*
X513625Y511610D01*
X513695Y511260D01*
Y510840D01*
X513660Y510385D01*
X513555Y509860D01*
Y509825D01*
X513520Y509720D01*
X513485Y509580D01*
X513450Y509370D01*
X513275Y508915D01*
X513065Y508425D01*
Y508390D01*
X512995Y508320D01*
X512890Y508180D01*
X512785Y507970D01*
X512610Y507760D01*
X512365Y507480D01*
X512085Y507130D01*
X511770Y506780D01*
X510615Y505415D01*
X511070Y505345D01*
X511105D01*
X511280Y505275D01*
X511490Y505205D01*
X511770Y505065D01*
X512715Y504680D01*
X512750D01*
X512785Y504645D01*
X513030Y504540D01*
X513345Y504400D01*
X513695Y504260D01*
X513730D01*
X513800Y504225D01*
X514010Y504155D01*
X514255Y504085D01*
X514500Y504050D01*
X514535D01*
X514605Y504015D01*
X514710Y503980D01*
X514885Y503910D01*
X515165Y503770D01*
X515340Y503665D01*
X515445Y503560D01*
X515480Y503525D01*
X515620Y503420D01*
X515830Y503280D01*
X516075Y503175D01*
X516740Y502825D01*
X516775D01*
X516810Y502790D01*
X516915Y502720D01*
X517055Y502650D01*
X517370Y502475D01*
X517755Y502300D01*
X517790D01*
X517860Y502265D01*
X518070Y502195D01*
X518350Y502090D01*
X518595Y502055D01*
X518700D01*
X518840Y502020D01*
X519085Y501950D01*
X519365Y501845D01*
X519785Y501670D01*
X520275Y501460D01*
X520905Y501180D01*
X520940D01*
X521010Y501145D01*
X521115Y501110D01*
X521255Y501075D01*
X521640Y500935D01*
X522095Y500830D01*
X522165D01*
X522305Y500795D01*
X522480Y500830D01*
X522585Y500900D01*
X522690Y501005D01*
X522760Y501075D01*
X522830Y501180D01*
X522935Y501320D01*
X523075Y501530D01*
X523285Y501810D01*
X523530Y502160D01*
X523810Y502615D01*
X523845Y502650D01*
X523880Y502755D01*
X523950Y502895D01*
X524055Y503070D01*
X524195Y503315D01*
X524335Y503595D01*
X524615Y504225D01*
X524930Y504925D01*
X525210Y505660D01*
X525385Y506360D01*
X525455Y506675D01*
X525490Y506990D01*
Y507025D01*
Y507060D01*
X525525Y507200D01*
X525560Y507375D01*
X525665Y507515D01*
X525700Y507550D01*
X525770Y507620D01*
X525805Y507760D01*
X525840Y507935D01*
Y507970D01*
X525875Y508005D01*
X525945Y508180D01*
X526085Y508460D01*
X526330Y508740D01*
X526365Y508775D01*
X526400Y508810D01*
X526645Y508950D01*
X526960Y509055D01*
X527135Y509125D01*
X527415D01*
X527590Y509090D01*
X527835Y509020D01*
X528115Y508915D01*
X528360Y508705D01*
X528605Y508390D01*
X528710Y508180D01*
X528780Y507935D01*
X528850Y507655D01*
Y507340D01*
Y507305D01*
Y507270D01*
Y507095D01*
X528815Y506850D01*
X528780Y506605D01*
Y506570D01*
X528745Y506430D01*
X528675Y506290D01*
X528605Y506185D01*
Y506150D01*
X528535Y506080D01*
Y505975D01*
X528500Y505870D01*
X528465Y505695D01*
Y505485D01*
Y505450D01*
Y505380D01*
X528430Y505170D01*
X528360Y504890D01*
X528325Y504785D01*
X528255Y504715D01*
X528220Y504680D01*
X528185Y504610D01*
X528150Y504505D01*
X528115Y504295D01*
Y504225D01*
X528080Y504050D01*
X528010Y503770D01*
X527835Y503350D01*
Y503315D01*
X527800Y503245D01*
X527730Y503140D01*
X527660Y503000D01*
X527450Y502615D01*
X527205Y502195D01*
X526190Y500550D01*
Y500515D01*
X526120Y500445D01*
X526050Y500305D01*
X525980Y500165D01*
X525805Y499815D01*
X525735Y499675D01*
X525665Y499535D01*
Y499500D01*
Y499395D01*
X525700Y499290D01*
X525770Y499255D01*
X525840Y499220D01*
X525910D01*
X526050Y499150D01*
X526330Y499045D01*
X526715Y498835D01*
X526750D01*
X526820Y498800D01*
X526925Y498730D01*
X527065Y498695D01*
X527380Y498555D01*
X527625Y498520D01*
X527660D01*
X527730Y498485D01*
X527870D01*
X528080Y498415D01*
X528360Y498345D01*
X528710Y498240D01*
X529165Y498065D01*
X529725Y497890D01*
X529760D01*
X529795Y497855D01*
X530005Y497785D01*
X530320Y497715D01*
X530705Y497575D01*
X531125Y497400D01*
X531580Y497225D01*
X532035Y497050D01*
X532490Y496875D01*
X532525D01*
X532560Y496840D01*
X532770Y496700D01*
X533050Y496525D01*
X533365Y496350D01*
X533400D01*
X533435Y496315D01*
X533610Y496210D01*
X533785Y496070D01*
X533925Y495930D01*
X533960D01*
X533995Y495860D01*
X534170Y495755D01*
X534380Y495615D01*
X534625Y495545D01*
X534695D01*
X534800Y495510D01*
X534940Y495440D01*
X535080Y495335D01*
X535115Y495300D01*
X535220Y495265D01*
X535430Y495195D01*
X535570Y495160D01*
X535920D01*
X536095Y495125D01*
X536375Y495055D01*
X536410D01*
X536445Y495020D01*
X536620Y494985D01*
X536900Y494880D01*
X537180Y494775D01*
X537215D01*
X537250Y494740D01*
X537460Y494670D01*
X537740Y494600D01*
X538125Y494495D01*
X538230D01*
X538335Y494460D01*
X538475D01*
X538790Y494425D01*
X539420D01*
X539595Y494390D01*
X540015Y494355D01*
X540190Y494285D01*
X540295Y494215D01*
X540365Y494180D01*
X540435Y494145D01*
X540575Y494075D01*
X540750Y494040D01*
X540995Y493970D01*
X541310Y493900D01*
X541695Y493830D01*
X541765D01*
X541905Y493795D01*
X542115Y493760D01*
X542430D01*
X542780Y493725D01*
X543200Y493690D01*
X544110Y493655D01*
X544495D01*
X544845Y493620D01*
X545265Y493585D01*
X545370D01*
X545615Y493550D01*
X545895Y493480D01*
X546140Y493410D01*
X546210D01*
X546350Y493340D01*
X546630Y493270D01*
X547050Y493200D01*
X547155D01*
X547295Y493165D01*
X547470D01*
X547680Y493130D01*
X547925D01*
X548485Y493095D01*
X550060D01*
Y498905D01*
Y498940D01*
Y499080D01*
Y499255D01*
Y499500D01*
Y499780D01*
Y500130D01*
Y500865D01*
Y501705D01*
Y502510D01*
X550025Y502860D01*
Y503210D01*
Y503525D01*
Y503770D01*
Y503840D01*
Y503980D01*
X549990Y504155D01*
Y504400D01*
X549955Y504610D01*
X549920Y504820D01*
X549850Y504960D01*
X549780Y504995D01*
X549745Y505030D01*
X549675Y505170D01*
X549570Y505380D01*
X549500Y505590D01*
X549465Y505660D01*
X549430Y505765D01*
X549325Y505870D01*
X549185Y506080D01*
X548975Y506325D01*
X548695Y506605D01*
X548345Y506990D01*
X548310Y507025D01*
X548170Y507165D01*
X547960Y507375D01*
X547715Y507620D01*
X547435Y507900D01*
X547120Y508180D01*
X546805Y508460D01*
X546490Y508705D01*
X545720Y509160D01*
X545055Y509790D01*
X545020Y509825D01*
X544950Y509860D01*
X544810Y509965D01*
X544635Y510105D01*
X544390Y510245D01*
X544075Y510420D01*
X543725Y510595D01*
X543305Y510770D01*
X543270Y510805D01*
X543095Y510840D01*
X542885Y510945D01*
X542570Y511050D01*
X542220Y511190D01*
X541800Y511295D01*
X540960Y511505D01*
X539910Y511785D01*
X538755Y512170D01*
X538720D01*
X538650Y512205D01*
X538580Y512240D01*
X538440Y512310D01*
X538090Y512415D01*
X537740Y512520D01*
X537705D01*
X537670Y512555D01*
X537460Y512590D01*
X537250Y512625D01*
X537040Y512660D01*
X537005D01*
X536900Y512695D01*
X536725Y512730D01*
X536480Y512800D01*
X536410Y512835D01*
X536235Y512905D01*
X535990Y513010D01*
X535675Y513150D01*
X535605Y513185D01*
X535500Y513220D01*
X535395Y513290D01*
X535045Y513395D01*
X534555Y513535D01*
X534520D01*
X534450Y513570D01*
X534310Y513605D01*
X534100Y513675D01*
X533890Y513710D01*
X533645Y513780D01*
X533085Y513885D01*
X531370Y514165D01*
X529725Y514515D01*
X529690D01*
X529620Y514550D01*
X529480Y514585D01*
X529270Y514620D01*
X529060Y514690D01*
X528780Y514725D01*
X528185Y514830D01*
X528150D01*
X528045Y514865D01*
X527870D01*
X527695Y514900D01*
X527205Y514935D01*
X525840D01*
X525315Y514970D01*
X525210D01*
X525070Y515005D01*
X524895D01*
X524545Y515075D01*
X524160Y515110D01*
X524090D01*
X523985Y515145D01*
X523845D01*
X523670Y515180D01*
X523460Y515215D01*
X523180D01*
X522900Y515250D01*
X521325Y515460D01*
X521185D01*
X521045Y515495D01*
X520835D01*
X520590Y515530D01*
X520310Y515565D01*
X519680Y515635D01*
X518980Y515705D01*
X518280Y515810D01*
X517615Y515880D01*
X517300Y515950D01*
X517020Y515985D01*
X516950D01*
X516810Y516020D01*
X516565Y516090D01*
X516320Y516125D01*
X516040Y516230D01*
X515760Y516300D01*
X515550Y516370D01*
X515410Y516475D01*
X515375Y516510D01*
X515270Y516615D01*
X515130Y516720D01*
X514955Y516790D01*
X514920D01*
X514850Y516825D01*
X514780Y516860D01*
X514640Y516930D01*
X514500Y517035D01*
X514290Y517175D01*
X514010Y517350D01*
X513975Y517385D01*
X513905Y517455D01*
X513765Y517525D01*
X513590Y517665D01*
X513205Y517980D01*
X512820Y518295D01*
X512785Y518330D01*
X512750Y518365D01*
X512575Y518540D01*
X512330Y518680D01*
X512225Y518750D01*
X512120Y518785D01*
X512085D01*
X511980Y518820D01*
X511805Y518890D01*
X511560Y518960D01*
X510930Y519240D01*
X509775Y519905D01*
X509705Y519940D01*
X509565Y520010D01*
X509320Y520150D01*
X509040Y520325D01*
X508690Y520500D01*
X508305Y520675D01*
X507500Y521060D01*
X507465Y521095D01*
X507325Y521130D01*
X507150Y521235D01*
X506940Y521305D01*
X506520Y521515D01*
X506310Y521585D01*
X506170Y521620D01*
X506135D01*
X505995Y521655D01*
X505785Y521760D01*
X505470Y521935D01*
X505435D01*
X505400Y522005D01*
X505295Y522075D01*
X505155Y522180D01*
X504840Y522425D01*
X504455Y522775D01*
X504420Y522810D01*
X504315Y522915D01*
X504140Y523055D01*
X503965Y523230D01*
X503510Y523545D01*
X503300Y523685D01*
X503125Y523790D01*
X503055Y523825D01*
X502950Y523860D01*
X502845Y523895D01*
X502670Y523965D01*
X502460Y524000D01*
X502180Y524035D01*
X501900Y524070D01*
X501760D01*
X501620Y524105D01*
X501445Y524140D01*
X500990Y524210D01*
X500570Y524350D01*
X500535D01*
X500500Y524385D01*
X500395Y524455D01*
X500255Y524525D01*
X499870Y524700D01*
X499380Y524980D01*
X499310Y525015D01*
X499170Y525085D01*
X498960Y525225D01*
X498680Y525365D01*
X498050Y525680D01*
X497735Y525785D01*
X497455Y525890D01*
X497420D01*
X497350Y525925D01*
X496930D01*
X496755Y525890D01*
X496580Y525785D01*
X496440Y525680D01*
X496370Y525610D01*
X496195Y525505D01*
X495915Y525365D01*
X495705Y525330D01*
X495495Y525295D01*
X495390D01*
X495285Y525330D01*
X495145Y525365D01*
X494795Y525470D01*
X494620Y525575D01*
X494480Y525715D01*
X493990Y526135D01*
Y538420D01*
D02*
G37*
G36*
X508235Y502860D02*
X508165D01*
X507955Y502825D01*
X507745Y502720D01*
X507640Y502650D01*
X507605Y502510D01*
Y502440D01*
X507535Y502265D01*
X507430Y502055D01*
X507255Y501810D01*
X507220Y501775D01*
X507150Y501670D01*
X507045Y501530D01*
X506905Y501320D01*
X506625Y500760D01*
Y500725D01*
X506590Y500655D01*
X506520Y500515D01*
X506450Y500375D01*
X506240Y500025D01*
X506030Y499640D01*
Y499605D01*
X505995Y499570D01*
X505925Y499465D01*
X505820Y499325D01*
X505575Y498975D01*
X505190Y498520D01*
X504525Y497680D01*
X504385Y491415D01*
X504315Y486970D01*
Y486935D01*
Y486900D01*
Y486655D01*
X504280Y486340D01*
Y485990D01*
X504245Y485605D01*
X504210Y485255D01*
X504140Y484975D01*
Y484905D01*
X504105Y484835D01*
Y484800D01*
Y484730D01*
X504140Y484660D01*
X504245Y484625D01*
X504385Y484590D01*
X504560Y484555D01*
X504875D01*
X505190Y484520D01*
X506765D01*
X507185Y484555D01*
X509705D01*
X510125Y484590D01*
X510615D01*
X510720Y484625D01*
X510895D01*
X511175Y484695D01*
X511280Y484765D01*
X511350Y484835D01*
X511385Y484870D01*
X511490Y484940D01*
X511630Y485045D01*
X511805Y485080D01*
X511840D01*
X511945Y485150D01*
X512120Y485290D01*
X512190Y485395D01*
X512295Y485535D01*
X512330Y485570D01*
X512435Y485710D01*
X512645Y485885D01*
X512785Y486025D01*
X512960Y486165D01*
X512995Y486200D01*
X513065Y486235D01*
X513170Y486340D01*
X513310Y486445D01*
X513660Y486760D01*
X514115Y487110D01*
X514150Y487145D01*
X514220Y487215D01*
X514360Y487320D01*
X514500Y487425D01*
X514885Y487775D01*
X515270Y488160D01*
X515305Y488195D01*
X515340Y488230D01*
X515550Y488440D01*
X515760Y488720D01*
X515865Y488825D01*
X515935Y488930D01*
Y488965D01*
X515970Y489035D01*
X516110Y489210D01*
X516215Y489455D01*
X516285Y489525D01*
X516355Y489595D01*
X516390Y489630D01*
X516495Y489735D01*
X516565Y489805D01*
X516635Y489945D01*
X516775Y490085D01*
X516915Y490295D01*
X516950Y490330D01*
X516985Y490400D01*
X517090Y490575D01*
X517265Y490785D01*
X517440Y491065D01*
X517685Y491450D01*
X517930Y491870D01*
X518245Y492360D01*
X520030Y495510D01*
Y495545D01*
X520065Y495580D01*
X520205Y495790D01*
X520345Y496000D01*
X520520Y496175D01*
X520555Y496245D01*
X520660Y496385D01*
X520765Y496560D01*
X520835Y496770D01*
Y496805D01*
X520870Y496910D01*
X520975Y497050D01*
X521115Y497225D01*
X521150D01*
X521185Y497260D01*
X521325Y497400D01*
X521360Y497470D01*
X521325Y497575D01*
X521220Y497680D01*
X521045Y497785D01*
X521010D01*
X520905Y497855D01*
X520695Y497925D01*
X520555Y497995D01*
X520380Y498065D01*
X520170Y498135D01*
X519890Y498240D01*
X519610Y498345D01*
X519260Y498450D01*
X518875Y498590D01*
X518455Y498730D01*
X517965Y498870D01*
X517440Y499045D01*
X517405D01*
X517335Y499080D01*
X517195Y499115D01*
X516985Y499185D01*
X516775Y499290D01*
X516530Y499360D01*
X515970Y499605D01*
X515935D01*
X515865Y499675D01*
X515725Y499745D01*
X515550Y499815D01*
X515165Y499990D01*
X514815Y500200D01*
X514745Y500235D01*
X514570Y500375D01*
X514290Y500550D01*
X513975Y500725D01*
X513905Y500760D01*
X513730Y500865D01*
X513520Y500970D01*
X513310Y501040D01*
X513275D01*
X513135Y501110D01*
X512925Y501145D01*
X512645Y501250D01*
X511840Y501600D01*
X511805Y501635D01*
X511700Y501670D01*
X511490Y501775D01*
X511245Y501880D01*
X510965Y502020D01*
X510615Y502160D01*
X509880Y502440D01*
X509845Y502475D01*
X509705Y502510D01*
X509530Y502580D01*
X509285Y502650D01*
X508760Y502790D01*
X508480Y502825D01*
X508235Y502860D01*
D02*
G37*
%LPD*%
D10*
X418405Y184114D02*
G03*
X418405Y184114I-492J0D01*
G01*
X403406D02*
G03*
X403406Y184114I-492J0D01*
G01*
X408405Y563535D02*
G03*
X408405Y563535I-492J0D01*
G01*
X419508Y389311D02*
G03*
X419508Y389311I-492J0D01*
G01*
X693504Y278110D02*
G03*
X693504Y278110I-492J0D01*
G01*
Y418110D02*
G03*
X693504Y418110I-492J0D01*
G01*
Y558110D02*
G03*
X693504Y558110I-492J0D01*
G01*
D11*
X516732Y188500D02*
G03*
X516732Y191500I0J1500D01*
G01*
X481732Y188500D02*
G03*
X481732Y191500I0J1500D01*
G01*
X446732Y188500D02*
G03*
X446732Y191500I0J1500D01*
G01*
X517638Y99488D02*
G03*
X514902Y96752I0J-2736D01*
G01*
X512146Y75886D02*
G03*
X514882Y78622I0J2736D01*
G01*
X445098Y96752D02*
G03*
X442362Y99488I-2736J0D01*
G01*
X445118Y78622D02*
G03*
X447854Y75886I2736J0D01*
G01*
X448500Y463232D02*
G03*
X446500Y463232I-1000J0D01*
G01*
X514882Y648287D02*
G03*
X512146Y651024I-2736J0D01*
G01*
X514902Y630158D02*
G03*
X517638Y627421I2736J0D01*
G01*
X447854Y651024D02*
G03*
X445118Y648287I0J-2736D01*
G01*
X442362Y627421D02*
G03*
X445098Y630158I0J2736D01*
G01*
X431500Y542921D02*
G03*
X433500Y542921I1000J0D01*
G01*
X595226Y263000D02*
G03*
X597726Y263000I1250J0D01*
G01*
X644658Y323750D02*
G03*
X644658Y326250I0J1250D01*
G01*
X595226Y403000D02*
G03*
X597726Y403000I1250J0D01*
G01*
X644658Y463750D02*
G03*
X644658Y466250I0J1250D01*
G01*
Y603750D02*
G03*
X644658Y606250I0J1250D01*
G01*
X595226Y543000D02*
G03*
X597726Y543000I1250J0D01*
G01*
X453929Y381858D02*
X475142Y403071D01*
X468071Y410142D02*
X475142Y403071D01*
X446858Y388929D02*
X468071Y410142D01*
X446858Y388929D02*
X453929Y381858D01*
X392500Y257500D02*
X402500D01*
X392500Y267500D02*
X402500D01*
X399213Y323622D02*
X400787D01*
X399213Y326378D02*
X400787D01*
X399213Y316122D02*
X400787D01*
X399213Y318878D02*
X400787D01*
X486500Y269000D02*
X488500Y271000D01*
X486500Y268000D02*
X488500D01*
X486500Y272000D02*
X488500D01*
X486500Y279000D02*
X488500Y281000D01*
X486500Y278000D02*
X488500D01*
X486500Y282000D02*
X488500D01*
X486500Y289000D02*
X488500Y291000D01*
X486500Y288000D02*
X488500D01*
X486500Y292000D02*
X488500D01*
X486500Y298500D02*
X488500Y300500D01*
X486500Y297500D02*
X488500D01*
X486500Y301500D02*
X488500D01*
X486500Y309000D02*
X488500Y311000D01*
X486500Y308000D02*
X488500D01*
X486500Y312000D02*
X488500D01*
X486500Y319000D02*
X488500Y321000D01*
X486500Y318000D02*
X488500D01*
X486500Y322000D02*
X488500D01*
X486500Y329000D02*
X488500Y331000D01*
X486500Y328000D02*
X488500D01*
X486500Y332000D02*
X488500D01*
X486500Y339000D02*
X488500Y341000D01*
X486500Y338000D02*
X488500D01*
X486500Y342000D02*
X488500D01*
X486500Y349000D02*
X488500Y351000D01*
X486500Y348000D02*
X488500D01*
X486500Y352000D02*
X488500D01*
X486500Y359000D02*
X488500Y361000D01*
X486500Y358000D02*
X488500D01*
X486500Y362000D02*
X488500D01*
X486500Y369000D02*
X488500Y371000D01*
X486500Y368000D02*
X488500D01*
X486500Y372000D02*
X488500D01*
X486500Y379000D02*
X488500Y381000D01*
X486500Y378000D02*
X488500D01*
X486500Y382000D02*
X488500D01*
X486500Y389000D02*
X488500Y391000D01*
X486500Y388000D02*
X488500D01*
X486500Y392000D02*
X488500D01*
X486500Y399000D02*
X488500Y401000D01*
X486500Y398000D02*
X488500D01*
X486500Y402000D02*
X488500D01*
X486500Y409000D02*
X488500Y411000D01*
X486500Y408000D02*
X488500D01*
X486500Y412000D02*
X488500D01*
X486500Y419000D02*
X488500Y421000D01*
X486500Y418000D02*
X488500D01*
X486500Y422000D02*
X488500D01*
X486500Y429000D02*
X488500Y431000D01*
X486500Y428000D02*
X488500D01*
X486500Y432000D02*
X488500D01*
X486500Y439000D02*
X488500Y441000D01*
X486500Y438000D02*
X488500D01*
X486500Y442000D02*
X488500D01*
X426378Y351713D02*
Y353287D01*
X423622Y351713D02*
Y353287D01*
X495000Y457500D02*
X505000D01*
X495000D02*
Y477500D01*
X505000D01*
Y457500D02*
Y477500D01*
X392500Y500000D02*
Y510000D01*
Y337500D02*
Y347500D01*
Y420000D02*
Y430000D01*
X382500Y337500D02*
Y347500D01*
X402500D01*
Y337500D02*
Y347500D01*
X382500Y337500D02*
X402500D01*
X382500Y420000D02*
Y430000D01*
X402500D01*
Y420000D02*
Y430000D01*
X382500Y420000D02*
X402500D01*
X382500Y500000D02*
Y510000D01*
X402500D01*
Y500000D02*
Y510000D01*
X382500Y500000D02*
X402500D01*
X406791Y163445D02*
X407677D01*
X406791Y181555D02*
X407677D01*
X417323Y163445D02*
X418209D01*
X417323Y181555D02*
X418209D01*
X406791Y163445D02*
Y181555D01*
X418209Y163445D02*
Y181555D01*
X391791Y163445D02*
X392677D01*
X391791Y181555D02*
X392677D01*
X402323Y163445D02*
X403209D01*
X402323Y181555D02*
X403209D01*
X391791Y163445D02*
Y181555D01*
X403209Y163445D02*
Y181555D01*
X421713Y273878D02*
X423287D01*
X421713Y271122D02*
X423287D01*
X502500Y195000D02*
X512500D01*
X467500D02*
X477500D01*
X432500D02*
X442500D01*
X516732Y199449D02*
X516949D01*
X516732Y191484D02*
Y199449D01*
Y180551D02*
Y188516D01*
X528051Y199449D02*
X528268D01*
Y180551D02*
Y199449D01*
X516732Y180551D02*
X516949D01*
X528051D02*
X528268D01*
X481732Y199449D02*
X481949D01*
X481732Y191484D02*
Y199449D01*
Y180551D02*
Y188516D01*
X493051Y199449D02*
X493268D01*
Y180551D02*
Y199449D01*
X481732Y180551D02*
X481949D01*
X493051D02*
X493268D01*
X512500Y175000D02*
Y205000D01*
X502500D02*
X512500D01*
X502500Y175000D02*
Y205000D01*
Y175000D02*
X512500D01*
X477500D02*
Y205000D01*
X467500D02*
X477500D01*
X467500Y175000D02*
Y205000D01*
Y175000D02*
X477500D01*
X442500D02*
Y205000D01*
X432500D02*
X442500D01*
X432500Y175000D02*
Y205000D01*
Y175000D02*
X442500D01*
X446732Y199449D02*
X446949D01*
X446732Y191484D02*
Y199449D01*
Y180551D02*
Y188516D01*
X458051Y199449D02*
X458268D01*
Y180551D02*
Y199449D01*
X446732Y180551D02*
X446949D01*
X458051D02*
X458268D01*
X495000Y450000D02*
X515000D01*
X495000Y270000D02*
X515000D01*
X495000D02*
Y450000D01*
X515000Y270000D02*
Y450000D01*
X419370Y111319D02*
X540630D01*
X419370Y99508D02*
Y148327D01*
X540630Y99508D02*
Y148327D01*
X447854Y75886D02*
X512146D01*
X419370Y148327D02*
X540630D01*
X452441Y111319D02*
Y148327D01*
X419370Y99508D02*
X540630D01*
X507559Y111319D02*
Y148327D01*
X514902Y78642D02*
Y96752D01*
X445098Y78642D02*
Y96752D01*
X436122Y211713D02*
Y213287D01*
X438878Y211713D02*
Y213287D01*
X516378Y166713D02*
Y168287D01*
X513622Y166713D02*
Y168287D01*
X501378Y166713D02*
Y168287D01*
X498622Y166713D02*
Y168287D01*
X481378Y166713D02*
Y168287D01*
X478622Y166713D02*
Y168287D01*
X466378Y166713D02*
Y168287D01*
X463622Y166713D02*
Y168287D01*
X446378Y166713D02*
Y168287D01*
X443622Y166713D02*
Y168287D01*
X431378Y166713D02*
Y168287D01*
X428622Y166713D02*
Y168287D01*
X518898Y163622D02*
Y167953D01*
X522244D01*
X531102Y163622D02*
Y167953D01*
X527756D02*
X531102D01*
X524000Y162000D02*
X526000D01*
X483898Y163622D02*
Y167953D01*
X487244D01*
X496102Y163622D02*
Y167953D01*
X492756D02*
X496102D01*
X489000Y162000D02*
X491000D01*
X448898Y163622D02*
Y167953D01*
X452244D01*
X461102Y163622D02*
Y167953D01*
X457756D02*
X461102D01*
X454000Y162000D02*
X456000D01*
X454173Y445378D02*
X455748D01*
X454173Y442622D02*
X455748D01*
X454173Y457854D02*
X455748D01*
X454173Y460610D02*
X455748D01*
X444000Y463232D02*
X446500D01*
X448500D02*
X451000D01*
X444000Y475232D02*
X451000D01*
X400858Y494354D02*
Y495142D01*
X433142Y494354D02*
Y495142D01*
X400858Y462858D02*
Y463646D01*
X433142Y462858D02*
Y463646D01*
X400858Y495142D02*
X433142D01*
X400858Y462858D02*
X433142D01*
X513622Y211713D02*
Y213287D01*
X516378Y211713D02*
Y213287D01*
X506122Y211713D02*
Y213287D01*
X508878Y211713D02*
Y213287D01*
X478622Y211713D02*
Y213287D01*
X481378Y211713D02*
Y213287D01*
X471122Y211713D02*
Y213287D01*
X473878Y211713D02*
Y213287D01*
X443622Y211713D02*
Y213287D01*
X446378Y211713D02*
Y213287D01*
X627000Y264000D02*
Y284000D01*
Y404000D02*
Y424000D01*
Y544000D02*
Y564000D01*
X574213Y251122D02*
X575787D01*
X574213Y253878D02*
X575787D01*
X574213Y261122D02*
X575787D01*
X574213Y263878D02*
X575787D01*
X574213Y391122D02*
X575787D01*
X574213Y393878D02*
X575787D01*
X574213Y401122D02*
X575787D01*
X574213Y403878D02*
X575787D01*
X574213Y531122D02*
X575787D01*
X574213Y533878D02*
X575787D01*
X574213Y541122D02*
X575787D01*
X574213Y543878D02*
X575787D01*
X637000Y544000D02*
Y564000D01*
X617000D02*
X637000D01*
X617000Y544000D02*
X637000D01*
X617000D02*
Y564000D01*
X637000Y404000D02*
Y424000D01*
X617000D02*
X637000D01*
X617000Y404000D02*
X637000D01*
X617000D02*
Y424000D01*
X637000Y264000D02*
Y284000D01*
X617000D02*
X637000D01*
X617000Y264000D02*
X637000D01*
X617000D02*
Y284000D01*
X515000Y270000D02*
Y277500D01*
Y270000D02*
X525000D01*
Y450000D01*
X515000D02*
X525000D01*
X515000Y277500D02*
Y450000D01*
X514902Y630158D02*
Y648268D01*
X445098Y630158D02*
Y648268D01*
X452441Y578583D02*
Y615590D01*
X419370Y627402D02*
X540630D01*
X507559Y578583D02*
Y615590D01*
X419370Y578583D02*
X540630D01*
X447854Y651024D02*
X512146D01*
X419370Y578583D02*
Y627402D01*
X540630Y578583D02*
Y627402D01*
X419370Y615590D02*
X540630D01*
X408209Y542866D02*
Y560976D01*
X396791Y542866D02*
Y560976D01*
X407323D02*
X408209D01*
X407323Y542866D02*
X408209D01*
X396791Y560976D02*
X397677D01*
X396791Y542866D02*
X397677D01*
X478642Y510780D02*
Y511567D01*
X446358Y510780D02*
Y511567D01*
X478642Y542276D02*
Y543063D01*
X446358Y542276D02*
Y543063D01*
Y510780D02*
X478642D01*
X446358Y543063D02*
X478642D01*
X424213Y560543D02*
X425787D01*
X424213Y563299D02*
X425787D01*
X424213Y548299D02*
X425787D01*
X424213Y545543D02*
X425787D01*
X429000Y530921D02*
X436000D01*
X429000Y542921D02*
X431500D01*
X433500D02*
X436000D01*
X446000Y256500D02*
X458000D01*
X446000Y241000D02*
X458000D01*
X444000Y246000D02*
Y251500D01*
X460000Y246000D02*
Y251500D01*
X401398Y415689D02*
X413602D01*
X401398Y389311D02*
X413602D01*
X401398D02*
Y415689D01*
X413602Y389311D02*
Y415689D01*
X467378Y274213D02*
Y275787D01*
X464622Y274213D02*
Y275787D01*
X453878Y269213D02*
Y270787D01*
X451122Y269213D02*
Y270787D01*
X409213Y306622D02*
X410787D01*
X409213Y309378D02*
X410787D01*
X421713Y256122D02*
X423287D01*
X421713Y258878D02*
X423287D01*
X421713Y241122D02*
X423287D01*
X421713Y243878D02*
X423287D01*
X409213Y236122D02*
X410787D01*
X409213Y238878D02*
X410787D01*
X426122Y404213D02*
Y405787D01*
X428878Y404213D02*
Y405787D01*
X623429Y227933D02*
X636571D01*
X623429Y207067D02*
X636571D01*
X619547Y253425D02*
Y256575D01*
X625453Y253425D02*
Y256575D01*
X581398Y271398D02*
Y283602D01*
X610728Y271398D02*
X612500Y273169D01*
X610728Y283602D02*
X612500Y281831D01*
Y273169D02*
Y281831D01*
X581398Y271398D02*
X591634D01*
X581398Y283602D02*
X591634D01*
X601083D02*
X610728D01*
X601083Y271398D02*
X610728D01*
X681004Y249252D02*
Y275748D01*
X743996Y249252D02*
Y275748D01*
X681004Y249252D02*
X743996D01*
X681004Y275748D02*
X743996D01*
X588953Y242000D02*
X603953D01*
X597726Y263000D02*
X603953D01*
X588953D02*
X595226D01*
X683622Y289213D02*
Y290787D01*
X686378Y289213D02*
Y290787D01*
X673622Y309665D02*
Y311240D01*
X676378Y309665D02*
Y311240D01*
X572713Y276122D02*
X574287D01*
X572713Y278878D02*
X574287D01*
X634213Y253622D02*
X635787D01*
X634213Y256378D02*
X635787D01*
X634213Y286122D02*
X635787D01*
X634213Y288878D02*
X635787D01*
X665500Y317000D02*
Y333000D01*
X644657Y317000D02*
Y323750D01*
Y326250D02*
Y333000D01*
X623429Y367933D02*
X636571D01*
X623429Y347067D02*
X636571D01*
X619547Y393425D02*
Y396575D01*
X625453Y393425D02*
Y396575D01*
X581398Y411398D02*
Y423602D01*
X610728Y411398D02*
X612500Y413169D01*
X610728Y423602D02*
X612500Y421831D01*
Y413169D02*
Y421831D01*
X581398Y411398D02*
X591634D01*
X581398Y423602D02*
X591634D01*
X601083D02*
X610728D01*
X601083Y411398D02*
X610728D01*
X681004Y389252D02*
Y415748D01*
X743996Y389252D02*
Y415748D01*
X681004Y389252D02*
X743996D01*
X681004Y415748D02*
X743996D01*
X588953Y382000D02*
X603953D01*
X597726Y403000D02*
X603953D01*
X588953D02*
X595226D01*
X683622Y429213D02*
Y430787D01*
X686378Y429213D02*
Y430787D01*
X673622Y449665D02*
Y451240D01*
X676378Y449665D02*
Y451240D01*
X572713Y416122D02*
X574287D01*
X572713Y418878D02*
X574287D01*
X634213Y393622D02*
X635787D01*
X634213Y396378D02*
X635787D01*
X634213Y426122D02*
X635787D01*
X634213Y428878D02*
X635787D01*
X665500Y457000D02*
Y473000D01*
X644657Y457000D02*
Y463750D01*
Y466250D02*
Y473000D01*
X581398Y551398D02*
Y563602D01*
X610728Y551398D02*
X612500Y553169D01*
X610728Y563602D02*
X612500Y561831D01*
Y553169D02*
Y561831D01*
X581398Y551398D02*
X591634D01*
X581398Y563602D02*
X591634D01*
X601083D02*
X610728D01*
X601083Y551398D02*
X610728D01*
X392500Y227500D02*
X402500D01*
X392500Y287500D02*
X402500D01*
Y227500D02*
Y287500D01*
X392500Y227500D02*
Y287500D01*
X644657Y606250D02*
Y613000D01*
Y597000D02*
Y603750D01*
X665500Y597000D02*
Y613000D01*
X676378Y589665D02*
Y591240D01*
X673622Y589665D02*
Y591240D01*
X686378Y569213D02*
Y570787D01*
X683622Y569213D02*
Y570787D01*
X681004Y555748D02*
X743996D01*
X681004Y529252D02*
X743996D01*
Y555748D01*
X681004Y529252D02*
Y555748D01*
X588953Y543000D02*
X595226D01*
X597726D02*
X603953D01*
X588953Y522000D02*
X603953D01*
X572713Y558878D02*
X574287D01*
X572713Y556122D02*
X574287D01*
X625453Y533425D02*
Y536575D01*
X619547Y533425D02*
Y536575D01*
X623429Y487067D02*
X636571D01*
X623429Y507933D02*
X636571D01*
X634213Y536378D02*
X635787D01*
X634213Y533622D02*
X635787D01*
X634213Y568878D02*
X635787D01*
X634213Y566122D02*
X635787D01*
D12*
X417362Y445921D02*
G03*
X417362Y445921I-12402J0D01*
G01*
X487402Y560000D02*
G03*
X487402Y560000I-12402J0D01*
G01*
X417402Y524921D02*
G03*
X417402Y524921I-12402J0D01*
G01*
X606496Y167342D02*
G03*
X606496Y167342I-31496J0D01*
G01*
X671496Y167842D02*
G03*
X671496Y167842I-31496J0D01*
G01*
X695000Y105000D02*
X717500D01*
X735000Y190000D02*
X780000D01*
Y105000D02*
Y190000D01*
X735000Y105000D02*
X780000D01*
X735000D02*
Y190000D01*
X745000Y392500D02*
X780000D01*
X745000Y252500D02*
X780000D01*
Y310000D01*
X750000D02*
X780000D01*
X727500Y287500D02*
X750000Y310000D01*
X727500Y277500D02*
Y287500D01*
X780000Y392500D02*
Y450000D01*
X750000D02*
X780000D01*
X727500Y427500D02*
X750000Y450000D01*
X727500Y417500D02*
Y427500D01*
X745000Y532500D02*
X762500D01*
X780000D01*
X727500Y557500D02*
Y567500D01*
X750000Y590000D01*
X780000D01*
Y532500D02*
Y590000D01*
X672500Y105000D02*
X695000D01*
X672500D02*
Y190000D01*
X717500D01*
Y105000D02*
Y190000D01*
X666000Y234500D02*
Y254185D01*
X644000Y234500D02*
Y254185D01*
X666000Y267000D02*
Y286685D01*
X644000Y267000D02*
Y286685D01*
X666000Y374500D02*
Y394185D01*
X644000Y374500D02*
Y394185D01*
X666000Y407000D02*
Y426685D01*
X644000Y407000D02*
Y426685D01*
Y514500D02*
Y534185D01*
X666000Y514500D02*
Y534185D01*
X644000Y547000D02*
Y566685D01*
X666000Y547000D02*
Y566685D01*
D13*
X430536Y288028D02*
G03*
X430536Y288028I-300J0D01*
G01*
X424800Y335200D02*
X428329D01*
X465200Y331671D02*
Y335200D01*
X461671Y294800D02*
X465200D01*
X424800D02*
X428329D01*
X424800Y331671D02*
Y335200D01*
X461671D02*
X465200D01*
Y294800D02*
Y298329D01*
X424800Y294800D02*
Y298329D01*
X456621Y417221D02*
X458034Y415807D01*
X457328Y416514D01*
X455207Y414393D01*
X456621Y412979D02*
X458741Y415100D01*
X459802Y414040D01*
X459802Y413333D01*
X459095Y412626D01*
X458388D01*
X457328Y413686D01*
X458034Y412979D02*
X458034Y411566D01*
X460862Y412979D02*
X461569Y412273D01*
X461215Y412626D01*
X459095Y410505D01*
X458741Y410859D01*
X459448Y410152D01*
X463689Y409445D02*
X463689Y410152D01*
X462983Y410859D01*
X462276D01*
X460862Y409445D01*
Y408738D01*
X461569Y408031D01*
X462276D01*
X462983Y408738D01*
X462276Y409445D01*
X446121Y398621D02*
X444000Y396500D01*
X445060Y397560D01*
X446474Y396147D01*
X447534Y397207D01*
X445414Y395086D01*
X448241Y396500D02*
X446121Y394379D01*
X447181Y393319D01*
X447888Y393319D01*
X448241Y393672D01*
X448241Y394379D01*
X447181Y395440D01*
X448241Y394379D01*
X448948D01*
X449302Y394733D01*
X449302Y395440D01*
X448241Y396500D01*
X699499Y599999D02*
X699000Y600499D01*
X698000D01*
X697500Y599999D01*
Y599499D01*
X698000Y599000D01*
X699000D01*
X699499Y598500D01*
Y598000D01*
X699000Y597500D01*
X698000D01*
X697500Y598000D01*
X700499Y600499D02*
X702498D01*
X701499D01*
Y597500D01*
X703498D02*
Y599499D01*
X704498Y600499D01*
X705497Y599499D01*
Y597500D01*
Y599000D01*
X703498D01*
X706497Y597500D02*
Y600499D01*
X708496Y597500D01*
Y600499D01*
X709496D02*
Y597500D01*
X710996D01*
X711495Y598000D01*
Y599999D01*
X710996Y600499D01*
X709496D01*
X713995D02*
X712995D01*
X712495Y599999D01*
Y598000D01*
X712995Y597500D01*
X713995D01*
X714495Y598000D01*
Y599999D01*
X713995Y600499D01*
X717493D02*
X715494D01*
Y599000D01*
X716494D01*
X715494D01*
Y597500D01*
X720493Y600499D02*
X718493D01*
Y599000D01*
X719493D01*
X718493D01*
Y597500D01*
X389499Y599999D02*
X389000Y600499D01*
X388000D01*
X387500Y599999D01*
Y599499D01*
X388000Y599000D01*
X389000D01*
X389499Y598500D01*
Y598000D01*
X389000Y597500D01*
X388000D01*
X387500Y598000D01*
X390499Y600499D02*
X392498D01*
X391499D01*
Y597500D01*
X393498D02*
Y599499D01*
X394498Y600499D01*
X395497Y599499D01*
Y597500D01*
Y599000D01*
X393498D01*
X396497Y597500D02*
Y600499D01*
X398496Y597500D01*
Y600499D01*
X399496D02*
Y597500D01*
X400996D01*
X401496Y598000D01*
Y599999D01*
X400996Y600499D01*
X399496D01*
X403995D02*
X402995D01*
X402495Y599999D01*
Y598000D01*
X402995Y597500D01*
X403995D01*
X404494Y598000D01*
Y599999D01*
X403995Y600499D01*
X407493D02*
X405494D01*
Y599000D01*
X406494D01*
X405494D01*
Y597500D01*
X410493Y600499D02*
X408493D01*
Y599000D01*
X409493D01*
X408493D01*
Y597500D01*
X389499Y129999D02*
X389000Y130499D01*
X388000D01*
X387500Y129999D01*
Y129499D01*
X388000Y128999D01*
X389000D01*
X389499Y128500D01*
Y128000D01*
X389000Y127500D01*
X388000D01*
X387500Y128000D01*
X390499Y130499D02*
X392498D01*
X391499D01*
Y127500D01*
X393498D02*
Y129499D01*
X394498Y130499D01*
X395497Y129499D01*
Y127500D01*
Y128999D01*
X393498D01*
X396497Y127500D02*
Y130499D01*
X398496Y127500D01*
Y130499D01*
X399496D02*
Y127500D01*
X400996D01*
X401496Y128000D01*
Y129999D01*
X400996Y130499D01*
X399496D01*
X403995D02*
X402995D01*
X402495Y129999D01*
Y128000D01*
X402995Y127500D01*
X403995D01*
X404494Y128000D01*
Y129999D01*
X403995Y130499D01*
X407493D02*
X405494D01*
Y128999D01*
X406494D01*
X405494D01*
Y127500D01*
X410493Y130499D02*
X408493D01*
Y128999D01*
X409493D01*
X408493D01*
Y127500D01*
X410460Y453000D02*
Y451001D01*
X411460Y452000D02*
X409460D01*
X639001Y278000D02*
X642000D01*
Y279999D01*
X639001Y280999D02*
X641500D01*
X642000Y281499D01*
Y282499D01*
X641500Y282998D01*
X639001D01*
Y267000D02*
X642000D01*
X640500D01*
Y268999D01*
X639001D01*
X642000D01*
X639001Y269999D02*
X641500D01*
X642000Y270499D01*
Y271498D01*
X641500Y271998D01*
X639001D01*
Y417000D02*
X642000D01*
Y418999D01*
X639001Y419999D02*
X641000D01*
X642000Y420999D01*
X641000Y421998D01*
X639001D01*
Y406000D02*
X642000D01*
X640500D01*
Y407999D01*
X639001D01*
X642000D01*
X639001Y408999D02*
X641000D01*
X642000Y409999D01*
X641000Y410998D01*
X639001D01*
Y546000D02*
X642000D01*
X640500D01*
Y547999D01*
X639001D01*
X642000D01*
X639001Y548999D02*
X642000D01*
X641000Y549999D01*
X642000Y550998D01*
X639001D01*
Y557000D02*
X642000D01*
Y558999D01*
X639001Y559999D02*
X642000D01*
X641000Y560999D01*
X642000Y561998D01*
X639001D01*
X527500Y276499D02*
Y274000D01*
X528000Y273500D01*
X529000D01*
X529499Y274000D01*
Y276499D01*
X530499Y273000D02*
X532498D01*
X533498Y276499D02*
Y274500D01*
X534498Y273500D01*
X535497Y274500D01*
Y276499D01*
X537997D02*
X536997D01*
X536497Y275999D01*
Y274000D01*
X536997Y273500D01*
X537997D01*
X538496Y274000D01*
Y275999D01*
X537997Y276499D01*
X539496D02*
Y273500D01*
X541496D01*
X542495Y276499D02*
X544494D01*
X543495D01*
Y273500D01*
X527500Y286499D02*
Y284500D01*
X528500Y283500D01*
X529499Y284500D01*
Y286499D01*
X530499Y283000D02*
X532498D01*
X533498Y286499D02*
Y284500D01*
X534498Y283500D01*
X535497Y284500D01*
Y286499D01*
X537997D02*
X536997D01*
X536497Y285999D01*
Y284000D01*
X536997Y283500D01*
X537997D01*
X538496Y284000D01*
Y285999D01*
X537997Y286499D01*
X539496D02*
Y283500D01*
X541496D01*
X542495Y286499D02*
X544494D01*
X543495D01*
Y283500D01*
X527500Y436499D02*
Y434000D01*
X528000Y433500D01*
X529000D01*
X529499Y434000D01*
Y436499D01*
X532498Y435999D02*
X531998Y436499D01*
X530999D01*
X530499Y435999D01*
Y435499D01*
X530999Y435000D01*
X531998D01*
X532498Y434500D01*
Y434000D01*
X531998Y433500D01*
X530999D01*
X530499Y434000D01*
X533498Y433500D02*
Y435499D01*
X534498Y436499D01*
X535497Y435499D01*
Y433500D01*
Y435000D01*
X533498D01*
X536497Y433500D02*
Y436499D01*
X537997D01*
X538496Y435999D01*
Y435000D01*
X537997Y434500D01*
X536497D01*
X537497D02*
X538496Y433500D01*
X539496Y436499D02*
X541496D01*
X540496D01*
Y433500D01*
X542495Y433000D02*
X544494D01*
X545494Y436499D02*
X547494D01*
X546494D01*
Y433500D01*
X548493Y436499D02*
X550493Y433500D01*
Y436499D02*
X548493Y433500D01*
X754499Y194999D02*
X754000Y195499D01*
X753000D01*
X752500Y194999D01*
Y193000D01*
X753000Y192500D01*
X754000D01*
X754499Y193000D01*
Y194000D01*
X753500D01*
X755499Y192500D02*
Y195499D01*
X757498Y192500D01*
Y195499D01*
X758498D02*
Y192500D01*
X759998D01*
X760497Y193000D01*
Y194999D01*
X759998Y195499D01*
X758498D01*
X527500Y296499D02*
Y293500D01*
X528500Y294500D01*
X529499Y293500D01*
Y296499D01*
X530499Y293000D02*
X532498D01*
X533498Y296499D02*
Y294500D01*
X534498Y293500D01*
X535497Y294500D01*
Y296499D01*
X537997D02*
X536997D01*
X536497Y295999D01*
Y294000D01*
X536997Y293500D01*
X537997D01*
X538496Y294000D01*
Y295999D01*
X537997Y296499D01*
X539496D02*
Y293500D01*
X541496D01*
X542495Y296499D02*
X544494D01*
X543495D01*
Y293500D01*
X527500Y306499D02*
X529499D01*
X528500D01*
Y303500D01*
X530499Y306499D02*
Y303500D01*
Y304999D01*
X532498D01*
Y306499D01*
Y303500D01*
X533498D02*
Y306499D01*
X534998D01*
X535497Y305999D01*
Y304999D01*
X534998Y304500D01*
X533498D01*
X534498D02*
X535497Y303500D01*
X537997Y306499D02*
X536997D01*
X536497Y305999D01*
Y304000D01*
X536997Y303500D01*
X537997D01*
X538496Y304000D01*
Y305999D01*
X537997Y306499D01*
X539496D02*
X541496D01*
X540496D01*
Y303500D01*
X527500Y316499D02*
Y314000D01*
X528000Y313500D01*
X529000D01*
X529499Y314000D01*
Y316499D01*
X530499Y313000D02*
X532498D01*
X533498Y316499D02*
Y314500D01*
X534498Y313500D01*
X535497Y314500D01*
Y316499D01*
X537997D02*
X536997D01*
X536497Y315999D01*
Y314000D01*
X536997Y313500D01*
X537997D01*
X538496Y314000D01*
Y315999D01*
X537997Y316499D01*
X539496D02*
Y313500D01*
X541496D01*
X542495Y316499D02*
X544494D01*
X543495D01*
Y313500D01*
X527500Y326499D02*
Y323500D01*
X528500Y324500D01*
X529499Y323500D01*
Y326499D01*
X530499Y323000D02*
X532498D01*
X533498Y326499D02*
Y323500D01*
X535497D01*
X537997Y326499D02*
X536997D01*
X536497Y325999D01*
Y324000D01*
X536997Y323500D01*
X537997D01*
X538496Y324000D01*
Y325999D01*
X537997Y326499D01*
X539496D02*
Y323500D01*
X540496Y324500D01*
X541496Y323500D01*
Y326499D01*
X527500Y336499D02*
Y334500D01*
X528500Y333500D01*
X529499Y334500D01*
Y336499D01*
X530499Y333000D02*
X532498D01*
X533498Y336499D02*
Y333500D01*
X535497D01*
X537997Y336499D02*
X536997D01*
X536497Y335999D01*
Y334000D01*
X536997Y333500D01*
X537997D01*
X538496Y334000D01*
Y335999D01*
X537997Y336499D01*
X539496D02*
Y333500D01*
X540496Y334500D01*
X541496Y333500D01*
Y336499D01*
X527500Y346499D02*
Y344000D01*
X528000Y343500D01*
X529000D01*
X529499Y344000D01*
Y346499D01*
X530499Y343000D02*
X532498D01*
X533498Y346499D02*
Y343500D01*
Y345000D01*
X535497D01*
Y346499D01*
Y343500D01*
X536497D02*
Y345499D01*
X537497Y346499D01*
X538496Y345499D01*
Y343500D01*
Y345000D01*
X536497D01*
X539496Y346499D02*
Y343500D01*
X541496D01*
X542495Y346499D02*
Y343500D01*
X544494D01*
X527500Y356499D02*
Y354500D01*
X528500Y353500D01*
X529499Y354500D01*
Y356499D01*
X530499Y353000D02*
X532498D01*
X533498Y356499D02*
Y353500D01*
Y354999D01*
X535497D01*
Y356499D01*
Y353500D01*
X536497D02*
Y355499D01*
X537497Y356499D01*
X538496Y355499D01*
Y353500D01*
Y354999D01*
X536497D01*
X539496Y356499D02*
Y353500D01*
X541496D01*
X542495Y356499D02*
Y353500D01*
X544494D01*
X527500Y366499D02*
Y363500D01*
X528500Y364500D01*
X529499Y363500D01*
Y366499D01*
X530499Y363000D02*
X532498D01*
X533498Y366499D02*
Y363500D01*
Y365000D01*
X535497D01*
Y366499D01*
Y363500D01*
X536497D02*
Y365499D01*
X537497Y366499D01*
X538496Y365499D01*
Y363500D01*
Y365000D01*
X536497D01*
X539496Y366499D02*
Y363500D01*
X541496D01*
X542495Y366499D02*
Y363500D01*
X544494D01*
X527500Y376499D02*
Y374000D01*
X528000Y373500D01*
X529000D01*
X529499Y374000D01*
Y376499D01*
X530499Y373000D02*
X532498D01*
X533498Y376499D02*
Y373500D01*
Y374999D01*
X535497D01*
Y376499D01*
Y373500D01*
X536497Y376499D02*
X537497D01*
X536997D01*
Y373500D01*
X536497D01*
X537497D01*
X540996Y375999D02*
X540496Y376499D01*
X539496D01*
X538996Y375999D01*
Y374000D01*
X539496Y373500D01*
X540496D01*
X540996Y374000D01*
Y374999D01*
X539996D01*
X541995Y376499D02*
Y373500D01*
Y374999D01*
X543995D01*
Y376499D01*
Y373500D01*
X527500Y386499D02*
Y383500D01*
X528500Y384500D01*
X529499Y383500D01*
Y386499D01*
X530499Y383000D02*
X532498D01*
X533498Y386499D02*
Y383500D01*
Y384999D01*
X535497D01*
Y386499D01*
Y383500D01*
X536497Y386499D02*
X537497D01*
X536997D01*
Y383500D01*
X536497D01*
X537497D01*
X540996Y385999D02*
X540496Y386499D01*
X539496D01*
X538996Y385999D01*
Y384000D01*
X539496Y383500D01*
X540496D01*
X540996Y384000D01*
Y384999D01*
X539996D01*
X541995Y386499D02*
Y383500D01*
Y384999D01*
X543995D01*
Y386499D01*
Y383500D01*
X527500Y396499D02*
Y394500D01*
X528500Y393500D01*
X529499Y394500D01*
Y396499D01*
X530499Y393000D02*
X532498D01*
X533498Y396499D02*
Y393500D01*
Y395000D01*
X535497D01*
Y396499D01*
Y393500D01*
X536497Y396499D02*
X537497D01*
X536997D01*
Y393500D01*
X536497D01*
X537497D01*
X540996Y395999D02*
X540496Y396499D01*
X539496D01*
X538996Y395999D01*
Y394000D01*
X539496Y393500D01*
X540496D01*
X540996Y394000D01*
Y395000D01*
X539996D01*
X541995Y396499D02*
Y393500D01*
Y395000D01*
X543995D01*
Y396499D01*
Y393500D01*
X527500Y403500D02*
Y406499D01*
X528500Y405499D01*
X529499Y406499D01*
Y403500D01*
X530499Y403000D02*
X532498D01*
X533498Y406499D02*
Y403500D01*
Y404999D01*
X535497D01*
Y406499D01*
Y403500D01*
X536497Y406499D02*
Y403500D01*
X537997D01*
X538496Y404000D01*
Y404500D01*
X537997Y404999D01*
X536497D01*
X537997D01*
X538496Y405499D01*
Y405999D01*
X537997Y406499D01*
X536497D01*
X529499Y416499D02*
X527500D01*
Y413500D01*
X529499D01*
X527500Y414999D02*
X528500D01*
X530499Y416499D02*
X532498Y413500D01*
Y416499D02*
X530499Y413500D01*
X533498Y413000D02*
X535497D01*
X536497Y416499D02*
X538496D01*
X537497D01*
Y413500D01*
X539496D02*
Y416499D01*
X540996D01*
X541496Y415999D01*
Y414999D01*
X540996Y414500D01*
X539496D01*
X540496D02*
X541496Y413500D01*
X542495Y416499D02*
X543495D01*
X542995D01*
Y413500D01*
X542495D01*
X543495D01*
X546994Y415999D02*
X546494Y416499D01*
X545494D01*
X544994Y415999D01*
Y414000D01*
X545494Y413500D01*
X546494D01*
X546994Y414000D01*
Y414999D01*
X545994D01*
X527500Y446499D02*
Y444000D01*
X528000Y443500D01*
X529000D01*
X529499Y444000D01*
Y446499D01*
X532498Y445999D02*
X531998Y446499D01*
X530999D01*
X530499Y445999D01*
Y445499D01*
X530999Y445000D01*
X531998D01*
X532498Y444500D01*
Y444000D01*
X531998Y443500D01*
X530999D01*
X530499Y444000D01*
X533498Y443500D02*
Y445499D01*
X534498Y446499D01*
X535497Y445499D01*
Y443500D01*
Y445000D01*
X533498D01*
X536497Y443500D02*
Y446499D01*
X537997D01*
X538496Y445999D01*
Y445000D01*
X537997Y444500D01*
X536497D01*
X537497D02*
X538496Y443500D01*
X539496Y446499D02*
X541496D01*
X540496D01*
Y443500D01*
X542495Y443000D02*
X544494D01*
X545494Y443500D02*
Y446499D01*
X546994D01*
X547494Y445999D01*
Y445000D01*
X546994Y444500D01*
X545494D01*
X546494D02*
X547494Y443500D01*
X548493Y446499D02*
X550493Y443500D01*
Y446499D02*
X548493Y443500D01*
X405000Y231000D02*
Y233999D01*
X406499D01*
X406999Y233499D01*
Y232500D01*
X406499Y232000D01*
X405000D01*
X407999Y233999D02*
Y231000D01*
X409499D01*
X409998Y231500D01*
Y232000D01*
X409499Y232500D01*
X407999D01*
X409499D01*
X409998Y232999D01*
Y233499D01*
X409499Y233999D01*
X407999D01*
X410998Y233499D02*
X411498Y233999D01*
X412498D01*
X412997Y233499D01*
Y232999D01*
X412498Y232500D01*
X411998D01*
X412498D01*
X412997Y232000D01*
Y231500D01*
X412498Y231000D01*
X411498D01*
X410998Y231500D01*
X405000Y241000D02*
Y243999D01*
X406999Y241000D01*
Y243999D01*
X407999Y241000D02*
Y243999D01*
X409499D01*
X409998Y243499D01*
Y242499D01*
X409499Y242000D01*
X407999D01*
X408999D02*
X409998Y241000D01*
X412997Y243499D02*
X412498Y243999D01*
X411498D01*
X410998Y243499D01*
Y242999D01*
X411498Y242499D01*
X412498D01*
X412997Y242000D01*
Y241500D01*
X412498Y241000D01*
X411498D01*
X410998Y241500D01*
X413997Y243999D02*
X415996D01*
X414997D01*
Y241000D01*
X405000Y253999D02*
X406999D01*
X406000D01*
Y251000D01*
X407999D02*
Y253999D01*
X408999Y252999D01*
X409998Y253999D01*
Y251000D01*
X412997Y253499D02*
X412498Y253999D01*
X411498D01*
X410998Y253499D01*
Y252999D01*
X411498Y252500D01*
X412498D01*
X412997Y252000D01*
Y251500D01*
X412498Y251000D01*
X411498D01*
X410998Y251500D01*
X406999Y263499D02*
X406499Y263999D01*
X405500D01*
X405000Y263499D01*
Y261500D01*
X405500Y261000D01*
X406499D01*
X406999Y261500D01*
Y262499D01*
X406000D01*
X407999Y261000D02*
Y263999D01*
X409998Y261000D01*
Y263999D01*
X410998D02*
Y261000D01*
X412498D01*
X412997Y261500D01*
Y263499D01*
X412498Y263999D01*
X410998D01*
X405000Y273999D02*
X406999D01*
X406000D01*
Y271000D01*
X409998Y273499D02*
X409499Y273999D01*
X408499D01*
X407999Y273499D01*
Y271500D01*
X408499Y271000D01*
X409499D01*
X409998Y271500D01*
X410998Y273999D02*
Y271000D01*
Y272000D01*
X412997Y273999D01*
X411498Y272499D01*
X412997Y271000D01*
X405000Y283999D02*
Y282000D01*
X406000Y281000D01*
X406999Y282000D01*
Y283999D01*
X407999D02*
Y281000D01*
X409499D01*
X409998Y281500D01*
Y283499D01*
X409499Y283999D01*
X407999D01*
X410998D02*
Y281000D01*
X412498D01*
X412997Y281500D01*
Y283499D01*
X412498Y283999D01*
X410998D01*
X529000Y426499D02*
X528000D01*
X527500Y425999D01*
Y424000D01*
X528000Y423500D01*
X529000D01*
X529499Y424000D01*
Y425999D01*
X529000Y426499D01*
X530499Y423500D02*
Y426499D01*
X532498Y423500D01*
Y426499D01*
X533498Y423000D02*
X535497D01*
X538496Y425999D02*
X537997Y426499D01*
X536997D01*
X536497Y425999D01*
Y425499D01*
X536997Y425000D01*
X537997D01*
X538496Y424500D01*
Y424000D01*
X537997Y423500D01*
X536997D01*
X536497Y424000D01*
X539496Y426499D02*
Y423500D01*
X540496Y424500D01*
X541496Y423500D01*
Y426499D01*
X469500Y552921D02*
Y554921D01*
X468501Y553921D02*
X470500D01*
X410499Y532000D02*
Y530001D01*
X411499Y531000D02*
X409500D01*
X685000Y194000D02*
X686999D01*
X686000Y194999D02*
Y193000D01*
X687999Y195499D02*
Y193500D01*
X688999Y192500D01*
X689998Y193500D01*
Y195499D01*
X690998D02*
Y192500D01*
X692498D01*
X692997Y193000D01*
Y193500D01*
X692498Y194000D01*
X690998D01*
X692498D01*
X692997Y194499D01*
Y194999D01*
X692498Y195499D01*
X690998D01*
X694497Y194499D02*
X695497D01*
X695996Y194000D01*
Y192500D01*
X694497D01*
X693997Y193000D01*
X694497Y193500D01*
X695996D01*
X697496Y194999D02*
Y194499D01*
X696996D01*
X697996D01*
X697496D01*
Y193000D01*
X697996Y192500D01*
X699995Y194999D02*
Y194499D01*
X699495D01*
X700495D01*
X699995D01*
Y193000D01*
X700495Y192500D01*
X576501Y140500D02*
Y142499D01*
X575501Y141500D02*
X577500D01*
X641501Y141000D02*
Y142999D01*
X640501Y142000D02*
X642500D01*
X755000Y312500D02*
Y315499D01*
X756499D01*
X756999Y314999D01*
Y314000D01*
X756499Y313500D01*
X755000D01*
X757999Y315499D02*
Y312500D01*
Y314000D01*
X759998D01*
Y315499D01*
Y312500D01*
X760998D02*
Y314499D01*
X761998Y315499D01*
X762997Y314499D01*
Y312500D01*
Y314000D01*
X760998D01*
X765996Y314999D02*
X765497Y315499D01*
X764497D01*
X763997Y314999D01*
Y314499D01*
X764497Y314000D01*
X765497D01*
X765996Y313500D01*
Y313000D01*
X765497Y312500D01*
X764497D01*
X763997Y313000D01*
X768996Y315499D02*
X766996D01*
Y312500D01*
X768996D01*
X766996Y314000D02*
X767996D01*
X772994Y315499D02*
Y313000D01*
X773494Y312500D01*
X774494D01*
X774994Y313000D01*
Y315499D01*
X755000Y452500D02*
Y455499D01*
X756499D01*
X756999Y454999D01*
Y454000D01*
X756499Y453500D01*
X755000D01*
X757999Y455499D02*
Y452500D01*
Y454000D01*
X759998D01*
Y455499D01*
Y452500D01*
X760998D02*
Y454499D01*
X761998Y455499D01*
X762997Y454499D01*
Y452500D01*
Y454000D01*
X760998D01*
X765996Y454999D02*
X765497Y455499D01*
X764497D01*
X763997Y454999D01*
Y454499D01*
X764497Y454000D01*
X765497D01*
X765996Y453500D01*
Y453000D01*
X765497Y452500D01*
X764497D01*
X763997Y453000D01*
X768996Y455499D02*
X766996D01*
Y452500D01*
X768996D01*
X766996Y454000D02*
X767996D01*
X772994Y455499D02*
Y453500D01*
X773994Y452500D01*
X774994Y453500D01*
Y455499D01*
X755000Y592500D02*
Y595499D01*
X756499D01*
X756999Y594999D01*
Y593999D01*
X756499Y593500D01*
X755000D01*
X757999Y595499D02*
Y592500D01*
Y593999D01*
X759998D01*
Y595499D01*
Y592500D01*
X760998D02*
Y594499D01*
X761998Y595499D01*
X762997Y594499D01*
Y592500D01*
Y593999D01*
X760998D01*
X765996Y594999D02*
X765497Y595499D01*
X764497D01*
X763997Y594999D01*
Y594499D01*
X764497Y593999D01*
X765497D01*
X765996Y593500D01*
Y593000D01*
X765497Y592500D01*
X764497D01*
X763997Y593000D01*
X768996Y595499D02*
X766996D01*
Y592500D01*
X768996D01*
X766996Y593999D02*
X767996D01*
X772994Y595499D02*
Y592500D01*
X773994Y593500D01*
X774994Y592500D01*
Y595499D01*
X453379Y379121D02*
X455500Y377000D01*
X454440Y378060D01*
X455853Y379474D01*
X454793Y380534D01*
X456914Y378414D01*
X455500Y381241D02*
X457621Y379121D01*
X458681Y380181D01*
X458681Y380888D01*
X458327Y381241D01*
X457621Y381241D01*
X456560Y380181D01*
X457621Y381241D01*
Y381948D01*
X457267Y382302D01*
X456560Y382302D01*
X455500Y381241D01*
X460095Y380888D02*
X461509Y382302D01*
X459741Y385483D02*
X461155Y386896D01*
X460448Y386189D01*
X462569Y384069D01*
X463982Y385483D02*
X461862Y387603D01*
X462922Y388664D01*
X463629D01*
X464336Y387957D01*
X464336Y387250D01*
X463276Y386189D01*
X463982Y386896D02*
X465396Y386896D01*
X463982Y389724D02*
X464689Y390431D01*
X464336Y390077D01*
X466457Y387957D01*
X466103Y387603D01*
X466810Y388310D01*
X467517Y392551D02*
X466810Y392551D01*
X466103Y391844D01*
Y391138D01*
X467517Y389724D01*
X468224D01*
X468931Y390431D01*
X468931Y391138D01*
X468224Y391844D01*
X467517Y391138D01*
X470344Y391138D02*
X471758Y392551D01*
Y396793D02*
X471051Y396793D01*
X470344Y396086D01*
Y395379D01*
X470698Y395025D01*
X471405Y395025D01*
X472112Y395732D01*
X472819Y395732D01*
X473172Y395379D01*
X473172Y394672D01*
X472465Y393965D01*
X471758D01*
X473525Y399267D02*
X472112Y397853D01*
X474232Y395732D01*
X475646Y397146D01*
X473172Y396793D02*
X473879Y397499D01*
X474232Y399974D02*
X476353Y397853D01*
X477767Y399267D01*
X406000Y316000D02*
Y318999D01*
X407500D01*
X407999Y318499D01*
Y317499D01*
X407500Y317000D01*
X406000D01*
X407000D02*
X407999Y316000D01*
X410998D02*
X408999D01*
X410998Y317999D01*
Y318499D01*
X410499Y318999D01*
X409499D01*
X408999Y318499D01*
X413997Y318999D02*
X412998Y318499D01*
X411998Y317499D01*
Y316500D01*
X412498Y316000D01*
X413498D01*
X413997Y316500D01*
Y317000D01*
X413498Y317499D01*
X411998D01*
X396000Y328500D02*
Y331499D01*
X397499D01*
X397999Y330999D01*
Y329999D01*
X397499Y329500D01*
X396000D01*
X397000D02*
X397999Y328500D01*
X400998D02*
X398999D01*
X400998Y330499D01*
Y330999D01*
X400498Y331499D01*
X399499D01*
X398999Y330999D01*
X403997Y331499D02*
X401998D01*
Y329999D01*
X402998Y330499D01*
X403498D01*
X403997Y329999D01*
Y329000D01*
X403498Y328500D01*
X402498D01*
X401998Y329000D01*
X483500Y446499D02*
Y443500D01*
X485000D01*
X485499Y444000D01*
Y445999D01*
X485000Y446499D01*
X483500D01*
X486499Y443500D02*
X487499D01*
X486999D01*
Y446499D01*
X486499Y445999D01*
X488998Y444000D02*
X489498Y443500D01*
X490498D01*
X490998Y444000D01*
Y445999D01*
X490498Y446499D01*
X489498D01*
X488998Y445999D01*
Y445499D01*
X489498Y445000D01*
X490998D01*
X484000Y356499D02*
Y353500D01*
X485499D01*
X485999Y354000D01*
Y355999D01*
X485499Y356499D01*
X484000D01*
X486999Y353500D02*
X487999D01*
X487499D01*
Y356499D01*
X486999Y355999D01*
X489498D02*
X489998Y356499D01*
X490998D01*
X491498Y355999D01*
Y355499D01*
X490998Y354999D01*
X491498Y354500D01*
Y354000D01*
X490998Y353500D01*
X489998D01*
X489498Y354000D01*
Y354500D01*
X489998Y354999D01*
X489498Y355499D01*
Y355999D01*
X489998Y354999D02*
X490998D01*
X484000Y436499D02*
Y433500D01*
X485499D01*
X485999Y434000D01*
Y435999D01*
X485499Y436499D01*
X484000D01*
X486999Y433500D02*
X487999D01*
X487499D01*
Y436499D01*
X486999Y435999D01*
X489498Y436499D02*
X491498D01*
Y435999D01*
X489498Y434000D01*
Y433500D01*
X484000Y346499D02*
Y343500D01*
X485499D01*
X485999Y344000D01*
Y345999D01*
X485499Y346499D01*
X484000D01*
X486999Y343500D02*
X487999D01*
X487499D01*
Y346499D01*
X486999Y345999D01*
X491498Y346499D02*
X490498Y345999D01*
X489498Y345000D01*
Y344000D01*
X489998Y343500D01*
X490998D01*
X491498Y344000D01*
Y344500D01*
X490998Y345000D01*
X489498D01*
X484000Y426499D02*
Y423500D01*
X485499D01*
X485999Y424000D01*
Y425999D01*
X485499Y426499D01*
X484000D01*
X486999Y423500D02*
X487999D01*
X487499D01*
Y426499D01*
X486999Y425999D01*
X491498Y426499D02*
X489498D01*
Y425000D01*
X490498Y425499D01*
X490998D01*
X491498Y425000D01*
Y424000D01*
X490998Y423500D01*
X489998D01*
X489498Y424000D01*
X484000Y336499D02*
Y333500D01*
X485499D01*
X485999Y334000D01*
Y335999D01*
X485499Y336499D01*
X484000D01*
X486999Y333500D02*
X487999D01*
X487499D01*
Y336499D01*
X486999Y335999D01*
X490998Y333500D02*
Y336499D01*
X489498Y334999D01*
X491498D01*
X484000Y416499D02*
Y413500D01*
X485499D01*
X485999Y414000D01*
Y415999D01*
X485499Y416499D01*
X484000D01*
X486999Y413500D02*
X487999D01*
X487499D01*
Y416499D01*
X486999Y415999D01*
X489498D02*
X489998Y416499D01*
X490998D01*
X491498Y415999D01*
Y415499D01*
X490998Y414999D01*
X490498D01*
X490998D01*
X491498Y414500D01*
Y414000D01*
X490998Y413500D01*
X489998D01*
X489498Y414000D01*
X484000Y326499D02*
Y323500D01*
X485499D01*
X485999Y324000D01*
Y325999D01*
X485499Y326499D01*
X484000D01*
X486999Y323500D02*
X487999D01*
X487499D01*
Y326499D01*
X486999Y325999D01*
X491498Y323500D02*
X489498D01*
X491498Y325499D01*
Y325999D01*
X490998Y326499D01*
X489998D01*
X489498Y325999D01*
X485000Y406499D02*
Y403500D01*
X486500D01*
X486999Y404000D01*
Y405999D01*
X486500Y406499D01*
X485000D01*
X487999Y403500D02*
X488999D01*
X488499D01*
Y406499D01*
X487999Y405999D01*
X490498Y403500D02*
X491498D01*
X490998D01*
Y406499D01*
X490498Y405999D01*
X484000Y316499D02*
Y313500D01*
X485499D01*
X485999Y314000D01*
Y315999D01*
X485499Y316499D01*
X484000D01*
X486999Y313500D02*
X487999D01*
X487499D01*
Y316499D01*
X486999Y315999D01*
X489498D02*
X489998Y316499D01*
X490998D01*
X491498Y315999D01*
Y314000D01*
X490998Y313500D01*
X489998D01*
X489498Y314000D01*
Y315999D01*
X485000Y396499D02*
Y393500D01*
X486500D01*
X486999Y394000D01*
Y395999D01*
X486500Y396499D01*
X485000D01*
X487999Y394000D02*
X488499Y393500D01*
X489499D01*
X489998Y394000D01*
Y395999D01*
X489499Y396499D01*
X488499D01*
X487999Y395999D01*
Y395499D01*
X488499Y395000D01*
X489998D01*
X485000Y306499D02*
Y303500D01*
X486500D01*
X486999Y304000D01*
Y305999D01*
X486500Y306499D01*
X485000D01*
X487999Y305999D02*
X488499Y306499D01*
X489499D01*
X489998Y305999D01*
Y305499D01*
X489499Y304999D01*
X489998Y304500D01*
Y304000D01*
X489499Y303500D01*
X488499D01*
X487999Y304000D01*
Y304500D01*
X488499Y304999D01*
X487999Y305499D01*
Y305999D01*
X488499Y304999D02*
X489499D01*
X485000Y386499D02*
Y383500D01*
X486500D01*
X486999Y384000D01*
Y385999D01*
X486500Y386499D01*
X485000D01*
X487999D02*
X489998D01*
Y385999D01*
X487999Y384000D01*
Y383500D01*
X485000Y295999D02*
Y293000D01*
X486500D01*
X486999Y293500D01*
Y295499D01*
X486500Y295999D01*
X485000D01*
X489998D02*
X488999Y295499D01*
X487999Y294499D01*
Y293500D01*
X488499Y293000D01*
X489499D01*
X489998Y293500D01*
Y294000D01*
X489499Y294499D01*
X487999D01*
X485000Y376499D02*
Y373500D01*
X486500D01*
X486999Y374000D01*
Y375999D01*
X486500Y376499D01*
X485000D01*
X489998D02*
X487999D01*
Y374999D01*
X488999Y375499D01*
X489499D01*
X489998Y374999D01*
Y374000D01*
X489499Y373500D01*
X488499D01*
X487999Y374000D01*
X485000Y286499D02*
Y283500D01*
X486500D01*
X486999Y284000D01*
Y285999D01*
X486500Y286499D01*
X485000D01*
X489499Y283500D02*
Y286499D01*
X487999Y284999D01*
X489998D01*
X485000Y366499D02*
Y363500D01*
X486500D01*
X486999Y364000D01*
Y365999D01*
X486500Y366499D01*
X485000D01*
X487999Y365999D02*
X488499Y366499D01*
X489499D01*
X489998Y365999D01*
Y365499D01*
X489499Y365000D01*
X488999D01*
X489499D01*
X489998Y364500D01*
Y364000D01*
X489499Y363500D01*
X488499D01*
X487999Y364000D01*
X485000Y276499D02*
Y273500D01*
X486500D01*
X486999Y274000D01*
Y275999D01*
X486500Y276499D01*
X485000D01*
X489998Y273500D02*
X487999D01*
X489998Y275499D01*
Y275999D01*
X489499Y276499D01*
X488499D01*
X487999Y275999D01*
X426500Y358500D02*
X423501D01*
Y359999D01*
X424001Y360499D01*
X425000D01*
X425500Y359999D01*
Y358500D01*
Y359500D02*
X426500Y360499D01*
X423501Y363498D02*
X424001Y362499D01*
X425000Y361499D01*
X426000D01*
X426500Y361999D01*
Y362999D01*
X426000Y363498D01*
X425500D01*
X425000Y362999D01*
Y361499D01*
X489501Y456499D02*
Y455500D01*
X490001Y455000D01*
X492000D01*
X492500Y455500D01*
Y456499D01*
X492000Y456999D01*
X490001D01*
X489501Y456499D01*
X492500Y457999D02*
X489501D01*
X492500Y459998D01*
X489501D01*
X493000Y460998D02*
Y462997D01*
X490001Y465996D02*
X489501Y465497D01*
Y464497D01*
X490001Y463997D01*
X490501D01*
X491001Y464497D01*
Y465497D01*
X491500Y465996D01*
X492000D01*
X492500Y465497D01*
Y464497D01*
X492000Y463997D01*
X489501Y466996D02*
X492500D01*
X491500Y467996D01*
X492500Y468996D01*
X489501D01*
X493000Y469995D02*
Y471994D01*
X489501Y472994D02*
Y473994D01*
Y473494D01*
X492500D01*
Y472994D01*
Y473994D01*
X490001Y477493D02*
X489501Y476993D01*
Y475993D01*
X490001Y475493D01*
X490501D01*
X491001Y475993D01*
Y476993D01*
X491500Y477493D01*
X492000D01*
X492500Y476993D01*
Y475993D01*
X492000Y475493D01*
X489501Y479992D02*
Y478992D01*
X490001Y478492D01*
X492000D01*
X492500Y478992D01*
Y479992D01*
X492000Y480492D01*
X490001D01*
X489501Y479992D01*
X385000Y497500D02*
X387999D01*
Y496000D01*
X387499Y495501D01*
X386500D01*
X386000Y496000D01*
Y497500D01*
X387999Y494501D02*
Y492502D01*
Y493501D01*
X385000D01*
X384500Y491502D02*
Y489503D01*
X385000Y488503D02*
Y487503D01*
Y488003D01*
X387999D01*
X387499Y488503D01*
X385000Y484004D02*
Y486004D01*
X386999Y484004D01*
X387499D01*
X387999Y484504D01*
Y485504D01*
X387499Y486004D01*
X387999Y483005D02*
X386000D01*
X385000Y482005D01*
X386000Y481005D01*
X387999D01*
X385000Y417500D02*
X387999D01*
Y416001D01*
X387499Y415501D01*
X386500D01*
X386000Y416001D01*
Y417500D01*
X387999Y414501D02*
Y412502D01*
Y413501D01*
X385000D01*
X384500Y411502D02*
Y409503D01*
X387999Y406504D02*
Y408503D01*
X386500D01*
X386999Y407503D01*
Y407003D01*
X386500Y406504D01*
X385500D01*
X385000Y407003D01*
Y408003D01*
X385500Y408503D01*
X387999Y405504D02*
X386000D01*
X385000Y404504D01*
X386000Y403505D01*
X387999D01*
X387499Y402505D02*
X387999Y402005D01*
Y401005D01*
X387499Y400505D01*
X386999D01*
X386500Y401005D01*
Y401505D01*
Y401005D01*
X386000Y400505D01*
X385500D01*
X385000Y401005D01*
Y402005D01*
X385500Y402505D01*
X385000Y335000D02*
X387999D01*
Y333501D01*
X387499Y333001D01*
X386500D01*
X386000Y333501D01*
Y335000D01*
X387999Y332001D02*
Y330002D01*
Y331001D01*
X385000D01*
X384500Y329002D02*
Y327003D01*
X387499Y326003D02*
X387999Y325503D01*
Y324503D01*
X387499Y324004D01*
X386999D01*
X386500Y324503D01*
Y325003D01*
Y324503D01*
X386000Y324004D01*
X385500D01*
X385000Y324503D01*
Y325503D01*
X385500Y326003D01*
X387999Y323004D02*
X386000D01*
X385000Y322004D01*
X386000Y321005D01*
X387999D01*
X387499Y320005D02*
X387999Y319505D01*
Y318505D01*
X387499Y318005D01*
X386999D01*
X386500Y318505D01*
Y319005D01*
Y318505D01*
X386000Y318005D01*
X385500D01*
X385000Y318505D01*
Y319505D01*
X385500Y320005D01*
X428500Y271000D02*
Y273999D01*
X429999D01*
X430499Y273499D01*
Y272499D01*
X429999Y272000D01*
X428500D01*
X429500D02*
X430499Y271000D01*
X431499Y271500D02*
X431999Y271000D01*
X432999D01*
X433498Y271500D01*
Y273499D01*
X432999Y273999D01*
X431999D01*
X431499Y273499D01*
Y272999D01*
X431999Y272499D01*
X433498D01*
X464001Y220499D02*
X463501Y220000D01*
Y219000D01*
X464001Y218500D01*
X466000D01*
X466500Y219000D01*
Y220000D01*
X466000Y220499D01*
X466500Y223498D02*
Y221499D01*
X464501Y223498D01*
X464001D01*
X463501Y222998D01*
Y221999D01*
X464001Y221499D01*
X463501Y224498D02*
Y226497D01*
X464001D01*
X466000Y224498D01*
X466500D01*
X471501Y155499D02*
X471001Y154999D01*
Y154000D01*
X471501Y153500D01*
X473500D01*
X474000Y154000D01*
Y154999D01*
X473500Y155499D01*
X474000Y158498D02*
Y156499D01*
X472001Y158498D01*
X471501D01*
X471001Y157999D01*
Y156999D01*
X471501Y156499D01*
X471001Y161497D02*
X471501Y160498D01*
X472501Y159498D01*
X473500D01*
X474000Y159998D01*
Y160998D01*
X473500Y161497D01*
X473000D01*
X472501Y160998D01*
Y159498D01*
X436501Y155499D02*
X436001Y154999D01*
Y154000D01*
X436501Y153500D01*
X438500D01*
X439000Y154000D01*
Y154999D01*
X438500Y155499D01*
X439000Y158498D02*
Y156499D01*
X437001Y158498D01*
X436501D01*
X436001Y157999D01*
Y156999D01*
X436501Y156499D01*
X439000Y160998D02*
X436001D01*
X437500Y159498D01*
Y161497D01*
X429001Y220499D02*
X428501Y220000D01*
Y219000D01*
X429001Y218500D01*
X431000D01*
X431500Y219000D01*
Y220000D01*
X431000Y220499D01*
X431500Y223498D02*
Y221499D01*
X429501Y223498D01*
X429001D01*
X428501Y222998D01*
Y221999D01*
X429001Y221499D01*
X428501Y226497D02*
Y224498D01*
X430000D01*
X429501Y225498D01*
Y225998D01*
X430000Y226497D01*
X431000D01*
X431500Y225998D01*
Y224998D01*
X431000Y224498D01*
X506501Y155499D02*
X506001Y154999D01*
Y154000D01*
X506501Y153500D01*
X508500D01*
X509000Y154000D01*
Y154999D01*
X508500Y155499D01*
X509000Y158498D02*
Y156499D01*
X507001Y158498D01*
X506501D01*
X506001Y157999D01*
Y156999D01*
X506501Y156499D01*
Y159498D02*
X506001Y159998D01*
Y160998D01*
X506501Y161497D01*
X507001D01*
X507501Y160998D01*
X508000Y161497D01*
X508500D01*
X509000Y160998D01*
Y159998D01*
X508500Y159498D01*
X508000D01*
X507501Y159998D01*
X507001Y159498D01*
X506501D01*
X507501Y159998D02*
Y160998D01*
X499001Y220499D02*
X498501Y220000D01*
Y219000D01*
X499001Y218500D01*
X501000D01*
X501500Y219000D01*
Y220000D01*
X501000Y220499D01*
X501500Y223498D02*
Y221499D01*
X499501Y223498D01*
X499001D01*
X498501Y222998D01*
Y221999D01*
X499001Y221499D01*
X501000Y224498D02*
X501500Y224998D01*
Y225998D01*
X501000Y226497D01*
X499001D01*
X498501Y225998D01*
Y224998D01*
X499001Y224498D01*
X499501D01*
X500000Y224998D01*
Y226497D01*
X514001Y174000D02*
X516500D01*
X517000Y174500D01*
Y175499D01*
X516500Y175999D01*
X514001D01*
X514501Y176999D02*
X514001Y177499D01*
Y178499D01*
X514501Y178998D01*
X515001D01*
X515500Y178499D01*
X516000Y178998D01*
X516500D01*
X517000Y178499D01*
Y177499D01*
X516500Y176999D01*
X516000D01*
X515500Y177499D01*
X515001Y176999D01*
X514501D01*
X515500Y177499D02*
Y178499D01*
X479001Y174000D02*
X481500D01*
X482000Y174500D01*
Y175499D01*
X481500Y175999D01*
X479001D01*
Y176999D02*
Y178998D01*
X479501D01*
X481500Y176999D01*
X482000D01*
X497501Y177500D02*
X500500D01*
X499001D01*
Y179499D01*
X497501D01*
X500500D01*
Y180499D02*
X498501D01*
X497501Y181499D01*
X498501Y182498D01*
X500500D01*
X499001D01*
Y180499D01*
X497501Y183498D02*
X500500D01*
Y185497D01*
X497501Y186497D02*
X500500D01*
Y188496D01*
X498001Y191496D02*
X497501Y190996D01*
Y189996D01*
X498001Y189496D01*
X500000D01*
X500500Y189996D01*
Y190996D01*
X500000Y191496D01*
X501000Y192495D02*
Y194494D01*
X497501Y195494D02*
Y196494D01*
Y195994D01*
X500500D01*
Y195494D01*
Y196494D01*
X498001Y199993D02*
X497501Y199493D01*
Y198493D01*
X498001Y197993D01*
X498501D01*
X499001Y198493D01*
Y199493D01*
X499500Y199993D01*
X500000D01*
X500500Y199493D01*
Y198493D01*
X500000Y197993D01*
X497501Y202492D02*
Y201492D01*
X498001Y200992D01*
X500000D01*
X500500Y201492D01*
Y202492D01*
X500000Y202992D01*
X498001D01*
X497501Y202492D01*
X462501Y177500D02*
X465500D01*
X464001D01*
Y179499D01*
X462501D01*
X465500D01*
Y180499D02*
X463501D01*
X462501Y181499D01*
X463501Y182498D01*
X465500D01*
X464001D01*
Y180499D01*
X462501Y183498D02*
X465500D01*
Y185497D01*
X462501Y186497D02*
X465500D01*
Y188496D01*
X462501Y189496D02*
X465500D01*
Y190996D01*
X465000Y191496D01*
X464500D01*
X464001Y190996D01*
Y189496D01*
Y190996D01*
X463501Y191496D01*
X463001D01*
X462501Y190996D01*
Y189496D01*
X466000Y192495D02*
Y194494D01*
X462501Y195494D02*
Y196494D01*
Y195994D01*
X465500D01*
Y195494D01*
Y196494D01*
X463001Y199993D02*
X462501Y199493D01*
Y198493D01*
X463001Y197993D01*
X463501D01*
X464001Y198493D01*
Y199493D01*
X464500Y199993D01*
X465000D01*
X465500Y199493D01*
Y198493D01*
X465000Y197993D01*
X462501Y202492D02*
Y201492D01*
X463001Y200992D01*
X465000D01*
X465500Y201492D01*
Y202492D01*
X465000Y202992D01*
X463001D01*
X462501Y202492D01*
X427501Y177000D02*
X430500D01*
X429001D01*
Y178999D01*
X427501D01*
X430500D01*
Y179999D02*
X428501D01*
X427501Y180999D01*
X428501Y181998D01*
X430500D01*
X429001D01*
Y179999D01*
X427501Y182998D02*
X430500D01*
Y184997D01*
X427501Y185997D02*
X430500D01*
Y187996D01*
Y188996D02*
X428501D01*
X427501Y189996D01*
X428501Y190996D01*
X430500D01*
X429001D01*
Y188996D01*
X431000Y191995D02*
Y193994D01*
X427501Y194994D02*
Y195994D01*
Y195494D01*
X430500D01*
Y194994D01*
Y195994D01*
X428001Y199493D02*
X427501Y198993D01*
Y197993D01*
X428001Y197493D01*
X428501D01*
X429001Y197993D01*
Y198993D01*
X429500Y199493D01*
X430000D01*
X430500Y198993D01*
Y197993D01*
X430000Y197493D01*
X427501Y201992D02*
Y200992D01*
X428001Y200492D01*
X430000D01*
X430500Y200992D01*
Y201992D01*
X430000Y202492D01*
X428001D01*
X427501Y201992D01*
X444001Y174000D02*
X446500D01*
X447000Y174500D01*
Y175499D01*
X446500Y175999D01*
X444001D01*
Y178998D02*
X444501Y177999D01*
X445501Y176999D01*
X446500D01*
X447000Y177499D01*
Y178499D01*
X446500Y178998D01*
X446000D01*
X445501Y178499D01*
Y176999D01*
X456500Y465999D02*
Y463500D01*
X457000Y463000D01*
X458000D01*
X458499Y463500D01*
Y465999D01*
X461498D02*
X459499D01*
Y464500D01*
X460499Y464999D01*
X460998D01*
X461498Y464500D01*
Y463500D01*
X460998Y463000D01*
X459999D01*
X459499Y463500D01*
X560000Y526500D02*
Y529499D01*
X561499D01*
X561999Y528999D01*
Y527999D01*
X561499Y527500D01*
X560000D01*
X561000D02*
X561999Y526500D01*
X562999Y529499D02*
Y527000D01*
X563499Y526500D01*
X564499D01*
X564998Y527000D01*
Y529499D01*
X565998Y526500D02*
X566998D01*
X566498D01*
Y529499D01*
X565998Y528999D01*
X568497Y529499D02*
Y526500D01*
X570497D01*
X571496Y526000D02*
X573496D01*
X574495Y526500D02*
Y529499D01*
X575995D01*
X576495Y528999D01*
Y527999D01*
X575995Y527500D01*
X574495D01*
X577494Y528999D02*
X577994Y529499D01*
X578994D01*
X579494Y528999D01*
Y528499D01*
X578994Y527999D01*
X578494D01*
X578994D01*
X579494Y527500D01*
Y527000D01*
X578994Y526500D01*
X577994D01*
X577494Y527000D01*
X560500Y386500D02*
Y389499D01*
X562000D01*
X562499Y388999D01*
Y388000D01*
X562000Y387500D01*
X560500D01*
X561500D02*
X562499Y386500D01*
X563499Y389499D02*
Y387000D01*
X563999Y386500D01*
X564998D01*
X565498Y387000D01*
Y389499D01*
X566498Y386500D02*
X567498D01*
X566998D01*
Y389499D01*
X566498Y388999D01*
X568997Y389499D02*
Y386500D01*
X570997D01*
X571996Y386000D02*
X573996D01*
X574995Y386500D02*
Y389499D01*
X576495D01*
X576995Y388999D01*
Y388000D01*
X576495Y387500D01*
X574995D01*
X579994Y386500D02*
X577994D01*
X579994Y388499D01*
Y388999D01*
X579494Y389499D01*
X578494D01*
X577994Y388999D01*
X560500Y246500D02*
Y249499D01*
X562000D01*
X562499Y248999D01*
Y248000D01*
X562000Y247500D01*
X560500D01*
X561500D02*
X562499Y246500D01*
X563499Y249499D02*
Y247000D01*
X563999Y246500D01*
X564998D01*
X565498Y247000D01*
Y249499D01*
X566498Y246500D02*
X567498D01*
X566998D01*
Y249499D01*
X566498Y248999D01*
X568997Y249499D02*
Y246500D01*
X570997D01*
X571996Y246000D02*
X573996D01*
X574995Y246500D02*
Y249499D01*
X576495D01*
X576995Y248999D01*
Y248000D01*
X576495Y247500D01*
X574995D01*
X577994Y246500D02*
X578994D01*
X578494D01*
Y249499D01*
X577994Y248999D01*
X560000Y546500D02*
Y549499D01*
X561500D01*
X561999Y548999D01*
Y547999D01*
X561500Y547500D01*
X560000D01*
X561000D02*
X561999Y546500D01*
X562999Y549499D02*
Y547000D01*
X563499Y546500D01*
X564499D01*
X564998Y547000D01*
Y549499D01*
X565998Y546500D02*
X566998D01*
X566498D01*
Y549499D01*
X565998Y548999D01*
X568497Y549499D02*
Y546500D01*
Y547999D01*
X570497D01*
Y549499D01*
Y546500D01*
X571496Y546000D02*
X573496D01*
X574495Y546500D02*
Y549499D01*
X575995D01*
X576495Y548999D01*
Y547999D01*
X575995Y547500D01*
X574495D01*
X577494Y548999D02*
X577994Y549499D01*
X578994D01*
X579494Y548999D01*
Y548499D01*
X578994Y547999D01*
X578494D01*
X578994D01*
X579494Y547500D01*
Y547000D01*
X578994Y546500D01*
X577994D01*
X577494Y547000D01*
X560500Y406000D02*
Y408999D01*
X562000D01*
X562499Y408499D01*
Y407500D01*
X562000Y407000D01*
X560500D01*
X561500D02*
X562499Y406000D01*
X563499Y408999D02*
Y406500D01*
X563999Y406000D01*
X564998D01*
X565498Y406500D01*
Y408999D01*
X566498Y406000D02*
X567498D01*
X566998D01*
Y408999D01*
X566498Y408499D01*
X568997Y408999D02*
Y406000D01*
Y407500D01*
X570997D01*
Y408999D01*
Y406000D01*
X571996Y405500D02*
X573996D01*
X574995Y406000D02*
Y408999D01*
X576495D01*
X576995Y408499D01*
Y407500D01*
X576495Y407000D01*
X574995D01*
X579994Y406000D02*
X577994D01*
X579994Y407999D01*
Y408499D01*
X579494Y408999D01*
X578494D01*
X577994Y408499D01*
X560500Y266000D02*
Y268999D01*
X562000D01*
X562499Y268499D01*
Y267499D01*
X562000Y267000D01*
X560500D01*
X561500D02*
X562499Y266000D01*
X563499Y268999D02*
Y266500D01*
X563999Y266000D01*
X564998D01*
X565498Y266500D01*
Y268999D01*
X566498Y266000D02*
X567498D01*
X566998D01*
Y268999D01*
X566498Y268499D01*
X568997Y268999D02*
Y266000D01*
Y267499D01*
X570997D01*
Y268999D01*
Y266000D01*
X571996Y265500D02*
X573996D01*
X574995Y266000D02*
Y268999D01*
X576495D01*
X576995Y268499D01*
Y267499D01*
X576495Y267000D01*
X574995D01*
X577994Y266000D02*
X578994D01*
X578494D01*
Y268999D01*
X577994Y268499D01*
X501500Y153500D02*
X498501D01*
Y154999D01*
X499001Y155499D01*
X500000D01*
X500500Y154999D01*
Y153500D01*
Y154500D02*
X501500Y155499D01*
Y158498D02*
Y156499D01*
X499501Y158498D01*
X499001D01*
X498501Y157999D01*
Y156999D01*
X499001Y156499D01*
X501500Y160998D02*
X498501D01*
X500000Y159498D01*
Y161497D01*
X466500Y153500D02*
X463501D01*
Y154999D01*
X464001Y155499D01*
X465000D01*
X465500Y154999D01*
Y153500D01*
Y154500D02*
X466500Y155499D01*
Y158498D02*
Y156499D01*
X464501Y158498D01*
X464001D01*
X463501Y157999D01*
Y156999D01*
X464001Y156499D01*
Y159498D02*
X463501Y159998D01*
Y160998D01*
X464001Y161497D01*
X464501D01*
X465000Y160998D01*
Y160498D01*
Y160998D01*
X465500Y161497D01*
X466000D01*
X466500Y160998D01*
Y159998D01*
X466000Y159498D01*
X431500Y153500D02*
X428501D01*
Y154999D01*
X429001Y155499D01*
X430000D01*
X430500Y154999D01*
Y153500D01*
Y154500D02*
X431500Y155499D01*
Y158498D02*
Y156499D01*
X429501Y158498D01*
X429001D01*
X428501Y157999D01*
Y156999D01*
X429001Y156499D01*
X431500Y161497D02*
Y159498D01*
X429501Y161497D01*
X429001D01*
X428501Y160998D01*
Y159998D01*
X429001Y159498D01*
X509000Y218500D02*
X506001D01*
Y220000D01*
X506501Y220499D01*
X507501D01*
X508000Y220000D01*
Y218500D01*
Y219500D02*
X509000Y220499D01*
Y223498D02*
Y221499D01*
X507001Y223498D01*
X506501D01*
X506001Y222998D01*
Y221999D01*
X506501Y221499D01*
X509000Y224498D02*
Y225498D01*
Y224998D01*
X506001D01*
X506501Y224498D01*
X474000Y218500D02*
X471001D01*
Y220000D01*
X471501Y220499D01*
X472501D01*
X473000Y220000D01*
Y218500D01*
Y219500D02*
X474000Y220499D01*
Y223498D02*
Y221499D01*
X472001Y223498D01*
X471501D01*
X471001Y222998D01*
Y221999D01*
X471501Y221499D01*
Y224498D02*
X471001Y224998D01*
Y225998D01*
X471501Y226497D01*
X473500D01*
X474000Y225998D01*
Y224998D01*
X473500Y224498D01*
X471501D01*
X439000Y218500D02*
X436001D01*
Y220000D01*
X436501Y220499D01*
X437500D01*
X438000Y220000D01*
Y218500D01*
Y219500D02*
X439000Y220499D01*
Y221499D02*
Y222499D01*
Y221999D01*
X436001D01*
X436501Y221499D01*
X438500Y223998D02*
X439000Y224498D01*
Y225498D01*
X438500Y225998D01*
X436501D01*
X436001Y225498D01*
Y224498D01*
X436501Y223998D01*
X437001D01*
X437500Y224498D01*
Y225998D01*
X516500Y153500D02*
X513501D01*
Y154999D01*
X514001Y155499D01*
X515000D01*
X515500Y154999D01*
Y153500D01*
Y154500D02*
X516500Y155499D01*
Y156499D02*
Y157499D01*
Y156999D01*
X513501D01*
X514001Y156499D01*
Y158998D02*
X513501Y159498D01*
Y160498D01*
X514001Y160998D01*
X514501D01*
X515000Y160498D01*
X515500Y160998D01*
X516000D01*
X516500Y160498D01*
Y159498D01*
X516000Y158998D01*
X515500D01*
X515000Y159498D01*
X514501Y158998D01*
X514001D01*
X515000Y159498D02*
Y160498D01*
X481500Y153500D02*
X478501D01*
Y154999D01*
X479001Y155499D01*
X480000D01*
X480500Y154999D01*
Y153500D01*
Y154500D02*
X481500Y155499D01*
Y156499D02*
Y157499D01*
Y156999D01*
X478501D01*
X479001Y156499D01*
X478501Y158998D02*
Y160998D01*
X479001D01*
X481000Y158998D01*
X481500D01*
X446500Y154000D02*
X443501D01*
Y155499D01*
X444001Y155999D01*
X445001D01*
X445500Y155499D01*
Y154000D01*
Y155000D02*
X446500Y155999D01*
Y156999D02*
Y157999D01*
Y157499D01*
X443501D01*
X444001Y156999D01*
X443501Y161498D02*
X444001Y160498D01*
X445001Y159498D01*
X446000D01*
X446500Y159998D01*
Y160998D01*
X446000Y161498D01*
X445500D01*
X445001Y160998D01*
Y159498D01*
X516500Y218500D02*
X513501D01*
Y220000D01*
X514001Y220499D01*
X515000D01*
X515500Y220000D01*
Y218500D01*
Y219500D02*
X516500Y220499D01*
Y221499D02*
Y222499D01*
Y221999D01*
X513501D01*
X514001Y221499D01*
X513501Y225998D02*
Y223998D01*
X515000D01*
X514501Y224998D01*
Y225498D01*
X515000Y225998D01*
X516000D01*
X516500Y225498D01*
Y224498D01*
X516000Y223998D01*
X481500Y218500D02*
X478501D01*
Y220000D01*
X479001Y220499D01*
X480000D01*
X480500Y220000D01*
Y218500D01*
Y219500D02*
X481500Y220499D01*
Y221499D02*
Y222499D01*
Y221999D01*
X478501D01*
X479001Y221499D01*
X481500Y225498D02*
X478501D01*
X480000Y223998D01*
Y225998D01*
X446500Y218500D02*
X443501D01*
Y220000D01*
X444001Y220499D01*
X445001D01*
X445500Y220000D01*
Y218500D01*
Y219500D02*
X446500Y220499D01*
X444001Y221499D02*
X443501Y221999D01*
Y222998D01*
X444001Y223498D01*
X444501D01*
X445001Y222998D01*
X445500Y223498D01*
X446000D01*
X446500Y222998D01*
Y221999D01*
X446000Y221499D01*
X445500D01*
X445001Y221999D01*
X444501Y221499D01*
X444001D01*
X445001Y221999D02*
Y222998D01*
X461000Y457500D02*
Y460499D01*
X462500D01*
X462999Y459999D01*
Y458999D01*
X462500Y458500D01*
X461000D01*
X462000D02*
X462999Y457500D01*
X465998Y460499D02*
X463999D01*
Y458999D01*
X464999Y459499D01*
X465498D01*
X465998Y458999D01*
Y458000D01*
X465498Y457500D01*
X464499D01*
X463999Y458000D01*
X461000Y442500D02*
Y445499D01*
X462500D01*
X462999Y444999D01*
Y443999D01*
X462500Y443500D01*
X461000D01*
X462000D02*
X462999Y442500D01*
X463999D02*
X464999D01*
X464499D01*
Y445499D01*
X463999Y444999D01*
X530500Y171999D02*
X528501D01*
X528001Y171500D01*
Y170500D01*
X528501Y170000D01*
X530500D01*
X531000Y170500D01*
Y171500D01*
X530000Y171000D02*
X531000Y171999D01*
Y171500D02*
X530500Y171999D01*
X528501Y172999D02*
X528001Y173499D01*
Y174499D01*
X528501Y174998D01*
X529001D01*
X529500Y174499D01*
Y173999D01*
Y174499D01*
X530000Y174998D01*
X530500D01*
X531000Y174499D01*
Y173499D01*
X530500Y172999D01*
X495500Y171999D02*
X493501D01*
X493001Y171500D01*
Y170500D01*
X493501Y170000D01*
X495500D01*
X496000Y170500D01*
Y171500D01*
X495000Y171000D02*
X496000Y171999D01*
Y171500D02*
X495500Y171999D01*
X496000Y174998D02*
Y172999D01*
X494001Y174998D01*
X493501D01*
X493001Y174499D01*
Y173499D01*
X493501Y172999D01*
X460500Y171999D02*
X458501D01*
X458001Y171500D01*
Y170500D01*
X458501Y170000D01*
X460500D01*
X461000Y170500D01*
Y171500D01*
X460000Y171000D02*
X461000Y171999D01*
Y171500D02*
X460500Y171999D01*
X461000Y172999D02*
Y173999D01*
Y173499D01*
X458001D01*
X458501Y172999D01*
X437500Y494999D02*
Y492000D01*
X439499D01*
X440499Y494499D02*
X440999Y494999D01*
X441998D01*
X442498Y494499D01*
Y493999D01*
X441998Y493500D01*
X441499D01*
X441998D01*
X442498Y493000D01*
Y492500D01*
X441998Y492000D01*
X440999D01*
X440499Y492500D01*
X521001Y218500D02*
X524000D01*
X522501D01*
Y220499D01*
X521001D01*
X524000D01*
Y221499D02*
X522001D01*
X521001Y222499D01*
X522001Y223498D01*
X524000D01*
X522501D01*
Y221499D01*
X521001Y224498D02*
X524000D01*
Y226497D01*
X521001Y227497D02*
X524000D01*
Y229496D01*
X521501Y232495D02*
X521001Y231996D01*
Y230996D01*
X521501Y230496D01*
X523500D01*
X524000Y230996D01*
Y231996D01*
X523500Y232495D01*
X486001Y218500D02*
X489000D01*
X487500D01*
Y220499D01*
X486001D01*
X489000D01*
Y221499D02*
X487001D01*
X486001Y222499D01*
X487001Y223498D01*
X489000D01*
X487500D01*
Y221499D01*
X486001Y224498D02*
X489000D01*
Y226497D01*
X486001Y227497D02*
X489000D01*
Y229496D01*
X486001Y230496D02*
X489000D01*
Y231996D01*
X488500Y232495D01*
X488000D01*
X487500Y231996D01*
Y230496D01*
Y231996D01*
X487001Y232495D01*
X486501D01*
X486001Y231996D01*
Y230496D01*
X451001Y218500D02*
X454000D01*
X452500D01*
Y220499D01*
X451001D01*
X454000D01*
Y221499D02*
X452001D01*
X451001Y222499D01*
X452001Y223498D01*
X454000D01*
X452500D01*
Y221499D01*
X451001Y224498D02*
X454000D01*
Y226497D01*
X451001Y227497D02*
X454000D01*
Y229496D01*
Y230496D02*
X452001D01*
X451001Y231496D01*
X452001Y232495D01*
X454000D01*
X452500D01*
Y230496D01*
X407001Y150000D02*
X410000D01*
Y151499D01*
X409500Y151999D01*
X407501D01*
X407001Y151499D01*
Y150000D01*
X410000Y154998D02*
Y152999D01*
X408001Y154998D01*
X407501D01*
X407001Y154499D01*
Y153499D01*
X407501Y152999D01*
X410000Y155998D02*
Y156998D01*
Y156498D01*
X407001D01*
X407501Y155998D01*
X392001Y150000D02*
X395000D01*
Y151499D01*
X394500Y151999D01*
X392501D01*
X392001Y151499D01*
Y150000D01*
X395000Y154998D02*
Y152999D01*
X393001Y154998D01*
X392501D01*
X392001Y154499D01*
Y153499D01*
X392501Y152999D01*
Y155998D02*
X392001Y156498D01*
Y157498D01*
X392501Y157997D01*
X394500D01*
X395000Y157498D01*
Y156498D01*
X394500Y155998D01*
X392501D01*
X452699Y486699D02*
X452200Y487199D01*
X451200D01*
X450700Y486699D01*
Y484700D01*
X451200Y484200D01*
X452200D01*
X452699Y484700D01*
X455698Y484200D02*
X453699D01*
X455698Y486199D01*
Y486699D01*
X455198Y487199D01*
X454199D01*
X453699Y486699D01*
X456698D02*
X457198Y487199D01*
X458198D01*
X458697Y486699D01*
Y486199D01*
X458198Y485700D01*
X457698D01*
X458198D01*
X458697Y485200D01*
Y484700D01*
X458198Y484200D01*
X457198D01*
X456698Y484700D01*
X416999Y434999D02*
X416500Y435499D01*
X415500D01*
X415000Y434999D01*
Y433000D01*
X415500Y432500D01*
X416500D01*
X416999Y433000D01*
X419998Y432500D02*
X417999D01*
X419998Y434499D01*
Y434999D01*
X419498Y435499D01*
X418499D01*
X417999Y434999D01*
X422997Y432500D02*
X420998D01*
X422997Y434499D01*
Y434999D01*
X422498Y435499D01*
X421498D01*
X420998Y434999D01*
X462999Y452499D02*
X462500Y452999D01*
X461500D01*
X461000Y452499D01*
Y450500D01*
X461500Y450000D01*
X462500D01*
X462999Y450500D01*
X465998Y450000D02*
X463999D01*
X465998Y451999D01*
Y452499D01*
X465498Y452999D01*
X464499D01*
X463999Y452499D01*
X466998Y450000D02*
X467998D01*
X467498D01*
Y452999D01*
X466998Y452499D01*
X442603Y432743D02*
X442103Y432244D01*
Y431244D01*
X442603Y430744D01*
X444602D01*
X445102Y431244D01*
Y432244D01*
X444602Y432743D01*
X445102Y435743D02*
Y433743D01*
X443103Y435743D01*
X442603D01*
X442103Y435243D01*
Y434243D01*
X442603Y433743D01*
Y436742D02*
X442103Y437242D01*
Y438242D01*
X442603Y438741D01*
X444602D01*
X445102Y438242D01*
Y437242D01*
X444602Y436742D01*
X442603D01*
X435001Y432999D02*
X434501Y432500D01*
Y431500D01*
X435001Y431000D01*
X437000D01*
X437500Y431500D01*
Y432500D01*
X437000Y432999D01*
X437500Y433999D02*
Y434999D01*
Y434499D01*
X434501D01*
X435001Y433999D01*
X437000Y436498D02*
X437500Y436998D01*
Y437998D01*
X437000Y438498D01*
X435001D01*
X434501Y437998D01*
Y436998D01*
X435001Y436498D01*
X435501D01*
X436000Y436998D01*
Y438498D01*
X427499Y460499D02*
X427000Y460999D01*
X426000D01*
X425500Y460499D01*
Y458500D01*
X426000Y458000D01*
X427000D01*
X427499Y458500D01*
X428499Y458000D02*
X429499D01*
X428999D01*
Y460999D01*
X428499Y460499D01*
X430998D02*
X431498Y460999D01*
X432498D01*
X432998Y460499D01*
Y459999D01*
X432498Y459500D01*
X432998Y459000D01*
Y458500D01*
X432498Y458000D01*
X431498D01*
X430998Y458500D01*
Y459000D01*
X431498Y459500D01*
X430998Y459999D01*
Y460499D01*
X431498Y459500D02*
X432498D01*
X431001Y413500D02*
X430501Y414000D01*
Y414999D01*
X431001Y415499D01*
X431501D01*
X432000Y414999D01*
Y414500D01*
Y414999D01*
X432500Y415499D01*
X433000D01*
X433500Y414999D01*
Y414000D01*
X433000Y413500D01*
X430501Y416499D02*
X432500D01*
X433500Y417499D01*
X432500Y418498D01*
X430501D01*
X431001Y419498D02*
X430501Y419998D01*
Y420998D01*
X431001Y421497D01*
X431501D01*
X432000Y420998D01*
Y420498D01*
Y420998D01*
X432500Y421497D01*
X433000D01*
X433500Y420998D01*
Y419998D01*
X433000Y419498D01*
X436500Y513499D02*
Y510500D01*
X438499D01*
X441498D02*
X439499D01*
X441498Y512499D01*
Y512999D01*
X440999Y513499D01*
X439999D01*
X439499Y512999D01*
X414000Y545500D02*
Y548499D01*
X415499D01*
X415999Y547999D01*
Y547000D01*
X415499Y546500D01*
X414000D01*
X415000D02*
X415999Y545500D01*
X418499D02*
Y548499D01*
X416999Y547000D01*
X418998D01*
X413500Y560500D02*
Y563499D01*
X414999D01*
X415499Y562999D01*
Y562000D01*
X414999Y561500D01*
X413500D01*
X414500D02*
X415499Y560500D01*
X418498D02*
X416499D01*
X418498Y562499D01*
Y562999D01*
X417999Y563499D01*
X416999D01*
X416499Y562999D01*
X423499Y522499D02*
X422999Y522999D01*
X422000D01*
X421500Y522499D01*
Y520500D01*
X422000Y520000D01*
X422999D01*
X423499Y520500D01*
X424499Y520000D02*
X425499D01*
X424999D01*
Y522999D01*
X424499Y522499D01*
X426998Y522999D02*
X428998D01*
Y522499D01*
X426998Y520500D01*
Y520000D01*
X412999Y554999D02*
X412500Y555499D01*
X411500D01*
X411000Y554999D01*
Y553000D01*
X411500Y552500D01*
X412500D01*
X412999Y553000D01*
X413999Y552500D02*
X414999D01*
X414499D01*
Y555499D01*
X413999Y554999D01*
X418498Y555499D02*
X417498Y554999D01*
X416498Y554000D01*
Y553000D01*
X416998Y552500D01*
X417998D01*
X418498Y553000D01*
Y553500D01*
X417998Y554000D01*
X416498D01*
X436501Y569421D02*
X436001Y568921D01*
Y567921D01*
X436501Y567421D01*
X438500D01*
X439000Y567921D01*
Y568921D01*
X438500Y569421D01*
X439000Y570420D02*
Y571420D01*
Y570920D01*
X436001D01*
X436501Y570420D01*
Y572920D02*
X436001Y573419D01*
Y574419D01*
X436501Y574919D01*
X438500D01*
X439000Y574419D01*
Y573419D01*
X438500Y572920D01*
X436501D01*
X397001Y565421D02*
X400000D01*
Y566921D01*
X399500Y567421D01*
X397501D01*
X397001Y566921D01*
Y565421D01*
X400000Y568420D02*
Y569420D01*
Y568920D01*
X397001D01*
X397501Y568420D01*
X639499Y132999D02*
X639000Y133499D01*
X638000D01*
X637500Y132999D01*
Y131000D01*
X638000Y130500D01*
X639000D01*
X639499Y131000D01*
X642498Y133499D02*
X641499Y132999D01*
X640499Y132000D01*
Y131000D01*
X640999Y130500D01*
X641998D01*
X642498Y131000D01*
Y131500D01*
X641998Y132000D01*
X640499D01*
X574499Y132499D02*
X574000Y132999D01*
X573000D01*
X572500Y132499D01*
Y130500D01*
X573000Y130000D01*
X574000D01*
X574499Y130500D01*
X577498Y132999D02*
X575499D01*
Y131500D01*
X576499Y131999D01*
X576999D01*
X577498Y131500D01*
Y130500D01*
X576999Y130000D01*
X575999D01*
X575499Y130500D01*
X419000Y541999D02*
Y539500D01*
X419500Y539000D01*
X420500D01*
X420999Y539500D01*
Y541999D01*
X423498Y539000D02*
Y541999D01*
X421999Y540499D01*
X423998D01*
X393244Y393999D02*
Y391500D01*
X393744Y391000D01*
X394744D01*
X395243Y391500D01*
Y393999D01*
X396243Y393499D02*
X396743Y393999D01*
X397743D01*
X398242Y393499D01*
Y392999D01*
X397743Y392499D01*
X397243D01*
X397743D01*
X398242Y392000D01*
Y391500D01*
X397743Y391000D01*
X396743D01*
X396243Y391500D01*
X421500Y289999D02*
Y287500D01*
X422000Y287000D01*
X422999D01*
X423499Y287500D01*
Y289999D01*
X426498Y287000D02*
X424499D01*
X426498Y288999D01*
Y289499D01*
X425998Y289999D01*
X424999D01*
X424499Y289499D01*
X416000Y236000D02*
Y238999D01*
X417499D01*
X417999Y238499D01*
Y237499D01*
X417499Y237000D01*
X416000D01*
X417000D02*
X417999Y236000D01*
X418999D02*
X419999D01*
X419499D01*
Y238999D01*
X418999Y238499D01*
X421498D02*
X421998Y238999D01*
X422998D01*
X423498Y238499D01*
Y237999D01*
X422998Y237499D01*
X422498D01*
X422998D01*
X423498Y237000D01*
Y236500D01*
X422998Y236000D01*
X421998D01*
X421498Y236500D01*
X428500Y241000D02*
Y243999D01*
X429999D01*
X430499Y243499D01*
Y242499D01*
X429999Y242000D01*
X428500D01*
X429500D02*
X430499Y241000D01*
X431499D02*
X432499D01*
X431999D01*
Y243999D01*
X431499Y243499D01*
X435998Y241000D02*
X433998D01*
X435998Y242999D01*
Y243499D01*
X435498Y243999D01*
X434498D01*
X433998Y243499D01*
X428500Y256000D02*
Y258999D01*
X429999D01*
X430499Y258499D01*
Y257500D01*
X429999Y257000D01*
X428500D01*
X429500D02*
X430499Y256000D01*
X431499D02*
X432499D01*
X431999D01*
Y258999D01*
X431499Y258499D01*
X433998Y256000D02*
X434998D01*
X434498D01*
Y258999D01*
X433998Y258499D01*
X454000Y276000D02*
X451001D01*
Y277500D01*
X451501Y277999D01*
X452500D01*
X453000Y277500D01*
Y276000D01*
Y277000D02*
X454000Y277999D01*
Y278999D02*
Y279999D01*
Y279499D01*
X451001D01*
X451501Y278999D01*
Y281498D02*
X451001Y281998D01*
Y282998D01*
X451501Y283498D01*
X453500D01*
X454000Y282998D01*
Y281998D01*
X453500Y281498D01*
X451501D01*
X434000Y400500D02*
X431001D01*
Y402000D01*
X431501Y402499D01*
X432501D01*
X433000Y402000D01*
Y400500D01*
Y401500D02*
X434000Y402499D01*
X431001Y403499D02*
Y405498D01*
X431501D01*
X433500Y403499D01*
X434000D01*
X395000Y306500D02*
Y309499D01*
X396499D01*
X396999Y308999D01*
Y307999D01*
X396499Y307500D01*
X395000D01*
X396000D02*
X396999Y306500D01*
X397999Y308999D02*
X398499Y309499D01*
X399499D01*
X399998Y308999D01*
Y308499D01*
X399499Y307999D01*
X398999D01*
X399499D01*
X399998Y307500D01*
Y307000D01*
X399499Y306500D01*
X398499D01*
X397999Y307000D01*
X464501Y265000D02*
X467500D01*
Y266999D01*
Y267999D02*
Y268999D01*
Y268499D01*
X464501D01*
X465001Y267999D01*
X388499Y385999D02*
X388000Y386499D01*
X387000D01*
X386500Y385999D01*
Y384000D01*
X387000Y383500D01*
X388000D01*
X388499Y384000D01*
X389499Y383500D02*
X390499D01*
X389999D01*
Y386499D01*
X389499Y385999D01*
X393998Y386499D02*
X391998D01*
Y384999D01*
X392998Y385499D01*
X393498D01*
X393998Y384999D01*
Y384000D01*
X393498Y383500D01*
X392498D01*
X391998Y384000D01*
X388499Y378499D02*
X388000Y378999D01*
X387000D01*
X386500Y378499D01*
Y376500D01*
X387000Y376000D01*
X388000D01*
X388499Y376500D01*
X389499Y376000D02*
X390499D01*
X389999D01*
Y378999D01*
X389499Y378499D01*
X393498Y376000D02*
Y378999D01*
X391998Y377500D01*
X393998D01*
X388499Y370999D02*
X388000Y371499D01*
X387000D01*
X386500Y370999D01*
Y369000D01*
X387000Y368500D01*
X388000D01*
X388499Y369000D01*
X389499Y368500D02*
X390499D01*
X389999D01*
Y371499D01*
X389499Y370999D01*
X391998D02*
X392498Y371499D01*
X393498D01*
X393998Y370999D01*
Y370499D01*
X393498Y370000D01*
X392998D01*
X393498D01*
X393998Y369500D01*
Y369000D01*
X393498Y368500D01*
X392498D01*
X391998Y369000D01*
X408499Y425999D02*
X408000Y426499D01*
X407000D01*
X406500Y425999D01*
Y424000D01*
X407000Y423500D01*
X408000D01*
X408499Y424000D01*
X409499Y423500D02*
X410499D01*
X409999D01*
Y426499D01*
X409499Y425999D01*
X413998Y423500D02*
X411998D01*
X413998Y425499D01*
Y425999D01*
X413498Y426499D01*
X412498D01*
X411998Y425999D01*
X459001Y264499D02*
X458501Y264000D01*
Y263000D01*
X459001Y262500D01*
X461000D01*
X461500Y263000D01*
Y264000D01*
X461000Y264499D01*
X461500Y265499D02*
Y266499D01*
Y265999D01*
X458501D01*
X459001Y265499D01*
X461500Y267998D02*
Y268998D01*
Y268498D01*
X458501D01*
X459001Y267998D01*
X431501Y363999D02*
X431001Y363499D01*
Y362500D01*
X431501Y362000D01*
X433500D01*
X434000Y362500D01*
Y363499D01*
X433500Y363999D01*
Y364999D02*
X434000Y365499D01*
Y366498D01*
X433500Y366998D01*
X431501D01*
X431001Y366498D01*
Y365499D01*
X431501Y364999D01*
X432001D01*
X432501Y365499D01*
Y366998D01*
X406501Y294999D02*
X406001Y294499D01*
Y293500D01*
X406501Y293000D01*
X408500D01*
X409000Y293500D01*
Y294499D01*
X408500Y294999D01*
X406501Y295999D02*
X406001Y296499D01*
Y297498D01*
X406501Y297998D01*
X407001D01*
X407501Y297498D01*
X408000Y297998D01*
X408500D01*
X409000Y297498D01*
Y296499D01*
X408500Y295999D01*
X408000D01*
X407501Y296499D01*
X407001Y295999D01*
X406501D01*
X407501Y296499D02*
Y297498D01*
X430499Y250999D02*
X429999Y251499D01*
X429000D01*
X428500Y250999D01*
Y249000D01*
X429000Y248500D01*
X429999D01*
X430499Y249000D01*
X431499Y251499D02*
X433498D01*
Y250999D01*
X431499Y249000D01*
Y248500D01*
X486999Y549999D02*
X486500Y550499D01*
X485500D01*
X485000Y549999D01*
Y548000D01*
X485500Y547500D01*
X486500D01*
X486999Y548000D01*
X489499Y547500D02*
Y550499D01*
X487999Y549000D01*
X489998D01*
X444001Y569421D02*
X443501Y568921D01*
Y567921D01*
X444001Y567421D01*
X446000D01*
X446500Y567921D01*
Y568921D01*
X446000Y569421D01*
X444001Y570420D02*
X443501Y570920D01*
Y571920D01*
X444001Y572420D01*
X444501D01*
X445001Y571920D01*
Y571420D01*
Y571920D01*
X445500Y572420D01*
X446000D01*
X446500Y571920D01*
Y570920D01*
X446000Y570420D01*
X448999Y547999D02*
X448499Y548499D01*
X447500D01*
X447000Y547999D01*
Y546000D01*
X447500Y545500D01*
X448499D01*
X448999Y546000D01*
X451998Y545500D02*
X449999D01*
X451998Y547499D01*
Y547999D01*
X451499Y548499D01*
X450499D01*
X449999Y547999D01*
X416999Y514999D02*
X416500Y515499D01*
X415500D01*
X415000Y514999D01*
Y513000D01*
X415500Y512500D01*
X416500D01*
X416999Y513000D01*
X417999Y512500D02*
X418999D01*
X418499D01*
Y515499D01*
X417999Y514999D01*
X466501Y243500D02*
X469500D01*
Y245000D01*
X469000Y245499D01*
X468500D01*
X468001Y245000D01*
Y243500D01*
Y245000D01*
X467501Y245499D01*
X467001D01*
X466501Y245000D01*
Y243500D01*
X469500Y246499D02*
Y247499D01*
Y246999D01*
X466501D01*
X467001Y246499D01*
X639501Y590000D02*
X642000D01*
X642500Y590500D01*
Y591500D01*
X642000Y591999D01*
X639501D01*
X642500Y594998D02*
Y592999D01*
X640501Y594998D01*
X640001D01*
X639501Y594498D01*
Y593499D01*
X640001Y592999D01*
X643000Y595998D02*
Y597997D01*
X642500Y598997D02*
X639501D01*
Y600497D01*
X640001Y600996D01*
X641001D01*
X641500Y600497D01*
Y598997D01*
X640001Y601996D02*
X639501Y602496D01*
Y603496D01*
X640001Y603996D01*
X640501D01*
X641001Y603496D01*
Y602996D01*
Y603496D01*
X641500Y603996D01*
X642000D01*
X642500Y603496D01*
Y602496D01*
X642000Y601996D01*
X639501Y450000D02*
X642000D01*
X642500Y450500D01*
Y451500D01*
X642000Y451999D01*
X639501D01*
X642500Y454998D02*
Y452999D01*
X640501Y454998D01*
X640001D01*
X639501Y454498D01*
Y453499D01*
X640001Y452999D01*
X643000Y455998D02*
Y457997D01*
X642500Y458997D02*
X639501D01*
Y460497D01*
X640001Y460996D01*
X641001D01*
X641500Y460497D01*
Y458997D01*
X642500Y463996D02*
Y461996D01*
X640501Y463996D01*
X640001D01*
X639501Y463496D01*
Y462496D01*
X640001Y461996D01*
X639501Y310000D02*
X642000D01*
X642500Y310500D01*
Y311500D01*
X642000Y311999D01*
X639501D01*
X642500Y314998D02*
Y312999D01*
X640501Y314998D01*
X640001D01*
X639501Y314498D01*
Y313499D01*
X640001Y312999D01*
X643000Y315998D02*
Y317997D01*
X642500Y318997D02*
X639501D01*
Y320497D01*
X640001Y320996D01*
X641001D01*
X641500Y320497D01*
Y318997D01*
X642500Y321996D02*
Y322996D01*
Y322496D01*
X639501D01*
X640001Y321996D01*
X627500Y571000D02*
Y573999D01*
X629000D01*
X629499Y573499D01*
Y572500D01*
X629000Y572000D01*
X627500D01*
X628500D02*
X629499Y571000D01*
X632498Y571500D02*
Y573499D01*
X631998Y573999D01*
X630999D01*
X630499Y573499D01*
Y571500D01*
X630999Y571000D01*
X631998D01*
X631499Y572000D02*
X632498Y571000D01*
X631998D02*
X632498Y571500D01*
X633498Y573999D02*
Y571000D01*
X635497D01*
X636497Y570500D02*
X638496D01*
X639496Y571000D02*
Y573999D01*
X640996D01*
X641496Y573499D01*
Y572500D01*
X640996Y572000D01*
X639496D01*
X642495Y573499D02*
X642995Y573999D01*
X643995D01*
X644494Y573499D01*
Y572999D01*
X643995Y572500D01*
X643495D01*
X643995D01*
X644494Y572000D01*
Y571500D01*
X643995Y571000D01*
X642995D01*
X642495Y571500D01*
X627500Y431000D02*
Y433999D01*
X629000D01*
X629499Y433499D01*
Y432500D01*
X629000Y432000D01*
X627500D01*
X628500D02*
X629499Y431000D01*
X632498Y431500D02*
Y433499D01*
X631998Y433999D01*
X630999D01*
X630499Y433499D01*
Y431500D01*
X630999Y431000D01*
X631998D01*
X631499Y432000D02*
X632498Y431000D01*
X631998D02*
X632498Y431500D01*
X633498Y433999D02*
Y431000D01*
X635497D01*
X636497Y430500D02*
X638496D01*
X639496Y431000D02*
Y433999D01*
X640996D01*
X641496Y433499D01*
Y432500D01*
X640996Y432000D01*
X639496D01*
X644494Y431000D02*
X642495D01*
X644494Y432999D01*
Y433499D01*
X643995Y433999D01*
X642995D01*
X642495Y433499D01*
X627500Y291000D02*
Y293999D01*
X629000D01*
X629499Y293499D01*
Y292499D01*
X629000Y292000D01*
X627500D01*
X628500D02*
X629499Y291000D01*
X632498Y291500D02*
Y293499D01*
X631998Y293999D01*
X630999D01*
X630499Y293499D01*
Y291500D01*
X630999Y291000D01*
X631998D01*
X631499Y292000D02*
X632498Y291000D01*
X631998D02*
X632498Y291500D01*
X633498Y293999D02*
Y291000D01*
X635497D01*
X636497Y290500D02*
X638496D01*
X639496Y291000D02*
Y293999D01*
X640996D01*
X641496Y293499D01*
Y292499D01*
X640996Y292000D01*
X639496D01*
X642495Y291000D02*
X643495D01*
X642995D01*
Y293999D01*
X642495Y293499D01*
X628500Y539000D02*
Y541999D01*
X629999D01*
X630499Y541499D01*
Y540499D01*
X629999Y540000D01*
X628500D01*
X629500D02*
X630499Y539000D01*
X633498Y539500D02*
Y541499D01*
X632999Y541999D01*
X631999D01*
X631499Y541499D01*
Y539500D01*
X631999Y539000D01*
X632999D01*
X632499Y540000D02*
X633498Y539000D01*
X632999D02*
X633498Y539500D01*
X634498Y541999D02*
Y539000D01*
Y540499D01*
X636497D01*
Y541999D01*
Y539000D01*
X637497Y538500D02*
X639496D01*
X640496Y539000D02*
Y541999D01*
X641996D01*
X642495Y541499D01*
Y540499D01*
X641996Y540000D01*
X640496D01*
X643495Y541499D02*
X643995Y541999D01*
X644995D01*
X645495Y541499D01*
Y540999D01*
X644995Y540499D01*
X644495D01*
X644995D01*
X645495Y540000D01*
Y539500D01*
X644995Y539000D01*
X643995D01*
X643495Y539500D01*
X628500Y399000D02*
Y401999D01*
X629999D01*
X630499Y401499D01*
Y400499D01*
X629999Y400000D01*
X628500D01*
X629500D02*
X630499Y399000D01*
X633498Y399500D02*
Y401499D01*
X632999Y401999D01*
X631999D01*
X631499Y401499D01*
Y399500D01*
X631999Y399000D01*
X632999D01*
X632499Y400000D02*
X633498Y399000D01*
X632999D02*
X633498Y399500D01*
X634498Y401999D02*
Y399000D01*
Y400499D01*
X636497D01*
Y401999D01*
Y399000D01*
X637497Y398500D02*
X639496D01*
X640496Y399000D02*
Y401999D01*
X641996D01*
X642495Y401499D01*
Y400499D01*
X641996Y400000D01*
X640496D01*
X645495Y399000D02*
X643495D01*
X645495Y400999D01*
Y401499D01*
X644995Y401999D01*
X643995D01*
X643495Y401499D01*
X628500Y259000D02*
Y261999D01*
X629999D01*
X630499Y261499D01*
Y260500D01*
X629999Y260000D01*
X628500D01*
X629500D02*
X630499Y259000D01*
X633498Y259500D02*
Y261499D01*
X632999Y261999D01*
X631999D01*
X631499Y261499D01*
Y259500D01*
X631999Y259000D01*
X632999D01*
X632499Y260000D02*
X633498Y259000D01*
X632999D02*
X633498Y259500D01*
X634498Y261999D02*
Y259000D01*
Y260500D01*
X636497D01*
Y261999D01*
Y259000D01*
X637497Y258500D02*
X639496D01*
X640496Y259000D02*
Y261999D01*
X641996D01*
X642495Y261499D01*
Y260500D01*
X641996Y260000D01*
X640496D01*
X643495Y259000D02*
X644495D01*
X643995D01*
Y261999D01*
X643495Y261499D01*
X566000Y561500D02*
Y564499D01*
X567499D01*
X567999Y563999D01*
Y562999D01*
X567499Y562500D01*
X566000D01*
X567000D02*
X567999Y561500D01*
X568999Y564499D02*
Y561500D01*
X570499D01*
X570998Y562000D01*
Y562500D01*
X570499Y562999D01*
X568999D01*
X570499D01*
X570998Y563499D01*
Y563999D01*
X570499Y564499D01*
X568999D01*
X571998Y561000D02*
X573997D01*
X574997Y561500D02*
Y564499D01*
X576497D01*
X576996Y563999D01*
Y562999D01*
X576497Y562500D01*
X574997D01*
X577996Y563999D02*
X578496Y564499D01*
X579496D01*
X579995Y563999D01*
Y563499D01*
X579496Y562999D01*
X578996D01*
X579496D01*
X579995Y562500D01*
Y562000D01*
X579496Y561500D01*
X578496D01*
X577996Y562000D01*
X566000Y421500D02*
Y424499D01*
X567499D01*
X567999Y423999D01*
Y422999D01*
X567499Y422500D01*
X566000D01*
X567000D02*
X567999Y421500D01*
X568999Y424499D02*
Y421500D01*
X570499D01*
X570998Y422000D01*
Y422500D01*
X570499Y422999D01*
X568999D01*
X570499D01*
X570998Y423499D01*
Y423999D01*
X570499Y424499D01*
X568999D01*
X571998Y421000D02*
X573997D01*
X574997Y421500D02*
Y424499D01*
X576497D01*
X576996Y423999D01*
Y422999D01*
X576497Y422500D01*
X574997D01*
X579995Y421500D02*
X577996D01*
X579995Y423499D01*
Y423999D01*
X579496Y424499D01*
X578496D01*
X577996Y423999D01*
X566000Y281500D02*
Y284499D01*
X567499D01*
X567999Y283999D01*
Y282999D01*
X567499Y282500D01*
X566000D01*
X567000D02*
X567999Y281500D01*
X568999Y284499D02*
Y281500D01*
X570499D01*
X570998Y282000D01*
Y282500D01*
X570499Y282999D01*
X568999D01*
X570499D01*
X570998Y283499D01*
Y283999D01*
X570499Y284499D01*
X568999D01*
X571998Y281000D02*
X573997D01*
X574997Y281500D02*
Y284499D01*
X576497D01*
X576996Y283999D01*
Y282999D01*
X576497Y282500D01*
X574997D01*
X577996Y281500D02*
X578996D01*
X578496D01*
Y284499D01*
X577996Y283999D01*
X671500Y582453D02*
X668501D01*
Y583952D01*
X669001Y584452D01*
X670001D01*
X670500Y583952D01*
Y582453D01*
Y583453D02*
X671500Y584452D01*
X668501Y585452D02*
X670500D01*
X671500Y586451D01*
X670500Y587451D01*
X668501D01*
X671500Y590450D02*
Y588451D01*
X669501Y590450D01*
X669001D01*
X668501Y589950D01*
Y588951D01*
X669001Y588451D01*
X672000Y591450D02*
Y593449D01*
X671500Y594449D02*
X668501D01*
Y595948D01*
X669001Y596448D01*
X670001D01*
X670500Y595948D01*
Y594449D01*
X669001Y597448D02*
X668501Y597948D01*
Y598947D01*
X669001Y599447D01*
X669501D01*
X670001Y598947D01*
Y598448D01*
Y598947D01*
X670500Y599447D01*
X671000D01*
X671500Y598947D01*
Y597948D01*
X671000Y597448D01*
X671500Y442453D02*
X668501D01*
Y443952D01*
X669001Y444452D01*
X670001D01*
X670500Y443952D01*
Y442453D01*
Y443453D02*
X671500Y444452D01*
X668501Y445452D02*
X670500D01*
X671500Y446452D01*
X670500Y447451D01*
X668501D01*
X671500Y450450D02*
Y448451D01*
X669501Y450450D01*
X669001D01*
X668501Y449950D01*
Y448951D01*
X669001Y448451D01*
X672000Y451450D02*
Y453449D01*
X671500Y454449D02*
X668501D01*
Y455948D01*
X669001Y456448D01*
X670001D01*
X670500Y455948D01*
Y454449D01*
X671500Y459447D02*
Y457448D01*
X669501Y459447D01*
X669001D01*
X668501Y458948D01*
Y457948D01*
X669001Y457448D01*
X671500Y302453D02*
X668501D01*
Y303952D01*
X669001Y304452D01*
X670001D01*
X670500Y303952D01*
Y302453D01*
Y303452D02*
X671500Y304452D01*
X668501Y305452D02*
X670500D01*
X671500Y306452D01*
X670500Y307451D01*
X668501D01*
X671500Y310450D02*
Y308451D01*
X669501Y310450D01*
X669001D01*
X668501Y309950D01*
Y308951D01*
X669001Y308451D01*
X672000Y311450D02*
Y313449D01*
X671500Y314449D02*
X668501D01*
Y315948D01*
X669001Y316448D01*
X670001D01*
X670500Y315948D01*
Y314449D01*
X671500Y317448D02*
Y318448D01*
Y317948D01*
X668501D01*
X669001Y317448D01*
X681500Y562000D02*
X678501D01*
Y563499D01*
X679001Y563999D01*
X680000D01*
X680500Y563499D01*
Y562000D01*
Y563000D02*
X681500Y563999D01*
X678501Y564999D02*
X680500D01*
X681500Y565999D01*
X680500Y566998D01*
X678501D01*
X681500Y567998D02*
Y568998D01*
Y568498D01*
X678501D01*
X679001Y567998D01*
X682000Y570497D02*
Y572497D01*
X681500Y573496D02*
X678501D01*
Y574996D01*
X679001Y575496D01*
X680000D01*
X680500Y574996D01*
Y573496D01*
X679001Y576495D02*
X678501Y576995D01*
Y577995D01*
X679001Y578495D01*
X679501D01*
X680000Y577995D01*
Y577495D01*
Y577995D01*
X680500Y578495D01*
X681000D01*
X681500Y577995D01*
Y576995D01*
X681000Y576495D01*
X681500Y422000D02*
X678501D01*
Y423499D01*
X679001Y423999D01*
X680000D01*
X680500Y423499D01*
Y422000D01*
Y423000D02*
X681500Y423999D01*
X678501Y424999D02*
X680500D01*
X681500Y425999D01*
X680500Y426998D01*
X678501D01*
X681500Y427998D02*
Y428998D01*
Y428498D01*
X678501D01*
X679001Y427998D01*
X682000Y430497D02*
Y432497D01*
X681500Y433496D02*
X678501D01*
Y434996D01*
X679001Y435496D01*
X680000D01*
X680500Y434996D01*
Y433496D01*
X681500Y438495D02*
Y436495D01*
X679501Y438495D01*
X679001D01*
X678501Y437995D01*
Y436995D01*
X679001Y436495D01*
X681500Y282000D02*
X678501D01*
Y283500D01*
X679001Y283999D01*
X680000D01*
X680500Y283500D01*
Y282000D01*
Y283000D02*
X681500Y283999D01*
X678501Y284999D02*
X680500D01*
X681500Y285999D01*
X680500Y286998D01*
X678501D01*
X681500Y287998D02*
Y288998D01*
Y288498D01*
X678501D01*
X679001Y287998D01*
X682000Y290497D02*
Y292497D01*
X681500Y293496D02*
X678501D01*
Y294996D01*
X679001Y295496D01*
X680000D01*
X680500Y294996D01*
Y293496D01*
X681500Y296495D02*
Y297495D01*
Y296995D01*
X678501D01*
X679001Y296495D01*
X670500Y551999D02*
X668501D01*
X668001Y551500D01*
Y550500D01*
X668501Y550000D01*
X670500D01*
X671000Y550500D01*
Y551500D01*
X670000Y551000D02*
X671000Y551999D01*
Y551500D02*
X670500Y551999D01*
X668001Y552999D02*
X671000D01*
Y554998D01*
X671500Y555998D02*
Y557997D01*
X671000Y558997D02*
X668001D01*
Y560497D01*
X668501Y560996D01*
X669500D01*
X670000Y560497D01*
Y558997D01*
X668501Y561996D02*
X668001Y562496D01*
Y563496D01*
X668501Y563996D01*
X669001D01*
X669500Y563496D01*
Y562996D01*
Y563496D01*
X670000Y563996D01*
X670500D01*
X671000Y563496D01*
Y562496D01*
X670500Y561996D01*
Y411999D02*
X668501D01*
X668001Y411500D01*
Y410500D01*
X668501Y410000D01*
X670500D01*
X671000Y410500D01*
Y411500D01*
X670000Y411000D02*
X671000Y411999D01*
Y411500D02*
X670500Y411999D01*
X668001Y412999D02*
X671000D01*
Y414998D01*
X671500Y415998D02*
Y417997D01*
X671000Y418997D02*
X668001D01*
Y420497D01*
X668501Y420996D01*
X669500D01*
X670000Y420497D01*
Y418997D01*
X671000Y423995D02*
Y421996D01*
X669001Y423995D01*
X668501D01*
X668001Y423496D01*
Y422496D01*
X668501Y421996D01*
X670500Y271999D02*
X668501D01*
X668001Y271499D01*
Y270500D01*
X668501Y270000D01*
X670500D01*
X671000Y270500D01*
Y271499D01*
X670000Y271000D02*
X671000Y271999D01*
Y271499D02*
X670500Y271999D01*
X668001Y272999D02*
X671000D01*
Y274998D01*
X671500Y275998D02*
Y277997D01*
X671000Y278997D02*
X668001D01*
Y280497D01*
X668501Y280996D01*
X669500D01*
X670000Y280497D01*
Y278997D01*
X671000Y281996D02*
Y282996D01*
Y282496D01*
X668001D01*
X668501Y281996D01*
X670500Y518999D02*
X668501D01*
X668001Y518500D01*
Y517500D01*
X668501Y517000D01*
X670500D01*
X671000Y517500D01*
Y518500D01*
X670000Y518000D02*
X671000Y518999D01*
Y518500D02*
X670500Y518999D01*
X668001Y519999D02*
X671000D01*
X669500D01*
Y521998D01*
X668001D01*
X671000D01*
X671500Y522998D02*
Y524997D01*
X671000Y525997D02*
X668001D01*
Y527497D01*
X668501Y527996D01*
X669500D01*
X670000Y527497D01*
Y525997D01*
X668501Y528996D02*
X668001Y529496D01*
Y530496D01*
X668501Y530996D01*
X669001D01*
X669500Y530496D01*
Y529996D01*
Y530496D01*
X670000Y530996D01*
X670500D01*
X671000Y530496D01*
Y529496D01*
X670500Y528996D01*
Y378999D02*
X668501D01*
X668001Y378500D01*
Y377500D01*
X668501Y377000D01*
X670500D01*
X671000Y377500D01*
Y378500D01*
X670000Y378000D02*
X671000Y378999D01*
Y378500D02*
X670500Y378999D01*
X668001Y379999D02*
X671000D01*
X669500D01*
Y381998D01*
X668001D01*
X671000D01*
X671500Y382998D02*
Y384997D01*
X671000Y385997D02*
X668001D01*
Y387497D01*
X668501Y387996D01*
X669500D01*
X670000Y387497D01*
Y385997D01*
X671000Y390996D02*
Y388996D01*
X669001Y390996D01*
X668501D01*
X668001Y390496D01*
Y389496D01*
X668501Y388996D01*
X670500Y238999D02*
X668501D01*
X668001Y238499D01*
Y237500D01*
X668501Y237000D01*
X670500D01*
X671000Y237500D01*
Y238499D01*
X670000Y238000D02*
X671000Y238999D01*
Y238499D02*
X670500Y238999D01*
X668001Y239999D02*
X671000D01*
X669500D01*
Y241998D01*
X668001D01*
X671000D01*
X671500Y242998D02*
Y244997D01*
X671000Y245997D02*
X668001D01*
Y247497D01*
X668501Y247996D01*
X669500D01*
X670000Y247497D01*
Y245997D01*
X671000Y248996D02*
Y249996D01*
Y249496D01*
X668001D01*
X668501Y248996D01*
X582500Y547999D02*
Y545500D01*
X583000Y545000D01*
X583999D01*
X584499Y545500D01*
Y547999D01*
X585499Y545000D02*
X586499D01*
X585999D01*
Y547999D01*
X585499Y547499D01*
X587998Y544500D02*
X589998D01*
X590997Y545000D02*
Y547999D01*
X592497D01*
X592997Y547499D01*
Y546499D01*
X592497Y546000D01*
X590997D01*
X593996Y547499D02*
X594496Y547999D01*
X595496D01*
X595996Y547499D01*
Y546999D01*
X595496Y546499D01*
X594996D01*
X595496D01*
X595996Y546000D01*
Y545500D01*
X595496Y545000D01*
X594496D01*
X593996Y545500D01*
X582500Y407999D02*
Y405500D01*
X583000Y405000D01*
X583999D01*
X584499Y405500D01*
Y407999D01*
X585499Y405000D02*
X586499D01*
X585999D01*
Y407999D01*
X585499Y407499D01*
X587998Y404500D02*
X589998D01*
X590997Y405000D02*
Y407999D01*
X592497D01*
X592997Y407499D01*
Y406499D01*
X592497Y406000D01*
X590997D01*
X595996Y405000D02*
X593996D01*
X595996Y406999D01*
Y407499D01*
X595496Y407999D01*
X594496D01*
X593996Y407499D01*
X582500Y267999D02*
Y265500D01*
X583000Y265000D01*
X583999D01*
X584499Y265500D01*
Y267999D01*
X585499Y265000D02*
X586499D01*
X585999D01*
Y267999D01*
X585499Y267499D01*
X587998Y264500D02*
X589998D01*
X590997Y265000D02*
Y267999D01*
X592497D01*
X592997Y267499D01*
Y266499D01*
X592497Y266000D01*
X590997D01*
X593996Y265000D02*
X594996D01*
X594496D01*
Y267999D01*
X593996Y267499D01*
X731999Y526999D02*
X730000D01*
Y525499D01*
X731000D01*
X730000D01*
Y524000D01*
X732999D02*
X733999D01*
X733499D01*
Y526999D01*
X732999Y526499D01*
X735498Y523500D02*
X737498D01*
X738497Y524000D02*
Y526999D01*
X739997D01*
X740497Y526499D01*
Y525499D01*
X739997Y525000D01*
X738497D01*
X741496Y526499D02*
X741996Y526999D01*
X742996D01*
X743496Y526499D01*
Y525999D01*
X742996Y525499D01*
X742496D01*
X742996D01*
X743496Y525000D01*
Y524500D01*
X742996Y524000D01*
X741996D01*
X741496Y524500D01*
X731999Y386999D02*
X730000D01*
Y385500D01*
X731000D01*
X730000D01*
Y384000D01*
X732999D02*
X733999D01*
X733499D01*
Y386999D01*
X732999Y386499D01*
X735498Y383500D02*
X737498D01*
X738497Y384000D02*
Y386999D01*
X739997D01*
X740497Y386499D01*
Y385500D01*
X739997Y385000D01*
X738497D01*
X743496Y384000D02*
X741496D01*
X743496Y385999D01*
Y386499D01*
X742996Y386999D01*
X741996D01*
X741496Y386499D01*
X731999Y246999D02*
X730000D01*
Y245499D01*
X731000D01*
X730000D01*
Y244000D01*
X732999D02*
X733999D01*
X733499D01*
Y246999D01*
X732999Y246499D01*
X735498Y243500D02*
X737498D01*
X738497Y244000D02*
Y246999D01*
X739997D01*
X740497Y246499D01*
Y245499D01*
X739997Y245000D01*
X738497D01*
X741496Y244000D02*
X742496D01*
X741996D01*
Y246999D01*
X741496Y246499D01*
X581500Y568999D02*
Y566000D01*
X583000D01*
X583499Y566500D01*
Y568499D01*
X583000Y568999D01*
X581500D01*
X584499D02*
Y566000D01*
X585998D01*
X586498Y566500D01*
Y567000D01*
X585998Y567499D01*
X584499D01*
X585998D01*
X586498Y567999D01*
Y568499D01*
X585998Y568999D01*
X584499D01*
X587498Y565500D02*
X589497D01*
X590497Y566000D02*
Y568999D01*
X591997D01*
X592496Y568499D01*
Y567499D01*
X591997Y567000D01*
X590497D01*
X593496Y568499D02*
X593996Y568999D01*
X594996D01*
X595496Y568499D01*
Y567999D01*
X594996Y567499D01*
X594496D01*
X594996D01*
X595496Y567000D01*
Y566500D01*
X594996Y566000D01*
X593996D01*
X593496Y566500D01*
X581500Y428999D02*
Y426000D01*
X583000D01*
X583499Y426500D01*
Y428499D01*
X583000Y428999D01*
X581500D01*
X584499D02*
Y426000D01*
X585998D01*
X586498Y426500D01*
Y427000D01*
X585998Y427499D01*
X584499D01*
X585998D01*
X586498Y427999D01*
Y428499D01*
X585998Y428999D01*
X584499D01*
X587498Y425500D02*
X589497D01*
X590497Y426000D02*
Y428999D01*
X591997D01*
X592496Y428499D01*
Y427499D01*
X591997Y427000D01*
X590497D01*
X595496Y426000D02*
X593496D01*
X595496Y427999D01*
Y428499D01*
X594996Y428999D01*
X593996D01*
X593496Y428499D01*
X581500Y288999D02*
Y286000D01*
X583000D01*
X583499Y286500D01*
Y288499D01*
X583000Y288999D01*
X581500D01*
X584499D02*
Y286000D01*
X585998D01*
X586498Y286500D01*
Y287000D01*
X585998Y287499D01*
X584499D01*
X585998D01*
X586498Y287999D01*
Y288499D01*
X585998Y288999D01*
X584499D01*
X587498Y285500D02*
X589497D01*
X590497Y286000D02*
Y288999D01*
X591997D01*
X592496Y288499D01*
Y287499D01*
X591997Y287000D01*
X590497D01*
X593496Y286000D02*
X594496D01*
X593996D01*
Y288999D01*
X593496Y288499D01*
X615001Y529999D02*
X614501Y529499D01*
Y528500D01*
X615001Y528000D01*
X617000D01*
X617500Y528500D01*
Y529499D01*
X617000Y529999D01*
X614501Y530999D02*
X617500D01*
Y532499D01*
X617000Y532998D01*
X616500D01*
X616001Y532499D01*
Y530999D01*
Y532499D01*
X615501Y532998D01*
X615001D01*
X614501Y532499D01*
Y530999D01*
X618000Y533998D02*
Y535997D01*
X617500Y536997D02*
X614501D01*
Y538497D01*
X615001Y538996D01*
X616001D01*
X616500Y538497D01*
Y536997D01*
X615001Y539996D02*
X614501Y540496D01*
Y541496D01*
X615001Y541995D01*
X615501D01*
X616001Y541496D01*
Y540996D01*
Y541496D01*
X616500Y541995D01*
X617000D01*
X617500Y541496D01*
Y540496D01*
X617000Y539996D01*
X615001Y389999D02*
X614501Y389499D01*
Y388500D01*
X615001Y388000D01*
X617000D01*
X617500Y388500D01*
Y389499D01*
X617000Y389999D01*
X614501Y390999D02*
X617500D01*
Y392498D01*
X617000Y392998D01*
X616500D01*
X616001Y392498D01*
Y390999D01*
Y392498D01*
X615501Y392998D01*
X615001D01*
X614501Y392498D01*
Y390999D01*
X618000Y393998D02*
Y395997D01*
X617500Y396997D02*
X614501D01*
Y398497D01*
X615001Y398996D01*
X616001D01*
X616500Y398497D01*
Y396997D01*
X617500Y401996D02*
Y399996D01*
X615501Y401996D01*
X615001D01*
X614501Y401496D01*
Y400496D01*
X615001Y399996D01*
Y249999D02*
X614501Y249500D01*
Y248500D01*
X615001Y248000D01*
X617000D01*
X617500Y248500D01*
Y249500D01*
X617000Y249999D01*
X614501Y250999D02*
X617500D01*
Y252499D01*
X617000Y252998D01*
X616500D01*
X616001Y252499D01*
Y250999D01*
Y252499D01*
X615501Y252998D01*
X615001D01*
X614501Y252499D01*
Y250999D01*
X618000Y253998D02*
Y255997D01*
X617500Y256997D02*
X614501D01*
Y258497D01*
X615001Y258996D01*
X616001D01*
X616500Y258497D01*
Y256997D01*
X617500Y259996D02*
Y260996D01*
Y260496D01*
X614501D01*
X615001Y259996D01*
X609988Y618499D02*
X609488Y618999D01*
X608488D01*
X607988Y618499D01*
Y616500D01*
X608488Y616000D01*
X609488D01*
X609988Y616500D01*
X610987Y618999D02*
Y616500D01*
X611487Y616000D01*
X612487D01*
X612987Y616500D01*
Y618999D01*
X615986Y616000D02*
X613986D01*
X615986Y617999D01*
Y618499D01*
X615486Y618999D01*
X614486D01*
X613986Y618499D01*
X616985Y615500D02*
X618985D01*
X621984Y616000D02*
X619984D01*
X621984Y617999D01*
Y618499D01*
X621484Y618999D01*
X620484D01*
X619984Y618499D01*
X622983Y615500D02*
X624983D01*
X625982Y616000D02*
Y618999D01*
X627482D01*
X627982Y618499D01*
Y617499D01*
X627482Y617000D01*
X625982D01*
X628981Y618499D02*
X629481Y618999D01*
X630481D01*
X630981Y618499D01*
Y617999D01*
X630481Y617499D01*
X629981D01*
X630481D01*
X630981Y617000D01*
Y616500D01*
X630481Y616000D01*
X629481D01*
X628981Y616500D01*
X609988Y478499D02*
X609488Y478999D01*
X608488D01*
X607988Y478499D01*
Y476500D01*
X608488Y476000D01*
X609488D01*
X609988Y476500D01*
X610987Y478999D02*
Y476500D01*
X611487Y476000D01*
X612487D01*
X612987Y476500D01*
Y478999D01*
X615986Y476000D02*
X613986D01*
X615986Y477999D01*
Y478499D01*
X615486Y478999D01*
X614486D01*
X613986Y478499D01*
X616985Y475500D02*
X618985D01*
X621984Y476000D02*
X619984D01*
X621984Y477999D01*
Y478499D01*
X621484Y478999D01*
X620484D01*
X619984Y478499D01*
X622983Y475500D02*
X624983D01*
X625982Y476000D02*
Y478999D01*
X627482D01*
X627982Y478499D01*
Y477499D01*
X627482Y477000D01*
X625982D01*
X630981Y476000D02*
X628981D01*
X630981Y477999D01*
Y478499D01*
X630481Y478999D01*
X629481D01*
X628981Y478499D01*
X609988Y338499D02*
X609488Y338999D01*
X608488D01*
X607988Y338499D01*
Y336500D01*
X608488Y336000D01*
X609488D01*
X609988Y336500D01*
X610987Y338999D02*
Y336500D01*
X611487Y336000D01*
X612487D01*
X612987Y336500D01*
Y338999D01*
X615986Y336000D02*
X613986D01*
X615986Y337999D01*
Y338499D01*
X615486Y338999D01*
X614486D01*
X613986Y338499D01*
X616985Y335500D02*
X618985D01*
X621984Y336000D02*
X619984D01*
X621984Y337999D01*
Y338499D01*
X621484Y338999D01*
X620484D01*
X619984Y338499D01*
X622983Y335500D02*
X624983D01*
X625982Y336000D02*
Y338999D01*
X627482D01*
X627982Y338499D01*
Y337499D01*
X627482Y337000D01*
X625982D01*
X628981Y336000D02*
X629981D01*
X629481D01*
Y338999D01*
X628981Y338499D01*
X609988Y610999D02*
X609488Y611499D01*
X608488D01*
X607988Y610999D01*
Y609000D01*
X608488Y608500D01*
X609488D01*
X609988Y609000D01*
X610987Y611499D02*
Y609000D01*
X611487Y608500D01*
X612487D01*
X612987Y609000D01*
Y611499D01*
X615986Y608500D02*
X613986D01*
X615986Y610499D01*
Y610999D01*
X615486Y611499D01*
X614486D01*
X613986Y610999D01*
X616985Y608000D02*
X618985D01*
X619984Y608500D02*
X620984D01*
X620484D01*
Y611499D01*
X619984Y610999D01*
X622483Y608000D02*
X624483D01*
X625483Y608500D02*
Y611499D01*
X626982D01*
X627482Y610999D01*
Y610000D01*
X626982Y609500D01*
X625483D01*
X628482Y610999D02*
X628981Y611499D01*
X629981D01*
X630481Y610999D01*
Y610499D01*
X629981Y610000D01*
X629481D01*
X629981D01*
X630481Y609500D01*
Y609000D01*
X629981Y608500D01*
X628981D01*
X628482Y609000D01*
X609988Y470999D02*
X609488Y471499D01*
X608488D01*
X607988Y470999D01*
Y469000D01*
X608488Y468500D01*
X609488D01*
X609988Y469000D01*
X610987Y471499D02*
Y469000D01*
X611487Y468500D01*
X612487D01*
X612987Y469000D01*
Y471499D01*
X615986Y468500D02*
X613986D01*
X615986Y470499D01*
Y470999D01*
X615486Y471499D01*
X614486D01*
X613986Y470999D01*
X616985Y468000D02*
X618985D01*
X619984Y468500D02*
X620984D01*
X620484D01*
Y471499D01*
X619984Y470999D01*
X622483Y468000D02*
X624483D01*
X625483Y468500D02*
Y471499D01*
X626982D01*
X627482Y470999D01*
Y470000D01*
X626982Y469500D01*
X625483D01*
X630481Y468500D02*
X628482D01*
X630481Y470499D01*
Y470999D01*
X629981Y471499D01*
X628981D01*
X628482Y470999D01*
X609988Y330999D02*
X609488Y331499D01*
X608488D01*
X607988Y330999D01*
Y329000D01*
X608488Y328500D01*
X609488D01*
X609988Y329000D01*
X610987Y331499D02*
Y329000D01*
X611487Y328500D01*
X612487D01*
X612987Y329000D01*
Y331499D01*
X615986Y328500D02*
X613986D01*
X615986Y330499D01*
Y330999D01*
X615486Y331499D01*
X614486D01*
X613986Y330999D01*
X616985Y328000D02*
X618985D01*
X619984Y328500D02*
X620984D01*
X620484D01*
Y331499D01*
X619984Y330999D01*
X622483Y328000D02*
X624483D01*
X625483Y328500D02*
Y331499D01*
X626982D01*
X627482Y330999D01*
Y329999D01*
X626982Y329500D01*
X625483D01*
X628482Y328500D02*
X629481D01*
X628981D01*
Y331499D01*
X628482Y330999D01*
X621999Y512499D02*
X621499Y512999D01*
X620500D01*
X620000Y512499D01*
Y510500D01*
X620500Y510000D01*
X621499D01*
X621999Y510500D01*
X624998D02*
Y512499D01*
X624499Y512999D01*
X623499D01*
X622999Y512499D01*
Y510500D01*
X623499Y510000D01*
X624499D01*
X623999Y511000D02*
X624998Y510000D01*
X624499D02*
X624998Y510500D01*
X627997Y510000D02*
X625998D01*
X627997Y511999D01*
Y512499D01*
X627498Y512999D01*
X626498D01*
X625998Y512499D01*
X628997Y509500D02*
X630996D01*
X631996Y510000D02*
Y512999D01*
X633496D01*
X633995Y512499D01*
Y511500D01*
X633496Y511000D01*
X631996D01*
X634995Y512499D02*
X635495Y512999D01*
X636495D01*
X636995Y512499D01*
Y511999D01*
X636495Y511500D01*
X635995D01*
X636495D01*
X636995Y511000D01*
Y510500D01*
X636495Y510000D01*
X635495D01*
X634995Y510500D01*
X621999Y372499D02*
X621499Y372999D01*
X620500D01*
X620000Y372499D01*
Y370500D01*
X620500Y370000D01*
X621499D01*
X621999Y370500D01*
X624998D02*
Y372499D01*
X624499Y372999D01*
X623499D01*
X622999Y372499D01*
Y370500D01*
X623499Y370000D01*
X624499D01*
X623999Y371000D02*
X624998Y370000D01*
X624499D02*
X624998Y370500D01*
X627997Y370000D02*
X625998D01*
X627997Y371999D01*
Y372499D01*
X627498Y372999D01*
X626498D01*
X625998Y372499D01*
X628997Y369500D02*
X630996D01*
X631996Y370000D02*
Y372999D01*
X633496D01*
X633995Y372499D01*
Y371499D01*
X633496Y371000D01*
X631996D01*
X636995Y370000D02*
X634995D01*
X636995Y371999D01*
Y372499D01*
X636495Y372999D01*
X635495D01*
X634995Y372499D01*
X621999Y232499D02*
X621499Y232999D01*
X620500D01*
X620000Y232499D01*
Y230500D01*
X620500Y230000D01*
X621499D01*
X621999Y230500D01*
X624998D02*
Y232499D01*
X624499Y232999D01*
X623499D01*
X622999Y232499D01*
Y230500D01*
X623499Y230000D01*
X624499D01*
X623999Y231000D02*
X624998Y230000D01*
X624499D02*
X624998Y230500D01*
X627997Y230000D02*
X625998D01*
X627997Y231999D01*
Y232499D01*
X627498Y232999D01*
X626498D01*
X625998Y232499D01*
X628997Y229500D02*
X630996D01*
X631996Y230000D02*
Y232999D01*
X633496D01*
X633995Y232499D01*
Y231500D01*
X633496Y231000D01*
X631996D01*
X634995Y230000D02*
X635995D01*
X635495D01*
Y232999D01*
X634995Y232499D01*
X580499Y510999D02*
X579999Y511499D01*
X579000D01*
X578500Y510999D01*
Y509000D01*
X579000Y508500D01*
X579999D01*
X580499Y509000D01*
X581499Y511499D02*
Y509000D01*
X581999Y508500D01*
X582999D01*
X583498Y509000D01*
Y511499D01*
X584498Y508500D02*
X585498D01*
X584998D01*
Y511499D01*
X584498Y510999D01*
X586997Y508000D02*
X588997D01*
X591996Y508500D02*
X589996D01*
X591996Y510499D01*
Y510999D01*
X591496Y511499D01*
X590496D01*
X589996Y510999D01*
X592995Y508000D02*
X594995D01*
X595994Y508500D02*
Y511499D01*
X597494D01*
X597994Y510999D01*
Y510000D01*
X597494Y509500D01*
X595994D01*
X598993Y510999D02*
X599493Y511499D01*
X600493D01*
X600993Y510999D01*
Y510499D01*
X600493Y510000D01*
X599993D01*
X600493D01*
X600993Y509500D01*
Y509000D01*
X600493Y508500D01*
X599493D01*
X598993Y509000D01*
X580499Y370999D02*
X579999Y371499D01*
X579000D01*
X578500Y370999D01*
Y369000D01*
X579000Y368500D01*
X579999D01*
X580499Y369000D01*
X581499Y371499D02*
Y369000D01*
X581999Y368500D01*
X582999D01*
X583498Y369000D01*
Y371499D01*
X584498Y368500D02*
X585498D01*
X584998D01*
Y371499D01*
X584498Y370999D01*
X586997Y368000D02*
X588997D01*
X591996Y368500D02*
X589996D01*
X591996Y370499D01*
Y370999D01*
X591496Y371499D01*
X590496D01*
X589996Y370999D01*
X592995Y368000D02*
X594995D01*
X595994Y368500D02*
Y371499D01*
X597494D01*
X597994Y370999D01*
Y370000D01*
X597494Y369500D01*
X595994D01*
X600993Y368500D02*
X598993D01*
X600993Y370499D01*
Y370999D01*
X600493Y371499D01*
X599493D01*
X598993Y370999D01*
X580499Y230999D02*
X579999Y231499D01*
X579000D01*
X578500Y230999D01*
Y229000D01*
X579000Y228500D01*
X579999D01*
X580499Y229000D01*
X581499Y231499D02*
Y229000D01*
X581999Y228500D01*
X582999D01*
X583498Y229000D01*
Y231499D01*
X584498Y228500D02*
X585498D01*
X584998D01*
Y231499D01*
X584498Y230999D01*
X586997Y228000D02*
X588997D01*
X591996Y228500D02*
X589996D01*
X591996Y230499D01*
Y230999D01*
X591496Y231499D01*
X590496D01*
X589996Y230999D01*
X592995Y228000D02*
X594995D01*
X595994Y228500D02*
Y231499D01*
X597494D01*
X597994Y230999D01*
Y229999D01*
X597494Y229500D01*
X595994D01*
X598993Y228500D02*
X599993D01*
X599493D01*
Y231499D01*
X598993Y230999D01*
X580499Y518499D02*
X579999Y518999D01*
X579000D01*
X578500Y518499D01*
Y516500D01*
X579000Y516000D01*
X579999D01*
X580499Y516500D01*
X581499Y518999D02*
Y516500D01*
X581999Y516000D01*
X582999D01*
X583498Y516500D01*
Y518999D01*
X584498Y516000D02*
X585498D01*
X584998D01*
Y518999D01*
X584498Y518499D01*
X586997Y515500D02*
X588997D01*
X589996Y516000D02*
X590996D01*
X590496D01*
Y518999D01*
X589996Y518499D01*
X592495Y515500D02*
X594495D01*
X595495Y516000D02*
Y518999D01*
X596994D01*
X597494Y518499D01*
Y517499D01*
X596994Y517000D01*
X595495D01*
X598493Y518499D02*
X598993Y518999D01*
X599993D01*
X600493Y518499D01*
Y517999D01*
X599993Y517499D01*
X599493D01*
X599993D01*
X600493Y517000D01*
Y516500D01*
X599993Y516000D01*
X598993D01*
X598493Y516500D01*
X580499Y378499D02*
X579999Y378999D01*
X579000D01*
X578500Y378499D01*
Y376500D01*
X579000Y376000D01*
X579999D01*
X580499Y376500D01*
X581499Y378999D02*
Y376500D01*
X581999Y376000D01*
X582999D01*
X583498Y376500D01*
Y378999D01*
X584498Y376000D02*
X585498D01*
X584998D01*
Y378999D01*
X584498Y378499D01*
X586997Y375500D02*
X588997D01*
X589996Y376000D02*
X590996D01*
X590496D01*
Y378999D01*
X589996Y378499D01*
X592495Y375500D02*
X594495D01*
X595495Y376000D02*
Y378999D01*
X596994D01*
X597494Y378499D01*
Y377500D01*
X596994Y377000D01*
X595495D01*
X600493Y376000D02*
X598493D01*
X600493Y377999D01*
Y378499D01*
X599993Y378999D01*
X598993D01*
X598493Y378499D01*
X580499Y238499D02*
X579999Y238999D01*
X579000D01*
X578500Y238499D01*
Y236500D01*
X579000Y236000D01*
X579999D01*
X580499Y236500D01*
X581499Y238999D02*
Y236500D01*
X581999Y236000D01*
X582999D01*
X583498Y236500D01*
Y238999D01*
X584498Y236000D02*
X585498D01*
X584998D01*
Y238999D01*
X584498Y238499D01*
X586997Y235500D02*
X588997D01*
X589996Y236000D02*
X590996D01*
X590496D01*
Y238999D01*
X589996Y238499D01*
X592495Y235500D02*
X594495D01*
X595495Y236000D02*
Y238999D01*
X596994D01*
X597494Y238499D01*
Y237499D01*
X596994Y237000D01*
X595495D01*
X598493Y236000D02*
X599493D01*
X598993D01*
Y238999D01*
X598493Y238499D01*
D14*
X425925Y423996D02*
X429074D01*
X450925Y206004D02*
X454075D01*
X485925D02*
X489075D01*
X520926D02*
X524075D01*
M02*
