G04*
G04 #@! TF.GenerationSoftware,Altium Limited,Altium Designer,19.1.7 (138)*
G04*
G04 Layer_Color=8388736*
%FSLAX25Y25*%
%MOIN*%
G70*
G01*
G75*
%ADD15R,0.07296X0.08674*%
%ADD16R,0.28359X0.12611*%
%ADD17R,0.04343X0.03950*%
%ADD18R,0.03950X0.04343*%
%ADD19R,0.04343X0.03556*%
%ADD20R,0.02965X0.04540*%
%ADD21R,0.06706X0.04737*%
%ADD22R,0.13595X0.09265*%
%ADD23R,0.04737X0.09265*%
%ADD24R,0.05500X0.02000*%
%ADD25R,0.02000X0.05500*%
%ADD26R,0.03556X0.04343*%
%ADD27R,0.03950X0.03950*%
%ADD28R,0.05800X0.22453*%
%ADD29R,0.07493X0.05131*%
%ADD30R,0.09855X0.09855*%
%ADD31R,0.07690X0.03359*%
%ADD32R,0.03950X0.07099*%
%ADD33R,0.18950X0.12611*%
%ADD34R,0.03359X0.07296*%
%ADD35C,0.06706*%
%ADD36R,0.06706X0.06706*%
%ADD37C,0.19540*%
%ADD38R,0.07453X0.07453*%
%ADD39C,0.07453*%
%ADD40C,0.06800*%
%ADD41R,0.06800X0.06800*%
%ADD42R,0.06800X0.06800*%
%ADD43C,0.09068*%
%ADD44R,0.09068X0.09068*%
%ADD45C,0.03200*%
%ADD46C,0.05800*%
%ADD47C,0.20800*%
%ADD48C,0.36800*%
D15*
X445000Y484980D02*
D03*
Y470020D02*
D03*
D16*
X427500Y390295D02*
D03*
Y414705D02*
D03*
D17*
Y436988D02*
D03*
Y442500D02*
D03*
X455000Y443012D02*
D03*
Y437500D02*
D03*
X472500Y254744D02*
D03*
Y260256D02*
D03*
X455000Y260256D02*
D03*
Y254744D02*
D03*
X442500Y260256D02*
D03*
Y254744D02*
D03*
X445000Y329744D02*
D03*
Y335256D02*
D03*
X485000Y227500D02*
D03*
Y221988D02*
D03*
X477500Y227500D02*
D03*
Y221988D02*
D03*
X447500Y427500D02*
D03*
Y421988D02*
D03*
X516500Y200201D02*
D03*
Y194689D02*
D03*
X509000Y200201D02*
D03*
Y194689D02*
D03*
D18*
X460512Y427500D02*
D03*
X455000D02*
D03*
Y420000D02*
D03*
X460512D02*
D03*
X610256Y237500D02*
D03*
X604744D02*
D03*
X610256Y230000D02*
D03*
X604744D02*
D03*
X634488Y330000D02*
D03*
X640000D02*
D03*
X634488Y337500D02*
D03*
X640000D02*
D03*
X610256Y377500D02*
D03*
X604744D02*
D03*
X610256Y370000D02*
D03*
X604744D02*
D03*
X634488Y470000D02*
D03*
X640000D02*
D03*
X634488Y477500D02*
D03*
X640000D02*
D03*
Y617500D02*
D03*
X634488D02*
D03*
X640000Y610000D02*
D03*
X634488D02*
D03*
X604744Y517500D02*
D03*
X610256D02*
D03*
X604744Y510000D02*
D03*
X610256D02*
D03*
D19*
X462500Y437047D02*
D03*
Y442953D02*
D03*
X447500Y442953D02*
D03*
Y437047D02*
D03*
X480000Y254547D02*
D03*
Y260453D02*
D03*
X462500Y260453D02*
D03*
Y254547D02*
D03*
X499000Y200398D02*
D03*
Y194492D02*
D03*
X685000Y287047D02*
D03*
Y292953D02*
D03*
X675000Y307500D02*
D03*
Y313406D02*
D03*
X685000Y427047D02*
D03*
Y432953D02*
D03*
X675000Y447500D02*
D03*
Y453406D02*
D03*
Y593406D02*
D03*
Y587500D02*
D03*
X685000Y572953D02*
D03*
Y567047D02*
D03*
D20*
X441240Y427283D02*
D03*
X437500D02*
D03*
X433760D02*
D03*
Y437716D02*
D03*
X437500D02*
D03*
X441240D02*
D03*
D21*
X462500Y230000D02*
D03*
X441500D02*
D03*
Y242500D02*
D03*
X462500D02*
D03*
D22*
X504000Y236461D02*
D03*
D23*
X513055Y213429D02*
D03*
X504000D02*
D03*
X494945D02*
D03*
D24*
X434862Y285236D02*
D03*
Y287205D02*
D03*
Y289173D02*
D03*
Y291142D02*
D03*
Y293110D02*
D03*
Y295079D02*
D03*
Y297047D02*
D03*
Y299016D02*
D03*
Y300984D02*
D03*
Y302953D02*
D03*
Y304921D02*
D03*
Y306890D02*
D03*
Y308858D02*
D03*
Y310827D02*
D03*
Y312795D02*
D03*
Y314764D02*
D03*
X480138D02*
D03*
Y312795D02*
D03*
Y310827D02*
D03*
Y308858D02*
D03*
Y306890D02*
D03*
Y304921D02*
D03*
Y302953D02*
D03*
Y300984D02*
D03*
Y299016D02*
D03*
Y297047D02*
D03*
Y295079D02*
D03*
Y293110D02*
D03*
Y291142D02*
D03*
Y289173D02*
D03*
Y287205D02*
D03*
Y285236D02*
D03*
D25*
X442736Y322638D02*
D03*
X444705D02*
D03*
X446673D02*
D03*
X448642D02*
D03*
X450610D02*
D03*
X452579D02*
D03*
X454547D02*
D03*
X456516D02*
D03*
X458484D02*
D03*
X460453D02*
D03*
X462421D02*
D03*
X464390D02*
D03*
X466358D02*
D03*
X468327D02*
D03*
X470295D02*
D03*
X472264D02*
D03*
Y277362D02*
D03*
X470295D02*
D03*
X468327D02*
D03*
X466358D02*
D03*
X464390D02*
D03*
X462421D02*
D03*
X460453D02*
D03*
X458484D02*
D03*
X456516D02*
D03*
X454547D02*
D03*
X452579D02*
D03*
X450610D02*
D03*
X448642D02*
D03*
X446673D02*
D03*
X444705D02*
D03*
X442736D02*
D03*
D26*
X425453Y292500D02*
D03*
X419547D02*
D03*
X420453Y257500D02*
D03*
X414547D02*
D03*
X420453Y237500D02*
D03*
X414547D02*
D03*
X420453Y227500D02*
D03*
X414547D02*
D03*
X420000Y217500D02*
D03*
X414094D02*
D03*
X576453Y277500D02*
D03*
X570547D02*
D03*
X637953Y255000D02*
D03*
X632047D02*
D03*
X637953Y287500D02*
D03*
X632047D02*
D03*
X576453Y417500D02*
D03*
X570547D02*
D03*
X637953Y395000D02*
D03*
X632047D02*
D03*
X637953Y427500D02*
D03*
X632047D02*
D03*
X570547Y557500D02*
D03*
X576453D02*
D03*
X632047Y535000D02*
D03*
X637953D02*
D03*
X632047Y567500D02*
D03*
X637953D02*
D03*
D27*
X491500Y200398D02*
D03*
Y194492D02*
D03*
D28*
X619591Y217500D02*
D03*
X640409D02*
D03*
X619591Y357500D02*
D03*
X640409D02*
D03*
Y497500D02*
D03*
X619591D02*
D03*
D29*
X622500Y249685D02*
D03*
Y260315D02*
D03*
Y389685D02*
D03*
Y400315D02*
D03*
Y540315D02*
D03*
Y529685D02*
D03*
D30*
X587500Y277500D02*
D03*
X605216D02*
D03*
X587500Y417500D02*
D03*
X605216D02*
D03*
X587500Y557500D02*
D03*
X605216D02*
D03*
D31*
X607500Y245000D02*
D03*
Y250000D02*
D03*
Y255000D02*
D03*
Y260000D02*
D03*
X585453Y245000D02*
D03*
Y250000D02*
D03*
Y255000D02*
D03*
Y260000D02*
D03*
X607500Y385000D02*
D03*
Y390000D02*
D03*
Y395000D02*
D03*
Y400000D02*
D03*
X585453Y385000D02*
D03*
Y390000D02*
D03*
Y395000D02*
D03*
Y400000D02*
D03*
Y540000D02*
D03*
Y535000D02*
D03*
Y530000D02*
D03*
Y525000D02*
D03*
X607500Y540000D02*
D03*
Y535000D02*
D03*
Y530000D02*
D03*
Y525000D02*
D03*
D32*
X662500Y255000D02*
D03*
X657500D02*
D03*
X652500D02*
D03*
X647500D02*
D03*
X662500Y233165D02*
D03*
X657500D02*
D03*
X652500D02*
D03*
X647500D02*
D03*
X662500Y287500D02*
D03*
X657500D02*
D03*
X652500D02*
D03*
X647500D02*
D03*
X662500Y265665D02*
D03*
X657500D02*
D03*
X652500D02*
D03*
X647500D02*
D03*
X662500Y395000D02*
D03*
X657500D02*
D03*
X652500D02*
D03*
X647500D02*
D03*
X662500Y373165D02*
D03*
X657500D02*
D03*
X652500D02*
D03*
X647500D02*
D03*
X662500Y427500D02*
D03*
X657500D02*
D03*
X652500D02*
D03*
X647500D02*
D03*
X662500Y405665D02*
D03*
X657500D02*
D03*
X652500D02*
D03*
X647500D02*
D03*
Y513165D02*
D03*
X652500D02*
D03*
X657500D02*
D03*
X662500D02*
D03*
X647500Y535000D02*
D03*
X652500D02*
D03*
X657500D02*
D03*
X662500D02*
D03*
X647500Y545665D02*
D03*
X652500D02*
D03*
X657500D02*
D03*
X662500D02*
D03*
X647500Y567500D02*
D03*
X652500D02*
D03*
X657500D02*
D03*
X662500D02*
D03*
D33*
X655000Y238500D02*
D03*
Y271000D02*
D03*
Y378500D02*
D03*
Y411000D02*
D03*
Y518500D02*
D03*
Y551000D02*
D03*
D34*
X662500Y336122D02*
D03*
X657500D02*
D03*
X652500D02*
D03*
X647500D02*
D03*
X662500Y313878D02*
D03*
X657500D02*
D03*
X652500D02*
D03*
X647500D02*
D03*
X662500Y476122D02*
D03*
X657500D02*
D03*
X652500D02*
D03*
X647500D02*
D03*
X662500Y453878D02*
D03*
X657500D02*
D03*
X652500D02*
D03*
X647500D02*
D03*
Y593878D02*
D03*
X652500D02*
D03*
X657500D02*
D03*
X662500D02*
D03*
X647500Y616122D02*
D03*
X652500D02*
D03*
X657500D02*
D03*
X662500D02*
D03*
D35*
X632000Y549000D02*
D03*
X622000D02*
D03*
X632000Y559000D02*
D03*
X622000D02*
D03*
X632000Y409000D02*
D03*
X622000D02*
D03*
X632000Y419000D02*
D03*
X622000D02*
D03*
X632000Y269000D02*
D03*
X622000D02*
D03*
X632000Y279000D02*
D03*
X622000D02*
D03*
X512500Y430000D02*
D03*
X522500D02*
D03*
X512500Y420000D02*
D03*
X522500D02*
D03*
X512500Y410000D02*
D03*
X522500D02*
D03*
X512500Y400000D02*
D03*
X522500D02*
D03*
X512500Y390000D02*
D03*
X522500D02*
D03*
X512500Y380000D02*
D03*
X522500D02*
D03*
X512500Y370000D02*
D03*
X522500D02*
D03*
X512500Y360000D02*
D03*
X522500D02*
D03*
X512500Y350000D02*
D03*
X522500D02*
D03*
X512500Y340000D02*
D03*
X522500D02*
D03*
X512500Y330000D02*
D03*
X522500D02*
D03*
X512500Y320000D02*
D03*
X522500D02*
D03*
X512500Y310000D02*
D03*
X522500D02*
D03*
X512500Y300000D02*
D03*
X522500D02*
D03*
X512500Y290000D02*
D03*
X522500D02*
D03*
X512500Y280000D02*
D03*
X522500D02*
D03*
X512500Y270000D02*
D03*
X522500D02*
D03*
X512500Y260000D02*
D03*
X532500Y430000D02*
D03*
Y420000D02*
D03*
Y410000D02*
D03*
Y400000D02*
D03*
Y390000D02*
D03*
Y380000D02*
D03*
Y370000D02*
D03*
Y360000D02*
D03*
Y350000D02*
D03*
Y340000D02*
D03*
Y330000D02*
D03*
Y320000D02*
D03*
Y310000D02*
D03*
Y300000D02*
D03*
Y290000D02*
D03*
Y280000D02*
D03*
Y270000D02*
D03*
X405000Y257500D02*
D03*
Y247500D02*
D03*
Y237500D02*
D03*
Y227500D02*
D03*
Y217500D02*
D03*
D36*
X522500Y260000D02*
D03*
X532500D02*
D03*
X405000Y267500D02*
D03*
D37*
X420590Y576240D02*
D03*
Y477854D02*
D03*
D38*
X426181Y505236D02*
D03*
D39*
X415000Y510689D02*
D03*
X426181Y516142D02*
D03*
X415000Y521594D02*
D03*
X426181Y527047D02*
D03*
X415000Y532500D02*
D03*
X426181Y537953D02*
D03*
X415000Y543405D02*
D03*
X426181Y548858D02*
D03*
D40*
X404500Y367500D02*
D03*
Y450000D02*
D03*
X566500Y184500D02*
D03*
X633000D02*
D03*
D41*
X414343Y367500D02*
D03*
Y450000D02*
D03*
D42*
X566500Y155000D02*
D03*
X633000D02*
D03*
D43*
X693012Y255807D02*
D03*
X731988D02*
D03*
Y269193D02*
D03*
X693012Y395807D02*
D03*
X731988D02*
D03*
Y409193D02*
D03*
Y549193D02*
D03*
Y535807D02*
D03*
X693012D02*
D03*
D44*
Y269193D02*
D03*
Y409193D02*
D03*
Y549193D02*
D03*
D45*
X504576Y194521D02*
D03*
X520500Y194500D02*
D03*
X487500Y200500D02*
D03*
X548304Y294798D02*
D03*
X555500Y287551D02*
D03*
X556500Y522500D02*
D03*
X547500Y352000D02*
D03*
X559500Y340000D02*
D03*
X549000Y402500D02*
D03*
Y397500D02*
D03*
X551500Y400000D02*
D03*
Y371500D02*
D03*
X559500Y270500D02*
D03*
Y275500D02*
D03*
X556500Y517500D02*
D03*
X559250Y416000D02*
D03*
X559000Y556500D02*
D03*
X575000Y431500D02*
D03*
X557000Y292500D02*
D03*
X574000Y540000D02*
D03*
X569500Y566500D02*
D03*
X447500Y433500D02*
D03*
X430012Y287205D02*
D03*
X486061Y312795D02*
D03*
X494500Y244500D02*
D03*
X503000D02*
D03*
X439500Y238000D02*
D03*
X432625D02*
D03*
X436000Y282000D02*
D03*
X426500Y271000D02*
D03*
X431000D02*
D03*
X436000Y264000D02*
D03*
X431000D02*
D03*
X426500Y263941D02*
D03*
X452000Y230000D02*
D03*
X574500Y292500D02*
D03*
X465000Y420000D02*
D03*
Y427500D02*
D03*
X427500Y432500D02*
D03*
X428500Y427500D02*
D03*
X485000Y217244D02*
D03*
X477500D02*
D03*
X445000Y338500D02*
D03*
X562500Y342500D02*
D03*
X455000Y250500D02*
D03*
X442500D02*
D03*
X414953Y292500D02*
D03*
X566000Y320000D02*
D03*
X562500Y482500D02*
D03*
X575000D02*
D03*
X566000Y460000D02*
D03*
X575000D02*
D03*
Y320000D02*
D03*
Y342500D02*
D03*
Y400000D02*
D03*
X574000Y535000D02*
D03*
X575000Y395000D02*
D03*
Y260000D02*
D03*
Y255000D02*
D03*
X634494Y325506D02*
D03*
Y465506D02*
D03*
X634500Y605500D02*
D03*
X462500Y250500D02*
D03*
X615000Y237500D02*
D03*
X592500Y250000D02*
D03*
X662500Y320000D02*
D03*
X615000Y377500D02*
D03*
X592500Y390000D02*
D03*
X662500Y460000D02*
D03*
X615000Y517500D02*
D03*
X592500Y530000D02*
D03*
X662500Y600000D02*
D03*
D46*
X495000Y222000D02*
D03*
X655000Y297500D02*
D03*
X662500D02*
D03*
X670000Y292500D02*
D03*
X613000Y222500D02*
D03*
Y212500D02*
D03*
X670000Y432500D02*
D03*
X655000Y437500D02*
D03*
X662500D02*
D03*
X613000Y362500D02*
D03*
Y352500D02*
D03*
X662500Y577500D02*
D03*
X670000Y572500D02*
D03*
X655000Y577500D02*
D03*
X613000Y502500D02*
D03*
Y492500D02*
D03*
D47*
X397500Y115000D02*
D03*
Y612500D02*
D03*
X707500D02*
D03*
D48*
X695000Y167500D02*
D03*
Y127500D02*
D03*
X757500D02*
D03*
X695000Y207500D02*
D03*
X757500D02*
D03*
Y167500D02*
D03*
X760000Y570000D02*
D03*
Y290000D02*
D03*
Y430000D02*
D03*
M02*
