M48
;Layer_Color=9474304
;FILE_FORMAT=2:5
INCH,LZ
;TYPE=PLATED
T1F00S00C0.01300
T2F00S00C0.02800
T3F00S00C0.03000
T4F00S00C0.03500
T5F00S00C0.03543
T6F00S00C0.06299
T7F00S00C0.18000
%
T01
X03175Y01665
Y01715
X03315
Y01665
X03335Y01615
X03475
X03315Y0205
Y02095
X0317
Y0205
X03175Y0269
Y0274
X03315
Y0269
X03335Y0264
X03475
X03315Y03075
Y0312
X0317
Y03075
X0434772Y0301
X04595Y03115
X0463Y02145
X04595Y0209
X04425Y0226
X0434772Y01985
X0308Y0202
Y0208
X0296Y0197
X0291Y02015
X02765Y02155
X02595
X0294Y025
X02985Y02455
X0307Y02635
X0312Y0259
X02925Y0278
X02855Y0285
Y0301
X029Y0306
X0296Y02955
X0303Y02885
X0279Y02655
X02725Y0272
X0273Y03685
Y03795
X0293
Y03685
X0248
Y03745
X03175Y03765
Y03715
X03315
Y03765
X03335Y03665
X03475
X0325Y041
Y04145
X0317
Y041
X0434772Y04035
X04425Y0431
X0463Y04195
X04595Y0414
X0463Y0317
X04425Y03285
T02
X03625Y0121
Y01285
Y01365
Y02235
Y0231
Y0239
X0333Y02175
X0321
X03985Y0206
X04065
X0414
Y0198
Y03005
Y03085
X04065
X03985
X03625Y0326
Y03335
Y03415
X0333Y032
X0321
X03985Y0411
X04065
X0414
Y0403
T03
X01575Y04815
X0168
X0183Y0481
X01925
X0225Y04805
X02335
X0243
X0253Y0481
X01475Y04815
X0138
X01275
X0118Y0481
T04
X04435Y0117
Y01465
X03975Y0458
X0368
T05
X0163Y01655
X0173
X0183
X0193
X0203
X0213
X0223
X0233
X0243
X0253
X0263
X0273
X0283
X0293
Y01755
X0283
X0273
X0263
X0253
X0243
X0233
X0223
X0213
X0203
X0193
X0183
X0173
X0163
X0153
Y01655
X0143
Y01755
X0133
Y01655
X0123
Y01755
X0113
Y01655
Y04055
X0123
X0133
X0143
X0153
Y04155
X0143
X0133
X0123
X0113
X0163
X0173
X0183
X0193
X0203
X0213
X0223
X0233
X0243
X0253
X0263
X0273
X0283
X0293
Y04055
X0283
X0273
X0263
X0253
X0243
X0233
X0223
X0213
X0203
X0193
X0183
X0173
X0163
T06
X0472512Y0167807
Y0181193
X0511488
Y0167807
Y0270307
Y0283693
X0472512
Y0270307
Y0372807
Y0386193
X0511488
Y0372807
T07
X02825Y01255
X0327
X0546Y0175
X05465Y0278
X02825Y04655
X0327Y0466
X0438Y04655
X0492Y04645
X0548Y04655
X0546Y038
M30
