G04*
G04 #@! TF.GenerationSoftware,Altium Limited,Altium Designer,19.1.7 (138)*
G04*
G04 Layer_Color=8421504*
%FSLAX25Y25*%
%MOIN*%
G70*
G01*
G75*
%ADD15R,0.02756X0.03543*%
%ADD16R,0.03150X0.06299*%
%ADD17R,0.18000X0.11811*%
%ADD18R,0.06890X0.02559*%
%ADD19R,0.09055X0.09055*%
%ADD20R,0.06693X0.04331*%
%ADD21R,0.03543X0.03150*%
%ADD22R,0.04528X0.21654*%
%ADD23R,0.01378X0.03898*%
G04:AMPARAMS|DCode=24|XSize=23.62mil|YSize=57.09mil|CornerRadius=2.01mil|HoleSize=0mil|Usage=FLASHONLY|Rotation=90.000|XOffset=0mil|YOffset=0mil|HoleType=Round|Shape=RoundedRectangle|*
%AMROUNDEDRECTD24*
21,1,0.02362,0.05307,0,0,90.0*
21,1,0.01961,0.05709,0,0,90.0*
1,1,0.00402,0.02653,0.00980*
1,1,0.00402,0.02653,-0.00980*
1,1,0.00402,-0.02653,-0.00980*
1,1,0.00402,-0.02653,0.00980*
%
%ADD24ROUNDEDRECTD24*%
%ADD25R,0.03543X0.02756*%
%ADD26R,0.03937X0.12598*%
D15*
X379547Y300500D02*
D03*
X385453D02*
D03*
X379547Y269000D02*
D03*
X385453D02*
D03*
X327047Y290500D02*
D03*
X332953D02*
D03*
X463047Y295000D02*
D03*
X468953D02*
D03*
X385453Y403000D02*
D03*
X379547D02*
D03*
X385453Y371500D02*
D03*
X379547D02*
D03*
X332953Y393000D02*
D03*
X327047D02*
D03*
X463047Y397500D02*
D03*
X468953D02*
D03*
Y192500D02*
D03*
X463047D02*
D03*
X379547Y166500D02*
D03*
X385453D02*
D03*
X379547Y198000D02*
D03*
X385453D02*
D03*
X327047Y188000D02*
D03*
X332953D02*
D03*
D16*
X407500Y300500D02*
D03*
X402500D02*
D03*
X397500D02*
D03*
X392500D02*
D03*
X407500Y277665D02*
D03*
X402500D02*
D03*
X397500D02*
D03*
X392500D02*
D03*
X407500Y269000D02*
D03*
X402500D02*
D03*
X397500D02*
D03*
X392500D02*
D03*
X407500Y246165D02*
D03*
X402500D02*
D03*
X397500D02*
D03*
X392500D02*
D03*
Y380165D02*
D03*
X397500D02*
D03*
X402500D02*
D03*
X407500D02*
D03*
X392500Y403000D02*
D03*
X397500D02*
D03*
X402500D02*
D03*
X407500D02*
D03*
X392500Y348665D02*
D03*
X397500D02*
D03*
X402500D02*
D03*
X407500D02*
D03*
X392500Y371500D02*
D03*
X397500D02*
D03*
X402500D02*
D03*
X407500D02*
D03*
Y166500D02*
D03*
X402500D02*
D03*
X397500D02*
D03*
X392500D02*
D03*
X407500Y143665D02*
D03*
X402500D02*
D03*
X397500D02*
D03*
X392500D02*
D03*
X407500Y198000D02*
D03*
X402500D02*
D03*
X397500D02*
D03*
X392500D02*
D03*
X407500Y175165D02*
D03*
X402500D02*
D03*
X397500D02*
D03*
X392500D02*
D03*
D17*
X400000Y284500D02*
D03*
Y253000D02*
D03*
Y387000D02*
D03*
Y355500D02*
D03*
Y150500D02*
D03*
Y182000D02*
D03*
D18*
X340453Y274000D02*
D03*
Y269000D02*
D03*
Y264000D02*
D03*
Y259000D02*
D03*
X362500Y274000D02*
D03*
Y269000D02*
D03*
Y264000D02*
D03*
Y259000D02*
D03*
Y361500D02*
D03*
Y366500D02*
D03*
Y371500D02*
D03*
Y376500D02*
D03*
X340453Y361500D02*
D03*
Y366500D02*
D03*
Y371500D02*
D03*
Y376500D02*
D03*
Y171500D02*
D03*
Y166500D02*
D03*
Y161500D02*
D03*
Y156500D02*
D03*
X362500Y171500D02*
D03*
Y166500D02*
D03*
Y161500D02*
D03*
Y156500D02*
D03*
D19*
X361358Y290500D02*
D03*
X343642D02*
D03*
Y393000D02*
D03*
X361358D02*
D03*
Y188000D02*
D03*
X343642D02*
D03*
D20*
X372000Y274315D02*
D03*
Y263685D02*
D03*
Y366185D02*
D03*
Y376815D02*
D03*
Y171815D02*
D03*
Y161185D02*
D03*
D21*
X359500Y252256D02*
D03*
Y246744D02*
D03*
X365500Y252256D02*
D03*
Y246744D02*
D03*
X453500Y328756D02*
D03*
Y323244D02*
D03*
X447500Y328756D02*
D03*
Y323244D02*
D03*
X359500Y349244D02*
D03*
Y354756D02*
D03*
X365500Y349244D02*
D03*
Y354756D02*
D03*
X453500Y431256D02*
D03*
Y425744D02*
D03*
X447500Y431256D02*
D03*
Y425744D02*
D03*
Y220744D02*
D03*
Y226256D02*
D03*
X453500Y220744D02*
D03*
Y226256D02*
D03*
X365500Y149756D02*
D03*
Y144244D02*
D03*
X359500Y149756D02*
D03*
Y144244D02*
D03*
D22*
X368091Y231000D02*
D03*
X391910D02*
D03*
X368091Y333500D02*
D03*
X391910D02*
D03*
Y128500D02*
D03*
X368091D02*
D03*
D23*
X467213Y301500D02*
D03*
X469772D02*
D03*
X472331D02*
D03*
X474890D02*
D03*
X467213Y317051D02*
D03*
X469772D02*
D03*
X472331D02*
D03*
X474890D02*
D03*
X467213Y404000D02*
D03*
X469772D02*
D03*
X472331D02*
D03*
X474890D02*
D03*
X467213Y419551D02*
D03*
X469772D02*
D03*
X472331D02*
D03*
X474890D02*
D03*
Y214551D02*
D03*
X472331D02*
D03*
X469772D02*
D03*
X467213D02*
D03*
X474890Y199000D02*
D03*
X472331D02*
D03*
X469772D02*
D03*
X467213D02*
D03*
D24*
X429043Y316000D02*
D03*
Y311000D02*
D03*
Y306000D02*
D03*
Y301000D02*
D03*
X450500Y316000D02*
D03*
Y311000D02*
D03*
Y306000D02*
D03*
Y301000D02*
D03*
X429043Y418500D02*
D03*
Y413500D02*
D03*
Y408500D02*
D03*
Y403500D02*
D03*
X450500Y418500D02*
D03*
Y413500D02*
D03*
Y408500D02*
D03*
Y403500D02*
D03*
Y198500D02*
D03*
Y203500D02*
D03*
Y208500D02*
D03*
Y213500D02*
D03*
X429043Y198500D02*
D03*
Y203500D02*
D03*
Y208500D02*
D03*
Y213500D02*
D03*
D25*
X422000Y304547D02*
D03*
Y310453D02*
D03*
Y292047D02*
D03*
Y297953D02*
D03*
X459500Y301047D02*
D03*
Y306953D02*
D03*
X422000Y407047D02*
D03*
Y412953D02*
D03*
Y394547D02*
D03*
Y400453D02*
D03*
X459500Y403547D02*
D03*
Y409453D02*
D03*
Y204453D02*
D03*
Y198547D02*
D03*
X422000Y207953D02*
D03*
Y202047D02*
D03*
Y195453D02*
D03*
Y189547D02*
D03*
D26*
X435839Y277000D02*
D03*
X453161D02*
D03*
X435839Y379500D02*
D03*
X453161D02*
D03*
Y174500D02*
D03*
X435839D02*
D03*
M02*
