M48
;Layer_Color=9474304
;FILE_FORMAT=2:5
INCH,TZ
;TYPE=PLATED
T1F00S00C0.01300
T2F00S00C0.02800
T3F00S00C0.03543
T4F00S00C0.03800
T5F00S00C0.04291
T6F00S00C0.06299
T7F00S00C0.12835
T8F00S00C0.17000
%
T01
X469000Y160500
X472500Y174000
X500000Y174500
X507500Y174000
X504000Y160500
X493740Y164740
X528740
X525500Y197437
X527500Y216500
Y223500
X534000Y221000
X537500Y224500
X530000Y236500
X526500Y233000
X492500Y223500
Y216500
X500000Y206000
X490500Y197437
X480000Y270000
Y280000
X471000Y280500
Y289621
X480000Y290000
Y299500
Y310000
X536000Y308500
X541500Y303000
X542500Y292500
X567500
Y262500
Y252500
X548000Y256500
X555000Y265000
X592500Y250000
X615000Y237500
X452000Y242500
X452500Y263000
X434000Y286000
X426500Y292500
X422500Y296500
X431000Y300500
X434000Y304000
X428000
X417000
X412500Y290500
X402453Y308000
X415500Y250000
X430000Y206000
X430000Y174500
X437500Y174000
X434000Y160500
X458740Y164740
X465000Y174500
X465000Y206000
X457500Y216500
Y223500
X455500Y197437
X415000Y325000
X410000
X425000Y345000
X432500Y359409
X407500Y370000
X407500Y377500
Y385000
X422970Y420530
X427500Y426500
X436000Y441500
X443500
X448000Y459000
X480000Y440000
Y430000
Y420000
Y410000
Y400000
Y390000
Y380000
Y370000
Y360000
Y350000
Y340000
Y330000
X474000Y328000
X480000Y320000
X534500Y340000
Y350000
Y360000
X550000
X555000Y365000
X542500Y370000
X547000Y350000
Y338000
X558000Y320000
X567500
Y392500
Y402500
X545000
X547500Y390000
X592500
X615000Y377500
X567500Y431500
X555000Y428500
X558000Y460000
X567500
X634494Y465506
X662500Y460000
X675000Y457500
Y317500
X662500Y320000
X634494Y325506
X634500Y605500
X662500Y600000
X675000Y597500
X572500Y571500
X563500
X558000Y561500
X554000
Y553500
X558000
X552500Y542500
Y530000
X567500Y532500
Y542500
X592500Y530000
X615000Y517500
X515000Y553500
X510000
X505000
Y561500
X510000
X515000
X445000Y564421
X437500
X431500Y546921
X432500Y526921
X437500Y527921
X442423Y478424
X448000Y479500
T02
X655000Y297500
X663500
X670000Y292500
X613000Y222500
Y212500
X410445Y393500
X404961Y441000
Y450843
X613000Y362500
Y352500
X655000Y437500
X663500
X670000Y432500
Y572500
X663500Y577500
X655000
X613000Y502500
Y492500
X475000Y555079
Y564921
X405000Y529843
Y520000
T03
X632000Y269000
Y279000
X622000
Y269000
X520000Y275000
X510000
X500000
Y285000
X510000
Y295000
X500000
Y305000
X510000
X520000
Y295000
Y285000
X507500Y200000
Y190000
Y180000
X472500
Y190000
Y200000
X437500
Y190000
Y180000
X397500Y232500
Y242500
Y252500
Y262500
Y272500
Y282500
Y342500
X387500
Y425000
X397500
X453929Y388929
X461000Y396000
X468071Y403071
X500000Y405000
Y395000
Y385000
Y375000
Y365000
Y355000
Y345000
Y335000
Y325000
Y315000
X510000
Y325000
Y335000
Y345000
Y355000
Y365000
Y375000
Y385000
Y395000
Y405000
Y415000
X500000
Y425000
X510000
Y435000
X500000
Y445000
X510000
X520000
Y435000
Y425000
Y415000
Y405000
Y395000
Y385000
Y375000
Y365000
Y355000
Y345000
Y335000
Y325000
Y315000
X500000Y462500
X622000Y419000
Y409000
X632000
Y419000
Y549000
Y559000
X622000
Y549000
X500000Y472500
X397500Y505000
X387500
T04
X575000Y152500
X640000Y153000
Y182500
X575000Y182000
T05
X463642Y131319
X458189Y142500
X469095
X480000
X490906
X501811
X496358Y131319
X485453
X474547
X480000Y584409
X469095
X474547Y595590
X485453
X496358
X501811Y584409
X490906
X458189
X463642Y595590
T06
X693012Y255807
Y269193
X731988
Y255807
Y395807
Y409193
X693012
Y395807
Y535807
Y549193
X731988
Y535807
T07
X430807Y136909
X529193
X529193Y590000
X430807
T08
X397500Y115000
X695000Y127500
X757500
Y167500
X695000
X760000Y290000
Y430000
Y570000
X707500Y612500
X397500
M30
