G04*
G04 #@! TF.GenerationSoftware,Altium Limited,Altium Designer,19.1.7 (138)*
G04*
G04 Layer_Color=32896*
%FSLAX25Y25*%
%MOIN*%
G70*
G01*
G75*
%ADD12C,0.01000*%
%ADD13C,0.00600*%
G36*
X438500Y556700D02*
X439300D01*
Y555900D01*
X440100D01*
Y555100D01*
X440900D01*
Y554300D01*
X441700D01*
Y553500D01*
X442500D01*
Y551100D01*
X443300D01*
Y544700D01*
X442500D01*
Y543100D01*
X441700D01*
Y540700D01*
X440900D01*
Y539900D01*
X440100D01*
Y539100D01*
X439300D01*
Y537500D01*
X438500D01*
Y534300D01*
X440900D01*
Y535100D01*
X442500D01*
Y535900D01*
X444100D01*
Y536700D01*
X444900D01*
Y537500D01*
X445700D01*
Y538300D01*
X446500D01*
Y539100D01*
X448100D01*
Y539900D01*
X452900D01*
Y539100D01*
X453700D01*
Y538300D01*
X455300D01*
Y537500D01*
X456100D01*
Y536700D01*
X456900D01*
Y535900D01*
X457700D01*
Y535100D01*
X458500D01*
Y534300D01*
X459300D01*
Y531100D01*
X460100D01*
Y525500D01*
X459300D01*
Y523900D01*
X458500D01*
Y521500D01*
X457700D01*
Y520700D01*
X456900D01*
Y519900D01*
X456100D01*
Y519100D01*
X454500D01*
Y518300D01*
X453700D01*
Y516700D01*
X454500D01*
Y515900D01*
X456100D01*
Y515100D01*
X456900D01*
Y514300D01*
X458500D01*
Y512700D01*
X459300D01*
Y511100D01*
X460100D01*
Y508700D01*
X460900D01*
Y503100D01*
X460100D01*
Y499100D01*
X459300D01*
Y497500D01*
X458500D01*
Y496700D01*
X457700D01*
Y495100D01*
X456900D01*
Y494300D01*
X456100D01*
Y493500D01*
X454500D01*
Y492700D01*
X446500D01*
Y493500D01*
X444100D01*
Y492700D01*
X440900D01*
Y493500D01*
X440100D01*
Y494300D01*
X435300D01*
Y495100D01*
X433700D01*
Y494300D01*
X432900D01*
Y493500D01*
X432100D01*
Y490300D01*
X434500D01*
Y491100D01*
X436100D01*
Y490300D01*
X436900D01*
Y488700D01*
X432100D01*
Y486300D01*
X431300D01*
Y487100D01*
X430500D01*
Y487900D01*
X429700D01*
Y489500D01*
X428900D01*
Y493500D01*
X428100D01*
Y494300D01*
X427300D01*
Y493500D01*
X425700D01*
Y492700D01*
X424900D01*
Y487100D01*
X425700D01*
Y483900D01*
X424900D01*
Y482300D01*
X425700D01*
Y479900D01*
X424900D01*
Y475900D01*
X424100D01*
Y474300D01*
X423300D01*
Y473500D01*
X422500D01*
Y471900D01*
X421700D01*
Y471100D01*
X420900D01*
Y470300D01*
X416100D01*
Y471100D01*
X414500D01*
Y471900D01*
X412900D01*
Y472700D01*
X411300D01*
Y473500D01*
X410500D01*
Y474300D01*
X409700D01*
Y475100D01*
X408900D01*
Y475900D01*
X408100D01*
Y478300D01*
X407300D01*
Y480700D01*
X406500D01*
Y481500D01*
X403300D01*
Y482300D01*
X402500D01*
Y484700D01*
X401700D01*
Y492700D01*
X400900D01*
Y495100D01*
X399300D01*
Y495900D01*
X396900D01*
Y496700D01*
X394500D01*
Y495100D01*
X393700D01*
Y493500D01*
X392900D01*
Y492700D01*
X392100D01*
Y491900D01*
X391300D01*
Y490300D01*
X390500D01*
Y487900D01*
X389700D01*
Y479900D01*
X388900D01*
Y476700D01*
X389700D01*
Y475900D01*
X390500D01*
Y476700D01*
X391300D01*
Y477500D01*
X393700D01*
Y476700D01*
X396100D01*
Y475900D01*
X395300D01*
Y475100D01*
X394500D01*
Y474300D01*
X390500D01*
Y473500D01*
X388900D01*
Y472700D01*
X382500D01*
Y475100D01*
X383300D01*
Y474300D01*
X385700D01*
Y475100D01*
X386500D01*
Y480700D01*
X385700D01*
Y494300D01*
X382500D01*
Y496700D01*
X384900D01*
Y499100D01*
X384100D01*
Y500700D01*
X383300D01*
Y502300D01*
X384100D01*
Y503100D01*
X385700D01*
Y502300D01*
X386500D01*
Y501500D01*
X392100D01*
Y502300D01*
X393700D01*
Y503100D01*
X394500D01*
Y503900D01*
X395300D01*
Y504700D01*
X396100D01*
Y506300D01*
X396900D01*
Y510300D01*
X395300D01*
Y511100D01*
X392900D01*
Y510300D01*
X391300D01*
Y509500D01*
X388900D01*
Y508700D01*
X384100D01*
Y509500D01*
X383300D01*
Y510300D01*
X382500D01*
Y511100D01*
X383300D01*
Y511900D01*
X385700D01*
Y512700D01*
X387300D01*
Y515900D01*
X386500D01*
Y519100D01*
X385700D01*
Y526300D01*
X386500D01*
Y530300D01*
X387300D01*
Y531900D01*
X388100D01*
Y533500D01*
X388900D01*
Y535100D01*
X389700D01*
Y535900D01*
X390500D01*
Y537500D01*
X391300D01*
Y538300D01*
X392900D01*
Y539100D01*
X393700D01*
Y539900D01*
X394500D01*
Y540700D01*
X395300D01*
Y543100D01*
X394500D01*
Y543900D01*
X393700D01*
Y544700D01*
X392900D01*
Y545500D01*
X392100D01*
Y546300D01*
X389700D01*
Y545500D01*
X388900D01*
Y544700D01*
X388100D01*
Y543900D01*
X387300D01*
Y543100D01*
X386500D01*
Y541500D01*
X385700D01*
Y539900D01*
X384900D01*
Y539100D01*
X384100D01*
Y537500D01*
X383300D01*
Y534300D01*
X382500D01*
Y544700D01*
X383300D01*
Y546300D01*
X384100D01*
Y547100D01*
X384900D01*
Y548700D01*
X385700D01*
Y549500D01*
X386500D01*
Y550300D01*
X387300D01*
Y551100D01*
X386500D01*
Y551900D01*
X384900D01*
Y552700D01*
X384100D01*
Y553500D01*
X383300D01*
Y554300D01*
X382500D01*
Y557500D01*
X383300D01*
Y556700D01*
X384100D01*
Y555900D01*
X385700D01*
Y555100D01*
X386500D01*
Y554300D01*
X388100D01*
Y553500D01*
X390500D01*
Y552700D01*
X391300D01*
Y551900D01*
X392100D01*
Y551100D01*
X392900D01*
Y550300D01*
X393700D01*
Y548700D01*
X394500D01*
Y547100D01*
X395300D01*
Y546300D01*
X396100D01*
Y545500D01*
X396900D01*
Y544700D01*
X397700D01*
Y543100D01*
X398500D01*
Y542300D01*
X399300D01*
Y541500D01*
X400100D01*
Y540700D01*
X400900D01*
Y539900D01*
X401700D01*
Y539100D01*
X402500D01*
Y538300D01*
X403300D01*
Y537500D01*
X404100D01*
Y536700D01*
X404900D01*
Y535100D01*
X405700D01*
Y534300D01*
X407300D01*
Y533500D01*
X408100D01*
Y534300D01*
X408900D01*
Y535100D01*
X409700D01*
Y535900D01*
X410500D01*
Y536700D01*
X411300D01*
Y537500D01*
X413700D01*
Y538300D01*
X415300D01*
Y539100D01*
X418500D01*
Y539900D01*
X420100D01*
Y540700D01*
X420900D01*
Y541500D01*
X421700D01*
Y543100D01*
X422500D01*
Y544700D01*
X423300D01*
Y549500D01*
X424100D01*
Y551900D01*
X424900D01*
Y553500D01*
X425700D01*
Y555900D01*
X426500D01*
Y556700D01*
X427300D01*
Y557500D01*
X438500D01*
Y556700D01*
D02*
G37*
G36*
X486500Y507900D02*
X484900D01*
Y508700D01*
X486500D01*
Y507900D01*
D02*
G37*
G36*
X504900Y546300D02*
X506500D01*
Y545500D01*
X508900D01*
Y544700D01*
X509700D01*
Y543900D01*
X511300D01*
Y542300D01*
X512100D01*
Y540700D01*
X512900D01*
Y538300D01*
X513700D01*
Y536700D01*
X514500D01*
Y528700D01*
X513700D01*
Y526300D01*
X512900D01*
Y523900D01*
X513700D01*
Y523100D01*
X514500D01*
Y521500D01*
X515300D01*
Y519900D01*
X516100D01*
Y519100D01*
X516900D01*
Y518300D01*
X517700D01*
Y516700D01*
X518500D01*
Y515100D01*
X519300D01*
Y513500D01*
X520100D01*
Y511900D01*
X520900D01*
Y510300D01*
X521700D01*
Y507100D01*
X520900D01*
Y508700D01*
X520100D01*
Y510300D01*
X519300D01*
Y511900D01*
X518500D01*
Y513500D01*
X517700D01*
Y514300D01*
X516900D01*
Y515100D01*
X516100D01*
Y515900D01*
X515300D01*
Y516700D01*
X514500D01*
Y517500D01*
X513700D01*
Y518300D01*
X512900D01*
Y520700D01*
X511300D01*
Y521500D01*
X509700D01*
Y523900D01*
X510500D01*
Y524700D01*
X511300D01*
Y527100D01*
X512100D01*
Y530300D01*
X512900D01*
Y536700D01*
X512100D01*
Y539100D01*
X511300D01*
Y539900D01*
X510500D01*
Y540700D01*
X509700D01*
Y541500D01*
X507300D01*
Y539900D01*
X508900D01*
Y538300D01*
X509700D01*
Y536700D01*
X510500D01*
Y533500D01*
X509700D01*
Y534300D01*
X508900D01*
Y535100D01*
X507300D01*
Y534300D01*
X508100D01*
Y532700D01*
X508900D01*
Y531900D01*
X509700D01*
Y530300D01*
X508900D01*
Y529500D01*
X508100D01*
Y526300D01*
X507300D01*
Y525500D01*
X506500D01*
Y524700D01*
X504900D01*
Y525500D01*
X504100D01*
Y527900D01*
X504900D01*
Y535100D01*
X499300D01*
Y534300D01*
X498500D01*
Y531100D01*
X497700D01*
Y529500D01*
X498500D01*
Y527100D01*
X497700D01*
Y526300D01*
X492900D01*
Y525500D01*
X492100D01*
Y522300D01*
X492900D01*
Y519900D01*
X492100D01*
Y514300D01*
X491300D01*
Y515900D01*
X490500D01*
Y518300D01*
X489700D01*
Y519900D01*
X488900D01*
Y521500D01*
X488100D01*
Y523100D01*
X487300D01*
Y523900D01*
X486500D01*
Y524700D01*
X484900D01*
Y523900D01*
X483300D01*
Y523100D01*
X480900D01*
Y522300D01*
X480100D01*
Y521500D01*
X479300D01*
Y517500D01*
X478500D01*
Y515100D01*
X479300D01*
Y514300D01*
X481700D01*
Y512700D01*
X480900D01*
Y511900D01*
X480100D01*
Y508700D01*
X481700D01*
Y507900D01*
X482500D01*
Y507100D01*
X483300D01*
Y506300D01*
X481700D01*
Y507100D01*
X479300D01*
Y504700D01*
X477700D01*
Y505500D01*
X475300D01*
Y508700D01*
X476100D01*
Y509500D01*
X476900D01*
Y510300D01*
X477700D01*
Y511900D01*
X473700D01*
Y513500D01*
X474500D01*
Y514300D01*
X475300D01*
Y515900D01*
X476100D01*
Y516700D01*
X476900D01*
Y517500D01*
X477700D01*
Y519100D01*
X476900D01*
Y519900D01*
X476100D01*
Y520700D01*
X475300D01*
Y521500D01*
X474500D01*
Y523100D01*
X472900D01*
Y523900D01*
X472100D01*
Y525500D01*
X471300D01*
Y527100D01*
X470500D01*
Y527900D01*
X468900D01*
Y527100D01*
X468100D01*
Y526300D01*
X465700D01*
Y527900D01*
X464900D01*
Y528700D01*
X464100D01*
Y530300D01*
X463300D01*
Y531100D01*
X462500D01*
Y532700D01*
X461700D01*
Y533500D01*
X460100D01*
Y534300D01*
X462500D01*
Y533500D01*
X463300D01*
Y532700D01*
X464100D01*
Y531100D01*
X464900D01*
Y530300D01*
X465700D01*
Y529500D01*
X466500D01*
Y528700D01*
X467300D01*
Y531900D01*
X466500D01*
Y534300D01*
X465700D01*
Y535900D01*
X464900D01*
Y536700D01*
X464100D01*
Y538300D01*
X463300D01*
Y541500D01*
X464900D01*
Y539900D01*
X466500D01*
Y539100D01*
X467300D01*
Y537500D01*
X468100D01*
Y535900D01*
X468900D01*
Y533500D01*
X469700D01*
Y531900D01*
X470500D01*
Y529500D01*
X471300D01*
Y527900D01*
X472100D01*
Y526300D01*
X472900D01*
Y527100D01*
X473700D01*
Y529500D01*
X474500D01*
Y534300D01*
X475300D01*
Y539900D01*
X476100D01*
Y539100D01*
X476900D01*
Y535900D01*
X477700D01*
Y527100D01*
X478500D01*
Y525500D01*
X480100D01*
Y526300D01*
X482500D01*
Y527100D01*
X486500D01*
Y527900D01*
X489700D01*
Y528700D01*
X492100D01*
Y537500D01*
X492900D01*
Y539100D01*
X493700D01*
Y539900D01*
X494500D01*
Y540700D01*
X495300D01*
Y542300D01*
X496100D01*
Y543100D01*
X496900D01*
Y543900D01*
X497700D01*
Y544700D01*
X498500D01*
Y545500D01*
X500100D01*
Y546300D01*
X502500D01*
Y547100D01*
X504900D01*
Y546300D01*
D02*
G37*
G36*
X528100Y503100D02*
X526500D01*
Y503900D01*
X528100D01*
Y503100D01*
D02*
G37*
G36*
X523300Y502300D02*
X524100D01*
Y501500D01*
X524900D01*
Y500700D01*
X525700D01*
Y499900D01*
X526500D01*
Y499100D01*
X527300D01*
Y498300D01*
X528100D01*
Y497500D01*
X528900D01*
Y496700D01*
X527300D01*
Y497500D01*
X526500D01*
Y498300D01*
X525700D01*
Y499100D01*
X524900D01*
Y499900D01*
X523300D01*
Y500700D01*
X522500D01*
Y503100D01*
X523300D01*
Y502300D01*
D02*
G37*
G36*
X505700Y519100D02*
X508100D01*
Y518300D01*
X509700D01*
Y517500D01*
X510500D01*
Y516700D01*
X511300D01*
Y515900D01*
X512100D01*
Y515100D01*
X512900D01*
Y513500D01*
X513700D01*
Y512700D01*
X514500D01*
Y511900D01*
X515300D01*
Y511100D01*
X516100D01*
Y510300D01*
X516900D01*
Y508700D01*
X517700D01*
Y507900D01*
X518500D01*
Y506300D01*
X519300D01*
Y503900D01*
X520100D01*
Y501500D01*
X520900D01*
Y499100D01*
X521700D01*
Y495900D01*
X522500D01*
Y491900D01*
X523300D01*
Y490300D01*
X524100D01*
Y488700D01*
X524900D01*
Y487900D01*
X525700D01*
Y488700D01*
X526500D01*
Y490300D01*
X525700D01*
Y492700D01*
X524900D01*
Y495100D01*
X525700D01*
Y494300D01*
X528100D01*
Y493500D01*
X529700D01*
Y494300D01*
X530500D01*
Y495100D01*
X532100D01*
Y494300D01*
X532900D01*
Y491900D01*
X530500D01*
Y492700D01*
X528100D01*
Y491900D01*
X527300D01*
Y487900D01*
X528100D01*
Y487100D01*
X528900D01*
Y486300D01*
X531300D01*
Y485500D01*
X532900D01*
Y484700D01*
X534500D01*
Y483100D01*
X535300D01*
Y482300D01*
X536100D01*
Y480700D01*
X536900D01*
Y470300D01*
X536100D01*
Y468700D01*
X535300D01*
Y467900D01*
X534500D01*
Y467100D01*
X532100D01*
Y466300D01*
X529700D01*
Y463100D01*
X528900D01*
Y462300D01*
X527300D01*
Y465500D01*
X526500D01*
Y471900D01*
X525700D01*
Y471100D01*
X524900D01*
Y465500D01*
X524100D01*
Y459900D01*
X523300D01*
Y459100D01*
X522500D01*
Y459900D01*
X521700D01*
Y459100D01*
X520900D01*
Y458300D01*
X520100D01*
Y457500D01*
X519300D01*
Y456700D01*
X518500D01*
Y455900D01*
X517700D01*
Y455100D01*
X516100D01*
Y454300D01*
X515300D01*
Y453500D01*
X514500D01*
Y452700D01*
X512900D01*
Y451900D01*
X512100D01*
Y451100D01*
X511300D01*
Y450300D01*
X510500D01*
Y449500D01*
X508900D01*
Y448700D01*
X507300D01*
Y447900D01*
X504900D01*
Y447100D01*
X503300D01*
Y446300D01*
X501700D01*
Y445500D01*
X499300D01*
Y444700D01*
X497700D01*
Y443900D01*
X496900D01*
Y440700D01*
X497700D01*
Y439900D01*
X498500D01*
Y439100D01*
X499300D01*
Y438300D01*
X500100D01*
Y436700D01*
X500900D01*
Y435900D01*
X499300D01*
Y436700D01*
X498500D01*
Y437500D01*
X497700D01*
Y438300D01*
X496900D01*
Y439900D01*
X496100D01*
Y440700D01*
X495300D01*
Y441500D01*
X493700D01*
Y442300D01*
X492900D01*
Y443100D01*
X492100D01*
Y443900D01*
X491300D01*
Y444700D01*
X490500D01*
Y445500D01*
X489700D01*
Y447100D01*
X488900D01*
Y447900D01*
X489700D01*
Y448700D01*
X491300D01*
Y449500D01*
X492100D01*
Y450300D01*
X493700D01*
Y449500D01*
X496100D01*
Y448700D01*
X496900D01*
Y447100D01*
X499300D01*
Y447900D01*
X500900D01*
Y448700D01*
X503300D01*
Y449500D01*
X504900D01*
Y450300D01*
X506500D01*
Y451100D01*
X507300D01*
Y455900D01*
X508100D01*
Y455100D01*
X509700D01*
Y454300D01*
X512900D01*
Y455100D01*
X514500D01*
Y455900D01*
X515300D01*
Y456700D01*
X516100D01*
Y457500D01*
X516900D01*
Y458300D01*
X517700D01*
Y459100D01*
X518500D01*
Y459900D01*
X519300D01*
Y460700D01*
X520100D01*
Y461500D01*
X520900D01*
Y462300D01*
X521700D01*
Y463100D01*
X522500D01*
Y465500D01*
X523300D01*
Y470300D01*
X524100D01*
Y474300D01*
X523300D01*
Y481500D01*
X522500D01*
Y488700D01*
X521700D01*
Y491100D01*
X520900D01*
Y492700D01*
X520100D01*
Y494300D01*
X519300D01*
Y495900D01*
X518500D01*
Y496700D01*
X517700D01*
Y498300D01*
X516900D01*
Y504700D01*
X516100D01*
Y506300D01*
X515300D01*
Y507900D01*
X514500D01*
Y508700D01*
X513700D01*
Y510300D01*
X512900D01*
Y511100D01*
X512100D01*
Y511900D01*
X511300D01*
Y512700D01*
X510500D01*
Y513500D01*
X509700D01*
Y514300D01*
X508900D01*
Y515100D01*
X508100D01*
Y515900D01*
X506500D01*
Y516700D01*
X501700D01*
Y518300D01*
X502500D01*
Y519900D01*
X505700D01*
Y519100D01*
D02*
G37*
G36*
X491300Y487100D02*
X492100D01*
Y486300D01*
X492900D01*
Y484700D01*
X492100D01*
Y483900D01*
X490500D01*
Y483100D01*
X488900D01*
Y482300D01*
X485700D01*
Y481500D01*
X483300D01*
Y482300D01*
X482500D01*
Y483900D01*
X483300D01*
Y484700D01*
X484100D01*
Y485500D01*
X484900D01*
Y486300D01*
X485700D01*
Y487100D01*
X489700D01*
Y487900D01*
X491300D01*
Y487100D01*
D02*
G37*
G36*
X397700Y483100D02*
X399300D01*
Y482300D01*
X401700D01*
Y481500D01*
X400900D01*
Y479900D01*
X399300D01*
Y480700D01*
X398500D01*
Y481500D01*
X397700D01*
Y482300D01*
X396900D01*
Y483900D01*
X397700D01*
Y483100D01*
D02*
G37*
G36*
X496100Y471100D02*
X496900D01*
Y470300D01*
X497700D01*
Y469500D01*
X496900D01*
Y468700D01*
X495300D01*
Y467900D01*
X493700D01*
Y467100D01*
X491300D01*
Y466300D01*
X488900D01*
Y467100D01*
X487300D01*
Y468700D01*
X488100D01*
Y469500D01*
X488900D01*
Y470300D01*
X490500D01*
Y471100D01*
X492100D01*
Y471900D01*
X496100D01*
Y471100D01*
D02*
G37*
G36*
X503300Y508700D02*
X504900D01*
Y507900D01*
X505700D01*
Y507100D01*
X506500D01*
Y506300D01*
X507300D01*
Y505500D01*
X508100D01*
Y504700D01*
X508900D01*
Y503100D01*
X509700D01*
Y501500D01*
X510500D01*
Y497500D01*
X511300D01*
Y491900D01*
X512100D01*
Y490300D01*
X512900D01*
Y487900D01*
X513700D01*
Y486300D01*
X514500D01*
Y484700D01*
X515300D01*
Y481500D01*
X516100D01*
Y479100D01*
X516900D01*
Y477500D01*
X517700D01*
Y474300D01*
X516900D01*
Y472700D01*
X516100D01*
Y470300D01*
X515300D01*
Y467100D01*
X514500D01*
Y466300D01*
X513700D01*
Y464700D01*
X512900D01*
Y463900D01*
X512100D01*
Y462300D01*
X508900D01*
Y464700D01*
X509700D01*
Y467100D01*
X510500D01*
Y467900D01*
X511300D01*
Y469500D01*
X512100D01*
Y471100D01*
X512900D01*
Y478300D01*
X512100D01*
Y479900D01*
X511300D01*
Y481500D01*
X510500D01*
Y482300D01*
X509700D01*
Y484700D01*
X508900D01*
Y486300D01*
X508100D01*
Y487900D01*
X507300D01*
Y491100D01*
X506500D01*
Y496700D01*
X505700D01*
Y503100D01*
X504900D01*
Y504700D01*
X504100D01*
Y505500D01*
X503300D01*
Y506300D01*
X502500D01*
Y507100D01*
X499300D01*
Y507900D01*
X498500D01*
Y509500D01*
X503300D01*
Y508700D01*
D02*
G37*
G36*
X450500Y476700D02*
X451300D01*
Y475900D01*
X452100D01*
Y475100D01*
X452900D01*
Y471900D01*
X453700D01*
Y469500D01*
X454500D01*
Y466300D01*
X455300D01*
Y461500D01*
X456100D01*
Y459900D01*
X456900D01*
Y456700D01*
X457700D01*
Y455900D01*
X458500D01*
Y453500D01*
X457700D01*
Y455100D01*
X456900D01*
Y455900D01*
X456100D01*
Y458300D01*
X455300D01*
Y460700D01*
X453700D01*
Y461500D01*
X452900D01*
Y463100D01*
X452100D01*
Y464700D01*
X451300D01*
Y465500D01*
X450500D01*
Y468700D01*
X449700D01*
Y475100D01*
X448900D01*
Y475900D01*
X449700D01*
Y477500D01*
X450500D01*
Y476700D01*
D02*
G37*
G36*
X471300Y483100D02*
X472100D01*
Y482300D01*
X472900D01*
Y481500D01*
X474500D01*
Y479900D01*
X475300D01*
Y479100D01*
X476100D01*
Y477500D01*
X477700D01*
Y476700D01*
X478500D01*
Y475900D01*
X479300D01*
Y475100D01*
X480100D01*
Y472700D01*
X479300D01*
Y467100D01*
X480100D01*
Y457500D01*
X479300D01*
Y455100D01*
X478500D01*
Y453500D01*
X477700D01*
Y452700D01*
X476100D01*
Y451900D01*
X475300D01*
Y451100D01*
X470500D01*
Y451900D01*
X468900D01*
Y452700D01*
X467300D01*
Y453500D01*
X466500D01*
Y455100D01*
X465700D01*
Y455900D01*
X464900D01*
Y456700D01*
X464100D01*
Y458300D01*
X463300D01*
Y459100D01*
X462500D01*
Y459900D01*
X461700D01*
Y462300D01*
X460900D01*
Y463100D01*
X460100D01*
Y468700D01*
X459300D01*
Y471100D01*
X460100D01*
Y475100D01*
X460900D01*
Y475900D01*
X461700D01*
Y477500D01*
X462500D01*
Y479100D01*
X463300D01*
Y480700D01*
X464100D01*
Y481500D01*
X464900D01*
Y482300D01*
X465700D01*
Y483100D01*
X466500D01*
Y483900D01*
X471300D01*
Y483100D01*
D02*
G37*
G36*
X440900D02*
X440100D01*
Y480700D01*
X439300D01*
Y477500D01*
X438500D01*
Y476700D01*
X439300D01*
Y471100D01*
X440100D01*
Y467100D01*
X440900D01*
Y463900D01*
X441700D01*
Y462300D01*
X442500D01*
Y460700D01*
X443300D01*
Y459100D01*
X444100D01*
Y457500D01*
X444900D01*
Y456700D01*
X445700D01*
Y455100D01*
X446500D01*
Y454300D01*
X447300D01*
Y453500D01*
X448100D01*
Y452700D01*
X448900D01*
Y451100D01*
X449700D01*
Y450300D01*
X450500D01*
Y449500D01*
X452900D01*
Y448700D01*
X453700D01*
Y447900D01*
X454500D01*
Y447100D01*
X455300D01*
Y446300D01*
X454500D01*
Y445500D01*
X453700D01*
Y444700D01*
X452900D01*
Y442300D01*
X452100D01*
Y444700D01*
X451300D01*
Y446300D01*
X450500D01*
Y447100D01*
X448900D01*
Y447900D01*
X447300D01*
Y448700D01*
X446500D01*
Y449500D01*
X445700D01*
Y450300D01*
X444900D01*
Y451100D01*
X444100D01*
Y452700D01*
X443300D01*
Y453500D01*
X442500D01*
Y454300D01*
X441700D01*
Y455100D01*
X440900D01*
Y458300D01*
X440100D01*
Y461500D01*
X439300D01*
Y463900D01*
X438500D01*
Y467900D01*
X437700D01*
Y474300D01*
X436900D01*
Y479900D01*
X437700D01*
Y481500D01*
X438500D01*
Y485500D01*
X440100D01*
Y486300D01*
X440900D01*
Y483100D01*
D02*
G37*
G36*
Y446300D02*
X440100D01*
Y444700D01*
X439300D01*
Y443900D01*
X438500D01*
Y442300D01*
X437700D01*
Y440700D01*
X436900D01*
Y437500D01*
X437700D01*
Y435100D01*
X438500D01*
Y434300D01*
X440100D01*
Y435100D01*
X440900D01*
Y437500D01*
X441700D01*
Y438300D01*
X442500D01*
Y439100D01*
X443300D01*
Y443900D01*
X442500D01*
Y447100D01*
X444100D01*
Y445500D01*
X444900D01*
Y443900D01*
X445700D01*
Y443100D01*
X447300D01*
Y441500D01*
X446500D01*
Y439900D01*
X445700D01*
Y439100D01*
X444900D01*
Y438300D01*
X444100D01*
Y437500D01*
X443300D01*
Y435900D01*
X442500D01*
Y435100D01*
X441700D01*
Y434300D01*
X440900D01*
Y432700D01*
X440100D01*
Y431900D01*
X439300D01*
Y430300D01*
X438500D01*
Y428700D01*
X437700D01*
Y427100D01*
X436900D01*
Y426300D01*
X436100D01*
Y424700D01*
X435300D01*
Y423900D01*
X436100D01*
Y423100D01*
X436900D01*
Y423900D01*
X438500D01*
Y424700D01*
X440100D01*
Y425500D01*
X441700D01*
Y426300D01*
X443300D01*
Y427100D01*
X444100D01*
Y427900D01*
X445700D01*
Y428700D01*
X446500D01*
Y429500D01*
X448100D01*
Y431100D01*
X448900D01*
Y431900D01*
X449700D01*
Y433500D01*
X450500D01*
Y434300D01*
X451300D01*
Y435100D01*
X452900D01*
Y436700D01*
X453700D01*
Y437500D01*
X454500D01*
Y439900D01*
X455300D01*
Y437500D01*
X456900D01*
Y438300D01*
X461700D01*
Y439100D01*
X463300D01*
Y438300D01*
X464100D01*
Y437500D01*
X464900D01*
Y436700D01*
X465700D01*
Y435900D01*
X466500D01*
Y435100D01*
X467300D01*
Y433500D01*
X468100D01*
Y427100D01*
X467300D01*
Y423100D01*
X466500D01*
Y421500D01*
X465700D01*
Y420700D01*
X464900D01*
Y419100D01*
X464100D01*
Y418300D01*
X463300D01*
Y417500D01*
X462500D01*
Y416700D01*
X460900D01*
Y415900D01*
X459300D01*
Y415100D01*
X457700D01*
Y414300D01*
X456900D01*
Y413500D01*
X455300D01*
Y411100D01*
X458500D01*
Y410300D01*
X466500D01*
Y411100D01*
X472900D01*
Y410300D01*
X473700D01*
Y408700D01*
X474500D01*
Y407900D01*
X475300D01*
Y405500D01*
X476100D01*
Y402300D01*
X476900D01*
Y397500D01*
X476100D01*
Y395100D01*
X475300D01*
Y393500D01*
X474500D01*
Y392700D01*
X473700D01*
Y391900D01*
X472100D01*
Y391100D01*
X471300D01*
Y390300D01*
X461700D01*
Y391100D01*
X458500D01*
Y391900D01*
X456100D01*
Y389500D01*
X457700D01*
Y388700D01*
X459300D01*
Y387900D01*
X460100D01*
Y387100D01*
X460900D01*
Y386300D01*
X462500D01*
Y384700D01*
X463300D01*
Y383900D01*
X464100D01*
Y382300D01*
X464900D01*
Y379900D01*
X465700D01*
Y374300D01*
X464900D01*
Y372700D01*
X464100D01*
Y371900D01*
X463300D01*
Y371100D01*
X461700D01*
Y370300D01*
X460100D01*
Y369500D01*
X459300D01*
Y368700D01*
X453700D01*
Y369500D01*
X452900D01*
Y370300D01*
X452100D01*
Y371100D01*
X451300D01*
Y372700D01*
X450500D01*
Y373500D01*
X449700D01*
Y375100D01*
X448900D01*
Y375900D01*
X448100D01*
Y377500D01*
X430500D01*
Y378300D01*
X428900D01*
Y379900D01*
X428100D01*
Y380700D01*
X427300D01*
Y381500D01*
X426500D01*
Y383100D01*
X425700D01*
Y383900D01*
X424900D01*
Y384700D01*
X424100D01*
Y386300D01*
X423300D01*
Y387100D01*
X422500D01*
Y387900D01*
X421700D01*
Y387100D01*
X420900D01*
Y386300D01*
X416100D01*
Y385500D01*
X414500D01*
Y384700D01*
X412900D01*
Y383900D01*
X411300D01*
Y383100D01*
X408900D01*
Y382300D01*
X407300D01*
Y381500D01*
X406500D01*
Y380700D01*
X401700D01*
Y379900D01*
X394500D01*
Y380700D01*
X388900D01*
Y381500D01*
X388100D01*
Y382300D01*
X387300D01*
Y383100D01*
X385700D01*
Y383900D01*
X384900D01*
Y384700D01*
X384100D01*
Y385500D01*
X383300D01*
Y386300D01*
X382500D01*
Y387100D01*
X384100D01*
Y388700D01*
X383300D01*
Y389500D01*
X382500D01*
Y400700D01*
X383300D01*
Y403100D01*
X384100D01*
Y404700D01*
X384900D01*
Y406300D01*
X385700D01*
Y407900D01*
X386500D01*
Y408700D01*
X387300D01*
Y409500D01*
X388100D01*
Y410300D01*
X388900D01*
Y411100D01*
X389700D01*
Y411900D01*
X390500D01*
Y412700D01*
X391300D01*
Y413500D01*
X392100D01*
Y414300D01*
X392900D01*
Y415100D01*
X393700D01*
Y415900D01*
X395300D01*
Y416700D01*
X397700D01*
Y415900D01*
X400100D01*
Y416700D01*
X400900D01*
Y415100D01*
X398500D01*
Y414300D01*
X396900D01*
Y413500D01*
X395300D01*
Y412700D01*
X394500D01*
Y411900D01*
X393700D01*
Y411100D01*
X392900D01*
Y410300D01*
X392100D01*
Y409500D01*
X391300D01*
Y407900D01*
X390500D01*
Y406300D01*
X389700D01*
Y405500D01*
X388900D01*
Y403900D01*
X388100D01*
Y400700D01*
X387300D01*
Y399100D01*
X386500D01*
Y395100D01*
X385700D01*
Y391100D01*
X386500D01*
Y386300D01*
X387300D01*
Y384700D01*
X389700D01*
Y383900D01*
X390500D01*
Y383100D01*
X400900D01*
Y385500D01*
X400100D01*
Y387900D01*
X399300D01*
Y390300D01*
X398500D01*
Y392700D01*
X397700D01*
Y400700D01*
X398500D01*
Y403100D01*
X399300D01*
Y405500D01*
X400100D01*
Y406300D01*
X400900D01*
Y409500D01*
X400100D01*
Y410300D01*
X400900D01*
Y411100D01*
X401700D01*
Y410300D01*
X404900D01*
Y412700D01*
X404100D01*
Y413500D01*
X403300D01*
Y415100D01*
X402500D01*
Y416700D01*
X400900D01*
Y418300D01*
X399300D01*
Y419100D01*
X398500D01*
Y420700D01*
X396900D01*
Y419900D01*
X395300D01*
Y419100D01*
X393700D01*
Y418300D01*
X392100D01*
Y417500D01*
X390500D01*
Y416700D01*
X389700D01*
Y415900D01*
X388100D01*
Y415100D01*
X386500D01*
Y414300D01*
X384900D01*
Y413500D01*
X382500D01*
Y415900D01*
X383300D01*
Y416700D01*
X384100D01*
Y417500D01*
X387300D01*
Y418300D01*
X388900D01*
Y419100D01*
X391300D01*
Y419900D01*
X392900D01*
Y420700D01*
X393700D01*
Y421500D01*
X394500D01*
Y422300D01*
X391300D01*
Y424700D01*
X389700D01*
Y423900D01*
X388100D01*
Y423100D01*
X387300D01*
Y422300D01*
X384900D01*
Y423100D01*
X384100D01*
Y423900D01*
X383300D01*
Y424700D01*
X385700D01*
Y423900D01*
X387300D01*
Y424700D01*
X388900D01*
Y425500D01*
X389700D01*
Y426300D01*
X392100D01*
Y424700D01*
X393700D01*
Y425500D01*
X394500D01*
Y426300D01*
X396100D01*
Y425500D01*
X398500D01*
Y426300D01*
X400100D01*
Y425500D01*
X399300D01*
Y424700D01*
X398500D01*
Y423900D01*
X397700D01*
Y421500D01*
X399300D01*
Y422300D01*
X400100D01*
Y423100D01*
X400900D01*
Y424700D01*
X401700D01*
Y426300D01*
X400100D01*
Y427900D01*
X400900D01*
Y428700D01*
X401700D01*
Y429500D01*
X402500D01*
Y430300D01*
X403300D01*
Y425500D01*
X404900D01*
Y426300D01*
X405700D01*
Y427100D01*
X406500D01*
Y427900D01*
X407300D01*
Y428700D01*
X408100D01*
Y429500D01*
X408900D01*
Y430300D01*
X409700D01*
Y431100D01*
X411300D01*
Y431900D01*
X412100D01*
Y432700D01*
X416100D01*
Y433500D01*
X416900D01*
Y434300D01*
X417700D01*
Y435100D01*
X418500D01*
Y436700D01*
X419300D01*
Y438300D01*
X420900D01*
Y439100D01*
X422500D01*
Y439900D01*
X423300D01*
Y440700D01*
X425700D01*
Y439900D01*
X426500D01*
Y438300D01*
X427300D01*
Y437500D01*
X428900D01*
Y438300D01*
X429700D01*
Y439900D01*
X430500D01*
Y441500D01*
X431300D01*
Y443100D01*
X432100D01*
Y443900D01*
X432900D01*
Y444700D01*
X433700D01*
Y442300D01*
X434500D01*
Y441500D01*
X436100D01*
Y442300D01*
X436900D01*
Y443900D01*
X437700D01*
Y445500D01*
X438500D01*
Y446300D01*
X439300D01*
Y447100D01*
X440100D01*
Y447900D01*
X440900D01*
Y446300D01*
D02*
G37*
G36*
X452100Y440700D02*
X450500D01*
Y441500D01*
X451300D01*
Y442300D01*
X452100D01*
Y440700D01*
D02*
G37*
G36*
X491300Y439100D02*
X492100D01*
Y438300D01*
X492900D01*
Y437500D01*
X493700D01*
Y436700D01*
X494500D01*
Y435900D01*
X495300D01*
Y435100D01*
X496100D01*
Y433500D01*
X496900D01*
Y432700D01*
X497700D01*
Y431900D01*
X498500D01*
Y430300D01*
X499300D01*
Y429500D01*
X500100D01*
Y428700D01*
X498500D01*
Y429500D01*
X497700D01*
Y431100D01*
X496900D01*
Y431900D01*
X496100D01*
Y432700D01*
X495300D01*
Y434300D01*
X492900D01*
Y432700D01*
X493700D01*
Y429500D01*
X494500D01*
Y426300D01*
X495300D01*
Y423900D01*
X496100D01*
Y419100D01*
X495300D01*
Y419900D01*
X494500D01*
Y421500D01*
X493700D01*
Y422300D01*
X492900D01*
Y423100D01*
X492100D01*
Y423900D01*
X491300D01*
Y424700D01*
X490500D01*
Y425500D01*
X489700D01*
Y426300D01*
X488900D01*
Y427900D01*
X488100D01*
Y428700D01*
X487300D01*
Y429500D01*
X486500D01*
Y419100D01*
X485700D01*
Y417500D01*
X484100D01*
Y418300D01*
X483300D01*
Y419100D01*
X484100D01*
Y433500D01*
X486500D01*
Y432700D01*
X487300D01*
Y431100D01*
X488100D01*
Y430300D01*
X488900D01*
Y428700D01*
X489700D01*
Y427900D01*
X490500D01*
Y426300D01*
X492900D01*
Y427900D01*
X492100D01*
Y430300D01*
X491300D01*
Y432700D01*
X490500D01*
Y437500D01*
X489700D01*
Y439100D01*
X490500D01*
Y439900D01*
X491300D01*
Y439100D01*
D02*
G37*
G36*
X392900Y426300D02*
X392100D01*
Y427900D01*
X392900D01*
Y426300D01*
D02*
G37*
G36*
X480100D02*
X480900D01*
Y423900D01*
X481700D01*
Y420700D01*
X480900D01*
Y423100D01*
X480100D01*
Y424700D01*
X479300D01*
Y427900D01*
X480100D01*
Y426300D01*
D02*
G37*
G36*
X473700Y429500D02*
X474500D01*
Y428700D01*
X473700D01*
Y420700D01*
X474500D01*
Y419900D01*
X473700D01*
Y419100D01*
X472900D01*
Y419900D01*
X472100D01*
Y427900D01*
X471300D01*
Y427100D01*
X470500D01*
Y426300D01*
X469700D01*
Y427900D01*
X470500D01*
Y429500D01*
X471300D01*
Y430300D01*
X472100D01*
Y431100D01*
X473700D01*
Y429500D01*
D02*
G37*
%LPC*%
G36*
X435300Y555900D02*
X428900D01*
Y555100D01*
X428100D01*
Y553500D01*
X427300D01*
Y551900D01*
X426500D01*
Y550300D01*
X425700D01*
Y547100D01*
X424900D01*
Y543900D01*
X424100D01*
Y542300D01*
X423300D01*
Y541500D01*
X422500D01*
Y539900D01*
X421700D01*
Y539100D01*
X420100D01*
Y538300D01*
X419300D01*
Y537500D01*
X416900D01*
Y536700D01*
X414500D01*
Y535900D01*
X412900D01*
Y535100D01*
X412100D01*
Y534300D01*
X410500D01*
Y533500D01*
X409700D01*
Y531100D01*
X408900D01*
Y530300D01*
X408100D01*
Y528700D01*
X407300D01*
Y526300D01*
X406500D01*
Y524700D01*
X405700D01*
Y522300D01*
X404900D01*
Y519100D01*
X404100D01*
Y516700D01*
X403300D01*
Y509500D01*
X404900D01*
Y508700D01*
X406500D01*
Y506300D01*
X407300D01*
Y502300D01*
X408100D01*
Y498300D01*
X408900D01*
Y496700D01*
X409700D01*
Y494300D01*
X410500D01*
Y488700D01*
X409700D01*
Y486300D01*
X408900D01*
Y481500D01*
X409700D01*
Y476700D01*
X410500D01*
Y475900D01*
X411300D01*
Y475100D01*
X412100D01*
Y474300D01*
X414500D01*
Y473500D01*
X415300D01*
Y472700D01*
X418500D01*
Y473500D01*
X420100D01*
Y474300D01*
X420900D01*
Y475900D01*
X421700D01*
Y477500D01*
X422500D01*
Y479900D01*
X423300D01*
Y490300D01*
X422500D01*
Y491900D01*
X423300D01*
Y494300D01*
X424100D01*
Y497500D01*
X424900D01*
Y496700D01*
X425700D01*
Y495900D01*
X426500D01*
Y496700D01*
X428900D01*
Y497500D01*
X440100D01*
Y496700D01*
X449700D01*
Y495900D01*
X455300D01*
Y496700D01*
X456900D01*
Y498300D01*
X457700D01*
Y499900D01*
X458500D01*
Y501500D01*
X459300D01*
Y506300D01*
X458500D01*
Y507900D01*
X457700D01*
Y509500D01*
X456900D01*
Y511100D01*
X456100D01*
Y511900D01*
X454500D01*
Y512700D01*
X452900D01*
Y513500D01*
X442500D01*
Y512700D01*
X440100D01*
Y513500D01*
X438500D01*
Y516700D01*
X439300D01*
Y517500D01*
X440100D01*
Y518300D01*
X447300D01*
Y519100D01*
X450500D01*
Y519900D01*
X452900D01*
Y520700D01*
X455300D01*
Y521500D01*
X456100D01*
Y522300D01*
X456900D01*
Y523900D01*
X457700D01*
Y531100D01*
X456900D01*
Y532700D01*
X456100D01*
Y533500D01*
X454500D01*
Y534300D01*
X453700D01*
Y535100D01*
X452900D01*
Y535900D01*
X452100D01*
Y536700D01*
X447300D01*
Y535900D01*
X446500D01*
Y535100D01*
X444900D01*
Y534300D01*
X443300D01*
Y533500D01*
X440900D01*
Y532700D01*
X439300D01*
Y531900D01*
X436100D01*
Y533500D01*
X435300D01*
Y536700D01*
X434500D01*
Y537500D01*
X433700D01*
Y539100D01*
X434500D01*
Y538300D01*
X435300D01*
Y536700D01*
X436900D01*
Y537500D01*
X437700D01*
Y539100D01*
X438500D01*
Y540700D01*
X439300D01*
Y541500D01*
X440100D01*
Y543100D01*
X440900D01*
Y547100D01*
X441700D01*
Y548700D01*
X440900D01*
Y550300D01*
X440100D01*
Y551900D01*
X439300D01*
Y552700D01*
X438500D01*
Y553500D01*
X437700D01*
Y554300D01*
X436900D01*
Y555100D01*
X435300D01*
Y555900D01*
D02*
G37*
G36*
X451300Y517500D02*
X449700D01*
Y515100D01*
X451300D01*
Y515900D01*
X452100D01*
Y516700D01*
X451300D01*
Y517500D01*
D02*
G37*
G36*
X444900Y516700D02*
X443300D01*
Y515900D01*
X440900D01*
Y514300D01*
X445700D01*
Y515100D01*
X446500D01*
Y515900D01*
X444900D01*
Y516700D01*
D02*
G37*
G36*
X402500Y535900D02*
X399300D01*
Y535100D01*
X397700D01*
Y534300D01*
X396900D01*
Y533500D01*
X396100D01*
Y532700D01*
X395300D01*
Y531900D01*
X394500D01*
Y531100D01*
X393700D01*
Y530300D01*
X392900D01*
Y528700D01*
X392100D01*
Y527900D01*
X391300D01*
Y526300D01*
X390500D01*
Y524700D01*
X389700D01*
Y522300D01*
X388900D01*
Y518300D01*
X388100D01*
Y517500D01*
X388900D01*
Y516700D01*
X391300D01*
Y515900D01*
X392100D01*
Y515100D01*
X392900D01*
Y514300D01*
X396100D01*
Y513500D01*
X398500D01*
Y519900D01*
X399300D01*
Y522300D01*
X400100D01*
Y523900D01*
X400900D01*
Y525500D01*
X401700D01*
Y527100D01*
X403300D01*
Y527900D01*
X404100D01*
Y528700D01*
X404900D01*
Y529500D01*
X405700D01*
Y530300D01*
X406500D01*
Y532700D01*
X404900D01*
Y533500D01*
X404100D01*
Y534300D01*
X403300D01*
Y535100D01*
X402500D01*
Y535900D01*
D02*
G37*
G36*
X404900Y506300D02*
X402500D01*
Y505500D01*
X400900D01*
Y504700D01*
X400100D01*
Y503900D01*
X399300D01*
Y503100D01*
X398500D01*
Y502300D01*
X397700D01*
Y499900D01*
X398500D01*
Y499100D01*
X400100D01*
Y498300D01*
X400900D01*
Y499100D01*
X401700D01*
Y499900D01*
X402500D01*
Y500700D01*
X404900D01*
Y497500D01*
X405700D01*
Y488700D01*
X407300D01*
Y489500D01*
X408100D01*
Y491100D01*
X408900D01*
Y494300D01*
X408100D01*
Y496700D01*
X407300D01*
Y501500D01*
X406500D01*
Y504700D01*
X405700D01*
Y505500D01*
X404900D01*
Y506300D01*
D02*
G37*
G36*
X476900Y527900D02*
X474500D01*
Y523100D01*
X475300D01*
Y523900D01*
X476100D01*
Y526300D01*
X476900D01*
Y527900D01*
D02*
G37*
G36*
X493700Y447100D02*
X492900D01*
Y446300D01*
X493700D01*
Y447100D01*
D02*
G37*
G36*
X489700Y485500D02*
X488100D01*
Y483900D01*
X489700D01*
Y485500D01*
D02*
G37*
G36*
X451300Y473500D02*
X450500D01*
Y471100D01*
X451300D01*
Y469500D01*
X452900D01*
Y471900D01*
X452100D01*
Y472700D01*
X451300D01*
Y473500D01*
D02*
G37*
G36*
X470500Y480700D02*
X468100D01*
Y479900D01*
X466500D01*
Y478300D01*
X468900D01*
Y477500D01*
X469700D01*
Y476700D01*
X470500D01*
Y475100D01*
X471300D01*
Y474300D01*
X472100D01*
Y471900D01*
X472900D01*
Y469500D01*
X473700D01*
Y467900D01*
X474500D01*
Y466300D01*
X475300D01*
Y457500D01*
X474500D01*
Y454300D01*
X476100D01*
Y455100D01*
X476900D01*
Y455900D01*
X477700D01*
Y457500D01*
X478500D01*
Y467100D01*
X477700D01*
Y469500D01*
X476900D01*
Y472700D01*
X476100D01*
Y475100D01*
X475300D01*
Y475900D01*
X474500D01*
Y477500D01*
X473700D01*
Y478300D01*
X472900D01*
Y479100D01*
X471300D01*
Y479900D01*
X470500D01*
Y480700D01*
D02*
G37*
G36*
X432100Y437500D02*
X430500D01*
Y435900D01*
X429700D01*
Y431100D01*
X430500D01*
Y425500D01*
X431300D01*
Y424700D01*
X432100D01*
Y425500D01*
X432900D01*
Y426300D01*
X433700D01*
Y427100D01*
X434500D01*
Y428700D01*
X435300D01*
Y429500D01*
X434500D01*
Y432700D01*
X433700D01*
Y433500D01*
X432900D01*
Y434300D01*
X432100D01*
Y435100D01*
X432900D01*
Y436700D01*
X432100D01*
Y437500D01*
D02*
G37*
G36*
X396100Y424700D02*
X395300D01*
Y423900D01*
X396100D01*
Y424700D01*
D02*
G37*
G36*
X461700Y435900D02*
X459300D01*
Y435100D01*
X456900D01*
Y434300D01*
X455300D01*
Y433500D01*
X453700D01*
Y432700D01*
X452100D01*
Y431100D01*
X451300D01*
Y430300D01*
X449700D01*
Y429500D01*
X448900D01*
Y428700D01*
X448100D01*
Y427900D01*
X446500D01*
Y427100D01*
X445700D01*
Y426300D01*
X444900D01*
Y425500D01*
X443300D01*
Y424700D01*
X442500D01*
Y423900D01*
X440900D01*
Y423100D01*
X439300D01*
Y422300D01*
X436100D01*
Y421500D01*
X434500D01*
Y420700D01*
X432900D01*
Y419100D01*
X431300D01*
Y419900D01*
X430500D01*
Y421500D01*
X429700D01*
Y423900D01*
X428900D01*
Y431100D01*
X428100D01*
Y433500D01*
X427300D01*
Y434300D01*
X426500D01*
Y435100D01*
X423300D01*
Y435900D01*
X421700D01*
Y435100D01*
X420100D01*
Y433500D01*
X419300D01*
Y432700D01*
X418500D01*
Y431100D01*
X417700D01*
Y430300D01*
X416900D01*
Y428700D01*
X416100D01*
Y427100D01*
X415300D01*
Y421500D01*
X416100D01*
Y419100D01*
X416900D01*
Y417500D01*
X417700D01*
Y416700D01*
X418500D01*
Y415100D01*
X419300D01*
Y411100D01*
X420100D01*
Y403100D01*
X419300D01*
Y406300D01*
X418500D01*
Y407100D01*
X416900D01*
Y403100D01*
X417700D01*
Y397500D01*
X418500D01*
Y392700D01*
X419300D01*
Y391100D01*
X421700D01*
Y390300D01*
X422500D01*
Y389500D01*
X423300D01*
Y388700D01*
X424100D01*
Y387900D01*
X424900D01*
Y386300D01*
X425700D01*
Y384700D01*
X426500D01*
Y383900D01*
X427300D01*
Y383100D01*
X428100D01*
Y382300D01*
X428900D01*
Y381500D01*
X429700D01*
Y380700D01*
X431300D01*
Y379900D01*
X432900D01*
Y380700D01*
X434500D01*
Y379900D01*
X436100D01*
Y380700D01*
X440900D01*
Y381500D01*
X446500D01*
Y380700D01*
X447300D01*
Y379900D01*
X448100D01*
Y379100D01*
X448900D01*
Y377500D01*
X449700D01*
Y376700D01*
X450500D01*
Y375100D01*
X451300D01*
Y374300D01*
X452100D01*
Y372700D01*
X452900D01*
Y371900D01*
X453700D01*
Y371100D01*
X455300D01*
Y370300D01*
X456900D01*
Y371100D01*
X458500D01*
Y371900D01*
X459300D01*
Y372700D01*
X460900D01*
Y373500D01*
X461700D01*
Y374300D01*
X462500D01*
Y375100D01*
X463300D01*
Y376700D01*
X464100D01*
Y379900D01*
X463300D01*
Y381500D01*
X462500D01*
Y382300D01*
X461700D01*
Y383900D01*
X460100D01*
Y384700D01*
X459300D01*
Y385500D01*
X458500D01*
Y386300D01*
X457700D01*
Y387100D01*
X456900D01*
Y387900D01*
X456100D01*
Y388700D01*
X455300D01*
Y389500D01*
X454500D01*
Y390300D01*
X452100D01*
Y392700D01*
X454500D01*
Y393500D01*
X456100D01*
Y394300D01*
X458500D01*
Y393500D01*
X460900D01*
Y392700D01*
X464100D01*
Y391900D01*
X470500D01*
Y392700D01*
X472100D01*
Y393500D01*
X472900D01*
Y394300D01*
X473700D01*
Y395900D01*
X474500D01*
Y399100D01*
X475300D01*
Y401500D01*
X474500D01*
Y406300D01*
X473700D01*
Y407100D01*
X472100D01*
Y407900D01*
X467300D01*
Y408700D01*
X464900D01*
Y407900D01*
X459300D01*
Y408700D01*
X452900D01*
Y407900D01*
X452100D01*
Y409500D01*
X451300D01*
Y411100D01*
X450500D01*
Y412700D01*
X451300D01*
Y413500D01*
X452100D01*
Y414300D01*
X452900D01*
Y415100D01*
X454500D01*
Y415900D01*
X456900D01*
Y416700D01*
X457700D01*
Y417500D01*
X460100D01*
Y418300D01*
X460900D01*
Y419100D01*
X462500D01*
Y419900D01*
X463300D01*
Y420700D01*
X464100D01*
Y421500D01*
X464900D01*
Y423900D01*
X465700D01*
Y426300D01*
X466500D01*
Y431900D01*
X465700D01*
Y433500D01*
X464900D01*
Y434300D01*
X464100D01*
Y435100D01*
X461700D01*
Y435900D01*
D02*
G37*
G36*
X412100Y430300D02*
X410500D01*
Y429500D01*
X409700D01*
Y428700D01*
X408900D01*
Y427900D01*
X408100D01*
Y427100D01*
X407300D01*
Y426300D01*
X406500D01*
Y425500D01*
X405700D01*
Y424700D01*
X404900D01*
Y423100D01*
X404100D01*
Y420700D01*
X404900D01*
Y419100D01*
X405700D01*
Y418300D01*
X406500D01*
Y417500D01*
X407300D01*
Y415900D01*
X408100D01*
Y415100D01*
X408900D01*
Y414300D01*
X409700D01*
Y413500D01*
X417700D01*
Y415900D01*
X416900D01*
Y416700D01*
X415300D01*
Y417500D01*
X414500D01*
Y418300D01*
X412900D01*
Y419900D01*
X412100D01*
Y420700D01*
X411300D01*
Y421500D01*
X410500D01*
Y422300D01*
X409700D01*
Y423900D01*
X408900D01*
Y425500D01*
X409700D01*
Y426300D01*
X410500D01*
Y427100D01*
X411300D01*
Y427900D01*
X412100D01*
Y430300D01*
D02*
G37*
G36*
X410500Y408700D02*
X407300D01*
Y407900D01*
X406500D01*
Y407100D01*
X405700D01*
Y406300D01*
X404900D01*
Y403900D01*
X404100D01*
Y402300D01*
X403300D01*
Y395100D01*
X402500D01*
Y388700D01*
X403300D01*
Y385500D01*
X404100D01*
Y384700D01*
X404900D01*
Y383900D01*
X406500D01*
Y384700D01*
X408900D01*
Y385500D01*
X411300D01*
Y386300D01*
X412900D01*
Y387100D01*
X414500D01*
Y387900D01*
X416100D01*
Y391900D01*
X415300D01*
Y392700D01*
X414500D01*
Y395100D01*
X413700D01*
Y396700D01*
X412900D01*
Y399100D01*
X412100D01*
Y401500D01*
X411300D01*
Y407900D01*
X410500D01*
Y408700D01*
D02*
G37*
%LPD*%
D12*
X492595Y262499D02*
Y258500D01*
X489596D01*
Y260499D01*
Y258500D01*
X486597D01*
X492595Y268497D02*
Y264498D01*
X486597D01*
Y268497D01*
X489596Y264498D02*
Y266497D01*
X492595Y270496D02*
X488597D01*
X486597Y272496D01*
X488597Y274495D01*
X492595D01*
X489596Y276494D02*
Y280493D01*
X492595Y286491D02*
X491596Y284492D01*
X489596Y282492D01*
X487597D01*
X486597Y283492D01*
Y285491D01*
X487597Y286491D01*
X488597D01*
X489596Y285491D01*
Y282492D01*
X491596Y288490D02*
X492595Y289490D01*
Y291489D01*
X491596Y292489D01*
X487597D01*
X486597Y291489D01*
Y289490D01*
X487597Y288490D01*
X491596D01*
X485598Y294488D02*
Y298487D01*
X486597Y300486D02*
X492595D01*
X490596Y302486D01*
X492595Y304485D01*
X486597D01*
Y307484D02*
Y309484D01*
X487597Y310483D01*
X489596D01*
X490596Y309484D01*
Y307484D01*
X489596Y306485D01*
X487597D01*
X486597Y307484D01*
X491596Y313482D02*
X490596D01*
Y312483D01*
Y314482D01*
Y313482D01*
X487597D01*
X486597Y314482D01*
Y318481D02*
Y320480D01*
X487597Y321480D01*
X489596D01*
X490596Y320480D01*
Y318481D01*
X489596Y317481D01*
X487597D01*
X486597Y318481D01*
X490596Y323479D02*
X486597D01*
X488597D01*
X489596Y324479D01*
X490596Y325478D01*
Y326478D01*
X485598Y329477D02*
Y333476D01*
X492595Y335475D02*
X486597D01*
Y338474D01*
X487597Y339474D01*
X491596D01*
X492595Y338474D01*
Y335475D01*
X490596Y341473D02*
X486597D01*
X488597D01*
X489596Y342473D01*
X490596Y343473D01*
Y344472D01*
X486597Y347471D02*
Y349471D01*
Y348471D01*
X490596D01*
Y347471D01*
Y352470D02*
X486597Y354469D01*
X490596Y356468D01*
X486597Y361467D02*
Y359467D01*
X487597Y358468D01*
X489596D01*
X490596Y359467D01*
Y361467D01*
X489596Y362466D01*
X488597D01*
Y358468D01*
X490596Y364466D02*
X486597D01*
X488597D01*
X489596Y365465D01*
X490596Y366465D01*
Y367465D01*
X486597Y370464D02*
X487597D01*
Y371463D01*
X486597D01*
Y370464D01*
Y375462D02*
X492595D01*
Y378461D01*
X491596Y379461D01*
X489596D01*
X488597Y378461D01*
Y375462D01*
X490596Y385459D02*
Y382460D01*
X489596Y381460D01*
X487597D01*
X486597Y382460D01*
Y385459D01*
X492595Y387458D02*
X486597D01*
Y390457D01*
X487597Y391457D01*
X488597D01*
X489596D01*
X490596Y390457D01*
Y387458D01*
X492595Y393456D02*
X486597D01*
Y396455D01*
X487597Y397455D01*
X491596D01*
X492595Y396455D01*
Y393456D01*
X486597Y400454D02*
Y402453D01*
X487597Y403453D01*
X489596D01*
X490596Y402453D01*
Y400454D01*
X489596Y399454D01*
X487597D01*
X486597Y400454D01*
X490596Y409451D02*
Y406452D01*
X489596Y405452D01*
X487597D01*
X486597Y406452D01*
Y409451D01*
X476000Y258500D02*
X481998D01*
Y261499D01*
X480998Y262499D01*
X478999D01*
X477999Y261499D01*
Y258500D01*
Y260499D02*
X476000Y262499D01*
Y267497D02*
Y265498D01*
X477000Y264498D01*
X478999D01*
X479999Y265498D01*
Y267497D01*
X478999Y268497D01*
X477999D01*
Y264498D01*
X479999Y270496D02*
X476000Y272496D01*
X479999Y274495D01*
X476000Y276494D02*
Y278493D01*
Y277494D01*
X479999D01*
Y276494D01*
X476000Y281493D02*
Y284492D01*
X477000Y285491D01*
X477999Y284492D01*
Y282492D01*
X478999Y281493D01*
X479999Y282492D01*
Y285491D01*
X476000Y287491D02*
Y289490D01*
Y288490D01*
X479999D01*
Y287491D01*
X476000Y293489D02*
Y295488D01*
X477000Y296488D01*
X478999D01*
X479999Y295488D01*
Y293489D01*
X478999Y292489D01*
X477000D01*
X476000Y293489D01*
Y298487D02*
X479999D01*
Y301486D01*
X478999Y302486D01*
X476000D01*
Y313482D02*
X481998D01*
X478999Y310483D01*
Y314482D01*
D13*
X459499Y150499D02*
Y148500D01*
X458000D01*
X458499Y149500D01*
Y149999D01*
X458000Y150499D01*
X457000D01*
X456500Y149999D01*
Y149000D01*
X457000Y148500D01*
X459499Y151499D02*
X457500D01*
X456500Y152499D01*
X457500Y153498D01*
X459499D01*
X469999Y150499D02*
X470499Y149999D01*
Y149000D01*
X469999Y148500D01*
X468000D01*
X467500Y149000D01*
Y149999D01*
X468000Y150499D01*
X468999D01*
Y149500D01*
X467500Y151499D02*
X470499D01*
X467500Y153498D01*
X470499D01*
Y154498D02*
X467500D01*
Y155998D01*
X468000Y156497D01*
X469999D01*
X470499Y155998D01*
Y154498D01*
X480999Y148500D02*
X478000D01*
X479499D01*
Y150499D01*
X480999D01*
X478000D01*
Y151499D02*
X479999D01*
X480999Y152499D01*
X479999Y153498D01*
X478000D01*
X479499D01*
Y151499D01*
X480999Y154498D02*
X478000D01*
Y156497D01*
X480999Y157497D02*
X478000D01*
Y159496D01*
Y160496D02*
X479999D01*
X480999Y161496D01*
X479999Y162496D01*
X478000D01*
X479499D01*
Y160496D01*
X491999Y148500D02*
X489000D01*
X490499D01*
Y150499D01*
X491999D01*
X489000D01*
Y151499D02*
X490999D01*
X491999Y152499D01*
X490999Y153498D01*
X489000D01*
X490499D01*
Y151499D01*
X491999Y154498D02*
X489000D01*
Y156497D01*
X491999Y157497D02*
X489000D01*
Y159496D01*
X491499Y162496D02*
X491999Y161996D01*
Y160996D01*
X491499Y160496D01*
X489500D01*
X489000Y160996D01*
Y161996D01*
X489500Y162496D01*
X502999Y148500D02*
Y150499D01*
Y149500D01*
X500000D01*
X502999Y151499D02*
X500000D01*
X501500D01*
Y153498D01*
X502999D01*
X500000D01*
Y154498D02*
X502999D01*
Y155998D01*
X502499Y156497D01*
X501500D01*
X501000Y155998D01*
Y154498D01*
Y155498D02*
X500000Y156497D01*
X502999Y158997D02*
Y157997D01*
X502499Y157497D01*
X500500D01*
X500000Y157997D01*
Y158997D01*
X500500Y159496D01*
X502499D01*
X502999Y158997D01*
Y160496D02*
Y162496D01*
Y161496D01*
X500000D01*
X497999Y106000D02*
X495000D01*
X496499D01*
Y107999D01*
X497999D01*
X495000D01*
X497999Y108999D02*
X495000D01*
Y110499D01*
X495500Y110998D01*
X496000D01*
X496499Y110499D01*
Y108999D01*
Y110499D01*
X496999Y110998D01*
X497499D01*
X497999Y110499D01*
Y108999D01*
X495000Y111998D02*
X496999Y113997D01*
X497999Y114997D02*
Y116996D01*
Y115997D01*
X495000D01*
Y117996D02*
X497999D01*
Y119496D01*
X497499Y119995D01*
X496499D01*
X496000Y119496D01*
Y117996D01*
Y118996D02*
X495000Y119995D01*
X497999Y120995D02*
Y121995D01*
Y121495D01*
X495000D01*
Y120995D01*
Y121995D01*
X497499Y125494D02*
X497999Y124994D01*
Y123994D01*
X497499Y123494D01*
X495500D01*
X495000Y123994D01*
Y124994D01*
X495500Y125494D01*
X496499D01*
Y124494D01*
X487499Y111500D02*
X484500D01*
X485999D01*
Y113499D01*
X487499D01*
X484500D01*
Y114499D02*
X486499D01*
X487499Y115499D01*
X486499Y116498D01*
X484500D01*
X485999D01*
Y114499D01*
X487499Y117498D02*
X484500D01*
Y119497D01*
X487499Y120497D02*
X484500D01*
Y122496D01*
X487499Y123496D02*
X484500D01*
Y124996D01*
X485000Y125496D01*
X485500D01*
X485999Y124996D01*
Y123496D01*
Y124996D01*
X486499Y125496D01*
X486999D01*
X487499Y124996D01*
Y123496D01*
X475499Y119499D02*
X475999Y119000D01*
Y118000D01*
X475499Y117500D01*
X473500D01*
X473000Y118000D01*
Y119000D01*
X473500Y119499D01*
X474500D01*
Y118500D01*
X473000Y120499D02*
X475999D01*
X473000Y122498D01*
X475999D01*
Y123498D02*
X473000D01*
Y124998D01*
X473500Y125497D01*
X475499D01*
X475999Y124998D01*
Y123498D01*
X464999Y122499D02*
Y120500D01*
X463499D01*
X463999Y121500D01*
Y122000D01*
X463499Y122499D01*
X462500D01*
X462000Y122000D01*
Y121000D01*
X462500Y120500D01*
X464999Y123499D02*
X463000D01*
X462000Y124499D01*
X463000Y125498D01*
X464999D01*
X475499Y602999D02*
X475999Y602499D01*
Y601500D01*
X475499Y601000D01*
X473500D01*
X473000Y601500D01*
Y602499D01*
X473500Y602999D01*
X474500D01*
Y602000D01*
X473000Y603999D02*
X475999D01*
X473000Y605998D01*
X475999D01*
Y606998D02*
X473000D01*
Y608498D01*
X473500Y608997D01*
X475499D01*
X475999Y608498D01*
Y606998D01*
X456500Y572499D02*
Y570500D01*
X458499Y572499D01*
X458999D01*
X459499Y572000D01*
Y571000D01*
X458999Y570500D01*
X456500Y574999D02*
X459499D01*
X458000Y573499D01*
Y575498D01*
X459499Y576498D02*
X457500D01*
X456500Y577498D01*
X457500Y578497D01*
X459499D01*
X462000Y602999D02*
Y601000D01*
X463999Y602999D01*
X464499D01*
X464999Y602499D01*
Y601500D01*
X464499Y601000D01*
X462000Y605499D02*
X464999D01*
X463499Y603999D01*
Y605998D01*
X464999Y606998D02*
X463000D01*
X462000Y607998D01*
X463000Y608997D01*
X464999D01*
X467500Y572499D02*
Y570500D01*
X469499Y572499D01*
X469999D01*
X470499Y572000D01*
Y571000D01*
X469999Y570500D01*
X467500Y574999D02*
X470499D01*
X468999Y573499D01*
Y575498D01*
X470499Y576498D02*
X468500D01*
X467500Y577498D01*
X468500Y578497D01*
X470499D01*
X480999Y572499D02*
X481499Y572000D01*
Y571000D01*
X480999Y570500D01*
X479000D01*
X478500Y571000D01*
Y572000D01*
X479000Y572499D01*
X479999D01*
Y571500D01*
X478500Y573499D02*
X481499D01*
X478500Y575498D01*
X481499D01*
Y576498D02*
X478500D01*
Y577998D01*
X479000Y578497D01*
X480999D01*
X481499Y577998D01*
Y576498D01*
X486499Y602999D02*
X486999Y602499D01*
Y601500D01*
X486499Y601000D01*
X484500D01*
X484000Y601500D01*
Y602499D01*
X484500Y602999D01*
X485499D01*
Y602000D01*
X484000Y603999D02*
X486999D01*
X484000Y605998D01*
X486999D01*
Y606998D02*
X484000D01*
Y608498D01*
X484500Y608997D01*
X486499D01*
X486999Y608498D01*
Y606998D01*
X492499Y566000D02*
Y565000D01*
X491999Y564500D01*
X490000D01*
X489500Y565000D01*
Y566000D01*
X490000Y566499D01*
X491999D01*
X492499Y566000D01*
X489500Y567499D02*
X492499D01*
X489500Y569498D01*
X492499D01*
X489000Y570498D02*
Y572497D01*
X491999Y575496D02*
X492499Y574997D01*
Y573997D01*
X491999Y573497D01*
X491499D01*
X491000Y573997D01*
Y574997D01*
X490500Y575496D01*
X490000D01*
X489500Y574997D01*
Y573997D01*
X490000Y573497D01*
X492499Y576496D02*
X489500D01*
X490500Y577496D01*
X489500Y578496D01*
X492499D01*
X497499Y601000D02*
X495000D01*
X494500Y601500D01*
Y602499D01*
X495000Y602999D01*
X497499D01*
X496999Y605998D02*
X497499Y605499D01*
Y604499D01*
X496999Y603999D01*
X496499D01*
X495999Y604499D01*
Y605499D01*
X495500Y605998D01*
X495000D01*
X494500Y605499D01*
Y604499D01*
X495000Y603999D01*
X494500Y606998D02*
X496499D01*
X497499Y607998D01*
X496499Y608997D01*
X494500D01*
X495999D01*
Y606998D01*
X494500Y609997D02*
X497499D01*
Y611497D01*
X496999Y611996D01*
X495999D01*
X495500Y611497D01*
Y609997D01*
Y610997D02*
X494500Y611996D01*
X497499Y612996D02*
Y614995D01*
Y613996D01*
X494500D01*
X494000Y615995D02*
Y617994D01*
X497499Y618994D02*
Y620994D01*
Y619994D01*
X494500D01*
X497499Y621993D02*
X494500Y623993D01*
X497499D02*
X494500Y621993D01*
X503499Y555500D02*
X501000D01*
X500500Y556000D01*
Y556999D01*
X501000Y557499D01*
X503499D01*
X502999Y560498D02*
X503499Y559999D01*
Y558999D01*
X502999Y558499D01*
X502499D01*
X502000Y558999D01*
Y559999D01*
X501500Y560498D01*
X501000D01*
X500500Y559999D01*
Y558999D01*
X501000Y558499D01*
X500500Y561498D02*
X502499D01*
X503499Y562498D01*
X502499Y563497D01*
X500500D01*
X502000D01*
Y561498D01*
X500500Y564497D02*
X503499D01*
Y565997D01*
X502999Y566496D01*
X502000D01*
X501500Y565997D01*
Y564497D01*
Y565497D02*
X500500Y566496D01*
X503499Y567496D02*
Y569495D01*
Y568496D01*
X500500D01*
X500000Y570495D02*
Y572495D01*
X500500Y573494D02*
X503499D01*
Y574994D01*
X502999Y575493D01*
X502000D01*
X501500Y574994D01*
Y573494D01*
Y574494D02*
X500500Y575493D01*
X503499Y576493D02*
X500500Y578493D01*
X503499D02*
X500500Y576493D01*
M02*
