G04*
G04 #@! TF.GenerationSoftware,Altium Limited,Altium Designer,19.1.7 (138)*
G04*
G04 Layer_Color=65535*
%FSLAX25Y25*%
%MOIN*%
G70*
G01*
G75*
%ADD10C,0.00787*%
%ADD11C,0.00984*%
%ADD12C,0.00600*%
%ADD13C,0.01000*%
%ADD14C,0.01575*%
G36*
X431512Y293860D02*
Y292360D01*
X430512D01*
Y293860D01*
X431512D01*
D02*
G37*
G36*
Y313545D02*
Y312045D01*
X430512D01*
Y313545D01*
X431512D01*
D02*
G37*
G36*
X457734Y325988D02*
Y326988D01*
X459234D01*
Y325988D01*
X457734D01*
D02*
G37*
G36*
X459703Y274012D02*
Y273012D01*
X461203D01*
Y274012D01*
X459703D01*
D02*
G37*
G36*
X483488Y291892D02*
Y290392D01*
X484488D01*
Y291892D01*
X483488D01*
D02*
G37*
G36*
Y311577D02*
Y310077D01*
X484488D01*
Y311577D01*
X483488D01*
D02*
G37*
G36*
X474830Y589860D02*
X475040Y589800D01*
X475070Y589770D01*
X475190Y589710D01*
X475370Y589590D01*
X475580Y589440D01*
X476000Y588960D01*
Y575910D01*
X476990Y575670D01*
X477080D01*
X477170Y575640D01*
X477290Y575610D01*
X477560Y575550D01*
X477860Y575460D01*
X477890D01*
X477920Y575430D01*
X478100Y575370D01*
X478280Y575280D01*
X478460Y575190D01*
X478490D01*
X478550Y575160D01*
X478730Y575040D01*
X478970Y574950D01*
X479180Y574890D01*
X479240D01*
X479360Y574830D01*
X479510Y574740D01*
X479720Y574560D01*
X479780Y574500D01*
X479870Y574470D01*
X479990Y574410D01*
X480170Y574320D01*
X480410Y574260D01*
X480710Y574200D01*
X481100Y574140D01*
X481250D01*
X481400Y574110D01*
X481580Y574080D01*
X482030Y573990D01*
X482240Y573930D01*
X482420Y573840D01*
X482450D01*
X482510Y573810D01*
X482630Y573720D01*
X482750Y573630D01*
X482960Y573510D01*
X483170Y573330D01*
X483410Y573090D01*
X483710Y572820D01*
X483740Y572790D01*
X483860Y572700D01*
X484010Y572550D01*
X484220Y572400D01*
X484700Y572100D01*
X484940Y571950D01*
X485180Y571860D01*
X485210D01*
X485300Y571830D01*
X485450Y571770D01*
X485660Y571710D01*
X485900Y571590D01*
X486230Y571470D01*
X486590Y571290D01*
X486980Y571080D01*
X487040Y571050D01*
X487160Y570990D01*
X487370Y570870D01*
X487610Y570750D01*
X488120Y570480D01*
X488360Y570330D01*
X488540Y570210D01*
X488570Y570180D01*
X488630Y570150D01*
X488780Y570060D01*
X488990Y570000D01*
X489650Y569760D01*
X489680D01*
X489740Y569730D01*
X489950Y569670D01*
X490190Y569610D01*
X490280Y569580D01*
X490400D01*
X490490Y569610D01*
X490610Y569670D01*
X490760Y569760D01*
X490790D01*
X490820Y569820D01*
X491000Y569910D01*
X491240Y570060D01*
X491510Y570210D01*
X491540Y570240D01*
X491600Y570300D01*
X491750Y570420D01*
X491960Y570600D01*
X492230Y570870D01*
X492440Y571080D01*
X492650Y571260D01*
X492860Y571500D01*
X493130Y571770D01*
X493430Y572100D01*
X493760Y572430D01*
X493790Y572460D01*
X493850Y572520D01*
X493940Y572610D01*
X494060Y572760D01*
X494240Y572940D01*
X494420Y573120D01*
X494870Y573600D01*
X495350Y574170D01*
X495890Y574770D01*
X496460Y575400D01*
X496970Y576030D01*
Y576060D01*
X497030Y576090D01*
X497180Y576270D01*
X497420Y576540D01*
X497720Y576900D01*
X498110Y577320D01*
X498560Y577800D01*
X499040Y578280D01*
X499550Y578790D01*
X499580Y578820D01*
X499610Y578850D01*
X499790Y579000D01*
X500030Y579240D01*
X500330Y579510D01*
X500660Y579780D01*
X500960Y580020D01*
X501260Y580230D01*
X501500Y580350D01*
X501530D01*
X501560Y580380D01*
X501680Y580410D01*
X501830Y580470D01*
X502040Y580560D01*
X502340Y580680D01*
X502700Y580800D01*
X503150Y580980D01*
X503180D01*
X503210Y581010D01*
X503390Y581070D01*
X503630Y581190D01*
X503990Y581340D01*
X504380Y581520D01*
X504830Y581730D01*
X505310Y581940D01*
X505820Y582180D01*
X505850D01*
X505970Y582210D01*
X506120Y582270D01*
X506360Y582330D01*
X506390D01*
X506420Y582360D01*
X506600Y582390D01*
X506840Y582420D01*
X507080Y582450D01*
X507140D01*
X507290Y582510D01*
X507530Y582570D01*
X507830Y582660D01*
X507860D01*
X507920Y582690D01*
X508100Y582780D01*
X508340Y582900D01*
X508580Y583050D01*
X508610Y583080D01*
X508700Y583110D01*
X508850Y583200D01*
X509000Y583290D01*
X509210Y583410D01*
X509450Y583500D01*
X509960Y583710D01*
X509990D01*
X510080Y583740D01*
X510200Y583800D01*
X510380Y583860D01*
X510740Y583950D01*
X511100Y583980D01*
X511160D01*
X511340Y584010D01*
X511520Y584040D01*
X511580Y584070D01*
X511640Y584100D01*
X511670Y584130D01*
X511700D01*
X511790Y584160D01*
X511880Y584190D01*
X512030Y584220D01*
X512210Y584250D01*
X512750D01*
X512960Y584280D01*
X516950D01*
X518840Y582000D01*
X518960Y572610D01*
X518420Y572040D01*
X518390Y572010D01*
X518270Y571890D01*
X518120Y571740D01*
X517940Y571590D01*
X517910Y571560D01*
X517820Y571470D01*
X517700Y571380D01*
X517610Y571320D01*
X517580D01*
X517550Y571290D01*
X517370Y571200D01*
X517100Y571080D01*
X516770Y570870D01*
X516740D01*
X516710Y570810D01*
X516500Y570690D01*
X516230Y570540D01*
X515960Y570390D01*
X515930D01*
X515870Y570330D01*
X515720Y570240D01*
X515510Y570090D01*
X515450Y570060D01*
X515330Y569940D01*
X515120Y569790D01*
X514850Y569580D01*
X514820Y569550D01*
X514700Y569460D01*
X514520Y569310D01*
X514310Y569130D01*
X514040Y568920D01*
X513740Y568710D01*
X513110Y568260D01*
X513080Y568230D01*
X512960Y568170D01*
X512810Y568080D01*
X512630Y567990D01*
X512150Y567750D01*
X511910Y567660D01*
X511670Y567570D01*
X511640D01*
X511550Y567540D01*
X511430Y567480D01*
X511220Y567390D01*
X510950Y567300D01*
X510620Y567120D01*
X510230Y566910D01*
X509750Y566670D01*
X509690Y566640D01*
X509540Y566550D01*
X509300Y566430D01*
X509030Y566280D01*
X508730Y566100D01*
X508430Y565920D01*
X508190Y565740D01*
X507980Y565590D01*
X507950Y565560D01*
X507860Y565470D01*
X507800Y565380D01*
Y565320D01*
X507890D01*
X507950Y565290D01*
X508400D01*
X508550Y565260D01*
X508760Y565230D01*
X509060Y565140D01*
X509090D01*
X509150Y565110D01*
X509210Y565080D01*
X509330Y565050D01*
X509600Y564930D01*
X509900Y564780D01*
X509930D01*
X509960Y564750D01*
X510170Y564690D01*
X510410Y564570D01*
X510680Y564480D01*
X510710D01*
X510740Y564450D01*
X510890Y564420D01*
X511040Y564360D01*
X511190Y564330D01*
X511220D01*
X511310Y564300D01*
X511490Y564270D01*
X511730Y564180D01*
X513680Y563610D01*
X513710D01*
X513770Y563580D01*
X513860Y563550D01*
X513980Y563520D01*
X514250Y563430D01*
X514550Y563370D01*
X514580D01*
X514670Y563340D01*
X514790Y563310D01*
X514970Y563280D01*
X515180Y563220D01*
X515420Y563160D01*
X515930Y562980D01*
X515960D01*
X516050Y562950D01*
X516200Y562890D01*
X516350Y562830D01*
X516770Y562650D01*
X517190Y562500D01*
X517220D01*
X517250Y562470D01*
X517400Y562380D01*
X517550Y562290D01*
X517670Y562260D01*
X517700D01*
X517790Y562230D01*
X517910Y562170D01*
X518060Y562050D01*
X518090Y562020D01*
X518210Y561900D01*
X518390Y561750D01*
X518600Y561540D01*
X518660Y561480D01*
X518780Y561360D01*
X518960Y561210D01*
X519140Y561030D01*
X519170Y561000D01*
X519290Y560940D01*
X519380Y560880D01*
X519470Y560850D01*
X519500D01*
X519560Y560790D01*
X519710Y560730D01*
X519890Y560610D01*
X520130Y560400D01*
X520460Y560130D01*
X520850Y559800D01*
X521330Y559350D01*
X521360D01*
X521390Y559290D01*
X521570Y559140D01*
X521810Y558900D01*
X522080Y558600D01*
X522410Y558300D01*
X522710Y557970D01*
X522950Y557670D01*
X523160Y557400D01*
Y557370D01*
X523190Y557310D01*
X523250Y557220D01*
X523340Y557130D01*
X523520Y556830D01*
X523760Y556560D01*
X523790Y556530D01*
X523820Y556500D01*
X523850Y556440D01*
X523880Y556290D01*
X523940Y556110D01*
Y555840D01*
X523970Y555480D01*
Y555420D01*
Y555360D01*
Y555240D01*
Y555090D01*
X524000Y554910D01*
Y554670D01*
Y554370D01*
Y554040D01*
Y553650D01*
X524030Y553200D01*
Y552660D01*
Y552090D01*
Y551430D01*
Y550710D01*
Y549900D01*
Y543510D01*
X522980Y542460D01*
X518990D01*
X518660Y542490D01*
X518210D01*
X518060Y542520D01*
X517880Y542550D01*
X517520Y542580D01*
X517310Y542640D01*
X517160Y542670D01*
X517130D01*
X517100Y542700D01*
X517010D01*
X516890Y542730D01*
X516590Y542790D01*
X516200Y542850D01*
X516110D01*
X515990Y542880D01*
X515870D01*
X515540Y542910D01*
X515150Y542940D01*
X515060D01*
X514970Y542970D01*
X514640D01*
X514460Y543000D01*
X513980Y543060D01*
X513950D01*
X513860Y543090D01*
X513740D01*
X513590Y543120D01*
X513200Y543180D01*
X512780Y543270D01*
X512750D01*
X512690Y543300D01*
X512600D01*
X512450Y543330D01*
X512120Y543420D01*
X511730Y543480D01*
X511700D01*
X511640Y543510D01*
X511550D01*
X511430Y543540D01*
X511190Y543570D01*
X510770D01*
X510560Y543600D01*
X510260Y543660D01*
X510230D01*
X510200Y543690D01*
X510020Y543750D01*
X509750Y543810D01*
X509450Y543900D01*
X509420D01*
X509390Y543930D01*
X509180Y543960D01*
X508940Y544050D01*
X508640Y544110D01*
X508580Y544140D01*
X508430Y544170D01*
X508250Y544200D01*
X507980D01*
X507830Y544230D01*
X507650Y544260D01*
X507530Y544350D01*
X507500Y544380D01*
X507440Y544440D01*
X507320Y544500D01*
X507140Y544530D01*
X507080D01*
X506960Y544590D01*
X506750Y544740D01*
X506630Y544830D01*
X506480Y544980D01*
X506450Y545010D01*
X506390Y545070D01*
X506270Y545160D01*
X506060Y545280D01*
X505820Y545430D01*
X505490Y545610D01*
X505100Y545790D01*
X504620Y546000D01*
X504560Y546030D01*
X504380Y546090D01*
X504110Y546210D01*
X503750Y546360D01*
X503300Y546510D01*
X502820Y546690D01*
X502280Y546870D01*
X501710Y547020D01*
X501680D01*
X501650Y547050D01*
X501470Y547110D01*
X501230Y547170D01*
X500930Y547260D01*
X500900D01*
X500870Y547290D01*
X500720Y547350D01*
X500510Y547410D01*
X500300Y547500D01*
X500270D01*
X500240Y547530D01*
X500090Y547620D01*
X499880Y547680D01*
X499670Y547710D01*
X499640D01*
X499580Y547680D01*
X499490Y547620D01*
X499400Y547560D01*
X499280Y547440D01*
X499130Y547260D01*
X498950Y547050D01*
X498920Y547020D01*
X498860Y546930D01*
X498770Y546780D01*
X498650Y546600D01*
X498470Y546330D01*
X498290Y546030D01*
X498080Y545670D01*
X497840Y545250D01*
X497210Y544080D01*
Y544050D01*
X497150Y543990D01*
X497060Y543780D01*
X496910Y543540D01*
X496850Y543450D01*
X496790Y543390D01*
X496730Y543330D01*
X496640Y543180D01*
X496490Y543000D01*
X496400Y542790D01*
Y542760D01*
X496340Y542700D01*
X496250Y542550D01*
X496100Y542340D01*
X494990Y540750D01*
X494510Y540030D01*
X494480Y540000D01*
X494390Y539880D01*
X494210Y539670D01*
X494090Y539520D01*
X493940Y539370D01*
X493910Y539340D01*
X493880Y539280D01*
X493790Y539190D01*
X493670Y539100D01*
X493370Y538800D01*
X492980Y538470D01*
X490070Y536010D01*
X490040Y535980D01*
X489950Y535920D01*
X489800Y535800D01*
X489650Y535710D01*
X489350Y535440D01*
X489200Y535350D01*
X489110Y535290D01*
X489080D01*
X488990Y535260D01*
X488930D01*
X488810Y535230D01*
X488630D01*
X488420Y535200D01*
X488180Y535170D01*
X487850D01*
X487490Y535140D01*
X486530D01*
X485930Y535110D01*
X480230D01*
X479750Y535590D01*
X479690Y535650D01*
X479600Y535770D01*
X479480Y535950D01*
X479390Y536160D01*
Y536190D01*
Y536220D01*
Y536310D01*
X479360Y536430D01*
Y536610D01*
Y536820D01*
Y537090D01*
X479390Y537420D01*
X479510Y538590D01*
X479630Y539700D01*
Y539730D01*
Y539790D01*
X479660Y539910D01*
Y540090D01*
X479690Y540360D01*
X479720Y540720D01*
Y541170D01*
X479750Y541740D01*
Y541770D01*
Y541830D01*
Y541920D01*
Y542040D01*
Y542190D01*
X479780Y542370D01*
Y542820D01*
Y543360D01*
X479810Y543990D01*
Y544680D01*
Y545430D01*
Y550230D01*
X480500Y550830D01*
X480530Y550890D01*
X480650Y551040D01*
X480830Y551250D01*
X481040Y551490D01*
Y551520D01*
X481100Y551550D01*
X481220Y551730D01*
X481340Y551940D01*
X481460Y552180D01*
X481490Y552240D01*
X481550Y552360D01*
X481670Y552540D01*
X481820Y552750D01*
X481850Y552810D01*
X481940Y552930D01*
X482060Y553050D01*
X482150Y553170D01*
X482180Y553200D01*
X482210Y553230D01*
X482330Y553410D01*
X482480Y553650D01*
X482510Y553770D01*
X482540Y553920D01*
Y553950D01*
Y553980D01*
X482600Y554190D01*
X482690Y554430D01*
X482840Y554700D01*
X483200Y555030D01*
X481490Y556050D01*
X481460Y556080D01*
X481340Y556140D01*
X481130Y556290D01*
X480830Y556470D01*
X480800Y556500D01*
X480740Y556530D01*
X480650Y556590D01*
X480530Y556680D01*
X480230Y556920D01*
X479870Y557220D01*
X479840Y557250D01*
X479780Y557310D01*
X479690Y557400D01*
X479540Y557490D01*
X479210Y557790D01*
X478760Y558090D01*
X478730Y558120D01*
X478670Y558150D01*
X478550Y558240D01*
X478400Y558330D01*
X478040Y558540D01*
X477680Y558720D01*
X477650D01*
X477590Y558750D01*
X477500Y558810D01*
X477410Y558870D01*
X477110Y559020D01*
X476780Y559200D01*
X476750D01*
X476720Y559230D01*
X476570Y559350D01*
X476390Y559440D01*
X476240Y559560D01*
X476210Y559590D01*
X476120Y559650D01*
X475970Y559770D01*
X475790Y559890D01*
X475520Y560070D01*
X475190Y560250D01*
X474800Y560460D01*
X474350Y560700D01*
X474290Y560730D01*
X474140Y560820D01*
X473900Y560940D01*
X473570Y561060D01*
X473210Y561240D01*
X472820Y561390D01*
X472400Y561540D01*
X472010Y561660D01*
X471980D01*
X471950Y561690D01*
X471860Y561720D01*
X471740Y561750D01*
X471410Y561870D01*
X471020Y562020D01*
X470990D01*
X470930Y562050D01*
X470840Y562110D01*
X470690Y562170D01*
X470390Y562320D01*
X470030Y562500D01*
X470000Y562530D01*
X469910Y562560D01*
X469760Y562620D01*
X469580Y562710D01*
X469160Y562860D01*
X468740Y562980D01*
X468710D01*
X468650Y563010D01*
X468500D01*
X468320Y563040D01*
X468080D01*
X467750Y563070D01*
X466100D01*
X465800Y563100D01*
X465230D01*
X465050Y563130D01*
X465020D01*
X464990Y563160D01*
X464840Y563190D01*
X464630Y563310D01*
X464420Y563490D01*
Y563520D01*
X464390Y563550D01*
X464270Y563700D01*
X464150Y563910D01*
X464060Y564120D01*
Y564150D01*
Y564180D01*
X464030Y564270D01*
Y564390D01*
Y564540D01*
Y564750D01*
Y564990D01*
Y565290D01*
Y565320D01*
Y565380D01*
X464060Y565500D01*
Y565650D01*
X464090Y565830D01*
Y566040D01*
X464180Y566520D01*
X464270Y567030D01*
X464390Y567570D01*
X464540Y568050D01*
X464750Y568470D01*
X465260Y569580D01*
Y569610D01*
X465320Y569670D01*
X465380Y569790D01*
X465440Y569910D01*
X465590Y570210D01*
X465740Y570510D01*
X466460Y571620D01*
X466490Y571680D01*
X466580Y571830D01*
X466700Y572040D01*
X466850Y572340D01*
X466970Y572670D01*
X467090Y573030D01*
X467180Y573390D01*
X467210Y573780D01*
Y573810D01*
Y573840D01*
X467240Y574020D01*
X467300Y574260D01*
X467390Y574500D01*
Y574530D01*
X467450Y574620D01*
X467480Y574740D01*
X467570Y574980D01*
X467780Y575610D01*
Y575640D01*
X467810Y575670D01*
X467840Y575850D01*
X467960Y576120D01*
X468140Y576480D01*
Y576510D01*
X468200Y576570D01*
X468260Y576690D01*
X468320Y576810D01*
X468530Y577140D01*
X468740Y577500D01*
X468770Y577560D01*
X468890Y577710D01*
X469040Y577950D01*
X469190Y578220D01*
X469400Y578550D01*
X469550Y578880D01*
X469700Y579180D01*
X469820Y579480D01*
Y579510D01*
X469850Y579630D01*
X469880Y579810D01*
X469940Y580080D01*
X469970Y580410D01*
X470030Y580830D01*
X470060Y581340D01*
X470090Y581940D01*
Y581970D01*
Y582000D01*
Y582180D01*
X470120Y582420D01*
Y582720D01*
X470150Y583020D01*
X470180Y583320D01*
Y583620D01*
X470210Y583830D01*
Y583860D01*
X470240Y583920D01*
X470300Y584130D01*
X470390Y584370D01*
X470540Y584580D01*
X470570Y584610D01*
X470600Y584670D01*
X470690Y584760D01*
X470780Y584910D01*
X470870Y585090D01*
X471020Y585330D01*
X471140Y585570D01*
X471290Y585870D01*
X471320Y585900D01*
X471350Y586020D01*
X471440Y586200D01*
X471530Y586440D01*
X471650Y586710D01*
X471770Y587010D01*
X472010Y587730D01*
Y587760D01*
X472040Y587820D01*
X472100Y587940D01*
X472160Y588060D01*
X472340Y588390D01*
X472580Y588810D01*
X472910Y589200D01*
X473300Y589530D01*
X473540Y589650D01*
X473780Y589770D01*
X474050Y589830D01*
X474350Y589860D01*
X474440D01*
X474620Y589890D01*
X474830Y589860D01*
D02*
G37*
%LPC*%
G36*
X515720Y581760D02*
X514190Y581700D01*
X514040D01*
X513860Y581670D01*
X513620Y581640D01*
X513350Y581610D01*
X513020Y581580D01*
X512660Y581520D01*
X512300Y581460D01*
X511490Y581280D01*
X510680Y581070D01*
X510290Y580920D01*
X509930Y580740D01*
X509630Y580560D01*
X509330Y580350D01*
X509300Y580320D01*
X509240Y580290D01*
X509090Y580200D01*
X508880Y580140D01*
X508820D01*
X508670Y580080D01*
X508460Y580020D01*
X508160Y579960D01*
X508100D01*
X508010Y579930D01*
X507890Y579900D01*
X507590Y579840D01*
X507230Y579750D01*
X507200D01*
X507140Y579720D01*
X507050Y579690D01*
X506960Y579660D01*
X506690Y579540D01*
X506420Y579420D01*
X504650Y578730D01*
X503900Y578370D01*
X503870D01*
X503840Y578340D01*
X503660Y578250D01*
X503390Y578160D01*
X503120Y578040D01*
X503060Y578010D01*
X502910Y577980D01*
X502760Y577920D01*
X502610Y577890D01*
X502580D01*
X502550Y577860D01*
X502460Y577830D01*
X502310Y577770D01*
X502160Y577650D01*
X501920Y577500D01*
X501650Y577290D01*
X501350Y577020D01*
X501320Y576990D01*
X501200Y576900D01*
X501050Y576720D01*
X500870Y576540D01*
X500450Y576090D01*
X500270Y575850D01*
X500090Y575610D01*
X500060Y575580D01*
X500000Y575490D01*
X499880Y575340D01*
X499700Y575100D01*
X499400Y574770D01*
X499220Y574560D01*
X499010Y574320D01*
X498770Y574020D01*
X498470Y573720D01*
X498170Y573390D01*
X497810Y573000D01*
X497780Y572970D01*
X497720Y572910D01*
X497630Y572790D01*
X497480Y572640D01*
X497300Y572460D01*
X497090Y572220D01*
X496850Y571980D01*
X496610Y571680D01*
X496010Y571050D01*
X495350Y570360D01*
X494660Y569610D01*
X493940Y568860D01*
X492710Y567510D01*
X493160Y567360D01*
X493190D01*
X493250Y567330D01*
X493340Y567300D01*
X493430Y567270D01*
X493580Y567240D01*
X493760Y567210D01*
X494000Y567180D01*
X494270Y567120D01*
X494570Y567060D01*
X494960Y567000D01*
X495380Y566970D01*
X495890Y566910D01*
X496460Y566820D01*
X497090Y566760D01*
X497780Y566700D01*
X499130Y566580D01*
X499250D01*
X499370Y566550D01*
X499520D01*
X499880Y566490D01*
X500030Y566460D01*
X500180Y566430D01*
X500240D01*
X500330Y566400D01*
X500450Y566370D01*
X500750Y566340D01*
X501140Y566280D01*
X501530D01*
X501890Y566250D01*
X502310D01*
X503420Y566190D01*
X503510D01*
X503600Y566160D01*
X503720D01*
X503960Y566130D01*
X504200D01*
X504260Y566100D01*
X504470Y566040D01*
X504710Y566010D01*
X504920D01*
X505010Y566070D01*
X505100Y566190D01*
X505190Y566340D01*
Y566370D01*
X505220Y566400D01*
X505280Y566580D01*
X505310Y566760D01*
X505340Y566940D01*
Y566970D01*
X505400Y567060D01*
X505490Y567180D01*
X505670Y567390D01*
X505790Y567480D01*
X505940Y567630D01*
X506150Y567780D01*
X506390Y567930D01*
X506660Y568110D01*
X506960Y568290D01*
X507320Y568500D01*
X507740Y568710D01*
X509000Y569340D01*
X509690Y569760D01*
X509720D01*
X509750Y569790D01*
X509960Y569910D01*
X510200Y570000D01*
X510470Y570060D01*
X510530D01*
X510650Y570090D01*
X510770Y570150D01*
X510920Y570210D01*
X511130Y570300D01*
X511370Y570420D01*
X511640Y570570D01*
X511670Y570600D01*
X511790Y570660D01*
X511940Y570750D01*
X512150Y570900D01*
X512390Y571080D01*
X512660Y571290D01*
X512960Y571530D01*
X513260Y571800D01*
X513980Y572400D01*
X514010Y572430D01*
X514130Y572520D01*
X514250Y572580D01*
X514340Y572610D01*
X514370D01*
X514430Y572640D01*
X514550Y572700D01*
X514730Y572790D01*
X515420Y573210D01*
X516440Y573780D01*
X516380Y577320D01*
Y577350D01*
Y577410D01*
Y577530D01*
Y577680D01*
Y577860D01*
X516350Y578070D01*
Y578550D01*
X516320Y579060D01*
Y579570D01*
X516290Y580020D01*
X516260Y580200D01*
Y580350D01*
Y580380D01*
Y580470D01*
X516230Y580620D01*
X516200Y580770D01*
X516140Y581070D01*
X516080Y581190D01*
X516020Y581280D01*
X515720Y581760D01*
D02*
G37*
G36*
X473420Y583860D02*
X473060Y583530D01*
X473030Y583500D01*
X472940Y583380D01*
X472820Y583170D01*
X472760Y582870D01*
Y582840D01*
Y582780D01*
Y582660D01*
X472730Y582480D01*
Y582240D01*
X472700Y581910D01*
Y581550D01*
X472670Y581070D01*
Y581040D01*
Y581010D01*
Y580920D01*
X472640Y580800D01*
X472610Y580530D01*
X472580Y580170D01*
X472550Y579750D01*
X472490Y579360D01*
X472430Y578940D01*
X472340Y578580D01*
Y578550D01*
X472310Y578430D01*
X472250Y578280D01*
X472190Y578070D01*
X471980Y577620D01*
X471860Y577410D01*
X471710Y577200D01*
X471680Y577170D01*
X471590Y577050D01*
X471470Y576870D01*
X471320Y576600D01*
X471110Y576270D01*
X470900Y575880D01*
X470660Y575400D01*
X470420Y574890D01*
Y574860D01*
X470390Y574830D01*
X470330Y574650D01*
X470210Y574380D01*
X470120Y574050D01*
X470000Y573690D01*
X469880Y573300D01*
X469820Y572910D01*
X469790Y572550D01*
Y572520D01*
X469760Y572400D01*
X469700Y572190D01*
X469580Y571890D01*
Y571860D01*
X469550Y571800D01*
X469490Y571710D01*
X469460Y571620D01*
X469310Y571320D01*
X469130Y570990D01*
Y570960D01*
X469100Y570930D01*
X469040Y570840D01*
X468980Y570720D01*
X468830Y570450D01*
X468650Y570090D01*
X468410Y569640D01*
X468170Y569190D01*
X467930Y568710D01*
X467690Y568260D01*
X467660Y568200D01*
X467600Y568080D01*
X467480Y567870D01*
X467390Y567600D01*
X467120Y567060D01*
X467030Y566820D01*
X466970Y566640D01*
X466790Y565950D01*
Y565920D01*
Y565860D01*
X466880Y565770D01*
X466940Y565740D01*
X467060Y565710D01*
X467120D01*
X467240Y565680D01*
X467360D01*
X467570Y565650D01*
X467810D01*
X468140Y565620D01*
X468530Y565590D01*
X468710D01*
X468920Y565560D01*
X469160D01*
X469670Y565500D01*
X469910Y565470D01*
X470120Y565440D01*
X470150D01*
X470210Y565410D01*
X470300D01*
X470390Y565380D01*
X470660Y565290D01*
X470930Y565140D01*
X470960D01*
X470990Y565110D01*
X471140Y565020D01*
X471410Y564900D01*
X471710Y564720D01*
X471740D01*
X471800Y564690D01*
X471890Y564630D01*
X472010Y564600D01*
X472310Y564480D01*
X472670Y564360D01*
X474170Y563760D01*
X474200D01*
X474260Y563730D01*
X474350Y563700D01*
X474470Y563670D01*
X474740Y563580D01*
X475070Y563490D01*
X475100Y563460D01*
X475220Y563400D01*
X475400Y563280D01*
X475640Y563130D01*
X476930Y562320D01*
X476960D01*
X476990Y562260D01*
X477200Y562140D01*
X477440Y561960D01*
X477710Y561780D01*
X477740Y561750D01*
X477800Y561690D01*
X477920Y561630D01*
X478100Y561510D01*
X478160Y561480D01*
X478280Y561420D01*
X478460Y561360D01*
X478670Y561270D01*
X478730D01*
X478850Y561210D01*
X479030Y561120D01*
X479270Y561000D01*
X479300D01*
X479330Y560970D01*
X479480Y560880D01*
X479690Y560730D01*
X479870Y560550D01*
X479900Y560520D01*
X479930Y560490D01*
X480110Y560310D01*
X480350Y560130D01*
X480440Y560040D01*
X480530Y560010D01*
X480560D01*
X480620Y559980D01*
X480710Y559920D01*
X480830Y559860D01*
X480980Y559770D01*
X481160Y559620D01*
X481400Y559440D01*
X481460Y559410D01*
X481610Y559290D01*
X481820Y559110D01*
X482120Y558870D01*
X482480Y558630D01*
X482900Y558330D01*
X483350Y558060D01*
X483830Y557760D01*
X483860D01*
X483890Y557730D01*
X484040Y557640D01*
X484280Y557550D01*
X484520Y557400D01*
X484820Y557280D01*
X485090Y557190D01*
X485330Y557100D01*
X485480D01*
X485510Y557130D01*
X485600Y557220D01*
X485750Y557400D01*
X485960Y557610D01*
X486890Y558690D01*
X486920Y558720D01*
X486950Y558750D01*
X487100Y558930D01*
X487250Y559170D01*
X487400Y559410D01*
Y559440D01*
X487430Y559470D01*
X487490Y559620D01*
X487550Y559890D01*
X487610Y560190D01*
Y560220D01*
Y560250D01*
X487640Y560340D01*
X487670Y560460D01*
X487730Y560730D01*
X487880Y561060D01*
X488060Y561360D01*
X488300Y561660D01*
X488630Y561870D01*
X488840Y561930D01*
X489050Y561960D01*
X489110D01*
X489320Y561930D01*
X489560Y561810D01*
X489710Y561750D01*
X489830Y561630D01*
X489950Y561510D01*
X490070Y561330D01*
X490190Y561120D01*
X490250Y560880D01*
X490310Y560580D01*
Y560220D01*
X490280Y559830D01*
X490190Y559380D01*
Y559350D01*
X490160Y559260D01*
X490130Y559140D01*
X490100Y558960D01*
X489950Y558570D01*
X489770Y558150D01*
Y558120D01*
X489710Y558060D01*
X489620Y557940D01*
X489530Y557760D01*
X489380Y557580D01*
X489170Y557340D01*
X488930Y557040D01*
X488660Y556740D01*
X487670Y555570D01*
X488060Y555510D01*
X488090D01*
X488240Y555450D01*
X488420Y555390D01*
X488660Y555270D01*
X489470Y554940D01*
X489500D01*
X489530Y554910D01*
X489740Y554820D01*
X490010Y554700D01*
X490310Y554580D01*
X490340D01*
X490400Y554550D01*
X490580Y554490D01*
X490790Y554430D01*
X491000Y554400D01*
X491030D01*
X491090Y554370D01*
X491180Y554340D01*
X491330Y554280D01*
X491570Y554160D01*
X491720Y554070D01*
X491810Y553980D01*
X491840Y553950D01*
X491960Y553860D01*
X492140Y553740D01*
X492350Y553650D01*
X492920Y553350D01*
X492950D01*
X492980Y553320D01*
X493070Y553260D01*
X493190Y553200D01*
X493460Y553050D01*
X493790Y552900D01*
X493820D01*
X493880Y552870D01*
X494060Y552810D01*
X494300Y552720D01*
X494510Y552690D01*
X494600D01*
X494720Y552660D01*
X494930Y552600D01*
X495170Y552510D01*
X495530Y552360D01*
X495950Y552180D01*
X496490Y551940D01*
X496520D01*
X496580Y551910D01*
X496670Y551880D01*
X496790Y551850D01*
X497120Y551730D01*
X497510Y551640D01*
X497570D01*
X497690Y551610D01*
X497840Y551640D01*
X497930Y551700D01*
X498020Y551790D01*
X498080Y551850D01*
X498140Y551940D01*
X498230Y552060D01*
X498350Y552240D01*
X498530Y552480D01*
X498740Y552780D01*
X498980Y553170D01*
X499010Y553200D01*
X499040Y553290D01*
X499100Y553410D01*
X499190Y553560D01*
X499310Y553770D01*
X499430Y554010D01*
X499670Y554550D01*
X499940Y555150D01*
X500180Y555780D01*
X500330Y556380D01*
X500390Y556650D01*
X500420Y556920D01*
Y556950D01*
Y556980D01*
X500450Y557100D01*
X500480Y557250D01*
X500570Y557370D01*
X500600Y557400D01*
X500660Y557460D01*
X500690Y557580D01*
X500720Y557730D01*
Y557760D01*
X500750Y557790D01*
X500810Y557940D01*
X500930Y558180D01*
X501140Y558420D01*
X501170Y558450D01*
X501200Y558480D01*
X501410Y558600D01*
X501680Y558690D01*
X501830Y558750D01*
X502070D01*
X502220Y558720D01*
X502430Y558660D01*
X502670Y558570D01*
X502880Y558390D01*
X503090Y558120D01*
X503180Y557940D01*
X503240Y557730D01*
X503300Y557490D01*
Y557220D01*
Y557190D01*
Y557160D01*
Y557010D01*
X503270Y556800D01*
X503240Y556590D01*
Y556560D01*
X503210Y556440D01*
X503150Y556320D01*
X503090Y556230D01*
Y556200D01*
X503030Y556140D01*
Y556050D01*
X503000Y555960D01*
X502970Y555810D01*
Y555630D01*
Y555600D01*
Y555540D01*
X502940Y555360D01*
X502880Y555120D01*
X502850Y555030D01*
X502790Y554970D01*
X502760Y554940D01*
X502730Y554880D01*
X502700Y554790D01*
X502670Y554610D01*
Y554550D01*
X502640Y554400D01*
X502580Y554160D01*
X502430Y553800D01*
Y553770D01*
X502400Y553710D01*
X502340Y553620D01*
X502280Y553500D01*
X502100Y553170D01*
X501890Y552810D01*
X501020Y551400D01*
Y551370D01*
X500960Y551310D01*
X500900Y551190D01*
X500840Y551070D01*
X500690Y550770D01*
X500630Y550650D01*
X500570Y550530D01*
Y550500D01*
Y550410D01*
X500600Y550320D01*
X500660Y550290D01*
X500720Y550260D01*
X500780D01*
X500900Y550200D01*
X501140Y550110D01*
X501470Y549930D01*
X501500D01*
X501560Y549900D01*
X501650Y549840D01*
X501770Y549810D01*
X502040Y549690D01*
X502250Y549660D01*
X502280D01*
X502340Y549630D01*
X502460D01*
X502640Y549570D01*
X502880Y549510D01*
X503180Y549420D01*
X503570Y549270D01*
X504050Y549120D01*
X504080D01*
X504110Y549090D01*
X504290Y549030D01*
X504560Y548970D01*
X504890Y548850D01*
X505250Y548700D01*
X505640Y548550D01*
X506030Y548400D01*
X506420Y548250D01*
X506450D01*
X506480Y548220D01*
X506660Y548100D01*
X506900Y547950D01*
X507170Y547800D01*
X507200D01*
X507230Y547770D01*
X507380Y547680D01*
X507530Y547560D01*
X507650Y547440D01*
X507680D01*
X507710Y547380D01*
X507860Y547290D01*
X508040Y547170D01*
X508250Y547110D01*
X508310D01*
X508400Y547080D01*
X508520Y547020D01*
X508640Y546930D01*
X508670Y546900D01*
X508760Y546870D01*
X508940Y546810D01*
X509060Y546780D01*
X509360D01*
X509510Y546750D01*
X509750Y546690D01*
X509780D01*
X509810Y546660D01*
X509960Y546630D01*
X510200Y546540D01*
X510440Y546450D01*
X510470D01*
X510500Y546420D01*
X510680Y546360D01*
X510920Y546300D01*
X511250Y546210D01*
X511340D01*
X511430Y546180D01*
X511550D01*
X511820Y546150D01*
X512360D01*
X512510Y546120D01*
X512870Y546090D01*
X513020Y546030D01*
X513110Y545970D01*
X513170Y545940D01*
X513230Y545910D01*
X513350Y545850D01*
X513500Y545820D01*
X513710Y545760D01*
X513980Y545700D01*
X514310Y545640D01*
X514370D01*
X514490Y545610D01*
X514670Y545580D01*
X514940D01*
X515240Y545550D01*
X515600Y545520D01*
X516380Y545490D01*
X516710D01*
X517010Y545460D01*
X517370Y545430D01*
X517460D01*
X517670Y545400D01*
X517910Y545340D01*
X518120Y545280D01*
X518180D01*
X518300Y545220D01*
X518540Y545160D01*
X518900Y545100D01*
X518990D01*
X519110Y545070D01*
X519260D01*
X519440Y545040D01*
X519650D01*
X520130Y545010D01*
X521480D01*
Y549990D01*
Y550020D01*
Y550140D01*
Y550290D01*
Y550500D01*
Y550740D01*
Y551040D01*
Y551670D01*
Y552390D01*
Y553080D01*
X521450Y553380D01*
Y553680D01*
Y553950D01*
Y554160D01*
Y554220D01*
Y554340D01*
X521420Y554490D01*
Y554700D01*
X521390Y554880D01*
X521360Y555060D01*
X521300Y555180D01*
X521240Y555210D01*
X521210Y555240D01*
X521150Y555360D01*
X521060Y555540D01*
X521000Y555720D01*
X520970Y555780D01*
X520940Y555870D01*
X520850Y555960D01*
X520730Y556140D01*
X520550Y556350D01*
X520310Y556590D01*
X520010Y556920D01*
X519980Y556950D01*
X519860Y557070D01*
X519680Y557250D01*
X519470Y557460D01*
X519230Y557700D01*
X518960Y557940D01*
X518690Y558180D01*
X518420Y558390D01*
X517760Y558780D01*
X517190Y559320D01*
X517160Y559350D01*
X517100Y559380D01*
X516980Y559470D01*
X516830Y559590D01*
X516620Y559710D01*
X516350Y559860D01*
X516050Y560010D01*
X515690Y560160D01*
X515660Y560190D01*
X515510Y560220D01*
X515330Y560310D01*
X515060Y560400D01*
X514760Y560520D01*
X514400Y560610D01*
X513680Y560790D01*
X512780Y561030D01*
X511790Y561360D01*
X511760D01*
X511700Y561390D01*
X511640Y561420D01*
X511520Y561480D01*
X511220Y561570D01*
X510920Y561660D01*
X510890D01*
X510860Y561690D01*
X510680Y561720D01*
X510500Y561750D01*
X510320Y561780D01*
X510290D01*
X510200Y561810D01*
X510050Y561840D01*
X509840Y561900D01*
X509780Y561930D01*
X509630Y561990D01*
X509420Y562080D01*
X509150Y562200D01*
X509090Y562230D01*
X509000Y562260D01*
X508910Y562320D01*
X508610Y562410D01*
X508190Y562530D01*
X508160D01*
X508100Y562560D01*
X507980Y562590D01*
X507800Y562650D01*
X507620Y562680D01*
X507410Y562740D01*
X506930Y562830D01*
X505460Y563070D01*
X504050Y563370D01*
X504020D01*
X503960Y563400D01*
X503840Y563430D01*
X503660Y563460D01*
X503480Y563520D01*
X503240Y563550D01*
X502730Y563640D01*
X502700D01*
X502610Y563670D01*
X502460D01*
X502310Y563700D01*
X501890Y563730D01*
X500720D01*
X500270Y563760D01*
X500180D01*
X500060Y563790D01*
X499910D01*
X499610Y563850D01*
X499280Y563880D01*
X499220D01*
X499130Y563910D01*
X499010D01*
X498860Y563940D01*
X498680Y563970D01*
X498440D01*
X498200Y564000D01*
X496850Y564180D01*
X496730D01*
X496610Y564210D01*
X496430D01*
X496220Y564240D01*
X495980Y564270D01*
X495440Y564330D01*
X494840Y564390D01*
X494240Y564480D01*
X493670Y564540D01*
X493400Y564600D01*
X493160Y564630D01*
X493100D01*
X492980Y564660D01*
X492770Y564720D01*
X492560Y564750D01*
X492320Y564840D01*
X492080Y564900D01*
X491900Y564960D01*
X491780Y565050D01*
X491750Y565080D01*
X491660Y565170D01*
X491540Y565260D01*
X491390Y565320D01*
X491360D01*
X491300Y565350D01*
X491240Y565380D01*
X491120Y565440D01*
X491000Y565530D01*
X490820Y565650D01*
X490580Y565800D01*
X490550Y565830D01*
X490490Y565890D01*
X490370Y565950D01*
X490220Y566070D01*
X489890Y566340D01*
X489560Y566610D01*
X489530Y566640D01*
X489500Y566670D01*
X489350Y566820D01*
X489140Y566940D01*
X489050Y567000D01*
X488960Y567030D01*
X488930D01*
X488840Y567060D01*
X488690Y567120D01*
X488480Y567180D01*
X487940Y567420D01*
X486950Y567990D01*
X486890Y568020D01*
X486770Y568080D01*
X486560Y568200D01*
X486320Y568350D01*
X486020Y568500D01*
X485690Y568650D01*
X485000Y568980D01*
X484970Y569010D01*
X484850Y569040D01*
X484700Y569130D01*
X484520Y569190D01*
X484160Y569370D01*
X483980Y569430D01*
X483860Y569460D01*
X483830D01*
X483710Y569490D01*
X483530Y569580D01*
X483260Y569730D01*
X483230D01*
X483200Y569790D01*
X483110Y569850D01*
X482990Y569940D01*
X482720Y570150D01*
X482390Y570450D01*
X482360Y570480D01*
X482270Y570570D01*
X482120Y570690D01*
X481970Y570840D01*
X481580Y571110D01*
X481400Y571230D01*
X481250Y571320D01*
X481190Y571350D01*
X481100Y571380D01*
X481010Y571410D01*
X480860Y571470D01*
X480680Y571500D01*
X480440Y571530D01*
X480200Y571560D01*
X480080D01*
X479960Y571590D01*
X479810Y571620D01*
X479420Y571680D01*
X479060Y571800D01*
X479030D01*
X479000Y571830D01*
X478910Y571890D01*
X478790Y571950D01*
X478460Y572100D01*
X478040Y572340D01*
X477980Y572370D01*
X477860Y572430D01*
X477680Y572550D01*
X477440Y572670D01*
X476900Y572940D01*
X476630Y573030D01*
X476390Y573120D01*
X476360D01*
X476300Y573150D01*
X475940D01*
X475790Y573120D01*
X475640Y573030D01*
X475520Y572940D01*
X475460Y572880D01*
X475310Y572790D01*
X475070Y572670D01*
X474890Y572640D01*
X474710Y572610D01*
X474620D01*
X474530Y572640D01*
X474410Y572670D01*
X474110Y572760D01*
X473960Y572850D01*
X473840Y572970D01*
X473420Y573330D01*
Y583860D01*
D02*
G37*
G36*
X485630Y553380D02*
X485570D01*
X485390Y553350D01*
X485210Y553260D01*
X485120Y553200D01*
X485090Y553080D01*
Y553020D01*
X485030Y552870D01*
X484940Y552690D01*
X484790Y552480D01*
X484760Y552450D01*
X484700Y552360D01*
X484610Y552240D01*
X484490Y552060D01*
X484250Y551580D01*
Y551550D01*
X484220Y551490D01*
X484160Y551370D01*
X484100Y551250D01*
X483920Y550950D01*
X483740Y550620D01*
Y550590D01*
X483710Y550560D01*
X483650Y550470D01*
X483560Y550350D01*
X483350Y550050D01*
X483020Y549660D01*
X482450Y548940D01*
X482330Y543570D01*
X482270Y539760D01*
Y539730D01*
Y539700D01*
Y539490D01*
X482240Y539220D01*
Y538920D01*
X482210Y538590D01*
X482180Y538290D01*
X482120Y538050D01*
Y537990D01*
X482090Y537930D01*
Y537900D01*
Y537840D01*
X482120Y537780D01*
X482210Y537750D01*
X482330Y537720D01*
X482480Y537690D01*
X482750D01*
X483020Y537660D01*
X484370D01*
X484730Y537690D01*
X486890D01*
X487250Y537720D01*
X487670D01*
X487760Y537750D01*
X487910D01*
X488150Y537810D01*
X488240Y537870D01*
X488300Y537930D01*
X488330Y537960D01*
X488420Y538020D01*
X488540Y538110D01*
X488690Y538140D01*
X488720D01*
X488810Y538200D01*
X488960Y538320D01*
X489020Y538410D01*
X489110Y538530D01*
X489140Y538560D01*
X489230Y538680D01*
X489410Y538830D01*
X489530Y538950D01*
X489680Y539070D01*
X489710Y539100D01*
X489770Y539130D01*
X489860Y539220D01*
X489980Y539310D01*
X490280Y539580D01*
X490670Y539880D01*
X490700Y539910D01*
X490760Y539970D01*
X490880Y540060D01*
X491000Y540150D01*
X491330Y540450D01*
X491660Y540780D01*
X491690Y540810D01*
X491720Y540840D01*
X491900Y541020D01*
X492080Y541260D01*
X492170Y541350D01*
X492230Y541440D01*
Y541470D01*
X492260Y541530D01*
X492380Y541680D01*
X492470Y541890D01*
X492530Y541950D01*
X492590Y542010D01*
X492620Y542040D01*
X492710Y542130D01*
X492770Y542190D01*
X492830Y542310D01*
X492950Y542430D01*
X493070Y542610D01*
X493100Y542640D01*
X493130Y542700D01*
X493220Y542850D01*
X493370Y543030D01*
X493520Y543270D01*
X493730Y543600D01*
X493940Y543960D01*
X494210Y544380D01*
X495740Y547080D01*
Y547110D01*
X495770Y547140D01*
X495890Y547320D01*
X496010Y547500D01*
X496160Y547650D01*
X496190Y547710D01*
X496280Y547830D01*
X496370Y547980D01*
X496430Y548160D01*
Y548190D01*
X496460Y548280D01*
X496550Y548400D01*
X496670Y548550D01*
X496700D01*
X496730Y548580D01*
X496850Y548700D01*
X496880Y548760D01*
X496850Y548850D01*
X496760Y548940D01*
X496610Y549030D01*
X496580D01*
X496490Y549090D01*
X496310Y549150D01*
X496190Y549210D01*
X496040Y549270D01*
X495860Y549330D01*
X495620Y549420D01*
X495380Y549510D01*
X495080Y549600D01*
X494750Y549720D01*
X494390Y549840D01*
X493970Y549960D01*
X493520Y550110D01*
X493490D01*
X493430Y550140D01*
X493310Y550170D01*
X493130Y550230D01*
X492950Y550320D01*
X492740Y550380D01*
X492260Y550590D01*
X492230D01*
X492170Y550650D01*
X492050Y550710D01*
X491900Y550770D01*
X491570Y550920D01*
X491270Y551100D01*
X491210Y551130D01*
X491060Y551250D01*
X490820Y551400D01*
X490550Y551550D01*
X490490Y551580D01*
X490340Y551670D01*
X490160Y551760D01*
X489980Y551820D01*
X489950D01*
X489830Y551880D01*
X489650Y551910D01*
X489410Y552000D01*
X488720Y552300D01*
X488690Y552330D01*
X488600Y552360D01*
X488420Y552450D01*
X488210Y552540D01*
X487970Y552660D01*
X487670Y552780D01*
X487040Y553020D01*
X487010Y553050D01*
X486890Y553080D01*
X486740Y553140D01*
X486530Y553200D01*
X486080Y553320D01*
X485840Y553350D01*
X485630Y553380D01*
D02*
G37*
%LPD*%
D10*
X362303Y561929D02*
G03*
X359567Y559193I0J-2736D01*
G01*
X380433Y561949D02*
G03*
X383169Y564685I0J2736D01*
G01*
X359567Y494902D02*
G03*
X362303Y492165I2736J0D01*
G01*
X383169Y489409D02*
G03*
X380433Y492146I-2736J0D01*
G01*
X443500Y433500D02*
G03*
X443500Y431500I0J-1000D01*
G01*
X595226Y263000D02*
G03*
X597726Y263000I1250J0D01*
G01*
X644658Y323750D02*
G03*
X644658Y326250I0J1250D01*
G01*
X595226Y403000D02*
G03*
X597726Y403000I1250J0D01*
G01*
X644658Y463750D02*
G03*
X644658Y466250I0J1250D01*
G01*
X595226Y543000D02*
G03*
X597726Y543000I1250J0D01*
G01*
X637000Y544000D02*
Y564000D01*
X617000D02*
X637000D01*
X617000Y544000D02*
X637000D01*
X617000D02*
Y564000D01*
X637000Y404000D02*
Y424000D01*
X617000D02*
X637000D01*
X617000Y404000D02*
X637000D01*
X617000D02*
Y424000D01*
X637000Y264000D02*
Y284000D01*
X617000D02*
X637000D01*
X617000Y264000D02*
X637000D01*
X617000D02*
Y284000D01*
X527500Y255000D02*
Y435000D01*
X507500Y255000D02*
Y435000D01*
Y255000D02*
X527500D01*
X507500Y435000D02*
X527500D01*
Y255000D02*
Y262500D01*
Y255000D02*
X537500D01*
Y435000D01*
X527500D02*
X537500D01*
X527500Y262500D02*
Y435000D01*
X362323Y561949D02*
X380433D01*
X362323Y492146D02*
X380433D01*
X395000Y499488D02*
X432008D01*
X383189Y466417D02*
Y587677D01*
X395000Y554606D02*
X432008D01*
X432008Y466417D02*
Y587677D01*
X359567Y494902D02*
Y559193D01*
X383189Y466417D02*
X432008D01*
X383189Y587677D02*
X432008D01*
X395000Y466417D02*
Y587677D01*
X450709Y468445D02*
Y486555D01*
X439291Y468445D02*
Y486555D01*
X449823D02*
X450709D01*
X449823Y468445D02*
X450709D01*
X439291Y486555D02*
X440177D01*
X439291Y468445D02*
X440177D01*
X411358Y386358D02*
X412146D01*
X411358Y418642D02*
X412146D01*
X442854Y386358D02*
X443642D01*
X442854Y418642D02*
X443642D01*
X411358Y386358D02*
Y418642D01*
X443642Y386358D02*
Y418642D01*
X461122Y439213D02*
Y440787D01*
X463878Y439213D02*
Y440787D01*
X448878Y439213D02*
Y440787D01*
X446122Y439213D02*
Y440787D01*
X431500Y429000D02*
Y436000D01*
X443500Y433500D02*
Y436000D01*
Y429000D02*
Y431500D01*
X446000Y244000D02*
X458000D01*
X446000Y228500D02*
X458000D01*
X444000Y233500D02*
Y239000D01*
X460000Y233500D02*
Y239000D01*
X517189Y218843D02*
Y231047D01*
X490811Y218843D02*
Y231047D01*
X517189D01*
X490811Y218843D02*
X517189D01*
X478622Y256713D02*
Y258287D01*
X481378Y256713D02*
Y258287D01*
X463878Y256713D02*
Y258287D01*
X461122Y256713D02*
Y258287D01*
X421713Y291122D02*
X423287D01*
X421713Y293878D02*
X423287D01*
X416713Y256122D02*
X418287D01*
X416713Y258878D02*
X418287D01*
X416713Y236122D02*
X418287D01*
X416713Y238878D02*
X418287D01*
X416713Y226122D02*
X418287D01*
X416713Y228878D02*
X418287D01*
X416260Y216122D02*
X417835D01*
X416260Y218878D02*
X417835D01*
X500378Y196658D02*
Y198232D01*
X497622Y196658D02*
Y198232D01*
X623429Y227933D02*
X636571D01*
X623429Y207067D02*
X636571D01*
X619547Y253425D02*
Y256575D01*
X625453Y253425D02*
Y256575D01*
X581398Y271398D02*
Y283602D01*
X610728Y271398D02*
X612500Y273169D01*
X610728Y283602D02*
X612500Y281831D01*
Y273169D02*
Y281831D01*
X581398Y271398D02*
X591634D01*
X581398Y283602D02*
X591634D01*
X601083D02*
X610728D01*
X601083Y271398D02*
X610728D01*
X681004Y249252D02*
Y275748D01*
X743996Y249252D02*
Y275748D01*
X681004Y249252D02*
X743996D01*
X681004Y275748D02*
X743996D01*
X588953Y242000D02*
X603953D01*
X597726Y263000D02*
X603953D01*
X588953D02*
X595226D01*
X683622Y289213D02*
Y290787D01*
X686378Y289213D02*
Y290787D01*
X673622Y309665D02*
Y311240D01*
X676378Y309665D02*
Y311240D01*
X572713Y276122D02*
X574287D01*
X572713Y278878D02*
X574287D01*
X634213Y253622D02*
X635787D01*
X634213Y256378D02*
X635787D01*
X634213Y286122D02*
X635787D01*
X634213Y288878D02*
X635787D01*
X665500Y317000D02*
Y333000D01*
X644657Y317000D02*
Y323750D01*
Y326250D02*
Y333000D01*
X623429Y367933D02*
X636571D01*
X623429Y347067D02*
X636571D01*
X619547Y393425D02*
Y396575D01*
X625453Y393425D02*
Y396575D01*
X581398Y411398D02*
Y423602D01*
X610728Y411398D02*
X612500Y413169D01*
X610728Y423602D02*
X612500Y421831D01*
Y413169D02*
Y421831D01*
X581398Y411398D02*
X591634D01*
X581398Y423602D02*
X591634D01*
X601083D02*
X610728D01*
X601083Y411398D02*
X610728D01*
X681004Y389252D02*
Y415748D01*
X743996Y389252D02*
Y415748D01*
X681004Y389252D02*
X743996D01*
X681004Y415748D02*
X743996D01*
X588953Y382000D02*
X603953D01*
X597726Y403000D02*
X603953D01*
X588953D02*
X595226D01*
X683622Y429213D02*
Y430787D01*
X686378Y429213D02*
Y430787D01*
X673622Y449665D02*
Y451240D01*
X676378Y449665D02*
Y451240D01*
X572713Y416122D02*
X574287D01*
X572713Y418878D02*
X574287D01*
X634213Y393622D02*
X635787D01*
X634213Y396378D02*
X635787D01*
X634213Y426122D02*
X635787D01*
X634213Y428878D02*
X635787D01*
X665500Y457000D02*
Y473000D01*
X644657Y457000D02*
Y463750D01*
Y466250D02*
Y473000D01*
X581398Y551398D02*
Y563602D01*
X610728Y551398D02*
X612500Y553169D01*
X610728Y563602D02*
X612500Y561831D01*
Y553169D02*
Y561831D01*
X581398Y551398D02*
X591634D01*
X581398Y563602D02*
X591634D01*
X601083D02*
X610728D01*
X601083Y551398D02*
X610728D01*
X400000Y212500D02*
X410000D01*
X400000Y272500D02*
X410000D01*
Y212500D02*
Y272500D01*
X400000Y212500D02*
Y272500D01*
X686378Y569213D02*
Y570787D01*
X683622Y569213D02*
Y570787D01*
X681004Y555748D02*
X743996D01*
X681004Y529252D02*
X743996D01*
Y555748D01*
X681004Y529252D02*
Y555748D01*
X588953Y543000D02*
X595226D01*
X597726D02*
X603953D01*
X588953Y522000D02*
X603953D01*
X572713Y558878D02*
X574287D01*
X572713Y556122D02*
X574287D01*
X625453Y533425D02*
Y536575D01*
X619547Y533425D02*
Y536575D01*
X623429Y487067D02*
X636571D01*
X623429Y507933D02*
X636571D01*
X634213Y536378D02*
X635787D01*
X634213Y533622D02*
X635787D01*
X634213Y568878D02*
X635787D01*
X634213Y566122D02*
X635787D01*
D11*
X450906Y489114D02*
G03*
X450906Y489114I-492J0D01*
G01*
X491303Y213429D02*
G03*
X491303Y213429I-492J0D01*
G01*
X693504Y278110D02*
G03*
X693504Y278110I-492J0D01*
G01*
Y418110D02*
G03*
X693504Y418110I-492J0D01*
G01*
Y558110D02*
G03*
X693504Y558110I-492J0D01*
G01*
D12*
X443036Y273028D02*
G03*
X443036Y273028I-300J0D01*
G01*
X627000Y404000D02*
Y424000D01*
Y264000D02*
Y284000D01*
X437300Y320200D02*
X440829D01*
X477700Y316671D02*
Y320200D01*
X474171Y279800D02*
X477700D01*
X437300D02*
X440829D01*
X437300Y316671D02*
Y320200D01*
X474171D02*
X477700D01*
Y279800D02*
Y283329D01*
X437300Y279800D02*
Y283329D01*
X639001Y278000D02*
X642000D01*
Y279999D01*
X639001Y280999D02*
X641500D01*
X642000Y281499D01*
Y282499D01*
X641500Y282998D01*
X639001D01*
Y267000D02*
X642000D01*
X640500D01*
Y268999D01*
X639001D01*
X642000D01*
X639001Y269999D02*
X641500D01*
X642000Y270499D01*
Y271498D01*
X641500Y271998D01*
X639001D01*
Y417000D02*
X642000D01*
Y418999D01*
X639001Y419999D02*
X641000D01*
X642000Y420999D01*
X641000Y421998D01*
X639001D01*
Y406000D02*
X642000D01*
X640500D01*
Y407999D01*
X639001D01*
X642000D01*
X639001Y408999D02*
X641000D01*
X642000Y409999D01*
X641000Y410998D01*
X639001D01*
Y546000D02*
X642000D01*
X640500D01*
Y547999D01*
X639001D01*
X642000D01*
X639001Y548999D02*
X642000D01*
X641000Y549999D01*
X642000Y550998D01*
X639001D01*
Y557000D02*
X642000D01*
Y558999D01*
X639001Y559999D02*
X642000D01*
X641000Y560999D01*
X642000Y561998D01*
X639001D01*
X488498Y260499D02*
Y258000D01*
X488998Y257500D01*
X489998D01*
X490497Y258000D01*
Y260499D01*
X491497Y257000D02*
X493496D01*
X494496Y260499D02*
Y258500D01*
X495496Y257500D01*
X496495Y258500D01*
Y260499D01*
X498995D02*
X497995D01*
X497495Y259999D01*
Y258000D01*
X497995Y257500D01*
X498995D01*
X499495Y258000D01*
Y259999D01*
X498995Y260499D01*
X500494D02*
Y257500D01*
X502493D01*
X503493Y260499D02*
X505493D01*
X504493D01*
Y257500D01*
X488498Y270499D02*
Y268500D01*
X489498Y267500D01*
X490497Y268500D01*
Y270499D01*
X491497Y267000D02*
X493496D01*
X494496Y270499D02*
Y268500D01*
X495496Y267500D01*
X496495Y268500D01*
Y270499D01*
X498995D02*
X497995D01*
X497495Y269999D01*
Y268000D01*
X497995Y267500D01*
X498995D01*
X499495Y268000D01*
Y269999D01*
X498995Y270499D01*
X500494D02*
Y267500D01*
X502493D01*
X503493Y270499D02*
X505493D01*
X504493D01*
Y267500D01*
X482500Y420499D02*
Y418000D01*
X483000Y417500D01*
X483999D01*
X484499Y418000D01*
Y420499D01*
X487498Y419999D02*
X486999Y420499D01*
X485999D01*
X485499Y419999D01*
Y419499D01*
X485999Y418999D01*
X486999D01*
X487498Y418500D01*
Y418000D01*
X486999Y417500D01*
X485999D01*
X485499Y418000D01*
X488498Y417500D02*
Y419499D01*
X489498Y420499D01*
X490497Y419499D01*
Y417500D01*
Y418999D01*
X488498D01*
X491497Y417500D02*
Y420499D01*
X492997D01*
X493496Y419999D01*
Y418999D01*
X492997Y418500D01*
X491497D01*
X492497D02*
X493496Y417500D01*
X494496Y420499D02*
X496495D01*
X495496D01*
Y417500D01*
X497495Y417000D02*
X499495D01*
X500494Y420499D02*
X502493D01*
X501494D01*
Y417500D01*
X503493Y420499D02*
X505493Y417500D01*
Y420499D02*
X503493Y417500D01*
X754499Y234999D02*
X754000Y235499D01*
X753000D01*
X752500Y234999D01*
Y233000D01*
X753000Y232500D01*
X754000D01*
X754499Y233000D01*
Y233999D01*
X753500D01*
X755499Y232500D02*
Y235499D01*
X757498Y232500D01*
Y235499D01*
X758498D02*
Y232500D01*
X759998D01*
X760497Y233000D01*
Y234999D01*
X759998Y235499D01*
X758498D01*
X488498Y280499D02*
Y277500D01*
X489498Y278500D01*
X490497Y277500D01*
Y280499D01*
X491497Y277000D02*
X493496D01*
X494496Y280499D02*
Y278500D01*
X495496Y277500D01*
X496495Y278500D01*
Y280499D01*
X498995D02*
X497995D01*
X497495Y279999D01*
Y278000D01*
X497995Y277500D01*
X498995D01*
X499495Y278000D01*
Y279999D01*
X498995Y280499D01*
X500494D02*
Y277500D01*
X502493D01*
X503493Y280499D02*
X505493D01*
X504493D01*
Y277500D01*
X491497Y290499D02*
X493496D01*
X492497D01*
Y287500D01*
X494496Y290499D02*
Y287500D01*
Y289000D01*
X496495D01*
Y290499D01*
Y287500D01*
X497495D02*
Y290499D01*
X498995D01*
X499495Y289999D01*
Y289000D01*
X498995Y288500D01*
X497495D01*
X498495D02*
X499495Y287500D01*
X501994Y290499D02*
X500994D01*
X500494Y289999D01*
Y288000D01*
X500994Y287500D01*
X501994D01*
X502493Y288000D01*
Y289999D01*
X501994Y290499D01*
X503493D02*
X505493D01*
X504493D01*
Y287500D01*
X488498Y300499D02*
Y298000D01*
X488998Y297500D01*
X489998D01*
X490497Y298000D01*
Y300499D01*
X491497Y297000D02*
X493496D01*
X494496Y300499D02*
Y298500D01*
X495496Y297500D01*
X496495Y298500D01*
Y300499D01*
X498995D02*
X497995D01*
X497495Y299999D01*
Y298000D01*
X497995Y297500D01*
X498995D01*
X499495Y298000D01*
Y299999D01*
X498995Y300499D01*
X500494D02*
Y297500D01*
X502493D01*
X503493Y300499D02*
X505493D01*
X504493D01*
Y297500D01*
X491497Y310499D02*
Y307500D01*
X492497Y308500D01*
X493496Y307500D01*
Y310499D01*
X494496Y307000D02*
X496495D01*
X497495Y310499D02*
Y307500D01*
X499495D01*
X501994Y310499D02*
X500994D01*
X500494Y309999D01*
Y308000D01*
X500994Y307500D01*
X501994D01*
X502493Y308000D01*
Y309999D01*
X501994Y310499D01*
X503493D02*
Y307500D01*
X504493Y308500D01*
X505493Y307500D01*
Y310499D01*
X491497Y320499D02*
Y318500D01*
X492497Y317500D01*
X493496Y318500D01*
Y320499D01*
X494496Y317000D02*
X496495D01*
X497495Y320499D02*
Y317500D01*
X499495D01*
X501994Y320499D02*
X500994D01*
X500494Y319999D01*
Y318000D01*
X500994Y317500D01*
X501994D01*
X502493Y318000D01*
Y319999D01*
X501994Y320499D01*
X503493D02*
Y317500D01*
X504493Y318500D01*
X505493Y317500D01*
Y320499D01*
X488498Y330499D02*
Y328000D01*
X488998Y327500D01*
X489998D01*
X490497Y328000D01*
Y330499D01*
X491497Y327000D02*
X493496D01*
X494496Y330499D02*
Y327500D01*
Y328999D01*
X496495D01*
Y330499D01*
Y327500D01*
X497495D02*
Y329499D01*
X498495Y330499D01*
X499495Y329499D01*
Y327500D01*
Y328999D01*
X497495D01*
X500494Y330499D02*
Y327500D01*
X502493D01*
X503493Y330499D02*
Y327500D01*
X505493D01*
X488498Y340499D02*
Y338500D01*
X489498Y337500D01*
X490497Y338500D01*
Y340499D01*
X491497Y337000D02*
X493496D01*
X494496Y340499D02*
Y337500D01*
Y339000D01*
X496495D01*
Y340499D01*
Y337500D01*
X497495D02*
Y339499D01*
X498495Y340499D01*
X499495Y339499D01*
Y337500D01*
Y339000D01*
X497495D01*
X500494Y340499D02*
Y337500D01*
X502493D01*
X503493Y340499D02*
Y337500D01*
X505493D01*
X488498Y350499D02*
Y347500D01*
X489498Y348500D01*
X490497Y347500D01*
Y350499D01*
X491497Y347000D02*
X493496D01*
X494496Y350499D02*
Y347500D01*
Y349000D01*
X496495D01*
Y350499D01*
Y347500D01*
X497495D02*
Y349499D01*
X498495Y350499D01*
X499495Y349499D01*
Y347500D01*
Y349000D01*
X497495D01*
X500494Y350499D02*
Y347500D01*
X502493D01*
X503493Y350499D02*
Y347500D01*
X505493D01*
X488998Y360499D02*
Y358000D01*
X489498Y357500D01*
X490497D01*
X490997Y358000D01*
Y360499D01*
X491997Y357000D02*
X493996D01*
X494996Y360499D02*
Y357500D01*
Y358999D01*
X496995D01*
Y360499D01*
Y357500D01*
X497995Y360499D02*
X498995D01*
X498495D01*
Y357500D01*
X497995D01*
X498995D01*
X502493Y359999D02*
X501994Y360499D01*
X500994D01*
X500494Y359999D01*
Y358000D01*
X500994Y357500D01*
X501994D01*
X502493Y358000D01*
Y358999D01*
X501494D01*
X503493Y360499D02*
Y357500D01*
Y358999D01*
X505493D01*
Y360499D01*
Y357500D01*
X488998Y370499D02*
Y367500D01*
X489998Y368500D01*
X490997Y367500D01*
Y370499D01*
X491997Y367000D02*
X493996D01*
X494996Y370499D02*
Y367500D01*
Y369000D01*
X496995D01*
Y370499D01*
Y367500D01*
X497995Y370499D02*
X498995D01*
X498495D01*
Y367500D01*
X497995D01*
X498995D01*
X502493Y369999D02*
X501994Y370499D01*
X500994D01*
X500494Y369999D01*
Y368000D01*
X500994Y367500D01*
X501994D01*
X502493Y368000D01*
Y369000D01*
X501494D01*
X503493Y370499D02*
Y367500D01*
Y369000D01*
X505493D01*
Y370499D01*
Y367500D01*
X488998Y380499D02*
Y378500D01*
X489998Y377500D01*
X490997Y378500D01*
Y380499D01*
X491997Y377000D02*
X493996D01*
X494996Y380499D02*
Y377500D01*
Y378999D01*
X496995D01*
Y380499D01*
Y377500D01*
X497995Y380499D02*
X498995D01*
X498495D01*
Y377500D01*
X497995D01*
X498995D01*
X502493Y379999D02*
X501994Y380499D01*
X500994D01*
X500494Y379999D01*
Y378000D01*
X500994Y377500D01*
X501994D01*
X502493Y378000D01*
Y378999D01*
X501494D01*
X503493Y380499D02*
Y377500D01*
Y378999D01*
X505493D01*
Y380499D01*
Y377500D01*
X494496Y387500D02*
Y390499D01*
X495496Y389499D01*
X496495Y390499D01*
Y387500D01*
X497495Y387000D02*
X499495D01*
X500494Y390499D02*
Y387500D01*
Y389000D01*
X502493D01*
Y390499D01*
Y387500D01*
X503493Y390499D02*
Y387500D01*
X504993D01*
X505493Y388000D01*
Y388500D01*
X504993Y389000D01*
X503493D01*
X504993D01*
X505493Y389499D01*
Y389999D01*
X504993Y390499D01*
X503493D01*
X487998Y400499D02*
X485999D01*
Y397500D01*
X487998D01*
X485999Y399000D02*
X486999D01*
X488998Y400499D02*
X490997Y397500D01*
Y400499D02*
X488998Y397500D01*
X491997Y397000D02*
X493996D01*
X494996Y400499D02*
X496995D01*
X495996D01*
Y397500D01*
X497995D02*
Y400499D01*
X499495D01*
X499994Y399999D01*
Y399000D01*
X499495Y398500D01*
X497995D01*
X498995D02*
X499994Y397500D01*
X500994Y400499D02*
X501994D01*
X501494D01*
Y397500D01*
X500994D01*
X501994D01*
X505493Y399999D02*
X504993Y400499D01*
X503993D01*
X503493Y399999D01*
Y398000D01*
X503993Y397500D01*
X504993D01*
X505493Y398000D01*
Y399000D01*
X504493D01*
X482500Y430499D02*
Y428000D01*
X483000Y427500D01*
X483999D01*
X484499Y428000D01*
Y430499D01*
X487498Y429999D02*
X486999Y430499D01*
X485999D01*
X485499Y429999D01*
Y429499D01*
X485999Y429000D01*
X486999D01*
X487498Y428500D01*
Y428000D01*
X486999Y427500D01*
X485999D01*
X485499Y428000D01*
X488498Y427500D02*
Y429499D01*
X489498Y430499D01*
X490497Y429499D01*
Y427500D01*
Y429000D01*
X488498D01*
X491497Y427500D02*
Y430499D01*
X492997D01*
X493496Y429999D01*
Y429000D01*
X492997Y428500D01*
X491497D01*
X492497D02*
X493496Y427500D01*
X494496Y430499D02*
X496495D01*
X495496D01*
Y427500D01*
X497495Y427000D02*
X499495D01*
X500494Y427500D02*
Y430499D01*
X501994D01*
X502493Y429999D01*
Y429000D01*
X501994Y428500D01*
X500494D01*
X501494D02*
X502493Y427500D01*
X503493Y430499D02*
X505493Y427500D01*
Y430499D02*
X503493Y427500D01*
X390000Y215000D02*
Y217999D01*
X391499D01*
X391999Y217499D01*
Y216499D01*
X391499Y216000D01*
X390000D01*
X392999Y217999D02*
Y215000D01*
X394498D01*
X394998Y215500D01*
Y216000D01*
X394498Y216499D01*
X392999D01*
X394498D01*
X394998Y216999D01*
Y217499D01*
X394498Y217999D01*
X392999D01*
X395998Y217499D02*
X396498Y217999D01*
X397498D01*
X397997Y217499D01*
Y216999D01*
X397498Y216499D01*
X396998D01*
X397498D01*
X397997Y216000D01*
Y215500D01*
X397498Y215000D01*
X396498D01*
X395998Y215500D01*
X387500Y225000D02*
Y227999D01*
X389499Y225000D01*
Y227999D01*
X390499Y225000D02*
Y227999D01*
X391999D01*
X392498Y227499D01*
Y226500D01*
X391999Y226000D01*
X390499D01*
X391499D02*
X392498Y225000D01*
X395497Y227499D02*
X394998Y227999D01*
X393998D01*
X393498Y227499D01*
Y226999D01*
X393998Y226500D01*
X394998D01*
X395497Y226000D01*
Y225500D01*
X394998Y225000D01*
X393998D01*
X393498Y225500D01*
X396497Y227999D02*
X398496D01*
X397497D01*
Y225000D01*
X390000Y237999D02*
X391999D01*
X391000D01*
Y235000D01*
X392999D02*
Y237999D01*
X393999Y236999D01*
X394998Y237999D01*
Y235000D01*
X397997Y237499D02*
X397498Y237999D01*
X396498D01*
X395998Y237499D01*
Y236999D01*
X396498Y236500D01*
X397498D01*
X397997Y236000D01*
Y235500D01*
X397498Y235000D01*
X396498D01*
X395998Y235500D01*
X391999Y247499D02*
X391499Y247999D01*
X390500D01*
X390000Y247499D01*
Y245500D01*
X390500Y245000D01*
X391499D01*
X391999Y245500D01*
Y246499D01*
X391000D01*
X392999Y245000D02*
Y247999D01*
X394998Y245000D01*
Y247999D01*
X395998D02*
Y245000D01*
X397498D01*
X397997Y245500D01*
Y247499D01*
X397498Y247999D01*
X395998D01*
X390000Y257999D02*
X391999D01*
X391000D01*
Y255000D01*
X394998Y257499D02*
X394498Y257999D01*
X393499D01*
X392999Y257499D01*
Y255500D01*
X393499Y255000D01*
X394498D01*
X394998Y255500D01*
X395998Y257999D02*
Y255000D01*
Y256000D01*
X397997Y257999D01*
X396498Y256500D01*
X397997Y255000D01*
X390000Y267999D02*
Y266000D01*
X391000Y265000D01*
X391999Y266000D01*
Y267999D01*
X392999D02*
Y265000D01*
X394498D01*
X394998Y265500D01*
Y267499D01*
X394498Y267999D01*
X392999D01*
X395998D02*
Y265000D01*
X397498D01*
X397997Y265500D01*
Y267499D01*
X397498Y267999D01*
X395998D01*
X492997Y410499D02*
X491997D01*
X491497Y409999D01*
Y408000D01*
X491997Y407500D01*
X492997D01*
X493496Y408000D01*
Y409999D01*
X492997Y410499D01*
X494496Y407500D02*
Y410499D01*
X496495Y407500D01*
Y410499D01*
X497495Y407000D02*
X499495D01*
X502493Y409999D02*
X501994Y410499D01*
X500994D01*
X500494Y409999D01*
Y409499D01*
X500994Y408999D01*
X501994D01*
X502493Y408500D01*
Y408000D01*
X501994Y407500D01*
X500994D01*
X500494Y408000D01*
X503493Y410499D02*
Y407500D01*
X504493Y408500D01*
X505493Y407500D01*
Y410499D01*
X416500Y362000D02*
X414501D01*
X415500Y361001D02*
Y363000D01*
X416500Y444500D02*
X414501D01*
X415500Y443501D02*
Y445500D01*
X685000Y233999D02*
X686999D01*
X686000Y234999D02*
Y233000D01*
X687999Y235499D02*
Y233500D01*
X688999Y232500D01*
X689998Y233500D01*
Y235499D01*
X690998D02*
Y232500D01*
X692498D01*
X692997Y233000D01*
Y233500D01*
X692498Y233999D01*
X690998D01*
X692498D01*
X692997Y234499D01*
Y234999D01*
X692498Y235499D01*
X690998D01*
X694497Y234499D02*
X695497D01*
X695996Y233999D01*
Y232500D01*
X694497D01*
X693997Y233000D01*
X694497Y233500D01*
X695996D01*
X697496Y234999D02*
Y234499D01*
X696996D01*
X697996D01*
X697496D01*
Y233000D01*
X697996Y232500D01*
X699995Y234999D02*
Y234499D01*
X699495D01*
X700495D01*
X699995D01*
Y233000D01*
X700495Y232500D01*
X755000Y312500D02*
Y315499D01*
X756499D01*
X756999Y314999D01*
Y314000D01*
X756499Y313500D01*
X755000D01*
X757999Y315499D02*
Y312500D01*
Y314000D01*
X759998D01*
Y315499D01*
Y312500D01*
X760998D02*
Y314499D01*
X761998Y315499D01*
X762997Y314499D01*
Y312500D01*
Y314000D01*
X760998D01*
X765996Y314999D02*
X765497Y315499D01*
X764497D01*
X763997Y314999D01*
Y314499D01*
X764497Y314000D01*
X765497D01*
X765996Y313500D01*
Y313000D01*
X765497Y312500D01*
X764497D01*
X763997Y313000D01*
X768996Y315499D02*
X766996D01*
Y312500D01*
X768996D01*
X766996Y314000D02*
X767996D01*
X772994Y315499D02*
Y313000D01*
X773494Y312500D01*
X774494D01*
X774994Y313000D01*
Y315499D01*
X755000Y452500D02*
Y455499D01*
X756499D01*
X756999Y454999D01*
Y454000D01*
X756499Y453500D01*
X755000D01*
X757999Y455499D02*
Y452500D01*
Y454000D01*
X759998D01*
Y455499D01*
Y452500D01*
X760998D02*
Y454499D01*
X761998Y455499D01*
X762997Y454499D01*
Y452500D01*
Y454000D01*
X760998D01*
X765996Y454999D02*
X765497Y455499D01*
X764497D01*
X763997Y454999D01*
Y454499D01*
X764497Y454000D01*
X765497D01*
X765996Y453500D01*
Y453000D01*
X765497Y452500D01*
X764497D01*
X763997Y453000D01*
X768996Y455499D02*
X766996D01*
Y452500D01*
X768996D01*
X766996Y454000D02*
X767996D01*
X772994Y455499D02*
Y453500D01*
X773994Y452500D01*
X774994Y453500D01*
Y455499D01*
X755000Y592500D02*
Y595499D01*
X756499D01*
X756999Y594999D01*
Y593999D01*
X756499Y593500D01*
X755000D01*
X757999Y595499D02*
Y592500D01*
Y593999D01*
X759998D01*
Y595499D01*
Y592500D01*
X760998D02*
Y594499D01*
X761998Y595499D01*
X762997Y594499D01*
Y592500D01*
Y593999D01*
X760998D01*
X765996Y594999D02*
X765497Y595499D01*
X764497D01*
X763997Y594999D01*
Y594499D01*
X764497Y593999D01*
X765497D01*
X765996Y593500D01*
Y593000D01*
X765497Y592500D01*
X764497D01*
X763997Y593000D01*
X768996Y595499D02*
X766996D01*
Y592500D01*
X768996D01*
X766996Y593999D02*
X767996D01*
X772994Y595499D02*
Y592500D01*
X773994Y593500D01*
X774994Y592500D01*
Y595499D01*
X411501Y424000D02*
X414500D01*
Y425999D01*
Y428998D02*
Y426999D01*
X412501Y428998D01*
X412001D01*
X411501Y428499D01*
Y427499D01*
X412001Y426999D01*
X449000Y446000D02*
X446001D01*
Y447500D01*
X446501Y447999D01*
X447501D01*
X448000Y447500D01*
Y446000D01*
Y447000D02*
X449000Y447999D01*
Y450498D02*
X446001D01*
X447501Y448999D01*
Y450998D01*
X464000Y446000D02*
X461001D01*
Y447500D01*
X461501Y447999D01*
X462500D01*
X463000Y447500D01*
Y446000D01*
Y447000D02*
X464000Y447999D01*
Y450998D02*
Y448999D01*
X462001Y450998D01*
X461501D01*
X461001Y450498D01*
Y449499D01*
X461501Y448999D01*
X429499Y592999D02*
X428500D01*
X429000D01*
Y590500D01*
X428500Y590000D01*
X428000D01*
X427500Y590500D01*
X430499Y590000D02*
X431499D01*
X430999D01*
Y592999D01*
X430499Y592499D01*
X426501Y447999D02*
X426001Y447500D01*
Y446500D01*
X426501Y446000D01*
X428500D01*
X429000Y446500D01*
Y447500D01*
X428500Y447999D01*
X429000Y448999D02*
Y449999D01*
Y449499D01*
X426001D01*
X426501Y448999D01*
X426001Y451498D02*
Y453498D01*
X426501D01*
X428500Y451498D01*
X429000D01*
X454001Y447999D02*
X453501Y447500D01*
Y446500D01*
X454001Y446000D01*
X456000D01*
X456500Y446500D01*
Y447500D01*
X456000Y447999D01*
X456500Y448999D02*
Y449999D01*
Y449499D01*
X453501D01*
X454001Y448999D01*
X453501Y453498D02*
X454001Y452498D01*
X455000Y451498D01*
X456000D01*
X456500Y451998D01*
Y452998D01*
X456000Y453498D01*
X455500D01*
X455000Y452998D01*
Y451498D01*
X469999Y428499D02*
X469499Y428999D01*
X468500D01*
X468000Y428499D01*
Y426500D01*
X468500Y426000D01*
X469499D01*
X469999Y426500D01*
X470999Y426000D02*
X471999D01*
X471499D01*
Y428999D01*
X470999Y428499D01*
X473498D02*
X473998Y428999D01*
X474998D01*
X475498Y428499D01*
Y426500D01*
X474998Y426000D01*
X473998D01*
X473498Y426500D01*
Y428499D01*
X439501Y491000D02*
X442500D01*
Y492499D01*
X442000Y492999D01*
X440001D01*
X439501Y492499D01*
Y491000D01*
X442500Y493999D02*
Y494999D01*
Y494499D01*
X439501D01*
X440001Y493999D01*
X440001Y441500D02*
X442500D01*
X443000Y442000D01*
Y443000D01*
X442500Y443499D01*
X440001D01*
X443000Y445998D02*
X440001D01*
X441501Y444499D01*
Y446498D01*
X492001Y234000D02*
X494500D01*
X495000Y234500D01*
Y235500D01*
X494500Y235999D01*
X492001D01*
X492501Y236999D02*
X492001Y237499D01*
Y238498D01*
X492501Y238998D01*
X493001D01*
X493501Y238498D01*
Y237999D01*
Y238498D01*
X494000Y238998D01*
X494500D01*
X495000Y238498D01*
Y237499D01*
X494500Y236999D01*
X434500Y276999D02*
Y274500D01*
X435000Y274000D01*
X435999D01*
X436499Y274500D01*
Y276999D01*
X439498Y274000D02*
X437499D01*
X439498Y275999D01*
Y276499D01*
X438999Y276999D01*
X437999D01*
X437499Y276499D01*
X423047Y216000D02*
Y218999D01*
X424547D01*
X425047Y218499D01*
Y217499D01*
X424547Y217000D01*
X423047D01*
X424047D02*
X425047Y216000D01*
X426046D02*
X427046D01*
X426546D01*
Y218999D01*
X426046Y218499D01*
X428546D02*
X429045Y218999D01*
X430045D01*
X430545Y218499D01*
Y217999D01*
X430045Y217499D01*
X429545D01*
X430045D01*
X430545Y217000D01*
Y216500D01*
X430045Y216000D01*
X429045D01*
X428546Y216500D01*
X423500Y226000D02*
Y228999D01*
X425000D01*
X425499Y228499D01*
Y227500D01*
X425000Y227000D01*
X423500D01*
X424500D02*
X425499Y226000D01*
X426499D02*
X427499D01*
X426999D01*
Y228999D01*
X426499Y228499D01*
X430998Y226000D02*
X428998D01*
X430998Y227999D01*
Y228499D01*
X430498Y228999D01*
X429498D01*
X428998Y228499D01*
X423500Y236000D02*
Y238999D01*
X425000D01*
X425499Y238499D01*
Y237499D01*
X425000Y237000D01*
X423500D01*
X424500D02*
X425499Y236000D01*
X426499D02*
X427499D01*
X426999D01*
Y238999D01*
X426499Y238499D01*
X428998Y236000D02*
X429998D01*
X429498D01*
Y238999D01*
X428998Y238499D01*
X464000Y263500D02*
X461001D01*
Y265000D01*
X461501Y265499D01*
X462500D01*
X463000Y265000D01*
Y263500D01*
Y264500D02*
X464000Y265499D01*
Y266499D02*
Y267499D01*
Y266999D01*
X461001D01*
X461501Y266499D01*
Y268998D02*
X461001Y269498D01*
Y270498D01*
X461501Y270998D01*
X463500D01*
X464000Y270498D01*
Y269498D01*
X463500Y268998D01*
X461501D01*
X423500Y256000D02*
Y258999D01*
X425000D01*
X425499Y258499D01*
Y257500D01*
X425000Y257000D01*
X423500D01*
X424500D02*
X425499Y256000D01*
X426499Y256500D02*
X426999Y256000D01*
X427998D01*
X428498Y256500D01*
Y258499D01*
X427998Y258999D01*
X426999D01*
X426499Y258499D01*
Y257999D01*
X426999Y257500D01*
X428498D01*
X500500Y186000D02*
X497501D01*
Y187499D01*
X498001Y187999D01*
X499001D01*
X499500Y187499D01*
Y186000D01*
Y187000D02*
X500500Y187999D01*
X497501Y188999D02*
Y190998D01*
X498001D01*
X500000Y188999D01*
X500500D01*
X420000Y296000D02*
Y298999D01*
X421499D01*
X421999Y298499D01*
Y297499D01*
X421499Y297000D01*
X420000D01*
X421000D02*
X421999Y296000D01*
X422999Y298499D02*
X423499Y298999D01*
X424499D01*
X424998Y298499D01*
Y297999D01*
X424499Y297499D01*
X423999D01*
X424499D01*
X424998Y297000D01*
Y296500D01*
X424499Y296000D01*
X423499D01*
X422999Y296500D01*
X490001Y180000D02*
X493000D01*
Y181999D01*
X490501Y182999D02*
X490001Y183499D01*
Y184499D01*
X490501Y184998D01*
X491001D01*
X491501Y184499D01*
Y183999D01*
Y184499D01*
X492000Y184998D01*
X492500D01*
X493000Y184499D01*
Y183499D01*
X492500Y182999D01*
X490001Y185998D02*
X492000D01*
X493000Y186998D01*
X492000Y187997D01*
X490001D01*
X490501Y188997D02*
X490001Y189497D01*
Y190497D01*
X490501Y190996D01*
X491001D01*
X491501Y190497D01*
Y189997D01*
Y190497D01*
X492000Y190996D01*
X492500D01*
X493000Y190497D01*
Y189497D01*
X492500Y188997D01*
X478501Y263500D02*
X481500D01*
Y265499D01*
Y266499D02*
Y267499D01*
Y266999D01*
X478501D01*
X479001Y266499D01*
X484001Y232743D02*
X483501Y232244D01*
Y231244D01*
X484001Y230744D01*
X486000D01*
X486500Y231244D01*
Y232244D01*
X486000Y232743D01*
X486500Y233743D02*
Y234743D01*
Y234243D01*
X483501D01*
X484001Y233743D01*
X483501Y238242D02*
Y236242D01*
X485001D01*
X484501Y237242D01*
Y237742D01*
X485001Y238242D01*
X486000D01*
X486500Y237742D01*
Y236742D01*
X486000Y236242D01*
X476501Y232743D02*
X476001Y232244D01*
Y231244D01*
X476501Y230744D01*
X478500D01*
X479000Y231244D01*
Y232244D01*
X478500Y232743D01*
X479000Y233743D02*
Y234743D01*
Y234243D01*
X476001D01*
X476501Y233743D01*
X479000Y237742D02*
X476001D01*
X477500Y236242D01*
Y238242D01*
X508001Y185999D02*
X507501Y185500D01*
Y184500D01*
X508001Y184000D01*
X510000D01*
X510500Y184500D01*
Y185500D01*
X510000Y185999D01*
X510500Y186999D02*
Y187999D01*
Y187499D01*
X507501D01*
X508001Y186999D01*
Y189498D02*
X507501Y189998D01*
Y190998D01*
X508001Y191498D01*
X508501D01*
X509000Y190998D01*
Y190498D01*
Y190998D01*
X509500Y191498D01*
X510000D01*
X510500Y190998D01*
Y189998D01*
X510000Y189498D01*
X515501Y185999D02*
X515001Y185500D01*
Y184500D01*
X515501Y184000D01*
X517500D01*
X518000Y184500D01*
Y185500D01*
X517500Y185999D01*
X518000Y186999D02*
Y187999D01*
Y187499D01*
X515001D01*
X515501Y186999D01*
X518000Y191498D02*
Y189498D01*
X516001Y191498D01*
X515501D01*
X515001Y190998D01*
Y189998D01*
X515501Y189498D01*
X471501Y265499D02*
X471001Y265000D01*
Y264000D01*
X471501Y263500D01*
X473500D01*
X474000Y264000D01*
Y265000D01*
X473500Y265499D01*
X474000Y266499D02*
Y267499D01*
Y266999D01*
X471001D01*
X471501Y266499D01*
X474000Y268998D02*
Y269998D01*
Y269498D01*
X471001D01*
X471501Y268998D01*
X444001Y342999D02*
X443501Y342499D01*
Y341500D01*
X444001Y341000D01*
X446000D01*
X446500Y341500D01*
Y342499D01*
X446000Y342999D01*
Y343999D02*
X446500Y344499D01*
Y345499D01*
X446000Y345998D01*
X444001D01*
X443501Y345499D01*
Y344499D01*
X444001Y343999D01*
X444501D01*
X445001Y344499D01*
Y345998D01*
X441501Y265499D02*
X441001Y265000D01*
Y264000D01*
X441501Y263500D01*
X443500D01*
X444000Y264000D01*
Y265000D01*
X443500Y265499D01*
X441501Y266499D02*
X441001Y266999D01*
Y267999D01*
X441501Y268498D01*
X442001D01*
X442500Y267999D01*
X443000Y268498D01*
X443500D01*
X444000Y267999D01*
Y266999D01*
X443500Y266499D01*
X443000D01*
X442500Y266999D01*
X442001Y266499D01*
X441501D01*
X442500Y266999D02*
Y267999D01*
X454001Y265499D02*
X453501Y265000D01*
Y264000D01*
X454001Y263500D01*
X456000D01*
X456500Y264000D01*
Y265000D01*
X456000Y265499D01*
X453501Y266499D02*
Y268498D01*
X454001D01*
X456000Y266499D01*
X456500D01*
X399499Y354499D02*
X399000Y354999D01*
X398000D01*
X397500Y354499D01*
Y352500D01*
X398000Y352000D01*
X399000D01*
X399499Y352500D01*
X401999Y352000D02*
Y354999D01*
X400499Y353500D01*
X402498D01*
X469999Y420999D02*
X469499Y421499D01*
X468500D01*
X468000Y420999D01*
Y419000D01*
X468500Y418500D01*
X469499D01*
X469999Y419000D01*
X470999Y420999D02*
X471499Y421499D01*
X472499D01*
X472998Y420999D01*
Y420499D01*
X472499Y420000D01*
X471999D01*
X472499D01*
X472998Y419500D01*
Y419000D01*
X472499Y418500D01*
X471499D01*
X470999Y419000D01*
X446501Y415499D02*
X446001Y414999D01*
Y414000D01*
X446501Y413500D01*
X448500D01*
X449000Y414000D01*
Y414999D01*
X448500Y415499D01*
X449000Y418498D02*
Y416499D01*
X447001Y418498D01*
X446501D01*
X446001Y417999D01*
Y416999D01*
X446501Y416499D01*
X398499Y438999D02*
X398000Y439499D01*
X397000D01*
X396500Y438999D01*
Y437000D01*
X397000Y436500D01*
X398000D01*
X398499Y437000D01*
X399499Y436500D02*
X400499D01*
X399999D01*
Y439499D01*
X399499Y438999D01*
X433000Y243999D02*
Y241000D01*
X434500D01*
X434999Y241500D01*
Y242000D01*
X434500Y242499D01*
X433000D01*
X434500D01*
X434999Y242999D01*
Y243499D01*
X434500Y243999D01*
X433000D01*
X435999Y241000D02*
X436999D01*
X436499D01*
Y243999D01*
X435999Y243499D01*
X639501Y450000D02*
X642000D01*
X642500Y450500D01*
Y451500D01*
X642000Y451999D01*
X639501D01*
X642500Y454998D02*
Y452999D01*
X640501Y454998D01*
X640001D01*
X639501Y454498D01*
Y453499D01*
X640001Y452999D01*
X643000Y455998D02*
Y457997D01*
X642500Y458997D02*
X639501D01*
Y460497D01*
X640001Y460996D01*
X641001D01*
X641500Y460497D01*
Y458997D01*
X642500Y463996D02*
Y461996D01*
X640501Y463996D01*
X640001D01*
X639501Y463496D01*
Y462496D01*
X640001Y461996D01*
X639501Y310000D02*
X642000D01*
X642500Y310500D01*
Y311500D01*
X642000Y311999D01*
X639501D01*
X642500Y314998D02*
Y312999D01*
X640501Y314998D01*
X640001D01*
X639501Y314498D01*
Y313499D01*
X640001Y312999D01*
X643000Y315998D02*
Y317997D01*
X642500Y318997D02*
X639501D01*
Y320497D01*
X640001Y320996D01*
X641001D01*
X641500Y320497D01*
Y318997D01*
X642500Y321996D02*
Y322996D01*
Y322496D01*
X639501D01*
X640001Y321996D01*
X627500Y571000D02*
Y573999D01*
X629000D01*
X629499Y573499D01*
Y572500D01*
X629000Y572000D01*
X627500D01*
X628500D02*
X629499Y571000D01*
X630499Y573999D02*
Y571000D01*
X632498D01*
X633498D02*
X634498D01*
X633998D01*
Y573999D01*
X633498Y573499D01*
X635997Y570500D02*
X637997D01*
X638996Y571000D02*
Y573999D01*
X640496D01*
X640996Y573499D01*
Y572500D01*
X640496Y572000D01*
X638996D01*
X641995Y573499D02*
X642495Y573999D01*
X643495D01*
X643995Y573499D01*
Y572999D01*
X643495Y572500D01*
X642995D01*
X643495D01*
X643995Y572000D01*
Y571500D01*
X643495Y571000D01*
X642495D01*
X641995Y571500D01*
X627500Y431000D02*
Y433999D01*
X629000D01*
X629499Y433499D01*
Y432500D01*
X629000Y432000D01*
X627500D01*
X628500D02*
X629499Y431000D01*
X630499Y433999D02*
Y431000D01*
X632498D01*
X633498D02*
X634498D01*
X633998D01*
Y433999D01*
X633498Y433499D01*
X635997Y430500D02*
X637997D01*
X638996Y431000D02*
Y433999D01*
X640496D01*
X640996Y433499D01*
Y432500D01*
X640496Y432000D01*
X638996D01*
X643995Y431000D02*
X641995D01*
X643995Y432999D01*
Y433499D01*
X643495Y433999D01*
X642495D01*
X641995Y433499D01*
X627500Y291000D02*
Y293999D01*
X629000D01*
X629499Y293499D01*
Y292499D01*
X629000Y292000D01*
X627500D01*
X628500D02*
X629499Y291000D01*
X630499Y293999D02*
Y291000D01*
X632498D01*
X633498D02*
X634498D01*
X633998D01*
Y293999D01*
X633498Y293499D01*
X635997Y290500D02*
X637997D01*
X638996Y291000D02*
Y293999D01*
X640496D01*
X640996Y293499D01*
Y292499D01*
X640496Y292000D01*
X638996D01*
X641995Y291000D02*
X642995D01*
X642495D01*
Y293999D01*
X641995Y293499D01*
X628500Y539000D02*
Y541999D01*
X629999D01*
X630499Y541499D01*
Y540499D01*
X629999Y540000D01*
X628500D01*
X629500D02*
X630499Y539000D01*
X631499Y541999D02*
Y539000D01*
Y540499D01*
X633498D01*
Y541999D01*
Y539000D01*
X634498Y538500D02*
X636497D01*
X637497Y539000D02*
Y541999D01*
X638997D01*
X639496Y541499D01*
Y540499D01*
X638997Y540000D01*
X637497D01*
X640496Y541499D02*
X640996Y541999D01*
X641996D01*
X642495Y541499D01*
Y540999D01*
X641996Y540499D01*
X641496D01*
X641996D01*
X642495Y540000D01*
Y539500D01*
X641996Y539000D01*
X640996D01*
X640496Y539500D01*
X628500Y399000D02*
Y401999D01*
X629999D01*
X630499Y401499D01*
Y400499D01*
X629999Y400000D01*
X628500D01*
X629500D02*
X630499Y399000D01*
X631499Y401999D02*
Y399000D01*
Y400499D01*
X633498D01*
Y401999D01*
Y399000D01*
X634498Y398500D02*
X636497D01*
X637497Y399000D02*
Y401999D01*
X638997D01*
X639496Y401499D01*
Y400499D01*
X638997Y400000D01*
X637497D01*
X642495Y399000D02*
X640496D01*
X642495Y400999D01*
Y401499D01*
X641996Y401999D01*
X640996D01*
X640496Y401499D01*
X628500Y259000D02*
Y261999D01*
X629999D01*
X630499Y261499D01*
Y260500D01*
X629999Y260000D01*
X628500D01*
X629500D02*
X630499Y259000D01*
X631499Y261999D02*
Y259000D01*
Y260500D01*
X633498D01*
Y261999D01*
Y259000D01*
X634498Y258500D02*
X636497D01*
X637497Y259000D02*
Y261999D01*
X638997D01*
X639496Y261499D01*
Y260500D01*
X638997Y260000D01*
X637497D01*
X640496Y259000D02*
X641496D01*
X640996D01*
Y261999D01*
X640496Y261499D01*
X566000Y561500D02*
Y564499D01*
X567499D01*
X567999Y563999D01*
Y562999D01*
X567499Y562500D01*
X566000D01*
X567000D02*
X567999Y561500D01*
X568999Y564499D02*
Y561500D01*
X570499D01*
X570998Y562000D01*
Y562500D01*
X570499Y562999D01*
X568999D01*
X570499D01*
X570998Y563499D01*
Y563999D01*
X570499Y564499D01*
X568999D01*
X571998Y561000D02*
X573997D01*
X574997Y561500D02*
Y564499D01*
X576497D01*
X576996Y563999D01*
Y562999D01*
X576497Y562500D01*
X574997D01*
X577996Y563999D02*
X578496Y564499D01*
X579496D01*
X579995Y563999D01*
Y563499D01*
X579496Y562999D01*
X578996D01*
X579496D01*
X579995Y562500D01*
Y562000D01*
X579496Y561500D01*
X578496D01*
X577996Y562000D01*
X566000Y421500D02*
Y424499D01*
X567499D01*
X567999Y423999D01*
Y422999D01*
X567499Y422500D01*
X566000D01*
X567000D02*
X567999Y421500D01*
X568999Y424499D02*
Y421500D01*
X570499D01*
X570998Y422000D01*
Y422500D01*
X570499Y422999D01*
X568999D01*
X570499D01*
X570998Y423499D01*
Y423999D01*
X570499Y424499D01*
X568999D01*
X571998Y421000D02*
X573997D01*
X574997Y421500D02*
Y424499D01*
X576497D01*
X576996Y423999D01*
Y422999D01*
X576497Y422500D01*
X574997D01*
X579995Y421500D02*
X577996D01*
X579995Y423499D01*
Y423999D01*
X579496Y424499D01*
X578496D01*
X577996Y423999D01*
X566000Y281500D02*
Y284499D01*
X567499D01*
X567999Y283999D01*
Y282999D01*
X567499Y282500D01*
X566000D01*
X567000D02*
X567999Y281500D01*
X568999Y284499D02*
Y281500D01*
X570499D01*
X570998Y282000D01*
Y282500D01*
X570499Y282999D01*
X568999D01*
X570499D01*
X570998Y283499D01*
Y283999D01*
X570499Y284499D01*
X568999D01*
X571998Y281000D02*
X573997D01*
X574997Y281500D02*
Y284499D01*
X576497D01*
X576996Y283999D01*
Y282999D01*
X576497Y282500D01*
X574997D01*
X577996Y281500D02*
X578996D01*
X578496D01*
Y284499D01*
X577996Y283999D01*
X671500Y442453D02*
X668501D01*
Y443952D01*
X669001Y444452D01*
X670001D01*
X670500Y443952D01*
Y442453D01*
Y443453D02*
X671500Y444452D01*
X668501Y445452D02*
X670500D01*
X671500Y446452D01*
X670500Y447451D01*
X668501D01*
X671500Y450450D02*
Y448451D01*
X669501Y450450D01*
X669001D01*
X668501Y449950D01*
Y448951D01*
X669001Y448451D01*
X672000Y451450D02*
Y453449D01*
X671500Y454449D02*
X668501D01*
Y455948D01*
X669001Y456448D01*
X670001D01*
X670500Y455948D01*
Y454449D01*
X671500Y459447D02*
Y457448D01*
X669501Y459447D01*
X669001D01*
X668501Y458948D01*
Y457948D01*
X669001Y457448D01*
X671500Y302453D02*
X668501D01*
Y303952D01*
X669001Y304452D01*
X670001D01*
X670500Y303952D01*
Y302453D01*
Y303452D02*
X671500Y304452D01*
X668501Y305452D02*
X670500D01*
X671500Y306452D01*
X670500Y307451D01*
X668501D01*
X671500Y310450D02*
Y308451D01*
X669501Y310450D01*
X669001D01*
X668501Y309950D01*
Y308951D01*
X669001Y308451D01*
X672000Y311450D02*
Y313449D01*
X671500Y314449D02*
X668501D01*
Y315948D01*
X669001Y316448D01*
X670001D01*
X670500Y315948D01*
Y314449D01*
X671500Y317448D02*
Y318448D01*
Y317948D01*
X668501D01*
X669001Y317448D01*
X681500Y562000D02*
X678501D01*
Y563499D01*
X679001Y563999D01*
X680000D01*
X680500Y563499D01*
Y562000D01*
Y563000D02*
X681500Y563999D01*
X678501Y564999D02*
X680500D01*
X681500Y565999D01*
X680500Y566998D01*
X678501D01*
X681500Y567998D02*
Y568998D01*
Y568498D01*
X678501D01*
X679001Y567998D01*
X682000Y570497D02*
Y572497D01*
X681500Y573496D02*
X678501D01*
Y574996D01*
X679001Y575496D01*
X680000D01*
X680500Y574996D01*
Y573496D01*
X679001Y576495D02*
X678501Y576995D01*
Y577995D01*
X679001Y578495D01*
X679501D01*
X680000Y577995D01*
Y577495D01*
Y577995D01*
X680500Y578495D01*
X681000D01*
X681500Y577995D01*
Y576995D01*
X681000Y576495D01*
X681500Y422000D02*
X678501D01*
Y423499D01*
X679001Y423999D01*
X680000D01*
X680500Y423499D01*
Y422000D01*
Y423000D02*
X681500Y423999D01*
X678501Y424999D02*
X680500D01*
X681500Y425999D01*
X680500Y426998D01*
X678501D01*
X681500Y427998D02*
Y428998D01*
Y428498D01*
X678501D01*
X679001Y427998D01*
X682000Y430497D02*
Y432497D01*
X681500Y433496D02*
X678501D01*
Y434996D01*
X679001Y435496D01*
X680000D01*
X680500Y434996D01*
Y433496D01*
X681500Y438495D02*
Y436495D01*
X679501Y438495D01*
X679001D01*
X678501Y437995D01*
Y436995D01*
X679001Y436495D01*
X681500Y282000D02*
X678501D01*
Y283500D01*
X679001Y283999D01*
X680000D01*
X680500Y283500D01*
Y282000D01*
Y283000D02*
X681500Y283999D01*
X678501Y284999D02*
X680500D01*
X681500Y285999D01*
X680500Y286998D01*
X678501D01*
X681500Y287998D02*
Y288998D01*
Y288498D01*
X678501D01*
X679001Y287998D01*
X682000Y290497D02*
Y292497D01*
X681500Y293496D02*
X678501D01*
Y294996D01*
X679001Y295496D01*
X680000D01*
X680500Y294996D01*
Y293496D01*
X681500Y296495D02*
Y297495D01*
Y296995D01*
X678501D01*
X679001Y296495D01*
X670500Y551999D02*
X668501D01*
X668001Y551500D01*
Y550500D01*
X668501Y550000D01*
X670500D01*
X671000Y550500D01*
Y551500D01*
X670000Y551000D02*
X671000Y551999D01*
Y551500D02*
X670500Y551999D01*
X668001Y552999D02*
X671000D01*
Y554998D01*
X671500Y555998D02*
Y557997D01*
X671000Y558997D02*
X668001D01*
Y560497D01*
X668501Y560996D01*
X669500D01*
X670000Y560497D01*
Y558997D01*
X668501Y561996D02*
X668001Y562496D01*
Y563496D01*
X668501Y563996D01*
X669001D01*
X669500Y563496D01*
Y562996D01*
Y563496D01*
X670000Y563996D01*
X670500D01*
X671000Y563496D01*
Y562496D01*
X670500Y561996D01*
Y411999D02*
X668501D01*
X668001Y411500D01*
Y410500D01*
X668501Y410000D01*
X670500D01*
X671000Y410500D01*
Y411500D01*
X670000Y411000D02*
X671000Y411999D01*
Y411500D02*
X670500Y411999D01*
X668001Y412999D02*
X671000D01*
Y414998D01*
X671500Y415998D02*
Y417997D01*
X671000Y418997D02*
X668001D01*
Y420497D01*
X668501Y420996D01*
X669500D01*
X670000Y420497D01*
Y418997D01*
X671000Y423995D02*
Y421996D01*
X669001Y423995D01*
X668501D01*
X668001Y423496D01*
Y422496D01*
X668501Y421996D01*
X670500Y271999D02*
X668501D01*
X668001Y271499D01*
Y270500D01*
X668501Y270000D01*
X670500D01*
X671000Y270500D01*
Y271499D01*
X670000Y271000D02*
X671000Y271999D01*
Y271499D02*
X670500Y271999D01*
X668001Y272999D02*
X671000D01*
Y274998D01*
X671500Y275998D02*
Y277997D01*
X671000Y278997D02*
X668001D01*
Y280497D01*
X668501Y280996D01*
X669500D01*
X670000Y280497D01*
Y278997D01*
X671000Y281996D02*
Y282996D01*
Y282496D01*
X668001D01*
X668501Y281996D01*
X670500Y518999D02*
X668501D01*
X668001Y518500D01*
Y517500D01*
X668501Y517000D01*
X670500D01*
X671000Y517500D01*
Y518500D01*
X670000Y518000D02*
X671000Y518999D01*
Y518500D02*
X670500Y518999D01*
X668001Y519999D02*
X671000D01*
X669500D01*
Y521998D01*
X668001D01*
X671000D01*
X671500Y522998D02*
Y524997D01*
X671000Y525997D02*
X668001D01*
Y527497D01*
X668501Y527996D01*
X669500D01*
X670000Y527497D01*
Y525997D01*
X668501Y528996D02*
X668001Y529496D01*
Y530496D01*
X668501Y530996D01*
X669001D01*
X669500Y530496D01*
Y529996D01*
Y530496D01*
X670000Y530996D01*
X670500D01*
X671000Y530496D01*
Y529496D01*
X670500Y528996D01*
Y378999D02*
X668501D01*
X668001Y378500D01*
Y377500D01*
X668501Y377000D01*
X670500D01*
X671000Y377500D01*
Y378500D01*
X670000Y378000D02*
X671000Y378999D01*
Y378500D02*
X670500Y378999D01*
X668001Y379999D02*
X671000D01*
X669500D01*
Y381998D01*
X668001D01*
X671000D01*
X671500Y382998D02*
Y384997D01*
X671000Y385997D02*
X668001D01*
Y387497D01*
X668501Y387996D01*
X669500D01*
X670000Y387497D01*
Y385997D01*
X671000Y390996D02*
Y388996D01*
X669001Y390996D01*
X668501D01*
X668001Y390496D01*
Y389496D01*
X668501Y388996D01*
X670500Y238999D02*
X668501D01*
X668001Y238499D01*
Y237500D01*
X668501Y237000D01*
X670500D01*
X671000Y237500D01*
Y238499D01*
X670000Y238000D02*
X671000Y238999D01*
Y238499D02*
X670500Y238999D01*
X668001Y239999D02*
X671000D01*
X669500D01*
Y241998D01*
X668001D01*
X671000D01*
X671500Y242998D02*
Y244997D01*
X671000Y245997D02*
X668001D01*
Y247497D01*
X668501Y247996D01*
X669500D01*
X670000Y247497D01*
Y245997D01*
X671000Y248996D02*
Y249996D01*
Y249496D01*
X668001D01*
X668501Y248996D01*
X582500Y547999D02*
Y545500D01*
X583000Y545000D01*
X583999D01*
X584499Y545500D01*
Y547999D01*
X585499Y545000D02*
X586499D01*
X585999D01*
Y547999D01*
X585499Y547499D01*
X587998Y544500D02*
X589998D01*
X590997Y545000D02*
Y547999D01*
X592497D01*
X592997Y547499D01*
Y546499D01*
X592497Y546000D01*
X590997D01*
X593996Y547499D02*
X594496Y547999D01*
X595496D01*
X595996Y547499D01*
Y546999D01*
X595496Y546499D01*
X594996D01*
X595496D01*
X595996Y546000D01*
Y545500D01*
X595496Y545000D01*
X594496D01*
X593996Y545500D01*
X582500Y407999D02*
Y405500D01*
X583000Y405000D01*
X583999D01*
X584499Y405500D01*
Y407999D01*
X585499Y405000D02*
X586499D01*
X585999D01*
Y407999D01*
X585499Y407499D01*
X587998Y404500D02*
X589998D01*
X590997Y405000D02*
Y407999D01*
X592497D01*
X592997Y407499D01*
Y406499D01*
X592497Y406000D01*
X590997D01*
X595996Y405000D02*
X593996D01*
X595996Y406999D01*
Y407499D01*
X595496Y407999D01*
X594496D01*
X593996Y407499D01*
X582500Y267999D02*
Y265500D01*
X583000Y265000D01*
X583999D01*
X584499Y265500D01*
Y267999D01*
X585499Y265000D02*
X586499D01*
X585999D01*
Y267999D01*
X585499Y267499D01*
X587998Y264500D02*
X589998D01*
X590997Y265000D02*
Y267999D01*
X592497D01*
X592997Y267499D01*
Y266499D01*
X592497Y266000D01*
X590997D01*
X593996Y265000D02*
X594996D01*
X594496D01*
Y267999D01*
X593996Y267499D01*
X731999Y526999D02*
X730000D01*
Y525499D01*
X731000D01*
X730000D01*
Y524000D01*
X732999D02*
X733999D01*
X733499D01*
Y526999D01*
X732999Y526499D01*
X735498Y523500D02*
X737498D01*
X738497Y524000D02*
Y526999D01*
X739997D01*
X740497Y526499D01*
Y525499D01*
X739997Y525000D01*
X738497D01*
X741496Y526499D02*
X741996Y526999D01*
X742996D01*
X743496Y526499D01*
Y525999D01*
X742996Y525499D01*
X742496D01*
X742996D01*
X743496Y525000D01*
Y524500D01*
X742996Y524000D01*
X741996D01*
X741496Y524500D01*
X731999Y386999D02*
X730000D01*
Y385500D01*
X731000D01*
X730000D01*
Y384000D01*
X732999D02*
X733999D01*
X733499D01*
Y386999D01*
X732999Y386499D01*
X735498Y383500D02*
X737498D01*
X738497Y384000D02*
Y386999D01*
X739997D01*
X740497Y386499D01*
Y385500D01*
X739997Y385000D01*
X738497D01*
X743496Y384000D02*
X741496D01*
X743496Y385999D01*
Y386499D01*
X742996Y386999D01*
X741996D01*
X741496Y386499D01*
X731999Y246999D02*
X730000D01*
Y245499D01*
X731000D01*
X730000D01*
Y244000D01*
X732999D02*
X733999D01*
X733499D01*
Y246999D01*
X732999Y246499D01*
X735498Y243500D02*
X737498D01*
X738497Y244000D02*
Y246999D01*
X739997D01*
X740497Y246499D01*
Y245499D01*
X739997Y245000D01*
X738497D01*
X741496Y244000D02*
X742496D01*
X741996D01*
Y246999D01*
X741496Y246499D01*
X581500Y568999D02*
Y566000D01*
X583000D01*
X583499Y566500D01*
Y568499D01*
X583000Y568999D01*
X581500D01*
X584499D02*
Y566000D01*
X585998D01*
X586498Y566500D01*
Y567000D01*
X585998Y567499D01*
X584499D01*
X585998D01*
X586498Y567999D01*
Y568499D01*
X585998Y568999D01*
X584499D01*
X587498Y565500D02*
X589497D01*
X590497Y566000D02*
Y568999D01*
X591997D01*
X592496Y568499D01*
Y567499D01*
X591997Y567000D01*
X590497D01*
X593496Y568499D02*
X593996Y568999D01*
X594996D01*
X595496Y568499D01*
Y567999D01*
X594996Y567499D01*
X594496D01*
X594996D01*
X595496Y567000D01*
Y566500D01*
X594996Y566000D01*
X593996D01*
X593496Y566500D01*
X581500Y428999D02*
Y426000D01*
X583000D01*
X583499Y426500D01*
Y428499D01*
X583000Y428999D01*
X581500D01*
X584499D02*
Y426000D01*
X585998D01*
X586498Y426500D01*
Y427000D01*
X585998Y427499D01*
X584499D01*
X585998D01*
X586498Y427999D01*
Y428499D01*
X585998Y428999D01*
X584499D01*
X587498Y425500D02*
X589497D01*
X590497Y426000D02*
Y428999D01*
X591997D01*
X592496Y428499D01*
Y427499D01*
X591997Y427000D01*
X590497D01*
X595496Y426000D02*
X593496D01*
X595496Y427999D01*
Y428499D01*
X594996Y428999D01*
X593996D01*
X593496Y428499D01*
X581500Y288999D02*
Y286000D01*
X583000D01*
X583499Y286500D01*
Y288499D01*
X583000Y288999D01*
X581500D01*
X584499D02*
Y286000D01*
X585998D01*
X586498Y286500D01*
Y287000D01*
X585998Y287499D01*
X584499D01*
X585998D01*
X586498Y287999D01*
Y288499D01*
X585998Y288999D01*
X584499D01*
X587498Y285500D02*
X589497D01*
X590497Y286000D02*
Y288999D01*
X591997D01*
X592496Y288499D01*
Y287499D01*
X591997Y287000D01*
X590497D01*
X593496Y286000D02*
X594496D01*
X593996D01*
Y288999D01*
X593496Y288499D01*
X615001Y529999D02*
X614501Y529499D01*
Y528500D01*
X615001Y528000D01*
X617000D01*
X617500Y528500D01*
Y529499D01*
X617000Y529999D01*
X614501Y530999D02*
X617500D01*
Y532499D01*
X617000Y532998D01*
X616500D01*
X616001Y532499D01*
Y530999D01*
Y532499D01*
X615501Y532998D01*
X615001D01*
X614501Y532499D01*
Y530999D01*
X618000Y533998D02*
Y535997D01*
X617500Y536997D02*
X614501D01*
Y538497D01*
X615001Y538996D01*
X616001D01*
X616500Y538497D01*
Y536997D01*
X615001Y539996D02*
X614501Y540496D01*
Y541496D01*
X615001Y541995D01*
X615501D01*
X616001Y541496D01*
Y540996D01*
Y541496D01*
X616500Y541995D01*
X617000D01*
X617500Y541496D01*
Y540496D01*
X617000Y539996D01*
X615001Y389999D02*
X614501Y389499D01*
Y388500D01*
X615001Y388000D01*
X617000D01*
X617500Y388500D01*
Y389499D01*
X617000Y389999D01*
X614501Y390999D02*
X617500D01*
Y392498D01*
X617000Y392998D01*
X616500D01*
X616001Y392498D01*
Y390999D01*
Y392498D01*
X615501Y392998D01*
X615001D01*
X614501Y392498D01*
Y390999D01*
X618000Y393998D02*
Y395997D01*
X617500Y396997D02*
X614501D01*
Y398497D01*
X615001Y398996D01*
X616001D01*
X616500Y398497D01*
Y396997D01*
X617500Y401996D02*
Y399996D01*
X615501Y401996D01*
X615001D01*
X614501Y401496D01*
Y400496D01*
X615001Y399996D01*
Y249999D02*
X614501Y249500D01*
Y248500D01*
X615001Y248000D01*
X617000D01*
X617500Y248500D01*
Y249500D01*
X617000Y249999D01*
X614501Y250999D02*
X617500D01*
Y252499D01*
X617000Y252998D01*
X616500D01*
X616001Y252499D01*
Y250999D01*
Y252499D01*
X615501Y252998D01*
X615001D01*
X614501Y252499D01*
Y250999D01*
X618000Y253998D02*
Y255997D01*
X617500Y256997D02*
X614501D01*
Y258497D01*
X615001Y258996D01*
X616001D01*
X616500Y258497D01*
Y256997D01*
X617500Y259996D02*
Y260996D01*
Y260496D01*
X614501D01*
X615001Y259996D01*
X609988Y478499D02*
X609488Y478999D01*
X608488D01*
X607988Y478499D01*
Y476500D01*
X608488Y476000D01*
X609488D01*
X609988Y476500D01*
X610987Y478999D02*
Y476500D01*
X611487Y476000D01*
X612487D01*
X612987Y476500D01*
Y478999D01*
X615986Y476000D02*
X613986D01*
X615986Y477999D01*
Y478499D01*
X615486Y478999D01*
X614486D01*
X613986Y478499D01*
X616985Y475500D02*
X618985D01*
X621984Y476000D02*
X619984D01*
X621984Y477999D01*
Y478499D01*
X621484Y478999D01*
X620484D01*
X619984Y478499D01*
X622983Y475500D02*
X624983D01*
X625982Y476000D02*
Y478999D01*
X627482D01*
X627982Y478499D01*
Y477499D01*
X627482Y477000D01*
X625982D01*
X630981Y476000D02*
X628981D01*
X630981Y477999D01*
Y478499D01*
X630481Y478999D01*
X629481D01*
X628981Y478499D01*
X609988Y338499D02*
X609488Y338999D01*
X608488D01*
X607988Y338499D01*
Y336500D01*
X608488Y336000D01*
X609488D01*
X609988Y336500D01*
X610987Y338999D02*
Y336500D01*
X611487Y336000D01*
X612487D01*
X612987Y336500D01*
Y338999D01*
X615986Y336000D02*
X613986D01*
X615986Y337999D01*
Y338499D01*
X615486Y338999D01*
X614486D01*
X613986Y338499D01*
X616985Y335500D02*
X618985D01*
X621984Y336000D02*
X619984D01*
X621984Y337999D01*
Y338499D01*
X621484Y338999D01*
X620484D01*
X619984Y338499D01*
X622983Y335500D02*
X624983D01*
X625982Y336000D02*
Y338999D01*
X627482D01*
X627982Y338499D01*
Y337499D01*
X627482Y337000D01*
X625982D01*
X628981Y336000D02*
X629981D01*
X629481D01*
Y338999D01*
X628981Y338499D01*
X609988Y470999D02*
X609488Y471499D01*
X608488D01*
X607988Y470999D01*
Y469000D01*
X608488Y468500D01*
X609488D01*
X609988Y469000D01*
X610987Y471499D02*
Y469000D01*
X611487Y468500D01*
X612487D01*
X612987Y469000D01*
Y471499D01*
X615986Y468500D02*
X613986D01*
X615986Y470499D01*
Y470999D01*
X615486Y471499D01*
X614486D01*
X613986Y470999D01*
X616985Y468000D02*
X618985D01*
X619984Y468500D02*
X620984D01*
X620484D01*
Y471499D01*
X619984Y470999D01*
X622483Y468000D02*
X624483D01*
X625483Y468500D02*
Y471499D01*
X626982D01*
X627482Y470999D01*
Y470000D01*
X626982Y469500D01*
X625483D01*
X630481Y468500D02*
X628482D01*
X630481Y470499D01*
Y470999D01*
X629981Y471499D01*
X628981D01*
X628482Y470999D01*
X609988Y330999D02*
X609488Y331499D01*
X608488D01*
X607988Y330999D01*
Y329000D01*
X608488Y328500D01*
X609488D01*
X609988Y329000D01*
X610987Y331499D02*
Y329000D01*
X611487Y328500D01*
X612487D01*
X612987Y329000D01*
Y331499D01*
X615986Y328500D02*
X613986D01*
X615986Y330499D01*
Y330999D01*
X615486Y331499D01*
X614486D01*
X613986Y330999D01*
X616985Y328000D02*
X618985D01*
X619984Y328500D02*
X620984D01*
X620484D01*
Y331499D01*
X619984Y330999D01*
X622483Y328000D02*
X624483D01*
X625483Y328500D02*
Y331499D01*
X626982D01*
X627482Y330999D01*
Y329999D01*
X626982Y329500D01*
X625483D01*
X628482Y328500D02*
X629481D01*
X628981D01*
Y331499D01*
X628482Y330999D01*
X621999Y512499D02*
X621499Y512999D01*
X620500D01*
X620000Y512499D01*
Y510500D01*
X620500Y510000D01*
X621499D01*
X621999Y510500D01*
X624998D02*
Y512499D01*
X624499Y512999D01*
X623499D01*
X622999Y512499D01*
Y510500D01*
X623499Y510000D01*
X624499D01*
X623999Y511000D02*
X624998Y510000D01*
X624499D02*
X624998Y510500D01*
X627997Y510000D02*
X625998D01*
X627997Y511999D01*
Y512499D01*
X627498Y512999D01*
X626498D01*
X625998Y512499D01*
X628997Y509500D02*
X630996D01*
X631996Y510000D02*
Y512999D01*
X633496D01*
X633995Y512499D01*
Y511500D01*
X633496Y511000D01*
X631996D01*
X634995Y512499D02*
X635495Y512999D01*
X636495D01*
X636995Y512499D01*
Y511999D01*
X636495Y511500D01*
X635995D01*
X636495D01*
X636995Y511000D01*
Y510500D01*
X636495Y510000D01*
X635495D01*
X634995Y510500D01*
X621999Y372499D02*
X621499Y372999D01*
X620500D01*
X620000Y372499D01*
Y370500D01*
X620500Y370000D01*
X621499D01*
X621999Y370500D01*
X624998D02*
Y372499D01*
X624499Y372999D01*
X623499D01*
X622999Y372499D01*
Y370500D01*
X623499Y370000D01*
X624499D01*
X623999Y371000D02*
X624998Y370000D01*
X624499D02*
X624998Y370500D01*
X627997Y370000D02*
X625998D01*
X627997Y371999D01*
Y372499D01*
X627498Y372999D01*
X626498D01*
X625998Y372499D01*
X628997Y369500D02*
X630996D01*
X631996Y370000D02*
Y372999D01*
X633496D01*
X633995Y372499D01*
Y371499D01*
X633496Y371000D01*
X631996D01*
X636995Y370000D02*
X634995D01*
X636995Y371999D01*
Y372499D01*
X636495Y372999D01*
X635495D01*
X634995Y372499D01*
X621999Y232499D02*
X621499Y232999D01*
X620500D01*
X620000Y232499D01*
Y230500D01*
X620500Y230000D01*
X621499D01*
X621999Y230500D01*
X624998D02*
Y232499D01*
X624499Y232999D01*
X623499D01*
X622999Y232499D01*
Y230500D01*
X623499Y230000D01*
X624499D01*
X623999Y231000D02*
X624998Y230000D01*
X624499D02*
X624998Y230500D01*
X627997Y230000D02*
X625998D01*
X627997Y231999D01*
Y232499D01*
X627498Y232999D01*
X626498D01*
X625998Y232499D01*
X628997Y229500D02*
X630996D01*
X631996Y230000D02*
Y232999D01*
X633496D01*
X633995Y232499D01*
Y231500D01*
X633496Y231000D01*
X631996D01*
X634995Y230000D02*
X635995D01*
X635495D01*
Y232999D01*
X634995Y232499D01*
X580499Y510999D02*
X579999Y511499D01*
X579000D01*
X578500Y510999D01*
Y509000D01*
X579000Y508500D01*
X579999D01*
X580499Y509000D01*
X581499Y511499D02*
Y509000D01*
X581999Y508500D01*
X582999D01*
X583498Y509000D01*
Y511499D01*
X584498Y508500D02*
X585498D01*
X584998D01*
Y511499D01*
X584498Y510999D01*
X586997Y508000D02*
X588997D01*
X591996Y508500D02*
X589996D01*
X591996Y510499D01*
Y510999D01*
X591496Y511499D01*
X590496D01*
X589996Y510999D01*
X592995Y508000D02*
X594995D01*
X595994Y508500D02*
Y511499D01*
X597494D01*
X597994Y510999D01*
Y510000D01*
X597494Y509500D01*
X595994D01*
X598993Y510999D02*
X599493Y511499D01*
X600493D01*
X600993Y510999D01*
Y510499D01*
X600493Y510000D01*
X599993D01*
X600493D01*
X600993Y509500D01*
Y509000D01*
X600493Y508500D01*
X599493D01*
X598993Y509000D01*
X580499Y370999D02*
X579999Y371499D01*
X579000D01*
X578500Y370999D01*
Y369000D01*
X579000Y368500D01*
X579999D01*
X580499Y369000D01*
X581499Y371499D02*
Y369000D01*
X581999Y368500D01*
X582999D01*
X583498Y369000D01*
Y371499D01*
X584498Y368500D02*
X585498D01*
X584998D01*
Y371499D01*
X584498Y370999D01*
X586997Y368000D02*
X588997D01*
X591996Y368500D02*
X589996D01*
X591996Y370499D01*
Y370999D01*
X591496Y371499D01*
X590496D01*
X589996Y370999D01*
X592995Y368000D02*
X594995D01*
X595994Y368500D02*
Y371499D01*
X597494D01*
X597994Y370999D01*
Y370000D01*
X597494Y369500D01*
X595994D01*
X600993Y368500D02*
X598993D01*
X600993Y370499D01*
Y370999D01*
X600493Y371499D01*
X599493D01*
X598993Y370999D01*
X580499Y230999D02*
X579999Y231499D01*
X579000D01*
X578500Y230999D01*
Y229000D01*
X579000Y228500D01*
X579999D01*
X580499Y229000D01*
X581499Y231499D02*
Y229000D01*
X581999Y228500D01*
X582999D01*
X583498Y229000D01*
Y231499D01*
X584498Y228500D02*
X585498D01*
X584998D01*
Y231499D01*
X584498Y230999D01*
X586997Y228000D02*
X588997D01*
X591996Y228500D02*
X589996D01*
X591996Y230499D01*
Y230999D01*
X591496Y231499D01*
X590496D01*
X589996Y230999D01*
X592995Y228000D02*
X594995D01*
X595994Y228500D02*
Y231499D01*
X597494D01*
X597994Y230999D01*
Y229999D01*
X597494Y229500D01*
X595994D01*
X598993Y228500D02*
X599993D01*
X599493D01*
Y231499D01*
X598993Y230999D01*
X580499Y518499D02*
X579999Y518999D01*
X579000D01*
X578500Y518499D01*
Y516500D01*
X579000Y516000D01*
X579999D01*
X580499Y516500D01*
X581499Y518999D02*
Y516500D01*
X581999Y516000D01*
X582999D01*
X583498Y516500D01*
Y518999D01*
X584498Y516000D02*
X585498D01*
X584998D01*
Y518999D01*
X584498Y518499D01*
X586997Y515500D02*
X588997D01*
X589996Y516000D02*
X590996D01*
X590496D01*
Y518999D01*
X589996Y518499D01*
X592495Y515500D02*
X594495D01*
X595495Y516000D02*
Y518999D01*
X596994D01*
X597494Y518499D01*
Y517499D01*
X596994Y517000D01*
X595495D01*
X598493Y518499D02*
X598993Y518999D01*
X599993D01*
X600493Y518499D01*
Y517999D01*
X599993Y517499D01*
X599493D01*
X599993D01*
X600493Y517000D01*
Y516500D01*
X599993Y516000D01*
X598993D01*
X598493Y516500D01*
X580499Y378499D02*
X579999Y378999D01*
X579000D01*
X578500Y378499D01*
Y376500D01*
X579000Y376000D01*
X579999D01*
X580499Y376500D01*
X581499Y378999D02*
Y376500D01*
X581999Y376000D01*
X582999D01*
X583498Y376500D01*
Y378999D01*
X584498Y376000D02*
X585498D01*
X584998D01*
Y378999D01*
X584498Y378499D01*
X586997Y375500D02*
X588997D01*
X589996Y376000D02*
X590996D01*
X590496D01*
Y378999D01*
X589996Y378499D01*
X592495Y375500D02*
X594495D01*
X595495Y376000D02*
Y378999D01*
X596994D01*
X597494Y378499D01*
Y377500D01*
X596994Y377000D01*
X595495D01*
X600493Y376000D02*
X598493D01*
X600493Y377999D01*
Y378499D01*
X599993Y378999D01*
X598993D01*
X598493Y378499D01*
X580499Y238499D02*
X579999Y238999D01*
X579000D01*
X578500Y238499D01*
Y236500D01*
X579000Y236000D01*
X579999D01*
X580499Y236500D01*
X581499Y238999D02*
Y236500D01*
X581999Y236000D01*
X582999D01*
X583498Y236500D01*
Y238999D01*
X584498Y236000D02*
X585498D01*
X584998D01*
Y238999D01*
X584498Y238499D01*
X586997Y235500D02*
X588997D01*
X589996Y236000D02*
X590996D01*
X590496D01*
Y238999D01*
X589996Y238499D01*
X592495Y235500D02*
X594495D01*
X595495Y236000D02*
Y238999D01*
X596994D01*
X597494Y238499D01*
Y237499D01*
X596994Y237000D01*
X595495D01*
X598493Y236000D02*
X599493D01*
X598993D01*
Y238999D01*
X598493Y238499D01*
D13*
X421823Y367500D02*
G03*
X421823Y367500I-12402J0D01*
G01*
Y450000D02*
G03*
X421823Y450000I-12402J0D01*
G01*
X735000Y230000D02*
X780000D01*
Y105000D02*
Y230000D01*
X735000Y105000D02*
Y230000D01*
X745000Y392500D02*
X780000D01*
X745000Y252500D02*
X780000D01*
Y310000D01*
X750000D02*
X780000D01*
X727500Y287500D02*
X750000Y310000D01*
X727500Y277500D02*
Y287500D01*
X780000Y392500D02*
Y450000D01*
X750000D02*
X780000D01*
X727500Y427500D02*
X750000Y450000D01*
X727500Y417500D02*
Y427500D01*
X745000Y532500D02*
X762500D01*
X780000D01*
X727500Y557500D02*
Y567500D01*
X750000Y590000D01*
X780000D01*
Y532500D02*
Y590000D01*
X672500Y105000D02*
Y230000D01*
X717500D01*
Y105000D02*
Y230000D01*
X666000Y234500D02*
Y254185D01*
X644000Y234500D02*
Y254185D01*
X666000Y267000D02*
Y286685D01*
X644000Y267000D02*
Y286685D01*
X666000Y374500D02*
Y394185D01*
X644000Y374500D02*
Y394185D01*
X666000Y407000D02*
Y426685D01*
X644000Y407000D02*
Y426685D01*
Y514500D02*
Y534185D01*
X666000Y514500D02*
Y534185D01*
X644000Y547000D02*
Y566685D01*
X666000Y547000D02*
Y566685D01*
D14*
X489925Y203941D02*
X493075D01*
M02*
