G04*
G04 #@! TF.GenerationSoftware,Altium Limited,Altium Designer,19.1.7 (138)*
G04*
G04 Layer_Color=8421504*
%FSLAX25Y25*%
%MOIN*%
G70*
G01*
G75*
%ADD15R,0.06496X0.07874*%
%ADD16R,0.27559X0.11811*%
%ADD17R,0.03543X0.03150*%
%ADD18R,0.03150X0.03543*%
%ADD19R,0.03543X0.02756*%
%ADD20R,0.02165X0.03740*%
%ADD21R,0.05906X0.03937*%
%ADD22R,0.12795X0.08465*%
%ADD23R,0.03937X0.08465*%
%ADD24R,0.04700X0.01200*%
%ADD25R,0.01200X0.04700*%
%ADD26R,0.02756X0.03543*%
%ADD27R,0.03150X0.03150*%
%ADD28R,0.05000X0.21654*%
%ADD29R,0.06693X0.04331*%
%ADD30R,0.09055X0.09055*%
%ADD31R,0.06890X0.02559*%
%ADD32R,0.03150X0.06299*%
%ADD33R,0.18150X0.11811*%
%ADD34R,0.02559X0.06496*%
D15*
X445000Y484980D02*
D03*
Y470020D02*
D03*
D16*
X427500Y390295D02*
D03*
Y414705D02*
D03*
D17*
Y436988D02*
D03*
Y442500D02*
D03*
X455000Y443012D02*
D03*
Y437500D02*
D03*
X472500Y254744D02*
D03*
Y260256D02*
D03*
X455000Y260256D02*
D03*
Y254744D02*
D03*
X442500Y260256D02*
D03*
Y254744D02*
D03*
X445000Y329744D02*
D03*
Y335256D02*
D03*
X485000Y227500D02*
D03*
Y221988D02*
D03*
X477500Y227500D02*
D03*
Y221988D02*
D03*
X447500Y427500D02*
D03*
Y421988D02*
D03*
X516500Y200201D02*
D03*
Y194689D02*
D03*
X509000Y200201D02*
D03*
Y194689D02*
D03*
D18*
X460512Y427500D02*
D03*
X455000D02*
D03*
Y420000D02*
D03*
X460512D02*
D03*
X610256Y237500D02*
D03*
X604744D02*
D03*
X610256Y230000D02*
D03*
X604744D02*
D03*
X634488Y330000D02*
D03*
X640000D02*
D03*
X634488Y337500D02*
D03*
X640000D02*
D03*
X610256Y377500D02*
D03*
X604744D02*
D03*
X610256Y370000D02*
D03*
X604744D02*
D03*
X634488Y470000D02*
D03*
X640000D02*
D03*
X634488Y477500D02*
D03*
X640000D02*
D03*
Y617500D02*
D03*
X634488D02*
D03*
X640000Y610000D02*
D03*
X634488D02*
D03*
X604744Y517500D02*
D03*
X610256D02*
D03*
X604744Y510000D02*
D03*
X610256D02*
D03*
D19*
X462500Y437047D02*
D03*
Y442953D02*
D03*
X447500Y442953D02*
D03*
Y437047D02*
D03*
X480000Y254547D02*
D03*
Y260453D02*
D03*
X462500Y260453D02*
D03*
Y254547D02*
D03*
X499000Y200398D02*
D03*
Y194492D02*
D03*
X685000Y287047D02*
D03*
Y292953D02*
D03*
X675000Y307500D02*
D03*
Y313406D02*
D03*
X685000Y427047D02*
D03*
Y432953D02*
D03*
X675000Y447500D02*
D03*
Y453406D02*
D03*
Y593406D02*
D03*
Y587500D02*
D03*
X685000Y572953D02*
D03*
Y567047D02*
D03*
D20*
X441240Y427283D02*
D03*
X437500D02*
D03*
X433760D02*
D03*
Y437716D02*
D03*
X437500D02*
D03*
X441240D02*
D03*
D21*
X462500Y230000D02*
D03*
X441500D02*
D03*
Y242500D02*
D03*
X462500D02*
D03*
D22*
X504000Y236461D02*
D03*
D23*
X513055Y213429D02*
D03*
X504000D02*
D03*
X494945D02*
D03*
D24*
X434862Y285236D02*
D03*
Y287205D02*
D03*
Y289173D02*
D03*
Y291142D02*
D03*
Y293110D02*
D03*
Y295079D02*
D03*
Y297047D02*
D03*
Y299016D02*
D03*
Y300984D02*
D03*
Y302953D02*
D03*
Y304921D02*
D03*
Y306890D02*
D03*
Y308858D02*
D03*
Y310827D02*
D03*
Y312795D02*
D03*
Y314764D02*
D03*
X480138D02*
D03*
Y312795D02*
D03*
Y310827D02*
D03*
Y308858D02*
D03*
Y306890D02*
D03*
Y304921D02*
D03*
Y302953D02*
D03*
Y300984D02*
D03*
Y299016D02*
D03*
Y297047D02*
D03*
Y295079D02*
D03*
Y293110D02*
D03*
Y291142D02*
D03*
Y289173D02*
D03*
Y287205D02*
D03*
Y285236D02*
D03*
D25*
X442736Y322638D02*
D03*
X444705D02*
D03*
X446673D02*
D03*
X448642D02*
D03*
X450610D02*
D03*
X452579D02*
D03*
X454547D02*
D03*
X456516D02*
D03*
X458484D02*
D03*
X460453D02*
D03*
X462421D02*
D03*
X464390D02*
D03*
X466358D02*
D03*
X468327D02*
D03*
X470295D02*
D03*
X472264D02*
D03*
Y277362D02*
D03*
X470295D02*
D03*
X468327D02*
D03*
X466358D02*
D03*
X464390D02*
D03*
X462421D02*
D03*
X460453D02*
D03*
X458484D02*
D03*
X456516D02*
D03*
X454547D02*
D03*
X452579D02*
D03*
X450610D02*
D03*
X448642D02*
D03*
X446673D02*
D03*
X444705D02*
D03*
X442736D02*
D03*
D26*
X425453Y292500D02*
D03*
X419547D02*
D03*
X420453Y257500D02*
D03*
X414547D02*
D03*
X420453Y237500D02*
D03*
X414547D02*
D03*
X420453Y227500D02*
D03*
X414547D02*
D03*
X420000Y217500D02*
D03*
X414094D02*
D03*
X576453Y277500D02*
D03*
X570547D02*
D03*
X637953Y255000D02*
D03*
X632047D02*
D03*
X637953Y287500D02*
D03*
X632047D02*
D03*
X576453Y417500D02*
D03*
X570547D02*
D03*
X637953Y395000D02*
D03*
X632047D02*
D03*
X637953Y427500D02*
D03*
X632047D02*
D03*
X570547Y557500D02*
D03*
X576453D02*
D03*
X632047Y535000D02*
D03*
X637953D02*
D03*
X632047Y567500D02*
D03*
X637953D02*
D03*
D27*
X491500Y200398D02*
D03*
Y194492D02*
D03*
D28*
X619591Y217500D02*
D03*
X640409D02*
D03*
X619591Y357500D02*
D03*
X640409D02*
D03*
Y497500D02*
D03*
X619591D02*
D03*
D29*
X622500Y249685D02*
D03*
Y260315D02*
D03*
Y389685D02*
D03*
Y400315D02*
D03*
Y540315D02*
D03*
Y529685D02*
D03*
D30*
X587500Y277500D02*
D03*
X605216D02*
D03*
X587500Y417500D02*
D03*
X605216D02*
D03*
X587500Y557500D02*
D03*
X605216D02*
D03*
D31*
X607500Y245000D02*
D03*
Y250000D02*
D03*
Y255000D02*
D03*
Y260000D02*
D03*
X585453Y245000D02*
D03*
Y250000D02*
D03*
Y255000D02*
D03*
Y260000D02*
D03*
X607500Y385000D02*
D03*
Y390000D02*
D03*
Y395000D02*
D03*
Y400000D02*
D03*
X585453Y385000D02*
D03*
Y390000D02*
D03*
Y395000D02*
D03*
Y400000D02*
D03*
Y540000D02*
D03*
Y535000D02*
D03*
Y530000D02*
D03*
Y525000D02*
D03*
X607500Y540000D02*
D03*
Y535000D02*
D03*
Y530000D02*
D03*
Y525000D02*
D03*
D32*
X662500Y255000D02*
D03*
X657500D02*
D03*
X652500D02*
D03*
X647500D02*
D03*
X662500Y233165D02*
D03*
X657500D02*
D03*
X652500D02*
D03*
X647500D02*
D03*
X662500Y287500D02*
D03*
X657500D02*
D03*
X652500D02*
D03*
X647500D02*
D03*
X662500Y265665D02*
D03*
X657500D02*
D03*
X652500D02*
D03*
X647500D02*
D03*
X662500Y395000D02*
D03*
X657500D02*
D03*
X652500D02*
D03*
X647500D02*
D03*
X662500Y373165D02*
D03*
X657500D02*
D03*
X652500D02*
D03*
X647500D02*
D03*
X662500Y427500D02*
D03*
X657500D02*
D03*
X652500D02*
D03*
X647500D02*
D03*
X662500Y405665D02*
D03*
X657500D02*
D03*
X652500D02*
D03*
X647500D02*
D03*
Y513165D02*
D03*
X652500D02*
D03*
X657500D02*
D03*
X662500D02*
D03*
X647500Y535000D02*
D03*
X652500D02*
D03*
X657500D02*
D03*
X662500D02*
D03*
X647500Y545665D02*
D03*
X652500D02*
D03*
X657500D02*
D03*
X662500D02*
D03*
X647500Y567500D02*
D03*
X652500D02*
D03*
X657500D02*
D03*
X662500D02*
D03*
D33*
X655000Y238500D02*
D03*
Y271000D02*
D03*
Y378500D02*
D03*
Y411000D02*
D03*
Y518500D02*
D03*
Y551000D02*
D03*
D34*
X662500Y336122D02*
D03*
X657500D02*
D03*
X652500D02*
D03*
X647500D02*
D03*
X662500Y313878D02*
D03*
X657500D02*
D03*
X652500D02*
D03*
X647500D02*
D03*
X662500Y476122D02*
D03*
X657500D02*
D03*
X652500D02*
D03*
X647500D02*
D03*
X662500Y453878D02*
D03*
X657500D02*
D03*
X652500D02*
D03*
X647500D02*
D03*
Y593878D02*
D03*
X652500D02*
D03*
X657500D02*
D03*
X662500D02*
D03*
X647500Y616122D02*
D03*
X652500D02*
D03*
X657500D02*
D03*
X662500D02*
D03*
M02*
