G04*
G04 #@! TF.GenerationSoftware,Altium Limited,Altium Designer,19.1.7 (138)*
G04*
G04 Layer_Physical_Order=1*
G04 Layer_Color=255*
%FSLAX25Y25*%
%MOIN*%
G70*
G01*
G75*
%ADD10C,0.01000*%
%ADD14C,0.00600*%
%ADD37R,0.02756X0.03543*%
%ADD38R,0.03150X0.06299*%
%ADD39R,0.18000X0.11811*%
%ADD40R,0.06890X0.02559*%
%ADD41R,0.09055X0.09055*%
%ADD42R,0.06693X0.04331*%
%ADD43R,0.03543X0.03150*%
%ADD44R,0.04528X0.21654*%
%ADD45R,0.01378X0.03898*%
G04:AMPARAMS|DCode=46|XSize=23.62mil|YSize=57.09mil|CornerRadius=2.01mil|HoleSize=0mil|Usage=FLASHONLY|Rotation=90.000|XOffset=0mil|YOffset=0mil|HoleType=Round|Shape=RoundedRectangle|*
%AMROUNDEDRECTD46*
21,1,0.02362,0.05307,0,0,90.0*
21,1,0.01961,0.05709,0,0,90.0*
1,1,0.00402,0.02653,0.00980*
1,1,0.00402,0.02653,-0.00980*
1,1,0.00402,-0.02653,-0.00980*
1,1,0.00402,-0.02653,0.00980*
%
%ADD46ROUNDEDRECTD46*%
%ADD47R,0.03543X0.02756*%
%ADD48R,0.03937X0.12598*%
%ADD49C,0.04000*%
%ADD50C,0.02000*%
%ADD51C,0.06000*%
%ADD52R,0.06000X0.06000*%
%ADD53R,0.06000X0.06000*%
%ADD54C,0.05906*%
%ADD55R,0.05906X0.05906*%
%ADD56C,0.08268*%
%ADD57R,0.08268X0.08268*%
%ADD58C,0.35000*%
%ADD59C,0.02400*%
%ADD60C,0.05000*%
G36*
X568000Y450500D02*
X558000Y440500D01*
X510000Y440500D01*
X503000Y433500D01*
X503000D01*
X503000Y352000D01*
X491500Y340500D01*
X419000Y340500D01*
X401000Y322500D01*
X389500Y322500D01*
Y344500D01*
X390500Y345500D01*
Y362000D01*
X478500D01*
X481000Y364500D01*
X481000Y433500D01*
X492000D01*
X481000Y433500D01*
X474000Y440500D01*
X402000Y440500D01*
X393000Y449500D01*
X393000Y485500D01*
X568000D01*
X568000Y450500D01*
D02*
G37*
G36*
X418500Y413500D02*
Y399500D01*
X395500D01*
Y415500D01*
X416500D01*
X418500Y413500D01*
D02*
G37*
G36*
X568019Y390481D02*
X568019Y369519D01*
X557250Y358750D01*
X535250Y358750D01*
X528000Y366000D01*
Y366000D01*
X506644Y366000D01*
X506644Y393000D01*
X528000D01*
Y393000D01*
X536250Y401250D01*
X557250D01*
X568019Y390481D01*
D02*
G37*
G36*
X438000Y386000D02*
Y373000D01*
X433500Y368500D01*
X396000D01*
Y376500D01*
X395500Y377000D01*
X391000D01*
Y393000D01*
X419000D01*
X420000Y394000D01*
X430000D01*
X438000Y386000D01*
D02*
G37*
G36*
X477250Y368000D02*
X456000Y368000D01*
X451250Y372750D01*
Y386250D01*
X455750Y390750D01*
X477250D01*
X477250Y368000D01*
D02*
G37*
G36*
X503000Y331000D02*
X481000Y331000D01*
Y340500D01*
X491500Y340500D01*
X503000Y352000D01*
X503000Y331000D01*
D02*
G37*
G36*
X370500Y322500D02*
X360500D01*
X358500Y324500D01*
Y342500D01*
X360500Y344500D01*
X370500D01*
Y322500D01*
D02*
G37*
G36*
X418500Y311000D02*
Y297000D01*
X395500D01*
Y313000D01*
X416500D01*
X418500Y311000D01*
D02*
G37*
G36*
X567875Y288481D02*
X567875Y267519D01*
X557106Y256750D01*
X535106Y256750D01*
X527856Y264000D01*
Y264000D01*
X506500Y264000D01*
X506500Y291000D01*
X527856D01*
Y291000D01*
X536106Y299250D01*
X557106D01*
X567875Y288481D01*
D02*
G37*
G36*
X438000Y283500D02*
Y270500D01*
X433500Y266000D01*
X396000D01*
Y274000D01*
X395500Y274500D01*
X391000D01*
Y290500D01*
X419000D01*
X420000Y291500D01*
X430000D01*
X438000Y283500D01*
D02*
G37*
G36*
X477250Y265500D02*
X456000Y265500D01*
X451250Y270250D01*
Y283750D01*
X455750Y288250D01*
X477250D01*
X477250Y265500D01*
D02*
G37*
G36*
X503000Y331000D02*
X503000Y249500D01*
X491500Y238000D01*
X419000Y238000D01*
X401000Y220000D01*
X389500Y220000D01*
Y242000D01*
X390500Y243000D01*
Y259500D01*
X478500D01*
X481000Y262000D01*
X481000Y331000D01*
X503000Y331000D01*
D02*
G37*
G36*
Y228500D02*
X503000Y147000D01*
X491500Y135500D01*
X419000Y135500D01*
X401000Y117500D01*
X389500Y117500D01*
Y139500D01*
X390500Y140500D01*
Y157000D01*
X478500D01*
X481000Y159500D01*
X481000Y228500D01*
X481000D01*
Y238000D01*
X491500Y238000D01*
X503000Y249500D01*
X503000Y228500D01*
D02*
G37*
G36*
X370500Y220000D02*
X360500D01*
X358500Y222000D01*
Y240000D01*
X360500Y242000D01*
X370500D01*
Y220000D01*
D02*
G37*
G36*
X418500Y208500D02*
Y194500D01*
X395500D01*
Y210500D01*
X416500D01*
X418500Y208500D01*
D02*
G37*
G36*
X567875Y185481D02*
X567875Y164519D01*
X557106Y153750D01*
X535106Y153750D01*
X527856Y161000D01*
Y161000D01*
X506500Y161000D01*
X506500Y188000D01*
X527856D01*
Y188000D01*
X536106Y196250D01*
X557106D01*
X567875Y185481D01*
D02*
G37*
G36*
X438000Y181000D02*
Y168000D01*
X433500Y163500D01*
X396000D01*
Y171500D01*
X395500Y172000D01*
X391000D01*
Y188000D01*
X419000D01*
X420000Y189000D01*
X430000D01*
X438000Y181000D01*
D02*
G37*
G36*
X477250Y163000D02*
X456000Y163000D01*
X451250Y167750D01*
Y181250D01*
X455750Y185750D01*
X477250D01*
X477250Y163000D01*
D02*
G37*
G36*
X370500Y117500D02*
X360500D01*
X358500Y119500D01*
Y137500D01*
X360500Y139500D01*
X370500D01*
Y117500D01*
D02*
G37*
D10*
X397500Y371500D02*
Y380165D01*
X392500Y231591D02*
Y246165D01*
Y129091D02*
Y143665D01*
D14*
X332500Y417500D02*
X429043D01*
X325000Y410000D02*
X332500Y417500D01*
X330000Y419500D02*
X422500D01*
X325000Y414500D02*
X330000Y419500D01*
X138000Y410500D02*
Y481500D01*
X133000Y405500D02*
X138000Y410500D01*
X183000Y415500D02*
Y481000D01*
X253000Y415500D02*
Y481000D01*
X243000Y415500D02*
Y480500D01*
X168000Y410500D02*
Y481500D01*
Y410500D02*
X173000Y405500D01*
X163000D02*
X168500Y400000D01*
X175500D01*
X178000Y402500D01*
Y408000D01*
X180500Y410500D01*
X118000D02*
Y481000D01*
Y410500D02*
X123000Y405500D01*
X424000Y290500D02*
X428500Y295000D01*
X293000Y379500D02*
Y405500D01*
Y309000D02*
Y368500D01*
X290000Y306000D02*
X293000Y309000D01*
X285500Y285000D02*
Y301000D01*
X263000Y258000D02*
X317000Y312000D01*
X263000Y175500D02*
Y258000D01*
X292500Y278000D02*
X307000Y263500D01*
X268000Y258500D02*
X317000Y307500D01*
X268000Y173000D02*
Y258500D01*
X312000Y216500D02*
X313000Y215500D01*
X312000Y216500D02*
Y259000D01*
X313000Y213500D02*
Y215500D01*
Y213500D02*
X317000Y209500D01*
X298500Y245500D02*
X308000Y236000D01*
Y208000D02*
Y236000D01*
X123000Y415500D02*
X128000Y410500D01*
Y347000D02*
Y410500D01*
Y347000D02*
X259500Y215500D01*
X276500D02*
X276750D01*
X290750Y201500D01*
X273000Y175500D02*
Y224500D01*
X317500Y269000D01*
X265500Y170500D02*
X268000Y173000D01*
X290750Y201500D02*
X291000D01*
X294000Y250000D02*
Y250250D01*
X279000Y265250D02*
X294000Y250250D01*
X278000Y183500D02*
X299500Y205000D01*
X278000Y163000D02*
Y183500D01*
X299500Y205000D02*
X317000D01*
X296000Y188000D02*
Y197000D01*
Y188000D02*
X317500Y166500D01*
X308000Y181000D02*
X317500Y171500D01*
X308000Y181000D02*
Y202000D01*
X279000Y265250D02*
Y265500D01*
X248000Y296500D02*
X272500Y272000D01*
X248000Y296500D02*
Y368500D01*
Y163000D02*
Y170500D01*
X243000Y175500D02*
X248000Y170500D01*
X250500Y160500D02*
X275500D01*
X248000Y163000D02*
X250500Y160500D01*
X275500D02*
X278000Y163000D01*
X223000Y399500D02*
X248000Y374500D01*
X223000Y399500D02*
Y405500D01*
X254500Y376500D02*
X317500D01*
X228000Y403000D02*
X254500Y376500D01*
X228000Y403000D02*
Y407649D01*
X237000Y371500D02*
X317500D01*
X203000Y405500D02*
X237000Y371500D01*
X180500Y410500D02*
X205500D01*
X208000Y413000D01*
Y418000D01*
X210500Y420500D01*
X225500D01*
X228000Y418000D01*
Y413000D02*
Y418000D01*
Y413000D02*
X230500Y410500D01*
X225149D02*
X228000Y407649D01*
X218000Y410500D02*
X225149D01*
X213000Y405500D02*
X218000Y410500D01*
X288000Y413000D02*
Y418000D01*
X285500Y410500D02*
X288000Y413000D01*
X230500Y410500D02*
X285500D01*
X288000Y418000D02*
X290500Y420500D01*
X273000Y318500D02*
X296000Y295500D01*
X303000Y288500D02*
X317500Y274000D01*
X273000Y379500D02*
Y405500D01*
Y318500D02*
Y368500D01*
X338953Y377000D02*
X339953Y376000D01*
X286853Y406353D02*
X290500Y410000D01*
X283853Y406353D02*
X286853D01*
X283000Y405500D02*
X283853Y406353D01*
X290500Y410000D02*
X317000D01*
X301500Y414500D02*
X317000D01*
X295500Y420500D02*
X301500Y414500D01*
X290500Y420500D02*
X295500D01*
X253000Y175500D02*
X258000Y170500D01*
X265500D01*
X339000Y212500D02*
X429043D01*
X331500Y171500D02*
X338453D01*
X331500Y166500D02*
X340453D01*
X331500Y205000D02*
X339000Y212500D01*
X331500Y209500D02*
X336500Y214500D01*
X422500D01*
X331500Y307500D02*
X339000Y315000D01*
X429043D01*
X331500Y312000D02*
X336500Y317000D01*
X422500D01*
Y419500D02*
X425000Y422000D01*
X429043Y413500D02*
Y417500D01*
X338953Y172000D02*
X339953Y171000D01*
X463047Y193547D02*
X467213Y197713D01*
Y199000D01*
X463047Y192500D02*
Y193547D01*
X331500Y376500D02*
X338453D01*
X338953Y377000D01*
X331500Y371500D02*
X340453D01*
X331500Y274000D02*
X338453D01*
X331500Y269000D02*
X340453D01*
X428500Y397500D02*
X463047D01*
X424000Y393000D02*
X428500Y397500D01*
X459500Y409453D02*
X459500Y409453D01*
X422000Y400453D02*
Y407047D01*
X428668Y408125D02*
X429043Y408500D01*
X423078Y408125D02*
X428668D01*
X422000Y407047D02*
X423078Y408125D01*
X425000Y422000D02*
X433562D01*
X442062Y413500D02*
X450500D01*
X433562Y422000D02*
X442062Y413500D01*
X450500Y408500D02*
Y413500D01*
Y403500D02*
X461000D01*
X467213Y402713D02*
Y404000D01*
X463047Y398547D02*
X467213Y402713D01*
X463047Y397500D02*
Y398547D01*
X469772Y398319D02*
Y404000D01*
X468953Y397500D02*
X469772Y398319D01*
X472331Y386374D02*
Y404000D01*
Y386374D02*
X472512Y386193D01*
X467161Y419500D02*
X467213Y419551D01*
X472331D02*
X472500Y419382D01*
X461000Y403500D02*
X472500Y415000D01*
Y419382D01*
X428500Y295000D02*
X463047D01*
X459500Y306953D02*
X459500Y306953D01*
X422000Y297953D02*
Y304547D01*
X429043Y311000D02*
Y315000D01*
X428668Y305625D02*
X429043Y306000D01*
X423078Y305625D02*
X428668D01*
X422000Y304547D02*
X423078Y305625D01*
X425000Y319500D02*
X433562D01*
X422500Y317000D02*
X425000Y319500D01*
X442062Y311000D02*
X450500D01*
X433562Y319500D02*
X442062Y311000D01*
X450500Y306000D02*
Y311000D01*
Y301000D02*
X461000D01*
X467213Y300213D02*
Y301500D01*
X463047Y296047D02*
X467213Y300213D01*
X463047Y295000D02*
Y296047D01*
X469772Y295819D02*
Y301500D01*
X468953Y295000D02*
X469772Y295819D01*
X472331Y283874D02*
Y301500D01*
Y283874D02*
X472512Y283693D01*
X467161Y317000D02*
X467213Y317051D01*
X472331D02*
X472500Y316882D01*
X461000Y301000D02*
X472500Y312500D01*
Y316882D01*
X472331Y383921D02*
Y401547D01*
Y383921D02*
X472512Y383740D01*
X339953Y376000D02*
X340453Y376500D01*
X392500Y371500D02*
X392500Y371500D01*
X392500Y403000D02*
X392500Y403000D01*
X339953Y273500D02*
X340453Y274000D01*
X338453D02*
X338953Y274500D01*
X339953Y273500D01*
X392500Y269000D02*
X392500Y269000D01*
X392500Y300500D02*
X392500Y300500D01*
X472331Y383921D02*
Y401547D01*
Y383921D02*
X472512Y383740D01*
X424000Y188000D02*
X428500Y192500D01*
X463047D01*
X459500Y204453D02*
X459500Y204453D01*
X422000Y195453D02*
Y202047D01*
X429043Y208500D02*
Y212500D01*
X428668Y203125D02*
X429043Y203500D01*
X423078Y203125D02*
X428668D01*
X422000Y202047D02*
X423078Y203125D01*
X425000Y217000D02*
X433562D01*
X442062Y208500D02*
X450500D01*
X422500Y214500D02*
X425000Y217000D01*
X433562D02*
X442062Y208500D01*
X450500Y203500D02*
Y208500D01*
Y198500D02*
X461000D01*
X469772Y193319D02*
Y199000D01*
X468953Y192500D02*
X469772Y193319D01*
X472331Y181374D02*
Y199000D01*
Y181374D02*
X472512Y181193D01*
X467161Y214500D02*
X467213Y214551D01*
X472331D02*
X472500Y214382D01*
X461000Y198500D02*
X472500Y210000D01*
Y214382D01*
X338453Y171500D02*
X338953Y172000D01*
X339953Y171000D02*
X340453Y171500D01*
X392500Y198000D02*
X392500Y198000D01*
X392500Y166500D02*
X392500Y166500D01*
D37*
X379547Y300500D02*
D03*
X385453D02*
D03*
X379547Y269000D02*
D03*
X385453D02*
D03*
X327047Y290500D02*
D03*
X332953D02*
D03*
X463047Y295000D02*
D03*
X468953D02*
D03*
X385453Y403000D02*
D03*
X379547D02*
D03*
X385453Y371500D02*
D03*
X379547D02*
D03*
X332953Y393000D02*
D03*
X327047D02*
D03*
X463047Y397500D02*
D03*
X468953D02*
D03*
Y192500D02*
D03*
X463047D02*
D03*
X379547Y166500D02*
D03*
X385453D02*
D03*
X379547Y198000D02*
D03*
X385453D02*
D03*
X327047Y188000D02*
D03*
X332953D02*
D03*
D38*
X407500Y300500D02*
D03*
X402500D02*
D03*
X397500D02*
D03*
X392500D02*
D03*
X407500Y277665D02*
D03*
X402500D02*
D03*
X397500D02*
D03*
X392500D02*
D03*
X407500Y269000D02*
D03*
X402500D02*
D03*
X397500D02*
D03*
X392500D02*
D03*
X407500Y246165D02*
D03*
X402500D02*
D03*
X397500D02*
D03*
X392500D02*
D03*
Y380165D02*
D03*
X397500D02*
D03*
X402500D02*
D03*
X407500D02*
D03*
X392500Y403000D02*
D03*
X397500D02*
D03*
X402500D02*
D03*
X407500D02*
D03*
X392500Y348665D02*
D03*
X397500D02*
D03*
X402500D02*
D03*
X407500D02*
D03*
X392500Y371500D02*
D03*
X397500D02*
D03*
X402500D02*
D03*
X407500D02*
D03*
Y166500D02*
D03*
X402500D02*
D03*
X397500D02*
D03*
X392500D02*
D03*
X407500Y143665D02*
D03*
X402500D02*
D03*
X397500D02*
D03*
X392500D02*
D03*
X407500Y198000D02*
D03*
X402500D02*
D03*
X397500D02*
D03*
X392500D02*
D03*
X407500Y175165D02*
D03*
X402500D02*
D03*
X397500D02*
D03*
X392500D02*
D03*
D39*
X400000Y284500D02*
D03*
Y253000D02*
D03*
Y387000D02*
D03*
Y355500D02*
D03*
Y150500D02*
D03*
Y182000D02*
D03*
D40*
X340453Y274000D02*
D03*
Y269000D02*
D03*
Y264000D02*
D03*
Y259000D02*
D03*
X362500Y274000D02*
D03*
Y269000D02*
D03*
Y264000D02*
D03*
Y259000D02*
D03*
Y361500D02*
D03*
Y366500D02*
D03*
Y371500D02*
D03*
Y376500D02*
D03*
X340453Y361500D02*
D03*
Y366500D02*
D03*
Y371500D02*
D03*
Y376500D02*
D03*
Y171500D02*
D03*
Y166500D02*
D03*
Y161500D02*
D03*
Y156500D02*
D03*
X362500Y171500D02*
D03*
Y166500D02*
D03*
Y161500D02*
D03*
Y156500D02*
D03*
D41*
X361358Y290500D02*
D03*
X343642D02*
D03*
Y393000D02*
D03*
X361358D02*
D03*
Y188000D02*
D03*
X343642D02*
D03*
D42*
X372000Y274315D02*
D03*
Y263685D02*
D03*
Y366185D02*
D03*
Y376815D02*
D03*
Y171815D02*
D03*
Y161185D02*
D03*
D43*
X359500Y252256D02*
D03*
Y246744D02*
D03*
X365500Y252256D02*
D03*
Y246744D02*
D03*
X453500Y328756D02*
D03*
Y323244D02*
D03*
X447500Y328756D02*
D03*
Y323244D02*
D03*
X359500Y349244D02*
D03*
Y354756D02*
D03*
X365500Y349244D02*
D03*
Y354756D02*
D03*
X453500Y431256D02*
D03*
Y425744D02*
D03*
X447500Y431256D02*
D03*
Y425744D02*
D03*
Y220744D02*
D03*
Y226256D02*
D03*
X453500Y220744D02*
D03*
Y226256D02*
D03*
X365500Y149756D02*
D03*
Y144244D02*
D03*
X359500Y149756D02*
D03*
Y144244D02*
D03*
D44*
X368091Y231000D02*
D03*
X391910D02*
D03*
X368091Y333500D02*
D03*
X391910D02*
D03*
Y128500D02*
D03*
X368091D02*
D03*
D45*
X467213Y301500D02*
D03*
X469772D02*
D03*
X472331D02*
D03*
X474890D02*
D03*
X467213Y317051D02*
D03*
X469772D02*
D03*
X472331D02*
D03*
X474890D02*
D03*
X467213Y404000D02*
D03*
X469772D02*
D03*
X472331D02*
D03*
X474890D02*
D03*
X467213Y419551D02*
D03*
X469772D02*
D03*
X472331D02*
D03*
X474890D02*
D03*
Y214551D02*
D03*
X472331D02*
D03*
X469772D02*
D03*
X467213D02*
D03*
X474890Y199000D02*
D03*
X472331D02*
D03*
X469772D02*
D03*
X467213D02*
D03*
D46*
X429043Y316000D02*
D03*
Y311000D02*
D03*
Y306000D02*
D03*
Y301000D02*
D03*
X450500Y316000D02*
D03*
Y311000D02*
D03*
Y306000D02*
D03*
Y301000D02*
D03*
X429043Y418500D02*
D03*
Y413500D02*
D03*
Y408500D02*
D03*
Y403500D02*
D03*
X450500Y418500D02*
D03*
Y413500D02*
D03*
Y408500D02*
D03*
Y403500D02*
D03*
Y198500D02*
D03*
Y203500D02*
D03*
Y208500D02*
D03*
Y213500D02*
D03*
X429043Y198500D02*
D03*
Y203500D02*
D03*
Y208500D02*
D03*
Y213500D02*
D03*
D47*
X422000Y304547D02*
D03*
Y310453D02*
D03*
Y292047D02*
D03*
Y297953D02*
D03*
X459500Y301047D02*
D03*
Y306953D02*
D03*
X422000Y407047D02*
D03*
Y412953D02*
D03*
Y394547D02*
D03*
Y400453D02*
D03*
X459500Y403547D02*
D03*
Y409453D02*
D03*
Y204453D02*
D03*
Y198547D02*
D03*
X422000Y207953D02*
D03*
Y202047D02*
D03*
Y195453D02*
D03*
Y189547D02*
D03*
D48*
X435839Y277000D02*
D03*
X453161D02*
D03*
X435839Y379500D02*
D03*
X453161D02*
D03*
Y174500D02*
D03*
X435839D02*
D03*
D49*
X327000Y319500D02*
Y346500D01*
Y217000D02*
X327044Y188000D01*
X327047Y186125D01*
Y149756D02*
Y186125D01*
Y125547D02*
Y149500D01*
Y260953D02*
Y290500D01*
X327000Y260906D02*
X327047Y260953D01*
X327000Y217000D02*
Y260906D01*
Y319500D02*
X327047Y290500D01*
D50*
X327000Y346500D02*
Y363405D01*
Y346500D02*
X327488D01*
X335744Y354756D01*
X321000Y320000D02*
Y417000D01*
X326500Y422500D01*
X420500D01*
X171244Y149756D02*
X327047D01*
X158047Y162953D02*
X171244Y149756D01*
X327047D02*
X359500D01*
X327000Y125500D02*
X327047Y125547D01*
X450500Y220744D02*
X453500D01*
X447500D02*
X450500D01*
Y213500D02*
Y220744D01*
Y213500D02*
X450500Y213500D01*
X450500Y323244D02*
X453500D01*
X447500D02*
X450500D01*
Y316000D02*
Y323244D01*
Y316000D02*
X450500Y316000D01*
X450500Y425744D02*
X453500D01*
X447500D02*
X450500D01*
Y418500D02*
Y425744D01*
Y418500D02*
X450500Y418500D01*
X417143Y412953D02*
X422000D01*
X415191Y411000D02*
X417143Y412953D01*
Y310453D02*
X422000D01*
X415191Y308500D02*
X417143Y310453D01*
Y207953D02*
X422000D01*
X415191Y206000D02*
X417143Y207953D01*
X414000Y206000D02*
X415191D01*
X414000Y308500D02*
X415191D01*
X414000Y411000D02*
X415191D01*
X321000Y161000D02*
Y217500D01*
X315250Y155250D02*
X321000Y161000D01*
Y217500D02*
Y320000D01*
X177500Y181000D02*
X183000Y175500D01*
X168500Y181000D02*
X177500D01*
X163000Y175500D02*
X168500Y181000D01*
X158047Y180547D02*
X163000Y185500D01*
X213000D02*
X223000Y175500D01*
X183000D02*
X187953Y170547D01*
X163000Y185500D02*
X213000D01*
X158047Y162953D02*
Y180547D01*
X187953Y163543D02*
X196246Y155250D01*
X315250D01*
X187953Y163543D02*
Y170547D01*
X223000Y175500D02*
X233000D01*
X333000Y217500D02*
X420500D01*
X333000Y320000D02*
X420500D01*
Y422500D02*
X423744Y425744D01*
X327047Y363453D02*
Y393000D01*
X420500Y320000D02*
X423744Y323244D01*
X447244Y431000D02*
X447500Y431256D01*
X442500Y431000D02*
X447244D01*
X423744Y425744D02*
X447181D01*
X447500Y431256D02*
X453500D01*
X459500Y409453D02*
Y414000D01*
X422000Y412953D02*
X422000Y412953D01*
X429043Y403500D02*
X434772D01*
X463000Y419500D02*
X467161D01*
X447244Y328500D02*
X447500Y328756D01*
X442500Y328500D02*
X447244D01*
X423744Y323244D02*
X447181D01*
X447500Y328756D02*
X453500D01*
X459500Y306953D02*
Y311500D01*
X422000Y310453D02*
X422000Y310453D01*
X429043Y301000D02*
X434772D01*
X463000Y317000D02*
X467161D01*
X362500Y349244D02*
X365000D01*
X362500Y341500D02*
Y349244D01*
X362500Y349244D01*
X360000D02*
X362500D01*
X372000Y366185D02*
X373185Y365000D01*
X362500Y354756D02*
Y361500D01*
Y354756D02*
X365000D01*
X359500D02*
X362500D01*
Y366500D02*
X371685D01*
Y376500D02*
X372000Y376815D01*
X361521Y377480D02*
Y392838D01*
X362500Y376500D02*
X371685D01*
X361358Y393000D02*
X361521Y392838D01*
Y377480D02*
X362500Y376500D01*
X340453Y366500D02*
X347500D01*
X333500D02*
X340453D01*
X397300Y371300D02*
X397500Y371500D01*
X397300Y368300D02*
Y371300D01*
X394000Y365000D02*
X397300Y368300D01*
X373185Y365000D02*
X394000D01*
X371685Y366500D02*
X372000Y366185D01*
X343642Y393000D02*
X343642Y393000D01*
X332953Y393000D02*
X343642D01*
X335744Y354756D02*
X359500D01*
X385453Y371500D02*
X392500D01*
X379547Y371500D02*
X379547Y371500D01*
X362500Y371500D02*
X379547D01*
X385453Y403000D02*
X392500D01*
X379547Y403000D02*
X379547Y403000D01*
X356000Y403000D02*
X379547D01*
X352500Y365000D02*
Y399500D01*
X356000Y403000D01*
X349000Y361500D02*
X352500Y365000D01*
X340453Y361500D02*
X349000D01*
X362500Y246744D02*
X365000D01*
X362500Y239000D02*
Y246744D01*
X362500Y246744D01*
X360000D02*
X362500D01*
X372000Y263685D02*
X373185Y262500D01*
X362500Y252256D02*
Y259000D01*
Y252256D02*
X365000D01*
X359500D02*
X362500D01*
Y264000D02*
X371685D01*
Y274000D02*
X372000Y274315D01*
X361521Y274979D02*
Y290338D01*
X362500Y274000D02*
X371685D01*
X361358Y290500D02*
X361521Y290338D01*
Y274979D02*
X362500Y274000D01*
X340453Y264000D02*
X347500D01*
X333500D02*
X340453D01*
X397300Y268800D02*
X397500Y269000D01*
X397300Y265800D02*
Y268800D01*
X394000Y262500D02*
X397300Y265800D01*
X373185Y262500D02*
X394000D01*
X371685Y264000D02*
X372000Y263685D01*
X343642Y290500D02*
X343642Y290500D01*
X332953Y290500D02*
X343642D01*
X327047Y260953D02*
X335744Y252256D01*
X359500D01*
X385453Y269000D02*
X392500D01*
X379547Y269000D02*
X379547Y269000D01*
X362500Y269000D02*
X379547D01*
X385453Y300500D02*
X392500D01*
X379547Y300500D02*
X379547Y300500D01*
X356000Y300500D02*
X379547D01*
X352500Y262500D02*
Y297000D01*
X356000Y300500D01*
X349000Y259000D02*
X352500Y262500D01*
X340453Y259000D02*
X349000D01*
X420500Y217500D02*
X423744Y220744D01*
X447244Y226000D02*
X447500Y226256D01*
X442500Y226000D02*
X447244D01*
X423744Y220744D02*
X447181D01*
X447500Y226256D02*
X453500D01*
X459500Y204453D02*
Y209000D01*
X422000Y207953D02*
X422000Y207953D01*
X429043Y198500D02*
X434772D01*
X463000Y214500D02*
X467161D01*
X362500Y144244D02*
X365000D01*
X360000D02*
X362500D01*
X362500Y144244D02*
X362500Y144244D01*
X362500Y136500D02*
Y144244D01*
Y149756D02*
Y156500D01*
Y149756D02*
X365000D01*
X359500D02*
X362500D01*
X394000Y160000D02*
X397300Y163300D01*
X373185Y160000D02*
X394000D01*
X372000Y161185D02*
X373185Y160000D01*
X397300Y163300D02*
Y166300D01*
X397500Y166500D01*
X371685Y161500D02*
X372000Y161185D01*
X362500Y161500D02*
X371685D01*
X333500D02*
X340453D01*
X347500D01*
X385453Y198000D02*
X392500D01*
X356000Y198000D02*
X379547D01*
X352500Y194500D02*
X356000Y198000D01*
X352500Y160000D02*
Y194500D01*
X349000Y156500D02*
X352500Y160000D01*
X340453Y156500D02*
X349000D01*
X379547Y198000D02*
X379547Y198000D01*
X361521Y172479D02*
X362500Y171500D01*
X361521Y172479D02*
Y187838D01*
X361358Y188000D02*
X361521Y187838D01*
X385453Y166500D02*
X392500D01*
X379547Y166500D02*
X379547Y166500D01*
X362500Y166500D02*
X379547D01*
X371685Y171500D02*
X372000Y171815D01*
X362500Y171500D02*
X371685D01*
X343642Y188000D02*
X343642Y188000D01*
X332953Y188000D02*
X343642D01*
D51*
X443500Y117000D02*
D03*
X368000Y458000D02*
D03*
X225000Y480500D02*
D03*
X233500D02*
D03*
X192500Y481000D02*
D03*
X157500Y481500D02*
D03*
X147500D02*
D03*
X127500D02*
D03*
X253000Y481000D02*
D03*
X243000Y480500D02*
D03*
X183000Y481000D02*
D03*
X168000Y481500D02*
D03*
X138000D02*
D03*
X118000Y481000D02*
D03*
D52*
X443500Y146500D02*
D03*
D53*
X397500Y458000D02*
D03*
D54*
X293000Y415500D02*
D03*
Y405500D02*
D03*
X283000Y415500D02*
D03*
Y405500D02*
D03*
X273000Y415500D02*
D03*
Y405500D02*
D03*
X263000Y415500D02*
D03*
Y405500D02*
D03*
X253000Y415500D02*
D03*
Y405500D02*
D03*
X243000Y415500D02*
D03*
Y405500D02*
D03*
X233000Y415500D02*
D03*
Y405500D02*
D03*
X223000Y415500D02*
D03*
Y405500D02*
D03*
X213000Y415500D02*
D03*
Y405500D02*
D03*
X203000Y415500D02*
D03*
Y405500D02*
D03*
X193000Y415500D02*
D03*
Y405500D02*
D03*
X183000Y415500D02*
D03*
Y405500D02*
D03*
X173000Y415500D02*
D03*
Y405500D02*
D03*
X163000Y415500D02*
D03*
Y405500D02*
D03*
X153000Y415500D02*
D03*
Y405500D02*
D03*
X143000Y415500D02*
D03*
Y405500D02*
D03*
X133000Y415500D02*
D03*
Y405500D02*
D03*
X123000Y415500D02*
D03*
Y405500D02*
D03*
X113000Y415500D02*
D03*
X293000Y175500D02*
D03*
Y165500D02*
D03*
X283000Y175500D02*
D03*
Y165500D02*
D03*
X273000Y175500D02*
D03*
Y165500D02*
D03*
X263000Y175500D02*
D03*
Y165500D02*
D03*
X253000Y175500D02*
D03*
Y165500D02*
D03*
X243000Y175500D02*
D03*
Y165500D02*
D03*
X233000Y175500D02*
D03*
Y165500D02*
D03*
X223000Y175500D02*
D03*
Y165500D02*
D03*
X213000Y175500D02*
D03*
Y165500D02*
D03*
X203000Y175500D02*
D03*
Y165500D02*
D03*
X193000Y175500D02*
D03*
Y165500D02*
D03*
X183000Y175500D02*
D03*
Y165500D02*
D03*
X173000Y175500D02*
D03*
Y165500D02*
D03*
X163000Y175500D02*
D03*
Y165500D02*
D03*
X153000Y175500D02*
D03*
Y165500D02*
D03*
X143000Y175500D02*
D03*
Y165500D02*
D03*
X133000Y175500D02*
D03*
Y165500D02*
D03*
X123000Y175500D02*
D03*
Y165500D02*
D03*
X113000Y175500D02*
D03*
D55*
Y405500D02*
D03*
Y165500D02*
D03*
D56*
X472512Y270307D02*
D03*
X511488D02*
D03*
Y283693D02*
D03*
X472512Y372807D02*
D03*
X511488D02*
D03*
Y386193D02*
D03*
Y181193D02*
D03*
Y167807D02*
D03*
X472512D02*
D03*
D57*
Y283693D02*
D03*
Y386193D02*
D03*
Y181193D02*
D03*
D58*
X438000Y465500D02*
D03*
X282500Y125500D02*
D03*
X327000Y466000D02*
D03*
Y125500D02*
D03*
X282500Y465500D02*
D03*
X546000Y380000D02*
D03*
X492000Y464500D02*
D03*
X548000Y465500D02*
D03*
X546000Y175000D02*
D03*
X546500Y278000D02*
D03*
D59*
X325000Y410000D02*
D03*
Y414500D02*
D03*
X293000Y379500D02*
D03*
Y368500D02*
D03*
X290000Y306000D02*
D03*
X285500Y301000D02*
D03*
Y285000D02*
D03*
X292500Y278000D02*
D03*
X307000Y263500D02*
D03*
X312000Y259000D02*
D03*
X259500Y215500D02*
D03*
X276500D02*
D03*
X294000Y250000D02*
D03*
X291000Y201500D02*
D03*
X296000Y197000D02*
D03*
X308000Y202000D02*
D03*
Y208000D02*
D03*
X298500Y245500D02*
D03*
X317000Y205000D02*
D03*
Y209500D02*
D03*
X279000Y265500D02*
D03*
X272500Y272000D02*
D03*
X248000Y368500D02*
D03*
Y374500D02*
D03*
X296000Y295500D02*
D03*
X303000Y288500D02*
D03*
X273000Y368500D02*
D03*
Y379500D02*
D03*
X317500Y171500D02*
D03*
Y166500D02*
D03*
X331500Y171500D02*
D03*
Y166500D02*
D03*
Y205000D02*
D03*
Y209500D02*
D03*
X317000Y307500D02*
D03*
X331500D02*
D03*
Y312000D02*
D03*
X317000D02*
D03*
Y414500D02*
D03*
Y410000D02*
D03*
X317500Y269000D02*
D03*
Y274000D02*
D03*
X331500Y376500D02*
D03*
Y371500D02*
D03*
X317500Y376500D02*
D03*
Y371500D02*
D03*
X331500Y274000D02*
D03*
Y269000D02*
D03*
X442500Y431000D02*
D03*
X459500Y414000D02*
D03*
X434772Y403500D02*
D03*
X463000Y419500D02*
D03*
X442500Y328500D02*
D03*
X459500Y311500D02*
D03*
X434772Y301000D02*
D03*
X463000Y317000D02*
D03*
X347500Y366500D02*
D03*
X333500D02*
D03*
X347500Y264000D02*
D03*
X333500D02*
D03*
X442500Y226000D02*
D03*
X459500Y209000D02*
D03*
X434772Y198500D02*
D03*
X463000Y214500D02*
D03*
X333500Y161500D02*
D03*
X347500D02*
D03*
D60*
X333000Y217500D02*
D03*
X321000D02*
D03*
X333000Y320000D02*
D03*
X321000D02*
D03*
X406500Y411000D02*
D03*
X398500D02*
D03*
X414000D02*
D03*
Y403000D02*
D03*
X362500Y341500D02*
D03*
Y326000D02*
D03*
Y333500D02*
D03*
X414000Y308500D02*
D03*
Y300500D02*
D03*
X406500Y308500D02*
D03*
X398500D02*
D03*
X362500Y239000D02*
D03*
Y223500D02*
D03*
Y231000D02*
D03*
Y121000D02*
D03*
Y136500D02*
D03*
X414000Y198000D02*
D03*
X398500Y206000D02*
D03*
X414000D02*
D03*
X406500D02*
D03*
X362500Y128500D02*
D03*
M02*
