M48
;Layer_Color=9474304
;FILE_FORMAT=2:5
INCH,TZ
;TYPE=PLATED
T1F00S00C0.01300
T2F00S00C0.02800
T3F00S00C0.03543
T4F00S00C0.04291
T5F00S00C0.06299
T6F00S00C0.12835
T7F00S00C0.17000
%
T01
X487500Y200500
X485000Y217244
X477500
X494500Y244500
X503000
X504576Y194521
X520500Y194500
X559500Y270500
Y275500
X555500Y287551
X557000Y292500
X548304Y294798
X574500Y292500
X575000Y260000
Y255000
X592500Y250000
X615000Y237500
X462500Y250500
X455000
X442500
X439500Y238000
X432625
X452000Y230000
X436000Y264000
X431000
X426500Y263941
Y271000
X431000
X436000Y282000
X430012Y287205
X414953Y292500
X445000Y338500
X447500Y433500
X427500Y432500
X428500Y427500
X465000
Y420000
X559250Y416000
X549000Y402500
Y397500
X551500Y400000
X575000
Y395000
X592500Y390000
X615000Y377500
X551500Y371500
X547500Y352000
X559500Y340000
X562500Y342500
X575000
Y320000
X566000
X486061Y312795
X575000Y431500
Y460000
X566000
X634494Y465506
X662500Y460000
Y320000
X634494Y325506
X615000Y517500
X592500Y530000
X574000Y535000
Y540000
X569500Y566500
X559000Y556500
X556500Y522500
Y517500
X562500Y482500
X575000
T02
X655000Y297500
X662500
X670000Y292500
X613000Y222500
Y212500
X495000Y222000
X414343Y367500
X404500
Y450000
X414343
X613000Y362500
Y352500
X655000Y437500
X662500
X670000Y432500
Y572500
X662500Y577500
X655000
X613000Y502500
Y492500
T03
X632000Y269000
Y279000
X622000
Y269000
X532500Y270000
X522500
Y280000
Y290000
Y300000
Y310000
X512500
Y300000
Y290000
Y280000
Y270000
Y260000
X522500
X532500
Y280000
Y290000
Y300000
Y310000
X405000Y267500
Y257500
Y247500
Y237500
Y227500
Y217500
X512500Y320000
Y330000
Y340000
Y350000
Y360000
Y370000
Y380000
Y390000
Y400000
Y410000
Y420000
Y430000
X522500
Y420000
Y410000
Y400000
Y390000
Y380000
Y370000
Y360000
Y350000
Y340000
Y330000
Y320000
X532500
Y330000
Y340000
Y350000
Y360000
Y370000
Y380000
Y390000
Y400000
Y410000
Y420000
Y430000
X622000Y419000
Y409000
X632000
Y419000
Y549000
Y559000
X622000
Y549000
T04
X415000Y510689
Y521594
Y532500
Y543405
X426181Y548858
Y537953
Y527047
Y516142
Y505236
T05
X693012Y255807
Y269193
X731988
Y255807
Y395807
Y409193
X693012
Y395807
Y535807
Y549193
X731988
Y535807
T06
X420590Y477854
Y576240
T07
X695000Y207500
X757500
X760000Y290000
Y430000
Y570000
M30
