G04*
G04 #@! TF.GenerationSoftware,Altium Limited,Altium Designer,19.1.7 (138)*
G04*
G04 Layer_Color=32896*
%FSLAX25Y25*%
%MOIN*%
G70*
G01*
G75*
%ADD12C,0.00600*%
D12*
X406501Y522999D02*
X407000Y523499D01*
X408000D01*
X408500Y522999D01*
Y521000D01*
X408000Y520500D01*
X407000D01*
X406501Y521000D01*
Y522000D01*
X407500D01*
X405501Y520500D02*
Y523499D01*
X403502Y520500D01*
Y523499D01*
X402502D02*
Y520500D01*
X401002D01*
X400503Y521000D01*
Y522999D01*
X401002Y523499D01*
X402502D01*
X439001Y516999D02*
X439501Y517499D01*
X440500D01*
X441000Y516999D01*
Y515000D01*
X440500Y514500D01*
X439501D01*
X439001Y515000D01*
Y516000D01*
X440000D01*
X438001Y514500D02*
Y517499D01*
X436002Y514500D01*
Y517499D01*
X435002D02*
Y514500D01*
X433502D01*
X433003Y515000D01*
Y516999D01*
X433502Y517499D01*
X435002D01*
X439006Y503500D02*
X441006D01*
X439006Y505499D01*
Y505999D01*
X439506Y506499D01*
X440506D01*
X441006Y505999D01*
X436507Y503500D02*
Y506499D01*
X438007Y504999D01*
X436007D01*
X435008Y506499D02*
Y504500D01*
X434008Y503500D01*
X433008Y504500D01*
Y506499D01*
X406501Y509000D02*
X408500D01*
X406501Y510999D01*
Y511499D01*
X407000Y511999D01*
X408000D01*
X408500Y511499D01*
X404002Y509000D02*
Y511999D01*
X405501Y510499D01*
X403502D01*
X402502Y511999D02*
Y510000D01*
X401502Y509000D01*
X400503Y510000D01*
Y511999D01*
X439001Y527999D02*
X439501Y528499D01*
X440500D01*
X441000Y527999D01*
Y526000D01*
X440500Y525500D01*
X439501D01*
X439001Y526000D01*
Y527000D01*
X440000D01*
X438001Y525500D02*
Y528499D01*
X436002Y525500D01*
Y528499D01*
X435002D02*
Y525500D01*
X433502D01*
X433003Y526000D01*
Y527999D01*
X433502Y528499D01*
X435002D01*
X408500Y533999D02*
X406501D01*
X407500D01*
Y531000D01*
X405501Y533999D02*
Y531000D01*
Y532500D01*
X403502D01*
Y533999D01*
Y531000D01*
X402502D02*
Y533999D01*
X401002D01*
X400503Y533499D01*
Y532500D01*
X401002Y532000D01*
X402502D01*
X401502D02*
X400503Y531000D01*
X398003Y533999D02*
X399003D01*
X399503Y533499D01*
Y531500D01*
X399003Y531000D01*
X398003D01*
X397504Y531500D01*
Y533499D01*
X398003Y533999D01*
X396504D02*
X394504D01*
X395504D01*
Y531000D01*
X456001Y539499D02*
Y537000D01*
X455501Y536500D01*
X454501D01*
X454002Y537000D01*
Y539499D01*
X451002Y538999D02*
X451502Y539499D01*
X452502D01*
X453002Y538999D01*
Y538499D01*
X452502Y537999D01*
X451502D01*
X451002Y537500D01*
Y537000D01*
X451502Y536500D01*
X452502D01*
X453002Y537000D01*
X450003Y536500D02*
Y538499D01*
X449003Y539499D01*
X448003Y538499D01*
Y536500D01*
Y537999D01*
X450003D01*
X447004Y536500D02*
Y539499D01*
X445504D01*
X445004Y538999D01*
Y537999D01*
X445504Y537500D01*
X447004D01*
X446004D02*
X445004Y536500D01*
X444005Y539499D02*
X442005D01*
X443005D01*
Y536500D01*
X441006Y536000D02*
X439006D01*
X438007Y539499D02*
X436007D01*
X437007D01*
Y536500D01*
X435008Y539499D02*
X433008Y536500D01*
Y539499D02*
X435008Y536500D01*
X408500Y544999D02*
Y542500D01*
X408000Y542000D01*
X407000D01*
X406501Y542500D01*
Y544999D01*
X403502Y544499D02*
X404002Y544999D01*
X405001D01*
X405501Y544499D01*
Y543999D01*
X405001Y543500D01*
X404002D01*
X403502Y543000D01*
Y542500D01*
X404002Y542000D01*
X405001D01*
X405501Y542500D01*
X402502Y542000D02*
Y543999D01*
X401502Y544999D01*
X400503Y543999D01*
Y542000D01*
Y543500D01*
X402502D01*
X399503Y542000D02*
Y544999D01*
X398003D01*
X397504Y544499D01*
Y543500D01*
X398003Y543000D01*
X399503D01*
X398503D02*
X397504Y542000D01*
X396504Y544999D02*
X394504D01*
X395504D01*
Y542000D01*
X393505Y541500D02*
X391506D01*
X390506Y542000D02*
Y544999D01*
X389006D01*
X388507Y544499D01*
Y543500D01*
X389006Y543000D01*
X390506D01*
X389506D02*
X388507Y542000D01*
X387507Y544999D02*
X385507Y542000D01*
Y544999D02*
X387507Y542000D01*
X457000Y549999D02*
X458000D01*
X458500Y549499D01*
Y547500D01*
X458000Y547000D01*
X457000D01*
X456501Y547500D01*
Y549499D01*
X457000Y549999D01*
X455501Y547000D02*
Y549999D01*
X453502Y547000D01*
Y549999D01*
X452502Y546500D02*
X450503D01*
X447504Y549499D02*
X448003Y549999D01*
X449003D01*
X449503Y549499D01*
Y548999D01*
X449003Y548499D01*
X448003D01*
X447504Y548000D01*
Y547500D01*
X448003Y547000D01*
X449003D01*
X449503Y547500D01*
X446504Y549999D02*
Y547000D01*
X445504Y548000D01*
X444504Y547000D01*
Y549999D01*
X443505D02*
X442505D01*
X443005D01*
Y547000D01*
X443505D01*
X442505D01*
X441006Y549999D02*
X439006D01*
X440006D01*
Y547000D01*
X436007Y549499D02*
X436507Y549999D01*
X437507D01*
X438007Y549499D01*
Y547500D01*
X437507Y547000D01*
X436507D01*
X436007Y547500D01*
X435008Y549999D02*
Y547000D01*
Y548499D01*
X433008D01*
Y549999D01*
Y547000D01*
M02*
