M48
;Layer_Color=9474304
;FILE_FORMAT=2:5
INCH,LZ
;TYPE=PLATED
T1F00S00C0.01300
T2F00S00C0.02800
T3F00S00C0.03543
T4F00S00C0.03800
T5F00S00C0.04291
T6F00S00C0.06299
T7F00S00C0.12835
T8F00S00C0.16000
T9F00S00C0.18000
%
T01
X05045Y0194445
X04915Y020772
X049Y02485
X04835
X0559Y0255
Y026
X0575
Y0255
X05925Y025
X0615Y02375
X05745Y02925
X0554
X04295Y0289
X0434Y0279
X043Y0271
X04245
Y0264
X043
X0434
X04425Y02505
X0455
X04625
X04565Y02315
X0455Y02125
X04625
X04365Y0235
X04315
X0425Y0305047
X0445Y03415
X0465Y042
Y04275
X04285
X04275Y04325
X0559Y04315
X0575
Y046
X0566
X05575Y0405
X0545
Y04
Y0395
X0575
Y04
X05925Y039
X0615Y03775
X0575Y03425
X05625
X0566Y032
X0575
X05525Y0325
X0545
X0486Y03145
X0634494Y0325506
X06625Y032
Y046
X0634494Y0465506
X06345Y06055
X06625Y06
X05695Y05665
X0559Y0556
X05565Y054
X0554Y0535
X0574
Y054
X05925Y053
X0615Y05175
X0575Y04825
X05625
T02
X0655Y02975
X06625
X067Y02925
X0613Y02225
Y02125
X0414343Y03675
X04045
Y045
X0414343
X0613Y03625
Y03525
X0655Y04375
X06625
X067Y04325
Y05725
X06625Y05775
X0655
X0613Y05025
Y04925
T03
X05125Y028
Y029
Y03
Y031
X05225
Y03
Y029
Y028
X05325
Y029
Y03
Y031
X0405Y02675
Y02575
Y02475
Y02375
Y02275
Y02175
X05125Y032
Y033
Y034
Y035
Y036
Y037
Y038
Y039
Y04
Y041
Y042
Y043
X05225
Y042
Y041
Y04
Y039
Y038
Y037
Y036
Y035
Y034
Y033
Y032
X05325
Y033
Y034
Y035
Y036
Y037
Y038
Y039
Y04
Y041
Y042
Y043
T04
X05665Y0155
X0633
Y01845
X05665
T05
X0415Y0510689
Y0521594
Y05325
Y0543405
X0426181Y0548858
Y0537953
Y0527047
Y0516142
Y0505236
T06
X0693012Y0255807
Y0269193
X0731988
Y0255807
Y0395807
Y0409193
X0693012
Y0395807
Y0535807
Y0549193
X0731988
Y0535807
T07
X042059Y0477854
Y057624
T08
X03975Y0115
X07075Y06125
X03975
T09
X0695Y01275
X07575
Y01675
Y02075
X0695
Y01675
X076Y029
Y043
Y057
M30
