G04*
G04 #@! TF.GenerationSoftware,Altium Limited,Altium Designer,19.1.7 (138)*
G04*
G04 Layer_Physical_Order=2*
G04 Layer_Color=16711680*
%FSLAX25Y25*%
%MOIN*%
G70*
G01*
G75*
%ADD12C,0.00600*%
%ADD70C,0.02000*%
%ADD71C,0.18740*%
%ADD72R,0.06653X0.06653*%
%ADD73C,0.06653*%
%ADD74C,0.05906*%
%ADD75R,0.05906X0.05906*%
%ADD76C,0.06000*%
%ADD77R,0.06000X0.06000*%
%ADD78R,0.06000X0.06000*%
%ADD79C,0.08268*%
%ADD80R,0.08268X0.08268*%
%ADD81C,0.02400*%
%ADD82C,0.16000*%
%ADD83C,0.36000*%
%ADD84C,0.05000*%
G36*
X785000Y100000D02*
X382500D01*
Y627500D01*
X785000D01*
Y100000D01*
D02*
G37*
%LPC*%
G36*
X635000Y607644D02*
Y606000D01*
X636644D01*
X636572Y606358D01*
X636086Y607086D01*
X635358Y607572D01*
X635000Y607644D01*
D02*
G37*
G36*
X634000D02*
X633642Y607572D01*
X632914Y607086D01*
X632428Y606358D01*
X632356Y606000D01*
X634000D01*
Y607644D01*
D02*
G37*
G36*
X707500Y621142D02*
X705814Y620976D01*
X704193Y620484D01*
X702699Y619685D01*
X701390Y618610D01*
X700315Y617301D01*
X699516Y615807D01*
X699024Y614186D01*
X698858Y612500D01*
X699024Y610814D01*
X699516Y609193D01*
X700315Y607699D01*
X701390Y606390D01*
X702699Y605315D01*
X704193Y604516D01*
X705814Y604024D01*
X707500Y603858D01*
X709186Y604024D01*
X710807Y604516D01*
X712301Y605315D01*
X713611Y606390D01*
X714685Y607699D01*
X715484Y609193D01*
X715976Y610814D01*
X716142Y612500D01*
X715976Y614186D01*
X715484Y615807D01*
X714685Y617301D01*
X713611Y618610D01*
X712301Y619685D01*
X710807Y620484D01*
X709186Y620976D01*
X707500Y621142D01*
D02*
G37*
G36*
X397500D02*
X395814Y620976D01*
X394193Y620484D01*
X392699Y619685D01*
X391389Y618610D01*
X390315Y617301D01*
X389516Y615807D01*
X389024Y614186D01*
X388858Y612500D01*
X389024Y610814D01*
X389516Y609193D01*
X390315Y607699D01*
X391389Y606390D01*
X392699Y605315D01*
X394193Y604516D01*
X395814Y604024D01*
X397500Y603858D01*
X399186Y604024D01*
X400807Y604516D01*
X402301Y605315D01*
X403611Y606390D01*
X404685Y607699D01*
X405484Y609193D01*
X405976Y610814D01*
X406142Y612500D01*
X405976Y614186D01*
X405484Y615807D01*
X404685Y617301D01*
X403611Y618610D01*
X402301Y619685D01*
X400807Y620484D01*
X399186Y620976D01*
X397500Y621142D01*
D02*
G37*
G36*
X636644Y605000D02*
X635000D01*
Y603356D01*
X635358Y603428D01*
X636086Y603914D01*
X636572Y604642D01*
X636644Y605000D01*
D02*
G37*
G36*
X634000D02*
X632356D01*
X632428Y604642D01*
X632914Y603914D01*
X633642Y603428D01*
X634000Y603356D01*
Y605000D01*
D02*
G37*
G36*
X663000Y602144D02*
Y600500D01*
X664644D01*
X664572Y600858D01*
X664086Y601586D01*
X663358Y602072D01*
X663000Y602144D01*
D02*
G37*
G36*
X662000D02*
X661642Y602072D01*
X660914Y601586D01*
X660428Y600858D01*
X660356Y600500D01*
X662000D01*
Y602144D01*
D02*
G37*
G36*
X664644Y599500D02*
X663000D01*
Y597856D01*
X663358Y597928D01*
X664086Y598414D01*
X664572Y599142D01*
X664644Y599500D01*
D02*
G37*
G36*
X662000D02*
X660356D01*
X660428Y599142D01*
X660914Y598414D01*
X661642Y597928D01*
X662000Y597856D01*
Y599500D01*
D02*
G37*
G36*
X663000Y580964D02*
Y578000D01*
X665964D01*
X665910Y578414D01*
X665557Y579265D01*
X664996Y579996D01*
X664265Y580557D01*
X663414Y580910D01*
X663000Y580964D01*
D02*
G37*
G36*
X654500D02*
X654086Y580910D01*
X653235Y580557D01*
X652504Y579996D01*
X651943Y579265D01*
X651590Y578414D01*
X651536Y578000D01*
X654500D01*
Y580964D01*
D02*
G37*
G36*
X662000D02*
X661586Y580910D01*
X660735Y580557D01*
X660004Y579996D01*
X659443Y579265D01*
X659090Y578414D01*
X659003Y577754D01*
X659002Y577746D01*
X658498D01*
X658497Y577754D01*
X658410Y578414D01*
X658057Y579265D01*
X657496Y579996D01*
X656765Y580557D01*
X655914Y580910D01*
X655500Y580964D01*
Y577500D01*
Y574036D01*
X655914Y574090D01*
X656765Y574443D01*
X657496Y575004D01*
X658057Y575735D01*
X658410Y576586D01*
X658497Y577246D01*
X658498Y577254D01*
X659002D01*
X659003Y577246D01*
X659090Y576586D01*
X659443Y575735D01*
X660004Y575004D01*
X660735Y574443D01*
X661586Y574090D01*
X662000Y574036D01*
Y577500D01*
Y580964D01*
D02*
G37*
G36*
X421091Y586603D02*
Y576740D01*
X430953D01*
X430865Y577867D01*
X430484Y579455D01*
X429859Y580963D01*
X429006Y582354D01*
X427946Y583596D01*
X426705Y584656D01*
X425313Y585508D01*
X423805Y586133D01*
X422218Y586514D01*
X421091Y586603D01*
D02*
G37*
G36*
X420091D02*
X418963Y586514D01*
X417376Y586133D01*
X415868Y585508D01*
X414476Y584656D01*
X413235Y583596D01*
X412175Y582354D01*
X411322Y580963D01*
X410698Y579455D01*
X410317Y577867D01*
X410228Y576740D01*
X420091D01*
Y586603D01*
D02*
G37*
G36*
X665964Y577000D02*
X663000D01*
Y574036D01*
X663414Y574090D01*
X664265Y574443D01*
X664996Y575004D01*
X665557Y575735D01*
X665910Y576586D01*
X665964Y577000D01*
D02*
G37*
G36*
X654500D02*
X651536D01*
X651590Y576586D01*
X651943Y575735D01*
X652504Y575004D01*
X653235Y574443D01*
X654086Y574090D01*
X654500Y574036D01*
Y577000D01*
D02*
G37*
G36*
X670500Y575964D02*
Y573000D01*
X673464D01*
X673410Y573414D01*
X673057Y574265D01*
X672496Y574996D01*
X671765Y575557D01*
X670914Y575910D01*
X670500Y575964D01*
D02*
G37*
G36*
X669500D02*
X669086Y575910D01*
X668235Y575557D01*
X667504Y574996D01*
X666943Y574265D01*
X666590Y573414D01*
X666536Y573000D01*
X669500D01*
Y575964D01*
D02*
G37*
G36*
X673464Y572000D02*
X670500D01*
Y569036D01*
X670914Y569090D01*
X671765Y569443D01*
X672496Y570004D01*
X673057Y570735D01*
X673410Y571586D01*
X673464Y572000D01*
D02*
G37*
G36*
X669500D02*
X666536D01*
X666590Y571586D01*
X666943Y570735D01*
X667504Y570004D01*
X668235Y569443D01*
X669086Y569090D01*
X669500Y569036D01*
Y572000D01*
D02*
G37*
G36*
X430953Y575740D02*
X421091D01*
Y565877D01*
X422218Y565966D01*
X423805Y566347D01*
X425313Y566972D01*
X426705Y567825D01*
X427946Y568885D01*
X429006Y570126D01*
X429859Y571518D01*
X430484Y573026D01*
X430865Y574613D01*
X430953Y575740D01*
D02*
G37*
G36*
X420091D02*
X410228D01*
X410317Y574613D01*
X410698Y573026D01*
X411322Y571518D01*
X412175Y570126D01*
X413235Y568885D01*
X414476Y567825D01*
X415868Y566972D01*
X417376Y566347D01*
X418963Y565966D01*
X420091Y565877D01*
Y575740D01*
D02*
G37*
G36*
X569500Y568335D02*
X568798Y568196D01*
X568202Y567798D01*
X567804Y567202D01*
X567665Y566500D01*
X567754Y566052D01*
X559448Y557746D01*
X559000Y557835D01*
X558298Y557696D01*
X557702Y557298D01*
X557304Y556702D01*
X557165Y556000D01*
X557304Y555298D01*
X557702Y554702D01*
X558298Y554304D01*
X559000Y554165D01*
X559702Y554304D01*
X560298Y554702D01*
X560696Y555298D01*
X560835Y556000D01*
X560746Y556448D01*
X569052Y564754D01*
X569500Y564665D01*
X570202Y564804D01*
X570798Y565202D01*
X571196Y565798D01*
X571335Y566500D01*
X571196Y567202D01*
X570798Y567798D01*
X570202Y568196D01*
X569500Y568335D01*
D02*
G37*
G36*
X426181Y552819D02*
X425156Y552684D01*
X424201Y552288D01*
X423381Y551659D01*
X422751Y550839D01*
X422355Y549883D01*
X422221Y548858D01*
X422355Y547833D01*
X422751Y546878D01*
X423381Y546058D01*
X424201Y545428D01*
X425156Y545033D01*
X426181Y544898D01*
X427206Y545033D01*
X428161Y545428D01*
X428982Y546058D01*
X429611Y546878D01*
X430007Y547833D01*
X430142Y548858D01*
X430007Y549883D01*
X429611Y550839D01*
X428982Y551659D01*
X428161Y552288D01*
X427206Y552684D01*
X426181Y552819D01*
D02*
G37*
G36*
X574000Y541835D02*
X573298Y541696D01*
X572702Y541298D01*
X572448Y540918D01*
X558052D01*
X557798Y541298D01*
X557202Y541696D01*
X556500Y541835D01*
X555798Y541696D01*
X555202Y541298D01*
X554804Y540702D01*
X554665Y540000D01*
X554804Y539298D01*
X555202Y538702D01*
X555798Y538304D01*
X556500Y538165D01*
X557202Y538304D01*
X557798Y538702D01*
X558052Y539082D01*
X572448D01*
X572702Y538702D01*
X573298Y538304D01*
X574000Y538165D01*
X574702Y538304D01*
X575298Y538702D01*
X575696Y539298D01*
X575835Y540000D01*
X575696Y540702D01*
X575298Y541298D01*
X574702Y541696D01*
X574000Y541835D01*
D02*
G37*
G36*
X415000Y547366D02*
X413975Y547231D01*
X413020Y546836D01*
X412199Y546206D01*
X411570Y545386D01*
X411174Y544431D01*
X411039Y543405D01*
X411174Y542380D01*
X411570Y541425D01*
X412199Y540605D01*
X413020Y539976D01*
X413975Y539580D01*
X415000Y539445D01*
X416025Y539580D01*
X416980Y539976D01*
X417801Y540605D01*
X418430Y541425D01*
X418826Y542380D01*
X418961Y543405D01*
X418826Y544431D01*
X418430Y545386D01*
X417801Y546206D01*
X416980Y546836D01*
X416025Y547231D01*
X415000Y547366D01*
D02*
G37*
G36*
X574000Y536835D02*
X573298Y536696D01*
X572702Y536298D01*
X572448Y535918D01*
X555552D01*
X555298Y536298D01*
X554702Y536696D01*
X554000Y536835D01*
X553298Y536696D01*
X552702Y536298D01*
X552304Y535702D01*
X552165Y535000D01*
X552304Y534298D01*
X552702Y533702D01*
X553298Y533304D01*
X554000Y533165D01*
X554702Y533304D01*
X555298Y533702D01*
X555552Y534082D01*
X572448D01*
X572702Y533702D01*
X573298Y533304D01*
X574000Y533165D01*
X574702Y533304D01*
X575298Y533702D01*
X575696Y534298D01*
X575835Y535000D01*
X575696Y535702D01*
X575298Y536298D01*
X574702Y536696D01*
X574000Y536835D01*
D02*
G37*
G36*
X426181Y541913D02*
X425156Y541778D01*
X424201Y541383D01*
X423381Y540753D01*
X422751Y539933D01*
X422355Y538978D01*
X422221Y537953D01*
X422355Y536928D01*
X422751Y535972D01*
X423381Y535152D01*
X424201Y534523D01*
X425156Y534127D01*
X426181Y533992D01*
X427206Y534127D01*
X428161Y534523D01*
X428982Y535152D01*
X429611Y535972D01*
X430007Y536928D01*
X430142Y537953D01*
X430007Y538978D01*
X429611Y539933D01*
X428982Y540753D01*
X428161Y541383D01*
X427206Y541778D01*
X426181Y541913D01*
D02*
G37*
G36*
X699300Y554600D02*
X687300D01*
Y530600D01*
X699300D01*
Y554600D01*
D02*
G37*
G36*
X780000Y590000D02*
X750000D01*
X735500Y575500D01*
Y564000D01*
X726000Y554500D01*
Y530500D01*
X738000D01*
X754000Y546500D01*
X774500D01*
X780000Y552000D01*
Y590000D01*
D02*
G37*
G36*
X593000Y532144D02*
Y530500D01*
X594644D01*
X594572Y530858D01*
X594086Y531586D01*
X593358Y532072D01*
X593000Y532144D01*
D02*
G37*
G36*
X592000D02*
X591642Y532072D01*
X590914Y531586D01*
X590428Y530858D01*
X590356Y530500D01*
X592000D01*
Y532144D01*
D02*
G37*
G36*
X415000Y536461D02*
X413975Y536326D01*
X413020Y535930D01*
X412199Y535301D01*
X411570Y534480D01*
X411174Y533525D01*
X411039Y532500D01*
X411174Y531475D01*
X411570Y530520D01*
X412199Y529699D01*
X413020Y529070D01*
X413975Y528674D01*
X415000Y528539D01*
X416025Y528674D01*
X416980Y529070D01*
X417801Y529699D01*
X418430Y530520D01*
X418826Y531475D01*
X418961Y532500D01*
X418826Y533525D01*
X418430Y534480D01*
X417801Y535301D01*
X416980Y535930D01*
X416025Y536326D01*
X415000Y536461D01*
D02*
G37*
G36*
X594644Y529500D02*
X593000D01*
Y527856D01*
X593358Y527928D01*
X594086Y528414D01*
X594572Y529142D01*
X594644Y529500D01*
D02*
G37*
G36*
X592000D02*
X590356D01*
X590428Y529142D01*
X590914Y528414D01*
X591642Y527928D01*
X592000Y527856D01*
Y529500D01*
D02*
G37*
G36*
X426681Y531346D02*
Y527547D01*
X430479D01*
X430397Y528177D01*
X429960Y529229D01*
X429267Y530133D01*
X428363Y530827D01*
X427311Y531263D01*
X426681Y531346D01*
D02*
G37*
G36*
X425681Y531346D02*
X425052Y531263D01*
X423999Y530827D01*
X423095Y530133D01*
X422402Y529229D01*
X421966Y528177D01*
X421883Y527547D01*
X425681D01*
Y531346D01*
D02*
G37*
G36*
X430479Y526547D02*
X426681D01*
Y522749D01*
X427311Y522832D01*
X428363Y523268D01*
X429267Y523961D01*
X429960Y524865D01*
X430397Y525918D01*
X430479Y526547D01*
D02*
G37*
G36*
X425681D02*
X421883D01*
X421966Y525918D01*
X422402Y524865D01*
X423095Y523961D01*
X423999Y523268D01*
X425052Y522832D01*
X425681Y522749D01*
Y526547D01*
D02*
G37*
G36*
X415500Y525893D02*
Y522094D01*
X419298D01*
X419215Y522724D01*
X418779Y523776D01*
X418086Y524680D01*
X417182Y525374D01*
X416129Y525810D01*
X415500Y525893D01*
D02*
G37*
G36*
X414500Y525893D02*
X413870Y525810D01*
X412818Y525374D01*
X411914Y524680D01*
X411221Y523776D01*
X410785Y522724D01*
X410702Y522094D01*
X414500D01*
Y525893D01*
D02*
G37*
G36*
X615500Y519644D02*
Y518000D01*
X617144D01*
X617072Y518358D01*
X616586Y519086D01*
X615858Y519572D01*
X615500Y519644D01*
D02*
G37*
G36*
X614500D02*
X614142Y519572D01*
X613414Y519086D01*
X612928Y518358D01*
X612856Y518000D01*
X614500D01*
Y519644D01*
D02*
G37*
G36*
X419298Y521095D02*
X415500D01*
Y517296D01*
X416129Y517379D01*
X417182Y517815D01*
X418086Y518509D01*
X418779Y519412D01*
X419215Y520465D01*
X419298Y521095D01*
D02*
G37*
G36*
X414500D02*
X410702D01*
X410785Y520465D01*
X411221Y519412D01*
X411914Y518509D01*
X412818Y517815D01*
X413870Y517379D01*
X414500Y517296D01*
Y521095D01*
D02*
G37*
G36*
X426681Y520440D02*
Y516642D01*
X430479D01*
X430397Y517271D01*
X429960Y518324D01*
X429267Y519228D01*
X428363Y519921D01*
X427311Y520357D01*
X426681Y520440D01*
D02*
G37*
G36*
X425681Y520440D02*
X425052Y520357D01*
X423999Y519921D01*
X423095Y519228D01*
X422402Y518324D01*
X421966Y517271D01*
X421883Y516642D01*
X425681D01*
Y520440D01*
D02*
G37*
G36*
X617144Y517000D02*
X615500D01*
Y515356D01*
X615858Y515428D01*
X616586Y515914D01*
X617072Y516642D01*
X617144Y517000D01*
D02*
G37*
G36*
X614500D02*
X612856D01*
X612928Y516642D01*
X613414Y515914D01*
X614142Y515428D01*
X614500Y515356D01*
Y517000D01*
D02*
G37*
G36*
X430479Y515642D02*
X426681D01*
Y511843D01*
X427311Y511926D01*
X428363Y512362D01*
X429267Y513056D01*
X429960Y513960D01*
X430397Y515012D01*
X430479Y515642D01*
D02*
G37*
G36*
X425681D02*
X421883D01*
X421966Y515012D01*
X422402Y513960D01*
X423095Y513056D01*
X423999Y512362D01*
X425052Y511926D01*
X425681Y511843D01*
Y515642D01*
D02*
G37*
G36*
X415000Y514650D02*
X413975Y514515D01*
X413020Y514119D01*
X412199Y513490D01*
X411570Y512669D01*
X411174Y511714D01*
X411039Y510689D01*
X411174Y509664D01*
X411570Y508709D01*
X412199Y507888D01*
X413020Y507259D01*
X413975Y506863D01*
X415000Y506728D01*
X416025Y506863D01*
X416980Y507259D01*
X417801Y507888D01*
X418430Y508709D01*
X418826Y509664D01*
X418961Y510689D01*
X418826Y511714D01*
X418430Y512669D01*
X417801Y513490D01*
X416980Y514119D01*
X416025Y514515D01*
X415000Y514650D01*
D02*
G37*
G36*
X613500Y505964D02*
Y503000D01*
X616464D01*
X616410Y503414D01*
X616057Y504265D01*
X615496Y504996D01*
X614765Y505557D01*
X613914Y505910D01*
X613500Y505964D01*
D02*
G37*
G36*
X612500D02*
X612086Y505910D01*
X611235Y505557D01*
X610504Y504996D01*
X609943Y504265D01*
X609590Y503414D01*
X609536Y503000D01*
X612500D01*
Y505964D01*
D02*
G37*
G36*
X430108Y509163D02*
X422254D01*
Y501309D01*
X430108D01*
Y509163D01*
D02*
G37*
G36*
X616464Y502000D02*
X613500D01*
Y499036D01*
X613914Y499090D01*
X614765Y499443D01*
X615496Y500004D01*
X616057Y500735D01*
X616410Y501586D01*
X616464Y502000D01*
D02*
G37*
G36*
X612500D02*
X609536D01*
X609590Y501586D01*
X609943Y500735D01*
X610504Y500004D01*
X611235Y499443D01*
X612086Y499090D01*
X612500Y499036D01*
Y502000D01*
D02*
G37*
G36*
X613500Y495964D02*
Y493000D01*
X616464D01*
X616410Y493414D01*
X616057Y494265D01*
X615496Y494996D01*
X614765Y495557D01*
X613914Y495910D01*
X613500Y495964D01*
D02*
G37*
G36*
X612500D02*
X612086Y495910D01*
X611235Y495557D01*
X610504Y494996D01*
X609943Y494265D01*
X609590Y493414D01*
X609536Y493000D01*
X612500D01*
Y495964D01*
D02*
G37*
G36*
X616464Y492000D02*
X613500D01*
Y489036D01*
X613914Y489090D01*
X614765Y489443D01*
X615496Y490004D01*
X616057Y490735D01*
X616410Y491586D01*
X616464Y492000D01*
D02*
G37*
G36*
X612500D02*
X609536D01*
X609590Y491586D01*
X609943Y490735D01*
X610504Y490004D01*
X611235Y489443D01*
X612086Y489090D01*
X612500Y489036D01*
Y492000D01*
D02*
G37*
G36*
X575000Y484335D02*
X574298Y484196D01*
X574202Y484131D01*
X563298D01*
X563202Y484196D01*
X562500Y484335D01*
X561798Y484196D01*
X561202Y483798D01*
X560804Y483202D01*
X560665Y482500D01*
X560804Y481798D01*
X561202Y481202D01*
X561798Y480804D01*
X562500Y480665D01*
X563202Y480804D01*
X563298Y480869D01*
X574202D01*
X574298Y480804D01*
X575000Y480665D01*
X575702Y480804D01*
X576298Y481202D01*
X576696Y481798D01*
X576835Y482500D01*
X576696Y483202D01*
X576298Y483798D01*
X575702Y484196D01*
X575000Y484335D01*
D02*
G37*
G36*
X421091Y488217D02*
Y478354D01*
X430953D01*
X430865Y479482D01*
X430484Y481069D01*
X429859Y482577D01*
X429006Y483969D01*
X427946Y485210D01*
X426705Y486270D01*
X425313Y487123D01*
X423805Y487747D01*
X422218Y488128D01*
X421091Y488217D01*
D02*
G37*
G36*
X420090D02*
X418963Y488128D01*
X417376Y487747D01*
X415868Y487123D01*
X414476Y486270D01*
X413235Y485210D01*
X412175Y483969D01*
X411322Y482577D01*
X410698Y481069D01*
X410317Y479482D01*
X410228Y478354D01*
X420090D01*
Y488217D01*
D02*
G37*
G36*
Y477354D02*
X410228D01*
X410317Y476227D01*
X410698Y474640D01*
X411322Y473132D01*
X412175Y471740D01*
X413235Y470499D01*
X414476Y469439D01*
X415868Y468586D01*
X417376Y467961D01*
X418963Y467580D01*
X420090Y467491D01*
Y477354D01*
D02*
G37*
G36*
X430953D02*
X421091D01*
Y467491D01*
X422218Y467580D01*
X423805Y467961D01*
X425313Y468586D01*
X426705Y469439D01*
X427946Y470499D01*
X429006Y471740D01*
X429859Y473132D01*
X430484Y474640D01*
X430865Y476227D01*
X430953Y477354D01*
D02*
G37*
G36*
X634994Y467650D02*
Y466006D01*
X636638D01*
X636566Y466364D01*
X636080Y467092D01*
X635353Y467578D01*
X634994Y467650D01*
D02*
G37*
G36*
X633994D02*
X633636Y467578D01*
X632908Y467092D01*
X632422Y466364D01*
X632350Y466006D01*
X633994D01*
Y467650D01*
D02*
G37*
G36*
X636638Y465006D02*
X634994D01*
Y463362D01*
X635353Y463434D01*
X636080Y463920D01*
X636566Y464647D01*
X636638Y465006D01*
D02*
G37*
G36*
X633994D02*
X632350D01*
X632422Y464647D01*
X632908Y463920D01*
X633636Y463434D01*
X633994Y463362D01*
Y465006D01*
D02*
G37*
G36*
X575000Y461835D02*
X574298Y461696D01*
X574202Y461631D01*
X566798D01*
X566702Y461696D01*
X566000Y461835D01*
X565298Y461696D01*
X564702Y461298D01*
X564304Y460702D01*
X564165Y460000D01*
X564304Y459298D01*
X564702Y458702D01*
X565298Y458304D01*
X566000Y458165D01*
X566702Y458304D01*
X566798Y458369D01*
X574202D01*
X574298Y458304D01*
X575000Y458165D01*
X575702Y458304D01*
X576298Y458702D01*
X576696Y459298D01*
X576835Y460000D01*
X576696Y460702D01*
X576298Y461298D01*
X575702Y461696D01*
X575000Y461835D01*
D02*
G37*
G36*
X663000Y462144D02*
Y460500D01*
X664644D01*
X664572Y460858D01*
X664086Y461586D01*
X663358Y462072D01*
X663000Y462144D01*
D02*
G37*
G36*
X662000D02*
X661642Y462072D01*
X660914Y461586D01*
X660428Y460858D01*
X660356Y460500D01*
X662000D01*
Y462144D01*
D02*
G37*
G36*
X664644Y459500D02*
X663000D01*
Y457856D01*
X663358Y457928D01*
X664086Y458414D01*
X664572Y459142D01*
X664644Y459500D01*
D02*
G37*
G36*
X662000D02*
X660356D01*
X660428Y459142D01*
X660914Y458414D01*
X661642Y457928D01*
X662000Y457856D01*
Y459500D01*
D02*
G37*
G36*
X405000Y453969D02*
Y450500D01*
X408469D01*
X408397Y451044D01*
X407994Y452017D01*
X407353Y452853D01*
X406517Y453494D01*
X405544Y453897D01*
X405000Y453969D01*
D02*
G37*
G36*
X404000Y453969D02*
X403456Y453897D01*
X402483Y453494D01*
X401647Y452853D01*
X401006Y452017D01*
X400603Y451044D01*
X400531Y450500D01*
X404000D01*
Y453969D01*
D02*
G37*
G36*
X417943Y453600D02*
X410743D01*
Y446400D01*
X417943D01*
Y453600D01*
D02*
G37*
G36*
X408469Y449500D02*
X405000D01*
Y446031D01*
X405544Y446103D01*
X406517Y446506D01*
X407353Y447147D01*
X407994Y447983D01*
X408397Y448956D01*
X408469Y449500D01*
D02*
G37*
G36*
X404000D02*
X400531D01*
X400603Y448956D01*
X401006Y447983D01*
X401647Y447147D01*
X402483Y446506D01*
X403456Y446103D01*
X404000Y446031D01*
Y449500D01*
D02*
G37*
G36*
X663000Y440964D02*
Y438000D01*
X665964D01*
X665910Y438414D01*
X665557Y439265D01*
X664996Y439996D01*
X664265Y440557D01*
X663414Y440910D01*
X663000Y440964D01*
D02*
G37*
G36*
X654500D02*
X654086Y440910D01*
X653235Y440557D01*
X652504Y439996D01*
X651943Y439265D01*
X651590Y438414D01*
X651536Y438000D01*
X654500D01*
Y440964D01*
D02*
G37*
G36*
X662000D02*
X661586Y440910D01*
X660735Y440557D01*
X660004Y439996D01*
X659443Y439265D01*
X659090Y438414D01*
X659003Y437754D01*
X659002Y437746D01*
X658498D01*
X658497Y437754D01*
X658410Y438414D01*
X658057Y439265D01*
X657496Y439996D01*
X656765Y440557D01*
X655914Y440910D01*
X655500Y440964D01*
Y437500D01*
Y434036D01*
X655914Y434090D01*
X656765Y434443D01*
X657496Y435004D01*
X658057Y435735D01*
X658410Y436586D01*
X658497Y437246D01*
X658498Y437254D01*
X659002D01*
X659003Y437246D01*
X659090Y436586D01*
X659443Y435735D01*
X660004Y435004D01*
X660735Y434443D01*
X661586Y434090D01*
X662000Y434036D01*
Y437500D01*
Y440964D01*
D02*
G37*
G36*
X665964Y437000D02*
X663000D01*
Y434036D01*
X663414Y434090D01*
X664265Y434443D01*
X664996Y435004D01*
X665557Y435735D01*
X665910Y436586D01*
X665964Y437000D01*
D02*
G37*
G36*
X654500D02*
X651536D01*
X651590Y436586D01*
X651943Y435735D01*
X652504Y435004D01*
X653235Y434443D01*
X654086Y434090D01*
X654500Y434036D01*
Y437000D01*
D02*
G37*
G36*
X670500Y435964D02*
Y433000D01*
X673464D01*
X673410Y433414D01*
X673057Y434265D01*
X672496Y434996D01*
X671765Y435557D01*
X670914Y435910D01*
X670500Y435964D01*
D02*
G37*
G36*
X669500D02*
X669086Y435910D01*
X668235Y435557D01*
X667504Y434996D01*
X666943Y434265D01*
X666590Y433414D01*
X666536Y433000D01*
X669500D01*
Y435964D01*
D02*
G37*
G36*
X428000Y434644D02*
Y433000D01*
X429644D01*
X429572Y433358D01*
X429086Y434086D01*
X428358Y434572D01*
X428000Y434644D01*
D02*
G37*
G36*
X427000D02*
X426642Y434572D01*
X425914Y434086D01*
X425428Y433358D01*
X425356Y433000D01*
X427000D01*
Y434644D01*
D02*
G37*
G36*
X575000Y433335D02*
X574298Y433196D01*
X573702Y432798D01*
X573448Y432418D01*
X560552D01*
X560298Y432798D01*
X559702Y433196D01*
X559000Y433335D01*
X558298Y433196D01*
X557702Y432798D01*
X557304Y432202D01*
X557165Y431500D01*
X557304Y430798D01*
X557702Y430202D01*
X558298Y429804D01*
X559000Y429665D01*
X559702Y429804D01*
X560298Y430202D01*
X560552Y430582D01*
X573448D01*
X573702Y430202D01*
X574298Y429804D01*
X575000Y429665D01*
X575702Y429804D01*
X576298Y430202D01*
X576696Y430798D01*
X576835Y431500D01*
X576696Y432202D01*
X576298Y432798D01*
X575702Y433196D01*
X575000Y433335D01*
D02*
G37*
G36*
X522500Y433583D02*
X521572Y433461D01*
X520708Y433103D01*
X519966Y432534D01*
X519397Y431792D01*
X519039Y430928D01*
X519037Y430918D01*
X515963D01*
X515961Y430928D01*
X515603Y431792D01*
X515034Y432534D01*
X514292Y433103D01*
X513427Y433461D01*
X512500Y433583D01*
X511573Y433461D01*
X510708Y433103D01*
X509966Y432534D01*
X509397Y431792D01*
X509039Y430928D01*
X508917Y430000D01*
X509039Y429073D01*
X509397Y428208D01*
X509966Y427466D01*
X510708Y426897D01*
X511573Y426539D01*
X512500Y426417D01*
X513427Y426539D01*
X514292Y426897D01*
X515034Y427466D01*
X515603Y428208D01*
X515961Y429073D01*
X515963Y429082D01*
X519037D01*
X519039Y429073D01*
X519397Y428208D01*
X519966Y427466D01*
X520708Y426897D01*
X521572Y426539D01*
X522500Y426417D01*
X523427Y426539D01*
X524292Y426897D01*
X525034Y427466D01*
X525603Y428208D01*
X525961Y429073D01*
X526083Y430000D01*
X525961Y430928D01*
X525603Y431792D01*
X525034Y432534D01*
X524292Y433103D01*
X523427Y433461D01*
X522500Y433583D01*
D02*
G37*
G36*
X533000Y433921D02*
Y430500D01*
X536421D01*
X536351Y431032D01*
X535953Y431993D01*
X535319Y432819D01*
X534493Y433453D01*
X533532Y433851D01*
X533000Y433921D01*
D02*
G37*
G36*
X532000D02*
X531468Y433851D01*
X530507Y433453D01*
X529681Y432819D01*
X529047Y431993D01*
X528649Y431032D01*
X528579Y430500D01*
X532000D01*
Y433921D01*
D02*
G37*
G36*
X429644Y432000D02*
X428000D01*
Y430356D01*
X428358Y430428D01*
X429086Y430914D01*
X429572Y431642D01*
X429644Y432000D01*
D02*
G37*
G36*
X427000D02*
X425356D01*
X425428Y431642D01*
X425914Y430914D01*
X426642Y430428D01*
X427000Y430356D01*
Y432000D01*
D02*
G37*
G36*
X673464D02*
X670500D01*
Y429036D01*
X670914Y429090D01*
X671765Y429443D01*
X672496Y430004D01*
X673057Y430735D01*
X673410Y431586D01*
X673464Y432000D01*
D02*
G37*
G36*
X669500D02*
X666536D01*
X666590Y431586D01*
X666943Y430735D01*
X667504Y430004D01*
X668235Y429443D01*
X669086Y429090D01*
X669500Y429036D01*
Y432000D01*
D02*
G37*
G36*
X465500Y429644D02*
Y428000D01*
X467144D01*
X467072Y428358D01*
X466586Y429086D01*
X465858Y429572D01*
X465500Y429644D01*
D02*
G37*
G36*
X464500D02*
X464142Y429572D01*
X463414Y429086D01*
X462928Y428358D01*
X462856Y428000D01*
X464500D01*
Y429644D01*
D02*
G37*
G36*
X429000D02*
Y428000D01*
X430644D01*
X430572Y428358D01*
X430086Y429086D01*
X429358Y429572D01*
X429000Y429644D01*
D02*
G37*
G36*
X428000D02*
X427642Y429572D01*
X426914Y429086D01*
X426428Y428358D01*
X426356Y428000D01*
X428000D01*
Y429644D01*
D02*
G37*
G36*
X536421Y429500D02*
X533000D01*
Y426079D01*
X533532Y426149D01*
X534493Y426547D01*
X535319Y427181D01*
X535953Y428007D01*
X536351Y428968D01*
X536421Y429500D01*
D02*
G37*
G36*
X532000D02*
X528579D01*
X528649Y428968D01*
X529047Y428007D01*
X529681Y427181D01*
X530507Y426547D01*
X531468Y426149D01*
X532000Y426079D01*
Y429500D01*
D02*
G37*
G36*
X467144Y427000D02*
X465500D01*
Y425356D01*
X465858Y425428D01*
X466586Y425914D01*
X467072Y426642D01*
X467144Y427000D01*
D02*
G37*
G36*
X464500D02*
X462856D01*
X462928Y426642D01*
X463414Y425914D01*
X464142Y425428D01*
X464500Y425356D01*
Y427000D01*
D02*
G37*
G36*
X430644D02*
X429000D01*
Y425356D01*
X429358Y425428D01*
X430086Y425914D01*
X430572Y426642D01*
X430644Y427000D01*
D02*
G37*
G36*
X428000D02*
X426356D01*
X426428Y426642D01*
X426914Y425914D01*
X427642Y425428D01*
X428000Y425356D01*
Y427000D01*
D02*
G37*
G36*
X522500Y423583D02*
X521572Y423461D01*
X520708Y423103D01*
X519966Y422534D01*
X519397Y421792D01*
X519039Y420927D01*
X519037Y420918D01*
X515963D01*
X515961Y420927D01*
X515603Y421792D01*
X515034Y422534D01*
X514292Y423103D01*
X513427Y423461D01*
X512500Y423583D01*
X511573Y423461D01*
X510708Y423103D01*
X509966Y422534D01*
X509397Y421792D01*
X509039Y420927D01*
X508917Y420000D01*
X509039Y419072D01*
X509397Y418208D01*
X509966Y417466D01*
X510708Y416897D01*
X511573Y416539D01*
X512500Y416417D01*
X513427Y416539D01*
X514292Y416897D01*
X515034Y417466D01*
X515603Y418208D01*
X515961Y419072D01*
X515963Y419082D01*
X519037D01*
X519039Y419072D01*
X519397Y418208D01*
X519966Y417466D01*
X520708Y416897D01*
X521572Y416539D01*
X522500Y416417D01*
X523427Y416539D01*
X524292Y416897D01*
X525034Y417466D01*
X525603Y418208D01*
X525961Y419072D01*
X526083Y420000D01*
X525961Y420927D01*
X525603Y421792D01*
X525034Y422534D01*
X524292Y423103D01*
X523427Y423461D01*
X522500Y423583D01*
D02*
G37*
G36*
X533000Y423921D02*
Y420500D01*
X536421D01*
X536351Y421032D01*
X535953Y421993D01*
X535319Y422819D01*
X534493Y423453D01*
X533532Y423851D01*
X533000Y423921D01*
D02*
G37*
G36*
X465500Y422144D02*
Y420500D01*
X467144D01*
X467072Y420858D01*
X466586Y421586D01*
X465858Y422072D01*
X465500Y422144D01*
D02*
G37*
G36*
X464500D02*
X464142Y422072D01*
X463414Y421586D01*
X462928Y420858D01*
X462856Y420500D01*
X464500D01*
Y422144D01*
D02*
G37*
G36*
X532000Y423921D02*
X531468Y423851D01*
X530507Y423453D01*
X529681Y422819D01*
X529047Y421993D01*
X528649Y421032D01*
X528579Y420500D01*
X532000D01*
Y423921D01*
D02*
G37*
G36*
X467144Y419500D02*
X465500D01*
Y417856D01*
X465858Y417928D01*
X466586Y418414D01*
X467072Y419142D01*
X467144Y419500D01*
D02*
G37*
G36*
X464500D02*
X462856D01*
X462928Y419142D01*
X463414Y418414D01*
X464142Y417928D01*
X464500Y417856D01*
Y419500D01*
D02*
G37*
G36*
X536421D02*
X533000D01*
Y416079D01*
X533532Y416149D01*
X534493Y416547D01*
X535319Y417181D01*
X535953Y418007D01*
X536351Y418968D01*
X536421Y419500D01*
D02*
G37*
G36*
X532000D02*
X528579D01*
X528649Y418968D01*
X529047Y418007D01*
X529681Y417181D01*
X530507Y416547D01*
X531468Y416149D01*
X532000Y416079D01*
Y419500D01*
D02*
G37*
G36*
X522500Y413583D02*
X521572Y413461D01*
X520708Y413103D01*
X519966Y412534D01*
X519397Y411792D01*
X519039Y410927D01*
X519037Y410918D01*
X515963D01*
X515961Y410927D01*
X515603Y411792D01*
X515034Y412534D01*
X514292Y413103D01*
X513427Y413461D01*
X512500Y413583D01*
X511573Y413461D01*
X510708Y413103D01*
X509966Y412534D01*
X509397Y411792D01*
X509039Y410927D01*
X508917Y410000D01*
X509039Y409073D01*
X509397Y408208D01*
X509966Y407466D01*
X510708Y406897D01*
X511573Y406539D01*
X512500Y406417D01*
X513427Y406539D01*
X514292Y406897D01*
X515034Y407466D01*
X515603Y408208D01*
X515961Y409073D01*
X515963Y409082D01*
X519037D01*
X519039Y409073D01*
X519397Y408208D01*
X519966Y407466D01*
X520708Y406897D01*
X521572Y406539D01*
X522500Y406417D01*
X523427Y406539D01*
X524292Y406897D01*
X525034Y407466D01*
X525603Y408208D01*
X525961Y409073D01*
X526083Y410000D01*
X525961Y410927D01*
X525603Y411792D01*
X525034Y412534D01*
X524292Y413103D01*
X523427Y413461D01*
X522500Y413583D01*
D02*
G37*
G36*
X533000Y413921D02*
Y410500D01*
X536421D01*
X536351Y411032D01*
X535953Y411993D01*
X535319Y412819D01*
X534493Y413453D01*
X533532Y413851D01*
X533000Y413921D01*
D02*
G37*
G36*
X532000D02*
X531468Y413851D01*
X530507Y413453D01*
X529681Y412819D01*
X529047Y411993D01*
X528649Y411032D01*
X528579Y410500D01*
X532000D01*
Y413921D01*
D02*
G37*
G36*
X438500Y429000D02*
X436500Y429000D01*
Y423500D01*
X434000Y421000D01*
X413500D01*
Y408500D01*
X441500D01*
X449665Y416665D01*
Y423335D01*
X448500Y424500D01*
X439500D01*
X438500Y425500D01*
Y429000D01*
D02*
G37*
G36*
X536421Y409500D02*
X533000D01*
Y406079D01*
X533532Y406149D01*
X534493Y406547D01*
X535319Y407181D01*
X535953Y408007D01*
X536351Y408968D01*
X536421Y409500D01*
D02*
G37*
G36*
X532000D02*
X528579D01*
X528649Y408968D01*
X529047Y408007D01*
X529681Y407181D01*
X530507Y406547D01*
X531468Y406149D01*
X532000Y406079D01*
Y409500D01*
D02*
G37*
G36*
X557500Y406835D02*
X556798Y406696D01*
X556202Y406298D01*
X555948Y405918D01*
X546552D01*
X546298Y406298D01*
X545702Y406696D01*
X545000Y406835D01*
X544298Y406696D01*
X543702Y406298D01*
X543304Y405702D01*
X543165Y405000D01*
X543304Y404298D01*
X543702Y403702D01*
X544298Y403304D01*
X545000Y403165D01*
X545702Y403304D01*
X546298Y403702D01*
X546552Y404082D01*
X555948D01*
X556202Y403702D01*
X556798Y403304D01*
X557500Y403165D01*
X558202Y403304D01*
X558798Y403702D01*
X559196Y404298D01*
X559335Y405000D01*
X559196Y405702D01*
X558798Y406298D01*
X558202Y406696D01*
X557500Y406835D01*
D02*
G37*
G36*
X575000Y401835D02*
X574298Y401696D01*
X573702Y401298D01*
X573448Y400918D01*
X546552D01*
X546298Y401298D01*
X545702Y401696D01*
X545000Y401835D01*
X544298Y401696D01*
X543702Y401298D01*
X543304Y400702D01*
X543165Y400000D01*
X543304Y399298D01*
X543702Y398702D01*
X544298Y398304D01*
X545000Y398165D01*
X545702Y398304D01*
X546298Y398702D01*
X546552Y399082D01*
X573448D01*
X573702Y398702D01*
X574298Y398304D01*
X575000Y398165D01*
X575702Y398304D01*
X576298Y398702D01*
X576696Y399298D01*
X576835Y400000D01*
X576696Y400702D01*
X576298Y401298D01*
X575702Y401696D01*
X575000Y401835D01*
D02*
G37*
G36*
X522500Y403583D02*
X521572Y403461D01*
X520708Y403103D01*
X519966Y402534D01*
X519397Y401792D01*
X519039Y400927D01*
X519037Y400918D01*
X515963D01*
X515961Y400927D01*
X515603Y401792D01*
X515034Y402534D01*
X514292Y403103D01*
X513427Y403461D01*
X512500Y403583D01*
X511573Y403461D01*
X510708Y403103D01*
X509966Y402534D01*
X509397Y401792D01*
X509039Y400927D01*
X508917Y400000D01*
X509039Y399073D01*
X509397Y398208D01*
X509966Y397466D01*
X510708Y396897D01*
X511573Y396539D01*
X512500Y396417D01*
X513427Y396539D01*
X514292Y396897D01*
X515034Y397466D01*
X515603Y398208D01*
X515961Y399073D01*
X515963Y399082D01*
X519037D01*
X519039Y399073D01*
X519397Y398208D01*
X519966Y397466D01*
X520708Y396897D01*
X521572Y396539D01*
X522500Y396417D01*
X523427Y396539D01*
X524292Y396897D01*
X525034Y397466D01*
X525603Y398208D01*
X525961Y399073D01*
X526083Y400000D01*
X525961Y400927D01*
X525603Y401792D01*
X525034Y402534D01*
X524292Y403103D01*
X523427Y403461D01*
X522500Y403583D01*
D02*
G37*
G36*
X533000Y403921D02*
Y400500D01*
X536421D01*
X536351Y401032D01*
X535953Y401993D01*
X535319Y402819D01*
X534493Y403453D01*
X533532Y403851D01*
X533000Y403921D01*
D02*
G37*
G36*
X532000D02*
X531468Y403851D01*
X530507Y403453D01*
X529681Y402819D01*
X529047Y401993D01*
X528649Y401032D01*
X528579Y400500D01*
X532000D01*
Y403921D01*
D02*
G37*
G36*
X536421Y399500D02*
X533000D01*
Y396079D01*
X533532Y396149D01*
X534493Y396547D01*
X535319Y397181D01*
X535953Y398007D01*
X536351Y398968D01*
X536421Y399500D01*
D02*
G37*
G36*
X532000D02*
X528579D01*
X528649Y398968D01*
X529047Y398007D01*
X529681Y397181D01*
X530507Y396547D01*
X531468Y396149D01*
X532000Y396079D01*
Y399500D01*
D02*
G37*
G36*
X575000Y396835D02*
X574298Y396696D01*
X573702Y396298D01*
X573448Y395918D01*
X546552D01*
X546298Y396298D01*
X545702Y396696D01*
X545000Y396835D01*
X544298Y396696D01*
X543702Y396298D01*
X543304Y395702D01*
X543165Y395000D01*
X543304Y394298D01*
X543702Y393702D01*
X544298Y393304D01*
X545000Y393165D01*
X545702Y393304D01*
X546298Y393702D01*
X546552Y394082D01*
X573448D01*
X573702Y393702D01*
X574298Y393304D01*
X575000Y393165D01*
X575702Y393304D01*
X576298Y393702D01*
X576696Y394298D01*
X576835Y395000D01*
X576696Y395702D01*
X576298Y396298D01*
X575702Y396696D01*
X575000Y396835D01*
D02*
G37*
G36*
X522500Y393583D02*
X521572Y393461D01*
X520708Y393103D01*
X519966Y392534D01*
X519397Y391792D01*
X519039Y390927D01*
X519037Y390918D01*
X515963D01*
X515961Y390927D01*
X515603Y391792D01*
X515034Y392534D01*
X514292Y393103D01*
X513427Y393461D01*
X512500Y393583D01*
X511573Y393461D01*
X510708Y393103D01*
X509966Y392534D01*
X509397Y391792D01*
X509039Y390927D01*
X508917Y390000D01*
X509039Y389073D01*
X509397Y388208D01*
X509966Y387466D01*
X510708Y386897D01*
X511573Y386539D01*
X512500Y386417D01*
X513427Y386539D01*
X514292Y386897D01*
X515034Y387466D01*
X515603Y388208D01*
X515961Y389073D01*
X515963Y389082D01*
X519037D01*
X519039Y389073D01*
X519397Y388208D01*
X519966Y387466D01*
X520708Y386897D01*
X521572Y386539D01*
X522500Y386417D01*
X523427Y386539D01*
X524292Y386897D01*
X525034Y387466D01*
X525603Y388208D01*
X525961Y389073D01*
X526083Y390000D01*
X525961Y390927D01*
X525603Y391792D01*
X525034Y392534D01*
X524292Y393103D01*
X523427Y393461D01*
X522500Y393583D01*
D02*
G37*
G36*
X699300Y414600D02*
X687300D01*
Y390600D01*
X699300D01*
Y414600D01*
D02*
G37*
G36*
X533000Y393921D02*
Y390500D01*
X536421D01*
X536351Y391032D01*
X535953Y391993D01*
X535319Y392819D01*
X534493Y393453D01*
X533532Y393851D01*
X533000Y393921D01*
D02*
G37*
G36*
X780000Y450000D02*
X750000D01*
X735500Y435500D01*
Y424000D01*
X726000Y414500D01*
Y390500D01*
X738000D01*
X754000Y406500D01*
X774500D01*
X780000Y412000D01*
Y450000D01*
D02*
G37*
G36*
X593000Y392144D02*
Y390500D01*
X594644D01*
X594572Y390858D01*
X594086Y391586D01*
X593358Y392072D01*
X593000Y392144D01*
D02*
G37*
G36*
X592000D02*
X591642Y392072D01*
X590914Y391586D01*
X590428Y390858D01*
X590356Y390500D01*
X592000D01*
Y392144D01*
D02*
G37*
G36*
X532000Y393921D02*
X531468Y393851D01*
X530507Y393453D01*
X529681Y392819D01*
X529047Y391993D01*
X528649Y391032D01*
X528579Y390500D01*
X532000D01*
Y393921D01*
D02*
G37*
G36*
X594644Y389500D02*
X593000D01*
Y387856D01*
X593358Y387928D01*
X594086Y388414D01*
X594572Y389142D01*
X594644Y389500D01*
D02*
G37*
G36*
X592000D02*
X590356D01*
X590428Y389142D01*
X590914Y388414D01*
X591642Y387928D01*
X592000Y387856D01*
Y389500D01*
D02*
G37*
G36*
X536421D02*
X533000D01*
Y386079D01*
X533532Y386149D01*
X534493Y386547D01*
X535319Y387181D01*
X535953Y388007D01*
X536351Y388968D01*
X536421Y389500D01*
D02*
G37*
G36*
X532000D02*
X528579D01*
X528649Y388968D01*
X529047Y388007D01*
X529681Y387181D01*
X530507Y386547D01*
X531468Y386149D01*
X532000Y386079D01*
Y389500D01*
D02*
G37*
G36*
X522500Y383583D02*
X521572Y383461D01*
X520708Y383103D01*
X519966Y382534D01*
X519397Y381792D01*
X519039Y380927D01*
X519037Y380918D01*
X515963D01*
X515961Y380927D01*
X515603Y381792D01*
X515034Y382534D01*
X514292Y383103D01*
X513427Y383461D01*
X512500Y383583D01*
X511573Y383461D01*
X510708Y383103D01*
X509966Y382534D01*
X509397Y381792D01*
X509039Y380927D01*
X508917Y380000D01*
X509039Y379073D01*
X509397Y378208D01*
X509966Y377466D01*
X510708Y376897D01*
X511573Y376539D01*
X512500Y376417D01*
X513427Y376539D01*
X514292Y376897D01*
X515034Y377466D01*
X515603Y378208D01*
X515961Y379073D01*
X515963Y379082D01*
X519037D01*
X519039Y379073D01*
X519397Y378208D01*
X519966Y377466D01*
X520708Y376897D01*
X521572Y376539D01*
X522500Y376417D01*
X523427Y376539D01*
X524292Y376897D01*
X525034Y377466D01*
X525603Y378208D01*
X525961Y379073D01*
X526083Y380000D01*
X525961Y380927D01*
X525603Y381792D01*
X525034Y382534D01*
X524292Y383103D01*
X523427Y383461D01*
X522500Y383583D01*
D02*
G37*
G36*
X533000Y383921D02*
Y380500D01*
X536421D01*
X536351Y381032D01*
X535953Y381993D01*
X535319Y382819D01*
X534493Y383453D01*
X533532Y383851D01*
X533000Y383921D01*
D02*
G37*
G36*
X532000D02*
X531468Y383851D01*
X530507Y383453D01*
X529681Y382819D01*
X529047Y381993D01*
X528649Y381032D01*
X528579Y380500D01*
X532000D01*
Y383921D01*
D02*
G37*
G36*
X615500Y379644D02*
Y378000D01*
X617144D01*
X617072Y378358D01*
X616586Y379086D01*
X615858Y379572D01*
X615500Y379644D01*
D02*
G37*
G36*
X614500D02*
X614142Y379572D01*
X613414Y379086D01*
X612928Y378358D01*
X612856Y378000D01*
X614500D01*
Y379644D01*
D02*
G37*
G36*
X536421Y379500D02*
X533000D01*
Y376079D01*
X533532Y376149D01*
X534493Y376547D01*
X535319Y377181D01*
X535953Y378007D01*
X536351Y378968D01*
X536421Y379500D01*
D02*
G37*
G36*
X532000D02*
X528579D01*
X528649Y378968D01*
X529047Y378007D01*
X529681Y377181D01*
X530507Y376547D01*
X531468Y376149D01*
X532000Y376079D01*
Y379500D01*
D02*
G37*
G36*
X617144Y377000D02*
X615500D01*
Y375356D01*
X615858Y375428D01*
X616586Y375914D01*
X617072Y376642D01*
X617144Y377000D01*
D02*
G37*
G36*
X614500D02*
X612856D01*
X612928Y376642D01*
X613414Y375914D01*
X614142Y375428D01*
X614500Y375356D01*
Y377000D01*
D02*
G37*
G36*
X522500Y373583D02*
X521572Y373461D01*
X520708Y373103D01*
X519966Y372534D01*
X519397Y371792D01*
X519039Y370927D01*
X519037Y370918D01*
X515963D01*
X515961Y370927D01*
X515603Y371792D01*
X515034Y372534D01*
X514292Y373103D01*
X513427Y373461D01*
X512500Y373583D01*
X511573Y373461D01*
X510708Y373103D01*
X509966Y372534D01*
X509397Y371792D01*
X509039Y370927D01*
X508917Y370000D01*
X509039Y369073D01*
X509397Y368208D01*
X509966Y367466D01*
X510708Y366897D01*
X511573Y366539D01*
X512500Y366417D01*
X513427Y366539D01*
X514292Y366897D01*
X515034Y367466D01*
X515603Y368208D01*
X515961Y369073D01*
X515963Y369082D01*
X519037D01*
X519039Y369073D01*
X519397Y368208D01*
X519966Y367466D01*
X520708Y366897D01*
X521572Y366539D01*
X522500Y366417D01*
X523427Y366539D01*
X524292Y366897D01*
X525034Y367466D01*
X525603Y368208D01*
X525961Y369073D01*
X526083Y370000D01*
X525961Y370927D01*
X525603Y371792D01*
X525034Y372534D01*
X524292Y373103D01*
X523427Y373461D01*
X522500Y373583D01*
D02*
G37*
G36*
X533000Y373921D02*
Y370500D01*
X536421D01*
X536351Y371032D01*
X535953Y371993D01*
X535319Y372819D01*
X534493Y373453D01*
X533532Y373851D01*
X533000Y373921D01*
D02*
G37*
G36*
X532000D02*
X531468Y373851D01*
X530507Y373453D01*
X529681Y372819D01*
X529047Y371993D01*
X528649Y371032D01*
X528579Y370500D01*
X532000D01*
Y373921D01*
D02*
G37*
G36*
X405000Y371469D02*
Y368000D01*
X408469D01*
X408397Y368544D01*
X407994Y369517D01*
X407353Y370353D01*
X406517Y370994D01*
X405544Y371397D01*
X405000Y371469D01*
D02*
G37*
G36*
X404000Y371469D02*
X403456Y371397D01*
X402483Y370994D01*
X401647Y370353D01*
X401006Y369517D01*
X400603Y368544D01*
X400531Y368000D01*
X404000D01*
Y371469D01*
D02*
G37*
G36*
X536421Y369500D02*
X533000D01*
Y366079D01*
X533532Y366149D01*
X534493Y366547D01*
X535319Y367181D01*
X535953Y368007D01*
X536351Y368968D01*
X536421Y369500D01*
D02*
G37*
G36*
X532000D02*
X528579D01*
X528649Y368968D01*
X529047Y368007D01*
X529681Y367181D01*
X530507Y366547D01*
X531468Y366149D01*
X532000Y366079D01*
Y369500D01*
D02*
G37*
G36*
X417943Y371100D02*
X410743D01*
Y363900D01*
X417943D01*
Y371100D01*
D02*
G37*
G36*
X408469Y367000D02*
X405000D01*
Y363531D01*
X405544Y363603D01*
X406517Y364006D01*
X407353Y364647D01*
X407994Y365483D01*
X408397Y366456D01*
X408469Y367000D01*
D02*
G37*
G36*
X404000D02*
X400531D01*
X400603Y366456D01*
X401006Y365483D01*
X401647Y364647D01*
X402483Y364006D01*
X403456Y363603D01*
X404000Y363531D01*
Y367000D01*
D02*
G37*
G36*
X613500Y365964D02*
Y363000D01*
X616464D01*
X616410Y363414D01*
X616057Y364265D01*
X615496Y364996D01*
X614765Y365557D01*
X613914Y365910D01*
X613500Y365964D01*
D02*
G37*
G36*
X612500D02*
X612086Y365910D01*
X611235Y365557D01*
X610504Y364996D01*
X609943Y364265D01*
X609590Y363414D01*
X609536Y363000D01*
X612500D01*
Y365964D01*
D02*
G37*
G36*
X522500Y363583D02*
X521572Y363461D01*
X520708Y363103D01*
X519966Y362534D01*
X519397Y361792D01*
X519039Y360927D01*
X519037Y360918D01*
X515963D01*
X515961Y360927D01*
X515603Y361792D01*
X515034Y362534D01*
X514292Y363103D01*
X513427Y363461D01*
X512500Y363583D01*
X511573Y363461D01*
X510708Y363103D01*
X509966Y362534D01*
X509397Y361792D01*
X509039Y360927D01*
X508917Y360000D01*
X509039Y359073D01*
X509397Y358208D01*
X509966Y357466D01*
X510708Y356897D01*
X511573Y356539D01*
X512500Y356417D01*
X513427Y356539D01*
X514292Y356897D01*
X515034Y357466D01*
X515603Y358208D01*
X515961Y359073D01*
X515963Y359082D01*
X519037D01*
X519039Y359073D01*
X519397Y358208D01*
X519966Y357466D01*
X520708Y356897D01*
X521572Y356539D01*
X522500Y356417D01*
X523427Y356539D01*
X524292Y356897D01*
X525034Y357466D01*
X525603Y358208D01*
X525961Y359073D01*
X526083Y360000D01*
X525961Y360927D01*
X525603Y361792D01*
X525034Y362534D01*
X524292Y363103D01*
X523427Y363461D01*
X522500Y363583D01*
D02*
G37*
G36*
X533000Y363921D02*
Y360500D01*
X536421D01*
X536351Y361032D01*
X535953Y361993D01*
X535319Y362819D01*
X534493Y363453D01*
X533532Y363851D01*
X533000Y363921D01*
D02*
G37*
G36*
X532000D02*
X531468Y363851D01*
X530507Y363453D01*
X529681Y362819D01*
X529047Y361993D01*
X528649Y361032D01*
X528579Y360500D01*
X532000D01*
Y363921D01*
D02*
G37*
G36*
X616464Y362000D02*
X613500D01*
Y359036D01*
X613914Y359090D01*
X614765Y359443D01*
X615496Y360004D01*
X616057Y360735D01*
X616410Y361586D01*
X616464Y362000D01*
D02*
G37*
G36*
X612500D02*
X609536D01*
X609590Y361586D01*
X609943Y360735D01*
X610504Y360004D01*
X611235Y359443D01*
X612086Y359090D01*
X612500Y359036D01*
Y362000D01*
D02*
G37*
G36*
X536421Y359500D02*
X533000D01*
Y356079D01*
X533532Y356149D01*
X534493Y356547D01*
X535319Y357181D01*
X535953Y358007D01*
X536351Y358968D01*
X536421Y359500D01*
D02*
G37*
G36*
X532000D02*
X528579D01*
X528649Y358968D01*
X529047Y358007D01*
X529681Y357181D01*
X530507Y356547D01*
X531468Y356149D01*
X532000Y356079D01*
Y359500D01*
D02*
G37*
G36*
X613500Y355964D02*
Y353000D01*
X616464D01*
X616410Y353414D01*
X616057Y354265D01*
X615496Y354996D01*
X614765Y355557D01*
X613914Y355910D01*
X613500Y355964D01*
D02*
G37*
G36*
X612500D02*
X612086Y355910D01*
X611235Y355557D01*
X610504Y354996D01*
X609943Y354265D01*
X609590Y353414D01*
X609536Y353000D01*
X612500D01*
Y355964D01*
D02*
G37*
G36*
X522500Y353583D02*
X521572Y353461D01*
X520708Y353103D01*
X519966Y352534D01*
X519397Y351792D01*
X519039Y350927D01*
X519037Y350918D01*
X515963D01*
X515961Y350927D01*
X515603Y351792D01*
X515034Y352534D01*
X514292Y353103D01*
X513427Y353461D01*
X512500Y353583D01*
X511573Y353461D01*
X510708Y353103D01*
X509966Y352534D01*
X509397Y351792D01*
X509039Y350927D01*
X508917Y350000D01*
X509039Y349073D01*
X509397Y348208D01*
X509966Y347466D01*
X510708Y346897D01*
X511573Y346539D01*
X512500Y346417D01*
X513427Y346539D01*
X514292Y346897D01*
X515034Y347466D01*
X515603Y348208D01*
X515961Y349073D01*
X515963Y349082D01*
X519037D01*
X519039Y349073D01*
X519397Y348208D01*
X519966Y347466D01*
X520708Y346897D01*
X521572Y346539D01*
X522500Y346417D01*
X523427Y346539D01*
X524292Y346897D01*
X525034Y347466D01*
X525603Y348208D01*
X525961Y349073D01*
X526083Y350000D01*
X525961Y350927D01*
X525603Y351792D01*
X525034Y352534D01*
X524292Y353103D01*
X523427Y353461D01*
X522500Y353583D01*
D02*
G37*
G36*
X533000Y353921D02*
Y350500D01*
X536421D01*
X536351Y351032D01*
X535953Y351993D01*
X535319Y352819D01*
X534493Y353453D01*
X533532Y353851D01*
X533000Y353921D01*
D02*
G37*
G36*
X532000D02*
X531468Y353851D01*
X530507Y353453D01*
X529681Y352819D01*
X529047Y351993D01*
X528649Y351032D01*
X528579Y350500D01*
X532000D01*
Y353921D01*
D02*
G37*
G36*
X616464Y352000D02*
X613500D01*
Y349036D01*
X613914Y349090D01*
X614765Y349443D01*
X615496Y350004D01*
X616057Y350735D01*
X616410Y351586D01*
X616464Y352000D01*
D02*
G37*
G36*
X612500D02*
X609536D01*
X609590Y351586D01*
X609943Y350735D01*
X610504Y350004D01*
X611235Y349443D01*
X612086Y349090D01*
X612500Y349036D01*
Y352000D01*
D02*
G37*
G36*
X536421Y349500D02*
X533000D01*
Y346079D01*
X533532Y346149D01*
X534493Y346547D01*
X535319Y347181D01*
X535953Y348007D01*
X536351Y348968D01*
X536421Y349500D01*
D02*
G37*
G36*
X532000D02*
X528579D01*
X528649Y348968D01*
X529047Y348007D01*
X529681Y347181D01*
X530507Y346547D01*
X531468Y346149D01*
X532000Y346079D01*
Y349500D01*
D02*
G37*
G36*
X575000Y344335D02*
X574298Y344196D01*
X574202Y344131D01*
X563298D01*
X563202Y344196D01*
X562500Y344335D01*
X561798Y344196D01*
X561202Y343798D01*
X560804Y343202D01*
X560665Y342500D01*
X560804Y341798D01*
X561202Y341202D01*
X561798Y340804D01*
X562500Y340665D01*
X563202Y340804D01*
X563298Y340869D01*
X574202D01*
X574298Y340804D01*
X575000Y340665D01*
X575702Y340804D01*
X576298Y341202D01*
X576696Y341798D01*
X576835Y342500D01*
X576696Y343202D01*
X576298Y343798D01*
X575702Y344196D01*
X575000Y344335D01*
D02*
G37*
G36*
X445500Y343644D02*
Y342000D01*
X447144D01*
X447072Y342358D01*
X446586Y343086D01*
X445858Y343572D01*
X445500Y343644D01*
D02*
G37*
G36*
X444500D02*
X444142Y343572D01*
X443414Y343086D01*
X442928Y342358D01*
X442856Y342000D01*
X444500D01*
Y343644D01*
D02*
G37*
G36*
X522500Y343583D02*
X521572Y343461D01*
X520708Y343103D01*
X519966Y342534D01*
X519397Y341792D01*
X519039Y340927D01*
X519037Y340918D01*
X515963D01*
X515961Y340927D01*
X515603Y341792D01*
X515034Y342534D01*
X514292Y343103D01*
X513427Y343461D01*
X512500Y343583D01*
X511573Y343461D01*
X510708Y343103D01*
X509966Y342534D01*
X509397Y341792D01*
X509039Y340927D01*
X508917Y340000D01*
X509039Y339073D01*
X509397Y338208D01*
X509966Y337466D01*
X510708Y336897D01*
X511573Y336539D01*
X512500Y336417D01*
X513427Y336539D01*
X514292Y336897D01*
X515034Y337466D01*
X515603Y338208D01*
X515961Y339073D01*
X515963Y339082D01*
X519037D01*
X519039Y339073D01*
X519397Y338208D01*
X519966Y337466D01*
X520708Y336897D01*
X521572Y336539D01*
X522500Y336417D01*
X523427Y336539D01*
X524292Y336897D01*
X525034Y337466D01*
X525603Y338208D01*
X525961Y339073D01*
X526083Y340000D01*
X525961Y340927D01*
X525603Y341792D01*
X525034Y342534D01*
X524292Y343103D01*
X523427Y343461D01*
X522500Y343583D01*
D02*
G37*
G36*
X533000Y343921D02*
Y340500D01*
X536421D01*
X536351Y341032D01*
X535953Y341993D01*
X535319Y342819D01*
X534493Y343453D01*
X533532Y343851D01*
X533000Y343921D01*
D02*
G37*
G36*
X532000D02*
X531468Y343851D01*
X530507Y343453D01*
X529681Y342819D01*
X529047Y341993D01*
X528649Y341032D01*
X528579Y340500D01*
X532000D01*
Y343921D01*
D02*
G37*
G36*
X447144Y341000D02*
X445500D01*
Y339356D01*
X445858Y339428D01*
X446586Y339914D01*
X447072Y340642D01*
X447144Y341000D01*
D02*
G37*
G36*
X444500D02*
X442856D01*
X442928Y340642D01*
X443414Y339914D01*
X444142Y339428D01*
X444500Y339356D01*
Y341000D01*
D02*
G37*
G36*
X536421Y339500D02*
X533000D01*
Y336079D01*
X533532Y336149D01*
X534493Y336547D01*
X535319Y337181D01*
X535953Y338007D01*
X536351Y338968D01*
X536421Y339500D01*
D02*
G37*
G36*
X532000D02*
X528579D01*
X528649Y338968D01*
X529047Y338007D01*
X529681Y337181D01*
X530507Y336547D01*
X531468Y336149D01*
X532000Y336079D01*
Y339500D01*
D02*
G37*
G36*
X522500Y333583D02*
X521572Y333461D01*
X520708Y333103D01*
X519966Y332534D01*
X519397Y331792D01*
X519039Y330927D01*
X519037Y330918D01*
X515963D01*
X515961Y330927D01*
X515603Y331792D01*
X515034Y332534D01*
X514292Y333103D01*
X513427Y333461D01*
X512500Y333583D01*
X511573Y333461D01*
X510708Y333103D01*
X509966Y332534D01*
X509397Y331792D01*
X509039Y330927D01*
X508917Y330000D01*
X509039Y329073D01*
X509397Y328208D01*
X509966Y327466D01*
X510708Y326897D01*
X511573Y326539D01*
X512500Y326417D01*
X513427Y326539D01*
X514292Y326897D01*
X515034Y327466D01*
X515603Y328208D01*
X515961Y329073D01*
X515963Y329082D01*
X519037D01*
X519039Y329073D01*
X519397Y328208D01*
X519966Y327466D01*
X520708Y326897D01*
X521572Y326539D01*
X522500Y326417D01*
X523427Y326539D01*
X524292Y326897D01*
X525034Y327466D01*
X525603Y328208D01*
X525961Y329073D01*
X526083Y330000D01*
X525961Y330927D01*
X525603Y331792D01*
X525034Y332534D01*
X524292Y333103D01*
X523427Y333461D01*
X522500Y333583D01*
D02*
G37*
G36*
X533000Y333921D02*
Y330500D01*
X536421D01*
X536351Y331032D01*
X535953Y331993D01*
X535319Y332819D01*
X534493Y333453D01*
X533532Y333851D01*
X533000Y333921D01*
D02*
G37*
G36*
X532000D02*
X531468Y333851D01*
X530507Y333453D01*
X529681Y332819D01*
X529047Y331993D01*
X528649Y331032D01*
X528579Y330500D01*
X532000D01*
Y333921D01*
D02*
G37*
G36*
X536421Y329500D02*
X533000D01*
Y326079D01*
X533532Y326149D01*
X534493Y326547D01*
X535319Y327181D01*
X535953Y328007D01*
X536351Y328968D01*
X536421Y329500D01*
D02*
G37*
G36*
X532000D02*
X528579D01*
X528649Y328968D01*
X529047Y328007D01*
X529681Y327181D01*
X530507Y326547D01*
X531468Y326149D01*
X532000Y326079D01*
Y329500D01*
D02*
G37*
G36*
X634994Y327649D02*
Y326006D01*
X636638D01*
X636566Y326364D01*
X636080Y327092D01*
X635353Y327578D01*
X634994Y327649D01*
D02*
G37*
G36*
X633994D02*
X633636Y327578D01*
X632908Y327092D01*
X632422Y326364D01*
X632350Y326006D01*
X633994D01*
Y327649D01*
D02*
G37*
G36*
X552500Y326835D02*
X551798Y326696D01*
X551202Y326298D01*
X550948Y325918D01*
X546552D01*
X546298Y326298D01*
X545702Y326696D01*
X545000Y326835D01*
X544298Y326696D01*
X543702Y326298D01*
X543304Y325702D01*
X543165Y325000D01*
X543304Y324298D01*
X543702Y323702D01*
X544298Y323304D01*
X545000Y323165D01*
X545702Y323304D01*
X546298Y323702D01*
X546552Y324082D01*
X550948D01*
X551202Y323702D01*
X551798Y323304D01*
X552500Y323165D01*
X553202Y323304D01*
X553798Y323702D01*
X554196Y324298D01*
X554335Y325000D01*
X554196Y325702D01*
X553798Y326298D01*
X553202Y326696D01*
X552500Y326835D01*
D02*
G37*
G36*
X636638Y325006D02*
X634994D01*
Y323362D01*
X635353Y323434D01*
X636080Y323920D01*
X636566Y324647D01*
X636638Y325006D01*
D02*
G37*
G36*
X633994D02*
X632350D01*
X632422Y324647D01*
X632908Y323920D01*
X633636Y323434D01*
X633994Y323362D01*
Y325006D01*
D02*
G37*
G36*
X575000Y321835D02*
X574298Y321696D01*
X574202Y321631D01*
X566798D01*
X566702Y321696D01*
X566000Y321835D01*
X565298Y321696D01*
X564702Y321298D01*
X564304Y320702D01*
X564165Y320000D01*
X564304Y319298D01*
X564702Y318702D01*
X565298Y318304D01*
X566000Y318165D01*
X566702Y318304D01*
X566798Y318369D01*
X574202D01*
X574298Y318304D01*
X575000Y318165D01*
X575702Y318304D01*
X576298Y318702D01*
X576696Y319298D01*
X576835Y320000D01*
X576696Y320702D01*
X576298Y321298D01*
X575702Y321696D01*
X575000Y321835D01*
D02*
G37*
G36*
X522500Y323583D02*
X521572Y323461D01*
X520708Y323103D01*
X519966Y322534D01*
X519397Y321792D01*
X519039Y320927D01*
X519037Y320918D01*
X515963D01*
X515961Y320927D01*
X515603Y321792D01*
X515034Y322534D01*
X514292Y323103D01*
X513427Y323461D01*
X512500Y323583D01*
X511573Y323461D01*
X510708Y323103D01*
X509966Y322534D01*
X509397Y321792D01*
X509039Y320927D01*
X508917Y320000D01*
X509039Y319073D01*
X509397Y318208D01*
X509966Y317466D01*
X510708Y316897D01*
X511573Y316539D01*
X512500Y316417D01*
X513427Y316539D01*
X514292Y316897D01*
X515034Y317466D01*
X515603Y318208D01*
X515961Y319073D01*
X515963Y319082D01*
X519037D01*
X519039Y319073D01*
X519397Y318208D01*
X519966Y317466D01*
X520708Y316897D01*
X521572Y316539D01*
X522500Y316417D01*
X523427Y316539D01*
X524292Y316897D01*
X525034Y317466D01*
X525603Y318208D01*
X525961Y319073D01*
X526083Y320000D01*
X525961Y320927D01*
X525603Y321792D01*
X525034Y322534D01*
X524292Y323103D01*
X523427Y323461D01*
X522500Y323583D01*
D02*
G37*
G36*
X533000Y323921D02*
Y320500D01*
X536421D01*
X536351Y321032D01*
X535953Y321993D01*
X535319Y322819D01*
X534493Y323453D01*
X533532Y323851D01*
X533000Y323921D01*
D02*
G37*
G36*
X663000Y322144D02*
Y320500D01*
X664644D01*
X664572Y320858D01*
X664086Y321586D01*
X663358Y322072D01*
X663000Y322144D01*
D02*
G37*
G36*
X662000D02*
X661642Y322072D01*
X660914Y321586D01*
X660428Y320858D01*
X660356Y320500D01*
X662000D01*
Y322144D01*
D02*
G37*
G36*
X532000Y323921D02*
X531468Y323851D01*
X530507Y323453D01*
X529681Y322819D01*
X529047Y321993D01*
X528649Y321032D01*
X528579Y320500D01*
X532000D01*
Y323921D01*
D02*
G37*
G36*
X664644Y319500D02*
X663000D01*
Y317856D01*
X663358Y317928D01*
X664086Y318414D01*
X664572Y319142D01*
X664644Y319500D01*
D02*
G37*
G36*
X662000D02*
X660356D01*
X660428Y319142D01*
X660914Y318414D01*
X661642Y317928D01*
X662000Y317856D01*
Y319500D01*
D02*
G37*
G36*
X536421D02*
X533000D01*
Y316079D01*
X533532Y316149D01*
X534493Y316547D01*
X535319Y317181D01*
X535953Y318007D01*
X536351Y318968D01*
X536421Y319500D01*
D02*
G37*
G36*
X532000D02*
X528579D01*
X528649Y318968D01*
X529047Y318007D01*
X529681Y317181D01*
X530507Y316547D01*
X531468Y316149D01*
X532000Y316079D01*
Y319500D01*
D02*
G37*
G36*
X486500Y316644D02*
Y315000D01*
X488144D01*
X488072Y315358D01*
X487586Y316086D01*
X486858Y316572D01*
X486500Y316644D01*
D02*
G37*
G36*
X485500D02*
X485142Y316572D01*
X484414Y316086D01*
X483928Y315358D01*
X483856Y315000D01*
X485500D01*
Y316644D01*
D02*
G37*
G36*
X488144Y314000D02*
X486500D01*
Y312356D01*
X486858Y312428D01*
X487586Y312914D01*
X488072Y313642D01*
X488144Y314000D01*
D02*
G37*
G36*
X485500D02*
X483856D01*
X483928Y313642D01*
X484414Y312914D01*
X485142Y312428D01*
X485500Y312356D01*
Y314000D01*
D02*
G37*
G36*
X533000Y313921D02*
Y310500D01*
X536421D01*
X536351Y311032D01*
X535953Y311993D01*
X535319Y312819D01*
X534493Y313453D01*
X533532Y313851D01*
X533000Y313921D01*
D02*
G37*
G36*
X532000D02*
X531468Y313851D01*
X530507Y313453D01*
X529681Y312819D01*
X529047Y311993D01*
X528649Y311032D01*
X528579Y310500D01*
X532000D01*
Y313921D01*
D02*
G37*
G36*
X522500Y313583D02*
X521572Y313461D01*
X520708Y313103D01*
X519966Y312534D01*
X519397Y311792D01*
X519039Y310927D01*
X518917Y310000D01*
X519039Y309073D01*
X519397Y308208D01*
X519966Y307466D01*
X520708Y306897D01*
X521572Y306539D01*
X522500Y306417D01*
X523427Y306539D01*
X524292Y306897D01*
X525034Y307466D01*
X525603Y308208D01*
X525961Y309073D01*
X526083Y310000D01*
X525961Y310927D01*
X525603Y311792D01*
X525034Y312534D01*
X524292Y313103D01*
X523427Y313461D01*
X522500Y313583D01*
D02*
G37*
G36*
X512500D02*
X511573Y313461D01*
X510708Y313103D01*
X509966Y312534D01*
X509397Y311792D01*
X509039Y310927D01*
X508917Y310000D01*
X509039Y309073D01*
X509397Y308208D01*
X509966Y307466D01*
X510708Y306897D01*
X511573Y306539D01*
X512500Y306417D01*
X513427Y306539D01*
X514292Y306897D01*
X515034Y307466D01*
X515603Y308208D01*
X515961Y309073D01*
X516083Y310000D01*
X515961Y310927D01*
X515603Y311792D01*
X515034Y312534D01*
X514292Y313103D01*
X513427Y313461D01*
X512500Y313583D01*
D02*
G37*
G36*
X536421Y309500D02*
X533000D01*
Y306079D01*
X533532Y306149D01*
X534493Y306547D01*
X535319Y307181D01*
X535953Y308007D01*
X536351Y308968D01*
X536421Y309500D01*
D02*
G37*
G36*
X532000D02*
X528579D01*
X528649Y308968D01*
X529047Y308007D01*
X529681Y307181D01*
X530507Y306547D01*
X531468Y306149D01*
X532000Y306079D01*
Y309500D01*
D02*
G37*
G36*
X425500Y307191D02*
Y305547D01*
X427144D01*
X427072Y305906D01*
X426586Y306633D01*
X425858Y307120D01*
X425500Y307191D01*
D02*
G37*
G36*
X424500D02*
X424142Y307120D01*
X423414Y306633D01*
X422928Y305906D01*
X422856Y305547D01*
X424500D01*
Y307191D01*
D02*
G37*
G36*
X427144Y304547D02*
X425500D01*
Y302904D01*
X425858Y302975D01*
X426586Y303461D01*
X427072Y304189D01*
X427144Y304547D01*
D02*
G37*
G36*
X424500D02*
X422856D01*
X422928Y304189D01*
X423414Y303461D01*
X424142Y302975D01*
X424500Y302904D01*
Y304547D01*
D02*
G37*
G36*
X533000Y303921D02*
Y300500D01*
X536421D01*
X536351Y301032D01*
X535953Y301993D01*
X535319Y302819D01*
X534493Y303453D01*
X533532Y303851D01*
X533000Y303921D01*
D02*
G37*
G36*
X532000D02*
X531468Y303851D01*
X530507Y303453D01*
X529681Y302819D01*
X529047Y301993D01*
X528649Y301032D01*
X528579Y300500D01*
X532000D01*
Y303921D01*
D02*
G37*
G36*
X663000Y300964D02*
Y298000D01*
X665964D01*
X665910Y298414D01*
X665557Y299265D01*
X664996Y299996D01*
X664265Y300557D01*
X663414Y300910D01*
X663000Y300964D01*
D02*
G37*
G36*
X654500D02*
X654086Y300910D01*
X653235Y300557D01*
X652504Y299996D01*
X651943Y299265D01*
X651590Y298414D01*
X651536Y298000D01*
X654500D01*
Y300964D01*
D02*
G37*
G36*
X662000D02*
X661586Y300910D01*
X660735Y300557D01*
X660004Y299996D01*
X659443Y299265D01*
X659090Y298414D01*
X659003Y297754D01*
X659002Y297746D01*
X658498D01*
X658497Y297754D01*
X658410Y298414D01*
X658057Y299265D01*
X657496Y299996D01*
X656765Y300557D01*
X655914Y300910D01*
X655500Y300964D01*
Y297500D01*
Y294036D01*
X655914Y294090D01*
X656765Y294443D01*
X657496Y295004D01*
X658057Y295735D01*
X658410Y296586D01*
X658497Y297246D01*
X658498Y297254D01*
X659002D01*
X659003Y297246D01*
X659090Y296586D01*
X659443Y295735D01*
X660004Y295004D01*
X660735Y294443D01*
X661586Y294090D01*
X662000Y294036D01*
Y297500D01*
Y300964D01*
D02*
G37*
G36*
X522500Y303583D02*
X521572Y303461D01*
X520708Y303103D01*
X519966Y302534D01*
X519397Y301792D01*
X519039Y300927D01*
X518917Y300000D01*
X519039Y299073D01*
X519397Y298208D01*
X519966Y297466D01*
X520708Y296897D01*
X521572Y296539D01*
X522500Y296417D01*
X523427Y296539D01*
X524292Y296897D01*
X525034Y297466D01*
X525603Y298208D01*
X525961Y299073D01*
X526083Y300000D01*
X525961Y300927D01*
X525603Y301792D01*
X525034Y302534D01*
X524292Y303103D01*
X523427Y303461D01*
X522500Y303583D01*
D02*
G37*
G36*
X512500D02*
X511573Y303461D01*
X510708Y303103D01*
X509966Y302534D01*
X509397Y301792D01*
X509039Y300927D01*
X508917Y300000D01*
X509039Y299073D01*
X509397Y298208D01*
X509966Y297466D01*
X510708Y296897D01*
X511573Y296539D01*
X512500Y296417D01*
X513427Y296539D01*
X514292Y296897D01*
X515034Y297466D01*
X515603Y298208D01*
X515961Y299073D01*
X516083Y300000D01*
X515961Y300927D01*
X515603Y301792D01*
X515034Y302534D01*
X514292Y303103D01*
X513427Y303461D01*
X512500Y303583D01*
D02*
G37*
G36*
X536421Y299500D02*
X533000D01*
Y296079D01*
X533532Y296149D01*
X534493Y296547D01*
X535319Y297181D01*
X535953Y298007D01*
X536351Y298968D01*
X536421Y299500D01*
D02*
G37*
G36*
X532000D02*
X528579D01*
X528649Y298968D01*
X529047Y298007D01*
X529681Y297181D01*
X530507Y296547D01*
X531468Y296149D01*
X532000Y296079D01*
Y299500D01*
D02*
G37*
G36*
X665964Y297000D02*
X663000D01*
Y294036D01*
X663414Y294090D01*
X664265Y294443D01*
X664996Y295004D01*
X665557Y295735D01*
X665910Y296586D01*
X665964Y297000D01*
D02*
G37*
G36*
X654500D02*
X651536D01*
X651590Y296586D01*
X651943Y295735D01*
X652504Y295004D01*
X653235Y294443D01*
X654086Y294090D01*
X654500Y294036D01*
Y297000D01*
D02*
G37*
G36*
X574500Y294335D02*
X573798Y294196D01*
X573202Y293798D01*
X572948Y293418D01*
X555552D01*
X555298Y293798D01*
X554702Y294196D01*
X554000Y294335D01*
X553298Y294196D01*
X552702Y293798D01*
X552304Y293202D01*
X552165Y292500D01*
X552304Y291798D01*
X552702Y291202D01*
X553298Y290804D01*
X554000Y290665D01*
X554702Y290804D01*
X555298Y291202D01*
X555552Y291582D01*
X572948D01*
X573202Y291202D01*
X573798Y290804D01*
X574500Y290665D01*
X575202Y290804D01*
X575798Y291202D01*
X576196Y291798D01*
X576335Y292500D01*
X576196Y293202D01*
X575798Y293798D01*
X575202Y294196D01*
X574500Y294335D01*
D02*
G37*
G36*
X670500Y295964D02*
Y293000D01*
X673464D01*
X673410Y293414D01*
X673057Y294265D01*
X672496Y294996D01*
X671765Y295557D01*
X670914Y295910D01*
X670500Y295964D01*
D02*
G37*
G36*
X669500D02*
X669086Y295910D01*
X668235Y295557D01*
X667504Y294996D01*
X666943Y294265D01*
X666590Y293414D01*
X666536Y293000D01*
X669500D01*
Y295964D01*
D02*
G37*
G36*
X533000Y293921D02*
Y290500D01*
X536421D01*
X536351Y291032D01*
X535953Y291993D01*
X535319Y292819D01*
X534493Y293453D01*
X533532Y293851D01*
X533000Y293921D01*
D02*
G37*
G36*
X532000D02*
X531468Y293851D01*
X530507Y293453D01*
X529681Y292819D01*
X529047Y291993D01*
X528649Y291032D01*
X528579Y290500D01*
X532000D01*
Y293921D01*
D02*
G37*
G36*
X430000Y291144D02*
Y289500D01*
X431644D01*
X431572Y289858D01*
X431086Y290586D01*
X430358Y291072D01*
X430000Y291144D01*
D02*
G37*
G36*
X429000D02*
X428642Y291072D01*
X427914Y290586D01*
X427428Y289858D01*
X427356Y289500D01*
X429000D01*
Y291144D01*
D02*
G37*
G36*
X673464Y292000D02*
X670500D01*
Y289036D01*
X670914Y289090D01*
X671765Y289443D01*
X672496Y290004D01*
X673057Y290735D01*
X673410Y291586D01*
X673464Y292000D01*
D02*
G37*
G36*
X669500D02*
X666536D01*
X666590Y291586D01*
X666943Y290735D01*
X667504Y290004D01*
X668235Y289443D01*
X669086Y289090D01*
X669500Y289036D01*
Y292000D01*
D02*
G37*
G36*
X431644Y288500D02*
X430000D01*
Y286856D01*
X430358Y286928D01*
X431086Y287414D01*
X431572Y288142D01*
X431644Y288500D01*
D02*
G37*
G36*
X429000D02*
X427356D01*
X427428Y288142D01*
X427914Y287414D01*
X428642Y286928D01*
X429000Y286856D01*
Y288500D01*
D02*
G37*
G36*
X522500Y293583D02*
X521572Y293461D01*
X520708Y293103D01*
X519966Y292534D01*
X519397Y291792D01*
X519039Y290927D01*
X518917Y290000D01*
X519039Y289073D01*
X519397Y288208D01*
X519966Y287466D01*
X520708Y286897D01*
X521572Y286539D01*
X522500Y286417D01*
X523427Y286539D01*
X524292Y286897D01*
X525034Y287466D01*
X525603Y288208D01*
X525961Y289073D01*
X526083Y290000D01*
X525961Y290927D01*
X525603Y291792D01*
X525034Y292534D01*
X524292Y293103D01*
X523427Y293461D01*
X522500Y293583D01*
D02*
G37*
G36*
X512500D02*
X511573Y293461D01*
X510708Y293103D01*
X509966Y292534D01*
X509397Y291792D01*
X509039Y290927D01*
X508917Y290000D01*
X509039Y289073D01*
X509397Y288208D01*
X509966Y287466D01*
X510708Y286897D01*
X511573Y286539D01*
X512500Y286417D01*
X513427Y286539D01*
X514292Y286897D01*
X515034Y287466D01*
X515603Y288208D01*
X515961Y289073D01*
X516083Y290000D01*
X515961Y290927D01*
X515603Y291792D01*
X515034Y292534D01*
X514292Y293103D01*
X513427Y293461D01*
X512500Y293583D01*
D02*
G37*
G36*
X536421Y289500D02*
X533000D01*
Y286079D01*
X533532Y286149D01*
X534493Y286547D01*
X535319Y287181D01*
X535953Y288007D01*
X536351Y288968D01*
X536421Y289500D01*
D02*
G37*
G36*
X532000D02*
X528579D01*
X528649Y288968D01*
X529047Y288007D01*
X529681Y287181D01*
X530507Y286547D01*
X531468Y286149D01*
X532000Y286079D01*
Y289500D01*
D02*
G37*
G36*
X536453Y283953D02*
X533000D01*
Y280500D01*
X536453D01*
Y283953D01*
D02*
G37*
G36*
X532000D02*
X528547D01*
Y280500D01*
X532000D01*
Y283953D01*
D02*
G37*
G36*
X526053Y283553D02*
X518947D01*
Y276447D01*
X526053D01*
Y283553D01*
D02*
G37*
G36*
X512500Y283583D02*
X511573Y283461D01*
X510708Y283103D01*
X509966Y282534D01*
X509397Y281792D01*
X509039Y280927D01*
X508917Y280000D01*
X509039Y279073D01*
X509397Y278208D01*
X509966Y277466D01*
X510708Y276897D01*
X511573Y276539D01*
X512500Y276417D01*
X513427Y276539D01*
X514292Y276897D01*
X515034Y277466D01*
X515603Y278208D01*
X515961Y279073D01*
X516083Y280000D01*
X515961Y280927D01*
X515603Y281792D01*
X515034Y282534D01*
X514292Y283103D01*
X513427Y283461D01*
X512500Y283583D01*
D02*
G37*
G36*
X536453Y279500D02*
X533000D01*
Y276047D01*
X536453D01*
Y279500D01*
D02*
G37*
G36*
X532000D02*
X528547D01*
Y276047D01*
X532000D01*
Y279500D01*
D02*
G37*
G36*
X434000Y280835D02*
X433298Y280696D01*
X432702Y280298D01*
X432304Y279702D01*
X432165Y279000D01*
X432304Y278298D01*
X432702Y277702D01*
X433082Y277448D01*
Y265552D01*
X432702Y265298D01*
X432304Y264702D01*
X432255Y264453D01*
X431745D01*
X431696Y264702D01*
X431298Y265298D01*
X430918Y265552D01*
Y269448D01*
X431298Y269702D01*
X431696Y270298D01*
X431835Y271000D01*
X431696Y271702D01*
X431298Y272298D01*
X430702Y272696D01*
X430000Y272835D01*
X429298Y272696D01*
X428702Y272298D01*
X428304Y271702D01*
X428165Y271000D01*
X428304Y270298D01*
X428702Y269702D01*
X429082Y269448D01*
Y265552D01*
X428702Y265298D01*
X428304Y264702D01*
X428165Y264000D01*
X428304Y263298D01*
X428702Y262702D01*
X429298Y262304D01*
X430000Y262165D01*
X430702Y262304D01*
X431298Y262702D01*
X431696Y263298D01*
X431745Y263547D01*
X432255D01*
X432304Y263298D01*
X432702Y262702D01*
X433298Y262304D01*
X434000Y262165D01*
X434702Y262304D01*
X435298Y262702D01*
X435696Y263298D01*
X435835Y264000D01*
X435696Y264702D01*
X435298Y265298D01*
X434918Y265552D01*
Y277448D01*
X435298Y277702D01*
X435696Y278298D01*
X435835Y279000D01*
X435696Y279702D01*
X435298Y280298D01*
X434702Y280696D01*
X434000Y280835D01*
D02*
G37*
G36*
X408553Y271053D02*
X401447D01*
Y263947D01*
X408553D01*
Y271053D01*
D02*
G37*
G36*
X424500Y272835D02*
X423798Y272696D01*
X423202Y272298D01*
X422804Y271702D01*
X422665Y271000D01*
X422804Y270298D01*
X423202Y269702D01*
X423582Y269448D01*
Y265552D01*
X423202Y265298D01*
X422804Y264702D01*
X422665Y264000D01*
X422804Y263298D01*
X423202Y262702D01*
X423798Y262304D01*
X424500Y262165D01*
X425202Y262304D01*
X425798Y262702D01*
X426196Y263298D01*
X426335Y264000D01*
X426196Y264702D01*
X425798Y265298D01*
X425418Y265552D01*
Y269448D01*
X425798Y269702D01*
X426196Y270298D01*
X426335Y271000D01*
X426196Y271702D01*
X425798Y272298D01*
X425202Y272696D01*
X424500Y272835D01*
D02*
G37*
G36*
X575000Y261835D02*
X574298Y261696D01*
X573702Y261298D01*
X573448Y260918D01*
X560552D01*
X560298Y261298D01*
X559702Y261696D01*
X559000Y261835D01*
X558298Y261696D01*
X557702Y261298D01*
X557304Y260702D01*
X557165Y260000D01*
X557304Y259298D01*
X557702Y258702D01*
X558298Y258304D01*
X559000Y258165D01*
X559702Y258304D01*
X560298Y258702D01*
X560552Y259082D01*
X573448D01*
X573702Y258702D01*
X574298Y258304D01*
X575000Y258165D01*
X575702Y258304D01*
X576298Y258702D01*
X576696Y259298D01*
X576835Y260000D01*
X576696Y260702D01*
X576298Y261298D01*
X575702Y261696D01*
X575000Y261835D01*
D02*
G37*
G36*
Y256835D02*
X574298Y256696D01*
X573702Y256298D01*
X573448Y255918D01*
X560552D01*
X560298Y256298D01*
X559702Y256696D01*
X559000Y256835D01*
X558298Y256696D01*
X557702Y256298D01*
X557304Y255702D01*
X557165Y255000D01*
X557304Y254298D01*
X557702Y253702D01*
X558298Y253304D01*
X559000Y253165D01*
X559702Y253304D01*
X560298Y253702D01*
X560552Y254082D01*
X573448D01*
X573702Y253702D01*
X574298Y253304D01*
X575000Y253165D01*
X575702Y253304D01*
X576298Y253702D01*
X576696Y254298D01*
X576835Y255000D01*
X576696Y255702D01*
X576298Y256298D01*
X575702Y256696D01*
X575000Y256835D01*
D02*
G37*
G36*
X405000Y261083D02*
X404073Y260961D01*
X403208Y260603D01*
X402466Y260034D01*
X401897Y259292D01*
X401539Y258427D01*
X401417Y257500D01*
X401539Y256573D01*
X401897Y255708D01*
X402466Y254966D01*
X403208Y254397D01*
X404073Y254039D01*
X405000Y253917D01*
X405927Y254039D01*
X406792Y254397D01*
X407534Y254966D01*
X408103Y255708D01*
X408461Y256573D01*
X408583Y257500D01*
X408461Y258427D01*
X408103Y259292D01*
X407534Y260034D01*
X406792Y260603D01*
X405927Y260961D01*
X405000Y261083D01*
D02*
G37*
G36*
X463000Y252644D02*
Y251000D01*
X464644D01*
X464572Y251358D01*
X464086Y252086D01*
X463358Y252572D01*
X463000Y252644D01*
D02*
G37*
G36*
X462000D02*
X461642Y252572D01*
X460914Y252086D01*
X460428Y251358D01*
X460356Y251000D01*
X462000D01*
Y252644D01*
D02*
G37*
G36*
X455500D02*
Y251000D01*
X457144D01*
X457072Y251358D01*
X456586Y252086D01*
X455858Y252572D01*
X455500Y252644D01*
D02*
G37*
G36*
X454500D02*
X454142Y252572D01*
X453414Y252086D01*
X452928Y251358D01*
X452856Y251000D01*
X454500D01*
Y252644D01*
D02*
G37*
G36*
X443000D02*
Y251000D01*
X444644D01*
X444572Y251358D01*
X444086Y252086D01*
X443358Y252572D01*
X443000Y252644D01*
D02*
G37*
G36*
X442000D02*
X441642Y252572D01*
X440914Y252086D01*
X440428Y251358D01*
X440356Y251000D01*
X442000D01*
Y252644D01*
D02*
G37*
G36*
X699300Y274600D02*
X687300D01*
Y250600D01*
X699300D01*
Y274600D01*
D02*
G37*
G36*
X780000Y310000D02*
X750000D01*
X735500Y295500D01*
Y284000D01*
X726000Y274500D01*
Y250500D01*
X738000D01*
X754000Y266500D01*
X774500D01*
X780000Y272000D01*
Y310000D01*
D02*
G37*
G36*
X593000Y252144D02*
Y250500D01*
X594644D01*
X594572Y250858D01*
X594086Y251586D01*
X593358Y252072D01*
X593000Y252144D01*
D02*
G37*
G36*
X592000D02*
X591642Y252072D01*
X590914Y251586D01*
X590428Y250858D01*
X590356Y250500D01*
X592000D01*
Y252144D01*
D02*
G37*
G36*
X490000Y250335D02*
X489298Y250196D01*
X489202Y250131D01*
X484298D01*
X484202Y250196D01*
X483500Y250335D01*
X482798Y250196D01*
X482202Y249798D01*
X481804Y249202D01*
X481665Y248500D01*
X481804Y247798D01*
X482202Y247202D01*
X482798Y246804D01*
X483500Y246665D01*
X484202Y246804D01*
X484298Y246869D01*
X489202D01*
X489298Y246804D01*
X490000Y246665D01*
X490702Y246804D01*
X491298Y247202D01*
X491696Y247798D01*
X491835Y248500D01*
X491696Y249202D01*
X491298Y249798D01*
X490702Y250196D01*
X490000Y250335D01*
D02*
G37*
G36*
X464644Y250000D02*
X463000D01*
Y248356D01*
X463358Y248428D01*
X464086Y248914D01*
X464572Y249642D01*
X464644Y250000D01*
D02*
G37*
G36*
X462000D02*
X460356D01*
X460428Y249642D01*
X460914Y248914D01*
X461642Y248428D01*
X462000Y248356D01*
Y250000D01*
D02*
G37*
G36*
X457144D02*
X455500D01*
Y248356D01*
X455858Y248428D01*
X456586Y248914D01*
X457072Y249642D01*
X457144Y250000D01*
D02*
G37*
G36*
X454500D02*
X452856D01*
X452928Y249642D01*
X453414Y248914D01*
X454142Y248428D01*
X454500Y248356D01*
Y250000D01*
D02*
G37*
G36*
X444644D02*
X443000D01*
Y248356D01*
X443358Y248428D01*
X444086Y248914D01*
X444572Y249642D01*
X444644Y250000D01*
D02*
G37*
G36*
X442000D02*
X440356D01*
X440428Y249642D01*
X440914Y248914D01*
X441642Y248428D01*
X442000Y248356D01*
Y250000D01*
D02*
G37*
G36*
X405500Y251421D02*
Y248000D01*
X408921D01*
X408851Y248532D01*
X408453Y249493D01*
X407819Y250319D01*
X406993Y250953D01*
X406032Y251351D01*
X405500Y251421D01*
D02*
G37*
G36*
X404500D02*
X403968Y251351D01*
X403007Y250953D01*
X402181Y250319D01*
X401547Y249493D01*
X401149Y248532D01*
X401079Y248000D01*
X404500D01*
Y251421D01*
D02*
G37*
G36*
X594644Y249500D02*
X593000D01*
Y247856D01*
X593358Y247928D01*
X594086Y248414D01*
X594572Y249142D01*
X594644Y249500D01*
D02*
G37*
G36*
X592000D02*
X590356D01*
X590428Y249142D01*
X590914Y248414D01*
X591642Y247928D01*
X592000Y247856D01*
Y249500D01*
D02*
G37*
G36*
X408921Y247000D02*
X405500D01*
Y243579D01*
X406032Y243649D01*
X406993Y244047D01*
X407819Y244681D01*
X408453Y245507D01*
X408851Y246468D01*
X408921Y247000D01*
D02*
G37*
G36*
X404500D02*
X401079D01*
X401149Y246468D01*
X401547Y245507D01*
X402181Y244681D01*
X403007Y244047D01*
X403968Y243649D01*
X404500Y243579D01*
Y247000D01*
D02*
G37*
G36*
X615500Y239644D02*
Y238000D01*
X617144D01*
X617072Y238358D01*
X616586Y239086D01*
X615858Y239572D01*
X615500Y239644D01*
D02*
G37*
G36*
X614500D02*
X614142Y239572D01*
X613414Y239086D01*
X612928Y238358D01*
X612856Y238000D01*
X614500D01*
Y239644D01*
D02*
G37*
G36*
X436500Y236835D02*
X435798Y236696D01*
X435202Y236298D01*
X434948Y235918D01*
X433052D01*
X432798Y236298D01*
X432202Y236696D01*
X431500Y236835D01*
X430798Y236696D01*
X430202Y236298D01*
X429948Y235918D01*
X429500D01*
X429149Y235848D01*
X428851Y235649D01*
X428652Y235351D01*
X428582Y235000D01*
X428652Y234649D01*
X428851Y234351D01*
X429149Y234152D01*
X429500Y234082D01*
X429948D01*
X430202Y233702D01*
X430798Y233304D01*
X431500Y233165D01*
X432202Y233304D01*
X432798Y233702D01*
X433052Y234082D01*
X434948D01*
X435202Y233702D01*
X435798Y233304D01*
X436500Y233165D01*
X437202Y233304D01*
X437798Y233702D01*
X438196Y234298D01*
X438335Y235000D01*
X438196Y235702D01*
X437798Y236298D01*
X437202Y236696D01*
X436500Y236835D01*
D02*
G37*
G36*
X617144Y237000D02*
X615500D01*
Y235356D01*
X615858Y235428D01*
X616586Y235914D01*
X617072Y236642D01*
X617144Y237000D01*
D02*
G37*
G36*
X614500D02*
X612856D01*
X612928Y236642D01*
X613414Y235914D01*
X614142Y235428D01*
X614500Y235356D01*
Y237000D01*
D02*
G37*
G36*
X405000Y241083D02*
X404073Y240961D01*
X403208Y240603D01*
X402466Y240034D01*
X401897Y239292D01*
X401539Y238427D01*
X401417Y237500D01*
X401539Y236573D01*
X401897Y235708D01*
X402466Y234966D01*
X403208Y234397D01*
X404073Y234039D01*
X405000Y233917D01*
X405927Y234039D01*
X406792Y234397D01*
X407534Y234966D01*
X408103Y235708D01*
X408461Y236573D01*
X408583Y237500D01*
X408461Y238427D01*
X408103Y239292D01*
X407534Y240034D01*
X406792Y240603D01*
X405927Y240961D01*
X405000Y241083D01*
D02*
G37*
G36*
X457000Y233644D02*
Y232000D01*
X458644D01*
X458572Y232358D01*
X458086Y233086D01*
X457358Y233572D01*
X457000Y233644D01*
D02*
G37*
G36*
X456000D02*
X455642Y233572D01*
X454914Y233086D01*
X454428Y232358D01*
X454356Y232000D01*
X456000D01*
Y233644D01*
D02*
G37*
G36*
X458644Y231000D02*
X457000D01*
Y229356D01*
X457358Y229428D01*
X458086Y229914D01*
X458572Y230642D01*
X458644Y231000D01*
D02*
G37*
G36*
X456000D02*
X454356D01*
X454428Y230642D01*
X454914Y229914D01*
X455642Y229428D01*
X456000Y229356D01*
Y231000D01*
D02*
G37*
G36*
X405000Y231083D02*
X404073Y230961D01*
X403208Y230603D01*
X402466Y230034D01*
X401897Y229292D01*
X401539Y228427D01*
X401417Y227500D01*
X401539Y226573D01*
X401897Y225708D01*
X402466Y224966D01*
X403208Y224397D01*
X404073Y224039D01*
X405000Y223917D01*
X405927Y224039D01*
X406792Y224397D01*
X407534Y224966D01*
X408103Y225708D01*
X408461Y226573D01*
X408583Y227500D01*
X408461Y228427D01*
X408103Y229292D01*
X407534Y230034D01*
X406792Y230603D01*
X405927Y230961D01*
X405000Y231083D01*
D02*
G37*
G36*
X613500Y225964D02*
Y223000D01*
X616464D01*
X616410Y223414D01*
X616057Y224265D01*
X615496Y224996D01*
X614765Y225557D01*
X613914Y225910D01*
X613500Y225964D01*
D02*
G37*
G36*
X612500D02*
X612086Y225910D01*
X611235Y225557D01*
X610504Y224996D01*
X609943Y224265D01*
X609590Y223414D01*
X609536Y223000D01*
X612500D01*
Y225964D01*
D02*
G37*
G36*
X616464Y222000D02*
X613500D01*
Y219036D01*
X613914Y219090D01*
X614765Y219443D01*
X615496Y220004D01*
X616057Y220735D01*
X616410Y221586D01*
X616464Y222000D01*
D02*
G37*
G36*
X612500D02*
X609536D01*
X609590Y221586D01*
X609943Y220735D01*
X610504Y220004D01*
X611235Y219443D01*
X612086Y219090D01*
X612500Y219036D01*
Y222000D01*
D02*
G37*
G36*
X405000Y221083D02*
X404073Y220961D01*
X403208Y220603D01*
X402466Y220034D01*
X401897Y219292D01*
X401539Y218427D01*
X401417Y217500D01*
X401539Y216573D01*
X401897Y215708D01*
X402466Y214966D01*
X403208Y214397D01*
X404073Y214039D01*
X405000Y213917D01*
X405927Y214039D01*
X406792Y214397D01*
X407534Y214966D01*
X408103Y215708D01*
X408461Y216573D01*
X408583Y217500D01*
X408461Y218427D01*
X408103Y219292D01*
X407534Y220034D01*
X406792Y220603D01*
X405927Y220961D01*
X405000Y221083D01*
D02*
G37*
G36*
X613500Y215964D02*
Y213000D01*
X616464D01*
X616410Y213414D01*
X616057Y214265D01*
X615496Y214996D01*
X614765Y215557D01*
X613914Y215910D01*
X613500Y215964D01*
D02*
G37*
G36*
X612500D02*
X612086Y215910D01*
X611235Y215557D01*
X610504Y214996D01*
X609943Y214265D01*
X609590Y213414D01*
X609536Y213000D01*
X612500D01*
Y215964D01*
D02*
G37*
G36*
X463000Y214644D02*
Y213000D01*
X464644D01*
X464572Y213358D01*
X464086Y214086D01*
X463358Y214572D01*
X463000Y214644D01*
D02*
G37*
G36*
X462000D02*
X461642Y214572D01*
X460914Y214086D01*
X460428Y213358D01*
X460356Y213000D01*
X462000D01*
Y214644D01*
D02*
G37*
G36*
X455500D02*
Y213000D01*
X457144D01*
X457072Y213358D01*
X456586Y214086D01*
X455858Y214572D01*
X455500Y214644D01*
D02*
G37*
G36*
X454500D02*
X454142Y214572D01*
X453414Y214086D01*
X452928Y213358D01*
X452856Y213000D01*
X454500D01*
Y214644D01*
D02*
G37*
G36*
X464644Y212000D02*
X463000D01*
Y210356D01*
X463358Y210428D01*
X464086Y210914D01*
X464572Y211642D01*
X464644Y212000D01*
D02*
G37*
G36*
X462000D02*
X460356D01*
X460428Y211642D01*
X460914Y210914D01*
X461642Y210428D01*
X462000Y210356D01*
Y212000D01*
D02*
G37*
G36*
X457144D02*
X455500D01*
Y210356D01*
X455858Y210428D01*
X456586Y210914D01*
X457072Y211642D01*
X457144Y212000D01*
D02*
G37*
G36*
X454500D02*
X452856D01*
X452928Y211642D01*
X453414Y210914D01*
X454142Y210428D01*
X454500Y210356D01*
Y212000D01*
D02*
G37*
G36*
X616464D02*
X613500D01*
Y209036D01*
X613914Y209090D01*
X614765Y209443D01*
X615496Y210004D01*
X616057Y210735D01*
X616410Y211586D01*
X616464Y212000D01*
D02*
G37*
G36*
X612500D02*
X609536D01*
X609590Y211586D01*
X609943Y210735D01*
X610504Y210004D01*
X611235Y209443D01*
X612086Y209090D01*
X612500Y209036D01*
Y212000D01*
D02*
G37*
G36*
X492000Y209864D02*
Y208220D01*
X493643D01*
X493572Y208578D01*
X493086Y209306D01*
X492358Y209792D01*
X492000Y209864D01*
D02*
G37*
G36*
X491000D02*
X490641Y209792D01*
X489914Y209306D01*
X489427Y208578D01*
X489356Y208220D01*
X491000D01*
Y209864D01*
D02*
G37*
G36*
X493643Y207220D02*
X492000D01*
Y205576D01*
X492358Y205648D01*
X493086Y206134D01*
X493572Y206862D01*
X493643Y207220D01*
D02*
G37*
G36*
X491000D02*
X489356D01*
X489427Y206862D01*
X489914Y206134D01*
X490641Y205648D01*
X491000Y205576D01*
Y207220D01*
D02*
G37*
G36*
X505000Y196589D02*
Y194945D01*
X506644D01*
X506572Y195303D01*
X506086Y196031D01*
X505358Y196517D01*
X505000Y196589D01*
D02*
G37*
G36*
X504000D02*
X503642Y196517D01*
X502914Y196031D01*
X502428Y195303D01*
X502356Y194945D01*
X504000D01*
Y196589D01*
D02*
G37*
G36*
X506644Y193945D02*
X505000D01*
Y192301D01*
X505358Y192373D01*
X506086Y192859D01*
X506572Y193587D01*
X506644Y193945D01*
D02*
G37*
G36*
X504000D02*
X502356D01*
X502428Y193587D01*
X502914Y192859D01*
X503642Y192373D01*
X504000Y192301D01*
Y193945D01*
D02*
G37*
G36*
X633500Y188469D02*
Y185000D01*
X636969D01*
X636897Y185544D01*
X636494Y186517D01*
X635853Y187353D01*
X635017Y187994D01*
X634044Y188397D01*
X633500Y188469D01*
D02*
G37*
G36*
X567000D02*
Y185000D01*
X570469D01*
X570397Y185544D01*
X569994Y186517D01*
X569353Y187353D01*
X568517Y187994D01*
X567544Y188397D01*
X567000Y188469D01*
D02*
G37*
G36*
X566000D02*
X565456Y188397D01*
X564483Y187994D01*
X563647Y187353D01*
X563006Y186517D01*
X562603Y185544D01*
X562531Y185000D01*
X566000D01*
Y188469D01*
D02*
G37*
G36*
X632500D02*
X631956Y188397D01*
X630983Y187994D01*
X630147Y187353D01*
X629506Y186517D01*
X629103Y185544D01*
X629031Y185000D01*
X632500D01*
Y188469D01*
D02*
G37*
G36*
X636969Y184000D02*
X633500D01*
Y180531D01*
X634044Y180603D01*
X635017Y181006D01*
X635853Y181647D01*
X636494Y182483D01*
X636897Y183456D01*
X636969Y184000D01*
D02*
G37*
G36*
X570469D02*
X567000D01*
Y180531D01*
X567544Y180603D01*
X568517Y181006D01*
X569353Y181647D01*
X569994Y182483D01*
X570397Y183456D01*
X570469Y184000D01*
D02*
G37*
G36*
X566000D02*
X562531D01*
X562603Y183456D01*
X563006Y182483D01*
X563647Y181647D01*
X564483Y181006D01*
X565456Y180603D01*
X566000Y180531D01*
Y184000D01*
D02*
G37*
G36*
X632500D02*
X629031D01*
X629103Y183456D01*
X629506Y182483D01*
X630147Y181647D01*
X630983Y181006D01*
X631956Y180603D01*
X632500Y180531D01*
Y184000D01*
D02*
G37*
G36*
X638500Y159500D02*
X627500D01*
Y150000D01*
X638500D01*
Y159500D01*
D02*
G37*
G36*
X572000D02*
X561000D01*
Y150000D01*
X572000D01*
Y159500D01*
D02*
G37*
G36*
X397500Y123642D02*
X395814Y123476D01*
X394193Y122984D01*
X392699Y122185D01*
X391389Y121110D01*
X390315Y119801D01*
X389516Y118307D01*
X389024Y116686D01*
X388858Y115000D01*
X389024Y113314D01*
X389516Y111693D01*
X390315Y110199D01*
X391389Y108889D01*
X392699Y107815D01*
X394193Y107016D01*
X395814Y106524D01*
X397500Y106358D01*
X399186Y106524D01*
X400807Y107016D01*
X402301Y107815D01*
X403611Y108889D01*
X404685Y110199D01*
X405484Y111693D01*
X405976Y113314D01*
X406142Y115000D01*
X405976Y116686D01*
X405484Y118307D01*
X404685Y119801D01*
X403611Y121110D01*
X402301Y122185D01*
X400807Y122984D01*
X399186Y123476D01*
X397500Y123642D01*
D02*
G37*
G36*
X717500Y230000D02*
X672500D01*
Y105000D01*
X717500D01*
Y230000D01*
D02*
G37*
%LPD*%
D12*
X554000Y292500D02*
X574500D01*
X512500Y320000D02*
X522500D01*
X512500Y330000D02*
X522500D01*
X512500Y340000D02*
X522500D01*
X512500Y350000D02*
X522500D01*
X512500Y360000D02*
X522500D01*
X512500Y370000D02*
X522500D01*
X512500Y380000D02*
X522500D01*
X512500Y390000D02*
X522500D01*
X512500Y400000D02*
X522500D01*
X512500Y410000D02*
X522500D01*
X512500Y420000D02*
X522500D01*
X512500Y430000D02*
X522500D01*
X424500Y264000D02*
Y271000D01*
X430000Y264000D02*
Y271000D01*
X434000Y264000D02*
Y279000D01*
X559000Y255000D02*
X575000D01*
X559000Y260000D02*
X575000D01*
X559000Y431500D02*
X575000D01*
X436500Y235000D02*
X437000D01*
X431500D02*
X436500D01*
X429500D02*
X431500D01*
X545000Y405000D02*
X557500D01*
X545000Y325000D02*
X552500D01*
X545000Y395000D02*
X575000D01*
X545000Y400000D02*
X575000D01*
X554000Y535000D02*
X574000D01*
X559000Y556000D02*
X569500Y566500D01*
X556500Y540000D02*
X574000D01*
D70*
X483500Y248500D02*
X490000D01*
X562500Y342500D02*
X575000D01*
X566000Y320000D02*
X575000D01*
X562500Y482500D02*
X575000D01*
X566000Y460000D02*
X575000D01*
D71*
X420590Y576240D02*
D03*
Y477854D02*
D03*
D72*
X426181Y505236D02*
D03*
D73*
X415000Y510689D02*
D03*
X426181Y516142D02*
D03*
X415000Y521594D02*
D03*
X426181Y527047D02*
D03*
X415000Y532500D02*
D03*
X426181Y537953D02*
D03*
X415000Y543405D02*
D03*
X426181Y548858D02*
D03*
D74*
X512500Y430000D02*
D03*
X522500D02*
D03*
X512500Y420000D02*
D03*
X522500D02*
D03*
X512500Y410000D02*
D03*
X522500D02*
D03*
X512500Y400000D02*
D03*
X522500D02*
D03*
X512500Y390000D02*
D03*
X522500D02*
D03*
X512500Y380000D02*
D03*
X522500D02*
D03*
X512500Y370000D02*
D03*
X522500D02*
D03*
X512500Y360000D02*
D03*
X522500D02*
D03*
X512500Y350000D02*
D03*
X522500D02*
D03*
X512500Y340000D02*
D03*
X522500D02*
D03*
X512500Y330000D02*
D03*
X522500D02*
D03*
X512500Y320000D02*
D03*
X522500D02*
D03*
X512500Y310000D02*
D03*
X522500D02*
D03*
X512500Y300000D02*
D03*
X522500D02*
D03*
X512500Y290000D02*
D03*
X522500D02*
D03*
X512500Y280000D02*
D03*
X532500Y290000D02*
D03*
Y300000D02*
D03*
Y310000D02*
D03*
Y320000D02*
D03*
Y330000D02*
D03*
Y340000D02*
D03*
Y350000D02*
D03*
Y360000D02*
D03*
Y370000D02*
D03*
Y380000D02*
D03*
Y390000D02*
D03*
Y400000D02*
D03*
Y410000D02*
D03*
Y420000D02*
D03*
Y430000D02*
D03*
X405000Y257500D02*
D03*
Y247500D02*
D03*
Y237500D02*
D03*
Y227500D02*
D03*
Y217500D02*
D03*
D75*
X522500Y280000D02*
D03*
X532500D02*
D03*
X405000Y267500D02*
D03*
D76*
X404500Y367500D02*
D03*
Y450000D02*
D03*
X566500Y184500D02*
D03*
X633000D02*
D03*
D77*
X414343Y367500D02*
D03*
Y450000D02*
D03*
D78*
X566500Y155000D02*
D03*
X633000D02*
D03*
D79*
X693012Y255807D02*
D03*
X731988D02*
D03*
Y269193D02*
D03*
X693012Y395807D02*
D03*
X731988D02*
D03*
Y409193D02*
D03*
Y549193D02*
D03*
Y535807D02*
D03*
X693012D02*
D03*
D80*
Y269193D02*
D03*
Y409193D02*
D03*
Y549193D02*
D03*
D81*
X554000Y292500D02*
D03*
X574500D02*
D03*
X465000Y420000D02*
D03*
Y427500D02*
D03*
X427500Y432500D02*
D03*
X428500Y427500D02*
D03*
X462500Y212500D02*
D03*
X455000D02*
D03*
X424500Y264000D02*
D03*
Y271000D02*
D03*
X430000D02*
D03*
X436500Y235000D02*
D03*
X456500Y231500D02*
D03*
X490000Y248500D02*
D03*
X429500Y289000D02*
D03*
X486000Y314500D02*
D03*
X445000Y341500D02*
D03*
X483500Y248500D02*
D03*
X559000Y255000D02*
D03*
Y260000D02*
D03*
X562500Y342500D02*
D03*
X559000Y431500D02*
D03*
X431500Y235000D02*
D03*
X557500Y405000D02*
D03*
X552500Y325000D02*
D03*
X545000Y395000D02*
D03*
Y400000D02*
D03*
Y405000D02*
D03*
Y325000D02*
D03*
X434000Y279000D02*
D03*
Y264000D02*
D03*
X430000D02*
D03*
X504500Y194445D02*
D03*
X455000Y250500D02*
D03*
X442500D02*
D03*
X425000Y305047D02*
D03*
X566000Y320000D02*
D03*
X554000Y535000D02*
D03*
X559000Y556000D02*
D03*
X562500Y482500D02*
D03*
X556500Y540000D02*
D03*
X569500Y566500D02*
D03*
X575000Y482500D02*
D03*
X566000Y460000D02*
D03*
X575000D02*
D03*
Y320000D02*
D03*
Y342500D02*
D03*
Y431500D02*
D03*
Y400000D02*
D03*
X574000Y535000D02*
D03*
Y540000D02*
D03*
X575000Y395000D02*
D03*
Y260000D02*
D03*
Y255000D02*
D03*
X634494Y325506D02*
D03*
Y465506D02*
D03*
X634500Y605500D02*
D03*
X491500Y207720D02*
D03*
X462500Y250500D02*
D03*
X615000Y237500D02*
D03*
X592500Y250000D02*
D03*
X662500Y320000D02*
D03*
X615000Y377500D02*
D03*
X592500Y390000D02*
D03*
X662500Y460000D02*
D03*
X615000Y517500D02*
D03*
X592500Y530000D02*
D03*
X662500Y600000D02*
D03*
D82*
X397500Y115000D02*
D03*
Y612500D02*
D03*
X707500D02*
D03*
D83*
X695000Y167500D02*
D03*
Y127500D02*
D03*
X757500D02*
D03*
X695000Y207500D02*
D03*
X757500D02*
D03*
Y167500D02*
D03*
X760000Y570000D02*
D03*
Y290000D02*
D03*
Y430000D02*
D03*
D84*
X655000Y297500D02*
D03*
X662500D02*
D03*
X670000Y292500D02*
D03*
X613000Y222500D02*
D03*
Y212500D02*
D03*
X670000Y432500D02*
D03*
X655000Y437500D02*
D03*
X662500D02*
D03*
X613000Y362500D02*
D03*
Y352500D02*
D03*
X662500Y577500D02*
D03*
X670000Y572500D02*
D03*
X655000Y577500D02*
D03*
X613000Y502500D02*
D03*
Y492500D02*
D03*
M02*
